M48
; DRILL file {KiCad (6.0.7)} date Wed Sep 28 03:26:42 2022
; FORMAT={-:-/ absolute / inch / decimal}
; #@! TF.CreationDate,2022-09-28T03:26:42-04:00
; #@! TF.GenerationSoftware,Kicad,Pcbnew,(6.0.7)
; #@! TF.FileFunction,Plated,1,4,PTH
FMAT,2
INCH
; #@! TA.AperFunction,Plated,PTH,ComponentDrill
T1C0.0138
; #@! TA.AperFunction,Plated,PTH,ViaDrill
T2C0.0157
; #@! TA.AperFunction,Plated,PTH,ComponentDrill
T3C0.0157
; #@! TA.AperFunction,Plated,PTH,ComponentDrill
T4C0.0197
; #@! TA.AperFunction,Plated,PTH,ComponentDrill
T5C0.0394
; #@! TA.AperFunction,Plated,PTH,ComponentDrill
T6C0.0591
; #@! TA.AperFunction,Plated,PTH,ComponentDrill
T7C0.0669
%
G90
G05
T1
X4.4959Y-3.5945
X4.5314Y-3.559
X4.5314Y-3.63
X4.5669Y-3.5235
X4.5669Y-3.5945
X4.5669Y-3.6655
X4.6024Y-3.559
X4.6024Y-3.63
X4.6379Y-3.5945
T2
X3.752Y-4.5551
X3.8031Y-3.9961
X3.9488Y-4.5787
X3.9606Y-2.748
X3.9606Y-2.9488
X4.0394Y-2.7992
X4.0617Y-2.9501
X4.1104Y-2.9988
X4.1929Y-4.1575
X4.2323Y-3.4528
X4.248Y-2.5079
X4.2638Y-3.374
X4.2638Y-3.4134
X4.3071Y-3.374
X4.3351Y-3.4017
X4.3664Y-3.3778
X4.3898Y-4.1772
X4.3933Y-3.6846
X4.3997Y-3.3995
X4.4365Y-3.4139
X4.4409Y-4.5354
X4.4567Y-4.315
X4.484Y-3.5549
X4.5Y-4.3346
X4.502Y-3.3681
X4.5039Y-3.6575
X4.5138Y-4.4302
X4.5157Y-2.1024
X4.5157Y-2.1496
X4.5433Y-4.0787
X4.5677Y-3.7283
X4.5709Y-4.5197
X4.5748Y-4.1102
X4.5748Y-4.3307
X4.6299Y-3.5276
X4.6535Y-3.9764
X4.6772Y-4.0079
X4.6969Y-2.9409
X4.7126Y-3.063
X4.7992Y-1.9213
X4.8031Y-3.3976
X4.8386Y-3.4921
X4.874Y-4.3622
X4.8779Y-3.4921
X4.9961Y-3.1024
X5.2323Y-4.6535
T3
X4.3268Y-4.4445
X4.3425Y-4.472
X4.374Y-4.472
X4.3898Y-4.4445
X4.4055Y-4.472
X4.4213Y-4.4445
X4.4528Y-4.4445
X4.4685Y-4.472
X4.4843Y-4.4445
X4.5Y-4.472
X4.5315Y-4.472
X4.5472Y-4.4445
T5
X3.7709Y-3.123
X3.7726Y-2.5984
X3.7726Y-2.6984
X3.7726Y-2.7984
X3.7726Y-2.8984
X3.8709Y-3.123
X3.9709Y-3.123
X4.0709Y-3.123
X4.7898Y-3.0197
X4.8898Y-3.0197
X4.9488Y-4.3622
X4.9488Y-4.6614
X5.3474Y-2.8809
X5.3474Y-2.9809
X5.3474Y-3.0809
X5.3474Y-3.2746
X5.3474Y-3.3746
X5.3474Y-3.4746
X5.3474Y-3.6683
X5.3474Y-3.7683
X5.3474Y-3.8683
X5.3474Y-4.062
X5.3474Y-4.162
X5.3474Y-4.262
X5.3474Y-4.4557
X5.3474Y-4.5557
X5.3474Y-4.6557
T6
X3.8858Y-1.9724
T7
X3.7858Y-1.8724
X3.7858Y-2.0724
X3.9858Y-1.8724
X3.9858Y-2.0724
T4
G00X4.2602Y-4.6906
M15
G01X4.2602Y-4.7142
M16
G05
G00X4.2744Y-4.4563
M15
G01X4.2744Y-4.4799
M16
G05
G00X4.5996Y-4.4563
M15
G01X4.5996Y-4.4799
M16
G05
G00X4.6138Y-4.6906
M15
G01X4.6138Y-4.7142
M16
G05
T0
M30
