M48
; DRILL file {KiCad (6.0.7)} date Mon Aug 29 22:08:20 2022
; FORMAT={-:-/ absolute / inch / decimal}
; #@! TF.CreationDate,2022-08-29T22:08:20-04:00
; #@! TF.GenerationSoftware,Kicad,Pcbnew,(6.0.7)
; #@! TF.FileFunction,Plated,1,2,PTH
FMAT,2
INCH
; #@! TA.AperFunction,Plated,PTH,ViaDrill
T1C0.0157
; #@! TA.AperFunction,Plated,PTH,ComponentDrill
T2C0.0394
; #@! TA.AperFunction,Plated,PTH,ComponentDrill
T3C0.0402
%
G90
G05
T1
X4.695Y-4.22
X4.72Y-4.9
X4.8Y-4.2485
X5.175Y-5.57
X6.315Y-4.42
X6.315Y-4.52
T2
X4.48Y-5.7
X4.5Y-4.14
X4.58Y-5.7
X4.6Y-4.14
X4.68Y-5.7
X4.7Y-4.14
X4.8Y-4.14
X4.8794Y-5.7078
X4.9794Y-5.7078
X5.0794Y-5.7078
X5.2794Y-5.7078
X5.3794Y-5.7078
X5.4794Y-5.7078
X5.5Y-4.14
X5.6Y-4.14
X5.6794Y-5.7078
X5.7Y-4.14
X5.7794Y-5.7078
X5.8Y-4.14
X5.8794Y-5.7078
X5.9Y-4.14
X6.0794Y-5.7078
X6.1794Y-5.7078
X6.2794Y-5.7078
X6.36Y-5.18
X6.3708Y-5.379
X6.421Y-4.2208
X6.421Y-4.3208
X6.421Y-4.4208
X6.421Y-4.5208
X6.421Y-4.6208
X6.421Y-4.7208
X6.421Y-4.8208
X6.421Y-4.9208
X6.46Y-5.18
X6.4708Y-5.379
T3
X4.17Y-4.65
X4.17Y-5.35
X4.27Y-4.65
X4.27Y-5.35
X4.37Y-4.65
X4.37Y-5.35
X4.47Y-4.65
X4.47Y-5.35
X4.57Y-4.65
X4.57Y-5.35
X4.67Y-4.65
X4.67Y-5.35
X4.77Y-4.65
X4.77Y-5.35
X4.87Y-4.65
X4.87Y-5.35
X4.97Y-4.65
X4.97Y-5.35
X5.07Y-4.65
X5.07Y-5.35
X5.17Y-4.65
X5.17Y-5.35
X5.27Y-4.65
X5.27Y-5.35
X5.37Y-4.65
X5.37Y-5.35
X5.47Y-4.65
X5.47Y-5.35
X5.57Y-4.65
X5.57Y-5.35
X5.67Y-4.65
X5.67Y-5.35
X5.77Y-4.65
X5.77Y-5.35
X5.87Y-4.65
X5.87Y-5.35
X5.97Y-4.65
X5.97Y-5.35
X6.0609Y-4.9
X6.0609Y-5.0
X6.0609Y-5.1
X6.07Y-4.65
X6.07Y-5.35
T0
M30
