%TF.GenerationSoftware,KiCad,Pcbnew,(6.0.7)*%
%TF.CreationDate,2022-08-23T02:17:12-04:00*%
%TF.ProjectId,PicoPilot,5069636f-5069-46c6-9f74-2e6b69636164,rev?*%
%TF.SameCoordinates,Original*%
%TF.FileFunction,Legend,Top*%
%TF.FilePolarity,Positive*%
%FSLAX46Y46*%
G04 Gerber Fmt 4.6, Leading zero omitted, Abs format (unit mm)*
G04 Created by KiCad (PCBNEW (6.0.7)) date 2022-08-23 02:17:12*
%MOMM*%
%LPD*%
G01*
G04 APERTURE LIST*
%ADD10C,0.150000*%
%ADD11C,0.120000*%
G04 APERTURE END LIST*
D10*
X122372380Y-56975238D02*
X121372380Y-56975238D01*
X122372380Y-56499047D02*
X121372380Y-56499047D01*
X122086666Y-56165714D01*
X121372380Y-55832380D01*
X122372380Y-55832380D01*
X121372380Y-55356190D02*
X122181904Y-55356190D01*
X122277142Y-55308571D01*
X122324761Y-55260952D01*
X122372380Y-55165714D01*
X122372380Y-54975238D01*
X122324761Y-54880000D01*
X122277142Y-54832380D01*
X122181904Y-54784761D01*
X121372380Y-54784761D01*
X123007619Y-68032380D02*
X123198095Y-68032380D01*
X123293333Y-68080000D01*
X123388571Y-68175238D01*
X123436190Y-68365714D01*
X123436190Y-68699047D01*
X123388571Y-68889523D01*
X123293333Y-68984761D01*
X123198095Y-69032380D01*
X123007619Y-69032380D01*
X122912380Y-68984761D01*
X122817142Y-68889523D01*
X122769523Y-68699047D01*
X122769523Y-68365714D01*
X122817142Y-68175238D01*
X122912380Y-68080000D01*
X123007619Y-68032380D01*
X124340952Y-69032380D02*
X123864761Y-69032380D01*
X123864761Y-68032380D01*
X124674285Y-68508571D02*
X125007619Y-68508571D01*
X125150476Y-69032380D02*
X124674285Y-69032380D01*
X124674285Y-68032380D01*
X125150476Y-68032380D01*
X125579047Y-69032380D02*
X125579047Y-68032380D01*
X125817142Y-68032380D01*
X125960000Y-68080000D01*
X126055238Y-68175238D01*
X126102857Y-68270476D01*
X126150476Y-68460952D01*
X126150476Y-68603809D01*
X126102857Y-68794285D01*
X126055238Y-68889523D01*
X125960000Y-68984761D01*
X125817142Y-69032380D01*
X125579047Y-69032380D01*
X161845714Y-68080000D02*
X161750476Y-68032380D01*
X161607619Y-68032380D01*
X161464761Y-68080000D01*
X161369523Y-68175238D01*
X161321904Y-68270476D01*
X161274285Y-68460952D01*
X161274285Y-68603809D01*
X161321904Y-68794285D01*
X161369523Y-68889523D01*
X161464761Y-68984761D01*
X161607619Y-69032380D01*
X161702857Y-69032380D01*
X161845714Y-68984761D01*
X161893333Y-68937142D01*
X161893333Y-68603809D01*
X161702857Y-68603809D01*
X162321904Y-69032380D02*
X162321904Y-68032380D01*
X162702857Y-68032380D01*
X162798095Y-68080000D01*
X162845714Y-68127619D01*
X162893333Y-68222857D01*
X162893333Y-68365714D01*
X162845714Y-68460952D01*
X162798095Y-68508571D01*
X162702857Y-68556190D01*
X162321904Y-68556190D01*
X163274285Y-68984761D02*
X163417142Y-69032380D01*
X163655238Y-69032380D01*
X163750476Y-68984761D01*
X163798095Y-68937142D01*
X163845714Y-68841904D01*
X163845714Y-68746666D01*
X163798095Y-68651428D01*
X163750476Y-68603809D01*
X163655238Y-68556190D01*
X163464761Y-68508571D01*
X163369523Y-68460952D01*
X163321904Y-68413333D01*
X163274285Y-68318095D01*
X163274285Y-68222857D01*
X163321904Y-68127619D01*
X163369523Y-68080000D01*
X163464761Y-68032380D01*
X163702857Y-68032380D01*
X163845714Y-68080000D01*
X182951428Y-122300952D02*
X182951428Y-121539047D01*
X182499047Y-119451428D02*
X183260952Y-119451428D01*
X182880000Y-119832380D02*
X182880000Y-119070476D01*
X182332380Y-109921904D02*
X182332380Y-109350476D01*
X183332380Y-109636190D02*
X182332380Y-109636190D01*
X182332380Y-109112380D02*
X183332380Y-108445714D01*
X182332380Y-108445714D02*
X183332380Y-109112380D01*
X183332380Y-111866666D02*
X182856190Y-112200000D01*
X183332380Y-112438095D02*
X182332380Y-112438095D01*
X182332380Y-112057142D01*
X182380000Y-111961904D01*
X182427619Y-111914285D01*
X182522857Y-111866666D01*
X182665714Y-111866666D01*
X182760952Y-111914285D01*
X182808571Y-111961904D01*
X182856190Y-112057142D01*
X182856190Y-112438095D01*
X182332380Y-111533333D02*
X183332380Y-110866666D01*
X182332380Y-110866666D02*
X183332380Y-111533333D01*
%TO.C,P5*%
X124912380Y-148058095D02*
X123912380Y-148058095D01*
X123912380Y-147677142D01*
X123960000Y-147581904D01*
X124007619Y-147534285D01*
X124102857Y-147486666D01*
X124245714Y-147486666D01*
X124340952Y-147534285D01*
X124388571Y-147581904D01*
X124436190Y-147677142D01*
X124436190Y-148058095D01*
X123912380Y-146581904D02*
X123912380Y-147058095D01*
X124388571Y-147105714D01*
X124340952Y-147058095D01*
X124293333Y-146962857D01*
X124293333Y-146724761D01*
X124340952Y-146629523D01*
X124388571Y-146581904D01*
X124483809Y-146534285D01*
X124721904Y-146534285D01*
X124817142Y-146581904D01*
X124864761Y-146629523D01*
X124912380Y-146724761D01*
X124912380Y-146962857D01*
X124864761Y-147058095D01*
X124817142Y-147105714D01*
X117499047Y-142692380D02*
X117499047Y-141692380D01*
X117880000Y-141692380D01*
X117975238Y-141740000D01*
X118022857Y-141787619D01*
X118070476Y-141882857D01*
X118070476Y-142025714D01*
X118022857Y-142120952D01*
X117975238Y-142168571D01*
X117880000Y-142216190D01*
X117499047Y-142216190D01*
X118403809Y-141692380D02*
X118641904Y-142692380D01*
X118832380Y-141978095D01*
X119022857Y-142692380D01*
X119260952Y-141692380D01*
X119641904Y-142692380D02*
X119641904Y-141692380D01*
X119975238Y-142406666D01*
X120308571Y-141692380D01*
X120308571Y-142692380D01*
X121260952Y-141692380D02*
X120784761Y-141692380D01*
X120737142Y-142168571D01*
X120784761Y-142120952D01*
X120880000Y-142073333D01*
X121118095Y-142073333D01*
X121213333Y-142120952D01*
X121260952Y-142168571D01*
X121308571Y-142263809D01*
X121308571Y-142501904D01*
X121260952Y-142597142D01*
X121213333Y-142644761D01*
X121118095Y-142692380D01*
X120880000Y-142692380D01*
X120784761Y-142644761D01*
X120737142Y-142597142D01*
%TO.C,P4*%
X137327380Y-148058095D02*
X136327380Y-148058095D01*
X136327380Y-147677142D01*
X136375000Y-147581904D01*
X136422619Y-147534285D01*
X136517857Y-147486666D01*
X136660714Y-147486666D01*
X136755952Y-147534285D01*
X136803571Y-147581904D01*
X136851190Y-147677142D01*
X136851190Y-148058095D01*
X136660714Y-146629523D02*
X137327380Y-146629523D01*
X136279761Y-146867619D02*
X136994047Y-147105714D01*
X136994047Y-146486666D01*
X130199047Y-142692380D02*
X130199047Y-141692380D01*
X130580000Y-141692380D01*
X130675238Y-141740000D01*
X130722857Y-141787619D01*
X130770476Y-141882857D01*
X130770476Y-142025714D01*
X130722857Y-142120952D01*
X130675238Y-142168571D01*
X130580000Y-142216190D01*
X130199047Y-142216190D01*
X131103809Y-141692380D02*
X131341904Y-142692380D01*
X131532380Y-141978095D01*
X131722857Y-142692380D01*
X131960952Y-141692380D01*
X132341904Y-142692380D02*
X132341904Y-141692380D01*
X132675238Y-142406666D01*
X133008571Y-141692380D01*
X133008571Y-142692380D01*
X133913333Y-142025714D02*
X133913333Y-142692380D01*
X133675238Y-141644761D02*
X133437142Y-142359047D01*
X134056190Y-142359047D01*
%TO.C,P3*%
X150042380Y-148058095D02*
X149042380Y-148058095D01*
X149042380Y-147677142D01*
X149090000Y-147581904D01*
X149137619Y-147534285D01*
X149232857Y-147486666D01*
X149375714Y-147486666D01*
X149470952Y-147534285D01*
X149518571Y-147581904D01*
X149566190Y-147677142D01*
X149566190Y-148058095D01*
X149042380Y-147153333D02*
X149042380Y-146534285D01*
X149423333Y-146867619D01*
X149423333Y-146724761D01*
X149470952Y-146629523D01*
X149518571Y-146581904D01*
X149613809Y-146534285D01*
X149851904Y-146534285D01*
X149947142Y-146581904D01*
X149994761Y-146629523D01*
X150042380Y-146724761D01*
X150042380Y-147010476D01*
X149994761Y-147105714D01*
X149947142Y-147153333D01*
X142899047Y-142692380D02*
X142899047Y-141692380D01*
X143280000Y-141692380D01*
X143375238Y-141740000D01*
X143422857Y-141787619D01*
X143470476Y-141882857D01*
X143470476Y-142025714D01*
X143422857Y-142120952D01*
X143375238Y-142168571D01*
X143280000Y-142216190D01*
X142899047Y-142216190D01*
X143803809Y-141692380D02*
X144041904Y-142692380D01*
X144232380Y-141978095D01*
X144422857Y-142692380D01*
X144660952Y-141692380D01*
X145041904Y-142692380D02*
X145041904Y-141692380D01*
X145375238Y-142406666D01*
X145708571Y-141692380D01*
X145708571Y-142692380D01*
X146089523Y-141692380D02*
X146708571Y-141692380D01*
X146375238Y-142073333D01*
X146518095Y-142073333D01*
X146613333Y-142120952D01*
X146660952Y-142168571D01*
X146708571Y-142263809D01*
X146708571Y-142501904D01*
X146660952Y-142597142D01*
X146613333Y-142644761D01*
X146518095Y-142692380D01*
X146232380Y-142692380D01*
X146137142Y-142644761D01*
X146089523Y-142597142D01*
%TO.C,P2*%
X163012380Y-148058095D02*
X162012380Y-148058095D01*
X162012380Y-147677142D01*
X162060000Y-147581904D01*
X162107619Y-147534285D01*
X162202857Y-147486666D01*
X162345714Y-147486666D01*
X162440952Y-147534285D01*
X162488571Y-147581904D01*
X162536190Y-147677142D01*
X162536190Y-148058095D01*
X162107619Y-147105714D02*
X162060000Y-147058095D01*
X162012380Y-146962857D01*
X162012380Y-146724761D01*
X162060000Y-146629523D01*
X162107619Y-146581904D01*
X162202857Y-146534285D01*
X162298095Y-146534285D01*
X162440952Y-146581904D01*
X163012380Y-147153333D01*
X163012380Y-146534285D01*
X155599047Y-142692380D02*
X155599047Y-141692380D01*
X155980000Y-141692380D01*
X156075238Y-141740000D01*
X156122857Y-141787619D01*
X156170476Y-141882857D01*
X156170476Y-142025714D01*
X156122857Y-142120952D01*
X156075238Y-142168571D01*
X155980000Y-142216190D01*
X155599047Y-142216190D01*
X156503809Y-141692380D02*
X156741904Y-142692380D01*
X156932380Y-141978095D01*
X157122857Y-142692380D01*
X157360952Y-141692380D01*
X157741904Y-142692380D02*
X157741904Y-141692380D01*
X158075238Y-142406666D01*
X158408571Y-141692380D01*
X158408571Y-142692380D01*
X158837142Y-141787619D02*
X158884761Y-141740000D01*
X158980000Y-141692380D01*
X159218095Y-141692380D01*
X159313333Y-141740000D01*
X159360952Y-141787619D01*
X159408571Y-141882857D01*
X159408571Y-141978095D01*
X159360952Y-142120952D01*
X158789523Y-142692380D01*
X159408571Y-142692380D01*
%TO.C,P1*%
X175712380Y-148058095D02*
X174712380Y-148058095D01*
X174712380Y-147677142D01*
X174760000Y-147581904D01*
X174807619Y-147534285D01*
X174902857Y-147486666D01*
X175045714Y-147486666D01*
X175140952Y-147534285D01*
X175188571Y-147581904D01*
X175236190Y-147677142D01*
X175236190Y-148058095D01*
X175712380Y-146534285D02*
X175712380Y-147105714D01*
X175712380Y-146820000D02*
X174712380Y-146820000D01*
X174855238Y-146915238D01*
X174950476Y-147010476D01*
X174998095Y-147105714D01*
X168299047Y-142692380D02*
X168299047Y-141692380D01*
X168680000Y-141692380D01*
X168775238Y-141740000D01*
X168822857Y-141787619D01*
X168870476Y-141882857D01*
X168870476Y-142025714D01*
X168822857Y-142120952D01*
X168775238Y-142168571D01*
X168680000Y-142216190D01*
X168299047Y-142216190D01*
X169203809Y-141692380D02*
X169441904Y-142692380D01*
X169632380Y-141978095D01*
X169822857Y-142692380D01*
X170060952Y-141692380D01*
X170441904Y-142692380D02*
X170441904Y-141692380D01*
X170775238Y-142406666D01*
X171108571Y-141692380D01*
X171108571Y-142692380D01*
X172108571Y-142692380D02*
X171537142Y-142692380D01*
X171822857Y-142692380D02*
X171822857Y-141692380D01*
X171727619Y-141835238D01*
X171632380Y-141930476D01*
X171537142Y-141978095D01*
%TO.C,*%
%TO.C,U1*%
X141692380Y-117601904D02*
X142501904Y-117601904D01*
X142597142Y-117554285D01*
X142644761Y-117506666D01*
X142692380Y-117411428D01*
X142692380Y-117220952D01*
X142644761Y-117125714D01*
X142597142Y-117078095D01*
X142501904Y-117030476D01*
X141692380Y-117030476D01*
X142692380Y-116030476D02*
X142692380Y-116601904D01*
X142692380Y-116316190D02*
X141692380Y-116316190D01*
X141835238Y-116411428D01*
X141930476Y-116506666D01*
X141978095Y-116601904D01*
X154060592Y-130996277D02*
X154087529Y-131077089D01*
X154168341Y-131157902D01*
X154276091Y-131211776D01*
X154383841Y-131211776D01*
X154464653Y-131184839D01*
X154599340Y-131104027D01*
X154680152Y-131023215D01*
X154760964Y-130888528D01*
X154787902Y-130807715D01*
X154787902Y-130699966D01*
X154734027Y-130592216D01*
X154680152Y-130538341D01*
X154572402Y-130484467D01*
X154518528Y-130484467D01*
X154329966Y-130673028D01*
X154437715Y-130780778D01*
X154329966Y-130188155D02*
X153764280Y-130753841D01*
X153548781Y-130538341D01*
X153521844Y-130457529D01*
X153521844Y-130403654D01*
X153548781Y-130322842D01*
X153629593Y-130242030D01*
X153710406Y-130215093D01*
X153764280Y-130215093D01*
X153845093Y-130242030D01*
X154060592Y-130457529D01*
X153467969Y-129326158D02*
X153791218Y-129649407D01*
X153629593Y-129487783D02*
X153063908Y-130053468D01*
X153198595Y-130026531D01*
X153306345Y-130026531D01*
X153387157Y-130053468D01*
X152929221Y-128787410D02*
X153252470Y-129110659D01*
X153090845Y-128949035D02*
X152525160Y-129514720D01*
X152659847Y-129487783D01*
X152767597Y-129487783D01*
X152848409Y-129514720D01*
X136980964Y-104688402D02*
X136711590Y-104419028D01*
X137196463Y-104580653D02*
X136442216Y-104957776D01*
X136819340Y-104203529D01*
X135795719Y-104257404D02*
X135822656Y-104338216D01*
X135903468Y-104419028D01*
X136011218Y-104472903D01*
X136118967Y-104472903D01*
X136199780Y-104445966D01*
X136334467Y-104365154D01*
X136415279Y-104284341D01*
X136496091Y-104149654D01*
X136523028Y-104068842D01*
X136523028Y-103961093D01*
X136469154Y-103853343D01*
X136415279Y-103799468D01*
X136307529Y-103745593D01*
X136253654Y-103745593D01*
X136065093Y-103934155D01*
X136172842Y-104041905D01*
X136065093Y-103449282D02*
X135499407Y-104014967D01*
X135741844Y-103126033D01*
X135176158Y-103691719D01*
X135472470Y-102856659D02*
X134906784Y-103422345D01*
X134772097Y-103287658D01*
X134718223Y-103179908D01*
X134718223Y-103072158D01*
X134745160Y-102991346D01*
X134825972Y-102856659D01*
X134906784Y-102775847D01*
X135041471Y-102695035D01*
X135122284Y-102668097D01*
X135230033Y-102668097D01*
X135337783Y-102721972D01*
X135472470Y-102856659D01*
X161438155Y-104753841D02*
X161465093Y-104834653D01*
X161545905Y-104915465D01*
X161653654Y-104969340D01*
X161761404Y-104969340D01*
X161842216Y-104942402D01*
X161976903Y-104861590D01*
X162057715Y-104780778D01*
X162138528Y-104646091D01*
X162165465Y-104565279D01*
X162165465Y-104457529D01*
X162111590Y-104349780D01*
X162057715Y-104295905D01*
X161949966Y-104242030D01*
X161896091Y-104242030D01*
X161707529Y-104430592D01*
X161815279Y-104538341D01*
X161707529Y-103945719D02*
X161141844Y-104511404D01*
X161384280Y-103622470D01*
X160818595Y-104188155D01*
X161114906Y-103353096D02*
X160549221Y-103918781D01*
X160414534Y-103784094D01*
X160360659Y-103676345D01*
X160360659Y-103568595D01*
X160387597Y-103487783D01*
X160468409Y-103353096D01*
X160549221Y-103272284D01*
X160683908Y-103191471D01*
X160764720Y-103164534D01*
X160872470Y-103164534D01*
X160980219Y-103218409D01*
X161114906Y-103353096D01*
X118767309Y-104886870D02*
X119144433Y-104132622D01*
X118390186Y-104509746D01*
X118282436Y-103863248D02*
X118228561Y-103755499D01*
X118228561Y-103701624D01*
X118255499Y-103620812D01*
X118336311Y-103540000D01*
X118417123Y-103513062D01*
X118470998Y-103513062D01*
X118551810Y-103540000D01*
X118767309Y-103755499D01*
X118201624Y-104321184D01*
X118013062Y-104132622D01*
X117986125Y-104051810D01*
X117986125Y-103997935D01*
X118013062Y-103917123D01*
X118066937Y-103863248D01*
X118147749Y-103836311D01*
X118201624Y-103836311D01*
X118282436Y-103863248D01*
X118470998Y-104051810D01*
X117635938Y-103755499D02*
X118093874Y-103297563D01*
X118120812Y-103216751D01*
X118120812Y-103162876D01*
X118093874Y-103082064D01*
X117986125Y-102974314D01*
X117905312Y-102947377D01*
X117851438Y-102947377D01*
X117770625Y-102974314D01*
X117312690Y-103432250D01*
X117609001Y-102651065D02*
X117555126Y-102543316D01*
X117420439Y-102408629D01*
X117339627Y-102381691D01*
X117285752Y-102381691D01*
X117204940Y-102408629D01*
X117151065Y-102462503D01*
X117124128Y-102543316D01*
X117124128Y-102597190D01*
X117151065Y-102678003D01*
X117231877Y-102812690D01*
X117258815Y-102893502D01*
X117258815Y-102947377D01*
X117231877Y-103028189D01*
X117178003Y-103082064D01*
X117097190Y-103109001D01*
X117043316Y-103109001D01*
X116962503Y-103082064D01*
X116827816Y-102947377D01*
X116773942Y-102839627D01*
X123338155Y-104753841D02*
X123365093Y-104834653D01*
X123445905Y-104915465D01*
X123553654Y-104969340D01*
X123661404Y-104969340D01*
X123742216Y-104942402D01*
X123876903Y-104861590D01*
X123957715Y-104780778D01*
X124038528Y-104646091D01*
X124065465Y-104565279D01*
X124065465Y-104457529D01*
X124011590Y-104349780D01*
X123957715Y-104295905D01*
X123849966Y-104242030D01*
X123796091Y-104242030D01*
X123607529Y-104430592D01*
X123715279Y-104538341D01*
X123607529Y-103945719D02*
X123041844Y-104511404D01*
X123284280Y-103622470D01*
X122718595Y-104188155D01*
X123014906Y-103353096D02*
X122449221Y-103918781D01*
X122314534Y-103784094D01*
X122260659Y-103676345D01*
X122260659Y-103568595D01*
X122287597Y-103487783D01*
X122368409Y-103353096D01*
X122449221Y-103272284D01*
X122583908Y-103191471D01*
X122664720Y-103164534D01*
X122772470Y-103164534D01*
X122880219Y-103218409D01*
X123014906Y-103353096D01*
X159140592Y-130850277D02*
X159167529Y-130931089D01*
X159248341Y-131011902D01*
X159356091Y-131065776D01*
X159463841Y-131065776D01*
X159544653Y-131038839D01*
X159679340Y-130958027D01*
X159760152Y-130877215D01*
X159840964Y-130742528D01*
X159867902Y-130661715D01*
X159867902Y-130553966D01*
X159814027Y-130446216D01*
X159760152Y-130392341D01*
X159652402Y-130338467D01*
X159598528Y-130338467D01*
X159409966Y-130527028D01*
X159517715Y-130634778D01*
X159409966Y-130042155D02*
X158844280Y-130607841D01*
X158628781Y-130392341D01*
X158601844Y-130311529D01*
X158601844Y-130257654D01*
X158628781Y-130176842D01*
X158709593Y-130096030D01*
X158790406Y-130069093D01*
X158844280Y-130069093D01*
X158925093Y-130096030D01*
X159140592Y-130311529D01*
X158547969Y-129180158D02*
X158871218Y-129503407D01*
X158709593Y-129341783D02*
X158143908Y-129907468D01*
X158278595Y-129880531D01*
X158386345Y-129880531D01*
X158467157Y-129907468D01*
X157793722Y-129557282D02*
X157443536Y-129207096D01*
X157847597Y-129180158D01*
X157766784Y-129099346D01*
X157739847Y-129018534D01*
X157739847Y-128964659D01*
X157766784Y-128883847D01*
X157901471Y-128749160D01*
X157982284Y-128722223D01*
X158036158Y-128722223D01*
X158116971Y-128749160D01*
X158278595Y-128910784D01*
X158305532Y-128991597D01*
X158305532Y-129045471D01*
X131773773Y-104685211D02*
X131504399Y-104415837D01*
X131989272Y-104577462D02*
X131235025Y-104954585D01*
X131612149Y-104200338D01*
X131423587Y-104011776D02*
X130857902Y-104577462D01*
X130723215Y-104442775D01*
X130669340Y-104335025D01*
X130669340Y-104227276D01*
X130696277Y-104146463D01*
X130777089Y-104011776D01*
X130857902Y-103930964D01*
X130992589Y-103850152D01*
X131073401Y-103823215D01*
X131181150Y-103823215D01*
X131288900Y-103877089D01*
X131423587Y-104011776D01*
X130480778Y-103176717D02*
X130534653Y-103176717D01*
X130642402Y-103230592D01*
X130696277Y-103284467D01*
X130750152Y-103392216D01*
X130750152Y-103499966D01*
X130723215Y-103580778D01*
X130642402Y-103715465D01*
X130561590Y-103796277D01*
X130426903Y-103877089D01*
X130346091Y-103904027D01*
X130238341Y-103904027D01*
X130130592Y-103850152D01*
X130076717Y-103796277D01*
X130022842Y-103688528D01*
X130022842Y-103634653D01*
X130480778Y-102961218D02*
X130049780Y-102530219D01*
X129376345Y-103095905D02*
X129753468Y-102341658D01*
X128999221Y-102718781D01*
X129053096Y-101641285D02*
X128972284Y-102099221D01*
X129376345Y-101964534D02*
X128810659Y-102530219D01*
X128595160Y-102314720D01*
X128568223Y-102233908D01*
X128568223Y-102180033D01*
X128595160Y-102099221D01*
X128675972Y-102018409D01*
X128756784Y-101991471D01*
X128810659Y-101991471D01*
X128891471Y-102018409D01*
X129106971Y-102233908D01*
X128514348Y-101695160D02*
X128325786Y-101506598D01*
X128541285Y-101129475D02*
X128810659Y-101398849D01*
X128244974Y-101964534D01*
X127975600Y-101695160D01*
X127813975Y-100994788D02*
X128002537Y-101183349D01*
X128298849Y-100887038D02*
X127733163Y-101452723D01*
X127463789Y-101183349D01*
X130931218Y-130326903D02*
X130958155Y-130407715D01*
X131038967Y-130488528D01*
X131146717Y-130542402D01*
X131254467Y-130542402D01*
X131335279Y-130515465D01*
X131469966Y-130434653D01*
X131550778Y-130353841D01*
X131631590Y-130219154D01*
X131658528Y-130138341D01*
X131658528Y-130030592D01*
X131604653Y-129922842D01*
X131550778Y-129868967D01*
X131443028Y-129815093D01*
X131389154Y-129815093D01*
X131200592Y-130003654D01*
X131308341Y-130111404D01*
X131200592Y-129518781D02*
X130634906Y-130084467D01*
X130419407Y-129868967D01*
X130392470Y-129788155D01*
X130392470Y-129734280D01*
X130419407Y-129653468D01*
X130500219Y-129572656D01*
X130581032Y-129545719D01*
X130634906Y-129545719D01*
X130715719Y-129572656D01*
X130931218Y-129788155D01*
X130015346Y-129087783D02*
X130392470Y-128710659D01*
X129934534Y-129437969D02*
X130473282Y-129168595D01*
X130123096Y-128818409D01*
X141061218Y-130226903D02*
X141088155Y-130307715D01*
X141168967Y-130388528D01*
X141276717Y-130442402D01*
X141384467Y-130442402D01*
X141465279Y-130415465D01*
X141599966Y-130334653D01*
X141680778Y-130253841D01*
X141761590Y-130119154D01*
X141788528Y-130038341D01*
X141788528Y-129930592D01*
X141734653Y-129822842D01*
X141680778Y-129768967D01*
X141573028Y-129715093D01*
X141519154Y-129715093D01*
X141330592Y-129903654D01*
X141438341Y-130011404D01*
X141330592Y-129418781D02*
X140764906Y-129984467D01*
X140549407Y-129768967D01*
X140522470Y-129688155D01*
X140522470Y-129634280D01*
X140549407Y-129553468D01*
X140630219Y-129472656D01*
X140711032Y-129445719D01*
X140764906Y-129445719D01*
X140845719Y-129472656D01*
X141061218Y-129688155D01*
X140253096Y-129472656D02*
X139875972Y-129095532D01*
X140684094Y-128772284D01*
X166760592Y-130850277D02*
X166787529Y-130931089D01*
X166868341Y-131011902D01*
X166976091Y-131065776D01*
X167083841Y-131065776D01*
X167164653Y-131038839D01*
X167299340Y-130958027D01*
X167380152Y-130877215D01*
X167460964Y-130742528D01*
X167487902Y-130661715D01*
X167487902Y-130553966D01*
X167434027Y-130446216D01*
X167380152Y-130392341D01*
X167272402Y-130338467D01*
X167218528Y-130338467D01*
X167029966Y-130527028D01*
X167137715Y-130634778D01*
X167029966Y-130042155D02*
X166464280Y-130607841D01*
X166248781Y-130392341D01*
X166221844Y-130311529D01*
X166221844Y-130257654D01*
X166248781Y-130176842D01*
X166329593Y-130096030D01*
X166410406Y-130069093D01*
X166464280Y-130069093D01*
X166545093Y-130096030D01*
X166760592Y-130311529D01*
X166167969Y-129180158D02*
X166491218Y-129503407D01*
X166329593Y-129341783D02*
X165763908Y-129907468D01*
X165898595Y-129880531D01*
X166006345Y-129880531D01*
X166087157Y-129907468D01*
X165090473Y-129234033D02*
X165359847Y-129503407D01*
X165656158Y-129260971D01*
X165602284Y-129260971D01*
X165521471Y-129234033D01*
X165386784Y-129099346D01*
X165359847Y-129018534D01*
X165359847Y-128964659D01*
X165386784Y-128883847D01*
X165521471Y-128749160D01*
X165602284Y-128722223D01*
X165656158Y-128722223D01*
X165736971Y-128749160D01*
X165871658Y-128883847D01*
X165898595Y-128964659D01*
X165898595Y-129018534D01*
X164220592Y-104742277D02*
X164247529Y-104823089D01*
X164328341Y-104903902D01*
X164436091Y-104957776D01*
X164543841Y-104957776D01*
X164624653Y-104930839D01*
X164759340Y-104850027D01*
X164840152Y-104769215D01*
X164920964Y-104634528D01*
X164947902Y-104553715D01*
X164947902Y-104445966D01*
X164894027Y-104338216D01*
X164840152Y-104284341D01*
X164732402Y-104230467D01*
X164678528Y-104230467D01*
X164489966Y-104419028D01*
X164597715Y-104526778D01*
X164489966Y-103934155D02*
X163924280Y-104499841D01*
X163708781Y-104284341D01*
X163681844Y-104203529D01*
X163681844Y-104149654D01*
X163708781Y-104068842D01*
X163789593Y-103988030D01*
X163870406Y-103961093D01*
X163924280Y-103961093D01*
X164005093Y-103988030D01*
X164220592Y-104203529D01*
X163627969Y-103072158D02*
X163951218Y-103395407D01*
X163789593Y-103233783D02*
X163223908Y-103799468D01*
X163358595Y-103772531D01*
X163466345Y-103772531D01*
X163547157Y-103799468D01*
X162873722Y-103449282D02*
X162496598Y-103072158D01*
X163304720Y-102748910D01*
X141360592Y-104742277D02*
X141387529Y-104823089D01*
X141468341Y-104903902D01*
X141576091Y-104957776D01*
X141683841Y-104957776D01*
X141764653Y-104930839D01*
X141899340Y-104850027D01*
X141980152Y-104769215D01*
X142060964Y-104634528D01*
X142087902Y-104553715D01*
X142087902Y-104445966D01*
X142034027Y-104338216D01*
X141980152Y-104284341D01*
X141872402Y-104230467D01*
X141818528Y-104230467D01*
X141629966Y-104419028D01*
X141737715Y-104526778D01*
X141629966Y-103934155D02*
X141064280Y-104499841D01*
X140848781Y-104284341D01*
X140821844Y-104203529D01*
X140821844Y-104149654D01*
X140848781Y-104068842D01*
X140929593Y-103988030D01*
X141010406Y-103961093D01*
X141064280Y-103961093D01*
X141145093Y-103988030D01*
X141360592Y-104203529D01*
X140579407Y-103907218D02*
X140525532Y-103907218D01*
X140444720Y-103880280D01*
X140310033Y-103745593D01*
X140283096Y-103664781D01*
X140283096Y-103610906D01*
X140310033Y-103530094D01*
X140363908Y-103476219D01*
X140471658Y-103422345D01*
X141118155Y-103422345D01*
X140767969Y-103072158D01*
X139717410Y-103152971D02*
X139825160Y-103260720D01*
X139905972Y-103287658D01*
X139959847Y-103287658D01*
X140094534Y-103260720D01*
X140229221Y-103179908D01*
X140444720Y-102964409D01*
X140471658Y-102883597D01*
X140471658Y-102829722D01*
X140444720Y-102748910D01*
X140336971Y-102641160D01*
X140256158Y-102614223D01*
X140202284Y-102614223D01*
X140121471Y-102641160D01*
X139986784Y-102775847D01*
X139959847Y-102856659D01*
X139959847Y-102910534D01*
X139986784Y-102991346D01*
X140094534Y-103099096D01*
X140175346Y-103126033D01*
X140229221Y-103126033D01*
X140310033Y-103099096D01*
X168763809Y-124349523D02*
X168801904Y-124235238D01*
X168801904Y-124044761D01*
X168763809Y-123968571D01*
X168725714Y-123930476D01*
X168649523Y-123892380D01*
X168573333Y-123892380D01*
X168497142Y-123930476D01*
X168459047Y-123968571D01*
X168420952Y-124044761D01*
X168382857Y-124197142D01*
X168344761Y-124273333D01*
X168306666Y-124311428D01*
X168230476Y-124349523D01*
X168154285Y-124349523D01*
X168078095Y-124311428D01*
X168040000Y-124273333D01*
X168001904Y-124197142D01*
X168001904Y-124006666D01*
X168040000Y-123892380D01*
X168001904Y-123625714D02*
X168801904Y-123435238D01*
X168230476Y-123282857D01*
X168801904Y-123130476D01*
X168001904Y-122940000D01*
X168725714Y-122178095D02*
X168763809Y-122216190D01*
X168801904Y-122330476D01*
X168801904Y-122406666D01*
X168763809Y-122520952D01*
X168687619Y-122597142D01*
X168611428Y-122635238D01*
X168459047Y-122673333D01*
X168344761Y-122673333D01*
X168192380Y-122635238D01*
X168116190Y-122597142D01*
X168040000Y-122520952D01*
X168001904Y-122406666D01*
X168001904Y-122330476D01*
X168040000Y-122216190D01*
X168078095Y-122178095D01*
X168801904Y-121454285D02*
X168801904Y-121835238D01*
X168001904Y-121835238D01*
X168801904Y-121187619D02*
X168001904Y-121187619D01*
X168801904Y-120730476D02*
X168344761Y-121073333D01*
X168001904Y-120730476D02*
X168459047Y-121187619D01*
X126198308Y-104917868D02*
X125848122Y-104567682D01*
X126252183Y-104540744D01*
X126171370Y-104459932D01*
X126144433Y-104379120D01*
X126144433Y-104325245D01*
X126171370Y-104244433D01*
X126306057Y-104109746D01*
X126386870Y-104082809D01*
X126440744Y-104082809D01*
X126521557Y-104109746D01*
X126683181Y-104271370D01*
X126710118Y-104352183D01*
X126710118Y-104406057D01*
X125686497Y-104406057D02*
X126063621Y-103651810D01*
X125309374Y-104028934D01*
X125174687Y-103894247D02*
X124824500Y-103544061D01*
X125228561Y-103517123D01*
X125147749Y-103436311D01*
X125120812Y-103355499D01*
X125120812Y-103301624D01*
X125147749Y-103220812D01*
X125282436Y-103086125D01*
X125363248Y-103059187D01*
X125417123Y-103059187D01*
X125497935Y-103086125D01*
X125659560Y-103247749D01*
X125686497Y-103328561D01*
X125686497Y-103382436D01*
X125336311Y-102816751D02*
X124905312Y-102385752D01*
X124420439Y-102601251D02*
X124231877Y-102412690D01*
X124447377Y-102035566D02*
X124716751Y-102304940D01*
X124151065Y-102870625D01*
X123881691Y-102601251D01*
X124204940Y-101793129D02*
X123639255Y-102358815D01*
X123881691Y-101469881D01*
X123316006Y-102035566D01*
X128730592Y-104950152D02*
X128380406Y-104599966D01*
X128784467Y-104573028D01*
X128703654Y-104492216D01*
X128676717Y-104411404D01*
X128676717Y-104357529D01*
X128703654Y-104276717D01*
X128838341Y-104142030D01*
X128919154Y-104115093D01*
X128973028Y-104115093D01*
X129053841Y-104142030D01*
X129215465Y-104303654D01*
X129242402Y-104384467D01*
X129242402Y-104438341D01*
X128218781Y-104438341D02*
X128595905Y-103684094D01*
X127841658Y-104061218D01*
X127706971Y-103926531D02*
X127356784Y-103576345D01*
X127760845Y-103549407D01*
X127680033Y-103468595D01*
X127653096Y-103387783D01*
X127653096Y-103333908D01*
X127680033Y-103253096D01*
X127814720Y-103118409D01*
X127895532Y-103091471D01*
X127949407Y-103091471D01*
X128030219Y-103118409D01*
X128191844Y-103280033D01*
X128218781Y-103360845D01*
X128218781Y-103414720D01*
X143631218Y-130326903D02*
X143658155Y-130407715D01*
X143738967Y-130488528D01*
X143846717Y-130542402D01*
X143954467Y-130542402D01*
X144035279Y-130515465D01*
X144169966Y-130434653D01*
X144250778Y-130353841D01*
X144331590Y-130219154D01*
X144358528Y-130138341D01*
X144358528Y-130030592D01*
X144304653Y-129922842D01*
X144250778Y-129868967D01*
X144143028Y-129815093D01*
X144089154Y-129815093D01*
X143900592Y-130003654D01*
X144008341Y-130111404D01*
X143900592Y-129518781D02*
X143334906Y-130084467D01*
X143119407Y-129868967D01*
X143092470Y-129788155D01*
X143092470Y-129734280D01*
X143119407Y-129653468D01*
X143200219Y-129572656D01*
X143281032Y-129545719D01*
X143334906Y-129545719D01*
X143415719Y-129572656D01*
X143631218Y-129788155D01*
X142930845Y-129195532D02*
X142957783Y-129276345D01*
X142957783Y-129330219D01*
X142930845Y-129411032D01*
X142903908Y-129437969D01*
X142823096Y-129464906D01*
X142769221Y-129464906D01*
X142688409Y-129437969D01*
X142580659Y-129330219D01*
X142553722Y-129249407D01*
X142553722Y-129195532D01*
X142580659Y-129114720D01*
X142607597Y-129087783D01*
X142688409Y-129060845D01*
X142742284Y-129060845D01*
X142823096Y-129087783D01*
X142930845Y-129195532D01*
X143011658Y-129222470D01*
X143065532Y-129222470D01*
X143146345Y-129195532D01*
X143254094Y-129087783D01*
X143281032Y-129006971D01*
X143281032Y-128953096D01*
X143254094Y-128872284D01*
X143146345Y-128764534D01*
X143065532Y-128737597D01*
X143011658Y-128737597D01*
X142930845Y-128764534D01*
X142823096Y-128872284D01*
X142796158Y-128953096D01*
X142796158Y-129006971D01*
X142823096Y-129087783D01*
X166760592Y-104742277D02*
X166787529Y-104823089D01*
X166868341Y-104903902D01*
X166976091Y-104957776D01*
X167083841Y-104957776D01*
X167164653Y-104930839D01*
X167299340Y-104850027D01*
X167380152Y-104769215D01*
X167460964Y-104634528D01*
X167487902Y-104553715D01*
X167487902Y-104445966D01*
X167434027Y-104338216D01*
X167380152Y-104284341D01*
X167272402Y-104230467D01*
X167218528Y-104230467D01*
X167029966Y-104419028D01*
X167137715Y-104526778D01*
X167029966Y-103934155D02*
X166464280Y-104499841D01*
X166248781Y-104284341D01*
X166221844Y-104203529D01*
X166221844Y-104149654D01*
X166248781Y-104068842D01*
X166329593Y-103988030D01*
X166410406Y-103961093D01*
X166464280Y-103961093D01*
X166545093Y-103988030D01*
X166760592Y-104203529D01*
X166167969Y-103072158D02*
X166491218Y-103395407D01*
X166329593Y-103233783D02*
X165763908Y-103799468D01*
X165898595Y-103772531D01*
X166006345Y-103772531D01*
X166087157Y-103799468D01*
X165117410Y-103152971D02*
X165225160Y-103260720D01*
X165305972Y-103287658D01*
X165359847Y-103287658D01*
X165494534Y-103260720D01*
X165629221Y-103179908D01*
X165844720Y-102964409D01*
X165871658Y-102883597D01*
X165871658Y-102829722D01*
X165844720Y-102748910D01*
X165736971Y-102641160D01*
X165656158Y-102614223D01*
X165602284Y-102614223D01*
X165521471Y-102641160D01*
X165386784Y-102775847D01*
X165359847Y-102856659D01*
X165359847Y-102910534D01*
X165386784Y-102991346D01*
X165494534Y-103099096D01*
X165575346Y-103126033D01*
X165629221Y-103126033D01*
X165710033Y-103099096D01*
X148738155Y-104753841D02*
X148765093Y-104834653D01*
X148845905Y-104915465D01*
X148953654Y-104969340D01*
X149061404Y-104969340D01*
X149142216Y-104942402D01*
X149276903Y-104861590D01*
X149357715Y-104780778D01*
X149438528Y-104646091D01*
X149465465Y-104565279D01*
X149465465Y-104457529D01*
X149411590Y-104349780D01*
X149357715Y-104295905D01*
X149249966Y-104242030D01*
X149196091Y-104242030D01*
X149007529Y-104430592D01*
X149115279Y-104538341D01*
X149007529Y-103945719D02*
X148441844Y-104511404D01*
X148684280Y-103622470D01*
X148118595Y-104188155D01*
X148414906Y-103353096D02*
X147849221Y-103918781D01*
X147714534Y-103784094D01*
X147660659Y-103676345D01*
X147660659Y-103568595D01*
X147687597Y-103487783D01*
X147768409Y-103353096D01*
X147849221Y-103272284D01*
X147983908Y-103191471D01*
X148064720Y-103164534D01*
X148172470Y-103164534D01*
X148280219Y-103218409D01*
X148414906Y-103353096D01*
X136038155Y-130353841D02*
X136065093Y-130434653D01*
X136145905Y-130515465D01*
X136253654Y-130569340D01*
X136361404Y-130569340D01*
X136442216Y-130542402D01*
X136576903Y-130461590D01*
X136657715Y-130380778D01*
X136738528Y-130246091D01*
X136765465Y-130165279D01*
X136765465Y-130057529D01*
X136711590Y-129949780D01*
X136657715Y-129895905D01*
X136549966Y-129842030D01*
X136496091Y-129842030D01*
X136307529Y-130030592D01*
X136415279Y-130138341D01*
X136307529Y-129545719D02*
X135741844Y-130111404D01*
X135984280Y-129222470D01*
X135418595Y-129788155D01*
X135714906Y-128953096D02*
X135149221Y-129518781D01*
X135014534Y-129384094D01*
X134960659Y-129276345D01*
X134960659Y-129168595D01*
X134987597Y-129087783D01*
X135068409Y-128953096D01*
X135149221Y-128872284D01*
X135283908Y-128791471D01*
X135364720Y-128764534D01*
X135472470Y-128764534D01*
X135580219Y-128818409D01*
X135714906Y-128953096D01*
X133486592Y-104742277D02*
X133513529Y-104823089D01*
X133594341Y-104903902D01*
X133702091Y-104957776D01*
X133809841Y-104957776D01*
X133890653Y-104930839D01*
X134025340Y-104850027D01*
X134106152Y-104769215D01*
X134186964Y-104634528D01*
X134213902Y-104553715D01*
X134213902Y-104445966D01*
X134160027Y-104338216D01*
X134106152Y-104284341D01*
X133998402Y-104230467D01*
X133944528Y-104230467D01*
X133755966Y-104419028D01*
X133863715Y-104526778D01*
X133755966Y-103934155D02*
X133190280Y-104499841D01*
X132974781Y-104284341D01*
X132947844Y-104203529D01*
X132947844Y-104149654D01*
X132974781Y-104068842D01*
X133055593Y-103988030D01*
X133136406Y-103961093D01*
X133190280Y-103961093D01*
X133271093Y-103988030D01*
X133486592Y-104203529D01*
X132705407Y-103907218D02*
X132651532Y-103907218D01*
X132570720Y-103880280D01*
X132436033Y-103745593D01*
X132409096Y-103664781D01*
X132409096Y-103610906D01*
X132436033Y-103530094D01*
X132489908Y-103476219D01*
X132597658Y-103422345D01*
X133244155Y-103422345D01*
X132893969Y-103072158D01*
X132247471Y-103072158D02*
X132274409Y-103152971D01*
X132274409Y-103206845D01*
X132247471Y-103287658D01*
X132220534Y-103314595D01*
X132139722Y-103341532D01*
X132085847Y-103341532D01*
X132005035Y-103314595D01*
X131897285Y-103206845D01*
X131870348Y-103126033D01*
X131870348Y-103072158D01*
X131897285Y-102991346D01*
X131924223Y-102964409D01*
X132005035Y-102937471D01*
X132058910Y-102937471D01*
X132139722Y-102964409D01*
X132247471Y-103072158D01*
X132328284Y-103099096D01*
X132382158Y-103099096D01*
X132462971Y-103072158D01*
X132570720Y-102964409D01*
X132597658Y-102883597D01*
X132597658Y-102829722D01*
X132570720Y-102748910D01*
X132462971Y-102641160D01*
X132382158Y-102614223D01*
X132328284Y-102614223D01*
X132247471Y-102641160D01*
X132139722Y-102748910D01*
X132112784Y-102829722D01*
X132112784Y-102883597D01*
X132139722Y-102964409D01*
X146171218Y-130326903D02*
X146198155Y-130407715D01*
X146278967Y-130488528D01*
X146386717Y-130542402D01*
X146494467Y-130542402D01*
X146575279Y-130515465D01*
X146709966Y-130434653D01*
X146790778Y-130353841D01*
X146871590Y-130219154D01*
X146898528Y-130138341D01*
X146898528Y-130030592D01*
X146844653Y-129922842D01*
X146790778Y-129868967D01*
X146683028Y-129815093D01*
X146629154Y-129815093D01*
X146440592Y-130003654D01*
X146548341Y-130111404D01*
X146440592Y-129518781D02*
X145874906Y-130084467D01*
X145659407Y-129868967D01*
X145632470Y-129788155D01*
X145632470Y-129734280D01*
X145659407Y-129653468D01*
X145740219Y-129572656D01*
X145821032Y-129545719D01*
X145874906Y-129545719D01*
X145955719Y-129572656D01*
X146171218Y-129788155D01*
X145847969Y-128926158D02*
X145740219Y-128818409D01*
X145659407Y-128791471D01*
X145605532Y-128791471D01*
X145470845Y-128818409D01*
X145336158Y-128899221D01*
X145120659Y-129114720D01*
X145093722Y-129195532D01*
X145093722Y-129249407D01*
X145120659Y-129330219D01*
X145228409Y-129437969D01*
X145309221Y-129464906D01*
X145363096Y-129464906D01*
X145443908Y-129437969D01*
X145578595Y-129303282D01*
X145605532Y-129222470D01*
X145605532Y-129168595D01*
X145578595Y-129087783D01*
X145470845Y-128980033D01*
X145390033Y-128953096D01*
X145336158Y-128953096D01*
X145255346Y-128980033D01*
X168763809Y-112935238D02*
X168801904Y-112820952D01*
X168801904Y-112630476D01*
X168763809Y-112554285D01*
X168725714Y-112516190D01*
X168649523Y-112478095D01*
X168573333Y-112478095D01*
X168497142Y-112516190D01*
X168459047Y-112554285D01*
X168420952Y-112630476D01*
X168382857Y-112782857D01*
X168344761Y-112859047D01*
X168306666Y-112897142D01*
X168230476Y-112935238D01*
X168154285Y-112935238D01*
X168078095Y-112897142D01*
X168040000Y-112859047D01*
X168001904Y-112782857D01*
X168001904Y-112592380D01*
X168040000Y-112478095D01*
X168001904Y-112211428D02*
X168801904Y-112020952D01*
X168230476Y-111868571D01*
X168801904Y-111716190D01*
X168001904Y-111525714D01*
X168801904Y-111220952D02*
X168001904Y-111220952D01*
X168001904Y-111030476D01*
X168040000Y-110916190D01*
X168116190Y-110840000D01*
X168192380Y-110801904D01*
X168344761Y-110763809D01*
X168459047Y-110763809D01*
X168611428Y-110801904D01*
X168687619Y-110840000D01*
X168763809Y-110916190D01*
X168801904Y-111030476D01*
X168801904Y-111220952D01*
X168801904Y-110420952D02*
X168001904Y-110420952D01*
X168001904Y-109887619D02*
X168001904Y-109735238D01*
X168040000Y-109659047D01*
X168116190Y-109582857D01*
X168268571Y-109544761D01*
X168535238Y-109544761D01*
X168687619Y-109582857D01*
X168763809Y-109659047D01*
X168801904Y-109735238D01*
X168801904Y-109887619D01*
X168763809Y-109963809D01*
X168687619Y-110040000D01*
X168535238Y-110078095D01*
X168268571Y-110078095D01*
X168116190Y-110040000D01*
X168040000Y-109963809D01*
X168001904Y-109887619D01*
X133471218Y-130326903D02*
X133498155Y-130407715D01*
X133578967Y-130488528D01*
X133686717Y-130542402D01*
X133794467Y-130542402D01*
X133875279Y-130515465D01*
X134009966Y-130434653D01*
X134090778Y-130353841D01*
X134171590Y-130219154D01*
X134198528Y-130138341D01*
X134198528Y-130030592D01*
X134144653Y-129922842D01*
X134090778Y-129868967D01*
X133983028Y-129815093D01*
X133929154Y-129815093D01*
X133740592Y-130003654D01*
X133848341Y-130111404D01*
X133740592Y-129518781D02*
X133174906Y-130084467D01*
X132959407Y-129868967D01*
X132932470Y-129788155D01*
X132932470Y-129734280D01*
X132959407Y-129653468D01*
X133040219Y-129572656D01*
X133121032Y-129545719D01*
X133174906Y-129545719D01*
X133255719Y-129572656D01*
X133471218Y-129788155D01*
X132339847Y-129249407D02*
X132609221Y-129518781D01*
X132905532Y-129276345D01*
X132851658Y-129276345D01*
X132770845Y-129249407D01*
X132636158Y-129114720D01*
X132609221Y-129033908D01*
X132609221Y-128980033D01*
X132636158Y-128899221D01*
X132770845Y-128764534D01*
X132851658Y-128737597D01*
X132905532Y-128737597D01*
X132986345Y-128764534D01*
X133121032Y-128899221D01*
X133147969Y-128980033D01*
X133147969Y-129033908D01*
X118231218Y-130326903D02*
X118258155Y-130407715D01*
X118338967Y-130488528D01*
X118446717Y-130542402D01*
X118554467Y-130542402D01*
X118635279Y-130515465D01*
X118769966Y-130434653D01*
X118850778Y-130353841D01*
X118931590Y-130219154D01*
X118958528Y-130138341D01*
X118958528Y-130030592D01*
X118904653Y-129922842D01*
X118850778Y-129868967D01*
X118743028Y-129815093D01*
X118689154Y-129815093D01*
X118500592Y-130003654D01*
X118608341Y-130111404D01*
X118500592Y-129518781D02*
X117934906Y-130084467D01*
X117719407Y-129868967D01*
X117692470Y-129788155D01*
X117692470Y-129734280D01*
X117719407Y-129653468D01*
X117800219Y-129572656D01*
X117881032Y-129545719D01*
X117934906Y-129545719D01*
X118015719Y-129572656D01*
X118231218Y-129788155D01*
X117261471Y-129411032D02*
X117207597Y-129357157D01*
X117180659Y-129276345D01*
X117180659Y-129222470D01*
X117207597Y-129141658D01*
X117288409Y-129006971D01*
X117423096Y-128872284D01*
X117557783Y-128791471D01*
X117638595Y-128764534D01*
X117692470Y-128764534D01*
X117773282Y-128791471D01*
X117827157Y-128845346D01*
X117854094Y-128926158D01*
X117854094Y-128980033D01*
X117827157Y-129060845D01*
X117746345Y-129195532D01*
X117611658Y-129330219D01*
X117476971Y-129411032D01*
X117396158Y-129437969D01*
X117342284Y-129437969D01*
X117261471Y-129411032D01*
X128391218Y-130326903D02*
X128418155Y-130407715D01*
X128498967Y-130488528D01*
X128606717Y-130542402D01*
X128714467Y-130542402D01*
X128795279Y-130515465D01*
X128929966Y-130434653D01*
X129010778Y-130353841D01*
X129091590Y-130219154D01*
X129118528Y-130138341D01*
X129118528Y-130030592D01*
X129064653Y-129922842D01*
X129010778Y-129868967D01*
X128903028Y-129815093D01*
X128849154Y-129815093D01*
X128660592Y-130003654D01*
X128768341Y-130111404D01*
X128660592Y-129518781D02*
X128094906Y-130084467D01*
X127879407Y-129868967D01*
X127852470Y-129788155D01*
X127852470Y-129734280D01*
X127879407Y-129653468D01*
X127960219Y-129572656D01*
X128041032Y-129545719D01*
X128094906Y-129545719D01*
X128175719Y-129572656D01*
X128391218Y-129788155D01*
X127583096Y-129572656D02*
X127232910Y-129222470D01*
X127636971Y-129195532D01*
X127556158Y-129114720D01*
X127529221Y-129033908D01*
X127529221Y-128980033D01*
X127556158Y-128899221D01*
X127690845Y-128764534D01*
X127771658Y-128737597D01*
X127825532Y-128737597D01*
X127906345Y-128764534D01*
X128067969Y-128926158D01*
X128094906Y-129006971D01*
X128094906Y-129060845D01*
X161438155Y-130353841D02*
X161465093Y-130434653D01*
X161545905Y-130515465D01*
X161653654Y-130569340D01*
X161761404Y-130569340D01*
X161842216Y-130542402D01*
X161976903Y-130461590D01*
X162057715Y-130380778D01*
X162138528Y-130246091D01*
X162165465Y-130165279D01*
X162165465Y-130057529D01*
X162111590Y-129949780D01*
X162057715Y-129895905D01*
X161949966Y-129842030D01*
X161896091Y-129842030D01*
X161707529Y-130030592D01*
X161815279Y-130138341D01*
X161707529Y-129545719D02*
X161141844Y-130111404D01*
X161384280Y-129222470D01*
X160818595Y-129788155D01*
X161114906Y-128953096D02*
X160549221Y-129518781D01*
X160414534Y-129384094D01*
X160360659Y-129276345D01*
X160360659Y-129168595D01*
X160387597Y-129087783D01*
X160468409Y-128953096D01*
X160549221Y-128872284D01*
X160683908Y-128791471D01*
X160764720Y-128764534D01*
X160872470Y-128764534D01*
X160980219Y-128818409D01*
X161114906Y-128953096D01*
X123338155Y-130353841D02*
X123365093Y-130434653D01*
X123445905Y-130515465D01*
X123553654Y-130569340D01*
X123661404Y-130569340D01*
X123742216Y-130542402D01*
X123876903Y-130461590D01*
X123957715Y-130380778D01*
X124038528Y-130246091D01*
X124065465Y-130165279D01*
X124065465Y-130057529D01*
X124011590Y-129949780D01*
X123957715Y-129895905D01*
X123849966Y-129842030D01*
X123796091Y-129842030D01*
X123607529Y-130030592D01*
X123715279Y-130138341D01*
X123607529Y-129545719D02*
X123041844Y-130111404D01*
X123284280Y-129222470D01*
X122718595Y-129788155D01*
X123014906Y-128953096D02*
X122449221Y-129518781D01*
X122314534Y-129384094D01*
X122260659Y-129276345D01*
X122260659Y-129168595D01*
X122287597Y-129087783D01*
X122368409Y-128953096D01*
X122449221Y-128872284D01*
X122583908Y-128791471D01*
X122664720Y-128764534D01*
X122772470Y-128764534D01*
X122880219Y-128818409D01*
X123014906Y-128953096D01*
X154060592Y-104742277D02*
X154087529Y-104823089D01*
X154168341Y-104903902D01*
X154276091Y-104957776D01*
X154383841Y-104957776D01*
X154464653Y-104930839D01*
X154599340Y-104850027D01*
X154680152Y-104769215D01*
X154760964Y-104634528D01*
X154787902Y-104553715D01*
X154787902Y-104445966D01*
X154734027Y-104338216D01*
X154680152Y-104284341D01*
X154572402Y-104230467D01*
X154518528Y-104230467D01*
X154329966Y-104419028D01*
X154437715Y-104526778D01*
X154329966Y-103934155D02*
X153764280Y-104499841D01*
X153548781Y-104284341D01*
X153521844Y-104203529D01*
X153521844Y-104149654D01*
X153548781Y-104068842D01*
X153629593Y-103988030D01*
X153710406Y-103961093D01*
X153764280Y-103961093D01*
X153845093Y-103988030D01*
X154060592Y-104203529D01*
X153279407Y-103907218D02*
X153225532Y-103907218D01*
X153144720Y-103880280D01*
X153010033Y-103745593D01*
X152983096Y-103664781D01*
X152983096Y-103610906D01*
X153010033Y-103530094D01*
X153063908Y-103476219D01*
X153171658Y-103422345D01*
X153818155Y-103422345D01*
X153467969Y-103072158D01*
X152552097Y-103287658D02*
X152498223Y-103233783D01*
X152471285Y-103152971D01*
X152471285Y-103099096D01*
X152498223Y-103018284D01*
X152579035Y-102883597D01*
X152713722Y-102748910D01*
X152848409Y-102668097D01*
X152929221Y-102641160D01*
X152983096Y-102641160D01*
X153063908Y-102668097D01*
X153117783Y-102721972D01*
X153144720Y-102802784D01*
X153144720Y-102856659D01*
X153117783Y-102937471D01*
X153036971Y-103072158D01*
X152902284Y-103206845D01*
X152767597Y-103287658D01*
X152686784Y-103314595D01*
X152632910Y-103314595D01*
X152552097Y-103287658D01*
X156600592Y-104742277D02*
X156627529Y-104823089D01*
X156708341Y-104903902D01*
X156816091Y-104957776D01*
X156923841Y-104957776D01*
X157004653Y-104930839D01*
X157139340Y-104850027D01*
X157220152Y-104769215D01*
X157300964Y-104634528D01*
X157327902Y-104553715D01*
X157327902Y-104445966D01*
X157274027Y-104338216D01*
X157220152Y-104284341D01*
X157112402Y-104230467D01*
X157058528Y-104230467D01*
X156869966Y-104419028D01*
X156977715Y-104526778D01*
X156869966Y-103934155D02*
X156304280Y-104499841D01*
X156088781Y-104284341D01*
X156061844Y-104203529D01*
X156061844Y-104149654D01*
X156088781Y-104068842D01*
X156169593Y-103988030D01*
X156250406Y-103961093D01*
X156304280Y-103961093D01*
X156385093Y-103988030D01*
X156600592Y-104203529D01*
X156007969Y-103072158D02*
X156331218Y-103395407D01*
X156169593Y-103233783D02*
X155603908Y-103799468D01*
X155738595Y-103772531D01*
X155846345Y-103772531D01*
X155927157Y-103799468D01*
X155738595Y-102802784D02*
X155630845Y-102695035D01*
X155550033Y-102668097D01*
X155496158Y-102668097D01*
X155361471Y-102695035D01*
X155226784Y-102775847D01*
X155011285Y-102991346D01*
X154984348Y-103072158D01*
X154984348Y-103126033D01*
X155011285Y-103206845D01*
X155119035Y-103314595D01*
X155199847Y-103341532D01*
X155253722Y-103341532D01*
X155334534Y-103314595D01*
X155469221Y-103179908D01*
X155496158Y-103099096D01*
X155496158Y-103045221D01*
X155469221Y-102964409D01*
X155361471Y-102856659D01*
X155280659Y-102829722D01*
X155226784Y-102829722D01*
X155145972Y-102856659D01*
X125851218Y-130426903D02*
X125878155Y-130507715D01*
X125958967Y-130588528D01*
X126066717Y-130642402D01*
X126174467Y-130642402D01*
X126255279Y-130615465D01*
X126389966Y-130534653D01*
X126470778Y-130453841D01*
X126551590Y-130319154D01*
X126578528Y-130238341D01*
X126578528Y-130130592D01*
X126524653Y-130022842D01*
X126470778Y-129968967D01*
X126363028Y-129915093D01*
X126309154Y-129915093D01*
X126120592Y-130103654D01*
X126228341Y-130211404D01*
X126120592Y-129618781D02*
X125554906Y-130184467D01*
X125339407Y-129968967D01*
X125312470Y-129888155D01*
X125312470Y-129834280D01*
X125339407Y-129753468D01*
X125420219Y-129672656D01*
X125501032Y-129645719D01*
X125554906Y-129645719D01*
X125635719Y-129672656D01*
X125851218Y-129888155D01*
X125070033Y-129591844D02*
X125016158Y-129591844D01*
X124935346Y-129564906D01*
X124800659Y-129430219D01*
X124773722Y-129349407D01*
X124773722Y-129295532D01*
X124800659Y-129214720D01*
X124854534Y-129160845D01*
X124962284Y-129106971D01*
X125608781Y-129106971D01*
X125258595Y-128756784D01*
X159140592Y-104742277D02*
X159167529Y-104823089D01*
X159248341Y-104903902D01*
X159356091Y-104957776D01*
X159463841Y-104957776D01*
X159544653Y-104930839D01*
X159679340Y-104850027D01*
X159760152Y-104769215D01*
X159840964Y-104634528D01*
X159867902Y-104553715D01*
X159867902Y-104445966D01*
X159814027Y-104338216D01*
X159760152Y-104284341D01*
X159652402Y-104230467D01*
X159598528Y-104230467D01*
X159409966Y-104419028D01*
X159517715Y-104526778D01*
X159409966Y-103934155D02*
X158844280Y-104499841D01*
X158628781Y-104284341D01*
X158601844Y-104203529D01*
X158601844Y-104149654D01*
X158628781Y-104068842D01*
X158709593Y-103988030D01*
X158790406Y-103961093D01*
X158844280Y-103961093D01*
X158925093Y-103988030D01*
X159140592Y-104203529D01*
X158547969Y-103072158D02*
X158871218Y-103395407D01*
X158709593Y-103233783D02*
X158143908Y-103799468D01*
X158278595Y-103772531D01*
X158386345Y-103772531D01*
X158467157Y-103799468D01*
X157901471Y-103072158D02*
X157928409Y-103152971D01*
X157928409Y-103206845D01*
X157901471Y-103287658D01*
X157874534Y-103314595D01*
X157793722Y-103341532D01*
X157739847Y-103341532D01*
X157659035Y-103314595D01*
X157551285Y-103206845D01*
X157524348Y-103126033D01*
X157524348Y-103072158D01*
X157551285Y-102991346D01*
X157578223Y-102964409D01*
X157659035Y-102937471D01*
X157712910Y-102937471D01*
X157793722Y-102964409D01*
X157901471Y-103072158D01*
X157982284Y-103099096D01*
X158036158Y-103099096D01*
X158116971Y-103072158D01*
X158224720Y-102964409D01*
X158251658Y-102883597D01*
X158251658Y-102829722D01*
X158224720Y-102748910D01*
X158116971Y-102641160D01*
X158036158Y-102614223D01*
X157982284Y-102614223D01*
X157901471Y-102641160D01*
X157793722Y-102748910D01*
X157766784Y-102829722D01*
X157766784Y-102883597D01*
X157793722Y-102964409D01*
X138551218Y-130326903D02*
X138578155Y-130407715D01*
X138658967Y-130488528D01*
X138766717Y-130542402D01*
X138874467Y-130542402D01*
X138955279Y-130515465D01*
X139089966Y-130434653D01*
X139170778Y-130353841D01*
X139251590Y-130219154D01*
X139278528Y-130138341D01*
X139278528Y-130030592D01*
X139224653Y-129922842D01*
X139170778Y-129868967D01*
X139063028Y-129815093D01*
X139009154Y-129815093D01*
X138820592Y-130003654D01*
X138928341Y-130111404D01*
X138820592Y-129518781D02*
X138254906Y-130084467D01*
X138039407Y-129868967D01*
X138012470Y-129788155D01*
X138012470Y-129734280D01*
X138039407Y-129653468D01*
X138120219Y-129572656D01*
X138201032Y-129545719D01*
X138254906Y-129545719D01*
X138335719Y-129572656D01*
X138551218Y-129788155D01*
X137446784Y-129276345D02*
X137554534Y-129384094D01*
X137635346Y-129411032D01*
X137689221Y-129411032D01*
X137823908Y-129384094D01*
X137958595Y-129303282D01*
X138174094Y-129087783D01*
X138201032Y-129006971D01*
X138201032Y-128953096D01*
X138174094Y-128872284D01*
X138066345Y-128764534D01*
X137985532Y-128737597D01*
X137931658Y-128737597D01*
X137850845Y-128764534D01*
X137716158Y-128899221D01*
X137689221Y-128980033D01*
X137689221Y-129033908D01*
X137716158Y-129114720D01*
X137823908Y-129222470D01*
X137904720Y-129249407D01*
X137958595Y-129249407D01*
X138039407Y-129222470D01*
X151530592Y-104742277D02*
X151557529Y-104823089D01*
X151638341Y-104903902D01*
X151746091Y-104957776D01*
X151853841Y-104957776D01*
X151934653Y-104930839D01*
X152069340Y-104850027D01*
X152150152Y-104769215D01*
X152230964Y-104634528D01*
X152257902Y-104553715D01*
X152257902Y-104445966D01*
X152204027Y-104338216D01*
X152150152Y-104284341D01*
X152042402Y-104230467D01*
X151988528Y-104230467D01*
X151799966Y-104419028D01*
X151907715Y-104526778D01*
X151799966Y-103934155D02*
X151234280Y-104499841D01*
X151018781Y-104284341D01*
X150991844Y-104203529D01*
X150991844Y-104149654D01*
X151018781Y-104068842D01*
X151099593Y-103988030D01*
X151180406Y-103961093D01*
X151234280Y-103961093D01*
X151315093Y-103988030D01*
X151530592Y-104203529D01*
X150749407Y-103907218D02*
X150695532Y-103907218D01*
X150614720Y-103880280D01*
X150480033Y-103745593D01*
X150453096Y-103664781D01*
X150453096Y-103610906D01*
X150480033Y-103530094D01*
X150533908Y-103476219D01*
X150641658Y-103422345D01*
X151288155Y-103422345D01*
X150937969Y-103072158D01*
X150399221Y-102533410D02*
X150722470Y-102856659D01*
X150560845Y-102695035D02*
X149995160Y-103260720D01*
X150129847Y-103233783D01*
X150237597Y-103233783D01*
X150318409Y-103260720D01*
X146440592Y-104742277D02*
X146467529Y-104823089D01*
X146548341Y-104903902D01*
X146656091Y-104957776D01*
X146763841Y-104957776D01*
X146844653Y-104930839D01*
X146979340Y-104850027D01*
X147060152Y-104769215D01*
X147140964Y-104634528D01*
X147167902Y-104553715D01*
X147167902Y-104445966D01*
X147114027Y-104338216D01*
X147060152Y-104284341D01*
X146952402Y-104230467D01*
X146898528Y-104230467D01*
X146709966Y-104419028D01*
X146817715Y-104526778D01*
X146709966Y-103934155D02*
X146144280Y-104499841D01*
X145928781Y-104284341D01*
X145901844Y-104203529D01*
X145901844Y-104149654D01*
X145928781Y-104068842D01*
X146009593Y-103988030D01*
X146090406Y-103961093D01*
X146144280Y-103961093D01*
X146225093Y-103988030D01*
X146440592Y-104203529D01*
X145659407Y-103907218D02*
X145605532Y-103907218D01*
X145524720Y-103880280D01*
X145390033Y-103745593D01*
X145363096Y-103664781D01*
X145363096Y-103610906D01*
X145390033Y-103530094D01*
X145443908Y-103476219D01*
X145551658Y-103422345D01*
X146198155Y-103422345D01*
X145847969Y-103072158D01*
X145120659Y-103368470D02*
X145066784Y-103368470D01*
X144985972Y-103341532D01*
X144851285Y-103206845D01*
X144824348Y-103126033D01*
X144824348Y-103072158D01*
X144851285Y-102991346D01*
X144905160Y-102937471D01*
X145012910Y-102883597D01*
X145659407Y-102883597D01*
X145309221Y-102533410D01*
X148738155Y-130353841D02*
X148765093Y-130434653D01*
X148845905Y-130515465D01*
X148953654Y-130569340D01*
X149061404Y-130569340D01*
X149142216Y-130542402D01*
X149276903Y-130461590D01*
X149357715Y-130380778D01*
X149438528Y-130246091D01*
X149465465Y-130165279D01*
X149465465Y-130057529D01*
X149411590Y-129949780D01*
X149357715Y-129895905D01*
X149249966Y-129842030D01*
X149196091Y-129842030D01*
X149007529Y-130030592D01*
X149115279Y-130138341D01*
X149007529Y-129545719D02*
X148441844Y-130111404D01*
X148684280Y-129222470D01*
X148118595Y-129788155D01*
X148414906Y-128953096D02*
X147849221Y-129518781D01*
X147714534Y-129384094D01*
X147660659Y-129276345D01*
X147660659Y-129168595D01*
X147687597Y-129087783D01*
X147768409Y-128953096D01*
X147849221Y-128872284D01*
X147983908Y-128791471D01*
X148064720Y-128764534D01*
X148172470Y-128764534D01*
X148280219Y-128818409D01*
X148414906Y-128953096D01*
X164220592Y-130896277D02*
X164247529Y-130977089D01*
X164328341Y-131057902D01*
X164436091Y-131111776D01*
X164543841Y-131111776D01*
X164624653Y-131084839D01*
X164759340Y-131004027D01*
X164840152Y-130923215D01*
X164920964Y-130788528D01*
X164947902Y-130707715D01*
X164947902Y-130599966D01*
X164894027Y-130492216D01*
X164840152Y-130438341D01*
X164732402Y-130384467D01*
X164678528Y-130384467D01*
X164489966Y-130573028D01*
X164597715Y-130680778D01*
X164489966Y-130088155D02*
X163924280Y-130653841D01*
X163708781Y-130438341D01*
X163681844Y-130357529D01*
X163681844Y-130303654D01*
X163708781Y-130222842D01*
X163789593Y-130142030D01*
X163870406Y-130115093D01*
X163924280Y-130115093D01*
X164005093Y-130142030D01*
X164220592Y-130357529D01*
X163627969Y-129226158D02*
X163951218Y-129549407D01*
X163789593Y-129387783D02*
X163223908Y-129953468D01*
X163358595Y-129926531D01*
X163466345Y-129926531D01*
X163547157Y-129953468D01*
X162765972Y-129118409D02*
X163143096Y-128741285D01*
X162685160Y-129468595D02*
X163223908Y-129199221D01*
X162873722Y-128849035D01*
X121309966Y-104919526D02*
X121687089Y-104165279D01*
X120932842Y-104542402D01*
X121309966Y-103842030D02*
X121256091Y-103734280D01*
X121121404Y-103599593D01*
X121040592Y-103572656D01*
X120986717Y-103572656D01*
X120905905Y-103599593D01*
X120852030Y-103653468D01*
X120825093Y-103734280D01*
X120825093Y-103788155D01*
X120852030Y-103868967D01*
X120932842Y-104003654D01*
X120959780Y-104084467D01*
X120959780Y-104138341D01*
X120932842Y-104219154D01*
X120878967Y-104273028D01*
X120798155Y-104299966D01*
X120744280Y-104299966D01*
X120663468Y-104273028D01*
X120528781Y-104138341D01*
X120474906Y-104030592D01*
X120394094Y-103411032D02*
X120663468Y-103141658D01*
X120286345Y-103895905D02*
X120394094Y-103411032D01*
X119909221Y-103518781D01*
X120286345Y-102818409D02*
X120232470Y-102710659D01*
X120097783Y-102575972D01*
X120016971Y-102549035D01*
X119963096Y-102549035D01*
X119882284Y-102575972D01*
X119828409Y-102629847D01*
X119801471Y-102710659D01*
X119801471Y-102764534D01*
X119828409Y-102845346D01*
X119909221Y-102980033D01*
X119936158Y-103060845D01*
X119936158Y-103114720D01*
X119909221Y-103195532D01*
X119855346Y-103249407D01*
X119774534Y-103276345D01*
X119720659Y-103276345D01*
X119639847Y-103249407D01*
X119505160Y-103114720D01*
X119451285Y-103006971D01*
X156600592Y-130996277D02*
X156627529Y-131077089D01*
X156708341Y-131157902D01*
X156816091Y-131211776D01*
X156923841Y-131211776D01*
X157004653Y-131184839D01*
X157139340Y-131104027D01*
X157220152Y-131023215D01*
X157300964Y-130888528D01*
X157327902Y-130807715D01*
X157327902Y-130699966D01*
X157274027Y-130592216D01*
X157220152Y-130538341D01*
X157112402Y-130484467D01*
X157058528Y-130484467D01*
X156869966Y-130673028D01*
X156977715Y-130780778D01*
X156869966Y-130188155D02*
X156304280Y-130753841D01*
X156088781Y-130538341D01*
X156061844Y-130457529D01*
X156061844Y-130403654D01*
X156088781Y-130322842D01*
X156169593Y-130242030D01*
X156250406Y-130215093D01*
X156304280Y-130215093D01*
X156385093Y-130242030D01*
X156600592Y-130457529D01*
X156007969Y-129326158D02*
X156331218Y-129649407D01*
X156169593Y-129487783D02*
X155603908Y-130053468D01*
X155738595Y-130026531D01*
X155846345Y-130026531D01*
X155927157Y-130053468D01*
X155280659Y-129622470D02*
X155226784Y-129622470D01*
X155145972Y-129595532D01*
X155011285Y-129460845D01*
X154984348Y-129380033D01*
X154984348Y-129326158D01*
X155011285Y-129245346D01*
X155065160Y-129191471D01*
X155172910Y-129137597D01*
X155819407Y-129137597D01*
X155469221Y-128787410D01*
X120761218Y-130426903D02*
X120788155Y-130507715D01*
X120868967Y-130588528D01*
X120976717Y-130642402D01*
X121084467Y-130642402D01*
X121165279Y-130615465D01*
X121299966Y-130534653D01*
X121380778Y-130453841D01*
X121461590Y-130319154D01*
X121488528Y-130238341D01*
X121488528Y-130130592D01*
X121434653Y-130022842D01*
X121380778Y-129968967D01*
X121273028Y-129915093D01*
X121219154Y-129915093D01*
X121030592Y-130103654D01*
X121138341Y-130211404D01*
X121030592Y-129618781D02*
X120464906Y-130184467D01*
X120249407Y-129968967D01*
X120222470Y-129888155D01*
X120222470Y-129834280D01*
X120249407Y-129753468D01*
X120330219Y-129672656D01*
X120411032Y-129645719D01*
X120464906Y-129645719D01*
X120545719Y-129672656D01*
X120761218Y-129888155D01*
X120168595Y-128756784D02*
X120491844Y-129080033D01*
X120330219Y-128918409D02*
X119764534Y-129484094D01*
X119899221Y-129457157D01*
X120006971Y-129457157D01*
X120087783Y-129484094D01*
X151520592Y-130850277D02*
X151547529Y-130931089D01*
X151628341Y-131011902D01*
X151736091Y-131065776D01*
X151843841Y-131065776D01*
X151924653Y-131038839D01*
X152059340Y-130958027D01*
X152140152Y-130877215D01*
X152220964Y-130742528D01*
X152247902Y-130661715D01*
X152247902Y-130553966D01*
X152194027Y-130446216D01*
X152140152Y-130392341D01*
X152032402Y-130338467D01*
X151978528Y-130338467D01*
X151789966Y-130527028D01*
X151897715Y-130634778D01*
X151789966Y-130042155D02*
X151224280Y-130607841D01*
X151008781Y-130392341D01*
X150981844Y-130311529D01*
X150981844Y-130257654D01*
X151008781Y-130176842D01*
X151089593Y-130096030D01*
X151170406Y-130069093D01*
X151224280Y-130069093D01*
X151305093Y-130096030D01*
X151520592Y-130311529D01*
X150927969Y-129180158D02*
X151251218Y-129503407D01*
X151089593Y-129341783D02*
X150523908Y-129907468D01*
X150658595Y-129880531D01*
X150766345Y-129880531D01*
X150847157Y-129907468D01*
X150012097Y-129395658D02*
X149958223Y-129341783D01*
X149931285Y-129260971D01*
X149931285Y-129207096D01*
X149958223Y-129126284D01*
X150039035Y-128991597D01*
X150173722Y-128856910D01*
X150308409Y-128776097D01*
X150389221Y-128749160D01*
X150443096Y-128749160D01*
X150523908Y-128776097D01*
X150577783Y-128829972D01*
X150604720Y-128910784D01*
X150604720Y-128964659D01*
X150577783Y-129045471D01*
X150496971Y-129180158D01*
X150362284Y-129314845D01*
X150227597Y-129395658D01*
X150146784Y-129422595D01*
X150092910Y-129422595D01*
X150012097Y-129395658D01*
X144183435Y-104001624D02*
X144102622Y-104459560D01*
X144506683Y-104324873D02*
X143940998Y-104890558D01*
X143725499Y-104675059D01*
X143698561Y-104594247D01*
X143698561Y-104540372D01*
X143725499Y-104459560D01*
X143806311Y-104378748D01*
X143887123Y-104351810D01*
X143940998Y-104351810D01*
X144021810Y-104378748D01*
X144237309Y-104594247D01*
X143375312Y-104324873D02*
X143833248Y-103866937D01*
X143860186Y-103786125D01*
X143860186Y-103732250D01*
X143833248Y-103651438D01*
X143725499Y-103543688D01*
X143644687Y-103516751D01*
X143590812Y-103516751D01*
X143510000Y-103543688D01*
X143052064Y-104001624D01*
X143348375Y-103166564D02*
X142782690Y-103732250D01*
X143025126Y-102843316D01*
X142459441Y-103409001D01*
X138830592Y-104742277D02*
X138857529Y-104823089D01*
X138938341Y-104903902D01*
X139046091Y-104957776D01*
X139153841Y-104957776D01*
X139234653Y-104930839D01*
X139369340Y-104850027D01*
X139450152Y-104769215D01*
X139530964Y-104634528D01*
X139557902Y-104553715D01*
X139557902Y-104445966D01*
X139504027Y-104338216D01*
X139450152Y-104284341D01*
X139342402Y-104230467D01*
X139288528Y-104230467D01*
X139099966Y-104419028D01*
X139207715Y-104526778D01*
X139099966Y-103934155D02*
X138534280Y-104499841D01*
X138318781Y-104284341D01*
X138291844Y-104203529D01*
X138291844Y-104149654D01*
X138318781Y-104068842D01*
X138399593Y-103988030D01*
X138480406Y-103961093D01*
X138534280Y-103961093D01*
X138615093Y-103988030D01*
X138830592Y-104203529D01*
X138049407Y-103907218D02*
X137995532Y-103907218D01*
X137914720Y-103880280D01*
X137780033Y-103745593D01*
X137753096Y-103664781D01*
X137753096Y-103610906D01*
X137780033Y-103530094D01*
X137833908Y-103476219D01*
X137941658Y-103422345D01*
X138588155Y-103422345D01*
X138237969Y-103072158D01*
X137483722Y-103449282D02*
X137106598Y-103072158D01*
X137914720Y-102748910D01*
%TO.C,P6*%
X179601904Y-117062380D02*
X179601904Y-116062380D01*
X179982857Y-116062380D01*
X180078095Y-116110000D01*
X180125714Y-116157619D01*
X180173333Y-116252857D01*
X180173333Y-116395714D01*
X180125714Y-116490952D01*
X180078095Y-116538571D01*
X179982857Y-116586190D01*
X179601904Y-116586190D01*
X181030476Y-116062380D02*
X180840000Y-116062380D01*
X180744761Y-116110000D01*
X180697142Y-116157619D01*
X180601904Y-116300476D01*
X180554285Y-116490952D01*
X180554285Y-116871904D01*
X180601904Y-116967142D01*
X180649523Y-117014761D01*
X180744761Y-117062380D01*
X180935238Y-117062380D01*
X181030476Y-117014761D01*
X181078095Y-116967142D01*
X181125714Y-116871904D01*
X181125714Y-116633809D01*
X181078095Y-116538571D01*
X181030476Y-116490952D01*
X180935238Y-116443333D01*
X180744761Y-116443333D01*
X180649523Y-116490952D01*
X180601904Y-116538571D01*
X180554285Y-116633809D01*
X179054285Y-123912380D02*
X178578095Y-123912380D01*
X178530476Y-124388571D01*
X178578095Y-124340952D01*
X178673333Y-124293333D01*
X178911428Y-124293333D01*
X179006666Y-124340952D01*
X179054285Y-124388571D01*
X179101904Y-124483809D01*
X179101904Y-124721904D01*
X179054285Y-124817142D01*
X179006666Y-124864761D01*
X178911428Y-124912380D01*
X178673333Y-124912380D01*
X178578095Y-124864761D01*
X178530476Y-124817142D01*
X179435238Y-124245714D02*
X179673333Y-124912380D01*
X179911428Y-124245714D01*
X181054285Y-124912380D02*
X181054285Y-123912380D01*
X181530476Y-124912380D02*
X181530476Y-123912380D01*
X182101904Y-124912380D01*
X182101904Y-123912380D01*
%TO.C,J7*%
X124126666Y-44942380D02*
X124126666Y-45656666D01*
X124079047Y-45799523D01*
X123983809Y-45894761D01*
X123840952Y-45942380D01*
X123745714Y-45942380D01*
X124507619Y-44942380D02*
X125174285Y-44942380D01*
X124745714Y-45942380D01*
%TO.C,J5*%
X154162380Y-71453333D02*
X154876666Y-71453333D01*
X155019523Y-71500952D01*
X155114761Y-71596190D01*
X155162380Y-71739047D01*
X155162380Y-71834285D01*
X154162380Y-70500952D02*
X154162380Y-70977142D01*
X154638571Y-71024761D01*
X154590952Y-70977142D01*
X154543333Y-70881904D01*
X154543333Y-70643809D01*
X154590952Y-70548571D01*
X154638571Y-70500952D01*
X154733809Y-70453333D01*
X154971904Y-70453333D01*
X155067142Y-70500952D01*
X155114761Y-70548571D01*
X155162380Y-70643809D01*
X155162380Y-70881904D01*
X155114761Y-70977142D01*
X155067142Y-71024761D01*
%TO.C,J4*%
X118602380Y-71453333D02*
X119316666Y-71453333D01*
X119459523Y-71500952D01*
X119554761Y-71596190D01*
X119602380Y-71739047D01*
X119602380Y-71834285D01*
X118935714Y-70548571D02*
X119602380Y-70548571D01*
X118554761Y-70786666D02*
X119269047Y-71024761D01*
X119269047Y-70405714D01*
%TO.C,J2*%
X180006666Y-113482380D02*
X180006666Y-114196666D01*
X179959047Y-114339523D01*
X179863809Y-114434761D01*
X179720952Y-114482380D01*
X179625714Y-114482380D01*
X180435238Y-113577619D02*
X180482857Y-113530000D01*
X180578095Y-113482380D01*
X180816190Y-113482380D01*
X180911428Y-113530000D01*
X180959047Y-113577619D01*
X181006666Y-113672857D01*
X181006666Y-113768095D01*
X180959047Y-113910952D01*
X180387619Y-114482380D01*
X181006666Y-114482380D01*
%TO.C,G\u002A\u002A\u002A*%
G36*
X145274936Y-69813573D02*
G01*
X146050108Y-70384985D01*
X147015124Y-71328523D01*
X148254511Y-72652142D01*
X148522036Y-72940835D01*
X149553524Y-74062575D01*
X150449930Y-75054994D01*
X151148620Y-75847332D01*
X151586958Y-76368824D01*
X151707015Y-76539133D01*
X151565901Y-76848115D01*
X151107659Y-77242234D01*
X151088833Y-77254680D01*
X150711977Y-77476955D01*
X150395673Y-77521791D01*
X150012008Y-77340307D01*
X149433071Y-76883621D01*
X148889226Y-76414104D01*
X148046907Y-75690932D01*
X147276757Y-75045557D01*
X146745410Y-74617617D01*
X146745141Y-74617411D01*
X146097535Y-74122001D01*
X146097535Y-96054310D01*
X142861113Y-96054310D01*
X142719875Y-74332766D01*
X140775531Y-76006304D01*
X139909540Y-76730926D01*
X139186554Y-77297491D01*
X138709111Y-77627547D01*
X138588155Y-77679842D01*
X138241799Y-77498796D01*
X137865300Y-77149643D01*
X137687620Y-76945703D01*
X137592040Y-76750923D01*
X137617843Y-76509192D01*
X137804310Y-76164396D01*
X138190723Y-75660421D01*
X138816365Y-74941155D01*
X139720517Y-73950483D01*
X140942462Y-72632294D01*
X141288361Y-72259905D01*
X142382189Y-71090041D01*
X143243236Y-70252520D01*
X143956026Y-69755297D01*
X144605084Y-69606329D01*
X145274936Y-69813573D01*
G37*
D11*
%TO.C,P5*%
X115495000Y-146925000D02*
X115495000Y-149585000D01*
X118985000Y-146527929D02*
X118985000Y-146925000D01*
X121745000Y-149585000D02*
X121745000Y-155585000D01*
X120635000Y-146925000D02*
X120635000Y-149585000D01*
X121525000Y-155585000D02*
X121525000Y-149585000D01*
X123175000Y-144215000D02*
X123175000Y-145485000D01*
X116445000Y-155585000D02*
X116445000Y-149585000D01*
X122225000Y-149585000D02*
X122225000Y-155585000D01*
X118095000Y-146925000D02*
X118095000Y-149585000D01*
X121985000Y-149585000D02*
X121985000Y-155585000D01*
X123235000Y-146925000D02*
X115495000Y-146925000D01*
X116445000Y-146527929D02*
X116445000Y-146925000D01*
X121905000Y-144215000D02*
X123175000Y-144215000D01*
X121625000Y-149585000D02*
X121625000Y-155585000D01*
X119745000Y-146527929D02*
X119745000Y-146925000D01*
X117205000Y-155585000D02*
X116445000Y-155585000D01*
X123235000Y-149585000D02*
X123235000Y-146925000D01*
X122285000Y-155585000D02*
X121525000Y-155585000D01*
X117205000Y-149585000D02*
X117205000Y-155585000D01*
X119745000Y-149585000D02*
X119745000Y-155585000D01*
X121525000Y-146595000D02*
X121525000Y-146925000D01*
X119745000Y-155585000D02*
X118985000Y-155585000D01*
X115495000Y-149585000D02*
X123235000Y-149585000D01*
X122285000Y-149585000D02*
X122285000Y-155585000D01*
X121865000Y-149585000D02*
X121865000Y-155585000D01*
X117205000Y-146527929D02*
X117205000Y-146925000D01*
X118985000Y-155585000D02*
X118985000Y-149585000D01*
X122285000Y-146595000D02*
X122285000Y-146925000D01*
X122105000Y-149585000D02*
X122105000Y-155585000D01*
%TO.C,P4*%
X128195000Y-146925000D02*
X128195000Y-149585000D01*
X131685000Y-146527929D02*
X131685000Y-146925000D01*
X134445000Y-149585000D02*
X134445000Y-155585000D01*
X133335000Y-146925000D02*
X133335000Y-149585000D01*
X134225000Y-155585000D02*
X134225000Y-149585000D01*
X135875000Y-144215000D02*
X135875000Y-145485000D01*
X129145000Y-155585000D02*
X129145000Y-149585000D01*
X134925000Y-149585000D02*
X134925000Y-155585000D01*
X130795000Y-146925000D02*
X130795000Y-149585000D01*
X134685000Y-149585000D02*
X134685000Y-155585000D01*
X135935000Y-146925000D02*
X128195000Y-146925000D01*
X129145000Y-146527929D02*
X129145000Y-146925000D01*
X134605000Y-144215000D02*
X135875000Y-144215000D01*
X134325000Y-149585000D02*
X134325000Y-155585000D01*
X132445000Y-146527929D02*
X132445000Y-146925000D01*
X129905000Y-155585000D02*
X129145000Y-155585000D01*
X135935000Y-149585000D02*
X135935000Y-146925000D01*
X134985000Y-155585000D02*
X134225000Y-155585000D01*
X129905000Y-149585000D02*
X129905000Y-155585000D01*
X132445000Y-149585000D02*
X132445000Y-155585000D01*
X134225000Y-146595000D02*
X134225000Y-146925000D01*
X132445000Y-155585000D02*
X131685000Y-155585000D01*
X128195000Y-149585000D02*
X135935000Y-149585000D01*
X134985000Y-149585000D02*
X134985000Y-155585000D01*
X134565000Y-149585000D02*
X134565000Y-155585000D01*
X129905000Y-146527929D02*
X129905000Y-146925000D01*
X131685000Y-155585000D02*
X131685000Y-149585000D01*
X134985000Y-146595000D02*
X134985000Y-146925000D01*
X134805000Y-149585000D02*
X134805000Y-155585000D01*
%TO.C,P3*%
X140910000Y-146925000D02*
X140910000Y-149585000D01*
X144400000Y-146527929D02*
X144400000Y-146925000D01*
X147160000Y-149585000D02*
X147160000Y-155585000D01*
X146050000Y-146925000D02*
X146050000Y-149585000D01*
X146940000Y-155585000D02*
X146940000Y-149585000D01*
X148590000Y-144215000D02*
X148590000Y-145485000D01*
X141860000Y-155585000D02*
X141860000Y-149585000D01*
X147640000Y-149585000D02*
X147640000Y-155585000D01*
X143510000Y-146925000D02*
X143510000Y-149585000D01*
X147400000Y-149585000D02*
X147400000Y-155585000D01*
X148650000Y-146925000D02*
X140910000Y-146925000D01*
X141860000Y-146527929D02*
X141860000Y-146925000D01*
X147320000Y-144215000D02*
X148590000Y-144215000D01*
X147040000Y-149585000D02*
X147040000Y-155585000D01*
X145160000Y-146527929D02*
X145160000Y-146925000D01*
X142620000Y-155585000D02*
X141860000Y-155585000D01*
X148650000Y-149585000D02*
X148650000Y-146925000D01*
X147700000Y-155585000D02*
X146940000Y-155585000D01*
X142620000Y-149585000D02*
X142620000Y-155585000D01*
X145160000Y-149585000D02*
X145160000Y-155585000D01*
X146940000Y-146595000D02*
X146940000Y-146925000D01*
X145160000Y-155585000D02*
X144400000Y-155585000D01*
X140910000Y-149585000D02*
X148650000Y-149585000D01*
X147700000Y-149585000D02*
X147700000Y-155585000D01*
X147280000Y-149585000D02*
X147280000Y-155585000D01*
X142620000Y-146527929D02*
X142620000Y-146925000D01*
X144400000Y-155585000D02*
X144400000Y-149585000D01*
X147700000Y-146595000D02*
X147700000Y-146925000D01*
X147520000Y-149585000D02*
X147520000Y-155585000D01*
%TO.C,P2*%
X153595000Y-146925000D02*
X153595000Y-149585000D01*
X157085000Y-146527929D02*
X157085000Y-146925000D01*
X159845000Y-149585000D02*
X159845000Y-155585000D01*
X158735000Y-146925000D02*
X158735000Y-149585000D01*
X159625000Y-155585000D02*
X159625000Y-149585000D01*
X161275000Y-144215000D02*
X161275000Y-145485000D01*
X154545000Y-155585000D02*
X154545000Y-149585000D01*
X160325000Y-149585000D02*
X160325000Y-155585000D01*
X156195000Y-146925000D02*
X156195000Y-149585000D01*
X160085000Y-149585000D02*
X160085000Y-155585000D01*
X161335000Y-146925000D02*
X153595000Y-146925000D01*
X154545000Y-146527929D02*
X154545000Y-146925000D01*
X160005000Y-144215000D02*
X161275000Y-144215000D01*
X159725000Y-149585000D02*
X159725000Y-155585000D01*
X157845000Y-146527929D02*
X157845000Y-146925000D01*
X155305000Y-155585000D02*
X154545000Y-155585000D01*
X161335000Y-149585000D02*
X161335000Y-146925000D01*
X160385000Y-155585000D02*
X159625000Y-155585000D01*
X155305000Y-149585000D02*
X155305000Y-155585000D01*
X157845000Y-149585000D02*
X157845000Y-155585000D01*
X159625000Y-146595000D02*
X159625000Y-146925000D01*
X157845000Y-155585000D02*
X157085000Y-155585000D01*
X153595000Y-149585000D02*
X161335000Y-149585000D01*
X160385000Y-149585000D02*
X160385000Y-155585000D01*
X159965000Y-149585000D02*
X159965000Y-155585000D01*
X155305000Y-146527929D02*
X155305000Y-146925000D01*
X157085000Y-155585000D02*
X157085000Y-149585000D01*
X160385000Y-146595000D02*
X160385000Y-146925000D01*
X160205000Y-149585000D02*
X160205000Y-155585000D01*
%TO.C,P1*%
X166295000Y-146925000D02*
X166295000Y-149585000D01*
X169785000Y-146527929D02*
X169785000Y-146925000D01*
X172545000Y-149585000D02*
X172545000Y-155585000D01*
X171435000Y-146925000D02*
X171435000Y-149585000D01*
X172325000Y-155585000D02*
X172325000Y-149585000D01*
X173975000Y-144215000D02*
X173975000Y-145485000D01*
X167245000Y-155585000D02*
X167245000Y-149585000D01*
X173025000Y-149585000D02*
X173025000Y-155585000D01*
X168895000Y-146925000D02*
X168895000Y-149585000D01*
X172785000Y-149585000D02*
X172785000Y-155585000D01*
X174035000Y-146925000D02*
X166295000Y-146925000D01*
X167245000Y-146527929D02*
X167245000Y-146925000D01*
X172705000Y-144215000D02*
X173975000Y-144215000D01*
X172425000Y-149585000D02*
X172425000Y-155585000D01*
X170545000Y-146527929D02*
X170545000Y-146925000D01*
X168005000Y-155585000D02*
X167245000Y-155585000D01*
X174035000Y-149585000D02*
X174035000Y-146925000D01*
X173085000Y-155585000D02*
X172325000Y-155585000D01*
X168005000Y-149585000D02*
X168005000Y-155585000D01*
X170545000Y-149585000D02*
X170545000Y-155585000D01*
X172325000Y-146595000D02*
X172325000Y-146925000D01*
X170545000Y-155585000D02*
X169785000Y-155585000D01*
X166295000Y-149585000D02*
X174035000Y-149585000D01*
X173085000Y-149585000D02*
X173085000Y-155585000D01*
X172665000Y-149585000D02*
X172665000Y-155585000D01*
X168005000Y-146527929D02*
X168005000Y-146925000D01*
X169785000Y-155585000D02*
X169785000Y-149585000D01*
X173085000Y-146595000D02*
X173085000Y-146925000D01*
X172905000Y-149585000D02*
X172905000Y-155585000D01*
%TO.C,G\u002A\u002A\u002A*%
G36*
X107317000Y-128088572D02*
G01*
X107343745Y-127846667D01*
X107655667Y-127846667D01*
X107700243Y-128049801D01*
X107889448Y-128151111D01*
X108306500Y-128183885D01*
X108502333Y-128185334D01*
X109010167Y-128167503D01*
X109263443Y-128091821D01*
X109345377Y-127925000D01*
X109349000Y-127846667D01*
X109304424Y-127643533D01*
X109115218Y-127542223D01*
X108698166Y-127509450D01*
X108502333Y-127508000D01*
X107994499Y-127525831D01*
X107741223Y-127601513D01*
X107659289Y-127768334D01*
X107655667Y-127846667D01*
X107343745Y-127846667D01*
X107389826Y-127429860D01*
X107638888Y-127035037D01*
X108110060Y-126855420D01*
X108502333Y-126830667D01*
X109162815Y-126928591D01*
X109554745Y-127227253D01*
X109687583Y-127733990D01*
X109687667Y-127749905D01*
X109740035Y-128060525D01*
X109966288Y-128174375D01*
X110195667Y-128185334D01*
X110567507Y-128238555D01*
X110698426Y-128436578D01*
X110703667Y-128524000D01*
X110680426Y-128678140D01*
X110569839Y-128776815D01*
X110310608Y-128832283D01*
X109841435Y-128856805D01*
X109101022Y-128862639D01*
X109010333Y-128862667D01*
X107317000Y-128862667D01*
X107317000Y-128088572D01*
G37*
G36*
X107509579Y-104137071D02*
G01*
X107340325Y-103637053D01*
X107330554Y-103462667D01*
X107655667Y-103462667D01*
X107700243Y-103665801D01*
X107889448Y-103767111D01*
X108306500Y-103799885D01*
X108502333Y-103801334D01*
X109010167Y-103783503D01*
X109263443Y-103707821D01*
X109345377Y-103541000D01*
X109349000Y-103462667D01*
X109304424Y-103259533D01*
X109115218Y-103158223D01*
X108698166Y-103125450D01*
X108502333Y-103124000D01*
X107994499Y-103141831D01*
X107741223Y-103217513D01*
X107659289Y-103384334D01*
X107655667Y-103462667D01*
X107330554Y-103462667D01*
X107317000Y-103220762D01*
X107317000Y-102446667D01*
X108768428Y-102446667D01*
X109602226Y-102469352D01*
X110144980Y-102541679D01*
X110441542Y-102670054D01*
X110461762Y-102688572D01*
X110594981Y-102962268D01*
X110676926Y-103392129D01*
X110702936Y-103863223D01*
X110668353Y-104260623D01*
X110568516Y-104469398D01*
X110534333Y-104478667D01*
X110428296Y-104328443D01*
X110369318Y-103953164D01*
X110365000Y-103801334D01*
X110336600Y-103358198D01*
X110221811Y-103162349D01*
X110026333Y-103124000D01*
X109763461Y-103220077D01*
X109687669Y-103556203D01*
X109687667Y-103559429D01*
X109561397Y-104071639D01*
X109176280Y-104375585D01*
X108522856Y-104478603D01*
X108502333Y-104478667D01*
X107881624Y-104401382D01*
X107509579Y-104137071D01*
G37*
G36*
X108874180Y-86216374D02*
G01*
X109241081Y-86283528D01*
X109349000Y-86360000D01*
X109486679Y-86508979D01*
X109610697Y-86529334D01*
X110012195Y-86679315D01*
X110380814Y-87058672D01*
X110635722Y-87561528D01*
X110703667Y-87960970D01*
X110661643Y-88355752D01*
X110558143Y-88555375D01*
X110534333Y-88561334D01*
X110408345Y-88416061D01*
X110365000Y-88125905D01*
X110274443Y-87696298D01*
X110123095Y-87448572D01*
X109840104Y-87228788D01*
X109706318Y-87301428D01*
X109687667Y-87472762D01*
X109549745Y-87875639D01*
X109128663Y-88122983D01*
X108413449Y-88220559D01*
X108260428Y-88222667D01*
X107717968Y-88208343D01*
X107433789Y-88146263D01*
X107328042Y-88007763D01*
X107317000Y-87884000D01*
X107354071Y-87694848D01*
X107516919Y-87592640D01*
X107882995Y-87551560D01*
X108333000Y-87545334D01*
X108900456Y-87532977D01*
X109207080Y-87478694D01*
X109330321Y-87356669D01*
X109349000Y-87206667D01*
X109311928Y-87017515D01*
X109149080Y-86915307D01*
X108783005Y-86874227D01*
X108333000Y-86868000D01*
X107765543Y-86855643D01*
X107458919Y-86801361D01*
X107335678Y-86679336D01*
X107317000Y-86529334D01*
X107354071Y-86340182D01*
X107516919Y-86237974D01*
X107882995Y-86196893D01*
X108333000Y-86190667D01*
X108874180Y-86216374D01*
G37*
G36*
X107253494Y-118773580D02*
G01*
X107317000Y-118872000D01*
X107458825Y-119009581D01*
X107655667Y-119041334D01*
X107930828Y-119112246D01*
X107994333Y-119210667D01*
X108136158Y-119348248D01*
X108333000Y-119380000D01*
X108608161Y-119450913D01*
X108671667Y-119549334D01*
X108813491Y-119686914D01*
X109010333Y-119718667D01*
X109285494Y-119789580D01*
X109349000Y-119888000D01*
X109490825Y-120025581D01*
X109687667Y-120057334D01*
X109970675Y-120177071D01*
X110026333Y-120396000D01*
X109906596Y-120679009D01*
X109687667Y-120734667D01*
X109412505Y-120663755D01*
X109349000Y-120565334D01*
X109207175Y-120427753D01*
X109010333Y-120396000D01*
X108735172Y-120325088D01*
X108671667Y-120226667D01*
X108529842Y-120089087D01*
X108333000Y-120057334D01*
X108057839Y-119986421D01*
X107994333Y-119888000D01*
X107852508Y-119750420D01*
X107655667Y-119718667D01*
X107380505Y-119647755D01*
X107317000Y-119549334D01*
X107175175Y-119411753D01*
X106978333Y-119380000D01*
X106695325Y-119260264D01*
X106639667Y-119041334D01*
X106759403Y-118758326D01*
X106978333Y-118702667D01*
X107253494Y-118773580D01*
G37*
G36*
X107253494Y-116064246D02*
G01*
X107317000Y-116162667D01*
X107458825Y-116300248D01*
X107655667Y-116332000D01*
X107930828Y-116402913D01*
X107994333Y-116501334D01*
X108136158Y-116638914D01*
X108333000Y-116670667D01*
X108608161Y-116741580D01*
X108671667Y-116840000D01*
X108813491Y-116977581D01*
X109010333Y-117009334D01*
X109285494Y-117080246D01*
X109349000Y-117178667D01*
X109490825Y-117316248D01*
X109687667Y-117348000D01*
X109970675Y-117467737D01*
X110026333Y-117686667D01*
X109906596Y-117969675D01*
X109687667Y-118025334D01*
X109412505Y-117954421D01*
X109349000Y-117856000D01*
X109207175Y-117718420D01*
X109010333Y-117686667D01*
X108735172Y-117615755D01*
X108671667Y-117517334D01*
X108529842Y-117379753D01*
X108333000Y-117348000D01*
X108057839Y-117277088D01*
X107994333Y-117178667D01*
X107852508Y-117041087D01*
X107655667Y-117009334D01*
X107380505Y-116938421D01*
X107317000Y-116840000D01*
X107175175Y-116702420D01*
X106978333Y-116670667D01*
X106695325Y-116550930D01*
X106639667Y-116332000D01*
X106759403Y-116048992D01*
X106978333Y-115993334D01*
X107253494Y-116064246D01*
G37*
G36*
X109286698Y-134972991D02*
G01*
X109570878Y-135035071D01*
X109676624Y-135173572D01*
X109687667Y-135297334D01*
X109650595Y-135486486D01*
X109487747Y-135588694D01*
X109121672Y-135629774D01*
X108671667Y-135636000D01*
X108104210Y-135648358D01*
X107797586Y-135702640D01*
X107674345Y-135824665D01*
X107655667Y-135974667D01*
X107692738Y-136163819D01*
X107855586Y-136266027D01*
X108221661Y-136307108D01*
X108671667Y-136313334D01*
X109239123Y-136325691D01*
X109545747Y-136379974D01*
X109668988Y-136501999D01*
X109687667Y-136652000D01*
X109662202Y-136812905D01*
X109542835Y-136912888D01*
X109265107Y-136966274D01*
X108764562Y-136987387D01*
X108163667Y-136990667D01*
X107439597Y-136985008D01*
X106989672Y-136958482D01*
X106749434Y-136896765D01*
X106654425Y-136785533D01*
X106639667Y-136652000D01*
X106759403Y-136368992D01*
X106978333Y-136313334D01*
X107241205Y-136217258D01*
X107316997Y-135881132D01*
X107317000Y-135877905D01*
X107410602Y-135407236D01*
X107718581Y-135116205D01*
X108281697Y-134978563D01*
X108744238Y-134958667D01*
X109286698Y-134972991D01*
G37*
G36*
X109639009Y-132392342D02*
G01*
X109679851Y-132738724D01*
X109647884Y-133164513D01*
X109550134Y-133545743D01*
X109434372Y-133731000D01*
X109124130Y-133861597D01*
X108633466Y-133936052D01*
X108438925Y-133942667D01*
X107933565Y-133987938D01*
X107624710Y-134106160D01*
X107585111Y-134154334D01*
X107473905Y-134278862D01*
X107387555Y-134154334D01*
X107154763Y-133976245D01*
X106964222Y-133942667D01*
X106691392Y-133816191D01*
X106639667Y-133604000D01*
X106759403Y-133320992D01*
X106978333Y-133265334D01*
X107226227Y-133185502D01*
X107313506Y-132888468D01*
X107317000Y-132757334D01*
X107366048Y-132400650D01*
X107484226Y-132249373D01*
X107486333Y-132249334D01*
X107605228Y-132396479D01*
X107655653Y-132751014D01*
X107655667Y-132757334D01*
X107674164Y-133058057D01*
X107787898Y-133208017D01*
X108084228Y-133259630D01*
X108502333Y-133265334D01*
X109003539Y-133254235D01*
X109253472Y-133185995D01*
X109339493Y-133008197D01*
X109349000Y-132757334D01*
X109398048Y-132400650D01*
X109516226Y-132249373D01*
X109518333Y-132249334D01*
X109639009Y-132392342D01*
G37*
G36*
X109639009Y-129683009D02*
G01*
X109679851Y-130029391D01*
X109647884Y-130455179D01*
X109550134Y-130836410D01*
X109434372Y-131021667D01*
X109124130Y-131152264D01*
X108633466Y-131226719D01*
X108438925Y-131233334D01*
X107933565Y-131278605D01*
X107624710Y-131396827D01*
X107585111Y-131445000D01*
X107473905Y-131569529D01*
X107387555Y-131445000D01*
X107154763Y-131266912D01*
X106964222Y-131233334D01*
X106691392Y-131106857D01*
X106639667Y-130894667D01*
X106759403Y-130611659D01*
X106978333Y-130556000D01*
X107226227Y-130476169D01*
X107313506Y-130179135D01*
X107317000Y-130048000D01*
X107366048Y-129691317D01*
X107484226Y-129540040D01*
X107486333Y-129540000D01*
X107605228Y-129687146D01*
X107655653Y-130041680D01*
X107655667Y-130048000D01*
X107674164Y-130348724D01*
X107787898Y-130498684D01*
X108084228Y-130550296D01*
X108502333Y-130556000D01*
X109003539Y-130544902D01*
X109253472Y-130476662D01*
X109339493Y-130298863D01*
X109349000Y-130048000D01*
X109398048Y-129691317D01*
X109516226Y-129540040D01*
X109518333Y-129540000D01*
X109639009Y-129683009D01*
G37*
G36*
X107592370Y-124271558D02*
G01*
X107651349Y-124646837D01*
X107655667Y-124798667D01*
X107684067Y-125241803D01*
X107798856Y-125437652D01*
X107994333Y-125476000D01*
X108257205Y-125379924D01*
X108332997Y-125043798D01*
X108333000Y-125040572D01*
X108442703Y-124538751D01*
X108719924Y-124230411D01*
X109086833Y-124162928D01*
X109445762Y-124363239D01*
X109578981Y-124636935D01*
X109660926Y-125066795D01*
X109686936Y-125537890D01*
X109652353Y-125935290D01*
X109552516Y-126144064D01*
X109518333Y-126153334D01*
X109412296Y-126003110D01*
X109353318Y-125627831D01*
X109349000Y-125476000D01*
X109320600Y-125032864D01*
X109205811Y-124837015D01*
X109010333Y-124798667D01*
X108747461Y-124894743D01*
X108671669Y-125230869D01*
X108671667Y-125234096D01*
X108561783Y-125691789D01*
X108291589Y-126037628D01*
X107994333Y-126153334D01*
X107642129Y-125998782D01*
X107406691Y-125571177D01*
X107317136Y-124924594D01*
X107317000Y-124895429D01*
X107350139Y-124436813D01*
X107434121Y-124159212D01*
X107486333Y-124121334D01*
X107592370Y-124271558D01*
G37*
G36*
X109596893Y-121830499D02*
G01*
X109684173Y-122127533D01*
X109687667Y-122258667D01*
X109634446Y-122630507D01*
X109436423Y-122761426D01*
X109349000Y-122766667D01*
X109101106Y-122686836D01*
X109013827Y-122389801D01*
X109010333Y-122258667D01*
X109063554Y-121886827D01*
X109261577Y-121755908D01*
X109349000Y-121750667D01*
X109596893Y-121830499D01*
G37*
G36*
X109608530Y-113438239D02*
G01*
X109669680Y-113841166D01*
X109687667Y-114300000D01*
X109669863Y-114883300D01*
X109604477Y-115197513D01*
X109473546Y-115310923D01*
X109420391Y-115316000D01*
X109161049Y-115200796D01*
X108779414Y-114904589D01*
X108502333Y-114638667D01*
X108128431Y-114266401D01*
X107850225Y-114020382D01*
X107753609Y-113961334D01*
X107692251Y-114111702D01*
X107658149Y-114487298D01*
X107655667Y-114638667D01*
X107618110Y-115062815D01*
X107524291Y-115298729D01*
X107486333Y-115316000D01*
X107396137Y-115161762D01*
X107334986Y-114758835D01*
X107317000Y-114300000D01*
X107353829Y-113663856D01*
X107481638Y-113337170D01*
X107726405Y-113312519D01*
X108114110Y-113582481D01*
X108502333Y-113961334D01*
X108876235Y-114333600D01*
X109154441Y-114579619D01*
X109251057Y-114638667D01*
X109312415Y-114488299D01*
X109346518Y-114112703D01*
X109349000Y-113961334D01*
X109386556Y-113537186D01*
X109480376Y-113301272D01*
X109518333Y-113284000D01*
X109608530Y-113438239D01*
G37*
G36*
X107558905Y-112364762D02*
G01*
X107385339Y-112028785D01*
X107317000Y-111590667D01*
X107655667Y-111590667D01*
X107775403Y-111873675D01*
X107994333Y-111929334D01*
X108277341Y-111809597D01*
X108333000Y-111590667D01*
X108213263Y-111307659D01*
X107994333Y-111252000D01*
X107711325Y-111371737D01*
X107655667Y-111590667D01*
X107317000Y-111590667D01*
X107440265Y-111010575D01*
X107794582Y-110665020D01*
X108236238Y-110574667D01*
X108516481Y-110609794D01*
X108641057Y-110778920D01*
X108671431Y-111177661D01*
X108671667Y-111252000D01*
X108700067Y-111695137D01*
X108814856Y-111890986D01*
X109010333Y-111929334D01*
X109258227Y-111849502D01*
X109345506Y-111552468D01*
X109349000Y-111421334D01*
X109398048Y-111064650D01*
X109516226Y-110913373D01*
X109518333Y-110913334D01*
X109639009Y-111056342D01*
X109679851Y-111402724D01*
X109647884Y-111828513D01*
X109550134Y-112209743D01*
X109434372Y-112395000D01*
X109068071Y-112548957D01*
X108539343Y-112600119D01*
X108000936Y-112550951D01*
X107994333Y-112548495D01*
X107605596Y-112403915D01*
X107558905Y-112364762D01*
G37*
G36*
X107918538Y-107961410D02*
G01*
X107994330Y-108297536D01*
X107994333Y-108300762D01*
X108127461Y-108822266D01*
X108520849Y-109130754D01*
X109082905Y-109220000D01*
X109496443Y-109256252D01*
X109665828Y-109398569D01*
X109687667Y-109558667D01*
X109655687Y-109736647D01*
X109511473Y-109838609D01*
X109182611Y-109885243D01*
X108596685Y-109897239D01*
X108502333Y-109897334D01*
X107879404Y-109888197D01*
X107522537Y-109846993D01*
X107359317Y-109753032D01*
X107317330Y-109585625D01*
X107317000Y-109558667D01*
X107436737Y-109275659D01*
X107655667Y-109220000D01*
X107931049Y-109164622D01*
X107994333Y-109088049D01*
X107872066Y-108898621D01*
X107655667Y-108712000D01*
X107391173Y-108407705D01*
X107317000Y-108166619D01*
X107452589Y-107912604D01*
X107655667Y-107865334D01*
X107918538Y-107961410D01*
G37*
G36*
X107605596Y-106985248D02*
G01*
X107558905Y-106946096D01*
X107385339Y-106610118D01*
X107317000Y-106172000D01*
X107655667Y-106172000D01*
X107700243Y-106375134D01*
X107889448Y-106476445D01*
X108306500Y-106509218D01*
X108502333Y-106510667D01*
X109010167Y-106492837D01*
X109263443Y-106417154D01*
X109345377Y-106250334D01*
X109349000Y-106172000D01*
X109304424Y-105968867D01*
X109115218Y-105867556D01*
X108698166Y-105834783D01*
X108502333Y-105833334D01*
X107994499Y-105851164D01*
X107741223Y-105926847D01*
X107659289Y-106093667D01*
X107655667Y-106172000D01*
X107317000Y-106172000D01*
X107423585Y-105616598D01*
X107761243Y-105286680D01*
X108356832Y-105159228D01*
X108502333Y-105156000D01*
X109005231Y-105211843D01*
X109384995Y-105350662D01*
X109445762Y-105397905D01*
X109626876Y-105768756D01*
X109671733Y-106272903D01*
X109581512Y-106746653D01*
X109434372Y-106976334D01*
X109068071Y-107130290D01*
X108539343Y-107181452D01*
X108502333Y-107178072D01*
X108000936Y-107132284D01*
X107605596Y-106985248D01*
G37*
G36*
X107918538Y-99833410D02*
G01*
X107994330Y-100169536D01*
X107994333Y-100172762D01*
X108127461Y-100694266D01*
X108520849Y-101002754D01*
X109082905Y-101092000D01*
X109496443Y-101128252D01*
X109665828Y-101270569D01*
X109687667Y-101430667D01*
X109655687Y-101608647D01*
X109511473Y-101710609D01*
X109182611Y-101757243D01*
X108596685Y-101769239D01*
X108502333Y-101769334D01*
X107879404Y-101760197D01*
X107522537Y-101718993D01*
X107359317Y-101625032D01*
X107317330Y-101457625D01*
X107317000Y-101430667D01*
X107436737Y-101147659D01*
X107655667Y-101092000D01*
X107931049Y-101036622D01*
X107994333Y-100960049D01*
X107872066Y-100770621D01*
X107655667Y-100584000D01*
X107391173Y-100279705D01*
X107317000Y-100038619D01*
X107452589Y-99784604D01*
X107655667Y-99737334D01*
X107918538Y-99833410D01*
G37*
G36*
X108413194Y-98576196D02*
G01*
X108333000Y-98140762D01*
X108311606Y-98044000D01*
X108671667Y-98044000D01*
X108791403Y-98327009D01*
X109010333Y-98382667D01*
X109293341Y-98262930D01*
X109349000Y-98044000D01*
X109229263Y-97760992D01*
X109010333Y-97705334D01*
X108727325Y-97825071D01*
X108671667Y-98044000D01*
X108311606Y-98044000D01*
X108258274Y-97802784D01*
X107996843Y-97705338D01*
X107994333Y-97705334D01*
X107746440Y-97785165D01*
X107659160Y-98082200D01*
X107655667Y-98213334D01*
X107606618Y-98570017D01*
X107488440Y-98721295D01*
X107486333Y-98721334D01*
X107361878Y-98578594D01*
X107319667Y-98233236D01*
X107353484Y-97809552D01*
X107457115Y-97431833D01*
X107558905Y-97269905D01*
X107911590Y-97108805D01*
X108525846Y-97032322D01*
X108744238Y-97028000D01*
X109687667Y-97028000D01*
X109681226Y-97832334D01*
X109624881Y-98403713D01*
X109484799Y-98789456D01*
X109434372Y-98848334D01*
X109039471Y-99026708D01*
X109010333Y-99018173D01*
X108673354Y-98919469D01*
X108413194Y-98576196D01*
G37*
G36*
X108682596Y-94376808D02*
G01*
X109107153Y-94586928D01*
X109272030Y-94734304D01*
X109600250Y-95147366D01*
X109629398Y-95495416D01*
X109358545Y-95874085D01*
X109260027Y-95969667D01*
X108854495Y-96220176D01*
X108359741Y-96355564D01*
X107873708Y-96373697D01*
X107494340Y-96272440D01*
X107319582Y-96049661D01*
X107317000Y-96012000D01*
X107361576Y-95808867D01*
X107550782Y-95707556D01*
X107967834Y-95674783D01*
X108163667Y-95673334D01*
X108671501Y-95655503D01*
X108924777Y-95579821D01*
X109006710Y-95413000D01*
X109010333Y-95334667D01*
X108965757Y-95131533D01*
X108776551Y-95030223D01*
X108359499Y-94997450D01*
X108163667Y-94996000D01*
X107655832Y-94978170D01*
X107402556Y-94902488D01*
X107320623Y-94735667D01*
X107317000Y-94657334D01*
X107366319Y-94446520D01*
X107571553Y-94346298D01*
X108018622Y-94318864D01*
X108086697Y-94318667D01*
X108682596Y-94376808D01*
G37*
G36*
X109608530Y-91763573D02*
G01*
X109669680Y-92166499D01*
X109687667Y-92625334D01*
X109661960Y-93166514D01*
X109594806Y-93533415D01*
X109518333Y-93641334D01*
X109380753Y-93499509D01*
X109349000Y-93302667D01*
X109304424Y-93099533D01*
X109115218Y-92998223D01*
X108698166Y-92965450D01*
X108502333Y-92964000D01*
X107994499Y-92981831D01*
X107741223Y-93057513D01*
X107659289Y-93224334D01*
X107655667Y-93302667D01*
X107584754Y-93577828D01*
X107486333Y-93641334D01*
X107380296Y-93491110D01*
X107321318Y-93115831D01*
X107317000Y-92964000D01*
X107317000Y-92286667D01*
X108333000Y-92286667D01*
X108900456Y-92274310D01*
X109207080Y-92220027D01*
X109330321Y-92098002D01*
X109349000Y-91948000D01*
X109419912Y-91672839D01*
X109518333Y-91609334D01*
X109608530Y-91763573D01*
G37*
G36*
X109639009Y-89043009D02*
G01*
X109679851Y-89389391D01*
X109647884Y-89815179D01*
X109550134Y-90196410D01*
X109434372Y-90381667D01*
X109124130Y-90512264D01*
X108633466Y-90586719D01*
X108438925Y-90593334D01*
X107933565Y-90638605D01*
X107624710Y-90756827D01*
X107585111Y-90805000D01*
X107473905Y-90929529D01*
X107387555Y-90805000D01*
X107154763Y-90626912D01*
X106964222Y-90593334D01*
X106691392Y-90466857D01*
X106639667Y-90254667D01*
X106759403Y-89971659D01*
X106978333Y-89916000D01*
X107226227Y-89836169D01*
X107313506Y-89539135D01*
X107317000Y-89408000D01*
X107366048Y-89051317D01*
X107484226Y-88900040D01*
X107486333Y-88900000D01*
X107605228Y-89047146D01*
X107655653Y-89401680D01*
X107655667Y-89408000D01*
X107674164Y-89708724D01*
X107787898Y-89858684D01*
X108084228Y-89910296D01*
X108502333Y-89916000D01*
X109003539Y-89904902D01*
X109253472Y-89836662D01*
X109339493Y-89658863D01*
X109349000Y-89408000D01*
X109398048Y-89051317D01*
X109516226Y-88900040D01*
X109518333Y-88900000D01*
X109639009Y-89043009D01*
G37*
G36*
X108413194Y-85029530D02*
G01*
X108333000Y-84594096D01*
X108311606Y-84497334D01*
X108671667Y-84497334D01*
X108791403Y-84780342D01*
X109010333Y-84836000D01*
X109293341Y-84716264D01*
X109349000Y-84497334D01*
X109229263Y-84214326D01*
X109010333Y-84158667D01*
X108727325Y-84278404D01*
X108671667Y-84497334D01*
X108311606Y-84497334D01*
X108258274Y-84256118D01*
X107996843Y-84158671D01*
X107994333Y-84158667D01*
X107746440Y-84238499D01*
X107659160Y-84535533D01*
X107655667Y-84666667D01*
X107606618Y-85023351D01*
X107488440Y-85174628D01*
X107486333Y-85174667D01*
X107361878Y-85031927D01*
X107319667Y-84686569D01*
X107353484Y-84262885D01*
X107457115Y-83885167D01*
X107558905Y-83723239D01*
X107911590Y-83562138D01*
X108525846Y-83485655D01*
X108744238Y-83481334D01*
X109687667Y-83481334D01*
X109681226Y-84285667D01*
X109624881Y-84857046D01*
X109484799Y-85242790D01*
X109434372Y-85301667D01*
X109039471Y-85480041D01*
X109010333Y-85471506D01*
X108673354Y-85372802D01*
X108413194Y-85029530D01*
G37*
G36*
X109286698Y-80786324D02*
G01*
X109570878Y-80848405D01*
X109676624Y-80986905D01*
X109687667Y-81110667D01*
X109650595Y-81299819D01*
X109487747Y-81402027D01*
X109121672Y-81443108D01*
X108671667Y-81449334D01*
X108104210Y-81461691D01*
X107797586Y-81515974D01*
X107674345Y-81637999D01*
X107655667Y-81788000D01*
X107692738Y-81977153D01*
X107855586Y-82079361D01*
X108221661Y-82120441D01*
X108671667Y-82126667D01*
X109239123Y-82139024D01*
X109545747Y-82193307D01*
X109668988Y-82315332D01*
X109687667Y-82465334D01*
X109655687Y-82643314D01*
X109511473Y-82745276D01*
X109182611Y-82791910D01*
X108596685Y-82803906D01*
X108502333Y-82804000D01*
X107317000Y-82804000D01*
X107317000Y-82029905D01*
X107373755Y-81408117D01*
X107582342Y-81025013D01*
X108000245Y-80829931D01*
X108684948Y-80772206D01*
X108744238Y-80772000D01*
X109286698Y-80786324D01*
G37*
G36*
X109639009Y-78205676D02*
G01*
X109679851Y-78552057D01*
X109647884Y-78977846D01*
X109550134Y-79359076D01*
X109434372Y-79544334D01*
X109124130Y-79674930D01*
X108633466Y-79749386D01*
X108438925Y-79756000D01*
X107933565Y-79801272D01*
X107624710Y-79919493D01*
X107585111Y-79967667D01*
X107473905Y-80092196D01*
X107387555Y-79967667D01*
X107154763Y-79789579D01*
X106964222Y-79756000D01*
X106691392Y-79629524D01*
X106639667Y-79417334D01*
X106759403Y-79134326D01*
X106978333Y-79078667D01*
X107226227Y-78998836D01*
X107313506Y-78701801D01*
X107317000Y-78570667D01*
X107366048Y-78213984D01*
X107484226Y-78062706D01*
X107486333Y-78062667D01*
X107605228Y-78209812D01*
X107655653Y-78564347D01*
X107655667Y-78570667D01*
X107674164Y-78871391D01*
X107787898Y-79021351D01*
X108084228Y-79072963D01*
X108502333Y-79078667D01*
X109003539Y-79067569D01*
X109253472Y-78999328D01*
X109339493Y-78821530D01*
X109349000Y-78570667D01*
X109398048Y-78213984D01*
X109516226Y-78062706D01*
X109518333Y-78062667D01*
X109639009Y-78205676D01*
G37*
G36*
X108282561Y-75500479D02*
G01*
X108332987Y-75855014D01*
X108333000Y-75861334D01*
X108359747Y-76187067D01*
X108504692Y-76331870D01*
X108864889Y-76368532D01*
X109010333Y-76369334D01*
X109453469Y-76397734D01*
X109649318Y-76512523D01*
X109687667Y-76708000D01*
X109629492Y-76931393D01*
X109395568Y-77028831D01*
X109024444Y-77046667D01*
X108576610Y-77096049D01*
X108292657Y-77218702D01*
X108262444Y-77258334D01*
X108151238Y-77382862D01*
X108064889Y-77258334D01*
X107837403Y-77095991D01*
X107544793Y-77046667D01*
X107118791Y-76953009D01*
X106881571Y-76804762D01*
X106735916Y-76523505D01*
X106656039Y-76115537D01*
X106648152Y-75705150D01*
X106718471Y-75416637D01*
X106809000Y-75353334D01*
X106927894Y-75500479D01*
X106978320Y-75855014D01*
X106978333Y-75861334D01*
X107020292Y-76221150D01*
X107218213Y-76353771D01*
X107486333Y-76369334D01*
X107846149Y-76327375D01*
X107978770Y-76129454D01*
X107994333Y-75861334D01*
X108043382Y-75504650D01*
X108161560Y-75353373D01*
X108163667Y-75353334D01*
X108282561Y-75500479D01*
G37*
G36*
X108413194Y-74192196D02*
G01*
X108333000Y-73756762D01*
X108311606Y-73660000D01*
X108671667Y-73660000D01*
X108791403Y-73943009D01*
X109010333Y-73998667D01*
X109293341Y-73878930D01*
X109349000Y-73660000D01*
X109229263Y-73376992D01*
X109010333Y-73321334D01*
X108727325Y-73441071D01*
X108671667Y-73660000D01*
X108311606Y-73660000D01*
X108258274Y-73418784D01*
X107996843Y-73321338D01*
X107994333Y-73321334D01*
X107746440Y-73401165D01*
X107659160Y-73698200D01*
X107655667Y-73829334D01*
X107606618Y-74186017D01*
X107488440Y-74337295D01*
X107486333Y-74337334D01*
X107361878Y-74194594D01*
X107319667Y-73849236D01*
X107353484Y-73425552D01*
X107457115Y-73047833D01*
X107558905Y-72885905D01*
X107911590Y-72724805D01*
X108525846Y-72648322D01*
X108744238Y-72644000D01*
X109687667Y-72644000D01*
X109681226Y-73448334D01*
X109624881Y-74019713D01*
X109484799Y-74405456D01*
X109434372Y-74464334D01*
X109039471Y-74642708D01*
X109010333Y-74634173D01*
X108673354Y-74535469D01*
X108413194Y-74192196D01*
G37*
G36*
X107918538Y-70030743D02*
G01*
X107994330Y-70366869D01*
X107994333Y-70370096D01*
X108127461Y-70891599D01*
X108520849Y-71200087D01*
X109082905Y-71289334D01*
X109496443Y-71325586D01*
X109665828Y-71467903D01*
X109687667Y-71628000D01*
X109655687Y-71805980D01*
X109511473Y-71907942D01*
X109182611Y-71954577D01*
X108596685Y-71966573D01*
X108502333Y-71966667D01*
X107879404Y-71957530D01*
X107522537Y-71916326D01*
X107359317Y-71822365D01*
X107317330Y-71654958D01*
X107317000Y-71628000D01*
X107436737Y-71344992D01*
X107655667Y-71289334D01*
X107931049Y-71233956D01*
X107994333Y-71157382D01*
X107872066Y-70967954D01*
X107655667Y-70781334D01*
X107391173Y-70477039D01*
X107317000Y-70235952D01*
X107452589Y-69981938D01*
X107655667Y-69934667D01*
X107918538Y-70030743D01*
G37*
G36*
X109286698Y-66900991D02*
G01*
X109570878Y-66963071D01*
X109676624Y-67101572D01*
X109687667Y-67225334D01*
X109650595Y-67414486D01*
X109487747Y-67516694D01*
X109121672Y-67557774D01*
X108671667Y-67564000D01*
X108130487Y-67589707D01*
X107763586Y-67656861D01*
X107655667Y-67733334D01*
X107807960Y-67829929D01*
X108197351Y-67891240D01*
X108502333Y-67902667D01*
X108985308Y-67933126D01*
X109291863Y-68011004D01*
X109349000Y-68072000D01*
X109196706Y-68168596D01*
X108807315Y-68229906D01*
X108502333Y-68241334D01*
X108019358Y-68271793D01*
X107712803Y-68349671D01*
X107655667Y-68410667D01*
X107809905Y-68500864D01*
X108212832Y-68562014D01*
X108671667Y-68580000D01*
X109239123Y-68592358D01*
X109545747Y-68646640D01*
X109668988Y-68768665D01*
X109687667Y-68918667D01*
X109655687Y-69096647D01*
X109511473Y-69198609D01*
X109182611Y-69245243D01*
X108596685Y-69257239D01*
X108502333Y-69257334D01*
X107317000Y-69257334D01*
X107317000Y-68313905D01*
X107362674Y-67613875D01*
X107540464Y-67183839D01*
X107911525Y-66962644D01*
X108537011Y-66889135D01*
X108744238Y-66886667D01*
X109286698Y-66900991D01*
G37*
G36*
X109596893Y-64934499D02*
G01*
X109684173Y-65231533D01*
X109687667Y-65362667D01*
X109634446Y-65734507D01*
X109436423Y-65865426D01*
X109349000Y-65870667D01*
X109101106Y-65790836D01*
X109013827Y-65493801D01*
X109010333Y-65362667D01*
X109063554Y-64990827D01*
X109261577Y-64859908D01*
X109349000Y-64854667D01*
X109596893Y-64934499D01*
G37*
G36*
X107976298Y-61949023D02*
G01*
X107994333Y-62145334D01*
X107923421Y-62420495D01*
X107825000Y-62484000D01*
X107687419Y-62625825D01*
X107655667Y-62822667D01*
X107700243Y-63025801D01*
X107889448Y-63127111D01*
X108306500Y-63159885D01*
X108502333Y-63161334D01*
X109010167Y-63143503D01*
X109263443Y-63067821D01*
X109345377Y-62901000D01*
X109349000Y-62822667D01*
X109278087Y-62547506D01*
X109179667Y-62484000D01*
X109042086Y-62342176D01*
X109010333Y-62145334D01*
X109059737Y-61854343D01*
X109230691Y-61863210D01*
X109445762Y-62048572D01*
X109626876Y-62419422D01*
X109671733Y-62923569D01*
X109581512Y-63397319D01*
X109434372Y-63627000D01*
X109068071Y-63780957D01*
X108539343Y-63832119D01*
X108000936Y-63782951D01*
X107605596Y-63635915D01*
X107558905Y-63596762D01*
X107372698Y-63235410D01*
X107336805Y-62763280D01*
X107429941Y-62292886D01*
X107630819Y-61936739D01*
X107897571Y-61806667D01*
X107976298Y-61949023D01*
G37*
G36*
X107605596Y-60926582D02*
G01*
X107558905Y-60887429D01*
X107385339Y-60551452D01*
X107317000Y-60113334D01*
X107655667Y-60113334D01*
X107700243Y-60316468D01*
X107889448Y-60417778D01*
X108306500Y-60450551D01*
X108502333Y-60452000D01*
X109010167Y-60434170D01*
X109263443Y-60358488D01*
X109345377Y-60191667D01*
X109349000Y-60113334D01*
X109304424Y-59910200D01*
X109115218Y-59808890D01*
X108698166Y-59776116D01*
X108502333Y-59774667D01*
X107994499Y-59792498D01*
X107741223Y-59868180D01*
X107659289Y-60035001D01*
X107655667Y-60113334D01*
X107317000Y-60113334D01*
X107423585Y-59557931D01*
X107761243Y-59228014D01*
X108356832Y-59100561D01*
X108502333Y-59097334D01*
X109005231Y-59153176D01*
X109384995Y-59291995D01*
X109445762Y-59339239D01*
X109626876Y-59710089D01*
X109671733Y-60214236D01*
X109581512Y-60687986D01*
X109434372Y-60917667D01*
X109068071Y-61071623D01*
X108539343Y-61122786D01*
X108502333Y-61119406D01*
X108000936Y-61073618D01*
X107605596Y-60926582D01*
G37*
G36*
X109286698Y-56063658D02*
G01*
X109570878Y-56125738D01*
X109676624Y-56264238D01*
X109687667Y-56388000D01*
X109650595Y-56577153D01*
X109487747Y-56679361D01*
X109121672Y-56720441D01*
X108671667Y-56726667D01*
X108130487Y-56752374D01*
X107763586Y-56819528D01*
X107655667Y-56896000D01*
X107807960Y-56992596D01*
X108197351Y-57053906D01*
X108502333Y-57065334D01*
X108985308Y-57095793D01*
X109291863Y-57173671D01*
X109349000Y-57234667D01*
X109196706Y-57331262D01*
X108807315Y-57392573D01*
X108502333Y-57404000D01*
X108019358Y-57434459D01*
X107712803Y-57512337D01*
X107655667Y-57573334D01*
X107809905Y-57663530D01*
X108212832Y-57724681D01*
X108671667Y-57742667D01*
X109239123Y-57755024D01*
X109545747Y-57809307D01*
X109668988Y-57931332D01*
X109687667Y-58081334D01*
X109655687Y-58259314D01*
X109511473Y-58361276D01*
X109182611Y-58407910D01*
X108596685Y-58419906D01*
X108502333Y-58420000D01*
X107317000Y-58420000D01*
X107317000Y-57476572D01*
X107362674Y-56776541D01*
X107540464Y-56346506D01*
X107911525Y-56125310D01*
X108537011Y-56051802D01*
X108744238Y-56049334D01*
X109286698Y-56063658D01*
G37*
G36*
X107903560Y-121830499D02*
G01*
X107990839Y-122127533D01*
X107994333Y-122258667D01*
X107941112Y-122630507D01*
X107743089Y-122761426D01*
X107655667Y-122766667D01*
X107407773Y-122686836D01*
X107320494Y-122389801D01*
X107317000Y-122258667D01*
X107370221Y-121886827D01*
X107568244Y-121755908D01*
X107655667Y-121750667D01*
X107903560Y-121830499D01*
G37*
G36*
X106922675Y-92406404D02*
G01*
X106978333Y-92625334D01*
X106858596Y-92908342D01*
X106639667Y-92964000D01*
X106356658Y-92844264D01*
X106301000Y-92625334D01*
X106420737Y-92342326D01*
X106639667Y-92286667D01*
X106922675Y-92406404D01*
G37*
G36*
X165725606Y-63743858D02*
G01*
X165776579Y-63812098D01*
X165783504Y-63970805D01*
X165727763Y-64158701D01*
X165621632Y-64343769D01*
X165533779Y-64445127D01*
X165360927Y-64612762D01*
X164432178Y-64628028D01*
X164084805Y-64632032D01*
X163823701Y-64630768D01*
X163638493Y-64623756D01*
X163518806Y-64610513D01*
X163454268Y-64590558D01*
X163442953Y-64582066D01*
X163389596Y-64486965D01*
X163382476Y-64443429D01*
X163391019Y-64376052D01*
X163424932Y-64326238D01*
X163496640Y-64291397D01*
X163618571Y-64268940D01*
X163803152Y-64256279D01*
X164062807Y-64250824D01*
X164311391Y-64249905D01*
X164632390Y-64248699D01*
X164871564Y-64241732D01*
X165043849Y-64223980D01*
X165164179Y-64190419D01*
X165247490Y-64136024D01*
X165308715Y-64055771D01*
X165362789Y-63944637D01*
X165386702Y-63888163D01*
X165449600Y-63771919D01*
X165527345Y-63724320D01*
X165602271Y-63717715D01*
X165725606Y-63743858D01*
G37*
G36*
X167135098Y-61708697D02*
G01*
X167201378Y-61792317D01*
X167239993Y-61879238D01*
X167295718Y-61997748D01*
X167345629Y-62066120D01*
X167359522Y-62072762D01*
X167403903Y-62113054D01*
X167461808Y-62213693D01*
X167480114Y-62254191D01*
X167513504Y-62359648D01*
X167536257Y-62502742D01*
X167549822Y-62700299D01*
X167555646Y-62969145D01*
X167556106Y-63137143D01*
X167552112Y-63463457D01*
X167539517Y-63708785D01*
X167515667Y-63888718D01*
X167477908Y-64018848D01*
X167423587Y-64114769D01*
X167381552Y-64162775D01*
X167314876Y-64255174D01*
X167245302Y-64388023D01*
X167234826Y-64412187D01*
X167164782Y-64536936D01*
X167081896Y-64585689D01*
X167047383Y-64588572D01*
X166932939Y-64565196D01*
X166875581Y-64530515D01*
X166826151Y-64453756D01*
X166836372Y-64365585D01*
X166912201Y-64247345D01*
X166997972Y-64147211D01*
X167178420Y-63947477D01*
X167178420Y-62326809D01*
X166997972Y-62127075D01*
X166897959Y-62005780D01*
X166832433Y-61905996D01*
X166817524Y-61864585D01*
X166860374Y-61761642D01*
X166969233Y-61696835D01*
X167048807Y-61685715D01*
X167135098Y-61708697D01*
G37*
G36*
X157564667Y-61086441D02*
G01*
X157591185Y-61110930D01*
X157611853Y-61154614D01*
X157627577Y-61229076D01*
X157639261Y-61345898D01*
X157647808Y-61516659D01*
X157654123Y-61752943D01*
X157659111Y-62066330D01*
X157662284Y-62336678D01*
X157675235Y-63533541D01*
X157888274Y-63746580D01*
X158014507Y-63865686D01*
X158113022Y-63929596D01*
X158220595Y-63955246D01*
X158350857Y-63959619D01*
X158496978Y-63953463D01*
X158601641Y-63923646D01*
X158701949Y-63853146D01*
X158811945Y-63748076D01*
X158925361Y-63629086D01*
X158990136Y-63533367D01*
X159021662Y-63424197D01*
X159035327Y-63264854D01*
X159037935Y-63208841D01*
X159063965Y-62978792D01*
X159118257Y-62840351D01*
X159201645Y-62792333D01*
X159306381Y-62827999D01*
X159352971Y-62879388D01*
X159382465Y-62975932D01*
X159399661Y-63138187D01*
X159405184Y-63251386D01*
X159419319Y-63621554D01*
X158694206Y-64346667D01*
X158341103Y-64343523D01*
X157988000Y-64340380D01*
X157636419Y-63982031D01*
X157284837Y-63623681D01*
X157297752Y-62381751D01*
X157302239Y-62000111D01*
X157307365Y-61703875D01*
X157313986Y-61481686D01*
X157322958Y-61322187D01*
X157335137Y-61214021D01*
X157351377Y-61145831D01*
X157372535Y-61106258D01*
X157395334Y-61086443D01*
X157499350Y-61058925D01*
X157564667Y-61086441D01*
G37*
G36*
X160177238Y-61086441D02*
G01*
X160203756Y-61110930D01*
X160224425Y-61154614D01*
X160240149Y-61229076D01*
X160251832Y-61345898D01*
X160260379Y-61516659D01*
X160266695Y-61752943D01*
X160271682Y-62066330D01*
X160274856Y-62336678D01*
X160287806Y-63533541D01*
X160500846Y-63746580D01*
X160627078Y-63865686D01*
X160725593Y-63929596D01*
X160833167Y-63955246D01*
X160963429Y-63959619D01*
X161109549Y-63953463D01*
X161214212Y-63923646D01*
X161314521Y-63853146D01*
X161424516Y-63748076D01*
X161537932Y-63629086D01*
X161602708Y-63533367D01*
X161634233Y-63424197D01*
X161647899Y-63264854D01*
X161650506Y-63208841D01*
X161676537Y-62978792D01*
X161730828Y-62840351D01*
X161814216Y-62792333D01*
X161918953Y-62827999D01*
X161965543Y-62879388D01*
X161995037Y-62975932D01*
X162012232Y-63138187D01*
X162017755Y-63251386D01*
X162031891Y-63621554D01*
X161669334Y-63984110D01*
X161306777Y-64346667D01*
X160953675Y-64343523D01*
X160600572Y-64340380D01*
X160248990Y-63982031D01*
X159897409Y-63623681D01*
X159910324Y-62381751D01*
X159914810Y-62000111D01*
X159919936Y-61703875D01*
X159926558Y-61481686D01*
X159935530Y-61322187D01*
X159947708Y-61214021D01*
X159963949Y-61145831D01*
X159985106Y-61106258D01*
X160007905Y-61086443D01*
X160111921Y-61058925D01*
X160177238Y-61086441D01*
G37*
G36*
X169466381Y-61376646D02*
G01*
X169504864Y-61415368D01*
X169531219Y-61486006D01*
X169548402Y-61606247D01*
X169559372Y-61793778D01*
X169564687Y-61964671D01*
X169578325Y-62499404D01*
X169431639Y-62603854D01*
X169325062Y-62704799D01*
X169286826Y-62826149D01*
X169284953Y-62875662D01*
X169279008Y-62940452D01*
X169255129Y-63007647D01*
X169204252Y-63088638D01*
X169117310Y-63194819D01*
X168985238Y-63337584D01*
X168798970Y-63528325D01*
X168633129Y-63694844D01*
X168426136Y-63898605D01*
X168239417Y-64076328D01*
X168084690Y-64217346D01*
X167973672Y-64310992D01*
X167918081Y-64346600D01*
X167917091Y-64346667D01*
X167828383Y-64315071D01*
X167794819Y-64288610D01*
X167743106Y-64200182D01*
X167736762Y-64163413D01*
X167769759Y-64108637D01*
X167861111Y-63999480D01*
X167999358Y-63848557D01*
X168173041Y-63668486D01*
X168317334Y-63524191D01*
X168532555Y-63310380D01*
X168687359Y-63150727D01*
X168791497Y-63032761D01*
X168854719Y-62944013D01*
X168886779Y-62872015D01*
X168897427Y-62804296D01*
X168897905Y-62781825D01*
X168919904Y-62641465D01*
X169002836Y-62538672D01*
X169041379Y-62509379D01*
X169106442Y-62459284D01*
X169148728Y-62406334D01*
X169173919Y-62329173D01*
X169187701Y-62206442D01*
X169195757Y-62016783D01*
X169198617Y-61918562D01*
X169207885Y-61687284D01*
X169222347Y-61534275D01*
X169245358Y-61441060D01*
X169280274Y-61389163D01*
X169297048Y-61376629D01*
X169401340Y-61349255D01*
X169466381Y-61376646D01*
G37*
G36*
X163346142Y-61654018D02*
G01*
X163473903Y-61706567D01*
X163523092Y-61798721D01*
X163519491Y-61864819D01*
X163458189Y-61940689D01*
X163308726Y-62009687D01*
X163273591Y-62020816D01*
X163114960Y-62078933D01*
X163052706Y-62129127D01*
X163086777Y-62171503D01*
X163186480Y-62200477D01*
X163331201Y-62257037D01*
X163428737Y-62347474D01*
X163457878Y-62449667D01*
X163451208Y-62476561D01*
X163388705Y-62538092D01*
X163268779Y-62596853D01*
X163220232Y-62612666D01*
X163086147Y-62656194D01*
X162992517Y-62696415D01*
X162976760Y-62706767D01*
X162959451Y-62767240D01*
X162944493Y-62903834D01*
X162933543Y-63095909D01*
X162928380Y-63309384D01*
X162924473Y-63554399D01*
X162916455Y-63720824D01*
X162901372Y-63826826D01*
X162876273Y-63890570D01*
X162838205Y-63930221D01*
X162826095Y-63938644D01*
X162711259Y-63976033D01*
X162644667Y-63954419D01*
X162609341Y-63923331D01*
X162585303Y-63866339D01*
X162570474Y-63767009D01*
X162562774Y-63608908D01*
X162560122Y-63375601D01*
X162560000Y-63285446D01*
X162559303Y-63030225D01*
X162555179Y-62854125D01*
X162544581Y-62739505D01*
X162524463Y-62668724D01*
X162491777Y-62624142D01*
X162443476Y-62588119D01*
X162439048Y-62585211D01*
X162338994Y-62484038D01*
X162333368Y-62371014D01*
X162422292Y-62242472D01*
X162451143Y-62214843D01*
X162554701Y-62099649D01*
X162666912Y-61944664D01*
X162716047Y-61865403D01*
X162847904Y-61637334D01*
X163133457Y-61637334D01*
X163346142Y-61654018D01*
G37*
G36*
X158464583Y-61694991D02*
G01*
X158520034Y-61833983D01*
X158535090Y-61948429D01*
X158525102Y-62152016D01*
X158463394Y-62274183D01*
X158350857Y-62314667D01*
X158248092Y-62279775D01*
X158208834Y-62245854D01*
X158170420Y-62143542D01*
X158162991Y-61995202D01*
X158182736Y-61839289D01*
X158225849Y-61714255D01*
X158266191Y-61666727D01*
X158377703Y-61636867D01*
X158464583Y-61694991D01*
G37*
G36*
X159045154Y-61694991D02*
G01*
X159100605Y-61833983D01*
X159115662Y-61948429D01*
X159105674Y-62152016D01*
X159043966Y-62274183D01*
X158931429Y-62314667D01*
X158828664Y-62279775D01*
X158789406Y-62245854D01*
X158750992Y-62143542D01*
X158743562Y-61995202D01*
X158763308Y-61839289D01*
X158806420Y-61714255D01*
X158846762Y-61666727D01*
X158958275Y-61636867D01*
X159045154Y-61694991D01*
G37*
G36*
X158072639Y-58466279D02*
G01*
X158174611Y-58529714D01*
X158316851Y-58652022D01*
X158470904Y-58801461D01*
X158648696Y-58984224D01*
X158761715Y-59116192D01*
X158817460Y-59210909D01*
X158823428Y-59281921D01*
X158787117Y-59342773D01*
X158776610Y-59353753D01*
X158700487Y-59402225D01*
X158613402Y-59392939D01*
X158501848Y-59319271D01*
X158352320Y-59174596D01*
X158302476Y-59121187D01*
X158166808Y-58981583D01*
X158045750Y-58870856D01*
X157961209Y-58808707D01*
X157948958Y-58803264D01*
X157882589Y-58739695D01*
X157867683Y-58636043D01*
X157898768Y-58530464D01*
X157970370Y-58461113D01*
X157999190Y-58453040D01*
X158072639Y-58466279D01*
G37*
G36*
X157615438Y-56778214D02*
G01*
X157672845Y-56882347D01*
X157675345Y-56909798D01*
X157675759Y-56989458D01*
X157675855Y-57149439D01*
X157675651Y-57373303D01*
X157675161Y-57644608D01*
X157674405Y-57946914D01*
X157674226Y-58008762D01*
X157672392Y-58347854D01*
X157668501Y-58602976D01*
X157661535Y-58786914D01*
X157650477Y-58912456D01*
X157634313Y-58992388D01*
X157612024Y-59039496D01*
X157590586Y-59061048D01*
X157508458Y-59111967D01*
X157439345Y-59105529D01*
X157371143Y-59069268D01*
X157343832Y-59045833D01*
X157323066Y-59003460D01*
X157307966Y-58930096D01*
X157297648Y-58813684D01*
X157291232Y-58642170D01*
X157287836Y-58403499D01*
X157286579Y-58085616D01*
X157286476Y-57911298D01*
X157286854Y-57555605D01*
X157288665Y-57284458D01*
X157292928Y-57085643D01*
X157300661Y-56946946D01*
X157312884Y-56856151D01*
X157330615Y-56801045D01*
X157354871Y-56769413D01*
X157383238Y-56750857D01*
X157507645Y-56728259D01*
X157615438Y-56778214D01*
G37*
G36*
X161580430Y-57879152D02*
G01*
X161706863Y-57935917D01*
X161767065Y-57985293D01*
X161869591Y-58057345D01*
X161988911Y-58084616D01*
X162150196Y-58068819D01*
X162335093Y-58023912D01*
X162392899Y-58018995D01*
X162406722Y-58065181D01*
X162390820Y-58161184D01*
X162333450Y-58357721D01*
X162249978Y-58474957D01*
X162121804Y-58530060D01*
X161979429Y-58540953D01*
X161825091Y-58532821D01*
X161732181Y-58499678D01*
X161666100Y-58428403D01*
X161660504Y-58420000D01*
X161548748Y-58318576D01*
X161410853Y-58309372D01*
X161307848Y-58355064D01*
X161187645Y-58394381D01*
X161103295Y-58347109D01*
X161062674Y-58219289D01*
X161060191Y-58165100D01*
X161078026Y-58005632D01*
X161142980Y-57912415D01*
X161272225Y-57870481D01*
X161406041Y-57863619D01*
X161580430Y-57879152D01*
G37*
G36*
X163038041Y-57025434D02*
G01*
X163147198Y-57115342D01*
X163296361Y-57250325D01*
X163471816Y-57418221D01*
X163553497Y-57499074D01*
X163749829Y-57696709D01*
X163887529Y-57841184D01*
X163976974Y-57947171D01*
X164028536Y-58029343D01*
X164052591Y-58102371D01*
X164059513Y-58180926D01*
X164059810Y-58215113D01*
X164036066Y-58405450D01*
X163964115Y-58513098D01*
X163866286Y-58540953D01*
X163764699Y-58508675D01*
X163730819Y-58482895D01*
X163690823Y-58397171D01*
X163672839Y-58268266D01*
X163672762Y-58259655D01*
X163664820Y-58181888D01*
X163633404Y-58104068D01*
X163567135Y-58010787D01*
X163454631Y-57886633D01*
X163284511Y-57716198D01*
X163237334Y-57670095D01*
X163071453Y-57503238D01*
X162934675Y-57355773D01*
X162840429Y-57242902D01*
X162802148Y-57179827D01*
X162801905Y-57177298D01*
X162841858Y-57074112D01*
X162933333Y-57002856D01*
X162982602Y-56992762D01*
X163038041Y-57025434D01*
G37*
G36*
X156154580Y-51235994D02*
G01*
X156164038Y-51245105D01*
X156211698Y-51317449D01*
X156205557Y-51399512D01*
X156138635Y-51505542D01*
X156003954Y-51649788D01*
X155931810Y-51719238D01*
X155784187Y-51864575D01*
X155696366Y-51970675D01*
X155653718Y-52060133D01*
X155641618Y-52155546D01*
X155641524Y-52167676D01*
X155620916Y-52308314D01*
X155541971Y-52409933D01*
X155496381Y-52444953D01*
X155413856Y-52512745D01*
X155370362Y-52586800D01*
X155353622Y-52699859D01*
X155351238Y-52832000D01*
X155355858Y-52996594D01*
X155377900Y-53097303D01*
X155429645Y-53166868D01*
X155496381Y-53219048D01*
X155601499Y-53318593D01*
X155639391Y-53440175D01*
X155641524Y-53496325D01*
X155651097Y-53593826D01*
X155689569Y-53682826D01*
X155771565Y-53785919D01*
X155911713Y-53925701D01*
X155931810Y-53944762D01*
X156094714Y-54107709D01*
X156187147Y-54226902D01*
X156216087Y-54316589D01*
X156188512Y-54391018D01*
X156164038Y-54418895D01*
X156097870Y-54463034D01*
X156020878Y-54460645D01*
X155920174Y-54404676D01*
X155782870Y-54288074D01*
X155605238Y-54113137D01*
X155442358Y-53942614D01*
X155338312Y-53819109D01*
X155280745Y-53724104D01*
X155257304Y-53639082D01*
X155254476Y-53587384D01*
X155232353Y-53448856D01*
X155149255Y-53346179D01*
X155109334Y-53315810D01*
X155036543Y-53258831D01*
X154993335Y-53199169D01*
X154972010Y-53111162D01*
X154964871Y-52969149D01*
X154964191Y-52832000D01*
X154966154Y-52639799D01*
X154977178Y-52518689D01*
X155004959Y-52443009D01*
X155057197Y-52387099D01*
X155109334Y-52348191D01*
X155215239Y-52247165D01*
X155252788Y-52124166D01*
X155254476Y-52076460D01*
X155263444Y-51990133D01*
X155298592Y-51905275D01*
X155372289Y-51803742D01*
X155496905Y-51667388D01*
X155614993Y-51547564D01*
X155797032Y-51370571D01*
X155928404Y-51258413D01*
X156022715Y-51203595D01*
X156093571Y-51198620D01*
X156154580Y-51235994D01*
G37*
G36*
X157563450Y-53568625D02*
G01*
X157688180Y-53671396D01*
X157861467Y-53837838D01*
X157893579Y-53869850D01*
X158070572Y-54051889D01*
X158182730Y-54183261D01*
X158237548Y-54277572D01*
X158242523Y-54348428D01*
X158205149Y-54409437D01*
X158196038Y-54418895D01*
X158129870Y-54463034D01*
X158052878Y-54460645D01*
X157952174Y-54404676D01*
X157814870Y-54288074D01*
X157637238Y-54113137D01*
X157463550Y-53930937D01*
X157354191Y-53799802D01*
X157301733Y-53705882D01*
X157298750Y-53635329D01*
X157337813Y-53574294D01*
X157344534Y-53567391D01*
X157405233Y-53524118D01*
X157473670Y-53522031D01*
X157563450Y-53568625D01*
G37*
G36*
X159328529Y-53722603D02*
G01*
X159370140Y-53620187D01*
X159460483Y-53507030D01*
X159532371Y-53432943D01*
X159664188Y-53310532D01*
X159767960Y-53245749D01*
X159877018Y-53221417D01*
X159947429Y-53219048D01*
X160072555Y-53229050D01*
X160174938Y-53270506D01*
X160287910Y-53360594D01*
X160362486Y-53432943D01*
X160484897Y-53564759D01*
X160549680Y-53668531D01*
X160574012Y-53777589D01*
X160576381Y-53848000D01*
X160566379Y-53973126D01*
X160524923Y-54075509D01*
X160434835Y-54188482D01*
X160362486Y-54263058D01*
X160232912Y-54384147D01*
X160132041Y-54448275D01*
X160026055Y-54472335D01*
X159939153Y-54474496D01*
X159809299Y-54463516D01*
X159706757Y-54422263D01*
X159596808Y-54332811D01*
X159524095Y-54260176D01*
X159404332Y-54126160D01*
X159342042Y-54018880D01*
X159319938Y-53903646D01*
X159318487Y-53848000D01*
X159705524Y-53848000D01*
X159740387Y-53995595D01*
X159844082Y-54075225D01*
X159947429Y-54089905D01*
X160065414Y-54068784D01*
X160131276Y-54031848D01*
X160175983Y-53941379D01*
X160189334Y-53848000D01*
X160168212Y-53730015D01*
X160131276Y-53664153D01*
X160040807Y-53619446D01*
X159947429Y-53606095D01*
X159829444Y-53627217D01*
X159763581Y-53664153D01*
X159718875Y-53754622D01*
X159705524Y-53848000D01*
X159318487Y-53848000D01*
X159318476Y-53847575D01*
X159328529Y-53722603D01*
G37*
G36*
X163145326Y-51490725D02*
G01*
X163316802Y-51503959D01*
X163404796Y-51525463D01*
X163412364Y-51530443D01*
X163456227Y-51616796D01*
X163478040Y-51768442D01*
X163479238Y-51818630D01*
X163470932Y-51969602D01*
X163434676Y-52063803D01*
X163353466Y-52140602D01*
X163334095Y-52154667D01*
X163257017Y-52216247D01*
X163213508Y-52281863D01*
X163194032Y-52380127D01*
X163189051Y-52539653D01*
X163188953Y-52590095D01*
X163186026Y-52768531D01*
X163170888Y-52878854D01*
X163134001Y-52949680D01*
X163065826Y-53009622D01*
X163043810Y-53025524D01*
X162964971Y-53089064D01*
X162921419Y-53157291D01*
X162902779Y-53260108D01*
X162898678Y-53427418D01*
X162898667Y-53443876D01*
X162895355Y-53617345D01*
X162875277Y-53731678D01*
X162823223Y-53824486D01*
X162723982Y-53933381D01*
X162684772Y-53972772D01*
X162535538Y-54109508D01*
X162426639Y-54174175D01*
X162341665Y-54173083D01*
X162279391Y-54128610D01*
X162224232Y-54018901D01*
X162261422Y-53900919D01*
X162366476Y-53799619D01*
X162443555Y-53738039D01*
X162487064Y-53672423D01*
X162506540Y-53574159D01*
X162511521Y-53414633D01*
X162511619Y-53364191D01*
X162514546Y-53185756D01*
X162529684Y-53075432D01*
X162566571Y-53004606D01*
X162634746Y-52944664D01*
X162656762Y-52928762D01*
X162733418Y-52867646D01*
X162776909Y-52802643D01*
X162796579Y-52705443D01*
X162801773Y-52547735D01*
X162801905Y-52489002D01*
X162804635Y-52310189D01*
X162818037Y-52203131D01*
X162849925Y-52142861D01*
X162908117Y-52104413D01*
X162924744Y-52096623D01*
X163012115Y-52030020D01*
X163033045Y-51964613D01*
X163012195Y-51932613D01*
X162954149Y-51908930D01*
X162844503Y-51891381D01*
X162668858Y-51877788D01*
X162412810Y-51865969D01*
X162371049Y-51864381D01*
X162102082Y-51852613D01*
X161914001Y-51839181D01*
X161790934Y-51821618D01*
X161717008Y-51797460D01*
X161676351Y-51764240D01*
X161670328Y-51755524D01*
X161642984Y-51651248D01*
X161670412Y-51586191D01*
X161700503Y-51554519D01*
X161754430Y-51531184D01*
X161846434Y-51514571D01*
X161990759Y-51503066D01*
X162201644Y-51495055D01*
X162493334Y-51488922D01*
X162534624Y-51488233D01*
X162886042Y-51485552D01*
X163145326Y-51490725D01*
G37*
G36*
X156467282Y-51588187D02*
G01*
X156557626Y-51475030D01*
X156629514Y-51400943D01*
X156750145Y-51288701D01*
X156849425Y-51211247D01*
X156899429Y-51187048D01*
X156960856Y-51219079D01*
X157064479Y-51302416D01*
X157169344Y-51400943D01*
X157291754Y-51532759D01*
X157356537Y-51636531D01*
X157380869Y-51745589D01*
X157383238Y-51816000D01*
X157373237Y-51941126D01*
X157331780Y-52043509D01*
X157241692Y-52156482D01*
X157169344Y-52231058D01*
X157047303Y-52343074D01*
X156944721Y-52419582D01*
X156891153Y-52442496D01*
X156825276Y-52408538D01*
X156719721Y-52322913D01*
X156621238Y-52228176D01*
X156501475Y-52094160D01*
X156439185Y-51986880D01*
X156417081Y-51871646D01*
X156415619Y-51815575D01*
X156417914Y-51787045D01*
X156807620Y-51787045D01*
X156811707Y-51906233D01*
X156823057Y-51944494D01*
X156870783Y-52003262D01*
X156922962Y-51983505D01*
X156961968Y-51900906D01*
X156972000Y-51811968D01*
X156955459Y-51688332D01*
X156903096Y-51646759D01*
X156899429Y-51646667D01*
X156840068Y-51688015D01*
X156807620Y-51787045D01*
X156417914Y-51787045D01*
X156425672Y-51690603D01*
X156467282Y-51588187D01*
G37*
G36*
X159625108Y-46292435D02*
G01*
X159695299Y-46383254D01*
X159705524Y-46431772D01*
X159672251Y-46479470D01*
X159578069Y-46586176D01*
X159431433Y-46743436D01*
X159240799Y-46942795D01*
X159014623Y-47175795D01*
X158761359Y-47433983D01*
X158489463Y-47708902D01*
X158207391Y-47992098D01*
X157923598Y-48275114D01*
X157646539Y-48549495D01*
X157384670Y-48806787D01*
X157146447Y-49038533D01*
X156940325Y-49236277D01*
X156774758Y-49391566D01*
X156658204Y-49495942D01*
X156599116Y-49540951D01*
X156595200Y-49542095D01*
X156507218Y-49510538D01*
X156473676Y-49484038D01*
X156422061Y-49397925D01*
X156415619Y-49362515D01*
X156448892Y-49314817D01*
X156543074Y-49208110D01*
X156689710Y-49050850D01*
X156880344Y-48851492D01*
X157106521Y-48618491D01*
X157359784Y-48360303D01*
X157631680Y-48085384D01*
X157913752Y-47802188D01*
X158197546Y-47519172D01*
X158474604Y-47244791D01*
X158736473Y-46987499D01*
X158974696Y-46755754D01*
X159180819Y-46558009D01*
X159346385Y-46402720D01*
X159462939Y-46298344D01*
X159522027Y-46253335D01*
X159525943Y-46252191D01*
X159625108Y-46292435D01*
G37*
G36*
X160975496Y-48596564D02*
G01*
X161077469Y-48660000D01*
X161219708Y-48782308D01*
X161373762Y-48931746D01*
X161551553Y-49114510D01*
X161664572Y-49246477D01*
X161720317Y-49341194D01*
X161726285Y-49412206D01*
X161689974Y-49473059D01*
X161679467Y-49484038D01*
X161603345Y-49532510D01*
X161516259Y-49523225D01*
X161404705Y-49449557D01*
X161255177Y-49304882D01*
X161205334Y-49251473D01*
X161069665Y-49111868D01*
X160948607Y-49001142D01*
X160864066Y-48938993D01*
X160851815Y-48933549D01*
X160785446Y-48869980D01*
X160770541Y-48766328D01*
X160801625Y-48660749D01*
X160873228Y-48591399D01*
X160902047Y-48583325D01*
X160975496Y-48596564D01*
G37*
G36*
X160518295Y-46908500D02*
G01*
X160575702Y-47012633D01*
X160578203Y-47040083D01*
X160578616Y-47119744D01*
X160578713Y-47279725D01*
X160578508Y-47503588D01*
X160578019Y-47774893D01*
X160577262Y-48077200D01*
X160577083Y-48139048D01*
X160575250Y-48478139D01*
X160571358Y-48733261D01*
X160564392Y-48917200D01*
X160553334Y-49042742D01*
X160537170Y-49122674D01*
X160514881Y-49169782D01*
X160493443Y-49191334D01*
X160411315Y-49242253D01*
X160342203Y-49235815D01*
X160274000Y-49199554D01*
X160246689Y-49176118D01*
X160225924Y-49133746D01*
X160210823Y-49060382D01*
X160200505Y-48943970D01*
X160194089Y-48772456D01*
X160190693Y-48533785D01*
X160189436Y-48215901D01*
X160189334Y-48041584D01*
X160189711Y-47685891D01*
X160191522Y-47414744D01*
X160195785Y-47215929D01*
X160203519Y-47077231D01*
X160215741Y-46986437D01*
X160233472Y-46931331D01*
X160257728Y-46899699D01*
X160286095Y-46881143D01*
X160410502Y-46858544D01*
X160518295Y-46908500D01*
G37*
G36*
X163555266Y-47993905D02*
G01*
X163754596Y-48019857D01*
X163873792Y-48098511D01*
X163914634Y-48231067D01*
X163914667Y-48235810D01*
X163872397Y-48372424D01*
X163760043Y-48458380D01*
X163652027Y-48477715D01*
X163571958Y-48487751D01*
X163536365Y-48536073D01*
X163527686Y-48649998D01*
X163527619Y-48671238D01*
X163519505Y-48797849D01*
X163486708Y-48853805D01*
X163430857Y-48864762D01*
X163384885Y-48857486D01*
X163356318Y-48823382D01*
X163341065Y-48744031D01*
X163335033Y-48601018D01*
X163334095Y-48429334D01*
X163334095Y-48235810D01*
X163527619Y-48235810D01*
X163542825Y-48342050D01*
X163599403Y-48379455D01*
X163624381Y-48380953D01*
X163695208Y-48358144D01*
X163720145Y-48273277D01*
X163721143Y-48235810D01*
X163705937Y-48129570D01*
X163649359Y-48092164D01*
X163624381Y-48090667D01*
X163553554Y-48113476D01*
X163528618Y-48198343D01*
X163527619Y-48235810D01*
X163334095Y-48235810D01*
X163334095Y-47993905D01*
X163555266Y-47993905D01*
G37*
G36*
X164495238Y-48477715D02*
G01*
X164498769Y-48639845D01*
X164514278Y-48727452D01*
X164549143Y-48762664D01*
X164592000Y-48768000D01*
X164670618Y-48788261D01*
X164688762Y-48816381D01*
X164644694Y-48842152D01*
X164529572Y-48859623D01*
X164398476Y-48864762D01*
X164243854Y-48857417D01*
X164139025Y-48838230D01*
X164108191Y-48816381D01*
X164148712Y-48777072D01*
X164204953Y-48768000D01*
X164262991Y-48755264D01*
X164291937Y-48701205D01*
X164301300Y-48582048D01*
X164301715Y-48526095D01*
X164296620Y-48381000D01*
X164274997Y-48308635D01*
X164227334Y-48285226D01*
X164204953Y-48284191D01*
X164126335Y-48263930D01*
X164108191Y-48235810D01*
X164151112Y-48205513D01*
X164258334Y-48188662D01*
X164301715Y-48187429D01*
X164495238Y-48187429D01*
X164495238Y-48477715D01*
G37*
G36*
X165269334Y-48380953D02*
G01*
X165271354Y-48573796D01*
X165280658Y-48689372D01*
X165302113Y-48747144D01*
X165340583Y-48766576D01*
X165366095Y-48768000D01*
X165444713Y-48788261D01*
X165462857Y-48816381D01*
X165418789Y-48842152D01*
X165303667Y-48859623D01*
X165172572Y-48864762D01*
X165017949Y-48857417D01*
X164913120Y-48838230D01*
X164882286Y-48816381D01*
X164922807Y-48777072D01*
X164979048Y-48768000D01*
X165029899Y-48758863D01*
X165059031Y-48717659D01*
X165072355Y-48623699D01*
X165075783Y-48456291D01*
X165075810Y-48429334D01*
X165073199Y-48251354D01*
X165061427Y-48149392D01*
X165034581Y-48102757D01*
X164986750Y-48090761D01*
X164979048Y-48090667D01*
X164900430Y-48070406D01*
X164882286Y-48042286D01*
X164925207Y-48011990D01*
X165032430Y-47995139D01*
X165075810Y-47993905D01*
X165269334Y-47993905D01*
X165269334Y-48380953D01*
G37*
G36*
X165714310Y-48269885D02*
G01*
X165725497Y-48256544D01*
X165821490Y-48206954D01*
X165946667Y-48187429D01*
X166105353Y-48217882D01*
X166199616Y-48314355D01*
X166236031Y-48484524D01*
X166236953Y-48526095D01*
X166220998Y-48669781D01*
X166181335Y-48778284D01*
X166167837Y-48795646D01*
X166061880Y-48847393D01*
X165917838Y-48860210D01*
X165782481Y-48834432D01*
X165716857Y-48792392D01*
X165672870Y-48687735D01*
X165658252Y-48536670D01*
X165659218Y-48526095D01*
X165849905Y-48526095D01*
X165854999Y-48671191D01*
X165876623Y-48743556D01*
X165924286Y-48766965D01*
X165946667Y-48768000D01*
X166004705Y-48755264D01*
X166033651Y-48701205D01*
X166043015Y-48582048D01*
X166043429Y-48526095D01*
X166038334Y-48381000D01*
X166016711Y-48308635D01*
X165969048Y-48285226D01*
X165946667Y-48284191D01*
X165888629Y-48296927D01*
X165859683Y-48350986D01*
X165850319Y-48470143D01*
X165849905Y-48526095D01*
X165659218Y-48526095D01*
X165672300Y-48382839D01*
X165714310Y-48269885D01*
G37*
G36*
X166704860Y-48028115D02*
G01*
X166720762Y-48090667D01*
X166743571Y-48161494D01*
X166828438Y-48186431D01*
X166865905Y-48187429D01*
X166967815Y-48201443D01*
X167011037Y-48235208D01*
X167011048Y-48235810D01*
X166969006Y-48269780D01*
X166867711Y-48284187D01*
X166865905Y-48284191D01*
X166779984Y-48289476D01*
X166737138Y-48321971D01*
X166722392Y-48406637D01*
X166720762Y-48526095D01*
X166723933Y-48669297D01*
X166743430Y-48740707D01*
X166794230Y-48765284D01*
X166865905Y-48768000D01*
X166967815Y-48782014D01*
X167011037Y-48815779D01*
X167011048Y-48816381D01*
X166970188Y-48850860D01*
X166871222Y-48862529D01*
X166749568Y-48853396D01*
X166640645Y-48825467D01*
X166587715Y-48792392D01*
X166550401Y-48703752D01*
X166529128Y-48563562D01*
X166527238Y-48507979D01*
X166514304Y-48363590D01*
X166480526Y-48275346D01*
X166466762Y-48264032D01*
X166431183Y-48232259D01*
X166466762Y-48207588D01*
X166517645Y-48141075D01*
X166527238Y-48086635D01*
X166563374Y-48008684D01*
X166624000Y-47993905D01*
X166704860Y-48028115D01*
G37*
G36*
X164479336Y-47931354D02*
G01*
X164495238Y-47993905D01*
X164461028Y-48074764D01*
X164398476Y-48090667D01*
X164317617Y-48056456D01*
X164301715Y-47993905D01*
X164335925Y-47913046D01*
X164398476Y-47897143D01*
X164479336Y-47931354D01*
G37*
G36*
X162539266Y-46445715D02*
G01*
X162738596Y-46471666D01*
X162857792Y-46550321D01*
X162898634Y-46682876D01*
X162898667Y-46687619D01*
X162856397Y-46824234D01*
X162744043Y-46910190D01*
X162636027Y-46929524D01*
X162555958Y-46939560D01*
X162520365Y-46987882D01*
X162511686Y-47101808D01*
X162511619Y-47123048D01*
X162503505Y-47249658D01*
X162470708Y-47305615D01*
X162414857Y-47316572D01*
X162368885Y-47309296D01*
X162340318Y-47275191D01*
X162325065Y-47195840D01*
X162319033Y-47052827D01*
X162318095Y-46881143D01*
X162318095Y-46687619D01*
X162511619Y-46687619D01*
X162526825Y-46793859D01*
X162583403Y-46831265D01*
X162608381Y-46832762D01*
X162679208Y-46809953D01*
X162704145Y-46725086D01*
X162705143Y-46687619D01*
X162689937Y-46581379D01*
X162633359Y-46543974D01*
X162608381Y-46542476D01*
X162537554Y-46565285D01*
X162512618Y-46650152D01*
X162511619Y-46687619D01*
X162318095Y-46687619D01*
X162318095Y-46445715D01*
X162539266Y-46445715D01*
G37*
G36*
X163479238Y-46929524D02*
G01*
X163482769Y-47091654D01*
X163498278Y-47179261D01*
X163533143Y-47214473D01*
X163576000Y-47219810D01*
X163654618Y-47240070D01*
X163672762Y-47268191D01*
X163628694Y-47293961D01*
X163513572Y-47311433D01*
X163382476Y-47316572D01*
X163227854Y-47309227D01*
X163123025Y-47290040D01*
X163092191Y-47268191D01*
X163132712Y-47228882D01*
X163188953Y-47219810D01*
X163246991Y-47207074D01*
X163275937Y-47153015D01*
X163285300Y-47033857D01*
X163285715Y-46977905D01*
X163280620Y-46832809D01*
X163258997Y-46760445D01*
X163211334Y-46737035D01*
X163188953Y-46736000D01*
X163110335Y-46715740D01*
X163092191Y-46687619D01*
X163135112Y-46657323D01*
X163242334Y-46640472D01*
X163285715Y-46639238D01*
X163479238Y-46639238D01*
X163479238Y-46929524D01*
G37*
G36*
X164330866Y-46676108D02*
G01*
X164377742Y-46708354D01*
X164440062Y-46787927D01*
X164418255Y-46825817D01*
X164350095Y-46832762D01*
X164271478Y-46812501D01*
X164253334Y-46784381D01*
X164212812Y-46745072D01*
X164156572Y-46736000D01*
X164098533Y-46748736D01*
X164069588Y-46802795D01*
X164060224Y-46921953D01*
X164059810Y-46977905D01*
X164064904Y-47123000D01*
X164086528Y-47195365D01*
X164134191Y-47218775D01*
X164156572Y-47219810D01*
X164235189Y-47199549D01*
X164253334Y-47171429D01*
X164293855Y-47132120D01*
X164350095Y-47123048D01*
X164433236Y-47137163D01*
X164430702Y-47186007D01*
X164377742Y-47247456D01*
X164271784Y-47299203D01*
X164127742Y-47312019D01*
X163992385Y-47286242D01*
X163926762Y-47244202D01*
X163882775Y-47139544D01*
X163868157Y-46988479D01*
X163882205Y-46834649D01*
X163924215Y-46721694D01*
X163935402Y-46708354D01*
X164046889Y-46653697D01*
X164195184Y-46642949D01*
X164330866Y-46676108D01*
G37*
G36*
X164698310Y-46721694D02*
G01*
X164709497Y-46708354D01*
X164820984Y-46653697D01*
X164969279Y-46642949D01*
X165104961Y-46676108D01*
X165151837Y-46708354D01*
X165195882Y-46798668D01*
X165219620Y-46937428D01*
X165220953Y-46977905D01*
X165204998Y-47121590D01*
X165165335Y-47230094D01*
X165151837Y-47247456D01*
X165045880Y-47299203D01*
X164901838Y-47312019D01*
X164766481Y-47286242D01*
X164700857Y-47244202D01*
X164656870Y-47139544D01*
X164642252Y-46988479D01*
X164643218Y-46977905D01*
X164833905Y-46977905D01*
X164838999Y-47123000D01*
X164860623Y-47195365D01*
X164908286Y-47218775D01*
X164930667Y-47219810D01*
X164988705Y-47207074D01*
X165017651Y-47153015D01*
X165027015Y-47033857D01*
X165027429Y-46977905D01*
X165022334Y-46832809D01*
X165000711Y-46760445D01*
X164953048Y-46737035D01*
X164930667Y-46736000D01*
X164872629Y-46748736D01*
X164843683Y-46802795D01*
X164834319Y-46921953D01*
X164833905Y-46977905D01*
X164643218Y-46977905D01*
X164656300Y-46834649D01*
X164698310Y-46721694D01*
G37*
G36*
X163463336Y-46383163D02*
G01*
X163479238Y-46445715D01*
X163445028Y-46526574D01*
X163382476Y-46542476D01*
X163301617Y-46508266D01*
X163285715Y-46445715D01*
X163319925Y-46364855D01*
X163382476Y-46348953D01*
X163463336Y-46383163D01*
G37*
%TO.C,U1*%
X147140000Y-106340000D02*
X147540000Y-106340000D01*
X119140000Y-127340000D02*
X119540000Y-127340000D01*
X121740000Y-127340000D02*
X122140000Y-127340000D01*
X152240000Y-106340000D02*
X152640000Y-106340000D01*
X167740000Y-120540000D02*
X167740000Y-127340000D01*
X142040000Y-106340000D02*
X142440000Y-106340000D01*
X164940000Y-106340000D02*
X165340000Y-106340000D01*
X119140000Y-106340000D02*
X119540000Y-106340000D01*
X119407000Y-124333000D02*
X116740000Y-124333000D01*
X136940000Y-106340000D02*
X137340000Y-106340000D01*
X116740000Y-127340000D02*
X116740000Y-106340000D01*
X162340000Y-127340000D02*
X162740000Y-127340000D01*
X139540000Y-127340000D02*
X139940000Y-127340000D01*
X164940000Y-127340000D02*
X165340000Y-127340000D01*
X126840000Y-127340000D02*
X127240000Y-127340000D01*
X136940000Y-127340000D02*
X137340000Y-127340000D01*
X139540000Y-106340000D02*
X139940000Y-106340000D01*
X167740000Y-106340000D02*
X167740000Y-113140000D01*
X126840000Y-106340000D02*
X127240000Y-106340000D01*
X149640000Y-127340000D02*
X150040000Y-127340000D01*
X119407000Y-127340000D02*
X119407000Y-124333000D01*
X134440000Y-127340000D02*
X134840000Y-127340000D01*
X147140000Y-127340000D02*
X147540000Y-127340000D01*
X167740000Y-118340000D02*
X167740000Y-117940000D01*
X129340000Y-127340000D02*
X129740000Y-127340000D01*
X121740000Y-106340000D02*
X122140000Y-106340000D01*
X157340000Y-127340000D02*
X157740000Y-127340000D01*
X167740000Y-115740000D02*
X167740000Y-115340000D01*
X129340000Y-106340000D02*
X129740000Y-106340000D01*
X152240000Y-127340000D02*
X152640000Y-127340000D01*
X144540000Y-106340000D02*
X144940000Y-106340000D01*
X131840000Y-127340000D02*
X132240000Y-127340000D01*
X142040000Y-127340000D02*
X142440000Y-127340000D01*
X159840000Y-127340000D02*
X160240000Y-127340000D01*
X154740000Y-127340000D02*
X155140000Y-127340000D01*
X149640000Y-106340000D02*
X150040000Y-106340000D01*
X131840000Y-106340000D02*
X132240000Y-106340000D01*
X159840000Y-106340000D02*
X160240000Y-106340000D01*
X134440000Y-106340000D02*
X134840000Y-106340000D01*
X116740000Y-127340000D02*
X117040000Y-127340000D01*
X162340000Y-106340000D02*
X162740000Y-106340000D01*
X154740000Y-106340000D02*
X155140000Y-106340000D01*
X124240000Y-106340000D02*
X124640000Y-106340000D01*
X144540000Y-127340000D02*
X144940000Y-127340000D01*
X116740000Y-106340000D02*
X117040000Y-106340000D01*
X124240000Y-127340000D02*
X124640000Y-127340000D01*
X157340000Y-106340000D02*
X157740000Y-106340000D01*
%TO.C,P6*%
X179010000Y-120650000D02*
X179010000Y-123250000D01*
X181670000Y-120650000D02*
X181670000Y-123250000D01*
X179010000Y-120650000D02*
X181670000Y-120650000D01*
X180340000Y-118050000D02*
X181670000Y-118050000D01*
X181670000Y-118050000D02*
X181670000Y-119380000D01*
X179010000Y-123250000D02*
X181670000Y-123250000D01*
%TO.C,J7*%
X125790000Y-46930000D02*
X125790000Y-48260000D01*
X123130000Y-49530000D02*
X123130000Y-64830000D01*
X124460000Y-46930000D02*
X125790000Y-46930000D01*
X123130000Y-49530000D02*
X125790000Y-49530000D01*
X125790000Y-49530000D02*
X125790000Y-64830000D01*
X123130000Y-64830000D02*
X125790000Y-64830000D01*
%TO.C,J5*%
X156150000Y-69790000D02*
X157480000Y-69790000D01*
X158750000Y-69790000D02*
X168970000Y-69790000D01*
X158750000Y-72450000D02*
X168970000Y-72450000D01*
X158750000Y-72450000D02*
X158750000Y-69790000D01*
X168970000Y-72450000D02*
X168970000Y-69790000D01*
X156150000Y-71120000D02*
X156150000Y-69790000D01*
%TO.C,J4*%
X120590000Y-71120000D02*
X120590000Y-69790000D01*
X120590000Y-69790000D02*
X121920000Y-69790000D01*
X123190000Y-72450000D02*
X130870000Y-72450000D01*
X123190000Y-72450000D02*
X123190000Y-69790000D01*
X123190000Y-69790000D02*
X130870000Y-69790000D01*
X130870000Y-72450000D02*
X130870000Y-69790000D01*
%TO.C,J2*%
X179010000Y-110430000D02*
X179010000Y-107830000D01*
X181670000Y-113030000D02*
X180340000Y-113030000D01*
X181670000Y-110430000D02*
X179010000Y-110430000D01*
X181670000Y-110430000D02*
X181670000Y-107830000D01*
X181670000Y-107830000D02*
X179010000Y-107830000D01*
X181670000Y-111700000D02*
X181670000Y-113030000D01*
%TD*%
M02*
