M48
; DRILL file {KiCad (6.0.7)} date Sun Sep 25 04:10:55 2022
; FORMAT={-:-/ absolute / inch / decimal}
; #@! TF.CreationDate,2022-09-25T04:10:55-04:00
; #@! TF.GenerationSoftware,Kicad,Pcbnew,(6.0.7)
; #@! TF.FileFunction,Plated,1,2,PTH
FMAT,2
INCH
; #@! TA.AperFunction,Plated,PTH,ViaDrill
T1C0.0157
; #@! TA.AperFunction,Plated,PTH,ComponentDrill
T2C0.0394
; #@! TA.AperFunction,Plated,PTH,ComponentDrill
T3C0.0402
%
G90
G05
T1
X4.165Y-5.26
X4.3915Y-5.195
X4.47Y-3.51
X4.525Y-4.485
X4.75Y-3.3412
X5.175Y-5.57
X6.185Y-5.615
X6.435Y-5.615
T2
X4.4704Y-3.419
X4.48Y-5.71
X4.5704Y-3.419
X4.58Y-5.71
X4.6704Y-3.419
X4.68Y-5.71
X4.7704Y-3.419
X4.8794Y-5.7078
X4.9794Y-5.7078
X5.0794Y-5.7078
X5.2794Y-5.7078
X5.3794Y-5.7078
X5.4212Y-3.419
X5.4794Y-5.7078
X5.5212Y-3.419
X5.6212Y-3.419
X5.6794Y-5.7078
X5.7212Y-3.419
X5.7794Y-5.7078
X5.8212Y-3.419
X5.8794Y-5.7078
X6.0794Y-5.7078
X6.1794Y-5.7078
X6.2794Y-5.7078
X6.411Y-3.2662
X6.411Y-3.3662
X6.411Y-3.4662
X6.411Y-3.5662
X6.411Y-3.6662
X6.415Y-3.935
X6.415Y-4.035
X6.415Y-4.135
X6.415Y-4.235
X6.415Y-4.335
X6.415Y-4.435
X6.415Y-4.535
X6.4858Y-5.834
X6.5858Y-5.834
X6.94Y-4.775
X6.9402Y-5.045
X7.04Y-4.775
X7.0402Y-5.045
T3
X4.17Y-4.65
X4.17Y-5.35
X4.27Y-4.65
X4.27Y-5.35
X4.37Y-4.65
X4.37Y-5.35
X4.47Y-4.65
X4.47Y-5.35
X4.57Y-4.65
X4.57Y-5.35
X4.67Y-4.65
X4.67Y-5.35
X4.77Y-4.65
X4.77Y-5.35
X4.87Y-4.65
X4.87Y-5.35
X4.97Y-4.65
X4.97Y-5.35
X5.07Y-4.65
X5.07Y-5.35
X5.17Y-4.65
X5.17Y-5.35
X5.27Y-4.65
X5.27Y-5.35
X5.37Y-4.65
X5.37Y-5.35
X5.47Y-4.65
X5.47Y-5.35
X5.57Y-4.65
X5.57Y-5.35
X5.67Y-4.65
X5.67Y-5.35
X5.77Y-4.65
X5.77Y-5.35
X5.87Y-4.65
X5.87Y-5.35
X5.97Y-4.65
X5.97Y-5.35
X6.0609Y-4.9
X6.0609Y-5.0
X6.0609Y-5.1
X6.07Y-4.65
X6.07Y-5.35
T0
M30
