%TF.GenerationSoftware,KiCad,Pcbnew,(6.0.7)*%
%TF.CreationDate,2022-09-28T03:26:42-04:00*%
%TF.ProjectId,picopilotv1,7069636f-7069-46c6-9f74-76312e6b6963,rev?*%
%TF.SameCoordinates,Original*%
%TF.FileFunction,Drillmap*%
%TF.FilePolarity,Positive*%
%FSLAX45Y45*%
G04 Gerber Fmt 4.5, Leading zero omitted, Abs format (unit mm)*
G04 Created by KiCad (PCBNEW (6.0.7)) date 2022-09-28 03:26:42*
%MOMM*%
%LPD*%
G01*
G04 APERTURE LIST*
%ADD10C,0.100000*%
%ADD11C,0.200000*%
%ADD12C,0.035000*%
%ADD13C,0.040000*%
%ADD14C,0.050000*%
%ADD15C,0.150000*%
%ADD16C,0.170000*%
G04 APERTURE END LIST*
D10*
X9260000Y-4560000D02*
X14000000Y-4560000D01*
X14000000Y-4560000D02*
X14000000Y-12110000D01*
X14000000Y-12110000D02*
X9260000Y-12110000D01*
X9260000Y-12110000D02*
X9260000Y-4560000D01*
D11*
D12*
X11402188Y-9112500D02*
X11437188Y-9147500D01*
X11437188Y-9112500D02*
X11402188Y-9147500D01*
X11492344Y-9022344D02*
X11527344Y-9057344D01*
X11527344Y-9022344D02*
X11492344Y-9057344D01*
X11492344Y-9202656D02*
X11527344Y-9237656D01*
X11527344Y-9202656D02*
X11492344Y-9237656D01*
X11582500Y-8932188D02*
X11617500Y-8967188D01*
X11617500Y-8932188D02*
X11582500Y-8967188D01*
X11582500Y-9112500D02*
X11617500Y-9147500D01*
X11617500Y-9112500D02*
X11582500Y-9147500D01*
X11582500Y-9292812D02*
X11617500Y-9327812D01*
X11617500Y-9292812D02*
X11582500Y-9327812D01*
X11672656Y-9022344D02*
X11707656Y-9057344D01*
X11707656Y-9022344D02*
X11672656Y-9057344D01*
X11672656Y-9202656D02*
X11707656Y-9237656D01*
X11707656Y-9202656D02*
X11672656Y-9237656D01*
X11762812Y-9112500D02*
X11797812Y-9147500D01*
X11797812Y-9112500D02*
X11762812Y-9147500D01*
D13*
X9550000Y-11570000D02*
G75*
G03*
X9550000Y-11570000I-20000J0D01*
G01*
X9680000Y-10150000D02*
G75*
G03*
X9680000Y-10150000I-20000J0D01*
G01*
X10050000Y-11630000D02*
G75*
G03*
X10050000Y-11630000I-20000J0D01*
G01*
X10080000Y-6980000D02*
G75*
G03*
X10080000Y-6980000I-20000J0D01*
G01*
X10080000Y-7490000D02*
G75*
G03*
X10080000Y-7490000I-20000J0D01*
G01*
X10279950Y-7110000D02*
G75*
G03*
X10279950Y-7110000I-20000J0D01*
G01*
X10336741Y-7493259D02*
G75*
G03*
X10336741Y-7493259I-20000J0D01*
G01*
X10460518Y-7617035D02*
G75*
G03*
X10460518Y-7617035I-20000J0D01*
G01*
X10670000Y-10560000D02*
G75*
G03*
X10670000Y-10560000I-20000J0D01*
G01*
X10770000Y-8770000D02*
G75*
G03*
X10770000Y-8770000I-20000J0D01*
G01*
X10810000Y-6370000D02*
G75*
G03*
X10810000Y-6370000I-20000J0D01*
G01*
X10850000Y-8570050D02*
G75*
G03*
X10850000Y-8570050I-20000J0D01*
G01*
X10850000Y-8670000D02*
G75*
G03*
X10850000Y-8670000I-20000J0D01*
G01*
X10960000Y-8570000D02*
G75*
G03*
X10960000Y-8570000I-20000J0D01*
G01*
X11031143Y-8640208D02*
G75*
G03*
X11031143Y-8640208I-20000J0D01*
G01*
X11110585Y-8579554D02*
G75*
G03*
X11110585Y-8579554I-20000J0D01*
G01*
X11170000Y-10610000D02*
G75*
G03*
X11170000Y-10610000I-20000J0D01*
G01*
X11178899Y-9358899D02*
G75*
G03*
X11178899Y-9358899I-20000J0D01*
G01*
X11195320Y-8634680D02*
G75*
G03*
X11195320Y-8634680I-20000J0D01*
G01*
X11288604Y-8671396D02*
G75*
G03*
X11288604Y-8671396I-20000J0D01*
G01*
X11300000Y-11520000D02*
G75*
G03*
X11300000Y-11520000I-20000J0D01*
G01*
X11340000Y-10960000D02*
G75*
G03*
X11340000Y-10960000I-20000J0D01*
G01*
X11409472Y-9029472D02*
G75*
G03*
X11409472Y-9029472I-20000J0D01*
G01*
X11450000Y-11010000D02*
G75*
G03*
X11450000Y-11010000I-20000J0D01*
G01*
X11455026Y-8554974D02*
G75*
G03*
X11455026Y-8554974I-20000J0D01*
G01*
X11460000Y-9290000D02*
G75*
G03*
X11460000Y-9290000I-20000J0D01*
G01*
X11484955Y-11252745D02*
G75*
G03*
X11484955Y-11252745I-20000J0D01*
G01*
X11490000Y-5340000D02*
G75*
G03*
X11490000Y-5340000I-20000J0D01*
G01*
X11490000Y-5460000D02*
G75*
G03*
X11490000Y-5460000I-20000J0D01*
G01*
X11560000Y-10360000D02*
G75*
G03*
X11560000Y-10360000I-20000J0D01*
G01*
X11621851Y-9469773D02*
G75*
G03*
X11621851Y-9469773I-20000J0D01*
G01*
X11630000Y-11480000D02*
G75*
G03*
X11630000Y-11480000I-20000J0D01*
G01*
X11640000Y-10440000D02*
G75*
G03*
X11640000Y-10440000I-20000J0D01*
G01*
X11640000Y-11000000D02*
G75*
G03*
X11640000Y-11000000I-20000J0D01*
G01*
X11780000Y-8960000D02*
G75*
G03*
X11780000Y-8960000I-20000J0D01*
G01*
X11840000Y-10100000D02*
G75*
G03*
X11840000Y-10100000I-20000J0D01*
G01*
X11900000Y-10180000D02*
G75*
G03*
X11900000Y-10180000I-20000J0D01*
G01*
X11950000Y-7470000D02*
G75*
G03*
X11950000Y-7470000I-20000J0D01*
G01*
X11990000Y-7780000D02*
G75*
G03*
X11990000Y-7780000I-20000J0D01*
G01*
X12210000Y-4880000D02*
G75*
G03*
X12210000Y-4880000I-20000J0D01*
G01*
X12220000Y-8630000D02*
G75*
G03*
X12220000Y-8630000I-20000J0D01*
G01*
X12310000Y-8870000D02*
G75*
G03*
X12310000Y-8870000I-20000J0D01*
G01*
X12400000Y-11080000D02*
G75*
G03*
X12400000Y-11080000I-20000J0D01*
G01*
X12409950Y-8870000D02*
G75*
G03*
X12409950Y-8870000I-20000J0D01*
G01*
X12710000Y-7880000D02*
G75*
G03*
X12710000Y-7880000I-20000J0D01*
G01*
X13310000Y-11820000D02*
G75*
G03*
X13310000Y-11820000I-20000J0D01*
G01*
X10990000Y-11269000D02*
X10990000Y-11309000D01*
X10970000Y-11289000D02*
X11010000Y-11289000D01*
X11030000Y-11339000D02*
X11030000Y-11379000D01*
X11010000Y-11359000D02*
X11050000Y-11359000D01*
X11110000Y-11339000D02*
X11110000Y-11379000D01*
X11090000Y-11359000D02*
X11130000Y-11359000D01*
X11150000Y-11269000D02*
X11150000Y-11309000D01*
X11130000Y-11289000D02*
X11170000Y-11289000D01*
X11190000Y-11339000D02*
X11190000Y-11379000D01*
X11170000Y-11359000D02*
X11210000Y-11359000D01*
X11230000Y-11269000D02*
X11230000Y-11309000D01*
X11210000Y-11289000D02*
X11250000Y-11289000D01*
X11310000Y-11269000D02*
X11310000Y-11309000D01*
X11290000Y-11289000D02*
X11330000Y-11289000D01*
X11350000Y-11339000D02*
X11350000Y-11379000D01*
X11330000Y-11359000D02*
X11370000Y-11359000D01*
X11390000Y-11269000D02*
X11390000Y-11309000D01*
X11370000Y-11289000D02*
X11410000Y-11289000D01*
X11430000Y-11339000D02*
X11430000Y-11379000D01*
X11410000Y-11359000D02*
X11450000Y-11359000D01*
X11510000Y-11339000D02*
X11510000Y-11379000D01*
X11490000Y-11359000D02*
X11530000Y-11359000D01*
X11550000Y-11269000D02*
X11550000Y-11309000D01*
X11530000Y-11289000D02*
X11570000Y-11289000D01*
D14*
X10838678Y-11961678D02*
X10838678Y-11926322D01*
X10803322Y-11926322D01*
X10803322Y-11961678D01*
X10838678Y-11961678D01*
D11*
X10796000Y-11914000D02*
X10796000Y-11974000D01*
X10846000Y-11914000D02*
X10846000Y-11974000D01*
X10796000Y-11974000D02*
G75*
G03*
X10846000Y-11974000I25000J0D01*
G01*
X10846000Y-11914000D02*
G75*
G03*
X10796000Y-11914000I-25000J0D01*
G01*
D14*
X10874678Y-11366678D02*
X10874678Y-11331322D01*
X10839322Y-11331322D01*
X10839322Y-11366678D01*
X10874678Y-11366678D01*
D11*
X10832000Y-11319000D02*
X10832000Y-11379000D01*
X10882000Y-11319000D02*
X10882000Y-11379000D01*
X10832000Y-11379000D02*
G75*
G03*
X10882000Y-11379000I25000J0D01*
G01*
X10882000Y-11319000D02*
G75*
G03*
X10832000Y-11319000I-25000J0D01*
G01*
D14*
X11700678Y-11366678D02*
X11700678Y-11331322D01*
X11665322Y-11331322D01*
X11665322Y-11366678D01*
X11700678Y-11366678D01*
D11*
X11658000Y-11319000D02*
X11658000Y-11379000D01*
X11708000Y-11319000D02*
X11708000Y-11379000D01*
X11658000Y-11379000D02*
G75*
G03*
X11708000Y-11379000I25000J0D01*
G01*
X11708000Y-11319000D02*
G75*
G03*
X11658000Y-11319000I-25000J0D01*
G01*
D14*
X11736678Y-11961678D02*
X11736678Y-11926322D01*
X11701322Y-11926322D01*
X11701322Y-11961678D01*
X11736678Y-11961678D01*
D11*
X11694000Y-11914000D02*
X11694000Y-11974000D01*
X11744000Y-11914000D02*
X11744000Y-11974000D01*
X11694000Y-11974000D02*
G75*
G03*
X11744000Y-11974000I25000J0D01*
G01*
X11744000Y-11914000D02*
G75*
G03*
X11694000Y-11914000I-25000J0D01*
G01*
D10*
X9578000Y-7982500D02*
X9628000Y-7932500D01*
X9578000Y-7882500D01*
X9528000Y-7932500D01*
X9578000Y-7982500D01*
X9582500Y-6650000D02*
X9632500Y-6600000D01*
X9582500Y-6550000D01*
X9532500Y-6600000D01*
X9582500Y-6650000D01*
X9582500Y-6904000D02*
X9632500Y-6854000D01*
X9582500Y-6804000D01*
X9532500Y-6854000D01*
X9582500Y-6904000D01*
X9582500Y-7158000D02*
X9632500Y-7108000D01*
X9582500Y-7058000D01*
X9532500Y-7108000D01*
X9582500Y-7158000D01*
X9582500Y-7412000D02*
X9632500Y-7362000D01*
X9582500Y-7312000D01*
X9532500Y-7362000D01*
X9582500Y-7412000D01*
X9832000Y-7982500D02*
X9882000Y-7932500D01*
X9832000Y-7882500D01*
X9782000Y-7932500D01*
X9832000Y-7982500D01*
X10086000Y-7982500D02*
X10136000Y-7932500D01*
X10086000Y-7882500D01*
X10036000Y-7932500D01*
X10086000Y-7982500D01*
X10340000Y-7982500D02*
X10390000Y-7932500D01*
X10340000Y-7882500D01*
X10290000Y-7932500D01*
X10340000Y-7982500D01*
X12166000Y-7720000D02*
X12216000Y-7670000D01*
X12166000Y-7620000D01*
X12116000Y-7670000D01*
X12166000Y-7720000D01*
X12420000Y-7720000D02*
X12470000Y-7670000D01*
X12420000Y-7620000D01*
X12370000Y-7670000D01*
X12420000Y-7720000D01*
X12570000Y-11130000D02*
X12620000Y-11080000D01*
X12570000Y-11030000D01*
X12520000Y-11080000D01*
X12570000Y-11130000D01*
X12570000Y-11890000D02*
X12620000Y-11840000D01*
X12570000Y-11790000D01*
X12520000Y-11840000D01*
X12570000Y-11890000D01*
X13582500Y-7367500D02*
X13632500Y-7317500D01*
X13582500Y-7267500D01*
X13532500Y-7317500D01*
X13582500Y-7367500D01*
X13582500Y-7621500D02*
X13632500Y-7571500D01*
X13582500Y-7521500D01*
X13532500Y-7571500D01*
X13582500Y-7621500D01*
X13582500Y-7875500D02*
X13632500Y-7825500D01*
X13582500Y-7775500D01*
X13532500Y-7825500D01*
X13582500Y-7875500D01*
X13582500Y-8367500D02*
X13632500Y-8317500D01*
X13582500Y-8267500D01*
X13532500Y-8317500D01*
X13582500Y-8367500D01*
X13582500Y-8621500D02*
X13632500Y-8571500D01*
X13582500Y-8521500D01*
X13532500Y-8571500D01*
X13582500Y-8621500D01*
X13582500Y-8875500D02*
X13632500Y-8825500D01*
X13582500Y-8775500D01*
X13532500Y-8825500D01*
X13582500Y-8875500D01*
X13582500Y-9367500D02*
X13632500Y-9317500D01*
X13582500Y-9267500D01*
X13532500Y-9317500D01*
X13582500Y-9367500D01*
X13582500Y-9621500D02*
X13632500Y-9571500D01*
X13582500Y-9521500D01*
X13532500Y-9571500D01*
X13582500Y-9621500D01*
X13582500Y-9875500D02*
X13632500Y-9825500D01*
X13582500Y-9775500D01*
X13532500Y-9825500D01*
X13582500Y-9875500D01*
X13582500Y-10367500D02*
X13632500Y-10317500D01*
X13582500Y-10267500D01*
X13532500Y-10317500D01*
X13582500Y-10367500D01*
X13582500Y-10621500D02*
X13632500Y-10571500D01*
X13582500Y-10521500D01*
X13532500Y-10571500D01*
X13582500Y-10621500D01*
X13582500Y-10875500D02*
X13632500Y-10825500D01*
X13582500Y-10775500D01*
X13532500Y-10825500D01*
X13582500Y-10875500D01*
X13582500Y-11367500D02*
X13632500Y-11317500D01*
X13582500Y-11267500D01*
X13532500Y-11317500D01*
X13582500Y-11367500D01*
X13582500Y-11621500D02*
X13632500Y-11571500D01*
X13582500Y-11521500D01*
X13532500Y-11571500D01*
X13582500Y-11621500D01*
X13582500Y-11875500D02*
X13632500Y-11825500D01*
X13582500Y-11775500D01*
X13532500Y-11825500D01*
X13582500Y-11875500D01*
D15*
X9795000Y-4935000D02*
X9945000Y-5085000D01*
X9945000Y-4935000D02*
X9795000Y-5085000D01*
X9945000Y-5010000D02*
G75*
G03*
X9945000Y-5010000I-75000J0D01*
G01*
D16*
X9531000Y-4671000D02*
X9701000Y-4841000D01*
X9701000Y-4671000D02*
X9531000Y-4841000D01*
X9616000Y-4671000D02*
X9616000Y-4841000D01*
X9531000Y-4756000D02*
X9701000Y-4756000D01*
X9531000Y-5179000D02*
X9701000Y-5349000D01*
X9701000Y-5179000D02*
X9531000Y-5349000D01*
X9616000Y-5179000D02*
X9616000Y-5349000D01*
X9531000Y-5264000D02*
X9701000Y-5264000D01*
X10039000Y-4671000D02*
X10209000Y-4841000D01*
X10209000Y-4671000D02*
X10039000Y-4841000D01*
X10124000Y-4671000D02*
X10124000Y-4841000D01*
X10039000Y-4756000D02*
X10209000Y-4756000D01*
X10039000Y-5179000D02*
X10209000Y-5349000D01*
X10209000Y-5179000D02*
X10039000Y-5349000D01*
X10124000Y-5179000D02*
X10124000Y-5349000D01*
X10039000Y-5264000D02*
X10209000Y-5264000D01*
D11*
X9512619Y-12425476D02*
X9512619Y-12225476D01*
X9560238Y-12225476D01*
X9588810Y-12235000D01*
X9607857Y-12254048D01*
X9617381Y-12273095D01*
X9626905Y-12311190D01*
X9626905Y-12339762D01*
X9617381Y-12377857D01*
X9607857Y-12396905D01*
X9588810Y-12415952D01*
X9560238Y-12425476D01*
X9512619Y-12425476D01*
X9712619Y-12425476D02*
X9712619Y-12292143D01*
X9712619Y-12330238D02*
X9722143Y-12311190D01*
X9731667Y-12301667D01*
X9750714Y-12292143D01*
X9769762Y-12292143D01*
X9836429Y-12425476D02*
X9836429Y-12292143D01*
X9836429Y-12225476D02*
X9826905Y-12235000D01*
X9836429Y-12244524D01*
X9845952Y-12235000D01*
X9836429Y-12225476D01*
X9836429Y-12244524D01*
X9960238Y-12425476D02*
X9941190Y-12415952D01*
X9931667Y-12396905D01*
X9931667Y-12225476D01*
X10065000Y-12425476D02*
X10045952Y-12415952D01*
X10036429Y-12396905D01*
X10036429Y-12225476D01*
X10293571Y-12425476D02*
X10293571Y-12225476D01*
X10360238Y-12368333D01*
X10426905Y-12225476D01*
X10426905Y-12425476D01*
X10607857Y-12425476D02*
X10607857Y-12320714D01*
X10598333Y-12301667D01*
X10579286Y-12292143D01*
X10541190Y-12292143D01*
X10522143Y-12301667D01*
X10607857Y-12415952D02*
X10588810Y-12425476D01*
X10541190Y-12425476D01*
X10522143Y-12415952D01*
X10512619Y-12396905D01*
X10512619Y-12377857D01*
X10522143Y-12358809D01*
X10541190Y-12349286D01*
X10588810Y-12349286D01*
X10607857Y-12339762D01*
X10703095Y-12292143D02*
X10703095Y-12492143D01*
X10703095Y-12301667D02*
X10722143Y-12292143D01*
X10760238Y-12292143D01*
X10779286Y-12301667D01*
X10788810Y-12311190D01*
X10798333Y-12330238D01*
X10798333Y-12387381D01*
X10788810Y-12406428D01*
X10779286Y-12415952D01*
X10760238Y-12425476D01*
X10722143Y-12425476D01*
X10703095Y-12415952D01*
X10884048Y-12406428D02*
X10893571Y-12415952D01*
X10884048Y-12425476D01*
X10874524Y-12415952D01*
X10884048Y-12406428D01*
X10884048Y-12425476D01*
X10884048Y-12301667D02*
X10893571Y-12311190D01*
X10884048Y-12320714D01*
X10874524Y-12311190D01*
X10884048Y-12301667D01*
X10884048Y-12320714D01*
D12*
X9220000Y-12737500D02*
X9255000Y-12772500D01*
X9255000Y-12737500D02*
X9220000Y-12772500D01*
D11*
X9550714Y-12645476D02*
X9569762Y-12645476D01*
X9588810Y-12655000D01*
X9598333Y-12664524D01*
X9607857Y-12683571D01*
X9617381Y-12721667D01*
X9617381Y-12769286D01*
X9607857Y-12807381D01*
X9598333Y-12826428D01*
X9588810Y-12835952D01*
X9569762Y-12845476D01*
X9550714Y-12845476D01*
X9531667Y-12835952D01*
X9522143Y-12826428D01*
X9512619Y-12807381D01*
X9503095Y-12769286D01*
X9503095Y-12721667D01*
X9512619Y-12683571D01*
X9522143Y-12664524D01*
X9531667Y-12655000D01*
X9550714Y-12645476D01*
X9703095Y-12826428D02*
X9712619Y-12835952D01*
X9703095Y-12845476D01*
X9693571Y-12835952D01*
X9703095Y-12826428D01*
X9703095Y-12845476D01*
X9779286Y-12645476D02*
X9903095Y-12645476D01*
X9836429Y-12721667D01*
X9865000Y-12721667D01*
X9884048Y-12731190D01*
X9893571Y-12740714D01*
X9903095Y-12759762D01*
X9903095Y-12807381D01*
X9893571Y-12826428D01*
X9884048Y-12835952D01*
X9865000Y-12845476D01*
X9807857Y-12845476D01*
X9788810Y-12835952D01*
X9779286Y-12826428D01*
X10084048Y-12645476D02*
X9988810Y-12645476D01*
X9979286Y-12740714D01*
X9988810Y-12731190D01*
X10007857Y-12721667D01*
X10055476Y-12721667D01*
X10074524Y-12731190D01*
X10084048Y-12740714D01*
X10093571Y-12759762D01*
X10093571Y-12807381D01*
X10084048Y-12826428D01*
X10074524Y-12835952D01*
X10055476Y-12845476D01*
X10007857Y-12845476D01*
X9988810Y-12835952D01*
X9979286Y-12826428D01*
X10217381Y-12645476D02*
X10236429Y-12645476D01*
X10255476Y-12655000D01*
X10265000Y-12664524D01*
X10274524Y-12683571D01*
X10284048Y-12721667D01*
X10284048Y-12769286D01*
X10274524Y-12807381D01*
X10265000Y-12826428D01*
X10255476Y-12835952D01*
X10236429Y-12845476D01*
X10217381Y-12845476D01*
X10198333Y-12835952D01*
X10188810Y-12826428D01*
X10179286Y-12807381D01*
X10169762Y-12769286D01*
X10169762Y-12721667D01*
X10179286Y-12683571D01*
X10188810Y-12664524D01*
X10198333Y-12655000D01*
X10217381Y-12645476D01*
X10369762Y-12845476D02*
X10369762Y-12712143D01*
X10369762Y-12731190D02*
X10379286Y-12721667D01*
X10398333Y-12712143D01*
X10426905Y-12712143D01*
X10445952Y-12721667D01*
X10455476Y-12740714D01*
X10455476Y-12845476D01*
X10455476Y-12740714D02*
X10465000Y-12721667D01*
X10484048Y-12712143D01*
X10512619Y-12712143D01*
X10531667Y-12721667D01*
X10541190Y-12740714D01*
X10541190Y-12845476D01*
X10636429Y-12845476D02*
X10636429Y-12712143D01*
X10636429Y-12731190D02*
X10645952Y-12721667D01*
X10665000Y-12712143D01*
X10693571Y-12712143D01*
X10712619Y-12721667D01*
X10722143Y-12740714D01*
X10722143Y-12845476D01*
X10722143Y-12740714D02*
X10731667Y-12721667D01*
X10750714Y-12712143D01*
X10779286Y-12712143D01*
X10798333Y-12721667D01*
X10807857Y-12740714D01*
X10807857Y-12845476D01*
X11198333Y-12635952D02*
X11026905Y-12893095D01*
X11455476Y-12645476D02*
X11474524Y-12645476D01*
X11493571Y-12655000D01*
X11503095Y-12664524D01*
X11512619Y-12683571D01*
X11522143Y-12721667D01*
X11522143Y-12769286D01*
X11512619Y-12807381D01*
X11503095Y-12826428D01*
X11493571Y-12835952D01*
X11474524Y-12845476D01*
X11455476Y-12845476D01*
X11436428Y-12835952D01*
X11426905Y-12826428D01*
X11417381Y-12807381D01*
X11407857Y-12769286D01*
X11407857Y-12721667D01*
X11417381Y-12683571D01*
X11426905Y-12664524D01*
X11436428Y-12655000D01*
X11455476Y-12645476D01*
X11607857Y-12826428D02*
X11617381Y-12835952D01*
X11607857Y-12845476D01*
X11598333Y-12835952D01*
X11607857Y-12826428D01*
X11607857Y-12845476D01*
X11741190Y-12645476D02*
X11760238Y-12645476D01*
X11779286Y-12655000D01*
X11788809Y-12664524D01*
X11798333Y-12683571D01*
X11807857Y-12721667D01*
X11807857Y-12769286D01*
X11798333Y-12807381D01*
X11788809Y-12826428D01*
X11779286Y-12835952D01*
X11760238Y-12845476D01*
X11741190Y-12845476D01*
X11722143Y-12835952D01*
X11712619Y-12826428D01*
X11703095Y-12807381D01*
X11693571Y-12769286D01*
X11693571Y-12721667D01*
X11703095Y-12683571D01*
X11712619Y-12664524D01*
X11722143Y-12655000D01*
X11741190Y-12645476D01*
X11998333Y-12845476D02*
X11884048Y-12845476D01*
X11941190Y-12845476D02*
X11941190Y-12645476D01*
X11922143Y-12674048D01*
X11903095Y-12693095D01*
X11884048Y-12702619D01*
X12065000Y-12645476D02*
X12188809Y-12645476D01*
X12122143Y-12721667D01*
X12150714Y-12721667D01*
X12169762Y-12731190D01*
X12179286Y-12740714D01*
X12188809Y-12759762D01*
X12188809Y-12807381D01*
X12179286Y-12826428D01*
X12169762Y-12835952D01*
X12150714Y-12845476D01*
X12093571Y-12845476D01*
X12074524Y-12835952D01*
X12065000Y-12826428D01*
X12303095Y-12731190D02*
X12284048Y-12721667D01*
X12274524Y-12712143D01*
X12265000Y-12693095D01*
X12265000Y-12683571D01*
X12274524Y-12664524D01*
X12284048Y-12655000D01*
X12303095Y-12645476D01*
X12341190Y-12645476D01*
X12360238Y-12655000D01*
X12369762Y-12664524D01*
X12379286Y-12683571D01*
X12379286Y-12693095D01*
X12369762Y-12712143D01*
X12360238Y-12721667D01*
X12341190Y-12731190D01*
X12303095Y-12731190D01*
X12284048Y-12740714D01*
X12274524Y-12750238D01*
X12265000Y-12769286D01*
X12265000Y-12807381D01*
X12274524Y-12826428D01*
X12284048Y-12835952D01*
X12303095Y-12845476D01*
X12341190Y-12845476D01*
X12360238Y-12835952D01*
X12369762Y-12826428D01*
X12379286Y-12807381D01*
X12379286Y-12769286D01*
X12369762Y-12750238D01*
X12360238Y-12740714D01*
X12341190Y-12731190D01*
X12455476Y-12645476D02*
X12455476Y-12683571D01*
X12531667Y-12645476D02*
X12531667Y-12683571D01*
X12826905Y-12921667D02*
X12817381Y-12912143D01*
X12798333Y-12883571D01*
X12788809Y-12864524D01*
X12779286Y-12835952D01*
X12769762Y-12788333D01*
X12769762Y-12750238D01*
X12779286Y-12702619D01*
X12788809Y-12674048D01*
X12798333Y-12655000D01*
X12817381Y-12626428D01*
X12826905Y-12616905D01*
X12912619Y-12845476D02*
X12950714Y-12845476D01*
X12969762Y-12835952D01*
X12979286Y-12826428D01*
X12998333Y-12797857D01*
X13007857Y-12759762D01*
X13007857Y-12683571D01*
X12998333Y-12664524D01*
X12988809Y-12655000D01*
X12969762Y-12645476D01*
X12931667Y-12645476D01*
X12912619Y-12655000D01*
X12903095Y-12664524D01*
X12893571Y-12683571D01*
X12893571Y-12731190D01*
X12903095Y-12750238D01*
X12912619Y-12759762D01*
X12931667Y-12769286D01*
X12969762Y-12769286D01*
X12988809Y-12759762D01*
X12998333Y-12750238D01*
X13007857Y-12731190D01*
X13245952Y-12845476D02*
X13245952Y-12645476D01*
X13331667Y-12845476D02*
X13331667Y-12740714D01*
X13322143Y-12721667D01*
X13303095Y-12712143D01*
X13274524Y-12712143D01*
X13255476Y-12721667D01*
X13245952Y-12731190D01*
X13455476Y-12845476D02*
X13436428Y-12835952D01*
X13426905Y-12826428D01*
X13417381Y-12807381D01*
X13417381Y-12750238D01*
X13426905Y-12731190D01*
X13436428Y-12721667D01*
X13455476Y-12712143D01*
X13484048Y-12712143D01*
X13503095Y-12721667D01*
X13512619Y-12731190D01*
X13522143Y-12750238D01*
X13522143Y-12807381D01*
X13512619Y-12826428D01*
X13503095Y-12835952D01*
X13484048Y-12845476D01*
X13455476Y-12845476D01*
X13636428Y-12845476D02*
X13617381Y-12835952D01*
X13607857Y-12816905D01*
X13607857Y-12645476D01*
X13788809Y-12835952D02*
X13769762Y-12845476D01*
X13731667Y-12845476D01*
X13712619Y-12835952D01*
X13703095Y-12816905D01*
X13703095Y-12740714D01*
X13712619Y-12721667D01*
X13731667Y-12712143D01*
X13769762Y-12712143D01*
X13788809Y-12721667D01*
X13798333Y-12740714D01*
X13798333Y-12759762D01*
X13703095Y-12778809D01*
X13874524Y-12835952D02*
X13893571Y-12845476D01*
X13931667Y-12845476D01*
X13950714Y-12835952D01*
X13960238Y-12816905D01*
X13960238Y-12807381D01*
X13950714Y-12788333D01*
X13931667Y-12778809D01*
X13903095Y-12778809D01*
X13884048Y-12769286D01*
X13874524Y-12750238D01*
X13874524Y-12740714D01*
X13884048Y-12721667D01*
X13903095Y-12712143D01*
X13931667Y-12712143D01*
X13950714Y-12721667D01*
X14026905Y-12921667D02*
X14036428Y-12912143D01*
X14055476Y-12883571D01*
X14065000Y-12864524D01*
X14074524Y-12835952D01*
X14084048Y-12788333D01*
X14084048Y-12750238D01*
X14074524Y-12702619D01*
X14065000Y-12674048D01*
X14055476Y-12655000D01*
X14036428Y-12626428D01*
X14026905Y-12616905D01*
D13*
X9255000Y-13019000D02*
G75*
G03*
X9255000Y-13019000I-20000J0D01*
G01*
D11*
X9550714Y-12909476D02*
X9569762Y-12909476D01*
X9588810Y-12919000D01*
X9598333Y-12928524D01*
X9607857Y-12947571D01*
X9617381Y-12985667D01*
X9617381Y-13033286D01*
X9607857Y-13071381D01*
X9598333Y-13090428D01*
X9588810Y-13099952D01*
X9569762Y-13109476D01*
X9550714Y-13109476D01*
X9531667Y-13099952D01*
X9522143Y-13090428D01*
X9512619Y-13071381D01*
X9503095Y-13033286D01*
X9503095Y-12985667D01*
X9512619Y-12947571D01*
X9522143Y-12928524D01*
X9531667Y-12919000D01*
X9550714Y-12909476D01*
X9703095Y-13090428D02*
X9712619Y-13099952D01*
X9703095Y-13109476D01*
X9693571Y-13099952D01*
X9703095Y-13090428D01*
X9703095Y-13109476D01*
X9884048Y-12976143D02*
X9884048Y-13109476D01*
X9836429Y-12899952D02*
X9788810Y-13042809D01*
X9912619Y-13042809D01*
X10026905Y-12909476D02*
X10045952Y-12909476D01*
X10065000Y-12919000D01*
X10074524Y-12928524D01*
X10084048Y-12947571D01*
X10093571Y-12985667D01*
X10093571Y-13033286D01*
X10084048Y-13071381D01*
X10074524Y-13090428D01*
X10065000Y-13099952D01*
X10045952Y-13109476D01*
X10026905Y-13109476D01*
X10007857Y-13099952D01*
X9998333Y-13090428D01*
X9988810Y-13071381D01*
X9979286Y-13033286D01*
X9979286Y-12985667D01*
X9988810Y-12947571D01*
X9998333Y-12928524D01*
X10007857Y-12919000D01*
X10026905Y-12909476D01*
X10217381Y-12909476D02*
X10236429Y-12909476D01*
X10255476Y-12919000D01*
X10265000Y-12928524D01*
X10274524Y-12947571D01*
X10284048Y-12985667D01*
X10284048Y-13033286D01*
X10274524Y-13071381D01*
X10265000Y-13090428D01*
X10255476Y-13099952D01*
X10236429Y-13109476D01*
X10217381Y-13109476D01*
X10198333Y-13099952D01*
X10188810Y-13090428D01*
X10179286Y-13071381D01*
X10169762Y-13033286D01*
X10169762Y-12985667D01*
X10179286Y-12947571D01*
X10188810Y-12928524D01*
X10198333Y-12919000D01*
X10217381Y-12909476D01*
X10369762Y-13109476D02*
X10369762Y-12976143D01*
X10369762Y-12995190D02*
X10379286Y-12985667D01*
X10398333Y-12976143D01*
X10426905Y-12976143D01*
X10445952Y-12985667D01*
X10455476Y-13004714D01*
X10455476Y-13109476D01*
X10455476Y-13004714D02*
X10465000Y-12985667D01*
X10484048Y-12976143D01*
X10512619Y-12976143D01*
X10531667Y-12985667D01*
X10541190Y-13004714D01*
X10541190Y-13109476D01*
X10636429Y-13109476D02*
X10636429Y-12976143D01*
X10636429Y-12995190D02*
X10645952Y-12985667D01*
X10665000Y-12976143D01*
X10693571Y-12976143D01*
X10712619Y-12985667D01*
X10722143Y-13004714D01*
X10722143Y-13109476D01*
X10722143Y-13004714D02*
X10731667Y-12985667D01*
X10750714Y-12976143D01*
X10779286Y-12976143D01*
X10798333Y-12985667D01*
X10807857Y-13004714D01*
X10807857Y-13109476D01*
X11198333Y-12899952D02*
X11026905Y-13157095D01*
X11455476Y-12909476D02*
X11474524Y-12909476D01*
X11493571Y-12919000D01*
X11503095Y-12928524D01*
X11512619Y-12947571D01*
X11522143Y-12985667D01*
X11522143Y-13033286D01*
X11512619Y-13071381D01*
X11503095Y-13090428D01*
X11493571Y-13099952D01*
X11474524Y-13109476D01*
X11455476Y-13109476D01*
X11436428Y-13099952D01*
X11426905Y-13090428D01*
X11417381Y-13071381D01*
X11407857Y-13033286D01*
X11407857Y-12985667D01*
X11417381Y-12947571D01*
X11426905Y-12928524D01*
X11436428Y-12919000D01*
X11455476Y-12909476D01*
X11607857Y-13090428D02*
X11617381Y-13099952D01*
X11607857Y-13109476D01*
X11598333Y-13099952D01*
X11607857Y-13090428D01*
X11607857Y-13109476D01*
X11741190Y-12909476D02*
X11760238Y-12909476D01*
X11779286Y-12919000D01*
X11788809Y-12928524D01*
X11798333Y-12947571D01*
X11807857Y-12985667D01*
X11807857Y-13033286D01*
X11798333Y-13071381D01*
X11788809Y-13090428D01*
X11779286Y-13099952D01*
X11760238Y-13109476D01*
X11741190Y-13109476D01*
X11722143Y-13099952D01*
X11712619Y-13090428D01*
X11703095Y-13071381D01*
X11693571Y-13033286D01*
X11693571Y-12985667D01*
X11703095Y-12947571D01*
X11712619Y-12928524D01*
X11722143Y-12919000D01*
X11741190Y-12909476D01*
X11998333Y-13109476D02*
X11884048Y-13109476D01*
X11941190Y-13109476D02*
X11941190Y-12909476D01*
X11922143Y-12938048D01*
X11903095Y-12957095D01*
X11884048Y-12966619D01*
X12179286Y-12909476D02*
X12084048Y-12909476D01*
X12074524Y-13004714D01*
X12084048Y-12995190D01*
X12103095Y-12985667D01*
X12150714Y-12985667D01*
X12169762Y-12995190D01*
X12179286Y-13004714D01*
X12188809Y-13023762D01*
X12188809Y-13071381D01*
X12179286Y-13090428D01*
X12169762Y-13099952D01*
X12150714Y-13109476D01*
X12103095Y-13109476D01*
X12084048Y-13099952D01*
X12074524Y-13090428D01*
X12255476Y-12909476D02*
X12388809Y-12909476D01*
X12303095Y-13109476D01*
X12455476Y-12909476D02*
X12455476Y-12947571D01*
X12531667Y-12909476D02*
X12531667Y-12947571D01*
X12826905Y-13185667D02*
X12817381Y-13176143D01*
X12798333Y-13147571D01*
X12788809Y-13128524D01*
X12779286Y-13099952D01*
X12769762Y-13052333D01*
X12769762Y-13014238D01*
X12779286Y-12966619D01*
X12788809Y-12938048D01*
X12798333Y-12919000D01*
X12817381Y-12890428D01*
X12826905Y-12880905D01*
X12988809Y-12976143D02*
X12988809Y-13109476D01*
X12941190Y-12899952D02*
X12893571Y-13042809D01*
X13017381Y-13042809D01*
X13179286Y-12909476D02*
X13141190Y-12909476D01*
X13122143Y-12919000D01*
X13112619Y-12928524D01*
X13093571Y-12957095D01*
X13084048Y-12995190D01*
X13084048Y-13071381D01*
X13093571Y-13090428D01*
X13103095Y-13099952D01*
X13122143Y-13109476D01*
X13160238Y-13109476D01*
X13179286Y-13099952D01*
X13188809Y-13090428D01*
X13198333Y-13071381D01*
X13198333Y-13023762D01*
X13188809Y-13004714D01*
X13179286Y-12995190D01*
X13160238Y-12985667D01*
X13122143Y-12985667D01*
X13103095Y-12995190D01*
X13093571Y-13004714D01*
X13084048Y-13023762D01*
X13436428Y-13109476D02*
X13436428Y-12909476D01*
X13522143Y-13109476D02*
X13522143Y-13004714D01*
X13512619Y-12985667D01*
X13493571Y-12976143D01*
X13465000Y-12976143D01*
X13445952Y-12985667D01*
X13436428Y-12995190D01*
X13645952Y-13109476D02*
X13626905Y-13099952D01*
X13617381Y-13090428D01*
X13607857Y-13071381D01*
X13607857Y-13014238D01*
X13617381Y-12995190D01*
X13626905Y-12985667D01*
X13645952Y-12976143D01*
X13674524Y-12976143D01*
X13693571Y-12985667D01*
X13703095Y-12995190D01*
X13712619Y-13014238D01*
X13712619Y-13071381D01*
X13703095Y-13090428D01*
X13693571Y-13099952D01*
X13674524Y-13109476D01*
X13645952Y-13109476D01*
X13826905Y-13109476D02*
X13807857Y-13099952D01*
X13798333Y-13080905D01*
X13798333Y-12909476D01*
X13979286Y-13099952D02*
X13960238Y-13109476D01*
X13922143Y-13109476D01*
X13903095Y-13099952D01*
X13893571Y-13080905D01*
X13893571Y-13004714D01*
X13903095Y-12985667D01*
X13922143Y-12976143D01*
X13960238Y-12976143D01*
X13979286Y-12985667D01*
X13988809Y-13004714D01*
X13988809Y-13023762D01*
X13893571Y-13042809D01*
X14065000Y-13099952D02*
X14084048Y-13109476D01*
X14122143Y-13109476D01*
X14141190Y-13099952D01*
X14150714Y-13080905D01*
X14150714Y-13071381D01*
X14141190Y-13052333D01*
X14122143Y-13042809D01*
X14093571Y-13042809D01*
X14074524Y-13033286D01*
X14065000Y-13014238D01*
X14065000Y-13004714D01*
X14074524Y-12985667D01*
X14093571Y-12976143D01*
X14122143Y-12976143D01*
X14141190Y-12985667D01*
X14217381Y-13185667D02*
X14226905Y-13176143D01*
X14245952Y-13147571D01*
X14255476Y-13128524D01*
X14265000Y-13099952D01*
X14274524Y-13052333D01*
X14274524Y-13014238D01*
X14265000Y-12966619D01*
X14255476Y-12938048D01*
X14245952Y-12919000D01*
X14226905Y-12890428D01*
X14217381Y-12880905D01*
D13*
X9235000Y-13263000D02*
X9235000Y-13303000D01*
X9215000Y-13283000D02*
X9255000Y-13283000D01*
D11*
X9550714Y-13173476D02*
X9569762Y-13173476D01*
X9588810Y-13183000D01*
X9598333Y-13192524D01*
X9607857Y-13211571D01*
X9617381Y-13249667D01*
X9617381Y-13297286D01*
X9607857Y-13335381D01*
X9598333Y-13354428D01*
X9588810Y-13363952D01*
X9569762Y-13373476D01*
X9550714Y-13373476D01*
X9531667Y-13363952D01*
X9522143Y-13354428D01*
X9512619Y-13335381D01*
X9503095Y-13297286D01*
X9503095Y-13249667D01*
X9512619Y-13211571D01*
X9522143Y-13192524D01*
X9531667Y-13183000D01*
X9550714Y-13173476D01*
X9703095Y-13354428D02*
X9712619Y-13363952D01*
X9703095Y-13373476D01*
X9693571Y-13363952D01*
X9703095Y-13354428D01*
X9703095Y-13373476D01*
X9884048Y-13240143D02*
X9884048Y-13373476D01*
X9836429Y-13163952D02*
X9788810Y-13306809D01*
X9912619Y-13306809D01*
X10026905Y-13173476D02*
X10045952Y-13173476D01*
X10065000Y-13183000D01*
X10074524Y-13192524D01*
X10084048Y-13211571D01*
X10093571Y-13249667D01*
X10093571Y-13297286D01*
X10084048Y-13335381D01*
X10074524Y-13354428D01*
X10065000Y-13363952D01*
X10045952Y-13373476D01*
X10026905Y-13373476D01*
X10007857Y-13363952D01*
X9998333Y-13354428D01*
X9988810Y-13335381D01*
X9979286Y-13297286D01*
X9979286Y-13249667D01*
X9988810Y-13211571D01*
X9998333Y-13192524D01*
X10007857Y-13183000D01*
X10026905Y-13173476D01*
X10217381Y-13173476D02*
X10236429Y-13173476D01*
X10255476Y-13183000D01*
X10265000Y-13192524D01*
X10274524Y-13211571D01*
X10284048Y-13249667D01*
X10284048Y-13297286D01*
X10274524Y-13335381D01*
X10265000Y-13354428D01*
X10255476Y-13363952D01*
X10236429Y-13373476D01*
X10217381Y-13373476D01*
X10198333Y-13363952D01*
X10188810Y-13354428D01*
X10179286Y-13335381D01*
X10169762Y-13297286D01*
X10169762Y-13249667D01*
X10179286Y-13211571D01*
X10188810Y-13192524D01*
X10198333Y-13183000D01*
X10217381Y-13173476D01*
X10369762Y-13373476D02*
X10369762Y-13240143D01*
X10369762Y-13259190D02*
X10379286Y-13249667D01*
X10398333Y-13240143D01*
X10426905Y-13240143D01*
X10445952Y-13249667D01*
X10455476Y-13268714D01*
X10455476Y-13373476D01*
X10455476Y-13268714D02*
X10465000Y-13249667D01*
X10484048Y-13240143D01*
X10512619Y-13240143D01*
X10531667Y-13249667D01*
X10541190Y-13268714D01*
X10541190Y-13373476D01*
X10636429Y-13373476D02*
X10636429Y-13240143D01*
X10636429Y-13259190D02*
X10645952Y-13249667D01*
X10665000Y-13240143D01*
X10693571Y-13240143D01*
X10712619Y-13249667D01*
X10722143Y-13268714D01*
X10722143Y-13373476D01*
X10722143Y-13268714D02*
X10731667Y-13249667D01*
X10750714Y-13240143D01*
X10779286Y-13240143D01*
X10798333Y-13249667D01*
X10807857Y-13268714D01*
X10807857Y-13373476D01*
X11198333Y-13163952D02*
X11026905Y-13421095D01*
X11455476Y-13173476D02*
X11474524Y-13173476D01*
X11493571Y-13183000D01*
X11503095Y-13192524D01*
X11512619Y-13211571D01*
X11522143Y-13249667D01*
X11522143Y-13297286D01*
X11512619Y-13335381D01*
X11503095Y-13354428D01*
X11493571Y-13363952D01*
X11474524Y-13373476D01*
X11455476Y-13373476D01*
X11436428Y-13363952D01*
X11426905Y-13354428D01*
X11417381Y-13335381D01*
X11407857Y-13297286D01*
X11407857Y-13249667D01*
X11417381Y-13211571D01*
X11426905Y-13192524D01*
X11436428Y-13183000D01*
X11455476Y-13173476D01*
X11607857Y-13354428D02*
X11617381Y-13363952D01*
X11607857Y-13373476D01*
X11598333Y-13363952D01*
X11607857Y-13354428D01*
X11607857Y-13373476D01*
X11741190Y-13173476D02*
X11760238Y-13173476D01*
X11779286Y-13183000D01*
X11788809Y-13192524D01*
X11798333Y-13211571D01*
X11807857Y-13249667D01*
X11807857Y-13297286D01*
X11798333Y-13335381D01*
X11788809Y-13354428D01*
X11779286Y-13363952D01*
X11760238Y-13373476D01*
X11741190Y-13373476D01*
X11722143Y-13363952D01*
X11712619Y-13354428D01*
X11703095Y-13335381D01*
X11693571Y-13297286D01*
X11693571Y-13249667D01*
X11703095Y-13211571D01*
X11712619Y-13192524D01*
X11722143Y-13183000D01*
X11741190Y-13173476D01*
X11998333Y-13373476D02*
X11884048Y-13373476D01*
X11941190Y-13373476D02*
X11941190Y-13173476D01*
X11922143Y-13202048D01*
X11903095Y-13221095D01*
X11884048Y-13230619D01*
X12179286Y-13173476D02*
X12084048Y-13173476D01*
X12074524Y-13268714D01*
X12084048Y-13259190D01*
X12103095Y-13249667D01*
X12150714Y-13249667D01*
X12169762Y-13259190D01*
X12179286Y-13268714D01*
X12188809Y-13287762D01*
X12188809Y-13335381D01*
X12179286Y-13354428D01*
X12169762Y-13363952D01*
X12150714Y-13373476D01*
X12103095Y-13373476D01*
X12084048Y-13363952D01*
X12074524Y-13354428D01*
X12255476Y-13173476D02*
X12388809Y-13173476D01*
X12303095Y-13373476D01*
X12455476Y-13173476D02*
X12455476Y-13211571D01*
X12531667Y-13173476D02*
X12531667Y-13211571D01*
X12826905Y-13449667D02*
X12817381Y-13440143D01*
X12798333Y-13411571D01*
X12788809Y-13392524D01*
X12779286Y-13363952D01*
X12769762Y-13316333D01*
X12769762Y-13278238D01*
X12779286Y-13230619D01*
X12788809Y-13202048D01*
X12798333Y-13183000D01*
X12817381Y-13154428D01*
X12826905Y-13144905D01*
X13007857Y-13373476D02*
X12893571Y-13373476D01*
X12950714Y-13373476D02*
X12950714Y-13173476D01*
X12931667Y-13202048D01*
X12912619Y-13221095D01*
X12893571Y-13230619D01*
X13084048Y-13192524D02*
X13093571Y-13183000D01*
X13112619Y-13173476D01*
X13160238Y-13173476D01*
X13179286Y-13183000D01*
X13188809Y-13192524D01*
X13198333Y-13211571D01*
X13198333Y-13230619D01*
X13188809Y-13259190D01*
X13074524Y-13373476D01*
X13198333Y-13373476D01*
X13436428Y-13373476D02*
X13436428Y-13173476D01*
X13522143Y-13373476D02*
X13522143Y-13268714D01*
X13512619Y-13249667D01*
X13493571Y-13240143D01*
X13465000Y-13240143D01*
X13445952Y-13249667D01*
X13436428Y-13259190D01*
X13645952Y-13373476D02*
X13626905Y-13363952D01*
X13617381Y-13354428D01*
X13607857Y-13335381D01*
X13607857Y-13278238D01*
X13617381Y-13259190D01*
X13626905Y-13249667D01*
X13645952Y-13240143D01*
X13674524Y-13240143D01*
X13693571Y-13249667D01*
X13703095Y-13259190D01*
X13712619Y-13278238D01*
X13712619Y-13335381D01*
X13703095Y-13354428D01*
X13693571Y-13363952D01*
X13674524Y-13373476D01*
X13645952Y-13373476D01*
X13826905Y-13373476D02*
X13807857Y-13363952D01*
X13798333Y-13344905D01*
X13798333Y-13173476D01*
X13979286Y-13363952D02*
X13960238Y-13373476D01*
X13922143Y-13373476D01*
X13903095Y-13363952D01*
X13893571Y-13344905D01*
X13893571Y-13268714D01*
X13903095Y-13249667D01*
X13922143Y-13240143D01*
X13960238Y-13240143D01*
X13979286Y-13249667D01*
X13988809Y-13268714D01*
X13988809Y-13287762D01*
X13893571Y-13306809D01*
X14065000Y-13363952D02*
X14084048Y-13373476D01*
X14122143Y-13373476D01*
X14141190Y-13363952D01*
X14150714Y-13344905D01*
X14150714Y-13335381D01*
X14141190Y-13316333D01*
X14122143Y-13306809D01*
X14093571Y-13306809D01*
X14074524Y-13297286D01*
X14065000Y-13278238D01*
X14065000Y-13268714D01*
X14074524Y-13249667D01*
X14093571Y-13240143D01*
X14122143Y-13240143D01*
X14141190Y-13249667D01*
X14217381Y-13449667D02*
X14226905Y-13440143D01*
X14245952Y-13411571D01*
X14255476Y-13392524D01*
X14265000Y-13363952D01*
X14274524Y-13316333D01*
X14274524Y-13278238D01*
X14265000Y-13230619D01*
X14255476Y-13202048D01*
X14245952Y-13183000D01*
X14226905Y-13154428D01*
X14217381Y-13144905D01*
D14*
X9247678Y-13564678D02*
X9247678Y-13529322D01*
X9212322Y-13529322D01*
X9212322Y-13564678D01*
X9247678Y-13564678D01*
D11*
X9550714Y-13437476D02*
X9569762Y-13437476D01*
X9588810Y-13447000D01*
X9598333Y-13456524D01*
X9607857Y-13475571D01*
X9617381Y-13513667D01*
X9617381Y-13561286D01*
X9607857Y-13599381D01*
X9598333Y-13618428D01*
X9588810Y-13627952D01*
X9569762Y-13637476D01*
X9550714Y-13637476D01*
X9531667Y-13627952D01*
X9522143Y-13618428D01*
X9512619Y-13599381D01*
X9503095Y-13561286D01*
X9503095Y-13513667D01*
X9512619Y-13475571D01*
X9522143Y-13456524D01*
X9531667Y-13447000D01*
X9550714Y-13437476D01*
X9703095Y-13618428D02*
X9712619Y-13627952D01*
X9703095Y-13637476D01*
X9693571Y-13627952D01*
X9703095Y-13618428D01*
X9703095Y-13637476D01*
X9893571Y-13437476D02*
X9798333Y-13437476D01*
X9788810Y-13532714D01*
X9798333Y-13523190D01*
X9817381Y-13513667D01*
X9865000Y-13513667D01*
X9884048Y-13523190D01*
X9893571Y-13532714D01*
X9903095Y-13551762D01*
X9903095Y-13599381D01*
X9893571Y-13618428D01*
X9884048Y-13627952D01*
X9865000Y-13637476D01*
X9817381Y-13637476D01*
X9798333Y-13627952D01*
X9788810Y-13618428D01*
X10026905Y-13437476D02*
X10045952Y-13437476D01*
X10065000Y-13447000D01*
X10074524Y-13456524D01*
X10084048Y-13475571D01*
X10093571Y-13513667D01*
X10093571Y-13561286D01*
X10084048Y-13599381D01*
X10074524Y-13618428D01*
X10065000Y-13627952D01*
X10045952Y-13637476D01*
X10026905Y-13637476D01*
X10007857Y-13627952D01*
X9998333Y-13618428D01*
X9988810Y-13599381D01*
X9979286Y-13561286D01*
X9979286Y-13513667D01*
X9988810Y-13475571D01*
X9998333Y-13456524D01*
X10007857Y-13447000D01*
X10026905Y-13437476D01*
X10217381Y-13437476D02*
X10236429Y-13437476D01*
X10255476Y-13447000D01*
X10265000Y-13456524D01*
X10274524Y-13475571D01*
X10284048Y-13513667D01*
X10284048Y-13561286D01*
X10274524Y-13599381D01*
X10265000Y-13618428D01*
X10255476Y-13627952D01*
X10236429Y-13637476D01*
X10217381Y-13637476D01*
X10198333Y-13627952D01*
X10188810Y-13618428D01*
X10179286Y-13599381D01*
X10169762Y-13561286D01*
X10169762Y-13513667D01*
X10179286Y-13475571D01*
X10188810Y-13456524D01*
X10198333Y-13447000D01*
X10217381Y-13437476D01*
X10369762Y-13637476D02*
X10369762Y-13504143D01*
X10369762Y-13523190D02*
X10379286Y-13513667D01*
X10398333Y-13504143D01*
X10426905Y-13504143D01*
X10445952Y-13513667D01*
X10455476Y-13532714D01*
X10455476Y-13637476D01*
X10455476Y-13532714D02*
X10465000Y-13513667D01*
X10484048Y-13504143D01*
X10512619Y-13504143D01*
X10531667Y-13513667D01*
X10541190Y-13532714D01*
X10541190Y-13637476D01*
X10636429Y-13637476D02*
X10636429Y-13504143D01*
X10636429Y-13523190D02*
X10645952Y-13513667D01*
X10665000Y-13504143D01*
X10693571Y-13504143D01*
X10712619Y-13513667D01*
X10722143Y-13532714D01*
X10722143Y-13637476D01*
X10722143Y-13532714D02*
X10731667Y-13513667D01*
X10750714Y-13504143D01*
X10779286Y-13504143D01*
X10798333Y-13513667D01*
X10807857Y-13532714D01*
X10807857Y-13637476D01*
X11198333Y-13427952D02*
X11026905Y-13685095D01*
X11455476Y-13437476D02*
X11474524Y-13437476D01*
X11493571Y-13447000D01*
X11503095Y-13456524D01*
X11512619Y-13475571D01*
X11522143Y-13513667D01*
X11522143Y-13561286D01*
X11512619Y-13599381D01*
X11503095Y-13618428D01*
X11493571Y-13627952D01*
X11474524Y-13637476D01*
X11455476Y-13637476D01*
X11436428Y-13627952D01*
X11426905Y-13618428D01*
X11417381Y-13599381D01*
X11407857Y-13561286D01*
X11407857Y-13513667D01*
X11417381Y-13475571D01*
X11426905Y-13456524D01*
X11436428Y-13447000D01*
X11455476Y-13437476D01*
X11607857Y-13618428D02*
X11617381Y-13627952D01*
X11607857Y-13637476D01*
X11598333Y-13627952D01*
X11607857Y-13618428D01*
X11607857Y-13637476D01*
X11741190Y-13437476D02*
X11760238Y-13437476D01*
X11779286Y-13447000D01*
X11788809Y-13456524D01*
X11798333Y-13475571D01*
X11807857Y-13513667D01*
X11807857Y-13561286D01*
X11798333Y-13599381D01*
X11788809Y-13618428D01*
X11779286Y-13627952D01*
X11760238Y-13637476D01*
X11741190Y-13637476D01*
X11722143Y-13627952D01*
X11712619Y-13618428D01*
X11703095Y-13599381D01*
X11693571Y-13561286D01*
X11693571Y-13513667D01*
X11703095Y-13475571D01*
X11712619Y-13456524D01*
X11722143Y-13447000D01*
X11741190Y-13437476D01*
X11998333Y-13637476D02*
X11884048Y-13637476D01*
X11941190Y-13637476D02*
X11941190Y-13437476D01*
X11922143Y-13466048D01*
X11903095Y-13485095D01*
X11884048Y-13494619D01*
X12093571Y-13637476D02*
X12131667Y-13637476D01*
X12150714Y-13627952D01*
X12160238Y-13618428D01*
X12179286Y-13589857D01*
X12188809Y-13551762D01*
X12188809Y-13475571D01*
X12179286Y-13456524D01*
X12169762Y-13447000D01*
X12150714Y-13437476D01*
X12112619Y-13437476D01*
X12093571Y-13447000D01*
X12084048Y-13456524D01*
X12074524Y-13475571D01*
X12074524Y-13523190D01*
X12084048Y-13542238D01*
X12093571Y-13551762D01*
X12112619Y-13561286D01*
X12150714Y-13561286D01*
X12169762Y-13551762D01*
X12179286Y-13542238D01*
X12188809Y-13523190D01*
X12255476Y-13437476D02*
X12388809Y-13437476D01*
X12303095Y-13637476D01*
X12455476Y-13437476D02*
X12455476Y-13475571D01*
X12531667Y-13437476D02*
X12531667Y-13475571D01*
X12826905Y-13713667D02*
X12817381Y-13704143D01*
X12798333Y-13675571D01*
X12788809Y-13656524D01*
X12779286Y-13627952D01*
X12769762Y-13580333D01*
X12769762Y-13542238D01*
X12779286Y-13494619D01*
X12788809Y-13466048D01*
X12798333Y-13447000D01*
X12817381Y-13418428D01*
X12826905Y-13408905D01*
X12941190Y-13437476D02*
X12960238Y-13437476D01*
X12979286Y-13447000D01*
X12988809Y-13456524D01*
X12998333Y-13475571D01*
X13007857Y-13513667D01*
X13007857Y-13561286D01*
X12998333Y-13599381D01*
X12988809Y-13618428D01*
X12979286Y-13627952D01*
X12960238Y-13637476D01*
X12941190Y-13637476D01*
X12922143Y-13627952D01*
X12912619Y-13618428D01*
X12903095Y-13599381D01*
X12893571Y-13561286D01*
X12893571Y-13513667D01*
X12903095Y-13475571D01*
X12912619Y-13456524D01*
X12922143Y-13447000D01*
X12941190Y-13437476D01*
X13245952Y-13637476D02*
X13245952Y-13437476D01*
X13331667Y-13637476D02*
X13331667Y-13532714D01*
X13322143Y-13513667D01*
X13303095Y-13504143D01*
X13274524Y-13504143D01*
X13255476Y-13513667D01*
X13245952Y-13523190D01*
X13455476Y-13637476D02*
X13436428Y-13627952D01*
X13426905Y-13618428D01*
X13417381Y-13599381D01*
X13417381Y-13542238D01*
X13426905Y-13523190D01*
X13436428Y-13513667D01*
X13455476Y-13504143D01*
X13484048Y-13504143D01*
X13503095Y-13513667D01*
X13512619Y-13523190D01*
X13522143Y-13542238D01*
X13522143Y-13599381D01*
X13512619Y-13618428D01*
X13503095Y-13627952D01*
X13484048Y-13637476D01*
X13455476Y-13637476D01*
X13636428Y-13637476D02*
X13617381Y-13627952D01*
X13607857Y-13608905D01*
X13607857Y-13437476D01*
X13788809Y-13627952D02*
X13769762Y-13637476D01*
X13731667Y-13637476D01*
X13712619Y-13627952D01*
X13703095Y-13608905D01*
X13703095Y-13532714D01*
X13712619Y-13513667D01*
X13731667Y-13504143D01*
X13769762Y-13504143D01*
X13788809Y-13513667D01*
X13798333Y-13532714D01*
X13798333Y-13551762D01*
X13703095Y-13570809D01*
X13874524Y-13627952D02*
X13893571Y-13637476D01*
X13931667Y-13637476D01*
X13950714Y-13627952D01*
X13960238Y-13608905D01*
X13960238Y-13599381D01*
X13950714Y-13580333D01*
X13931667Y-13570809D01*
X13903095Y-13570809D01*
X13884048Y-13561286D01*
X13874524Y-13542238D01*
X13874524Y-13532714D01*
X13884048Y-13513667D01*
X13903095Y-13504143D01*
X13931667Y-13504143D01*
X13950714Y-13513667D01*
X14198333Y-13561286D02*
X14350714Y-13561286D01*
X14274524Y-13637476D02*
X14274524Y-13485095D01*
X14684048Y-13504143D02*
X14684048Y-13637476D01*
X14636428Y-13427952D02*
X14588809Y-13570809D01*
X14712619Y-13570809D01*
X14931667Y-13627952D02*
X14950714Y-13637476D01*
X14988809Y-13637476D01*
X15007857Y-13627952D01*
X15017381Y-13608905D01*
X15017381Y-13599381D01*
X15007857Y-13580333D01*
X14988809Y-13570809D01*
X14960238Y-13570809D01*
X14941190Y-13561286D01*
X14931667Y-13542238D01*
X14931667Y-13532714D01*
X14941190Y-13513667D01*
X14960238Y-13504143D01*
X14988809Y-13504143D01*
X15007857Y-13513667D01*
X15131667Y-13637476D02*
X15112619Y-13627952D01*
X15103095Y-13608905D01*
X15103095Y-13437476D01*
X15236428Y-13637476D02*
X15217381Y-13627952D01*
X15207857Y-13618428D01*
X15198333Y-13599381D01*
X15198333Y-13542238D01*
X15207857Y-13523190D01*
X15217381Y-13513667D01*
X15236428Y-13504143D01*
X15265000Y-13504143D01*
X15284048Y-13513667D01*
X15293571Y-13523190D01*
X15303095Y-13542238D01*
X15303095Y-13599381D01*
X15293571Y-13618428D01*
X15284048Y-13627952D01*
X15265000Y-13637476D01*
X15236428Y-13637476D01*
X15360238Y-13504143D02*
X15436428Y-13504143D01*
X15388809Y-13437476D02*
X15388809Y-13608905D01*
X15398333Y-13627952D01*
X15417381Y-13637476D01*
X15436428Y-13637476D01*
X15493571Y-13627952D02*
X15512619Y-13637476D01*
X15550714Y-13637476D01*
X15569762Y-13627952D01*
X15579286Y-13608905D01*
X15579286Y-13599381D01*
X15569762Y-13580333D01*
X15550714Y-13570809D01*
X15522143Y-13570809D01*
X15503095Y-13561286D01*
X15493571Y-13542238D01*
X15493571Y-13532714D01*
X15503095Y-13513667D01*
X15522143Y-13504143D01*
X15550714Y-13504143D01*
X15569762Y-13513667D01*
X15645952Y-13713667D02*
X15655476Y-13704143D01*
X15674524Y-13675571D01*
X15684048Y-13656524D01*
X15693571Y-13627952D01*
X15703095Y-13580333D01*
X15703095Y-13542238D01*
X15693571Y-13494619D01*
X15684048Y-13466048D01*
X15674524Y-13447000D01*
X15655476Y-13418428D01*
X15645952Y-13408905D01*
D10*
X9205000Y-13861000D02*
X9255000Y-13811000D01*
X9205000Y-13761000D01*
X9155000Y-13811000D01*
X9205000Y-13861000D01*
D11*
X9617381Y-13901476D02*
X9503095Y-13901476D01*
X9560238Y-13901476D02*
X9560238Y-13701476D01*
X9541190Y-13730048D01*
X9522143Y-13749095D01*
X9503095Y-13758619D01*
X9703095Y-13882428D02*
X9712619Y-13891952D01*
X9703095Y-13901476D01*
X9693571Y-13891952D01*
X9703095Y-13882428D01*
X9703095Y-13901476D01*
X9836429Y-13701476D02*
X9855476Y-13701476D01*
X9874524Y-13711000D01*
X9884048Y-13720524D01*
X9893571Y-13739571D01*
X9903095Y-13777667D01*
X9903095Y-13825286D01*
X9893571Y-13863381D01*
X9884048Y-13882428D01*
X9874524Y-13891952D01*
X9855476Y-13901476D01*
X9836429Y-13901476D01*
X9817381Y-13891952D01*
X9807857Y-13882428D01*
X9798333Y-13863381D01*
X9788810Y-13825286D01*
X9788810Y-13777667D01*
X9798333Y-13739571D01*
X9807857Y-13720524D01*
X9817381Y-13711000D01*
X9836429Y-13701476D01*
X10026905Y-13701476D02*
X10045952Y-13701476D01*
X10065000Y-13711000D01*
X10074524Y-13720524D01*
X10084048Y-13739571D01*
X10093571Y-13777667D01*
X10093571Y-13825286D01*
X10084048Y-13863381D01*
X10074524Y-13882428D01*
X10065000Y-13891952D01*
X10045952Y-13901476D01*
X10026905Y-13901476D01*
X10007857Y-13891952D01*
X9998333Y-13882428D01*
X9988810Y-13863381D01*
X9979286Y-13825286D01*
X9979286Y-13777667D01*
X9988810Y-13739571D01*
X9998333Y-13720524D01*
X10007857Y-13711000D01*
X10026905Y-13701476D01*
X10217381Y-13701476D02*
X10236429Y-13701476D01*
X10255476Y-13711000D01*
X10265000Y-13720524D01*
X10274524Y-13739571D01*
X10284048Y-13777667D01*
X10284048Y-13825286D01*
X10274524Y-13863381D01*
X10265000Y-13882428D01*
X10255476Y-13891952D01*
X10236429Y-13901476D01*
X10217381Y-13901476D01*
X10198333Y-13891952D01*
X10188810Y-13882428D01*
X10179286Y-13863381D01*
X10169762Y-13825286D01*
X10169762Y-13777667D01*
X10179286Y-13739571D01*
X10188810Y-13720524D01*
X10198333Y-13711000D01*
X10217381Y-13701476D01*
X10369762Y-13901476D02*
X10369762Y-13768143D01*
X10369762Y-13787190D02*
X10379286Y-13777667D01*
X10398333Y-13768143D01*
X10426905Y-13768143D01*
X10445952Y-13777667D01*
X10455476Y-13796714D01*
X10455476Y-13901476D01*
X10455476Y-13796714D02*
X10465000Y-13777667D01*
X10484048Y-13768143D01*
X10512619Y-13768143D01*
X10531667Y-13777667D01*
X10541190Y-13796714D01*
X10541190Y-13901476D01*
X10636429Y-13901476D02*
X10636429Y-13768143D01*
X10636429Y-13787190D02*
X10645952Y-13777667D01*
X10665000Y-13768143D01*
X10693571Y-13768143D01*
X10712619Y-13777667D01*
X10722143Y-13796714D01*
X10722143Y-13901476D01*
X10722143Y-13796714D02*
X10731667Y-13777667D01*
X10750714Y-13768143D01*
X10779286Y-13768143D01*
X10798333Y-13777667D01*
X10807857Y-13796714D01*
X10807857Y-13901476D01*
X11198333Y-13691952D02*
X11026905Y-13949095D01*
X11455476Y-13701476D02*
X11474524Y-13701476D01*
X11493571Y-13711000D01*
X11503095Y-13720524D01*
X11512619Y-13739571D01*
X11522143Y-13777667D01*
X11522143Y-13825286D01*
X11512619Y-13863381D01*
X11503095Y-13882428D01*
X11493571Y-13891952D01*
X11474524Y-13901476D01*
X11455476Y-13901476D01*
X11436428Y-13891952D01*
X11426905Y-13882428D01*
X11417381Y-13863381D01*
X11407857Y-13825286D01*
X11407857Y-13777667D01*
X11417381Y-13739571D01*
X11426905Y-13720524D01*
X11436428Y-13711000D01*
X11455476Y-13701476D01*
X11607857Y-13882428D02*
X11617381Y-13891952D01*
X11607857Y-13901476D01*
X11598333Y-13891952D01*
X11607857Y-13882428D01*
X11607857Y-13901476D01*
X11741190Y-13701476D02*
X11760238Y-13701476D01*
X11779286Y-13711000D01*
X11788809Y-13720524D01*
X11798333Y-13739571D01*
X11807857Y-13777667D01*
X11807857Y-13825286D01*
X11798333Y-13863381D01*
X11788809Y-13882428D01*
X11779286Y-13891952D01*
X11760238Y-13901476D01*
X11741190Y-13901476D01*
X11722143Y-13891952D01*
X11712619Y-13882428D01*
X11703095Y-13863381D01*
X11693571Y-13825286D01*
X11693571Y-13777667D01*
X11703095Y-13739571D01*
X11712619Y-13720524D01*
X11722143Y-13711000D01*
X11741190Y-13701476D01*
X11874524Y-13701476D02*
X11998333Y-13701476D01*
X11931667Y-13777667D01*
X11960238Y-13777667D01*
X11979286Y-13787190D01*
X11988809Y-13796714D01*
X11998333Y-13815762D01*
X11998333Y-13863381D01*
X11988809Y-13882428D01*
X11979286Y-13891952D01*
X11960238Y-13901476D01*
X11903095Y-13901476D01*
X11884048Y-13891952D01*
X11874524Y-13882428D01*
X12093571Y-13901476D02*
X12131667Y-13901476D01*
X12150714Y-13891952D01*
X12160238Y-13882428D01*
X12179286Y-13853857D01*
X12188809Y-13815762D01*
X12188809Y-13739571D01*
X12179286Y-13720524D01*
X12169762Y-13711000D01*
X12150714Y-13701476D01*
X12112619Y-13701476D01*
X12093571Y-13711000D01*
X12084048Y-13720524D01*
X12074524Y-13739571D01*
X12074524Y-13787190D01*
X12084048Y-13806238D01*
X12093571Y-13815762D01*
X12112619Y-13825286D01*
X12150714Y-13825286D01*
X12169762Y-13815762D01*
X12179286Y-13806238D01*
X12188809Y-13787190D01*
X12360238Y-13768143D02*
X12360238Y-13901476D01*
X12312619Y-13691952D02*
X12265000Y-13834809D01*
X12388809Y-13834809D01*
X12455476Y-13701476D02*
X12455476Y-13739571D01*
X12531667Y-13701476D02*
X12531667Y-13739571D01*
X12826905Y-13977667D02*
X12817381Y-13968143D01*
X12798333Y-13939571D01*
X12788809Y-13920524D01*
X12779286Y-13891952D01*
X12769762Y-13844333D01*
X12769762Y-13806238D01*
X12779286Y-13758619D01*
X12788809Y-13730048D01*
X12798333Y-13711000D01*
X12817381Y-13682428D01*
X12826905Y-13672905D01*
X12893571Y-13720524D02*
X12903095Y-13711000D01*
X12922143Y-13701476D01*
X12969762Y-13701476D01*
X12988809Y-13711000D01*
X12998333Y-13720524D01*
X13007857Y-13739571D01*
X13007857Y-13758619D01*
X12998333Y-13787190D01*
X12884048Y-13901476D01*
X13007857Y-13901476D01*
X13074524Y-13701476D02*
X13207857Y-13701476D01*
X13122143Y-13901476D01*
X13436428Y-13901476D02*
X13436428Y-13701476D01*
X13522143Y-13901476D02*
X13522143Y-13796714D01*
X13512619Y-13777667D01*
X13493571Y-13768143D01*
X13465000Y-13768143D01*
X13445952Y-13777667D01*
X13436428Y-13787190D01*
X13645952Y-13901476D02*
X13626905Y-13891952D01*
X13617381Y-13882428D01*
X13607857Y-13863381D01*
X13607857Y-13806238D01*
X13617381Y-13787190D01*
X13626905Y-13777667D01*
X13645952Y-13768143D01*
X13674524Y-13768143D01*
X13693571Y-13777667D01*
X13703095Y-13787190D01*
X13712619Y-13806238D01*
X13712619Y-13863381D01*
X13703095Y-13882428D01*
X13693571Y-13891952D01*
X13674524Y-13901476D01*
X13645952Y-13901476D01*
X13826905Y-13901476D02*
X13807857Y-13891952D01*
X13798333Y-13872905D01*
X13798333Y-13701476D01*
X13979286Y-13891952D02*
X13960238Y-13901476D01*
X13922143Y-13901476D01*
X13903095Y-13891952D01*
X13893571Y-13872905D01*
X13893571Y-13796714D01*
X13903095Y-13777667D01*
X13922143Y-13768143D01*
X13960238Y-13768143D01*
X13979286Y-13777667D01*
X13988809Y-13796714D01*
X13988809Y-13815762D01*
X13893571Y-13834809D01*
X14065000Y-13891952D02*
X14084048Y-13901476D01*
X14122143Y-13901476D01*
X14141190Y-13891952D01*
X14150714Y-13872905D01*
X14150714Y-13863381D01*
X14141190Y-13844333D01*
X14122143Y-13834809D01*
X14093571Y-13834809D01*
X14074524Y-13825286D01*
X14065000Y-13806238D01*
X14065000Y-13796714D01*
X14074524Y-13777667D01*
X14093571Y-13768143D01*
X14122143Y-13768143D01*
X14141190Y-13777667D01*
X14217381Y-13977667D02*
X14226905Y-13968143D01*
X14245952Y-13939571D01*
X14255476Y-13920524D01*
X14265000Y-13891952D01*
X14274524Y-13844333D01*
X14274524Y-13806238D01*
X14265000Y-13758619D01*
X14255476Y-13730048D01*
X14245952Y-13711000D01*
X14226905Y-13682428D01*
X14217381Y-13672905D01*
D15*
X9105000Y-14000000D02*
X9255000Y-14150000D01*
X9255000Y-14000000D02*
X9105000Y-14150000D01*
X9255000Y-14075000D02*
G75*
G03*
X9255000Y-14075000I-75000J0D01*
G01*
D11*
X9617381Y-14165476D02*
X9503095Y-14165476D01*
X9560238Y-14165476D02*
X9560238Y-13965476D01*
X9541190Y-13994048D01*
X9522143Y-14013095D01*
X9503095Y-14022619D01*
X9703095Y-14146428D02*
X9712619Y-14155952D01*
X9703095Y-14165476D01*
X9693571Y-14155952D01*
X9703095Y-14146428D01*
X9703095Y-14165476D01*
X9893571Y-13965476D02*
X9798333Y-13965476D01*
X9788810Y-14060714D01*
X9798333Y-14051190D01*
X9817381Y-14041667D01*
X9865000Y-14041667D01*
X9884048Y-14051190D01*
X9893571Y-14060714D01*
X9903095Y-14079762D01*
X9903095Y-14127381D01*
X9893571Y-14146428D01*
X9884048Y-14155952D01*
X9865000Y-14165476D01*
X9817381Y-14165476D01*
X9798333Y-14155952D01*
X9788810Y-14146428D01*
X10026905Y-13965476D02*
X10045952Y-13965476D01*
X10065000Y-13975000D01*
X10074524Y-13984524D01*
X10084048Y-14003571D01*
X10093571Y-14041667D01*
X10093571Y-14089286D01*
X10084048Y-14127381D01*
X10074524Y-14146428D01*
X10065000Y-14155952D01*
X10045952Y-14165476D01*
X10026905Y-14165476D01*
X10007857Y-14155952D01*
X9998333Y-14146428D01*
X9988810Y-14127381D01*
X9979286Y-14089286D01*
X9979286Y-14041667D01*
X9988810Y-14003571D01*
X9998333Y-13984524D01*
X10007857Y-13975000D01*
X10026905Y-13965476D01*
X10217381Y-13965476D02*
X10236429Y-13965476D01*
X10255476Y-13975000D01*
X10265000Y-13984524D01*
X10274524Y-14003571D01*
X10284048Y-14041667D01*
X10284048Y-14089286D01*
X10274524Y-14127381D01*
X10265000Y-14146428D01*
X10255476Y-14155952D01*
X10236429Y-14165476D01*
X10217381Y-14165476D01*
X10198333Y-14155952D01*
X10188810Y-14146428D01*
X10179286Y-14127381D01*
X10169762Y-14089286D01*
X10169762Y-14041667D01*
X10179286Y-14003571D01*
X10188810Y-13984524D01*
X10198333Y-13975000D01*
X10217381Y-13965476D01*
X10369762Y-14165476D02*
X10369762Y-14032143D01*
X10369762Y-14051190D02*
X10379286Y-14041667D01*
X10398333Y-14032143D01*
X10426905Y-14032143D01*
X10445952Y-14041667D01*
X10455476Y-14060714D01*
X10455476Y-14165476D01*
X10455476Y-14060714D02*
X10465000Y-14041667D01*
X10484048Y-14032143D01*
X10512619Y-14032143D01*
X10531667Y-14041667D01*
X10541190Y-14060714D01*
X10541190Y-14165476D01*
X10636429Y-14165476D02*
X10636429Y-14032143D01*
X10636429Y-14051190D02*
X10645952Y-14041667D01*
X10665000Y-14032143D01*
X10693571Y-14032143D01*
X10712619Y-14041667D01*
X10722143Y-14060714D01*
X10722143Y-14165476D01*
X10722143Y-14060714D02*
X10731667Y-14041667D01*
X10750714Y-14032143D01*
X10779286Y-14032143D01*
X10798333Y-14041667D01*
X10807857Y-14060714D01*
X10807857Y-14165476D01*
X11198333Y-13955952D02*
X11026905Y-14213095D01*
X11455476Y-13965476D02*
X11474524Y-13965476D01*
X11493571Y-13975000D01*
X11503095Y-13984524D01*
X11512619Y-14003571D01*
X11522143Y-14041667D01*
X11522143Y-14089286D01*
X11512619Y-14127381D01*
X11503095Y-14146428D01*
X11493571Y-14155952D01*
X11474524Y-14165476D01*
X11455476Y-14165476D01*
X11436428Y-14155952D01*
X11426905Y-14146428D01*
X11417381Y-14127381D01*
X11407857Y-14089286D01*
X11407857Y-14041667D01*
X11417381Y-14003571D01*
X11426905Y-13984524D01*
X11436428Y-13975000D01*
X11455476Y-13965476D01*
X11607857Y-14146428D02*
X11617381Y-14155952D01*
X11607857Y-14165476D01*
X11598333Y-14155952D01*
X11607857Y-14146428D01*
X11607857Y-14165476D01*
X11741190Y-13965476D02*
X11760238Y-13965476D01*
X11779286Y-13975000D01*
X11788809Y-13984524D01*
X11798333Y-14003571D01*
X11807857Y-14041667D01*
X11807857Y-14089286D01*
X11798333Y-14127381D01*
X11788809Y-14146428D01*
X11779286Y-14155952D01*
X11760238Y-14165476D01*
X11741190Y-14165476D01*
X11722143Y-14155952D01*
X11712619Y-14146428D01*
X11703095Y-14127381D01*
X11693571Y-14089286D01*
X11693571Y-14041667D01*
X11703095Y-14003571D01*
X11712619Y-13984524D01*
X11722143Y-13975000D01*
X11741190Y-13965476D01*
X11988809Y-13965476D02*
X11893571Y-13965476D01*
X11884048Y-14060714D01*
X11893571Y-14051190D01*
X11912619Y-14041667D01*
X11960238Y-14041667D01*
X11979286Y-14051190D01*
X11988809Y-14060714D01*
X11998333Y-14079762D01*
X11998333Y-14127381D01*
X11988809Y-14146428D01*
X11979286Y-14155952D01*
X11960238Y-14165476D01*
X11912619Y-14165476D01*
X11893571Y-14155952D01*
X11884048Y-14146428D01*
X12093571Y-14165476D02*
X12131667Y-14165476D01*
X12150714Y-14155952D01*
X12160238Y-14146428D01*
X12179286Y-14117857D01*
X12188809Y-14079762D01*
X12188809Y-14003571D01*
X12179286Y-13984524D01*
X12169762Y-13975000D01*
X12150714Y-13965476D01*
X12112619Y-13965476D01*
X12093571Y-13975000D01*
X12084048Y-13984524D01*
X12074524Y-14003571D01*
X12074524Y-14051190D01*
X12084048Y-14070238D01*
X12093571Y-14079762D01*
X12112619Y-14089286D01*
X12150714Y-14089286D01*
X12169762Y-14079762D01*
X12179286Y-14070238D01*
X12188809Y-14051190D01*
X12379286Y-14165476D02*
X12265000Y-14165476D01*
X12322143Y-14165476D02*
X12322143Y-13965476D01*
X12303095Y-13994048D01*
X12284048Y-14013095D01*
X12265000Y-14022619D01*
X12455476Y-13965476D02*
X12455476Y-14003571D01*
X12531667Y-13965476D02*
X12531667Y-14003571D01*
X12826905Y-14241667D02*
X12817381Y-14232143D01*
X12798333Y-14203571D01*
X12788809Y-14184524D01*
X12779286Y-14155952D01*
X12769762Y-14108333D01*
X12769762Y-14070238D01*
X12779286Y-14022619D01*
X12788809Y-13994048D01*
X12798333Y-13975000D01*
X12817381Y-13946428D01*
X12826905Y-13936905D01*
X13007857Y-14165476D02*
X12893571Y-14165476D01*
X12950714Y-14165476D02*
X12950714Y-13965476D01*
X12931667Y-13994048D01*
X12912619Y-14013095D01*
X12893571Y-14022619D01*
X13245952Y-14165476D02*
X13245952Y-13965476D01*
X13331667Y-14165476D02*
X13331667Y-14060714D01*
X13322143Y-14041667D01*
X13303095Y-14032143D01*
X13274524Y-14032143D01*
X13255476Y-14041667D01*
X13245952Y-14051190D01*
X13455476Y-14165476D02*
X13436428Y-14155952D01*
X13426905Y-14146428D01*
X13417381Y-14127381D01*
X13417381Y-14070238D01*
X13426905Y-14051190D01*
X13436428Y-14041667D01*
X13455476Y-14032143D01*
X13484048Y-14032143D01*
X13503095Y-14041667D01*
X13512619Y-14051190D01*
X13522143Y-14070238D01*
X13522143Y-14127381D01*
X13512619Y-14146428D01*
X13503095Y-14155952D01*
X13484048Y-14165476D01*
X13455476Y-14165476D01*
X13636428Y-14165476D02*
X13617381Y-14155952D01*
X13607857Y-14136905D01*
X13607857Y-13965476D01*
X13788809Y-14155952D02*
X13769762Y-14165476D01*
X13731667Y-14165476D01*
X13712619Y-14155952D01*
X13703095Y-14136905D01*
X13703095Y-14060714D01*
X13712619Y-14041667D01*
X13731667Y-14032143D01*
X13769762Y-14032143D01*
X13788809Y-14041667D01*
X13798333Y-14060714D01*
X13798333Y-14079762D01*
X13703095Y-14098809D01*
X13865000Y-14241667D02*
X13874524Y-14232143D01*
X13893571Y-14203571D01*
X13903095Y-14184524D01*
X13912619Y-14155952D01*
X13922143Y-14108333D01*
X13922143Y-14070238D01*
X13912619Y-14022619D01*
X13903095Y-13994048D01*
X13893571Y-13975000D01*
X13874524Y-13946428D01*
X13865000Y-13936905D01*
D16*
X9085000Y-14260000D02*
X9255000Y-14430000D01*
X9255000Y-14260000D02*
X9085000Y-14430000D01*
X9170000Y-14260000D02*
X9170000Y-14430000D01*
X9085000Y-14345000D02*
X9255000Y-14345000D01*
D11*
X9617381Y-14435476D02*
X9503095Y-14435476D01*
X9560238Y-14435476D02*
X9560238Y-14235476D01*
X9541190Y-14264048D01*
X9522143Y-14283095D01*
X9503095Y-14292619D01*
X9703095Y-14416428D02*
X9712619Y-14425952D01*
X9703095Y-14435476D01*
X9693571Y-14425952D01*
X9703095Y-14416428D01*
X9703095Y-14435476D01*
X9779286Y-14235476D02*
X9912619Y-14235476D01*
X9826905Y-14435476D01*
X10026905Y-14235476D02*
X10045952Y-14235476D01*
X10065000Y-14245000D01*
X10074524Y-14254524D01*
X10084048Y-14273571D01*
X10093571Y-14311667D01*
X10093571Y-14359286D01*
X10084048Y-14397381D01*
X10074524Y-14416428D01*
X10065000Y-14425952D01*
X10045952Y-14435476D01*
X10026905Y-14435476D01*
X10007857Y-14425952D01*
X9998333Y-14416428D01*
X9988810Y-14397381D01*
X9979286Y-14359286D01*
X9979286Y-14311667D01*
X9988810Y-14273571D01*
X9998333Y-14254524D01*
X10007857Y-14245000D01*
X10026905Y-14235476D01*
X10217381Y-14235476D02*
X10236429Y-14235476D01*
X10255476Y-14245000D01*
X10265000Y-14254524D01*
X10274524Y-14273571D01*
X10284048Y-14311667D01*
X10284048Y-14359286D01*
X10274524Y-14397381D01*
X10265000Y-14416428D01*
X10255476Y-14425952D01*
X10236429Y-14435476D01*
X10217381Y-14435476D01*
X10198333Y-14425952D01*
X10188810Y-14416428D01*
X10179286Y-14397381D01*
X10169762Y-14359286D01*
X10169762Y-14311667D01*
X10179286Y-14273571D01*
X10188810Y-14254524D01*
X10198333Y-14245000D01*
X10217381Y-14235476D01*
X10369762Y-14435476D02*
X10369762Y-14302143D01*
X10369762Y-14321190D02*
X10379286Y-14311667D01*
X10398333Y-14302143D01*
X10426905Y-14302143D01*
X10445952Y-14311667D01*
X10455476Y-14330714D01*
X10455476Y-14435476D01*
X10455476Y-14330714D02*
X10465000Y-14311667D01*
X10484048Y-14302143D01*
X10512619Y-14302143D01*
X10531667Y-14311667D01*
X10541190Y-14330714D01*
X10541190Y-14435476D01*
X10636429Y-14435476D02*
X10636429Y-14302143D01*
X10636429Y-14321190D02*
X10645952Y-14311667D01*
X10665000Y-14302143D01*
X10693571Y-14302143D01*
X10712619Y-14311667D01*
X10722143Y-14330714D01*
X10722143Y-14435476D01*
X10722143Y-14330714D02*
X10731667Y-14311667D01*
X10750714Y-14302143D01*
X10779286Y-14302143D01*
X10798333Y-14311667D01*
X10807857Y-14330714D01*
X10807857Y-14435476D01*
X11198333Y-14225952D02*
X11026905Y-14483095D01*
X11455476Y-14235476D02*
X11474524Y-14235476D01*
X11493571Y-14245000D01*
X11503095Y-14254524D01*
X11512619Y-14273571D01*
X11522143Y-14311667D01*
X11522143Y-14359286D01*
X11512619Y-14397381D01*
X11503095Y-14416428D01*
X11493571Y-14425952D01*
X11474524Y-14435476D01*
X11455476Y-14435476D01*
X11436428Y-14425952D01*
X11426905Y-14416428D01*
X11417381Y-14397381D01*
X11407857Y-14359286D01*
X11407857Y-14311667D01*
X11417381Y-14273571D01*
X11426905Y-14254524D01*
X11436428Y-14245000D01*
X11455476Y-14235476D01*
X11607857Y-14416428D02*
X11617381Y-14425952D01*
X11607857Y-14435476D01*
X11598333Y-14425952D01*
X11607857Y-14416428D01*
X11607857Y-14435476D01*
X11741190Y-14235476D02*
X11760238Y-14235476D01*
X11779286Y-14245000D01*
X11788809Y-14254524D01*
X11798333Y-14273571D01*
X11807857Y-14311667D01*
X11807857Y-14359286D01*
X11798333Y-14397381D01*
X11788809Y-14416428D01*
X11779286Y-14425952D01*
X11760238Y-14435476D01*
X11741190Y-14435476D01*
X11722143Y-14425952D01*
X11712619Y-14416428D01*
X11703095Y-14397381D01*
X11693571Y-14359286D01*
X11693571Y-14311667D01*
X11703095Y-14273571D01*
X11712619Y-14254524D01*
X11722143Y-14245000D01*
X11741190Y-14235476D01*
X11979286Y-14235476D02*
X11941190Y-14235476D01*
X11922143Y-14245000D01*
X11912619Y-14254524D01*
X11893571Y-14283095D01*
X11884048Y-14321190D01*
X11884048Y-14397381D01*
X11893571Y-14416428D01*
X11903095Y-14425952D01*
X11922143Y-14435476D01*
X11960238Y-14435476D01*
X11979286Y-14425952D01*
X11988809Y-14416428D01*
X11998333Y-14397381D01*
X11998333Y-14349762D01*
X11988809Y-14330714D01*
X11979286Y-14321190D01*
X11960238Y-14311667D01*
X11922143Y-14311667D01*
X11903095Y-14321190D01*
X11893571Y-14330714D01*
X11884048Y-14349762D01*
X12169762Y-14235476D02*
X12131667Y-14235476D01*
X12112619Y-14245000D01*
X12103095Y-14254524D01*
X12084048Y-14283095D01*
X12074524Y-14321190D01*
X12074524Y-14397381D01*
X12084048Y-14416428D01*
X12093571Y-14425952D01*
X12112619Y-14435476D01*
X12150714Y-14435476D01*
X12169762Y-14425952D01*
X12179286Y-14416428D01*
X12188809Y-14397381D01*
X12188809Y-14349762D01*
X12179286Y-14330714D01*
X12169762Y-14321190D01*
X12150714Y-14311667D01*
X12112619Y-14311667D01*
X12093571Y-14321190D01*
X12084048Y-14330714D01*
X12074524Y-14349762D01*
X12284048Y-14435476D02*
X12322143Y-14435476D01*
X12341190Y-14425952D01*
X12350714Y-14416428D01*
X12369762Y-14387857D01*
X12379286Y-14349762D01*
X12379286Y-14273571D01*
X12369762Y-14254524D01*
X12360238Y-14245000D01*
X12341190Y-14235476D01*
X12303095Y-14235476D01*
X12284048Y-14245000D01*
X12274524Y-14254524D01*
X12265000Y-14273571D01*
X12265000Y-14321190D01*
X12274524Y-14340238D01*
X12284048Y-14349762D01*
X12303095Y-14359286D01*
X12341190Y-14359286D01*
X12360238Y-14349762D01*
X12369762Y-14340238D01*
X12379286Y-14321190D01*
X12455476Y-14235476D02*
X12455476Y-14273571D01*
X12531667Y-14235476D02*
X12531667Y-14273571D01*
X12826905Y-14511667D02*
X12817381Y-14502143D01*
X12798333Y-14473571D01*
X12788809Y-14454524D01*
X12779286Y-14425952D01*
X12769762Y-14378333D01*
X12769762Y-14340238D01*
X12779286Y-14292619D01*
X12788809Y-14264048D01*
X12798333Y-14245000D01*
X12817381Y-14216428D01*
X12826905Y-14206905D01*
X12988809Y-14302143D02*
X12988809Y-14435476D01*
X12941190Y-14225952D02*
X12893571Y-14368809D01*
X13017381Y-14368809D01*
X13245952Y-14435476D02*
X13245952Y-14235476D01*
X13331667Y-14435476D02*
X13331667Y-14330714D01*
X13322143Y-14311667D01*
X13303095Y-14302143D01*
X13274524Y-14302143D01*
X13255476Y-14311667D01*
X13245952Y-14321190D01*
X13455476Y-14435476D02*
X13436428Y-14425952D01*
X13426905Y-14416428D01*
X13417381Y-14397381D01*
X13417381Y-14340238D01*
X13426905Y-14321190D01*
X13436428Y-14311667D01*
X13455476Y-14302143D01*
X13484048Y-14302143D01*
X13503095Y-14311667D01*
X13512619Y-14321190D01*
X13522143Y-14340238D01*
X13522143Y-14397381D01*
X13512619Y-14416428D01*
X13503095Y-14425952D01*
X13484048Y-14435476D01*
X13455476Y-14435476D01*
X13636428Y-14435476D02*
X13617381Y-14425952D01*
X13607857Y-14406905D01*
X13607857Y-14235476D01*
X13788809Y-14425952D02*
X13769762Y-14435476D01*
X13731667Y-14435476D01*
X13712619Y-14425952D01*
X13703095Y-14406905D01*
X13703095Y-14330714D01*
X13712619Y-14311667D01*
X13731667Y-14302143D01*
X13769762Y-14302143D01*
X13788809Y-14311667D01*
X13798333Y-14330714D01*
X13798333Y-14349762D01*
X13703095Y-14368809D01*
X13874524Y-14425952D02*
X13893571Y-14435476D01*
X13931667Y-14435476D01*
X13950714Y-14425952D01*
X13960238Y-14406905D01*
X13960238Y-14397381D01*
X13950714Y-14378333D01*
X13931667Y-14368809D01*
X13903095Y-14368809D01*
X13884048Y-14359286D01*
X13874524Y-14340238D01*
X13874524Y-14330714D01*
X13884048Y-14311667D01*
X13903095Y-14302143D01*
X13931667Y-14302143D01*
X13950714Y-14311667D01*
X14026905Y-14511667D02*
X14036428Y-14502143D01*
X14055476Y-14473571D01*
X14065000Y-14454524D01*
X14074524Y-14425952D01*
X14084048Y-14378333D01*
X14084048Y-14340238D01*
X14074524Y-14292619D01*
X14065000Y-14264048D01*
X14055476Y-14245000D01*
X14036428Y-14216428D01*
X14026905Y-14206905D01*
M02*
