%TF.GenerationSoftware,KiCad,Pcbnew,(6.0.7)*%
%TF.CreationDate,2022-08-23T02:17:12-04:00*%
%TF.ProjectId,PicoPilot,5069636f-5069-46c6-9f74-2e6b69636164,rev?*%
%TF.SameCoordinates,Original*%
%TF.FileFunction,Copper,L1,Top*%
%TF.FilePolarity,Positive*%
%FSLAX46Y46*%
G04 Gerber Fmt 4.6, Leading zero omitted, Abs format (unit mm)*
G04 Created by KiCad (PCBNEW (6.0.7)) date 2022-08-23 02:17:12*
%MOMM*%
%LPD*%
G01*
G04 APERTURE LIST*
%TA.AperFunction,NonConductor*%
%ADD10C,0.200000*%
%TD*%
%TA.AperFunction,ComponentPad*%
%ADD11O,1.700000X1.700000*%
%TD*%
%TA.AperFunction,ComponentPad*%
%ADD12R,1.700000X1.700000*%
%TD*%
%TA.AperFunction,SMDPad,CuDef*%
%ADD13R,1.700000X3.500000*%
%TD*%
%TA.AperFunction,SMDPad,CuDef*%
%ADD14R,3.500000X1.700000*%
%TD*%
%TA.AperFunction,ViaPad*%
%ADD15C,0.800000*%
%TD*%
%TA.AperFunction,Conductor*%
%ADD16C,0.250000*%
%TD*%
G04 APERTURE END LIST*
D10*
X180234078Y-149835321D02*
G75*
G03*
X185420739Y-144648660I0J5186661D01*
G01*
X104140000Y-144780000D02*
G75*
G03*
X109220000Y-149860000I5080000J0D01*
G01*
X109220000Y-43180000D02*
G75*
G03*
X104140000Y-48260000I0J-5080000D01*
G01*
X185420000Y-48216220D02*
G75*
G03*
X180340000Y-43136220I-5080000J0D01*
G01*
X109220000Y-43136220D02*
X180340000Y-43136220D01*
X104140000Y-144780000D02*
X104140000Y-48260000D01*
X180234078Y-149835321D02*
X109220000Y-149816220D01*
X185419631Y-48260000D02*
X185420739Y-144648660D01*
D11*
%TO.P,P5,3,Pin_3*%
%TO.N,PWM5*%
X116825000Y-145485000D03*
%TO.P,P5,2,Pin_2*%
%TO.N,5v5*%
X119365000Y-145485000D03*
D12*
%TO.P,P5,1,Pin_1*%
%TO.N,GND*%
X121905000Y-145485000D03*
%TD*%
D11*
%TO.P,P4,3,Pin_3*%
%TO.N,PWM4*%
X129525000Y-145485000D03*
%TO.P,P4,2,Pin_2*%
%TO.N,5v5*%
X132065000Y-145485000D03*
D12*
%TO.P,P4,1,Pin_1*%
%TO.N,GND*%
X134605000Y-145485000D03*
%TD*%
D11*
%TO.P,P3,3,Pin_3*%
%TO.N,PWM3*%
X142240000Y-145485000D03*
%TO.P,P3,2,Pin_2*%
%TO.N,5v5*%
X144780000Y-145485000D03*
D12*
%TO.P,P3,1,Pin_1*%
%TO.N,GND*%
X147320000Y-145485000D03*
%TD*%
D11*
%TO.P,P2,3,Pin_3*%
%TO.N,PWM2*%
X154925000Y-145485000D03*
%TO.P,P2,2,Pin_2*%
%TO.N,5v5*%
X157465000Y-145485000D03*
D12*
%TO.P,P2,1,Pin_1*%
%TO.N,GND*%
X160005000Y-145485000D03*
%TD*%
D11*
%TO.P,P1,3,Pin_3*%
%TO.N,PWM1*%
X167625000Y-145485000D03*
%TO.P,P1,2,Pin_2*%
%TO.N,5v5*%
X170165000Y-145485000D03*
D12*
%TO.P,P1,1,Pin_1*%
%TO.N,GND*%
X172705000Y-145485000D03*
%TD*%
D11*
%TO.P,U1,1,GPIO0*%
%TO.N,SDA*%
X118110000Y-125730000D03*
D13*
X118110000Y-126630000D03*
D11*
%TO.P,U1,2,GPIO1*%
%TO.N,SDC*%
X120650000Y-125730000D03*
D13*
X120650000Y-126630000D03*
%TO.P,U1,3,GND*%
%TO.N,unconnected-(U1-Pad3)*%
X123190000Y-126630000D03*
D12*
X123190000Y-125730000D03*
D11*
%TO.P,U1,4,GPIO2*%
%TO.N,unconnected-(U1-Pad4)*%
X125730000Y-125730000D03*
D13*
X125730000Y-126630000D03*
D11*
%TO.P,U1,5,GPIO3*%
%TO.N,unconnected-(U1-Pad5)*%
X128270000Y-125730000D03*
D13*
X128270000Y-126630000D03*
D11*
%TO.P,U1,6,GPIO4*%
%TO.N,UART1 TX*%
X130810000Y-125730000D03*
D13*
X130810000Y-126630000D03*
%TO.P,U1,7,GPIO5*%
%TO.N,UART1 RX*%
X133350000Y-126630000D03*
D11*
X133350000Y-125730000D03*
D12*
%TO.P,U1,8,GND*%
%TO.N,unconnected-(U1-Pad8)*%
X135890000Y-125730000D03*
D13*
X135890000Y-126630000D03*
%TO.P,U1,9,GPIO6*%
%TO.N,PWM1*%
X138430000Y-126630000D03*
D11*
X138430000Y-125730000D03*
%TO.P,U1,10,GPIO7*%
%TO.N,unconnected-(U1-Pad10)*%
X140970000Y-125730000D03*
D13*
X140970000Y-126630000D03*
%TO.P,U1,11,GPIO8*%
%TO.N,PWM2*%
X143510000Y-126630000D03*
D11*
X143510000Y-125730000D03*
%TO.P,U1,12,GPIO9*%
%TO.N,unconnected-(U1-Pad12)*%
X146050000Y-125730000D03*
D13*
X146050000Y-126630000D03*
D12*
%TO.P,U1,13,GND*%
%TO.N,unconnected-(U1-Pad13)*%
X148590000Y-125730000D03*
D13*
X148590000Y-126630000D03*
%TO.P,U1,14,GPIO10*%
%TO.N,PWM3*%
X151130000Y-126630000D03*
D11*
X151130000Y-125730000D03*
%TO.P,U1,15,GPIO11*%
%TO.N,unconnected-(U1-Pad15)*%
X153670000Y-125730000D03*
D13*
X153670000Y-126630000D03*
%TO.P,U1,16,GPIO12*%
%TO.N,UART0 TX*%
X156210000Y-126630000D03*
D11*
X156210000Y-125730000D03*
D13*
%TO.P,U1,17,GPIO13*%
%TO.N,UART0 RX*%
X158750000Y-126630000D03*
D11*
X158750000Y-125730000D03*
D13*
%TO.P,U1,18,GND*%
%TO.N,unconnected-(U1-Pad18)*%
X161290000Y-126630000D03*
D12*
X161290000Y-125730000D03*
D11*
%TO.P,U1,19,GPIO14*%
%TO.N,PWM4*%
X163830000Y-125730000D03*
D13*
X163830000Y-126630000D03*
%TO.P,U1,20,GPIO15*%
%TO.N,unconnected-(U1-Pad20)*%
X166370000Y-126630000D03*
D11*
X166370000Y-125730000D03*
D13*
%TO.P,U1,21,GPIO16*%
%TO.N,unconnected-(U1-Pad21)*%
X166370000Y-107050000D03*
D11*
X166370000Y-107950000D03*
D13*
%TO.P,U1,22,GPIO17*%
%TO.N,unconnected-(U1-Pad22)*%
X163830000Y-107050000D03*
D11*
X163830000Y-107950000D03*
D13*
%TO.P,U1,23,GND*%
%TO.N,unconnected-(U1-Pad23)*%
X161290000Y-107050000D03*
D12*
X161290000Y-107950000D03*
D11*
%TO.P,U1,24,GPIO18*%
%TO.N,unconnected-(U1-Pad24)*%
X158750000Y-107950000D03*
D13*
X158750000Y-107050000D03*
%TO.P,U1,25,GPIO19*%
%TO.N,unconnected-(U1-Pad25)*%
X156210000Y-107050000D03*
D11*
X156210000Y-107950000D03*
D13*
%TO.P,U1,26,GPIO20*%
%TO.N,unconnected-(U1-Pad26)*%
X153670000Y-107050000D03*
D11*
X153670000Y-107950000D03*
%TO.P,U1,27,GPIO21*%
%TO.N,unconnected-(U1-Pad27)*%
X151130000Y-107950000D03*
D13*
X151130000Y-107050000D03*
D12*
%TO.P,U1,28,GND*%
%TO.N,unconnected-(U1-Pad28)*%
X148590000Y-107950000D03*
D13*
X148590000Y-107050000D03*
D11*
%TO.P,U1,29,GPIO22*%
%TO.N,unconnected-(U1-Pad29)*%
X146050000Y-107950000D03*
D13*
X146050000Y-107050000D03*
%TO.P,U1,30,RUN*%
%TO.N,unconnected-(U1-Pad30)*%
X143510000Y-107050000D03*
D11*
X143510000Y-107950000D03*
%TO.P,U1,31,GPIO26_ADC0*%
%TO.N,PWM5*%
X140970000Y-107950000D03*
D13*
X140970000Y-107050000D03*
D11*
%TO.P,U1,32,GPIO27_ADC1*%
%TO.N,unconnected-(U1-Pad32)*%
X138430000Y-107950000D03*
D13*
X138430000Y-107050000D03*
%TO.P,U1,33,AGND*%
%TO.N,unconnected-(U1-Pad33)*%
X135890000Y-107050000D03*
D12*
X135890000Y-107950000D03*
D13*
%TO.P,U1,34,GPIO28_ADC2*%
%TO.N,unconnected-(U1-Pad34)*%
X133350000Y-107050000D03*
D11*
X133350000Y-107950000D03*
D13*
%TO.P,U1,35,ADC_VREF*%
%TO.N,unconnected-(U1-Pad35)*%
X130810000Y-107050000D03*
D11*
X130810000Y-107950000D03*
%TO.P,U1,36,3V3*%
%TO.N,3v3*%
X128270000Y-107950000D03*
D13*
X128270000Y-107050000D03*
%TO.P,U1,37,3V3_EN*%
%TO.N,unconnected-(U1-Pad37)*%
X125730000Y-107050000D03*
D11*
X125730000Y-107950000D03*
D13*
%TO.P,U1,38,GND*%
%TO.N,GND*%
X123190000Y-107050000D03*
D12*
X123190000Y-107950000D03*
D13*
%TO.P,U1,39,VSYS*%
%TO.N,unconnected-(U1-Pad39)*%
X120650000Y-107050000D03*
D11*
X120650000Y-107950000D03*
%TO.P,U1,40,VBUS*%
%TO.N,unconnected-(U1-Pad40)*%
X118110000Y-107950000D03*
D13*
X118110000Y-107050000D03*
D14*
%TO.P,U1,41,SWCLK*%
%TO.N,unconnected-(U1-Pad41)*%
X167040000Y-119380000D03*
D11*
X166140000Y-119380000D03*
D12*
%TO.P,U1,42,GND*%
%TO.N,unconnected-(U1-Pad42)*%
X166140000Y-116840000D03*
D14*
X167040000Y-116840000D03*
D11*
%TO.P,U1,43,SWDIO*%
%TO.N,unconnected-(U1-Pad43)*%
X166140000Y-114300000D03*
D14*
X167040000Y-114300000D03*
%TD*%
D12*
%TO.P,P6,1,Pin_1*%
%TO.N,5v5*%
X180340000Y-119380000D03*
D11*
%TO.P,P6,2,Pin_2*%
%TO.N,GND*%
X180340000Y-121920000D03*
%TD*%
D12*
%TO.P,J7,1,Pin_1*%
%TO.N,3v3*%
X124460000Y-48260000D03*
D11*
%TO.P,J7,2,Pin_2*%
%TO.N,GND*%
X124460000Y-50800000D03*
%TO.P,J7,3,Pin_3*%
%TO.N,SDC*%
X124460000Y-53340000D03*
%TO.P,J7,4,Pin_4*%
%TO.N,SDA*%
X124460000Y-55880000D03*
%TO.P,J7,5,Pin_5*%
%TO.N,unconnected-(J7-Pad5)*%
X124460000Y-58420000D03*
%TO.P,J7,6,Pin_6*%
%TO.N,unconnected-(J7-Pad6)*%
X124460000Y-60960000D03*
%TO.P,J7,7,Pin_7*%
%TO.N,unconnected-(J7-Pad7)*%
X124460000Y-63500000D03*
%TD*%
D12*
%TO.P,J5,1,Pin_1*%
%TO.N,3v3*%
X157480000Y-71120000D03*
D11*
%TO.P,J5,2,Pin_2*%
%TO.N,GND*%
X160020000Y-71120000D03*
%TO.P,J5,3,Pin_3*%
%TO.N,UART1 TX*%
X162560000Y-71120000D03*
%TO.P,J5,4,Pin_4*%
%TO.N,UART1 RX*%
X165100000Y-71120000D03*
%TO.P,J5,5,Pin_5*%
%TO.N,unconnected-(J5-Pad5)*%
X167640000Y-71120000D03*
%TD*%
D12*
%TO.P,J4,1,Pin_1*%
%TO.N,3v3*%
X121920000Y-71120000D03*
D11*
%TO.P,J4,2,Pin_2*%
%TO.N,GND*%
X124460000Y-71120000D03*
%TO.P,J4,3,Pin_3*%
%TO.N,SDC*%
X127000000Y-71120000D03*
%TO.P,J4,4,Pin_4*%
%TO.N,SDA*%
X129540000Y-71120000D03*
%TD*%
%TO.P,J2,2,Pin_2*%
%TO.N,UART0 TX*%
X180340000Y-109160000D03*
D12*
%TO.P,J2,1,Pin_1*%
%TO.N,UART0 RX*%
X180340000Y-111700000D03*
%TD*%
D15*
%TO.N,PWM2*%
X144693804Y-130264500D03*
%TO.N,5v5*%
X170180000Y-147320000D03*
X119380000Y-147320000D03*
X132080000Y-147320000D03*
X144780000Y-147320000D03*
X157480000Y-147320000D03*
%TO.N,PWM2*%
X154940000Y-142240000D03*
%TO.N,5v5*%
X180340000Y-124460000D03*
X170180000Y-142240000D03*
%TO.N,PWM1*%
X167640000Y-142240000D03*
%TO.N,PWM3*%
X142240000Y-142240000D03*
%TO.N,PWM4*%
X129540000Y-142240000D03*
%TO.N,PWM5*%
X116840000Y-142240000D03*
%TO.N,SDC*%
X124460000Y-116840000D03*
X129540000Y-73660000D03*
X127000000Y-68580000D03*
X127000000Y-55880000D03*
%TO.N,SDA*%
X121920000Y-55880000D03*
X116840000Y-124460000D03*
%TO.N,3v3*%
X154940000Y-71120000D03*
X119380000Y-71120000D03*
X121920000Y-73660000D03*
X127000000Y-104140000D03*
%TO.N,PWM4*%
X162560000Y-129540000D03*
%TO.N,PWM3*%
X152400000Y-132080000D03*
%TO.N,PWM5*%
X129540000Y-114300000D03*
%TO.N,UART1 TX*%
X162560000Y-76200000D03*
X132080000Y-121920000D03*
%TO.N,UART1 RX*%
X165100000Y-76200000D03*
X134620000Y-121920000D03*
%TD*%
D16*
%TO.N,PWM2*%
X143510000Y-125730000D02*
X143510000Y-129080696D01*
X143510000Y-129080696D02*
X144693804Y-130264500D01*
%TO.N,UART0 RX*%
X157480000Y-124460000D02*
X158750000Y-125730000D01*
X157480000Y-112396396D02*
X157480000Y-124460000D01*
X158176396Y-111700000D02*
X157480000Y-112396396D01*
X180340000Y-111700000D02*
X158176396Y-111700000D01*
%TO.N,UART0 TX*%
X157990000Y-111250000D02*
X157480000Y-111760000D01*
X163010000Y-111250000D02*
X157990000Y-111250000D01*
%TO.N,GND*%
X167655000Y-134605000D02*
X167655000Y-135300000D01*
X180340000Y-121920000D02*
X167655000Y-134605000D01*
X172705000Y-140350000D02*
X167655000Y-135300000D01*
X172705000Y-145485000D02*
X172705000Y-140350000D01*
%TO.N,5v5*%
X170165000Y-147305000D02*
X170180000Y-147320000D01*
X170165000Y-145485000D02*
X170165000Y-147305000D01*
X119380000Y-145500000D02*
X119365000Y-145485000D01*
X119380000Y-147320000D02*
X119380000Y-145500000D01*
X132080000Y-145500000D02*
X132065000Y-145485000D01*
X132080000Y-147320000D02*
X132080000Y-145500000D01*
X144780000Y-147320000D02*
X144780000Y-145485000D01*
X157480000Y-147320000D02*
X157480000Y-145500000D01*
X157480000Y-145500000D02*
X157465000Y-145485000D01*
%TO.N,PWM2*%
X154925000Y-142255000D02*
X154925000Y-145485000D01*
X154940000Y-142240000D02*
X154925000Y-142255000D01*
%TO.N,5v5*%
X180340000Y-124460000D02*
X181515000Y-123285000D01*
X170165000Y-142255000D02*
X170180000Y-142240000D01*
X170165000Y-145485000D02*
X170165000Y-142255000D01*
%TO.N,PWM1*%
X167625000Y-142255000D02*
X167625000Y-145485000D01*
X167640000Y-142240000D02*
X167625000Y-142255000D01*
%TO.N,PWM3*%
X142240000Y-142240000D02*
X142240000Y-145485000D01*
%TO.N,GND*%
X160005000Y-140350000D02*
X154955000Y-135300000D01*
X160005000Y-145485000D02*
X160005000Y-140350000D01*
X147320000Y-140365000D02*
X142255000Y-135300000D01*
X147320000Y-145485000D02*
X147320000Y-140365000D01*
X134605000Y-140350000D02*
X129555000Y-135300000D01*
X134605000Y-145485000D02*
X134605000Y-140350000D01*
%TO.N,PWM4*%
X129525000Y-142255000D02*
X129540000Y-142240000D01*
X129525000Y-145485000D02*
X129525000Y-142255000D01*
%TO.N,GND*%
X120075000Y-132080000D02*
X114300000Y-132080000D01*
X121905000Y-139685000D02*
X121905000Y-145485000D01*
X114300000Y-132080000D02*
X121905000Y-139685000D01*
X114300000Y-121920000D02*
X114300000Y-132080000D01*
X121920000Y-121920000D02*
X114300000Y-121920000D01*
X123190000Y-120650000D02*
X121920000Y-121920000D01*
X123190000Y-107950000D02*
X123190000Y-120650000D01*
%TO.N,PWM5*%
X116825000Y-142255000D02*
X116825000Y-145485000D01*
X116840000Y-142240000D02*
X116825000Y-142255000D01*
%TO.N,SDC*%
X124460000Y-121920000D02*
X120650000Y-125730000D01*
X124460000Y-116840000D02*
X124460000Y-121920000D01*
X127000000Y-71120000D02*
X129540000Y-73660000D01*
X127000000Y-68580000D02*
X127000000Y-71120000D01*
X124460000Y-53340000D02*
X127000000Y-55880000D01*
%TO.N,SDA*%
X129540000Y-60960000D02*
X129540000Y-71120000D01*
X124460000Y-55880000D02*
X129540000Y-60960000D01*
X121920000Y-55880000D02*
X124460000Y-55880000D01*
X118110000Y-125730000D02*
X116840000Y-124460000D01*
%TO.N,3v3*%
X154940000Y-71120000D02*
X157480000Y-71120000D01*
X121920000Y-71120000D02*
X119380000Y-71120000D01*
X118930000Y-66226396D02*
X118930000Y-48710000D01*
X119380000Y-48260000D02*
X124460000Y-48260000D01*
X121920000Y-69216396D02*
X118930000Y-66226396D01*
X118930000Y-48710000D02*
X119380000Y-48260000D01*
X121920000Y-71120000D02*
X121920000Y-69216396D01*
X121920000Y-73660000D02*
X121920000Y-71120000D01*
X128270000Y-105410000D02*
X127000000Y-104140000D01*
X128270000Y-107950000D02*
X128270000Y-105410000D01*
%TO.N,PWM4*%
X162560000Y-129540000D02*
X162560000Y-127000000D01*
X162560000Y-127000000D02*
X163830000Y-125730000D01*
%TO.N,PWM3*%
X152400000Y-132080000D02*
X151130000Y-130810000D01*
X151130000Y-130810000D02*
X151130000Y-125730000D01*
%TO.N,PWM5*%
X134620000Y-114300000D02*
X140970000Y-107950000D01*
X129540000Y-114300000D02*
X134620000Y-114300000D01*
%TO.N,UART1 TX*%
X162560000Y-76200000D02*
X162560000Y-71120000D01*
X132080000Y-124460000D02*
X132080000Y-121920000D01*
X130810000Y-125730000D02*
X132080000Y-124460000D01*
%TO.N,UART1 RX*%
X134620000Y-124460000D02*
X134620000Y-121920000D01*
X133350000Y-125730000D02*
X134620000Y-124460000D01*
X165100000Y-71120000D02*
X165100000Y-76200000D01*
%TO.N,UART0 TX*%
X178250000Y-111250000D02*
X180340000Y-109160000D01*
X157030000Y-112210000D02*
X157930000Y-111310000D01*
X157030000Y-124646396D02*
X157030000Y-112210000D01*
X163010000Y-111250000D02*
X178250000Y-111250000D01*
X157161802Y-124778198D02*
X157030000Y-124646396D01*
X156210000Y-125730000D02*
X157161802Y-124778198D01*
%TO.N,GND*%
X129540000Y-76200000D02*
X124460000Y-71120000D01*
X160020000Y-73660000D02*
X157480000Y-76200000D01*
X157480000Y-76200000D02*
X129540000Y-76200000D01*
X160020000Y-71120000D02*
X160020000Y-73660000D01*
X119380000Y-66040000D02*
X124460000Y-71120000D01*
X119380000Y-50800000D02*
X119380000Y-66040000D01*
X124460000Y-50800000D02*
X119380000Y-50800000D01*
X123190000Y-105410000D02*
X124460000Y-104140000D01*
X123190000Y-107950000D02*
X123190000Y-105410000D01*
X124460000Y-104140000D02*
X124460000Y-71120000D01*
X162560000Y-132080000D02*
X158175000Y-132080000D01*
X165780000Y-135300000D02*
X162560000Y-132080000D01*
X167655000Y-135300000D02*
X165780000Y-135300000D01*
X158175000Y-132080000D02*
X154955000Y-135300000D01*
X124460000Y-132080000D02*
X120075000Y-132080000D01*
X127680000Y-135300000D02*
X124460000Y-132080000D01*
X129555000Y-135300000D02*
X127680000Y-135300000D01*
X132775000Y-132080000D02*
X129555000Y-135300000D01*
X137160000Y-132080000D02*
X132775000Y-132080000D01*
X140380000Y-135300000D02*
X137160000Y-132080000D01*
X142255000Y-135300000D02*
X140380000Y-135300000D01*
X145475000Y-132080000D02*
X142255000Y-135300000D01*
X149860000Y-132080000D02*
X145475000Y-132080000D01*
X153080000Y-135300000D02*
X149860000Y-132080000D01*
X154955000Y-135300000D02*
X153080000Y-135300000D01*
%TO.N,5v5*%
X181515000Y-120555000D02*
X181515000Y-123285000D01*
X180340000Y-119380000D02*
X181515000Y-120555000D01*
%TD*%
M02*
