%TF.GenerationSoftware,KiCad,Pcbnew,(6.0.7)*%
%TF.CreationDate,2022-11-19T04:14:00-05:00*%
%TF.ProjectId,picopilotv1,7069636f-7069-46c6-9f74-76312e6b6963,rev?*%
%TF.SameCoordinates,Original*%
%TF.FileFunction,Copper,L1,Top*%
%TF.FilePolarity,Positive*%
%FSLAX46Y46*%
G04 Gerber Fmt 4.6, Leading zero omitted, Abs format (unit mm)*
G04 Created by KiCad (PCBNEW (6.0.7)) date 2022-11-19 04:14:00*
%MOMM*%
%LPD*%
G01*
G04 APERTURE LIST*
G04 Aperture macros list*
%AMRoundRect*
0 Rectangle with rounded corners*
0 $1 Rounding radius*
0 $2 $3 $4 $5 $6 $7 $8 $9 X,Y pos of 4 corners*
0 Add a 4 corners polygon primitive as box body*
4,1,4,$2,$3,$4,$5,$6,$7,$8,$9,$2,$3,0*
0 Add four circle primitives for the rounded corners*
1,1,$1+$1,$2,$3*
1,1,$1+$1,$4,$5*
1,1,$1+$1,$6,$7*
1,1,$1+$1,$8,$9*
0 Add four rect primitives between the rounded corners*
20,1,$1+$1,$2,$3,$4,$5,0*
20,1,$1+$1,$4,$5,$6,$7,0*
20,1,$1+$1,$6,$7,$8,$9,0*
20,1,$1+$1,$8,$9,$2,$3,0*%
G04 Aperture macros list end*
%TA.AperFunction,SMDPad,CuDef*%
%ADD10RoundRect,0.250000X0.375000X0.625000X-0.375000X0.625000X-0.375000X-0.625000X0.375000X-0.625000X0*%
%TD*%
%TA.AperFunction,SMDPad,CuDef*%
%ADD11RoundRect,0.140000X0.140000X0.170000X-0.140000X0.170000X-0.140000X-0.170000X0.140000X-0.170000X0*%
%TD*%
%TA.AperFunction,SMDPad,CuDef*%
%ADD12RoundRect,0.250000X-0.250000X-0.475000X0.250000X-0.475000X0.250000X0.475000X-0.250000X0.475000X0*%
%TD*%
%TA.AperFunction,SMDPad,CuDef*%
%ADD13RoundRect,0.140000X0.170000X-0.140000X0.170000X0.140000X-0.170000X0.140000X-0.170000X-0.140000X0*%
%TD*%
%TA.AperFunction,SMDPad,CuDef*%
%ADD14RoundRect,0.140000X-0.140000X-0.170000X0.140000X-0.170000X0.140000X0.170000X-0.140000X0.170000X0*%
%TD*%
%TA.AperFunction,SMDPad,CuDef*%
%ADD15RoundRect,0.250000X-0.625000X0.375000X-0.625000X-0.375000X0.625000X-0.375000X0.625000X0.375000X0*%
%TD*%
%TA.AperFunction,SMDPad,CuDef*%
%ADD16R,0.450000X0.300000*%
%TD*%
%TA.AperFunction,SMDPad,CuDef*%
%ADD17R,0.300000X0.450000*%
%TD*%
%TA.AperFunction,SMDPad,CuDef*%
%ADD18R,2.000000X1.500000*%
%TD*%
%TA.AperFunction,SMDPad,CuDef*%
%ADD19R,2.000000X3.800000*%
%TD*%
%TA.AperFunction,SMDPad,CuDef*%
%ADD20R,5.600000X2.100000*%
%TD*%
%TA.AperFunction,ComponentPad*%
%ADD21R,1.700000X1.700000*%
%TD*%
%TA.AperFunction,ComponentPad*%
%ADD22O,1.700000X1.700000*%
%TD*%
%TA.AperFunction,SMDPad,CuDef*%
%ADD23RoundRect,0.006000X0.094000X-0.414000X0.094000X0.414000X-0.094000X0.414000X-0.094000X-0.414000X0*%
%TD*%
%TA.AperFunction,SMDPad,CuDef*%
%ADD24RoundRect,0.020000X0.400000X-0.080000X0.400000X0.080000X-0.400000X0.080000X-0.400000X-0.080000X0*%
%TD*%
%TA.AperFunction,SMDPad,CuDef*%
%ADD25R,3.100000X3.100000*%
%TD*%
%TA.AperFunction,SMDPad,CuDef*%
%ADD26RoundRect,0.150000X0.150000X-0.650000X0.150000X0.650000X-0.150000X0.650000X-0.150000X-0.650000X0*%
%TD*%
%TA.AperFunction,SMDPad,CuDef*%
%ADD27RoundRect,0.218750X0.381250X-0.218750X0.381250X0.218750X-0.381250X0.218750X-0.381250X-0.218750X0*%
%TD*%
%TA.AperFunction,SMDPad,CuDef*%
%ADD28RoundRect,0.140000X-0.170000X0.140000X-0.170000X-0.140000X0.170000X-0.140000X0.170000X0.140000X0*%
%TD*%
%TA.AperFunction,SMDPad,CuDef*%
%ADD29RoundRect,0.075000X-0.075000X0.350000X-0.075000X-0.350000X0.075000X-0.350000X0.075000X0.350000X0*%
%TD*%
%TA.AperFunction,SMDPad,CuDef*%
%ADD30RoundRect,0.075000X0.350000X0.075000X-0.350000X0.075000X-0.350000X-0.075000X0.350000X-0.075000X0*%
%TD*%
%TA.AperFunction,SMDPad,CuDef*%
%ADD31RoundRect,0.250000X-0.475000X0.250000X-0.475000X-0.250000X0.475000X-0.250000X0.475000X0.250000X0*%
%TD*%
%TA.AperFunction,ComponentPad*%
%ADD32RoundRect,0.200100X0.949900X-0.949900X0.949900X0.949900X-0.949900X0.949900X-0.949900X-0.949900X0*%
%TD*%
%TA.AperFunction,ComponentPad*%
%ADD33C,2.500000*%
%TD*%
%TA.AperFunction,SMDPad,CuDef*%
%ADD34R,1.450000X0.600000*%
%TD*%
%TA.AperFunction,SMDPad,CuDef*%
%ADD35R,1.450000X0.300000*%
%TD*%
%TA.AperFunction,ComponentPad*%
%ADD36O,2.100000X1.000000*%
%TD*%
%TA.AperFunction,ComponentPad*%
%ADD37O,1.600000X1.000000*%
%TD*%
%TA.AperFunction,SMDPad,CuDef*%
%ADD38RoundRect,0.250000X0.475000X-0.250000X0.475000X0.250000X-0.475000X0.250000X-0.475000X-0.250000X0*%
%TD*%
%TA.AperFunction,SMDPad,CuDef*%
%ADD39RoundRect,0.250000X0.250000X0.475000X-0.250000X0.475000X-0.250000X-0.475000X0.250000X-0.475000X0*%
%TD*%
%TA.AperFunction,SMDPad,CuDef*%
%ADD40RoundRect,0.200000X0.200000X-0.700000X0.200000X0.700000X-0.200000X0.700000X-0.200000X-0.700000X0*%
%TD*%
%TA.AperFunction,ViaPad*%
%ADD41C,0.800000*%
%TD*%
%TA.AperFunction,Conductor*%
%ADD42C,0.250000*%
%TD*%
%TA.AperFunction,Conductor*%
%ADD43C,0.200000*%
%TD*%
%TA.AperFunction,Conductor*%
%ADD44C,0.700000*%
%TD*%
G04 APERTURE END LIST*
D10*
%TO.P,PWR,1,K*%
%TO.N,GND*%
X127892000Y-83566000D03*
%TO.P,PWR,2,A*%
%TO.N,Net-(D2-Pad2)*%
X125092000Y-83566000D03*
%TD*%
D11*
%TO.P,C8,1*%
%TO.N,+1V1*%
X110665200Y-100838000D03*
%TO.P,C8,2*%
%TO.N,GND*%
X109705200Y-100838000D03*
%TD*%
D12*
%TO.P,C19,1*%
%TO.N,Net-(C19-Pad1)*%
X122544800Y-102717600D03*
%TO.P,C19,2*%
%TO.N,GND*%
X124444800Y-102717600D03*
%TD*%
D13*
%TO.P,R1,1*%
%TO.N,/QSPI_SS*%
X103530400Y-90040400D03*
%TO.P,R1,2*%
%TO.N,/~{USB_BOOT}*%
X103530400Y-89080400D03*
%TD*%
D14*
%TO.P,C16,1*%
%TO.N,+3V3*%
X113972400Y-84632800D03*
%TO.P,C16,2*%
%TO.N,GND*%
X114932400Y-84632800D03*
%TD*%
D15*
%TO.P,D1,1,K*%
%TO.N,VBUS*%
X127254000Y-96898000D03*
%TO.P,D1,2,A*%
%TO.N,+5V*%
X127254000Y-99698000D03*
%TD*%
D16*
%TO.P,U5,1,SCL*%
%TO.N,/GPIO1*%
X123703000Y-100191000D03*
%TO.P,U5,2,AVDD*%
%TO.N,+3V3*%
X123703000Y-99691000D03*
%TO.P,U5,3,NC*%
%TO.N,unconnected-(U5-Pad3)*%
X123703000Y-99191000D03*
%TO.P,U5,4,NC*%
%TO.N,unconnected-(U5-Pad4)*%
X123703000Y-98691000D03*
D17*
%TO.P,U5,5,CAD0*%
%TO.N,unconnected-(U5-Pad5)*%
X123178000Y-98166000D03*
%TO.P,U5,6,CAD1*%
%TO.N,unconnected-(U5-Pad6)*%
X122678000Y-98166000D03*
%TO.P,U5,7,VPP*%
%TO.N,+3V3*%
X122178000Y-98166000D03*
%TO.P,U5,8,NC*%
%TO.N,unconnected-(U5-Pad8)*%
X121678000Y-98166000D03*
D16*
%TO.P,U5,9,VSS*%
%TO.N,GND*%
X121153000Y-98691000D03*
%TO.P,U5,10,C1*%
%TO.N,Net-(C19-Pad1)*%
X121153000Y-99191000D03*
%TO.P,U5,11,VSS*%
%TO.N,GND*%
X121153000Y-99691000D03*
%TO.P,U5,12,NC*%
%TO.N,unconnected-(U5-Pad12)*%
X121153000Y-100191000D03*
D17*
%TO.P,U5,13,DVDD*%
%TO.N,+3V3*%
X121678000Y-100716000D03*
%TO.P,U5,14,~{RST}*%
%TO.N,unconnected-(U5-Pad14)*%
X122178000Y-100716000D03*
%TO.P,U5,15,DRDY*%
%TO.N,unconnected-(U5-Pad15)*%
X122678000Y-100716000D03*
%TO.P,U5,16,SDA*%
%TO.N,/GPIO0*%
X123178000Y-100716000D03*
%TD*%
D18*
%TO.P,U1,1,GND*%
%TO.N,GND*%
X130454000Y-83552000D03*
%TO.P,U1,2,VO*%
%TO.N,+3V3*%
X130454000Y-85852000D03*
D19*
X136754000Y-85852000D03*
D18*
%TO.P,U1,3,VI*%
%TO.N,+5V*%
X130454000Y-88152000D03*
%TD*%
D13*
%TO.P,R14,1*%
%TO.N,Net-(J3-PadB5)*%
X128066800Y-93596400D03*
%TO.P,R14,2*%
%TO.N,GND*%
X128066800Y-92636400D03*
%TD*%
D11*
%TO.P,R4,2*%
%TO.N,Net-(R4-Pad2)*%
X111737200Y-98044000D03*
%TO.P,R4,1*%
%TO.N,/USB_D-*%
X112697200Y-98044000D03*
%TD*%
D20*
%TO.P,Y1,1,1*%
%TO.N,/XIN*%
X115498000Y-93980000D03*
%TO.P,Y1,2,2*%
%TO.N,Net-(C3-Pad1)*%
X106498000Y-93980000D03*
%TD*%
D21*
%TO.P,P4,1,Pin_1*%
%TO.N,GND*%
X125715000Y-110998000D03*
D22*
%TO.P,P4,2,Pin_2*%
%TO.N,+5V*%
X123175000Y-110998000D03*
%TO.P,P4,3,Pin_3*%
%TO.N,/GPIO9*%
X120635000Y-110998000D03*
%TD*%
D11*
%TO.P,R3,1*%
%TO.N,/USB_D+*%
X114729200Y-97180400D03*
%TO.P,R3,2*%
%TO.N,Net-(R3-Pad2)*%
X113769200Y-97180400D03*
%TD*%
%TO.P,R5,1*%
%TO.N,/XOUT*%
X119098000Y-98145600D03*
%TO.P,R5,2*%
%TO.N,Net-(C3-Pad1)*%
X118138000Y-98145600D03*
%TD*%
D23*
%TO.P,U3,1,IOVDD*%
%TO.N,+3V3*%
X112843000Y-106432000D03*
%TO.P,U3,2,GPIO0*%
%TO.N,/GPIO0*%
X113243000Y-106432000D03*
%TO.P,U3,3,GPIO1*%
%TO.N,/GPIO1*%
X113643000Y-106432000D03*
%TO.P,U3,4,GPIO2*%
%TO.N,/GPIO2*%
X114043000Y-106432000D03*
%TO.P,U3,5,GPIO3*%
%TO.N,/GPIO3*%
X114443000Y-106432000D03*
%TO.P,U3,6,GPIO4*%
%TO.N,/GPIO4*%
X114843000Y-106432000D03*
%TO.P,U3,7,GPIO5*%
%TO.N,/GPIO5*%
X115243000Y-106432000D03*
%TO.P,U3,8,GPIO6*%
%TO.N,/GPIO6*%
X115643000Y-106432000D03*
%TO.P,U3,9,GPIO7*%
%TO.N,/GPIO7*%
X116043000Y-106432000D03*
%TO.P,U3,10,IOVDD*%
%TO.N,+3V3*%
X116443000Y-106432000D03*
%TO.P,U3,11,GPIO8*%
%TO.N,/GPIO8*%
X116843000Y-106432000D03*
%TO.P,U3,12,GPIO9*%
%TO.N,/GPIO9*%
X117243000Y-106432000D03*
%TO.P,U3,13,GPIO10*%
%TO.N,/GPIO10*%
X117643000Y-106432000D03*
%TO.P,U3,14,GPIO11*%
%TO.N,/GPIO11*%
X118043000Y-106432000D03*
D24*
%TO.P,U3,15,GPIO12*%
%TO.N,/GPIO12*%
X118878000Y-105597000D03*
%TO.P,U3,16,GPIO13*%
%TO.N,/GPIO13*%
X118878000Y-105197000D03*
%TO.P,U3,17,GPIO14*%
%TO.N,/GPIO14*%
X118878000Y-104797000D03*
%TO.P,U3,18,GPIO15*%
%TO.N,/GPIO15*%
X118878000Y-104397000D03*
%TO.P,U3,19,TESTEN*%
%TO.N,GND*%
X118878000Y-103997000D03*
%TO.P,U3,20,XIN*%
%TO.N,/XIN*%
X118878000Y-103597000D03*
%TO.P,U3,21,XOUT*%
%TO.N,/XOUT*%
X118878000Y-103197000D03*
%TO.P,U3,22,IOVDD*%
%TO.N,+3V3*%
X118878000Y-102797000D03*
%TO.P,U3,23,DVDD*%
%TO.N,+1V1*%
X118878000Y-102397000D03*
%TO.P,U3,24,SWCLK*%
%TO.N,/SWCLK*%
X118878000Y-101997000D03*
%TO.P,U3,25,SWD*%
%TO.N,/SWD*%
X118878000Y-101597000D03*
%TO.P,U3,26,RUN*%
%TO.N,/RUN*%
X118878000Y-101197000D03*
%TO.P,U3,27,GPIO16*%
%TO.N,/GPIO16*%
X118878000Y-100797000D03*
%TO.P,U3,28,GPIO17*%
%TO.N,/GPIO17*%
X118878000Y-100397000D03*
D23*
%TO.P,U3,29,GPIO18*%
%TO.N,/GPIO18*%
X118043000Y-99562000D03*
%TO.P,U3,30,GPIO19*%
%TO.N,/GPIO19*%
X117643000Y-99562000D03*
%TO.P,U3,31,GPIO20*%
%TO.N,/GPIO20*%
X117243000Y-99562000D03*
%TO.P,U3,32,GPIO21*%
%TO.N,/GPIO21*%
X116843000Y-99562000D03*
%TO.P,U3,33,IOVDD*%
%TO.N,+3V3*%
X116443000Y-99562000D03*
%TO.P,U3,34,GPIO22*%
%TO.N,/GPIO22*%
X116043000Y-99562000D03*
%TO.P,U3,35,GPIO23*%
%TO.N,/GPIO23*%
X115643000Y-99562000D03*
%TO.P,U3,36,GPIO24*%
%TO.N,/GPIO24*%
X115243000Y-99562000D03*
%TO.P,U3,37,GPIO25*%
%TO.N,/GPIO25*%
X114843000Y-99562000D03*
%TO.P,U3,38,GPIO26_ADC0*%
%TO.N,/GPIO26_ADC0*%
X114443000Y-99562000D03*
%TO.P,U3,39,GPIO27_ADC1*%
%TO.N,/GPIO27_ADC1*%
X114043000Y-99562000D03*
%TO.P,U3,40,GPIO28_ADC2*%
%TO.N,/GPIO28_ADC2*%
X113643000Y-99562000D03*
%TO.P,U3,41,GPIO29_ADC3*%
%TO.N,/GPIO29_ADC3*%
X113243000Y-99562000D03*
%TO.P,U3,42,IOVDD*%
%TO.N,+3V3*%
X112843000Y-99562000D03*
D24*
%TO.P,U3,43,ADC_AVDD*%
X112008000Y-100397000D03*
%TO.P,U3,44,VREG_IN*%
X112008000Y-100797000D03*
%TO.P,U3,45,VREG_VOUT*%
%TO.N,+1V1*%
X112008000Y-101197000D03*
%TO.P,U3,46,USB_DM*%
%TO.N,Net-(R4-Pad2)*%
X112008000Y-101597000D03*
%TO.P,U3,47,USB_DP*%
%TO.N,Net-(R3-Pad2)*%
X112008000Y-101997000D03*
%TO.P,U3,48,USB_VDD*%
%TO.N,+3V3*%
X112008000Y-102397000D03*
%TO.P,U3,49,IOVDD*%
X112008000Y-102797000D03*
%TO.P,U3,50,DVDD*%
%TO.N,+1V1*%
X112008000Y-103197000D03*
%TO.P,U3,51,QSPI_SD3*%
%TO.N,/QSPI_SD3*%
X112008000Y-103597000D03*
%TO.P,U3,52,QSPI_SCLK*%
%TO.N,/QSPI_SCLK*%
X112008000Y-103997000D03*
%TO.P,U3,53,QSPI_SD0*%
%TO.N,/QSPI_SD0*%
X112008000Y-104397000D03*
%TO.P,U3,54,QSPI_SD2*%
%TO.N,/QSPI_SD2*%
X112008000Y-104797000D03*
%TO.P,U3,55,QSPI_SD1*%
%TO.N,/QSPI_SD1*%
X112008000Y-105197000D03*
%TO.P,U3,56,QSPI_SS*%
%TO.N,/QSPI_SS*%
X112008000Y-105597000D03*
D25*
%TO.P,U3,57,GND*%
%TO.N,GND*%
X115443000Y-102997000D03*
%TD*%
D26*
%TO.P,U2,8,VCC*%
%TO.N,+3V3*%
X104216200Y-98863600D03*
%TO.P,U2,7,IO3*%
%TO.N,/QSPI_SD3*%
X105486200Y-98863600D03*
%TO.P,U2,6,CLK*%
%TO.N,/QSPI_SCLK*%
X106756200Y-98863600D03*
%TO.P,U2,5,DI(IO0)*%
%TO.N,/QSPI_SD0*%
X108026200Y-98863600D03*
%TO.P,U2,4,GND*%
%TO.N,GND*%
X108026200Y-106063600D03*
%TO.P,U2,3,IO2*%
%TO.N,/QSPI_SD2*%
X106756200Y-106063600D03*
%TO.P,U2,2,DO(IO1)*%
%TO.N,/QSPI_SD1*%
X105486200Y-106063600D03*
%TO.P,U2,1,~{CS}*%
%TO.N,/QSPI_SS*%
X104216200Y-106063600D03*
%TD*%
D14*
%TO.P,R9,2*%
%TO.N,Net-(D4-Pad2)*%
X99159000Y-91948000D03*
%TO.P,R9,1*%
%TO.N,Net-(R9-Pad1)*%
X98199000Y-91948000D03*
%TD*%
D11*
%TO.P,R8,1*%
%TO.N,Net-(R8-Pad1)*%
X98905000Y-85725000D03*
%TO.P,R8,2*%
%TO.N,Net-(C18-Pad2)*%
X97945000Y-85725000D03*
%TD*%
%TO.P,R6,1*%
%TO.N,+3V3*%
X128242000Y-85471000D03*
%TO.P,R6,2*%
%TO.N,Net-(D2-Pad2)*%
X127282000Y-85471000D03*
%TD*%
D21*
%TO.P,P1,1,Pin_1*%
%TO.N,GND*%
X92949000Y-110941000D03*
D22*
%TO.P,P1,2,Pin_2*%
%TO.N,+5V*%
X90409000Y-110941000D03*
%TO.P,P1,3,Pin_3*%
%TO.N,/GPIO6*%
X87869000Y-110941000D03*
%TD*%
D14*
%TO.P,C5,1*%
%TO.N,+3V3*%
X113972400Y-85902800D03*
%TO.P,C5,2*%
%TO.N,GND*%
X114932400Y-85902800D03*
%TD*%
%TO.P,C13,1*%
%TO.N,+3V3*%
X116004400Y-86360000D03*
%TO.P,C13,2*%
%TO.N,GND*%
X116964400Y-86360000D03*
%TD*%
D15*
%TO.P,GPS,1,K*%
%TO.N,GND*%
X98425000Y-87373000D03*
%TO.P,GPS,2,A*%
%TO.N,Net-(D4-Pad2)*%
X98425000Y-90173000D03*
%TD*%
D21*
%TO.P,J1,1,Pin_1*%
%TO.N,/GPIO12*%
X135626000Y-102743000D03*
D22*
%TO.P,J1,2,Pin_2*%
%TO.N,/GPIO13*%
X133086000Y-102743000D03*
%TO.P,J1,3,Pin_3*%
%TO.N,+5V*%
X130546000Y-102743000D03*
%TO.P,J1,4,Pin_4*%
%TO.N,GND*%
X128006000Y-102743000D03*
%TD*%
D27*
%TO.P,L1,1,1*%
%TO.N,Net-(C18-Pad2)*%
X96012000Y-86533500D03*
%TO.P,L1,2,2*%
%TO.N,Net-(J4-Pad1)*%
X96012000Y-84408500D03*
%TD*%
D28*
%TO.P,R11,1*%
%TO.N,+3V3*%
X125628400Y-92687200D03*
%TO.P,R11,2*%
%TO.N,/GPIO0*%
X125628400Y-93647200D03*
%TD*%
D22*
%TO.P,P5,3,Pin_3*%
%TO.N,/GPIO10*%
X131318000Y-110998000D03*
%TO.P,P5,2,Pin_2*%
%TO.N,+5V*%
X133858000Y-110998000D03*
D21*
%TO.P,P5,1,Pin_1*%
%TO.N,GND*%
X136398000Y-110998000D03*
%TD*%
%TO.P,J2,1,Pin_1*%
%TO.N,/~{USB_BOOT}*%
X105918000Y-89154000D03*
D22*
%TO.P,J2,2,Pin_2*%
%TO.N,GND*%
X108458000Y-89154000D03*
%TD*%
D29*
%TO.P,U6,24,SDA*%
%TO.N,/GPIO0*%
X123271600Y-94609200D03*
%TO.P,U6,23,SCL*%
%TO.N,/GPIO1*%
X122771600Y-94609200D03*
%TO.P,U6,22,NC*%
%TO.N,unconnected-(U6-Pad22)*%
X122271600Y-94609200D03*
%TO.P,U6,21,NC*%
%TO.N,unconnected-(U6-Pad21)*%
X121771600Y-94609200D03*
%TO.P,U6,20,CPOUT*%
%TO.N,Net-(C21-Pad1)*%
X121271600Y-94609200D03*
%TO.P,U6,19,NC*%
%TO.N,unconnected-(U6-Pad19)*%
X120771600Y-94609200D03*
D30*
%TO.P,U6,18,GND*%
%TO.N,GND*%
X120071600Y-93909200D03*
%TO.P,U6,17,NC*%
%TO.N,unconnected-(U6-Pad17)*%
X120071600Y-93409200D03*
%TO.P,U6,16,NC*%
%TO.N,unconnected-(U6-Pad16)*%
X120071600Y-92909200D03*
%TO.P,U6,15,NC*%
%TO.N,unconnected-(U6-Pad15)*%
X120071600Y-92409200D03*
%TO.P,U6,14,NC*%
%TO.N,unconnected-(U6-Pad14)*%
X120071600Y-91909200D03*
%TO.P,U6,13,VDD*%
%TO.N,+3V3*%
X120071600Y-91409200D03*
D29*
%TO.P,U6,12,INT*%
%TO.N,NC*%
X120771600Y-90709200D03*
%TO.P,U6,11,FSYNC*%
%TO.N,GND*%
X121271600Y-90709200D03*
%TO.P,U6,10,REGOUT*%
%TO.N,Net-(C20-Pad1)*%
X121771600Y-90709200D03*
%TO.P,U6,9,AD0*%
%TO.N,GND*%
X122271600Y-90709200D03*
%TO.P,U6,8,VDDIO*%
%TO.N,+3V3*%
X122771600Y-90709200D03*
%TO.P,U6,7,AUX_SCL*%
%TO.N,Net-(J6-Pad1)*%
X123271600Y-90709200D03*
D30*
%TO.P,U6,6,AUX_SDA*%
%TO.N,Net-(J6-Pad2)*%
X123971600Y-91409200D03*
%TO.P,U6,5,NC*%
%TO.N,unconnected-(U6-Pad5)*%
X123971600Y-91909200D03*
%TO.P,U6,4,NC*%
%TO.N,unconnected-(U6-Pad4)*%
X123971600Y-92409200D03*
%TO.P,U6,3,NC*%
%TO.N,unconnected-(U6-Pad3)*%
X123971600Y-92909200D03*
%TO.P,U6,2,NC*%
%TO.N,unconnected-(U6-Pad2)*%
X123971600Y-93409200D03*
%TO.P,U6,1,CLKIN*%
%TO.N,GND*%
X123971600Y-93909200D03*
%TD*%
D14*
%TO.P,C9,1*%
%TO.N,+3V3*%
X116004400Y-83007200D03*
%TO.P,C9,2*%
%TO.N,GND*%
X116964400Y-83007200D03*
%TD*%
D31*
%TO.P,C17,1*%
%TO.N,+3V3*%
X114488000Y-88458000D03*
%TO.P,C17,2*%
%TO.N,GND*%
X114488000Y-90358000D03*
%TD*%
D14*
%TO.P,R10,1*%
%TO.N,+3V3*%
X120881200Y-96316800D03*
%TO.P,R10,2*%
%TO.N,/GPIO1*%
X121841200Y-96316800D03*
%TD*%
D28*
%TO.P,C6,1*%
%TO.N,+1V1*%
X122732800Y-106403200D03*
%TO.P,C6,2*%
%TO.N,GND*%
X122732800Y-107363200D03*
%TD*%
D13*
%TO.P,R13,1*%
%TO.N,Net-(J3-PadA5)*%
X126847600Y-93596400D03*
%TO.P,R13,2*%
%TO.N,GND*%
X126847600Y-92636400D03*
%TD*%
D12*
%TO.P,C1,1*%
%TO.N,VBUS*%
X125846800Y-90982800D03*
%TO.P,C1,2*%
%TO.N,GND*%
X127746800Y-90982800D03*
%TD*%
D14*
%TO.P,C12,1*%
%TO.N,+3V3*%
X116004400Y-85242400D03*
%TO.P,C12,2*%
%TO.N,GND*%
X116964400Y-85242400D03*
%TD*%
D32*
%TO.P,J4,1,In*%
%TO.N,Net-(J4-Pad1)*%
X90337000Y-87630000D03*
D33*
%TO.P,J4,2,Ext*%
%TO.N,GND*%
X87797000Y-90170000D03*
X92877000Y-85090000D03*
X92877000Y-90170000D03*
X87797000Y-85090000D03*
%TD*%
D14*
%TO.P,C3,1*%
%TO.N,Net-(C3-Pad1)*%
X104523600Y-86715600D03*
%TO.P,C3,2*%
%TO.N,GND*%
X105483600Y-86715600D03*
%TD*%
D28*
%TO.P,R2,1*%
%TO.N,+3V3*%
X102362000Y-89080400D03*
%TO.P,R2,2*%
%TO.N,/QSPI_SS*%
X102362000Y-90040400D03*
%TD*%
D13*
%TO.P,C10,1*%
%TO.N,+3V3*%
X110642400Y-99438400D03*
%TO.P,C10,2*%
%TO.N,GND*%
X110642400Y-98478400D03*
%TD*%
D34*
%TO.P,J3,A1,GND*%
%TO.N,GND*%
X130067000Y-98246000D03*
%TO.P,J3,A4,VBUS*%
%TO.N,VBUS*%
X130067000Y-97446000D03*
D35*
%TO.P,J3,A5,CC1*%
%TO.N,Net-(J3-PadA5)*%
X130067000Y-96246000D03*
%TO.P,J3,A6,D+*%
%TO.N,/USB_D+*%
X130067000Y-95246000D03*
%TO.P,J3,A7,D-*%
%TO.N,/USB_D-*%
X130067000Y-94746000D03*
%TO.P,J3,A8,SBU1*%
%TO.N,unconnected-(J3-PadA8)*%
X130067000Y-93746000D03*
D34*
%TO.P,J3,A9,VBUS*%
%TO.N,VBUS*%
X130067000Y-92546000D03*
%TO.P,J3,A12,GND*%
%TO.N,GND*%
X130067000Y-91746000D03*
%TO.P,J3,B1,GND*%
X130067000Y-91746000D03*
%TO.P,J3,B4,VBUS*%
%TO.N,VBUS*%
X130067000Y-92546000D03*
D35*
%TO.P,J3,B5,CC2*%
%TO.N,Net-(J3-PadB5)*%
X130067000Y-93246000D03*
%TO.P,J3,B6,D+*%
%TO.N,/USB_D+*%
X130067000Y-94246000D03*
%TO.P,J3,B7,D-*%
%TO.N,/USB_D-*%
X130067000Y-95746000D03*
%TO.P,J3,B8,SBU2*%
%TO.N,unconnected-(J3-PadB8)*%
X130067000Y-96746000D03*
D34*
%TO.P,J3,B9,VBUS*%
%TO.N,VBUS*%
X130067000Y-97446000D03*
%TO.P,J3,B12,GND*%
%TO.N,GND*%
X130067000Y-98246000D03*
D36*
%TO.P,J3,S1,SHIELD*%
X130982000Y-99316000D03*
D37*
X135162000Y-90676000D03*
X135162000Y-99316000D03*
D36*
X130982000Y-90676000D03*
%TD*%
D21*
%TO.P,P2,1,Pin_1*%
%TO.N,GND*%
X103617000Y-111068000D03*
D22*
%TO.P,P2,2,Pin_2*%
%TO.N,+5V*%
X101077000Y-111068000D03*
%TO.P,P2,3,Pin_3*%
%TO.N,/GPIO7*%
X98537000Y-111068000D03*
%TD*%
D38*
%TO.P,C4,1*%
%TO.N,+3V3*%
X111633000Y-89977000D03*
%TO.P,C4,2*%
%TO.N,GND*%
X111633000Y-88077000D03*
%TD*%
D14*
%TO.P,C15,1*%
%TO.N,+3V3*%
X114008000Y-87071200D03*
%TO.P,C15,2*%
%TO.N,GND*%
X114968000Y-87071200D03*
%TD*%
D38*
%TO.P,C18,1*%
%TO.N,GND*%
X96012000Y-90231000D03*
%TO.P,C18,2*%
%TO.N,Net-(C18-Pad2)*%
X96012000Y-88331000D03*
%TD*%
D14*
%TO.P,R7,1*%
%TO.N,/GPIO25*%
X124615000Y-86741000D03*
%TO.P,R7,2*%
%TO.N,Net-(D3-Pad2)*%
X125575000Y-86741000D03*
%TD*%
%TO.P,C14,1*%
%TO.N,+3V3*%
X113972400Y-83413600D03*
%TO.P,C14,2*%
%TO.N,GND*%
X114932400Y-83413600D03*
%TD*%
D39*
%TO.P,C21,1*%
%TO.N,Net-(C21-Pad1)*%
X118232000Y-90119200D03*
%TO.P,C21,2*%
%TO.N,GND*%
X116332000Y-90119200D03*
%TD*%
D10*
%TO.P,STATUS,1,K*%
%TO.N,GND*%
X127892000Y-88519000D03*
%TO.P,STATUS,2,A*%
%TO.N,Net-(D3-Pad2)*%
X125092000Y-88519000D03*
%TD*%
D11*
%TO.P,C2,1*%
%TO.N,/XIN*%
X112138400Y-86715600D03*
%TO.P,C2,2*%
%TO.N,GND*%
X111178400Y-86715600D03*
%TD*%
D28*
%TO.P,C7,1*%
%TO.N,+1V1*%
X121361200Y-106403200D03*
%TO.P,C7,2*%
%TO.N,GND*%
X121361200Y-107363200D03*
%TD*%
D21*
%TO.P,J5,1,Pin_1*%
%TO.N,/GPIO0*%
X135636000Y-106807000D03*
D22*
%TO.P,J5,2,Pin_2*%
%TO.N,/GPIO1*%
X133096000Y-106807000D03*
%TO.P,J5,3,Pin_3*%
%TO.N,+3V3*%
X130556000Y-106807000D03*
%TO.P,J5,4,Pin_4*%
%TO.N,GND*%
X128016000Y-106807000D03*
%TD*%
D40*
%TO.P,U4,1,~{SAFEBOOT}*%
%TO.N,unconnected-(U4-Pad1)*%
X87488000Y-105949000D03*
%TO.P,U4,2,D_SEL*%
%TO.N,unconnected-(U4-Pad2)*%
X88588000Y-105949000D03*
%TO.P,U4,3,TIMEPULSE*%
%TO.N,Net-(R9-Pad1)*%
X89688000Y-105949000D03*
%TO.P,U4,4,EXTINT*%
%TO.N,unconnected-(U4-Pad4)*%
X90788000Y-105949000D03*
%TO.P,U4,5,USB_DM*%
%TO.N,unconnected-(U4-Pad5)*%
X91888000Y-105949000D03*
%TO.P,U4,6,USB_DP*%
%TO.N,unconnected-(U4-Pad6)*%
X92988000Y-105949000D03*
%TO.P,U4,7,VDD_USB*%
%TO.N,unconnected-(U4-Pad7)*%
X94088000Y-105949000D03*
%TO.P,U4,8,~{RESET}*%
%TO.N,unconnected-(U4-Pad8)*%
X97088000Y-105949000D03*
%TO.P,U4,9,VCC_RF*%
%TO.N,Net-(R8-Pad1)*%
X98188000Y-105949000D03*
%TO.P,U4,10,GND*%
%TO.N,GND*%
X99288000Y-105949000D03*
%TO.P,U4,11,RF_IN*%
%TO.N,Net-(J4-Pad1)*%
X100388000Y-105949000D03*
%TO.P,U4,12,GND*%
%TO.N,GND*%
X101488000Y-105949000D03*
%TO.P,U4,13,GND*%
X101488000Y-93949000D03*
%TO.P,U4,14,RESERVED*%
%TO.N,unconnected-(U4-Pad14)*%
X100388000Y-93949000D03*
%TO.P,U4,15,RESERVED*%
%TO.N,unconnected-(U4-Pad15)*%
X99288000Y-93949000D03*
%TO.P,U4,16,RESERVED*%
%TO.N,unconnected-(U4-Pad16)*%
X98188000Y-93949000D03*
%TO.P,U4,17,RESERVED*%
%TO.N,unconnected-(U4-Pad17)*%
X97088000Y-93949000D03*
%TO.P,U4,18,SDA/~{SPI_CS}*%
%TO.N,unconnected-(U4-Pad18)*%
X94088000Y-93949000D03*
%TO.P,U4,19,SCL/SPI_CLK*%
%TO.N,unconnected-(U4-Pad19)*%
X92988000Y-93949000D03*
%TO.P,U4,20,TXD/SPI_MISO*%
%TO.N,/GPIO5*%
X91888000Y-93949000D03*
%TO.P,U4,21,RXD/SPI_MOSI*%
%TO.N,/GPIO4*%
X90788000Y-93949000D03*
%TO.P,U4,22,V_BCKP*%
%TO.N,unconnected-(U4-Pad22)*%
X89688000Y-93949000D03*
%TO.P,U4,23,VCC*%
%TO.N,+3V3*%
X88588000Y-93949000D03*
%TO.P,U4,24,GND*%
%TO.N,GND*%
X87488000Y-93949000D03*
%TD*%
D39*
%TO.P,C20,1*%
%TO.N,Net-(C20-Pad1)*%
X118232000Y-87934800D03*
%TO.P,C20,2*%
%TO.N,GND*%
X116332000Y-87934800D03*
%TD*%
D21*
%TO.P,P3,1,Pin_1*%
%TO.N,GND*%
X114539000Y-110998000D03*
D22*
%TO.P,P3,2,Pin_2*%
%TO.N,+5V*%
X111999000Y-110998000D03*
%TO.P,P3,3,Pin_3*%
%TO.N,/GPIO8*%
X109459000Y-110998000D03*
%TD*%
D14*
%TO.P,C11,1*%
%TO.N,+3V3*%
X116004400Y-84124800D03*
%TO.P,C11,2*%
%TO.N,GND*%
X116964400Y-84124800D03*
%TD*%
D41*
%TO.N,/QSPI_SD0*%
X108000800Y-102209600D03*
X105511600Y-103124000D03*
%TO.N,/QSPI_SCLK*%
X106781600Y-100482400D03*
X106845778Y-103059822D03*
%TO.N,+3V3*%
X136753600Y-83108800D03*
X102362000Y-87985600D03*
%TO.N,GND*%
X124473378Y-94907778D03*
X116332000Y-91490800D03*
%TO.N,+3V3*%
X123342400Y-89509600D03*
%TO.N,GND*%
X122275600Y-89509600D03*
X119430800Y-89814400D03*
%TO.N,+3V3*%
X118821200Y-91643200D03*
%TO.N,GND*%
X119481600Y-94894400D03*
%TO.N,+3V3*%
X117936534Y-96346100D03*
X125018800Y-92100400D03*
%TO.N,/GPIO0*%
X123783103Y-95707200D03*
%TO.N,/GPIO1*%
X122783600Y-95707200D03*
%TO.N,+3V3*%
X113030000Y-86309200D03*
X111658400Y-91135200D03*
%TO.N,/GPIO1*%
X124612400Y-98145600D03*
%TO.N,VBUS*%
X126746000Y-89865200D03*
X132297000Y-93943000D03*
%TO.N,Net-(J3-PadA5)*%
X131572000Y-96215200D03*
X128320800Y-94538800D03*
%TO.N,GND*%
X120192800Y-99720400D03*
%TO.N,/GPIO25*%
X123647200Y-86715600D03*
X110845600Y-93929200D03*
X110845600Y-95910400D03*
X115759822Y-98233822D03*
%TO.N,GND*%
X132181600Y-83566000D03*
X101498400Y-95707200D03*
%TO.N,Net-(R8-Pad1)*%
X99923600Y-85648800D03*
X96774000Y-97180400D03*
%TO.N,Net-(J4-Pad1)*%
X92811600Y-87630000D03*
X96355900Y-95656400D03*
%TO.N,+3V3*%
X122529600Y-99415600D03*
%TO.N,GND*%
X121361200Y-108508800D03*
%TO.N,+1V1*%
X119024400Y-106527600D03*
%TO.N,GND*%
X109811500Y-97670300D03*
%TO.N,+3V3*%
X117714542Y-103293742D03*
%TO.N,+1V1*%
X117622982Y-102298442D03*
X113233200Y-104089200D03*
%TO.N,Net-(C3-Pad1)*%
X106324400Y-95758000D03*
X117144800Y-98298000D03*
%TO.N,+5V*%
X132232400Y-88138000D03*
%TO.N,GND*%
X115443000Y-102997000D03*
%TO.N,/GPIO0*%
X113131600Y-107530100D03*
%TO.N,/GPIO1*%
X114143500Y-107530100D03*
X131826000Y-105087100D03*
X124663200Y-100228400D03*
%TO.N,/GPIO0*%
X125369955Y-100935155D03*
X135636000Y-105410000D03*
%TO.N,/GPIO4*%
X90627200Y-95554800D03*
X89966800Y-107930100D03*
%TO.N,GND*%
X109524800Y-106070400D03*
%TO.N,+3V3*%
X113792000Y-105250000D03*
X110407217Y-102878683D03*
%TO.N,GND*%
X101752400Y-107530100D03*
%TO.N,/XIN*%
X121291281Y-103247145D03*
X115519200Y-95097600D03*
%TO.N,/XOUT*%
X120294400Y-103174800D03*
X120142000Y-98196400D03*
%TO.N,+3V3*%
X88595200Y-95554800D03*
X113538000Y-100787200D03*
X104241600Y-100380800D03*
%TO.N,+5V*%
X129438400Y-100685600D03*
%TD*%
D42*
%TO.N,VBUS*%
X132232400Y-97129600D02*
X132750000Y-96612000D01*
X132750000Y-96612000D02*
X132750000Y-94396000D01*
X131128399Y-97129600D02*
X132232400Y-97129600D01*
X130811999Y-97446000D02*
X131128399Y-97129600D01*
X130067000Y-97446000D02*
X130811999Y-97446000D01*
X132750000Y-94396000D02*
X132297000Y-93943000D01*
D43*
%TO.N,+3V3*%
X115816400Y-105250000D02*
X116443000Y-105876600D01*
X113792000Y-105250000D02*
X115816400Y-105250000D01*
X112843000Y-105891251D02*
X112843000Y-106432000D01*
X113484251Y-105250000D02*
X112843000Y-105891251D01*
X116443000Y-105876600D02*
X116443000Y-106432000D01*
X113792000Y-105250000D02*
X113484251Y-105250000D01*
%TO.N,Net-(R9-Pad1)*%
X89688000Y-100144800D02*
X89688000Y-105949000D01*
X95500000Y-93000000D02*
X95500000Y-94332800D01*
X96500000Y-92000000D02*
X95500000Y-93000000D01*
X98147000Y-92000000D02*
X96500000Y-92000000D01*
X98199000Y-91948000D02*
X98147000Y-92000000D01*
X95500000Y-94332800D02*
X89688000Y-100144800D01*
%TO.N,/GPIO8*%
X110627400Y-109829600D02*
X109459000Y-110998000D01*
X115373686Y-109829600D02*
X110627400Y-109829600D01*
X116843000Y-108360286D02*
X115373686Y-109829600D01*
X116843000Y-106432000D02*
X116843000Y-108360286D01*
%TO.N,Net-(R8-Pad1)*%
X99988000Y-100089600D02*
X97078800Y-97180400D01*
X98880893Y-104749000D02*
X99565946Y-104749000D01*
X97078800Y-97180400D02*
X96774000Y-97180400D01*
X98588000Y-105041893D02*
X98880893Y-104749000D01*
X99565946Y-104749000D02*
X99988000Y-104326946D01*
X98588000Y-105549000D02*
X98588000Y-105041893D01*
X98188000Y-105949000D02*
X98588000Y-105549000D01*
X99988000Y-104326946D02*
X99988000Y-100089600D01*
%TO.N,Net-(C21-Pad1)*%
X117754400Y-90596800D02*
X118232000Y-90119200D01*
X117754400Y-92630000D02*
X117754400Y-90596800D01*
X118598000Y-92630000D02*
X117754400Y-92630000D01*
X118567200Y-95360800D02*
X118598000Y-95330000D01*
X119706400Y-95910400D02*
X118567200Y-95910400D01*
X120000000Y-95616800D02*
X119706400Y-95910400D01*
X120943600Y-95616800D02*
X120000000Y-95616800D01*
X121271600Y-95288800D02*
X120943600Y-95616800D01*
X118598000Y-95330000D02*
X118598000Y-92630000D01*
X121271600Y-94609200D02*
X121271600Y-95288800D01*
X118567200Y-95910400D02*
X118567200Y-95360800D01*
%TO.N,/GPIO5*%
X91888000Y-97379114D02*
X91888000Y-93949000D01*
X89288000Y-99979114D02*
X91888000Y-97379114D01*
X89288000Y-104676946D02*
X89288000Y-99979114D01*
X89105527Y-104859420D02*
X89288000Y-104676946D01*
X88995107Y-104749000D02*
X89105527Y-104859420D01*
X88180893Y-104749000D02*
X88995107Y-104749000D01*
X87895107Y-104749000D02*
X88038000Y-104891893D01*
X86788000Y-106856107D02*
X86788000Y-105041893D01*
X88561493Y-108629600D02*
X86788000Y-106856107D01*
X114832714Y-108629600D02*
X88561493Y-108629600D01*
X115243000Y-108219314D02*
X114832714Y-108629600D01*
X87080893Y-104749000D02*
X87895107Y-104749000D01*
X115243000Y-106432000D02*
X115243000Y-108219314D01*
X86788000Y-105041893D02*
X87080893Y-104749000D01*
X88038000Y-104891893D02*
X88180893Y-104749000D01*
%TO.N,+3V3*%
X102362000Y-89080400D02*
X102362000Y-87985600D01*
D42*
%TO.N,+5V*%
X129438400Y-101635400D02*
X130546000Y-102743000D01*
X129438400Y-100685600D02*
X129438400Y-101635400D01*
X127254000Y-99698000D02*
X128450800Y-99698000D01*
X128450800Y-99698000D02*
X129438400Y-100685600D01*
D43*
%TO.N,VBUS*%
X125846800Y-90764400D02*
X126746000Y-89865200D01*
X125846800Y-90982800D02*
X125846800Y-90764400D01*
%TO.N,+3V3*%
X125605600Y-92687200D02*
X125018800Y-92100400D01*
X125628400Y-92687200D02*
X125605600Y-92687200D01*
%TO.N,GND*%
X124473378Y-94907778D02*
X124473378Y-94410978D01*
X124473378Y-94410978D02*
X123971600Y-93909200D01*
X119481600Y-94894400D02*
X119481600Y-94499200D01*
X119481600Y-94499200D02*
X120071600Y-93909200D01*
%TO.N,+3V3*%
X119055200Y-91409200D02*
X120071600Y-91409200D01*
X118821200Y-91643200D02*
X119055200Y-91409200D01*
%TO.N,GND*%
X122275600Y-89509600D02*
X122271600Y-89513600D01*
X122271600Y-89513600D02*
X122271600Y-90709200D01*
%TO.N,+3V3*%
X122771600Y-90253870D02*
X122771600Y-90709200D01*
X123342400Y-89683070D02*
X122771600Y-90253870D01*
X123342400Y-89509600D02*
X123342400Y-89683070D01*
D44*
%TO.N,+5V*%
X132218400Y-88152000D02*
X130454000Y-88152000D01*
D43*
X132232400Y-88138000D02*
X132218400Y-88152000D01*
%TO.N,/GPIO25*%
X123672600Y-86741000D02*
X124615000Y-86741000D01*
X123647200Y-86715600D02*
X123672600Y-86741000D01*
%TO.N,/GPIO4*%
X114528400Y-108229600D02*
X114843000Y-107915000D01*
X89966800Y-107930100D02*
X90266300Y-108229600D01*
X90266300Y-108229600D02*
X114528400Y-108229600D01*
X114843000Y-107915000D02*
X114843000Y-106432000D01*
%TO.N,GND*%
X101752400Y-107530100D02*
X101105700Y-107530100D01*
X101105700Y-107530100D02*
X100724600Y-107149000D01*
X116332000Y-90119200D02*
X116332000Y-91490800D01*
X101488000Y-95696800D02*
X101488000Y-93949000D01*
X101498400Y-95707200D02*
X101488000Y-95696800D01*
%TO.N,+3V3*%
X117714542Y-103293742D02*
X118211284Y-102797000D01*
X118211284Y-102797000D02*
X118878000Y-102797000D01*
X122805000Y-99691000D02*
X123703000Y-99691000D01*
X122178000Y-99064000D02*
X122178000Y-98166000D01*
X122529600Y-99415600D02*
X122178000Y-99064000D01*
X122529600Y-99415600D02*
X122805000Y-99691000D01*
X121678000Y-100267200D02*
X121678000Y-100716000D01*
X122529600Y-99415600D02*
X121678000Y-100267200D01*
%TO.N,Net-(C19-Pad1)*%
X122428000Y-102717600D02*
X122544800Y-102717600D01*
X119833948Y-100420400D02*
X120130800Y-100420400D01*
X120130800Y-100420400D02*
X122428000Y-102717600D01*
X119410548Y-99512702D02*
X119410548Y-99997000D01*
X119410548Y-99997000D02*
X119833948Y-100420400D01*
X120635150Y-99020400D02*
X119902850Y-99020400D01*
X120805750Y-99191000D02*
X120635150Y-99020400D01*
X119902850Y-99020400D02*
X119410548Y-99512702D01*
X121153000Y-99191000D02*
X120805750Y-99191000D01*
%TO.N,Net-(C3-Pad1)*%
X106324400Y-94153600D02*
X106498000Y-93980000D01*
X106324400Y-95758000D02*
X106324400Y-94153600D01*
%TO.N,/GPIO4*%
X90627200Y-95554800D02*
X90627200Y-94843600D01*
%TO.N,+3V3*%
X88588000Y-95547600D02*
X88588000Y-93949000D01*
X88595200Y-95554800D02*
X88588000Y-95547600D01*
%TO.N,Net-(J4-Pad1)*%
X92811600Y-87630000D02*
X92790500Y-87630000D01*
%TO.N,GND*%
X121361200Y-108508800D02*
X121361200Y-107363200D01*
X121361200Y-107363200D02*
X122732800Y-107363200D01*
%TO.N,+1V1*%
X121361200Y-106403200D02*
X122732800Y-106403200D01*
X121236800Y-106527600D02*
X121361200Y-106403200D01*
X119024400Y-106527600D02*
X121236800Y-106527600D01*
%TO.N,/QSPI_SD0*%
X108000800Y-101461510D02*
X107804000Y-101264709D01*
X107804000Y-99085800D02*
X108026200Y-98863600D01*
X108000800Y-102209600D02*
X108000800Y-101461510D01*
X107804000Y-101264709D02*
X107804000Y-99085800D01*
X106784600Y-104397000D02*
X105511600Y-103124000D01*
X109826600Y-104397000D02*
X106784600Y-104397000D01*
X109826600Y-104397000D02*
X112008000Y-104397000D01*
%TO.N,/QSPI_SCLK*%
X106781600Y-98889000D02*
X106756200Y-98863600D01*
X107782956Y-103997000D02*
X106845778Y-103059822D01*
X106781600Y-100482400D02*
X106781600Y-98889000D01*
X109970604Y-103997000D02*
X107782956Y-103997000D01*
%TO.N,/QSPI_SD3*%
X105486200Y-100711000D02*
X105486200Y-98863600D01*
X108372200Y-103597000D02*
X105486200Y-100711000D01*
X112008000Y-103597000D02*
X108372200Y-103597000D01*
%TO.N,GND*%
X109834300Y-97670300D02*
X110642400Y-98478400D01*
X109811500Y-97670300D02*
X109834300Y-97670300D01*
%TO.N,+3V3*%
X116215749Y-100330000D02*
X116443000Y-100102749D01*
X113538000Y-100787200D02*
X113995200Y-100330000D01*
X113528200Y-100797000D02*
X112008000Y-100797000D01*
X113995200Y-100330000D02*
X116215749Y-100330000D01*
X116443000Y-100102749D02*
X116443000Y-99562000D01*
X113538000Y-100787200D02*
X113528200Y-100797000D01*
X104241600Y-100380800D02*
X104241600Y-98889000D01*
X104241600Y-98889000D02*
X104216200Y-98863600D01*
%TO.N,/QSPI_SS*%
X103124000Y-104971400D02*
X104216200Y-106063600D01*
X103124000Y-90446800D02*
X103124000Y-104971400D01*
X103530400Y-90040400D02*
X103124000Y-90446800D01*
%TO.N,GND*%
X109518000Y-106063600D02*
X108026200Y-106063600D01*
X109524800Y-106070400D02*
X109518000Y-106063600D01*
%TO.N,/QSPI_SS*%
X105746800Y-107829600D02*
X104216200Y-106299000D01*
X111016800Y-107829600D02*
X105746800Y-107829600D01*
X112008000Y-106838400D02*
X111016800Y-107829600D01*
X104216200Y-106299000D02*
X104216200Y-106063600D01*
X112008000Y-105597000D02*
X112008000Y-106838400D01*
%TO.N,/QSPI_SD1*%
X111288000Y-106948800D02*
X110807200Y-107429600D01*
X106166486Y-107429600D02*
X105486200Y-106749314D01*
X111288000Y-105384452D02*
X111288000Y-106948800D01*
X110807200Y-107429600D02*
X106166486Y-107429600D01*
X105486200Y-106749314D02*
X105486200Y-106063600D01*
X111475452Y-105197000D02*
X111288000Y-105384452D01*
X112008000Y-105197000D02*
X111475452Y-105197000D01*
%TO.N,/QSPI_SD2*%
X107191400Y-104797000D02*
X106730800Y-105257600D01*
X112008000Y-104797000D02*
X107191400Y-104797000D01*
%TO.N,GND*%
X109705200Y-99415600D02*
X110642400Y-98478400D01*
X109705200Y-100838000D02*
X109705200Y-99415600D01*
%TO.N,+1V1*%
X111024200Y-101197000D02*
X110665200Y-100838000D01*
X112008000Y-101197000D02*
X111024200Y-101197000D01*
%TO.N,Net-(R4-Pad2)*%
X111737200Y-97038400D02*
X111737200Y-98044000D01*
X111669600Y-96970800D02*
X111737200Y-97038400D01*
X111340835Y-96970800D02*
X111669600Y-96970800D01*
X111301235Y-97010400D02*
X111340835Y-96970800D01*
X110389965Y-97010400D02*
X111301235Y-97010400D01*
X110350364Y-96970800D02*
X110389965Y-97010400D01*
X109112000Y-96970800D02*
X110350364Y-96970800D01*
X111147966Y-101758800D02*
X109429463Y-101758800D01*
X108604000Y-100933337D02*
X108604000Y-100488799D01*
X109429463Y-101758800D02*
X108604000Y-100933337D01*
X108604000Y-100488799D02*
X109112000Y-99980799D01*
X111309766Y-101597000D02*
X111147966Y-101758800D01*
X109112000Y-99980799D02*
X109112000Y-96970800D01*
X112008000Y-101597000D02*
X111309766Y-101597000D01*
%TO.N,Net-(R3-Pad2)*%
X113159600Y-96570800D02*
X113769200Y-97180400D01*
X111175150Y-96570800D02*
X113159600Y-96570800D01*
X111135550Y-96610400D02*
X111175150Y-96570800D01*
X110555650Y-96610400D02*
X111135550Y-96610400D01*
X110516050Y-96570800D02*
X110555650Y-96610400D01*
X108712000Y-99720400D02*
X108712000Y-96570800D01*
X108204000Y-100228400D02*
X108712000Y-99720400D01*
X108204000Y-101099024D02*
X108204000Y-100228400D01*
X111475452Y-101997000D02*
X111313652Y-102158800D01*
X111313652Y-102158800D02*
X109263776Y-102158800D01*
X109263776Y-102158800D02*
X108204000Y-101099024D01*
X112008000Y-101997000D02*
X111475452Y-101997000D01*
X108712000Y-96570800D02*
X110516050Y-96570800D01*
%TO.N,+3V3*%
X111601000Y-100397000D02*
X110642400Y-99438400D01*
X112008000Y-100397000D02*
X111601000Y-100397000D01*
X113030000Y-86309200D02*
X113030000Y-87000000D01*
X113030000Y-87000000D02*
X114488000Y-88458000D01*
X113972400Y-83131600D02*
X114300400Y-82803600D01*
X113972400Y-83413600D02*
X113972400Y-83131600D01*
X114300400Y-82803600D02*
X115800800Y-82803600D01*
X115800800Y-82803600D02*
X116004400Y-83007200D01*
%TO.N,/XOUT*%
X119098000Y-98145600D02*
X120091200Y-98145600D01*
X120091200Y-98145600D02*
X120142000Y-98196400D01*
%TO.N,GND*%
X120222200Y-99691000D02*
X121153000Y-99691000D01*
X120192800Y-99720400D02*
X120222200Y-99691000D01*
%TO.N,/GPIO0*%
X135636000Y-106807000D02*
X135636000Y-105410000D01*
%TO.N,+1V1*%
X119024400Y-106527600D02*
X119126000Y-106426000D01*
%TO.N,+3V3*%
X111633000Y-91109800D02*
X111633000Y-89977000D01*
X111658400Y-91135200D02*
X111633000Y-91109800D01*
%TO.N,/GPIO1*%
X131826000Y-105537000D02*
X133096000Y-106807000D01*
X131826000Y-105087100D02*
X131826000Y-105537000D01*
%TO.N,+3V3*%
X117965834Y-96316800D02*
X117936534Y-96346100D01*
X120881200Y-96316800D02*
X117965834Y-96316800D01*
%TO.N,Net-(C3-Pad1)*%
X104551346Y-87330146D02*
X104551346Y-87325200D01*
X104648000Y-87426800D02*
X104551346Y-87330146D01*
X104551346Y-86743346D02*
X104523600Y-86715600D01*
X104551346Y-87325200D02*
X104551346Y-86743346D01*
%TO.N,GND*%
X105483600Y-87325200D02*
X105483600Y-86715600D01*
%TO.N,/XIN*%
X113080800Y-87658000D02*
X112138400Y-86715600D01*
X113080800Y-91562800D02*
X113080800Y-87658000D01*
X115498000Y-93980000D02*
X113080800Y-91562800D01*
%TO.N,+3V3*%
X136754000Y-83109200D02*
X136753600Y-83108800D01*
D44*
X136754000Y-85852000D02*
X136754000Y-83109200D01*
%TO.N,GND*%
X132167600Y-83552000D02*
X130454000Y-83552000D01*
D43*
X132181600Y-83566000D02*
X132167600Y-83552000D01*
%TO.N,+3V3*%
X114008000Y-85938400D02*
X113972400Y-85902800D01*
X114008000Y-87071200D02*
X114008000Y-85938400D01*
X113972400Y-84632800D02*
X113972400Y-85902800D01*
X113972400Y-83413600D02*
X113972400Y-84632800D01*
X116004400Y-84124800D02*
X116004400Y-85242400D01*
X116004400Y-84124800D02*
X116004400Y-83007200D01*
X116004400Y-86360000D02*
X116004400Y-85242400D01*
%TO.N,GND*%
X116964400Y-87302400D02*
X116332000Y-87934800D01*
X116964400Y-86360000D02*
X116964400Y-87302400D01*
X114932400Y-84632800D02*
X114932400Y-83413600D01*
X114932400Y-85902800D02*
X114932400Y-84632800D01*
X114968000Y-85938400D02*
X114932400Y-85902800D01*
X114968000Y-87071200D02*
X114968000Y-85938400D01*
X116964400Y-86360000D02*
X116964400Y-85242400D01*
X116964400Y-85242400D02*
X116964400Y-84124800D01*
X116964400Y-83007200D02*
X116964400Y-84124800D01*
X105693200Y-87534800D02*
X105483600Y-87325200D01*
X107252085Y-87534800D02*
X105693200Y-87534800D01*
X108458000Y-88740715D02*
X107252085Y-87534800D01*
X108458000Y-89154000D02*
X108458000Y-88740715D01*
%TO.N,Net-(C3-Pad1)*%
X107086000Y-87935200D02*
X107086400Y-87934800D01*
X104551346Y-87325200D02*
X105161346Y-87935200D01*
X105161346Y-87935200D02*
X107086000Y-87935200D01*
X107086400Y-93391600D02*
X106498000Y-93980000D01*
X107086400Y-87934800D02*
X107086400Y-93391600D01*
%TO.N,/QSPI_SS*%
X102362000Y-90040400D02*
X103530400Y-90040400D01*
%TO.N,/GPIO0*%
X124663200Y-95707200D02*
X123783103Y-95707200D01*
X125628400Y-94742000D02*
X124663200Y-95707200D01*
X125628400Y-93647200D02*
X125628400Y-94742000D01*
%TO.N,Net-(C20-Pad1)*%
X120020750Y-89414400D02*
X118541150Y-87934800D01*
X121771600Y-90188184D02*
X120997816Y-89414400D01*
X120997816Y-89414400D02*
X120020750Y-89414400D01*
X121771600Y-90709200D02*
X121771600Y-90188184D01*
X118541150Y-87934800D02*
X118232000Y-87934800D01*
%TO.N,GND*%
X121271600Y-90253870D02*
X121271600Y-90709200D01*
X119430800Y-89814400D02*
X120832130Y-89814400D01*
X120832130Y-89814400D02*
X121271600Y-90253870D01*
%TO.N,/GPIO1*%
X122174000Y-96316800D02*
X122783600Y-95707200D01*
X121841200Y-96316800D02*
X122174000Y-96316800D01*
%TO.N,Net-(J3-PadA5)*%
X127536000Y-94284800D02*
X126847600Y-93596400D01*
X128066800Y-94284800D02*
X127536000Y-94284800D01*
X128320800Y-94538800D02*
X128066800Y-94284800D01*
%TO.N,/GPIO0*%
X123783103Y-95120703D02*
X123271600Y-94609200D01*
X123783103Y-95707200D02*
X123783103Y-95120703D01*
%TO.N,/GPIO1*%
X122783600Y-95707200D02*
X122771600Y-95695200D01*
X122771600Y-95695200D02*
X122771600Y-94609200D01*
%TO.N,/USB_D+*%
X129026314Y-95246000D02*
X129137600Y-95246000D01*
X128660314Y-95612000D02*
X129026314Y-95246000D01*
X128311502Y-95612000D02*
X128660314Y-95612000D01*
X128272502Y-95573000D02*
X128311502Y-95612000D01*
X116879600Y-97045600D02*
X125679000Y-97045600D01*
X125679000Y-96129497D02*
X126235498Y-95573000D01*
X116840000Y-97085200D02*
X116879600Y-97045600D01*
X114824400Y-97085200D02*
X116840000Y-97085200D01*
X126235498Y-95573000D02*
X128272502Y-95573000D01*
X114729200Y-97180400D02*
X114824400Y-97085200D01*
X125679000Y-97045600D02*
X125679000Y-96129497D01*
%TO.N,/USB_D-*%
X118860800Y-97445600D02*
X118821200Y-97485200D01*
X126079000Y-96295183D02*
X126079000Y-97445600D01*
X126401183Y-95973000D02*
X126079000Y-96295183D01*
X126079000Y-97445600D02*
X118860800Y-97445600D01*
X128145817Y-96012000D02*
X128106817Y-95973000D01*
X128826000Y-96012000D02*
X128145817Y-96012000D01*
X128106817Y-95973000D02*
X126401183Y-95973000D01*
X129092000Y-95746000D02*
X128826000Y-96012000D01*
X130067000Y-95746000D02*
X129092000Y-95746000D01*
%TO.N,GND*%
X116332000Y-87934800D02*
X116332000Y-90119200D01*
X116093200Y-90358000D02*
X116332000Y-90119200D01*
X114488000Y-90358000D02*
X116093200Y-90358000D01*
X115468400Y-87071200D02*
X116332000Y-87934800D01*
X114968000Y-87071200D02*
X115468400Y-87071200D01*
%TO.N,+3V3*%
X114488000Y-87551200D02*
X114008000Y-87071200D01*
X114488000Y-88458000D02*
X114488000Y-87551200D01*
%TO.N,GND*%
X111178400Y-87622400D02*
X111633000Y-88077000D01*
X111178400Y-86715600D02*
X111178400Y-87622400D01*
%TO.N,/GPIO25*%
X110845600Y-93929200D02*
X110845600Y-95910400D01*
%TO.N,/GPIO1*%
X124663200Y-98196400D02*
X124612400Y-98145600D01*
X124663200Y-100228400D02*
X124663200Y-98196400D01*
%TO.N,GND*%
X124470200Y-102743000D02*
X128006000Y-102743000D01*
X124444800Y-102717600D02*
X124470200Y-102743000D01*
X128194000Y-90982800D02*
X128957200Y-91746000D01*
X127746800Y-90982800D02*
X128194000Y-90982800D01*
X126847600Y-92636400D02*
X128066800Y-92636400D01*
X128066800Y-92636400D02*
X128957200Y-91746000D01*
X128957200Y-91746000D02*
X130067000Y-91746000D01*
%TO.N,Net-(J3-PadB5)*%
X128066800Y-93596400D02*
X128016000Y-93545600D01*
X128417200Y-93246000D02*
X128066800Y-93596400D01*
X130067000Y-93246000D02*
X128417200Y-93246000D01*
D42*
%TO.N,VBUS*%
X132297000Y-93943000D02*
X130900000Y-92546000D01*
X130900000Y-92546000D02*
X130067000Y-92546000D01*
D43*
%TO.N,Net-(J3-PadA5)*%
X131541200Y-96246000D02*
X131572000Y-96215200D01*
X130067000Y-96246000D02*
X131541200Y-96246000D01*
%TO.N,GND*%
X130067000Y-98401000D02*
X130982000Y-99316000D01*
X130067000Y-98246000D02*
X130067000Y-98401000D01*
X121463600Y-99691000D02*
X121153000Y-99691000D01*
X121678000Y-99476600D02*
X121463600Y-99691000D01*
X121678000Y-98741000D02*
X121678000Y-99476600D01*
X121153000Y-98691000D02*
X121628000Y-98691000D01*
X121628000Y-98691000D02*
X121678000Y-98741000D01*
%TO.N,/GPIO25*%
X115630429Y-98233822D02*
X115759822Y-98233822D01*
X114843000Y-99021251D02*
X115630429Y-98233822D01*
X114843000Y-99562000D02*
X114843000Y-99021251D01*
%TO.N,/USB_D-*%
X115163600Y-97840800D02*
X115519200Y-97485200D01*
X112900400Y-97840800D02*
X115163600Y-97840800D01*
X112697200Y-98044000D02*
X112900400Y-97840800D01*
X115519200Y-97485200D02*
X118821200Y-97485200D01*
%TO.N,GND*%
X95951000Y-90170000D02*
X92877000Y-90170000D01*
X96012000Y-90231000D02*
X95951000Y-90170000D01*
X98425000Y-87818000D02*
X98425000Y-87373000D01*
X96012000Y-90231000D02*
X98425000Y-87818000D01*
%TO.N,Net-(R8-Pad1)*%
X98981200Y-85648800D02*
X98905000Y-85725000D01*
X99923600Y-85648800D02*
X98981200Y-85648800D01*
%TO.N,Net-(J4-Pad1)*%
X100388000Y-99688500D02*
X96355900Y-95656400D01*
X100388000Y-105949000D02*
X100388000Y-99688500D01*
%TO.N,GND*%
X130067000Y-91591000D02*
X130982000Y-90676000D01*
X130067000Y-91746000D02*
X130067000Y-91591000D01*
%TO.N,/USB_D+*%
X129092000Y-94246000D02*
X130067000Y-94246000D01*
X129042000Y-95150400D02*
X129042000Y-94296000D01*
X129042000Y-94296000D02*
X129092000Y-94246000D01*
X129137600Y-95246000D02*
X130067000Y-95246000D01*
X129137600Y-95246000D02*
X129042000Y-95150400D01*
%TO.N,/USB_D-*%
X131042000Y-94746000D02*
X130067000Y-94746000D01*
X131092000Y-94796000D02*
X131042000Y-94746000D01*
X131042000Y-95746000D02*
X131092000Y-95696000D01*
X131092000Y-95696000D02*
X131092000Y-94796000D01*
X130067000Y-95746000D02*
X131042000Y-95746000D01*
X118821200Y-97485200D02*
X118922800Y-97485200D01*
%TO.N,+1V1*%
X118345452Y-102397000D02*
X118878000Y-102397000D01*
X118246894Y-102298442D02*
X118345452Y-102397000D01*
X117622982Y-102298442D02*
X118246894Y-102298442D01*
X113334800Y-103987600D02*
X113233200Y-104089200D01*
X113334800Y-103197000D02*
X113334800Y-103987600D01*
%TO.N,Net-(C3-Pad1)*%
X117297200Y-98145600D02*
X117144800Y-98298000D01*
X118138000Y-98145600D02*
X117297200Y-98145600D01*
%TO.N,+3V3*%
X110488900Y-102797000D02*
X112008000Y-102797000D01*
X110407217Y-102878683D02*
X110488900Y-102797000D01*
%TO.N,GND*%
X130049000Y-90676000D02*
X127892000Y-88519000D01*
X130982000Y-90676000D02*
X130049000Y-90676000D01*
%TO.N,Net-(D3-Pad2)*%
X125092000Y-87224000D02*
X125575000Y-86741000D01*
X125092000Y-88519000D02*
X125092000Y-87224000D01*
%TO.N,Net-(D2-Pad2)*%
X126997000Y-85471000D02*
X125092000Y-83566000D01*
X127282000Y-85471000D02*
X126997000Y-85471000D01*
%TO.N,GND*%
X127906000Y-83552000D02*
X127892000Y-83566000D01*
X130454000Y-83552000D02*
X127906000Y-83552000D01*
D44*
%TO.N,+3V3*%
X130454000Y-85852000D02*
X136754000Y-85852000D01*
D43*
X128623000Y-85852000D02*
X130454000Y-85852000D01*
X128242000Y-85471000D02*
X128623000Y-85852000D01*
%TO.N,/GPIO0*%
X113243000Y-107418700D02*
X113131600Y-107530100D01*
X113243000Y-106432000D02*
X113243000Y-107418700D01*
%TO.N,/GPIO1*%
X113643000Y-107029600D02*
X113643000Y-106432000D01*
X114143500Y-107530100D02*
X113643000Y-107029600D01*
%TO.N,/GPIO6*%
X115643000Y-108385000D02*
X115643000Y-106432000D01*
X114998400Y-109029600D02*
X115643000Y-108385000D01*
X89780400Y-109029600D02*
X114998400Y-109029600D01*
X87869000Y-110941000D02*
X89780400Y-109029600D01*
%TO.N,/GPIO7*%
X116043000Y-108594600D02*
X116043000Y-106432000D01*
X115208000Y-109429600D02*
X116043000Y-108594600D01*
X98537000Y-111068000D02*
X100175400Y-109429600D01*
X100175400Y-109429600D02*
X115208000Y-109429600D01*
%TO.N,/GPIO0*%
X123397155Y-100935155D02*
X123178000Y-100716000D01*
X125369955Y-100935155D02*
X123397155Y-100935155D01*
%TO.N,/GPIO1*%
X124625800Y-100191000D02*
X124663200Y-100228400D01*
X123703000Y-100191000D02*
X124625800Y-100191000D01*
%TO.N,/GPIO12*%
X133981400Y-104387600D02*
X135626000Y-102743000D01*
X120202600Y-105597000D02*
X121412000Y-104387600D01*
X118878000Y-105597000D02*
X120202600Y-105597000D01*
X121412000Y-104387600D02*
X133981400Y-104387600D01*
%TO.N,/GPIO13*%
X119853886Y-105197000D02*
X118878000Y-105197000D01*
X121063286Y-103987600D02*
X119853886Y-105197000D01*
X131841400Y-103987600D02*
X121063286Y-103987600D01*
X133086000Y-102743000D02*
X131841400Y-103987600D01*
%TO.N,+1V1*%
X112866400Y-101487200D02*
X112576200Y-101197000D01*
X112576200Y-101197000D02*
X112008000Y-101197000D01*
X113334800Y-101487200D02*
X112866400Y-101487200D01*
X113334800Y-103197000D02*
X113334800Y-101487200D01*
X112008000Y-103197000D02*
X113334800Y-103197000D01*
%TO.N,/GPIO10*%
X130168000Y-109848000D02*
X131318000Y-110998000D01*
X120050686Y-109848000D02*
X130168000Y-109848000D01*
X117643000Y-107440314D02*
X120050686Y-109848000D01*
X117643000Y-106432000D02*
X117643000Y-107440314D01*
%TO.N,GND*%
X100724600Y-107149000D02*
X101334200Y-107149000D01*
X99980893Y-107149000D02*
X100724600Y-107149000D01*
X101488000Y-106995200D02*
X101488000Y-105949000D01*
X101334200Y-107149000D02*
X101488000Y-106995200D01*
X99288000Y-106456107D02*
X99980893Y-107149000D01*
X99288000Y-105949000D02*
X99288000Y-106456107D01*
%TO.N,/GPIO9*%
X117243000Y-107606000D02*
X120635000Y-110998000D01*
X117243000Y-106432000D02*
X117243000Y-107606000D01*
%TO.N,+3V3*%
X112008000Y-102797000D02*
X112008000Y-102397000D01*
%TO.N,/XIN*%
X115519200Y-94001200D02*
X115498000Y-93980000D01*
X115519200Y-95097600D02*
X115519200Y-94001200D01*
X120954800Y-103530400D02*
X121238055Y-103247145D01*
X120610400Y-103874800D02*
X120954800Y-103530400D01*
X121238055Y-103247145D02*
X121291281Y-103247145D01*
X120004450Y-103874800D02*
X120610400Y-103874800D01*
X119726650Y-103597000D02*
X120004450Y-103874800D01*
X118878000Y-103597000D02*
X119726650Y-103597000D01*
%TO.N,GND*%
X118878000Y-103997000D02*
X116443000Y-103997000D01*
X116443000Y-103997000D02*
X115443000Y-102997000D01*
%TO.N,/XOUT*%
X120272200Y-103197000D02*
X118878000Y-103197000D01*
X120294400Y-103174800D02*
X120272200Y-103197000D01*
%TO.N,GND*%
X110556000Y-89154000D02*
X111633000Y-88077000D01*
X108458000Y-89154000D02*
X110556000Y-89154000D01*
%TO.N,/~{USB_BOOT}*%
X103604000Y-89154000D02*
X103530400Y-89080400D01*
X105918000Y-89154000D02*
X103604000Y-89154000D01*
%TO.N,GND*%
X87797000Y-93640000D02*
X87797000Y-90170000D01*
X87488000Y-93949000D02*
X87797000Y-93640000D01*
%TO.N,Net-(C18-Pad2)*%
X96012000Y-86533500D02*
X96012000Y-88331000D01*
X97136500Y-86533500D02*
X97945000Y-85725000D01*
X96012000Y-86533500D02*
X97136500Y-86533500D01*
%TO.N,Net-(J4-Pad1)*%
X92790500Y-87630000D02*
X90337000Y-87630000D01*
X96012000Y-84408500D02*
X92790500Y-87630000D01*
%TO.N,Net-(D4-Pad2)*%
X99159000Y-90907000D02*
X98425000Y-90173000D01*
X99159000Y-91948000D02*
X99159000Y-90907000D01*
%TO.N,+3V3*%
X112008000Y-100397000D02*
X112843000Y-99562000D01*
X112008000Y-100397000D02*
X112008000Y-100797000D01*
%TO.N,/QSPI_SCLK*%
X109970604Y-103997000D02*
X112008000Y-103997000D01*
D42*
%TO.N,VBUS*%
X127802000Y-97446000D02*
X130067000Y-97446000D01*
X127254000Y-96898000D02*
X127802000Y-97446000D01*
%TD*%
M02*
