%TF.GenerationSoftware,KiCad,Pcbnew,(6.0.7)*%
%TF.CreationDate,2022-11-19T04:13:58-05:00*%
%TF.ProjectId,picopilotv1,7069636f-7069-46c6-9f74-76312e6b6963,rev?*%
%TF.SameCoordinates,Original*%
%TF.FileFunction,Drillmap*%
%TF.FilePolarity,Positive*%
%FSLAX45Y45*%
G04 Gerber Fmt 4.5, Leading zero omitted, Abs format (unit mm)*
G04 Created by KiCad (PCBNEW (6.0.7)) date 2022-11-19 04:13:58*
%MOMM*%
%LPD*%
G01*
G04 APERTURE LIST*
%ADD10C,0.100000*%
%ADD11C,0.200000*%
%ADD12C,0.065000*%
%ADD13C,0.270000*%
G04 APERTURE END LIST*
D10*
X8585200Y-8178800D02*
X13868400Y-8178800D01*
X13878560Y-11544300D02*
X13868400Y-8178800D01*
X8585200Y-11544300D02*
X13878560Y-11544300D01*
X8585200Y-8178800D02*
X8583700Y-8333000D01*
X8583700Y-9193000D02*
X8585200Y-11544300D01*
D11*
D12*
X13118700Y-9178100D02*
X13183700Y-9243100D01*
X13183700Y-9178100D02*
X13118700Y-9243100D01*
X13118700Y-9756100D02*
X13183700Y-9821100D01*
X13183700Y-9756100D02*
X13118700Y-9821100D01*
D13*
X24225000Y-14970000D02*
G75*
G03*
X24225000Y-14970000I-135000J0D01*
G01*
D11*
X8836319Y-11859776D02*
X8836319Y-11659776D01*
X8883938Y-11659776D01*
X8912510Y-11669300D01*
X8931557Y-11688348D01*
X8941081Y-11707395D01*
X8950605Y-11745490D01*
X8950605Y-11774062D01*
X8941081Y-11812157D01*
X8931557Y-11831205D01*
X8912510Y-11850252D01*
X8883938Y-11859776D01*
X8836319Y-11859776D01*
X9036319Y-11859776D02*
X9036319Y-11726443D01*
X9036319Y-11764538D02*
X9045843Y-11745490D01*
X9055367Y-11735967D01*
X9074414Y-11726443D01*
X9093462Y-11726443D01*
X9160129Y-11859776D02*
X9160129Y-11726443D01*
X9160129Y-11659776D02*
X9150605Y-11669300D01*
X9160129Y-11678824D01*
X9169652Y-11669300D01*
X9160129Y-11659776D01*
X9160129Y-11678824D01*
X9283938Y-11859776D02*
X9264890Y-11850252D01*
X9255367Y-11831205D01*
X9255367Y-11659776D01*
X9388700Y-11859776D02*
X9369652Y-11850252D01*
X9360129Y-11831205D01*
X9360129Y-11659776D01*
X9617271Y-11859776D02*
X9617271Y-11659776D01*
X9683938Y-11802633D01*
X9750605Y-11659776D01*
X9750605Y-11859776D01*
X9931557Y-11859776D02*
X9931557Y-11755014D01*
X9922033Y-11735967D01*
X9902986Y-11726443D01*
X9864890Y-11726443D01*
X9845843Y-11735967D01*
X9931557Y-11850252D02*
X9912510Y-11859776D01*
X9864890Y-11859776D01*
X9845843Y-11850252D01*
X9836319Y-11831205D01*
X9836319Y-11812157D01*
X9845843Y-11793109D01*
X9864890Y-11783586D01*
X9912510Y-11783586D01*
X9931557Y-11774062D01*
X10026795Y-11726443D02*
X10026795Y-11926443D01*
X10026795Y-11735967D02*
X10045843Y-11726443D01*
X10083938Y-11726443D01*
X10102986Y-11735967D01*
X10112510Y-11745490D01*
X10122033Y-11764538D01*
X10122033Y-11821681D01*
X10112510Y-11840728D01*
X10102986Y-11850252D01*
X10083938Y-11859776D01*
X10045843Y-11859776D01*
X10026795Y-11850252D01*
X10207748Y-11840728D02*
X10217271Y-11850252D01*
X10207748Y-11859776D01*
X10198224Y-11850252D01*
X10207748Y-11840728D01*
X10207748Y-11859776D01*
X10207748Y-11735967D02*
X10217271Y-11745490D01*
X10207748Y-11755014D01*
X10198224Y-11745490D01*
X10207748Y-11735967D01*
X10207748Y-11755014D01*
D12*
X8513700Y-12156800D02*
X8578700Y-12221800D01*
X8578700Y-12156800D02*
X8513700Y-12221800D01*
D11*
X8874414Y-12079776D02*
X8893462Y-12079776D01*
X8912510Y-12089300D01*
X8922033Y-12098824D01*
X8931557Y-12117871D01*
X8941081Y-12155967D01*
X8941081Y-12203586D01*
X8931557Y-12241681D01*
X8922033Y-12260728D01*
X8912510Y-12270252D01*
X8893462Y-12279776D01*
X8874414Y-12279776D01*
X8855367Y-12270252D01*
X8845843Y-12260728D01*
X8836319Y-12241681D01*
X8826795Y-12203586D01*
X8826795Y-12155967D01*
X8836319Y-12117871D01*
X8845843Y-12098824D01*
X8855367Y-12089300D01*
X8874414Y-12079776D01*
X9026795Y-12260728D02*
X9036319Y-12270252D01*
X9026795Y-12279776D01*
X9017271Y-12270252D01*
X9026795Y-12260728D01*
X9026795Y-12279776D01*
X9207748Y-12079776D02*
X9169652Y-12079776D01*
X9150605Y-12089300D01*
X9141081Y-12098824D01*
X9122033Y-12127395D01*
X9112510Y-12165490D01*
X9112510Y-12241681D01*
X9122033Y-12260728D01*
X9131557Y-12270252D01*
X9150605Y-12279776D01*
X9188700Y-12279776D01*
X9207748Y-12270252D01*
X9217271Y-12260728D01*
X9226795Y-12241681D01*
X9226795Y-12194062D01*
X9217271Y-12175014D01*
X9207748Y-12165490D01*
X9188700Y-12155967D01*
X9150605Y-12155967D01*
X9131557Y-12165490D01*
X9122033Y-12175014D01*
X9112510Y-12194062D01*
X9407748Y-12079776D02*
X9312510Y-12079776D01*
X9302986Y-12175014D01*
X9312510Y-12165490D01*
X9331557Y-12155967D01*
X9379176Y-12155967D01*
X9398224Y-12165490D01*
X9407748Y-12175014D01*
X9417271Y-12194062D01*
X9417271Y-12241681D01*
X9407748Y-12260728D01*
X9398224Y-12270252D01*
X9379176Y-12279776D01*
X9331557Y-12279776D01*
X9312510Y-12270252D01*
X9302986Y-12260728D01*
X9541081Y-12079776D02*
X9560129Y-12079776D01*
X9579176Y-12089300D01*
X9588700Y-12098824D01*
X9598224Y-12117871D01*
X9607748Y-12155967D01*
X9607748Y-12203586D01*
X9598224Y-12241681D01*
X9588700Y-12260728D01*
X9579176Y-12270252D01*
X9560129Y-12279776D01*
X9541081Y-12279776D01*
X9522033Y-12270252D01*
X9512510Y-12260728D01*
X9502986Y-12241681D01*
X9493462Y-12203586D01*
X9493462Y-12155967D01*
X9502986Y-12117871D01*
X9512510Y-12098824D01*
X9522033Y-12089300D01*
X9541081Y-12079776D01*
X9693462Y-12279776D02*
X9693462Y-12146443D01*
X9693462Y-12165490D02*
X9702986Y-12155967D01*
X9722033Y-12146443D01*
X9750605Y-12146443D01*
X9769652Y-12155967D01*
X9779176Y-12175014D01*
X9779176Y-12279776D01*
X9779176Y-12175014D02*
X9788700Y-12155967D01*
X9807748Y-12146443D01*
X9836319Y-12146443D01*
X9855367Y-12155967D01*
X9864890Y-12175014D01*
X9864890Y-12279776D01*
X9960129Y-12279776D02*
X9960129Y-12146443D01*
X9960129Y-12165490D02*
X9969652Y-12155967D01*
X9988700Y-12146443D01*
X10017271Y-12146443D01*
X10036319Y-12155967D01*
X10045843Y-12175014D01*
X10045843Y-12279776D01*
X10045843Y-12175014D02*
X10055367Y-12155967D01*
X10074414Y-12146443D01*
X10102986Y-12146443D01*
X10122033Y-12155967D01*
X10131557Y-12175014D01*
X10131557Y-12279776D01*
X10522033Y-12070252D02*
X10350605Y-12327395D01*
X10779176Y-12079776D02*
X10798224Y-12079776D01*
X10817271Y-12089300D01*
X10826795Y-12098824D01*
X10836319Y-12117871D01*
X10845843Y-12155967D01*
X10845843Y-12203586D01*
X10836319Y-12241681D01*
X10826795Y-12260728D01*
X10817271Y-12270252D01*
X10798224Y-12279776D01*
X10779176Y-12279776D01*
X10760129Y-12270252D01*
X10750605Y-12260728D01*
X10741081Y-12241681D01*
X10731557Y-12203586D01*
X10731557Y-12155967D01*
X10741081Y-12117871D01*
X10750605Y-12098824D01*
X10760129Y-12089300D01*
X10779176Y-12079776D01*
X10931557Y-12260728D02*
X10941081Y-12270252D01*
X10931557Y-12279776D01*
X10922033Y-12270252D01*
X10931557Y-12260728D01*
X10931557Y-12279776D01*
X11064890Y-12079776D02*
X11083938Y-12079776D01*
X11102986Y-12089300D01*
X11112510Y-12098824D01*
X11122033Y-12117871D01*
X11131557Y-12155967D01*
X11131557Y-12203586D01*
X11122033Y-12241681D01*
X11112510Y-12260728D01*
X11102986Y-12270252D01*
X11083938Y-12279776D01*
X11064890Y-12279776D01*
X11045843Y-12270252D01*
X11036319Y-12260728D01*
X11026795Y-12241681D01*
X11017271Y-12203586D01*
X11017271Y-12155967D01*
X11026795Y-12117871D01*
X11036319Y-12098824D01*
X11045843Y-12089300D01*
X11064890Y-12079776D01*
X11207748Y-12098824D02*
X11217271Y-12089300D01*
X11236319Y-12079776D01*
X11283938Y-12079776D01*
X11302986Y-12089300D01*
X11312509Y-12098824D01*
X11322033Y-12117871D01*
X11322033Y-12136919D01*
X11312509Y-12165490D01*
X11198224Y-12279776D01*
X11322033Y-12279776D01*
X11502986Y-12079776D02*
X11407748Y-12079776D01*
X11398224Y-12175014D01*
X11407748Y-12165490D01*
X11426795Y-12155967D01*
X11474414Y-12155967D01*
X11493462Y-12165490D01*
X11502986Y-12175014D01*
X11512509Y-12194062D01*
X11512509Y-12241681D01*
X11502986Y-12260728D01*
X11493462Y-12270252D01*
X11474414Y-12279776D01*
X11426795Y-12279776D01*
X11407748Y-12270252D01*
X11398224Y-12260728D01*
X11683938Y-12079776D02*
X11645843Y-12079776D01*
X11626795Y-12089300D01*
X11617271Y-12098824D01*
X11598224Y-12127395D01*
X11588700Y-12165490D01*
X11588700Y-12241681D01*
X11598224Y-12260728D01*
X11607748Y-12270252D01*
X11626795Y-12279776D01*
X11664890Y-12279776D01*
X11683938Y-12270252D01*
X11693462Y-12260728D01*
X11702986Y-12241681D01*
X11702986Y-12194062D01*
X11693462Y-12175014D01*
X11683938Y-12165490D01*
X11664890Y-12155967D01*
X11626795Y-12155967D01*
X11607748Y-12165490D01*
X11598224Y-12175014D01*
X11588700Y-12194062D01*
X11779176Y-12079776D02*
X11779176Y-12117871D01*
X11855367Y-12079776D02*
X11855367Y-12117871D01*
X12150605Y-12355967D02*
X12141081Y-12346443D01*
X12122033Y-12317871D01*
X12112509Y-12298824D01*
X12102986Y-12270252D01*
X12093462Y-12222633D01*
X12093462Y-12184538D01*
X12102986Y-12136919D01*
X12112509Y-12108348D01*
X12122033Y-12089300D01*
X12141081Y-12060728D01*
X12150605Y-12051205D01*
X12217271Y-12098824D02*
X12226795Y-12089300D01*
X12245843Y-12079776D01*
X12293462Y-12079776D01*
X12312509Y-12089300D01*
X12322033Y-12098824D01*
X12331557Y-12117871D01*
X12331557Y-12136919D01*
X12322033Y-12165490D01*
X12207748Y-12279776D01*
X12331557Y-12279776D01*
X12569652Y-12279776D02*
X12569652Y-12079776D01*
X12655367Y-12279776D02*
X12655367Y-12175014D01*
X12645843Y-12155967D01*
X12626795Y-12146443D01*
X12598224Y-12146443D01*
X12579176Y-12155967D01*
X12569652Y-12165490D01*
X12779176Y-12279776D02*
X12760128Y-12270252D01*
X12750605Y-12260728D01*
X12741081Y-12241681D01*
X12741081Y-12184538D01*
X12750605Y-12165490D01*
X12760128Y-12155967D01*
X12779176Y-12146443D01*
X12807748Y-12146443D01*
X12826795Y-12155967D01*
X12836319Y-12165490D01*
X12845843Y-12184538D01*
X12845843Y-12241681D01*
X12836319Y-12260728D01*
X12826795Y-12270252D01*
X12807748Y-12279776D01*
X12779176Y-12279776D01*
X12960128Y-12279776D02*
X12941081Y-12270252D01*
X12931557Y-12251205D01*
X12931557Y-12079776D01*
X13112509Y-12270252D02*
X13093462Y-12279776D01*
X13055367Y-12279776D01*
X13036319Y-12270252D01*
X13026795Y-12251205D01*
X13026795Y-12175014D01*
X13036319Y-12155967D01*
X13055367Y-12146443D01*
X13093462Y-12146443D01*
X13112509Y-12155967D01*
X13122033Y-12175014D01*
X13122033Y-12194062D01*
X13026795Y-12213109D01*
X13198224Y-12270252D02*
X13217271Y-12279776D01*
X13255367Y-12279776D01*
X13274414Y-12270252D01*
X13283938Y-12251205D01*
X13283938Y-12241681D01*
X13274414Y-12222633D01*
X13255367Y-12213109D01*
X13226795Y-12213109D01*
X13207748Y-12203586D01*
X13198224Y-12184538D01*
X13198224Y-12175014D01*
X13207748Y-12155967D01*
X13226795Y-12146443D01*
X13255367Y-12146443D01*
X13274414Y-12155967D01*
X13350605Y-12355967D02*
X13360128Y-12346443D01*
X13379176Y-12317871D01*
X13388700Y-12298824D01*
X13398224Y-12270252D01*
X13407748Y-12222633D01*
X13407748Y-12184538D01*
X13398224Y-12136919D01*
X13388700Y-12108348D01*
X13379176Y-12089300D01*
X13360128Y-12060728D01*
X13350605Y-12051205D01*
X13712509Y-12355967D02*
X13702986Y-12346443D01*
X13683938Y-12317871D01*
X13674414Y-12298824D01*
X13664890Y-12270252D01*
X13655367Y-12222633D01*
X13655367Y-12184538D01*
X13664890Y-12136919D01*
X13674414Y-12108348D01*
X13683938Y-12089300D01*
X13702986Y-12060728D01*
X13712509Y-12051205D01*
X13788700Y-12146443D02*
X13788700Y-12279776D01*
X13788700Y-12165490D02*
X13798224Y-12155967D01*
X13817271Y-12146443D01*
X13845843Y-12146443D01*
X13864890Y-12155967D01*
X13874414Y-12175014D01*
X13874414Y-12279776D01*
X13998224Y-12279776D02*
X13979176Y-12270252D01*
X13969652Y-12260728D01*
X13960128Y-12241681D01*
X13960128Y-12184538D01*
X13969652Y-12165490D01*
X13979176Y-12155967D01*
X13998224Y-12146443D01*
X14026795Y-12146443D01*
X14045843Y-12155967D01*
X14055367Y-12165490D01*
X14064890Y-12184538D01*
X14064890Y-12241681D01*
X14055367Y-12260728D01*
X14045843Y-12270252D01*
X14026795Y-12279776D01*
X13998224Y-12279776D01*
X14122033Y-12146443D02*
X14198224Y-12146443D01*
X14150605Y-12079776D02*
X14150605Y-12251205D01*
X14160128Y-12270252D01*
X14179176Y-12279776D01*
X14198224Y-12279776D01*
X14417271Y-12146443D02*
X14417271Y-12346443D01*
X14417271Y-12155967D02*
X14436319Y-12146443D01*
X14474414Y-12146443D01*
X14493462Y-12155967D01*
X14502986Y-12165490D01*
X14512509Y-12184538D01*
X14512509Y-12241681D01*
X14502986Y-12260728D01*
X14493462Y-12270252D01*
X14474414Y-12279776D01*
X14436319Y-12279776D01*
X14417271Y-12270252D01*
X14626795Y-12279776D02*
X14607748Y-12270252D01*
X14598224Y-12251205D01*
X14598224Y-12079776D01*
X14788700Y-12279776D02*
X14788700Y-12175014D01*
X14779176Y-12155967D01*
X14760128Y-12146443D01*
X14722033Y-12146443D01*
X14702986Y-12155967D01*
X14788700Y-12270252D02*
X14769652Y-12279776D01*
X14722033Y-12279776D01*
X14702986Y-12270252D01*
X14693462Y-12251205D01*
X14693462Y-12232157D01*
X14702986Y-12213109D01*
X14722033Y-12203586D01*
X14769652Y-12203586D01*
X14788700Y-12194062D01*
X14855367Y-12146443D02*
X14931557Y-12146443D01*
X14883938Y-12079776D02*
X14883938Y-12251205D01*
X14893462Y-12270252D01*
X14912509Y-12279776D01*
X14931557Y-12279776D01*
X15074414Y-12270252D02*
X15055367Y-12279776D01*
X15017271Y-12279776D01*
X14998224Y-12270252D01*
X14988700Y-12251205D01*
X14988700Y-12175014D01*
X14998224Y-12155967D01*
X15017271Y-12146443D01*
X15055367Y-12146443D01*
X15074414Y-12155967D01*
X15083938Y-12175014D01*
X15083938Y-12194062D01*
X14988700Y-12213109D01*
X15255367Y-12279776D02*
X15255367Y-12079776D01*
X15255367Y-12270252D02*
X15236319Y-12279776D01*
X15198224Y-12279776D01*
X15179176Y-12270252D01*
X15169652Y-12260728D01*
X15160128Y-12241681D01*
X15160128Y-12184538D01*
X15169652Y-12165490D01*
X15179176Y-12155967D01*
X15198224Y-12146443D01*
X15236319Y-12146443D01*
X15255367Y-12155967D01*
X15331557Y-12355967D02*
X15341081Y-12346443D01*
X15360128Y-12317871D01*
X15369652Y-12298824D01*
X15379176Y-12270252D01*
X15388700Y-12222633D01*
X15388700Y-12184538D01*
X15379176Y-12136919D01*
X15369652Y-12108348D01*
X15360128Y-12089300D01*
X15341081Y-12060728D01*
X15331557Y-12051205D01*
X8578700Y-12453300D02*
G75*
G03*
X8578700Y-12453300I-100000J0D01*
G01*
X8826795Y-12362824D02*
X8836319Y-12353300D01*
X8855367Y-12343776D01*
X8902986Y-12343776D01*
X8922033Y-12353300D01*
X8931557Y-12362824D01*
X8941081Y-12381871D01*
X8941081Y-12400919D01*
X8931557Y-12429490D01*
X8817271Y-12543776D01*
X8941081Y-12543776D01*
X9026795Y-12524728D02*
X9036319Y-12534252D01*
X9026795Y-12543776D01*
X9017271Y-12534252D01*
X9026795Y-12524728D01*
X9026795Y-12543776D01*
X9102986Y-12343776D02*
X9236319Y-12343776D01*
X9150605Y-12543776D01*
X9350605Y-12343776D02*
X9369652Y-12343776D01*
X9388700Y-12353300D01*
X9398224Y-12362824D01*
X9407748Y-12381871D01*
X9417271Y-12419967D01*
X9417271Y-12467586D01*
X9407748Y-12505681D01*
X9398224Y-12524728D01*
X9388700Y-12534252D01*
X9369652Y-12543776D01*
X9350605Y-12543776D01*
X9331557Y-12534252D01*
X9322033Y-12524728D01*
X9312510Y-12505681D01*
X9302986Y-12467586D01*
X9302986Y-12419967D01*
X9312510Y-12381871D01*
X9322033Y-12362824D01*
X9331557Y-12353300D01*
X9350605Y-12343776D01*
X9541081Y-12343776D02*
X9560129Y-12343776D01*
X9579176Y-12353300D01*
X9588700Y-12362824D01*
X9598224Y-12381871D01*
X9607748Y-12419967D01*
X9607748Y-12467586D01*
X9598224Y-12505681D01*
X9588700Y-12524728D01*
X9579176Y-12534252D01*
X9560129Y-12543776D01*
X9541081Y-12543776D01*
X9522033Y-12534252D01*
X9512510Y-12524728D01*
X9502986Y-12505681D01*
X9493462Y-12467586D01*
X9493462Y-12419967D01*
X9502986Y-12381871D01*
X9512510Y-12362824D01*
X9522033Y-12353300D01*
X9541081Y-12343776D01*
X9693462Y-12543776D02*
X9693462Y-12410443D01*
X9693462Y-12429490D02*
X9702986Y-12419967D01*
X9722033Y-12410443D01*
X9750605Y-12410443D01*
X9769652Y-12419967D01*
X9779176Y-12439014D01*
X9779176Y-12543776D01*
X9779176Y-12439014D02*
X9788700Y-12419967D01*
X9807748Y-12410443D01*
X9836319Y-12410443D01*
X9855367Y-12419967D01*
X9864890Y-12439014D01*
X9864890Y-12543776D01*
X9960129Y-12543776D02*
X9960129Y-12410443D01*
X9960129Y-12429490D02*
X9969652Y-12419967D01*
X9988700Y-12410443D01*
X10017271Y-12410443D01*
X10036319Y-12419967D01*
X10045843Y-12439014D01*
X10045843Y-12543776D01*
X10045843Y-12439014D02*
X10055367Y-12419967D01*
X10074414Y-12410443D01*
X10102986Y-12410443D01*
X10122033Y-12419967D01*
X10131557Y-12439014D01*
X10131557Y-12543776D01*
X10522033Y-12334252D02*
X10350605Y-12591395D01*
X10779176Y-12343776D02*
X10798224Y-12343776D01*
X10817271Y-12353300D01*
X10826795Y-12362824D01*
X10836319Y-12381871D01*
X10845843Y-12419967D01*
X10845843Y-12467586D01*
X10836319Y-12505681D01*
X10826795Y-12524728D01*
X10817271Y-12534252D01*
X10798224Y-12543776D01*
X10779176Y-12543776D01*
X10760129Y-12534252D01*
X10750605Y-12524728D01*
X10741081Y-12505681D01*
X10731557Y-12467586D01*
X10731557Y-12419967D01*
X10741081Y-12381871D01*
X10750605Y-12362824D01*
X10760129Y-12353300D01*
X10779176Y-12343776D01*
X10931557Y-12524728D02*
X10941081Y-12534252D01*
X10931557Y-12543776D01*
X10922033Y-12534252D01*
X10931557Y-12524728D01*
X10931557Y-12543776D01*
X11131557Y-12543776D02*
X11017271Y-12543776D01*
X11074414Y-12543776D02*
X11074414Y-12343776D01*
X11055367Y-12372348D01*
X11036319Y-12391395D01*
X11017271Y-12400919D01*
X11255367Y-12343776D02*
X11274414Y-12343776D01*
X11293462Y-12353300D01*
X11302986Y-12362824D01*
X11312509Y-12381871D01*
X11322033Y-12419967D01*
X11322033Y-12467586D01*
X11312509Y-12505681D01*
X11302986Y-12524728D01*
X11293462Y-12534252D01*
X11274414Y-12543776D01*
X11255367Y-12543776D01*
X11236319Y-12534252D01*
X11226795Y-12524728D01*
X11217271Y-12505681D01*
X11207748Y-12467586D01*
X11207748Y-12419967D01*
X11217271Y-12381871D01*
X11226795Y-12362824D01*
X11236319Y-12353300D01*
X11255367Y-12343776D01*
X11493462Y-12343776D02*
X11455367Y-12343776D01*
X11436319Y-12353300D01*
X11426795Y-12362824D01*
X11407748Y-12391395D01*
X11398224Y-12429490D01*
X11398224Y-12505681D01*
X11407748Y-12524728D01*
X11417271Y-12534252D01*
X11436319Y-12543776D01*
X11474414Y-12543776D01*
X11493462Y-12534252D01*
X11502986Y-12524728D01*
X11512509Y-12505681D01*
X11512509Y-12458062D01*
X11502986Y-12439014D01*
X11493462Y-12429490D01*
X11474414Y-12419967D01*
X11436319Y-12419967D01*
X11417271Y-12429490D01*
X11407748Y-12439014D01*
X11398224Y-12458062D01*
X11579176Y-12343776D02*
X11702986Y-12343776D01*
X11636319Y-12419967D01*
X11664890Y-12419967D01*
X11683938Y-12429490D01*
X11693462Y-12439014D01*
X11702986Y-12458062D01*
X11702986Y-12505681D01*
X11693462Y-12524728D01*
X11683938Y-12534252D01*
X11664890Y-12543776D01*
X11607748Y-12543776D01*
X11588700Y-12534252D01*
X11579176Y-12524728D01*
X11779176Y-12343776D02*
X11779176Y-12381871D01*
X11855367Y-12343776D02*
X11855367Y-12381871D01*
X12150605Y-12619967D02*
X12141081Y-12610443D01*
X12122033Y-12581871D01*
X12112509Y-12562824D01*
X12102986Y-12534252D01*
X12093462Y-12486633D01*
X12093462Y-12448538D01*
X12102986Y-12400919D01*
X12112509Y-12372348D01*
X12122033Y-12353300D01*
X12141081Y-12324728D01*
X12150605Y-12315205D01*
X12331557Y-12543776D02*
X12217271Y-12543776D01*
X12274414Y-12543776D02*
X12274414Y-12343776D01*
X12255367Y-12372348D01*
X12236319Y-12391395D01*
X12217271Y-12400919D01*
X12569652Y-12543776D02*
X12569652Y-12343776D01*
X12655367Y-12543776D02*
X12655367Y-12439014D01*
X12645843Y-12419967D01*
X12626795Y-12410443D01*
X12598224Y-12410443D01*
X12579176Y-12419967D01*
X12569652Y-12429490D01*
X12779176Y-12543776D02*
X12760128Y-12534252D01*
X12750605Y-12524728D01*
X12741081Y-12505681D01*
X12741081Y-12448538D01*
X12750605Y-12429490D01*
X12760128Y-12419967D01*
X12779176Y-12410443D01*
X12807748Y-12410443D01*
X12826795Y-12419967D01*
X12836319Y-12429490D01*
X12845843Y-12448538D01*
X12845843Y-12505681D01*
X12836319Y-12524728D01*
X12826795Y-12534252D01*
X12807748Y-12543776D01*
X12779176Y-12543776D01*
X12960128Y-12543776D02*
X12941081Y-12534252D01*
X12931557Y-12515205D01*
X12931557Y-12343776D01*
X13112509Y-12534252D02*
X13093462Y-12543776D01*
X13055367Y-12543776D01*
X13036319Y-12534252D01*
X13026795Y-12515205D01*
X13026795Y-12439014D01*
X13036319Y-12419967D01*
X13055367Y-12410443D01*
X13093462Y-12410443D01*
X13112509Y-12419967D01*
X13122033Y-12439014D01*
X13122033Y-12458062D01*
X13026795Y-12477109D01*
X13188700Y-12619967D02*
X13198224Y-12610443D01*
X13217271Y-12581871D01*
X13226795Y-12562824D01*
X13236319Y-12534252D01*
X13245843Y-12486633D01*
X13245843Y-12448538D01*
X13236319Y-12400919D01*
X13226795Y-12372348D01*
X13217271Y-12353300D01*
X13198224Y-12324728D01*
X13188700Y-12315205D01*
X13550605Y-12619967D02*
X13541081Y-12610443D01*
X13522033Y-12581871D01*
X13512509Y-12562824D01*
X13502986Y-12534252D01*
X13493462Y-12486633D01*
X13493462Y-12448538D01*
X13502986Y-12400919D01*
X13512509Y-12372348D01*
X13522033Y-12353300D01*
X13541081Y-12324728D01*
X13550605Y-12315205D01*
X13626795Y-12410443D02*
X13626795Y-12543776D01*
X13626795Y-12429490D02*
X13636319Y-12419967D01*
X13655367Y-12410443D01*
X13683938Y-12410443D01*
X13702986Y-12419967D01*
X13712509Y-12439014D01*
X13712509Y-12543776D01*
X13836319Y-12543776D02*
X13817271Y-12534252D01*
X13807748Y-12524728D01*
X13798224Y-12505681D01*
X13798224Y-12448538D01*
X13807748Y-12429490D01*
X13817271Y-12419967D01*
X13836319Y-12410443D01*
X13864890Y-12410443D01*
X13883938Y-12419967D01*
X13893462Y-12429490D01*
X13902986Y-12448538D01*
X13902986Y-12505681D01*
X13893462Y-12524728D01*
X13883938Y-12534252D01*
X13864890Y-12543776D01*
X13836319Y-12543776D01*
X13960128Y-12410443D02*
X14036319Y-12410443D01*
X13988700Y-12343776D02*
X13988700Y-12515205D01*
X13998224Y-12534252D01*
X14017271Y-12543776D01*
X14036319Y-12543776D01*
X14255367Y-12410443D02*
X14255367Y-12610443D01*
X14255367Y-12419967D02*
X14274414Y-12410443D01*
X14312509Y-12410443D01*
X14331557Y-12419967D01*
X14341081Y-12429490D01*
X14350605Y-12448538D01*
X14350605Y-12505681D01*
X14341081Y-12524728D01*
X14331557Y-12534252D01*
X14312509Y-12543776D01*
X14274414Y-12543776D01*
X14255367Y-12534252D01*
X14464890Y-12543776D02*
X14445843Y-12534252D01*
X14436319Y-12515205D01*
X14436319Y-12343776D01*
X14626795Y-12543776D02*
X14626795Y-12439014D01*
X14617271Y-12419967D01*
X14598224Y-12410443D01*
X14560128Y-12410443D01*
X14541081Y-12419967D01*
X14626795Y-12534252D02*
X14607748Y-12543776D01*
X14560128Y-12543776D01*
X14541081Y-12534252D01*
X14531557Y-12515205D01*
X14531557Y-12496157D01*
X14541081Y-12477109D01*
X14560128Y-12467586D01*
X14607748Y-12467586D01*
X14626795Y-12458062D01*
X14693462Y-12410443D02*
X14769652Y-12410443D01*
X14722033Y-12343776D02*
X14722033Y-12515205D01*
X14731557Y-12534252D01*
X14750605Y-12543776D01*
X14769652Y-12543776D01*
X14912509Y-12534252D02*
X14893462Y-12543776D01*
X14855367Y-12543776D01*
X14836319Y-12534252D01*
X14826795Y-12515205D01*
X14826795Y-12439014D01*
X14836319Y-12419967D01*
X14855367Y-12410443D01*
X14893462Y-12410443D01*
X14912509Y-12419967D01*
X14922033Y-12439014D01*
X14922033Y-12458062D01*
X14826795Y-12477109D01*
X15093462Y-12543776D02*
X15093462Y-12343776D01*
X15093462Y-12534252D02*
X15074414Y-12543776D01*
X15036319Y-12543776D01*
X15017271Y-12534252D01*
X15007748Y-12524728D01*
X14998224Y-12505681D01*
X14998224Y-12448538D01*
X15007748Y-12429490D01*
X15017271Y-12419967D01*
X15036319Y-12410443D01*
X15074414Y-12410443D01*
X15093462Y-12419967D01*
X15169652Y-12619967D02*
X15179176Y-12610443D01*
X15198224Y-12581871D01*
X15207748Y-12562824D01*
X15217271Y-12534252D01*
X15226795Y-12486633D01*
X15226795Y-12448538D01*
X15217271Y-12400919D01*
X15207748Y-12372348D01*
X15198224Y-12353300D01*
X15179176Y-12324728D01*
X15169652Y-12315205D01*
M02*
