%TF.GenerationSoftware,KiCad,Pcbnew,(6.0.7)*%
%TF.CreationDate,2022-11-19T04:14:00-05:00*%
%TF.ProjectId,picopilotv1,7069636f-7069-46c6-9f74-76312e6b6963,rev?*%
%TF.SameCoordinates,Original*%
%TF.FileFunction,Copper,L2,Inr*%
%TF.FilePolarity,Positive*%
%FSLAX46Y46*%
G04 Gerber Fmt 4.6, Leading zero omitted, Abs format (unit mm)*
G04 Created by KiCad (PCBNEW (6.0.7)) date 2022-11-19 04:14:00*
%MOMM*%
%LPD*%
G01*
G04 APERTURE LIST*
%TA.AperFunction,ComponentPad*%
%ADD10R,1.700000X1.700000*%
%TD*%
%TA.AperFunction,ComponentPad*%
%ADD11O,1.700000X1.700000*%
%TD*%
%TA.AperFunction,ComponentPad*%
%ADD12C,2.500000*%
%TD*%
%TA.AperFunction,ComponentPad*%
%ADD13O,2.100000X1.000000*%
%TD*%
%TA.AperFunction,ComponentPad*%
%ADD14O,1.600000X1.000000*%
%TD*%
%TA.AperFunction,ViaPad*%
%ADD15C,0.800000*%
%TD*%
G04 APERTURE END LIST*
D10*
%TO.N,GND*%
%TO.C,P4*%
X125715000Y-110998000D03*
D11*
%TO.N,+5V*%
X123175000Y-110998000D03*
%TO.N,/GPIO9*%
X120635000Y-110998000D03*
%TD*%
D10*
%TO.N,GND*%
%TO.C,P1*%
X92949000Y-110941000D03*
D11*
%TO.N,+5V*%
X90409000Y-110941000D03*
%TO.N,/GPIO6*%
X87869000Y-110941000D03*
%TD*%
D10*
%TO.N,/GPIO12*%
%TO.C,J1*%
X135626000Y-102743000D03*
D11*
%TO.N,/GPIO13*%
X133086000Y-102743000D03*
%TO.N,GND*%
X128006000Y-102743000D03*
%TD*%
%TO.N,/GPIO10*%
%TO.C,P5*%
X131318000Y-110998000D03*
%TO.N,+5V*%
X133858000Y-110998000D03*
D10*
%TO.N,GND*%
X136398000Y-110998000D03*
%TD*%
%TO.N,/~{USB_BOOT}*%
%TO.C,J2*%
X105918000Y-89154000D03*
D11*
%TO.N,GND*%
X108458000Y-89154000D03*
%TD*%
D12*
%TO.N,GND*%
%TO.C,J4*%
X87797000Y-90170000D03*
X92877000Y-85090000D03*
X92877000Y-90170000D03*
X87797000Y-85090000D03*
%TD*%
D13*
%TO.N,GND*%
%TO.C,J3*%
X130982000Y-99316000D03*
D14*
X135162000Y-90676000D03*
X135162000Y-99316000D03*
D13*
X130982000Y-90676000D03*
%TD*%
D10*
%TO.N,GND*%
%TO.C,P2*%
X103617000Y-111068000D03*
D11*
%TO.N,+5V*%
X101077000Y-111068000D03*
%TO.N,/GPIO7*%
X98537000Y-111068000D03*
%TD*%
D10*
%TO.N,/GPIO0*%
%TO.C,J5*%
X135636000Y-106807000D03*
D11*
%TO.N,/GPIO1*%
X133096000Y-106807000D03*
%TO.N,+3V3*%
X130556000Y-106807000D03*
%TO.N,GND*%
X128016000Y-106807000D03*
%TD*%
D10*
%TO.N,GND*%
%TO.C,P3*%
X114539000Y-110998000D03*
D11*
%TO.N,+5V*%
X111999000Y-110998000D03*
%TO.N,/GPIO8*%
X109459000Y-110998000D03*
%TD*%
D15*
%TO.N,/QSPI_SD0*%
X108000800Y-102209600D03*
X105511600Y-103124000D03*
%TO.N,/QSPI_SCLK*%
X106781600Y-100482400D03*
X106845778Y-103059822D03*
%TO.N,GND*%
X124473378Y-94907778D03*
X116332000Y-91490800D03*
X122275600Y-89509600D03*
X119430800Y-89814400D03*
X119481600Y-94894400D03*
%TO.N,/GPIO0*%
X123783103Y-95707200D03*
%TO.N,/GPIO1*%
X122783600Y-95707200D03*
X124612400Y-98145600D03*
%TO.N,VBUS*%
X126746000Y-89865200D03*
X132297000Y-93943000D03*
%TO.N,Net-(J3-PadA5)*%
X131572000Y-96215200D03*
X128320800Y-94538800D03*
%TO.N,GND*%
X120192800Y-99720400D03*
%TO.N,/GPIO25*%
X123647200Y-86715600D03*
X110845600Y-93929200D03*
X110845600Y-95910400D03*
X115759822Y-98233822D03*
%TO.N,GND*%
X132181600Y-83566000D03*
X101498400Y-95707200D03*
%TO.N,Net-(R8-Pad1)*%
X99923600Y-85648800D03*
X96774000Y-97180400D03*
%TO.N,Net-(J4-Pad1)*%
X92811600Y-87630000D03*
X96355900Y-95656400D03*
%TO.N,GND*%
X121361200Y-108508800D03*
%TO.N,+1V1*%
X119024400Y-106527600D03*
%TO.N,GND*%
X109811500Y-97670300D03*
%TO.N,+1V1*%
X117622982Y-102298442D03*
X113233200Y-104089200D03*
%TO.N,Net-(C3-Pad1)*%
X106324400Y-95758000D03*
X117144800Y-98298000D03*
%TO.N,GND*%
X115443000Y-102997000D03*
%TO.N,/GPIO0*%
X113131600Y-107530100D03*
%TO.N,/GPIO1*%
X114143500Y-107530100D03*
X131826000Y-105087100D03*
X124663200Y-100228400D03*
%TO.N,/GPIO0*%
X125369955Y-100935155D03*
X135636000Y-105410000D03*
%TO.N,/GPIO4*%
X90627200Y-95554800D03*
X89966800Y-107930100D03*
%TO.N,GND*%
X109524800Y-106070400D03*
X101752400Y-107530100D03*
%TO.N,/XIN*%
X121291281Y-103247145D03*
X115519200Y-95097600D03*
%TO.N,/XOUT*%
X120294400Y-103174800D03*
%TD*%
%TA.AperFunction,Conductor*%
%TO.N,GND*%
G36*
X136306436Y-82316502D02*
G01*
X136352929Y-82370158D01*
X136363033Y-82440432D01*
X136333539Y-82505012D01*
X136313197Y-82522293D01*
X136313805Y-82523071D01*
X136308251Y-82527410D01*
X136302252Y-82531101D01*
X136185480Y-82645453D01*
X136096945Y-82782834D01*
X136094536Y-82789454D01*
X136094535Y-82789455D01*
X136068996Y-82859624D01*
X136041046Y-82936415D01*
X136020561Y-83098564D01*
X136036510Y-83261222D01*
X136038734Y-83267907D01*
X136038734Y-83267908D01*
X136058570Y-83327537D01*
X136088099Y-83416305D01*
X136172765Y-83556104D01*
X136286298Y-83673671D01*
X136292190Y-83677526D01*
X136292194Y-83677530D01*
X136376153Y-83732471D01*
X136423057Y-83763164D01*
X136458732Y-83776431D01*
X136569648Y-83817680D01*
X136569651Y-83817681D01*
X136576245Y-83820133D01*
X136583222Y-83821064D01*
X136731266Y-83840818D01*
X136731270Y-83840818D01*
X136738247Y-83841749D01*
X136745258Y-83841111D01*
X136745262Y-83841111D01*
X136893991Y-83827575D01*
X136901012Y-83826936D01*
X136907714Y-83824758D01*
X136907716Y-83824758D01*
X137049752Y-83778608D01*
X137049755Y-83778607D01*
X137056451Y-83776431D01*
X137085175Y-83759308D01*
X137190786Y-83696352D01*
X137190788Y-83696351D01*
X137196838Y-83692744D01*
X137315195Y-83580034D01*
X137405640Y-83443903D01*
X137435974Y-83364048D01*
X137461178Y-83297700D01*
X137461179Y-83297695D01*
X137463678Y-83291117D01*
X137466940Y-83267908D01*
X137485873Y-83133193D01*
X137485873Y-83133188D01*
X137486424Y-83129270D01*
X137486710Y-83108800D01*
X137468492Y-82946381D01*
X137414742Y-82792034D01*
X137328134Y-82653430D01*
X137323172Y-82648433D01*
X137217933Y-82542457D01*
X137217929Y-82542454D01*
X137212970Y-82537460D01*
X137199458Y-82528885D01*
X137152659Y-82475496D01*
X137142154Y-82405281D01*
X137171278Y-82340533D01*
X137230784Y-82301809D01*
X137266972Y-82296500D01*
X138049503Y-82296500D01*
X138117624Y-82316502D01*
X138164117Y-82370158D01*
X138175502Y-82422994D01*
X138049493Y-114555185D01*
X138029224Y-114623227D01*
X137975386Y-114669509D01*
X137923185Y-114680691D01*
X86485689Y-114554309D01*
X86417619Y-114534139D01*
X86371258Y-114480370D01*
X86360000Y-114428309D01*
X86360000Y-111481059D01*
X86380002Y-111412938D01*
X86433658Y-111366445D01*
X86503932Y-111356341D01*
X86568512Y-111385835D01*
X86602743Y-111433655D01*
X86652266Y-111555616D01*
X86689894Y-111617020D01*
X86766291Y-111741688D01*
X86768987Y-111746088D01*
X86915250Y-111914938D01*
X87087126Y-112057632D01*
X87280000Y-112170338D01*
X87488692Y-112250030D01*
X87493760Y-112251061D01*
X87493763Y-112251062D01*
X87601017Y-112272883D01*
X87707597Y-112294567D01*
X87712772Y-112294757D01*
X87712774Y-112294757D01*
X87925673Y-112302564D01*
X87925677Y-112302564D01*
X87930837Y-112302753D01*
X87935957Y-112302097D01*
X87935959Y-112302097D01*
X88147288Y-112275025D01*
X88147289Y-112275025D01*
X88152416Y-112274368D01*
X88157366Y-112272883D01*
X88361429Y-112211661D01*
X88361434Y-112211659D01*
X88366384Y-112210174D01*
X88566994Y-112111896D01*
X88748860Y-111982173D01*
X88755818Y-111975240D01*
X88889036Y-111842486D01*
X88907096Y-111824489D01*
X88945512Y-111771028D01*
X89037453Y-111643077D01*
X89038776Y-111644028D01*
X89085645Y-111600857D01*
X89155580Y-111588625D01*
X89221026Y-111616144D01*
X89248875Y-111647994D01*
X89308987Y-111746088D01*
X89455250Y-111914938D01*
X89627126Y-112057632D01*
X89820000Y-112170338D01*
X90028692Y-112250030D01*
X90033760Y-112251061D01*
X90033763Y-112251062D01*
X90141017Y-112272883D01*
X90247597Y-112294567D01*
X90252772Y-112294757D01*
X90252774Y-112294757D01*
X90465673Y-112302564D01*
X90465677Y-112302564D01*
X90470837Y-112302753D01*
X90475957Y-112302097D01*
X90475959Y-112302097D01*
X90687288Y-112275025D01*
X90687289Y-112275025D01*
X90692416Y-112274368D01*
X90697366Y-112272883D01*
X90901429Y-112211661D01*
X90901434Y-112211659D01*
X90906384Y-112210174D01*
X91106994Y-112111896D01*
X91288860Y-111982173D01*
X91295818Y-111975240D01*
X91397479Y-111873933D01*
X91459851Y-111840017D01*
X91530658Y-111845205D01*
X91587419Y-111887851D01*
X91604401Y-111918954D01*
X91645676Y-112029054D01*
X91654214Y-112044649D01*
X91730715Y-112146724D01*
X91743276Y-112159285D01*
X91845351Y-112235786D01*
X91860946Y-112244324D01*
X91981394Y-112289478D01*
X91996649Y-112293105D01*
X92047514Y-112298631D01*
X92054328Y-112299000D01*
X92676885Y-112299000D01*
X92692124Y-112294525D01*
X92693329Y-112293135D01*
X92695000Y-112285452D01*
X92695000Y-112280884D01*
X93203000Y-112280884D01*
X93207475Y-112296123D01*
X93208865Y-112297328D01*
X93216548Y-112298999D01*
X93843669Y-112298999D01*
X93850490Y-112298629D01*
X93901352Y-112293105D01*
X93916604Y-112289479D01*
X94037054Y-112244324D01*
X94052649Y-112235786D01*
X94154724Y-112159285D01*
X94167285Y-112146724D01*
X94243786Y-112044649D01*
X94252324Y-112029054D01*
X94297478Y-111908606D01*
X94301105Y-111893351D01*
X94306631Y-111842486D01*
X94307000Y-111835672D01*
X94307000Y-111213115D01*
X94302525Y-111197876D01*
X94301135Y-111196671D01*
X94293452Y-111195000D01*
X93221115Y-111195000D01*
X93205876Y-111199475D01*
X93204671Y-111200865D01*
X93203000Y-111208548D01*
X93203000Y-112280884D01*
X92695000Y-112280884D01*
X92695000Y-111034695D01*
X97174251Y-111034695D01*
X97174548Y-111039848D01*
X97174548Y-111039851D01*
X97176171Y-111068000D01*
X97187110Y-111257715D01*
X97188247Y-111262761D01*
X97188248Y-111262767D01*
X97202606Y-111326475D01*
X97236222Y-111475639D01*
X97274461Y-111569811D01*
X97306208Y-111647994D01*
X97320266Y-111682616D01*
X97359162Y-111746088D01*
X97434291Y-111868688D01*
X97436987Y-111873088D01*
X97583250Y-112041938D01*
X97709466Y-112146724D01*
X97738915Y-112171173D01*
X97755126Y-112184632D01*
X97948000Y-112297338D01*
X97952825Y-112299180D01*
X97952826Y-112299181D01*
X97961685Y-112302564D01*
X98156692Y-112377030D01*
X98161760Y-112378061D01*
X98161763Y-112378062D01*
X98269017Y-112399883D01*
X98375597Y-112421567D01*
X98380772Y-112421757D01*
X98380774Y-112421757D01*
X98593673Y-112429564D01*
X98593677Y-112429564D01*
X98598837Y-112429753D01*
X98603957Y-112429097D01*
X98603959Y-112429097D01*
X98815288Y-112402025D01*
X98815289Y-112402025D01*
X98820416Y-112401368D01*
X98825366Y-112399883D01*
X99029429Y-112338661D01*
X99029434Y-112338659D01*
X99034384Y-112337174D01*
X99234994Y-112238896D01*
X99416860Y-112109173D01*
X99424411Y-112101649D01*
X99541296Y-111985171D01*
X99575096Y-111951489D01*
X99601361Y-111914938D01*
X99705453Y-111770077D01*
X99706776Y-111771028D01*
X99753645Y-111727857D01*
X99823580Y-111715625D01*
X99889026Y-111743144D01*
X99916875Y-111774994D01*
X99976987Y-111873088D01*
X100123250Y-112041938D01*
X100249466Y-112146724D01*
X100278915Y-112171173D01*
X100295126Y-112184632D01*
X100488000Y-112297338D01*
X100492825Y-112299180D01*
X100492826Y-112299181D01*
X100501685Y-112302564D01*
X100696692Y-112377030D01*
X100701760Y-112378061D01*
X100701763Y-112378062D01*
X100809017Y-112399883D01*
X100915597Y-112421567D01*
X100920772Y-112421757D01*
X100920774Y-112421757D01*
X101133673Y-112429564D01*
X101133677Y-112429564D01*
X101138837Y-112429753D01*
X101143957Y-112429097D01*
X101143959Y-112429097D01*
X101355288Y-112402025D01*
X101355289Y-112402025D01*
X101360416Y-112401368D01*
X101365366Y-112399883D01*
X101569429Y-112338661D01*
X101569434Y-112338659D01*
X101574384Y-112337174D01*
X101774994Y-112238896D01*
X101956860Y-112109173D01*
X101964411Y-112101649D01*
X102065479Y-112000933D01*
X102127851Y-111967017D01*
X102198658Y-111972205D01*
X102255419Y-112014851D01*
X102272401Y-112045954D01*
X102313676Y-112156054D01*
X102322214Y-112171649D01*
X102398715Y-112273724D01*
X102411276Y-112286285D01*
X102513351Y-112362786D01*
X102528946Y-112371324D01*
X102649394Y-112416478D01*
X102664649Y-112420105D01*
X102715514Y-112425631D01*
X102722328Y-112426000D01*
X103344885Y-112426000D01*
X103360124Y-112421525D01*
X103361329Y-112420135D01*
X103363000Y-112412452D01*
X103363000Y-112407884D01*
X103871000Y-112407884D01*
X103875475Y-112423123D01*
X103876865Y-112424328D01*
X103884548Y-112425999D01*
X104511669Y-112425999D01*
X104518490Y-112425629D01*
X104569352Y-112420105D01*
X104584604Y-112416479D01*
X104705054Y-112371324D01*
X104720649Y-112362786D01*
X104822724Y-112286285D01*
X104835285Y-112273724D01*
X104911786Y-112171649D01*
X104920324Y-112156054D01*
X104965478Y-112035606D01*
X104969105Y-112020351D01*
X104974631Y-111969486D01*
X104975000Y-111962672D01*
X104975000Y-111340115D01*
X104970525Y-111324876D01*
X104969135Y-111323671D01*
X104961452Y-111322000D01*
X103889115Y-111322000D01*
X103873876Y-111326475D01*
X103872671Y-111327865D01*
X103871000Y-111335548D01*
X103871000Y-112407884D01*
X103363000Y-112407884D01*
X103363000Y-110964695D01*
X108096251Y-110964695D01*
X108109110Y-111187715D01*
X108110247Y-111192761D01*
X108110248Y-111192767D01*
X108124606Y-111256475D01*
X108158222Y-111405639D01*
X108242266Y-111612616D01*
X108282228Y-111677829D01*
X108356291Y-111798688D01*
X108358987Y-111803088D01*
X108505250Y-111971938D01*
X108677126Y-112114632D01*
X108870000Y-112227338D01*
X108874825Y-112229180D01*
X108874826Y-112229181D01*
X108914482Y-112244324D01*
X109078692Y-112307030D01*
X109083760Y-112308061D01*
X109083763Y-112308062D01*
X109191017Y-112329883D01*
X109297597Y-112351567D01*
X109302772Y-112351757D01*
X109302774Y-112351757D01*
X109515673Y-112359564D01*
X109515677Y-112359564D01*
X109520837Y-112359753D01*
X109525957Y-112359097D01*
X109525959Y-112359097D01*
X109737288Y-112332025D01*
X109737289Y-112332025D01*
X109742416Y-112331368D01*
X109747366Y-112329883D01*
X109951429Y-112268661D01*
X109951434Y-112268659D01*
X109956384Y-112267174D01*
X110156994Y-112168896D01*
X110338860Y-112039173D01*
X110349015Y-112029054D01*
X110463530Y-111914938D01*
X110497096Y-111881489D01*
X110506295Y-111868688D01*
X110627453Y-111700077D01*
X110628776Y-111701028D01*
X110675645Y-111657857D01*
X110745580Y-111645625D01*
X110811026Y-111673144D01*
X110838875Y-111704994D01*
X110898987Y-111803088D01*
X111045250Y-111971938D01*
X111217126Y-112114632D01*
X111410000Y-112227338D01*
X111414825Y-112229180D01*
X111414826Y-112229181D01*
X111454482Y-112244324D01*
X111618692Y-112307030D01*
X111623760Y-112308061D01*
X111623763Y-112308062D01*
X111731017Y-112329883D01*
X111837597Y-112351567D01*
X111842772Y-112351757D01*
X111842774Y-112351757D01*
X112055673Y-112359564D01*
X112055677Y-112359564D01*
X112060837Y-112359753D01*
X112065957Y-112359097D01*
X112065959Y-112359097D01*
X112277288Y-112332025D01*
X112277289Y-112332025D01*
X112282416Y-112331368D01*
X112287366Y-112329883D01*
X112491429Y-112268661D01*
X112491434Y-112268659D01*
X112496384Y-112267174D01*
X112696994Y-112168896D01*
X112878860Y-112039173D01*
X112889015Y-112029054D01*
X112987479Y-111930933D01*
X113049851Y-111897017D01*
X113120658Y-111902205D01*
X113177419Y-111944851D01*
X113194401Y-111975954D01*
X113235676Y-112086054D01*
X113244214Y-112101649D01*
X113320715Y-112203724D01*
X113333276Y-112216285D01*
X113435351Y-112292786D01*
X113450946Y-112301324D01*
X113571394Y-112346478D01*
X113586649Y-112350105D01*
X113637514Y-112355631D01*
X113644328Y-112356000D01*
X114266885Y-112356000D01*
X114282124Y-112351525D01*
X114283329Y-112350135D01*
X114285000Y-112342452D01*
X114285000Y-112337884D01*
X114793000Y-112337884D01*
X114797475Y-112353123D01*
X114798865Y-112354328D01*
X114806548Y-112355999D01*
X115433669Y-112355999D01*
X115440490Y-112355629D01*
X115491352Y-112350105D01*
X115506604Y-112346479D01*
X115627054Y-112301324D01*
X115642649Y-112292786D01*
X115744724Y-112216285D01*
X115757285Y-112203724D01*
X115833786Y-112101649D01*
X115842324Y-112086054D01*
X115887478Y-111965606D01*
X115891105Y-111950351D01*
X115896631Y-111899486D01*
X115897000Y-111892672D01*
X115897000Y-111270115D01*
X115892525Y-111254876D01*
X115891135Y-111253671D01*
X115883452Y-111252000D01*
X114811115Y-111252000D01*
X114795876Y-111256475D01*
X114794671Y-111257865D01*
X114793000Y-111265548D01*
X114793000Y-112337884D01*
X114285000Y-112337884D01*
X114285000Y-110964695D01*
X119272251Y-110964695D01*
X119285110Y-111187715D01*
X119286247Y-111192761D01*
X119286248Y-111192767D01*
X119300606Y-111256475D01*
X119334222Y-111405639D01*
X119418266Y-111612616D01*
X119458228Y-111677829D01*
X119532291Y-111798688D01*
X119534987Y-111803088D01*
X119681250Y-111971938D01*
X119853126Y-112114632D01*
X120046000Y-112227338D01*
X120050825Y-112229180D01*
X120050826Y-112229181D01*
X120090482Y-112244324D01*
X120254692Y-112307030D01*
X120259760Y-112308061D01*
X120259763Y-112308062D01*
X120367017Y-112329883D01*
X120473597Y-112351567D01*
X120478772Y-112351757D01*
X120478774Y-112351757D01*
X120691673Y-112359564D01*
X120691677Y-112359564D01*
X120696837Y-112359753D01*
X120701957Y-112359097D01*
X120701959Y-112359097D01*
X120913288Y-112332025D01*
X120913289Y-112332025D01*
X120918416Y-112331368D01*
X120923366Y-112329883D01*
X121127429Y-112268661D01*
X121127434Y-112268659D01*
X121132384Y-112267174D01*
X121332994Y-112168896D01*
X121514860Y-112039173D01*
X121525015Y-112029054D01*
X121639530Y-111914938D01*
X121673096Y-111881489D01*
X121682295Y-111868688D01*
X121803453Y-111700077D01*
X121804776Y-111701028D01*
X121851645Y-111657857D01*
X121921580Y-111645625D01*
X121987026Y-111673144D01*
X122014875Y-111704994D01*
X122074987Y-111803088D01*
X122221250Y-111971938D01*
X122393126Y-112114632D01*
X122586000Y-112227338D01*
X122590825Y-112229180D01*
X122590826Y-112229181D01*
X122630482Y-112244324D01*
X122794692Y-112307030D01*
X122799760Y-112308061D01*
X122799763Y-112308062D01*
X122907017Y-112329883D01*
X123013597Y-112351567D01*
X123018772Y-112351757D01*
X123018774Y-112351757D01*
X123231673Y-112359564D01*
X123231677Y-112359564D01*
X123236837Y-112359753D01*
X123241957Y-112359097D01*
X123241959Y-112359097D01*
X123453288Y-112332025D01*
X123453289Y-112332025D01*
X123458416Y-112331368D01*
X123463366Y-112329883D01*
X123667429Y-112268661D01*
X123667434Y-112268659D01*
X123672384Y-112267174D01*
X123872994Y-112168896D01*
X124054860Y-112039173D01*
X124065015Y-112029054D01*
X124163479Y-111930933D01*
X124225851Y-111897017D01*
X124296658Y-111902205D01*
X124353419Y-111944851D01*
X124370401Y-111975954D01*
X124411676Y-112086054D01*
X124420214Y-112101649D01*
X124496715Y-112203724D01*
X124509276Y-112216285D01*
X124611351Y-112292786D01*
X124626946Y-112301324D01*
X124747394Y-112346478D01*
X124762649Y-112350105D01*
X124813514Y-112355631D01*
X124820328Y-112356000D01*
X125442885Y-112356000D01*
X125458124Y-112351525D01*
X125459329Y-112350135D01*
X125461000Y-112342452D01*
X125461000Y-112337884D01*
X125969000Y-112337884D01*
X125973475Y-112353123D01*
X125974865Y-112354328D01*
X125982548Y-112355999D01*
X126609669Y-112355999D01*
X126616490Y-112355629D01*
X126667352Y-112350105D01*
X126682604Y-112346479D01*
X126803054Y-112301324D01*
X126818649Y-112292786D01*
X126920724Y-112216285D01*
X126933285Y-112203724D01*
X127009786Y-112101649D01*
X127018324Y-112086054D01*
X127063478Y-111965606D01*
X127067105Y-111950351D01*
X127072631Y-111899486D01*
X127073000Y-111892672D01*
X127073000Y-111270115D01*
X127068525Y-111254876D01*
X127067135Y-111253671D01*
X127059452Y-111252000D01*
X125987115Y-111252000D01*
X125971876Y-111256475D01*
X125970671Y-111257865D01*
X125969000Y-111265548D01*
X125969000Y-112337884D01*
X125461000Y-112337884D01*
X125461000Y-110964695D01*
X129955251Y-110964695D01*
X129968110Y-111187715D01*
X129969247Y-111192761D01*
X129969248Y-111192767D01*
X129983606Y-111256475D01*
X130017222Y-111405639D01*
X130101266Y-111612616D01*
X130141228Y-111677829D01*
X130215291Y-111798688D01*
X130217987Y-111803088D01*
X130364250Y-111971938D01*
X130536126Y-112114632D01*
X130729000Y-112227338D01*
X130733825Y-112229180D01*
X130733826Y-112229181D01*
X130773482Y-112244324D01*
X130937692Y-112307030D01*
X130942760Y-112308061D01*
X130942763Y-112308062D01*
X131050017Y-112329883D01*
X131156597Y-112351567D01*
X131161772Y-112351757D01*
X131161774Y-112351757D01*
X131374673Y-112359564D01*
X131374677Y-112359564D01*
X131379837Y-112359753D01*
X131384957Y-112359097D01*
X131384959Y-112359097D01*
X131596288Y-112332025D01*
X131596289Y-112332025D01*
X131601416Y-112331368D01*
X131606366Y-112329883D01*
X131810429Y-112268661D01*
X131810434Y-112268659D01*
X131815384Y-112267174D01*
X132015994Y-112168896D01*
X132197860Y-112039173D01*
X132208015Y-112029054D01*
X132322530Y-111914938D01*
X132356096Y-111881489D01*
X132365295Y-111868688D01*
X132486453Y-111700077D01*
X132487776Y-111701028D01*
X132534645Y-111657857D01*
X132604580Y-111645625D01*
X132670026Y-111673144D01*
X132697875Y-111704994D01*
X132757987Y-111803088D01*
X132904250Y-111971938D01*
X133076126Y-112114632D01*
X133269000Y-112227338D01*
X133273825Y-112229180D01*
X133273826Y-112229181D01*
X133313482Y-112244324D01*
X133477692Y-112307030D01*
X133482760Y-112308061D01*
X133482763Y-112308062D01*
X133590017Y-112329883D01*
X133696597Y-112351567D01*
X133701772Y-112351757D01*
X133701774Y-112351757D01*
X133914673Y-112359564D01*
X133914677Y-112359564D01*
X133919837Y-112359753D01*
X133924957Y-112359097D01*
X133924959Y-112359097D01*
X134136288Y-112332025D01*
X134136289Y-112332025D01*
X134141416Y-112331368D01*
X134146366Y-112329883D01*
X134350429Y-112268661D01*
X134350434Y-112268659D01*
X134355384Y-112267174D01*
X134555994Y-112168896D01*
X134737860Y-112039173D01*
X134748015Y-112029054D01*
X134846479Y-111930933D01*
X134908851Y-111897017D01*
X134979658Y-111902205D01*
X135036419Y-111944851D01*
X135053401Y-111975954D01*
X135094676Y-112086054D01*
X135103214Y-112101649D01*
X135179715Y-112203724D01*
X135192276Y-112216285D01*
X135294351Y-112292786D01*
X135309946Y-112301324D01*
X135430394Y-112346478D01*
X135445649Y-112350105D01*
X135496514Y-112355631D01*
X135503328Y-112356000D01*
X136125885Y-112356000D01*
X136141124Y-112351525D01*
X136142329Y-112350135D01*
X136144000Y-112342452D01*
X136144000Y-112337884D01*
X136652000Y-112337884D01*
X136656475Y-112353123D01*
X136657865Y-112354328D01*
X136665548Y-112355999D01*
X137292669Y-112355999D01*
X137299490Y-112355629D01*
X137350352Y-112350105D01*
X137365604Y-112346479D01*
X137486054Y-112301324D01*
X137501649Y-112292786D01*
X137603724Y-112216285D01*
X137616285Y-112203724D01*
X137692786Y-112101649D01*
X137701324Y-112086054D01*
X137746478Y-111965606D01*
X137750105Y-111950351D01*
X137755631Y-111899486D01*
X137756000Y-111892672D01*
X137756000Y-111270115D01*
X137751525Y-111254876D01*
X137750135Y-111253671D01*
X137742452Y-111252000D01*
X136670115Y-111252000D01*
X136654876Y-111256475D01*
X136653671Y-111257865D01*
X136652000Y-111265548D01*
X136652000Y-112337884D01*
X136144000Y-112337884D01*
X136144000Y-110725885D01*
X136652000Y-110725885D01*
X136656475Y-110741124D01*
X136657865Y-110742329D01*
X136665548Y-110744000D01*
X137737884Y-110744000D01*
X137753123Y-110739525D01*
X137754328Y-110738135D01*
X137755999Y-110730452D01*
X137755999Y-110103331D01*
X137755629Y-110096510D01*
X137750105Y-110045648D01*
X137746479Y-110030396D01*
X137701324Y-109909946D01*
X137692786Y-109894351D01*
X137616285Y-109792276D01*
X137603724Y-109779715D01*
X137501649Y-109703214D01*
X137486054Y-109694676D01*
X137365606Y-109649522D01*
X137350351Y-109645895D01*
X137299486Y-109640369D01*
X137292672Y-109640000D01*
X136670115Y-109640000D01*
X136654876Y-109644475D01*
X136653671Y-109645865D01*
X136652000Y-109653548D01*
X136652000Y-110725885D01*
X136144000Y-110725885D01*
X136144000Y-109658116D01*
X136139525Y-109642877D01*
X136138135Y-109641672D01*
X136130452Y-109640001D01*
X135503331Y-109640001D01*
X135496510Y-109640371D01*
X135445648Y-109645895D01*
X135430396Y-109649521D01*
X135309946Y-109694676D01*
X135294351Y-109703214D01*
X135192276Y-109779715D01*
X135179715Y-109792276D01*
X135103214Y-109894351D01*
X135094676Y-109909946D01*
X135053297Y-110020322D01*
X135010655Y-110077087D01*
X134944093Y-110101786D01*
X134874744Y-110086578D01*
X134842121Y-110060891D01*
X134791151Y-110004876D01*
X134791145Y-110004870D01*
X134787670Y-110001051D01*
X134783619Y-109997852D01*
X134783615Y-109997848D01*
X134616414Y-109865800D01*
X134616410Y-109865798D01*
X134612359Y-109862598D01*
X134594875Y-109852946D01*
X134523865Y-109813747D01*
X134416789Y-109754638D01*
X134411920Y-109752914D01*
X134411916Y-109752912D01*
X134211087Y-109681795D01*
X134211083Y-109681794D01*
X134206212Y-109680069D01*
X134201119Y-109679162D01*
X134201116Y-109679161D01*
X133991373Y-109641800D01*
X133991367Y-109641799D01*
X133986284Y-109640894D01*
X133912452Y-109639992D01*
X133768081Y-109638228D01*
X133768079Y-109638228D01*
X133762911Y-109638165D01*
X133542091Y-109671955D01*
X133329756Y-109741357D01*
X133299443Y-109757137D01*
X133145354Y-109837351D01*
X133131607Y-109844507D01*
X133127474Y-109847610D01*
X133127471Y-109847612D01*
X132957100Y-109975530D01*
X132952965Y-109978635D01*
X132913353Y-110020087D01*
X132807466Y-110130891D01*
X132798629Y-110140138D01*
X132691201Y-110297621D01*
X132636293Y-110342621D01*
X132565768Y-110350792D01*
X132502021Y-110319538D01*
X132481324Y-110295054D01*
X132400822Y-110170617D01*
X132400820Y-110170614D01*
X132398014Y-110166277D01*
X132247670Y-110001051D01*
X132243619Y-109997852D01*
X132243615Y-109997848D01*
X132076414Y-109865800D01*
X132076410Y-109865798D01*
X132072359Y-109862598D01*
X132054875Y-109852946D01*
X131983865Y-109813747D01*
X131876789Y-109754638D01*
X131871920Y-109752914D01*
X131871916Y-109752912D01*
X131671087Y-109681795D01*
X131671083Y-109681794D01*
X131666212Y-109680069D01*
X131661119Y-109679162D01*
X131661116Y-109679161D01*
X131451373Y-109641800D01*
X131451367Y-109641799D01*
X131446284Y-109640894D01*
X131372452Y-109639992D01*
X131228081Y-109638228D01*
X131228079Y-109638228D01*
X131222911Y-109638165D01*
X131002091Y-109671955D01*
X130789756Y-109741357D01*
X130759443Y-109757137D01*
X130605354Y-109837351D01*
X130591607Y-109844507D01*
X130587474Y-109847610D01*
X130587471Y-109847612D01*
X130417100Y-109975530D01*
X130412965Y-109978635D01*
X130373353Y-110020087D01*
X130267466Y-110130891D01*
X130258629Y-110140138D01*
X130132743Y-110324680D01*
X130100371Y-110394419D01*
X130051366Y-110499993D01*
X130038688Y-110527305D01*
X129978989Y-110742570D01*
X129955251Y-110964695D01*
X125461000Y-110964695D01*
X125461000Y-110725885D01*
X125969000Y-110725885D01*
X125973475Y-110741124D01*
X125974865Y-110742329D01*
X125982548Y-110744000D01*
X127054884Y-110744000D01*
X127070123Y-110739525D01*
X127071328Y-110738135D01*
X127072999Y-110730452D01*
X127072999Y-110103331D01*
X127072629Y-110096510D01*
X127067105Y-110045648D01*
X127063479Y-110030396D01*
X127018324Y-109909946D01*
X127009786Y-109894351D01*
X126933285Y-109792276D01*
X126920724Y-109779715D01*
X126818649Y-109703214D01*
X126803054Y-109694676D01*
X126682606Y-109649522D01*
X126667351Y-109645895D01*
X126616486Y-109640369D01*
X126609672Y-109640000D01*
X125987115Y-109640000D01*
X125971876Y-109644475D01*
X125970671Y-109645865D01*
X125969000Y-109653548D01*
X125969000Y-110725885D01*
X125461000Y-110725885D01*
X125461000Y-109658116D01*
X125456525Y-109642877D01*
X125455135Y-109641672D01*
X125447452Y-109640001D01*
X124820331Y-109640001D01*
X124813510Y-109640371D01*
X124762648Y-109645895D01*
X124747396Y-109649521D01*
X124626946Y-109694676D01*
X124611351Y-109703214D01*
X124509276Y-109779715D01*
X124496715Y-109792276D01*
X124420214Y-109894351D01*
X124411676Y-109909946D01*
X124370297Y-110020322D01*
X124327655Y-110077087D01*
X124261093Y-110101786D01*
X124191744Y-110086578D01*
X124159121Y-110060891D01*
X124108151Y-110004876D01*
X124108145Y-110004870D01*
X124104670Y-110001051D01*
X124100619Y-109997852D01*
X124100615Y-109997848D01*
X123933414Y-109865800D01*
X123933410Y-109865798D01*
X123929359Y-109862598D01*
X123911875Y-109852946D01*
X123840865Y-109813747D01*
X123733789Y-109754638D01*
X123728920Y-109752914D01*
X123728916Y-109752912D01*
X123528087Y-109681795D01*
X123528083Y-109681794D01*
X123523212Y-109680069D01*
X123518119Y-109679162D01*
X123518116Y-109679161D01*
X123308373Y-109641800D01*
X123308367Y-109641799D01*
X123303284Y-109640894D01*
X123229452Y-109639992D01*
X123085081Y-109638228D01*
X123085079Y-109638228D01*
X123079911Y-109638165D01*
X122859091Y-109671955D01*
X122646756Y-109741357D01*
X122616443Y-109757137D01*
X122462354Y-109837351D01*
X122448607Y-109844507D01*
X122444474Y-109847610D01*
X122444471Y-109847612D01*
X122274100Y-109975530D01*
X122269965Y-109978635D01*
X122230353Y-110020087D01*
X122124466Y-110130891D01*
X122115629Y-110140138D01*
X122008201Y-110297621D01*
X121953293Y-110342621D01*
X121882768Y-110350792D01*
X121819021Y-110319538D01*
X121798324Y-110295054D01*
X121717822Y-110170617D01*
X121717820Y-110170614D01*
X121715014Y-110166277D01*
X121564670Y-110001051D01*
X121560619Y-109997852D01*
X121560615Y-109997848D01*
X121393414Y-109865800D01*
X121393410Y-109865798D01*
X121389359Y-109862598D01*
X121371875Y-109852946D01*
X121300865Y-109813747D01*
X121193789Y-109754638D01*
X121188920Y-109752914D01*
X121188916Y-109752912D01*
X120988087Y-109681795D01*
X120988083Y-109681794D01*
X120983212Y-109680069D01*
X120978119Y-109679162D01*
X120978116Y-109679161D01*
X120768373Y-109641800D01*
X120768367Y-109641799D01*
X120763284Y-109640894D01*
X120689452Y-109639992D01*
X120545081Y-109638228D01*
X120545079Y-109638228D01*
X120539911Y-109638165D01*
X120319091Y-109671955D01*
X120106756Y-109741357D01*
X120076443Y-109757137D01*
X119922354Y-109837351D01*
X119908607Y-109844507D01*
X119904474Y-109847610D01*
X119904471Y-109847612D01*
X119734100Y-109975530D01*
X119729965Y-109978635D01*
X119690353Y-110020087D01*
X119584466Y-110130891D01*
X119575629Y-110140138D01*
X119449743Y-110324680D01*
X119417371Y-110394419D01*
X119368366Y-110499993D01*
X119355688Y-110527305D01*
X119295989Y-110742570D01*
X119272251Y-110964695D01*
X114285000Y-110964695D01*
X114285000Y-110725885D01*
X114793000Y-110725885D01*
X114797475Y-110741124D01*
X114798865Y-110742329D01*
X114806548Y-110744000D01*
X115878884Y-110744000D01*
X115894123Y-110739525D01*
X115895328Y-110738135D01*
X115896999Y-110730452D01*
X115896999Y-110103331D01*
X115896629Y-110096510D01*
X115891105Y-110045648D01*
X115887479Y-110030396D01*
X115842324Y-109909946D01*
X115833786Y-109894351D01*
X115757285Y-109792276D01*
X115744724Y-109779715D01*
X115642649Y-109703214D01*
X115627054Y-109694676D01*
X115506606Y-109649522D01*
X115491351Y-109645895D01*
X115440486Y-109640369D01*
X115433672Y-109640000D01*
X114811115Y-109640000D01*
X114795876Y-109644475D01*
X114794671Y-109645865D01*
X114793000Y-109653548D01*
X114793000Y-110725885D01*
X114285000Y-110725885D01*
X114285000Y-109658116D01*
X114280525Y-109642877D01*
X114279135Y-109641672D01*
X114271452Y-109640001D01*
X113644331Y-109640001D01*
X113637510Y-109640371D01*
X113586648Y-109645895D01*
X113571396Y-109649521D01*
X113450946Y-109694676D01*
X113435351Y-109703214D01*
X113333276Y-109779715D01*
X113320715Y-109792276D01*
X113244214Y-109894351D01*
X113235676Y-109909946D01*
X113194297Y-110020322D01*
X113151655Y-110077087D01*
X113085093Y-110101786D01*
X113015744Y-110086578D01*
X112983121Y-110060891D01*
X112932151Y-110004876D01*
X112932145Y-110004870D01*
X112928670Y-110001051D01*
X112924619Y-109997852D01*
X112924615Y-109997848D01*
X112757414Y-109865800D01*
X112757410Y-109865798D01*
X112753359Y-109862598D01*
X112735875Y-109852946D01*
X112664865Y-109813747D01*
X112557789Y-109754638D01*
X112552920Y-109752914D01*
X112552916Y-109752912D01*
X112352087Y-109681795D01*
X112352083Y-109681794D01*
X112347212Y-109680069D01*
X112342119Y-109679162D01*
X112342116Y-109679161D01*
X112132373Y-109641800D01*
X112132367Y-109641799D01*
X112127284Y-109640894D01*
X112053452Y-109639992D01*
X111909081Y-109638228D01*
X111909079Y-109638228D01*
X111903911Y-109638165D01*
X111683091Y-109671955D01*
X111470756Y-109741357D01*
X111440443Y-109757137D01*
X111286354Y-109837351D01*
X111272607Y-109844507D01*
X111268474Y-109847610D01*
X111268471Y-109847612D01*
X111098100Y-109975530D01*
X111093965Y-109978635D01*
X111054353Y-110020087D01*
X110948466Y-110130891D01*
X110939629Y-110140138D01*
X110832201Y-110297621D01*
X110777293Y-110342621D01*
X110706768Y-110350792D01*
X110643021Y-110319538D01*
X110622324Y-110295054D01*
X110541822Y-110170617D01*
X110541820Y-110170614D01*
X110539014Y-110166277D01*
X110388670Y-110001051D01*
X110384619Y-109997852D01*
X110384615Y-109997848D01*
X110217414Y-109865800D01*
X110217410Y-109865798D01*
X110213359Y-109862598D01*
X110195875Y-109852946D01*
X110124865Y-109813747D01*
X110017789Y-109754638D01*
X110012920Y-109752914D01*
X110012916Y-109752912D01*
X109812087Y-109681795D01*
X109812083Y-109681794D01*
X109807212Y-109680069D01*
X109802119Y-109679162D01*
X109802116Y-109679161D01*
X109592373Y-109641800D01*
X109592367Y-109641799D01*
X109587284Y-109640894D01*
X109513452Y-109639992D01*
X109369081Y-109638228D01*
X109369079Y-109638228D01*
X109363911Y-109638165D01*
X109143091Y-109671955D01*
X108930756Y-109741357D01*
X108900443Y-109757137D01*
X108746354Y-109837351D01*
X108732607Y-109844507D01*
X108728474Y-109847610D01*
X108728471Y-109847612D01*
X108558100Y-109975530D01*
X108553965Y-109978635D01*
X108514353Y-110020087D01*
X108408466Y-110130891D01*
X108399629Y-110140138D01*
X108273743Y-110324680D01*
X108241371Y-110394419D01*
X108192366Y-110499993D01*
X108179688Y-110527305D01*
X108119989Y-110742570D01*
X108096251Y-110964695D01*
X103363000Y-110964695D01*
X103363000Y-110795885D01*
X103871000Y-110795885D01*
X103875475Y-110811124D01*
X103876865Y-110812329D01*
X103884548Y-110814000D01*
X104956884Y-110814000D01*
X104972123Y-110809525D01*
X104973328Y-110808135D01*
X104974999Y-110800452D01*
X104974999Y-110173331D01*
X104974629Y-110166510D01*
X104969105Y-110115648D01*
X104965479Y-110100396D01*
X104920324Y-109979946D01*
X104911786Y-109964351D01*
X104835285Y-109862276D01*
X104822724Y-109849715D01*
X104720649Y-109773214D01*
X104705054Y-109764676D01*
X104584606Y-109719522D01*
X104569351Y-109715895D01*
X104518486Y-109710369D01*
X104511672Y-109710000D01*
X103889115Y-109710000D01*
X103873876Y-109714475D01*
X103872671Y-109715865D01*
X103871000Y-109723548D01*
X103871000Y-110795885D01*
X103363000Y-110795885D01*
X103363000Y-109728116D01*
X103358525Y-109712877D01*
X103357135Y-109711672D01*
X103349452Y-109710001D01*
X102722331Y-109710001D01*
X102715510Y-109710371D01*
X102664648Y-109715895D01*
X102649396Y-109719521D01*
X102528946Y-109764676D01*
X102513351Y-109773214D01*
X102411276Y-109849715D01*
X102398715Y-109862276D01*
X102322214Y-109964351D01*
X102313676Y-109979946D01*
X102272297Y-110090322D01*
X102229655Y-110147087D01*
X102163093Y-110171786D01*
X102093744Y-110156578D01*
X102061121Y-110130891D01*
X102010151Y-110074876D01*
X102010145Y-110074870D01*
X102006670Y-110071051D01*
X102002619Y-110067852D01*
X102002615Y-110067848D01*
X101835414Y-109935800D01*
X101835410Y-109935798D01*
X101831359Y-109932598D01*
X101811500Y-109921635D01*
X101710354Y-109865800D01*
X101635789Y-109824638D01*
X101630920Y-109822914D01*
X101630916Y-109822912D01*
X101430087Y-109751795D01*
X101430083Y-109751794D01*
X101425212Y-109750069D01*
X101420119Y-109749162D01*
X101420116Y-109749161D01*
X101210373Y-109711800D01*
X101210367Y-109711799D01*
X101205284Y-109710894D01*
X101131452Y-109709992D01*
X100987081Y-109708228D01*
X100987079Y-109708228D01*
X100981911Y-109708165D01*
X100761091Y-109741955D01*
X100548756Y-109811357D01*
X100518443Y-109827137D01*
X100359369Y-109909946D01*
X100350607Y-109914507D01*
X100346474Y-109917610D01*
X100346471Y-109917612D01*
X100196257Y-110030396D01*
X100171965Y-110048635D01*
X100144776Y-110077087D01*
X100059544Y-110166277D01*
X100017629Y-110210138D01*
X99910201Y-110367621D01*
X99855293Y-110412621D01*
X99784768Y-110420792D01*
X99721021Y-110389538D01*
X99700324Y-110365054D01*
X99619822Y-110240617D01*
X99619820Y-110240614D01*
X99617014Y-110236277D01*
X99466670Y-110071051D01*
X99462619Y-110067852D01*
X99462615Y-110067848D01*
X99295414Y-109935800D01*
X99295410Y-109935798D01*
X99291359Y-109932598D01*
X99271500Y-109921635D01*
X99170354Y-109865800D01*
X99095789Y-109824638D01*
X99090920Y-109822914D01*
X99090916Y-109822912D01*
X98890087Y-109751795D01*
X98890083Y-109751794D01*
X98885212Y-109750069D01*
X98880119Y-109749162D01*
X98880116Y-109749161D01*
X98670373Y-109711800D01*
X98670367Y-109711799D01*
X98665284Y-109710894D01*
X98591452Y-109709992D01*
X98447081Y-109708228D01*
X98447079Y-109708228D01*
X98441911Y-109708165D01*
X98221091Y-109741955D01*
X98008756Y-109811357D01*
X97978443Y-109827137D01*
X97819369Y-109909946D01*
X97810607Y-109914507D01*
X97806474Y-109917610D01*
X97806471Y-109917612D01*
X97656257Y-110030396D01*
X97631965Y-110048635D01*
X97604776Y-110077087D01*
X97519544Y-110166277D01*
X97477629Y-110210138D01*
X97474720Y-110214403D01*
X97474714Y-110214411D01*
X97435174Y-110272375D01*
X97351743Y-110394680D01*
X97327239Y-110447469D01*
X97287864Y-110532297D01*
X97257688Y-110597305D01*
X97197989Y-110812570D01*
X97174251Y-111034695D01*
X92695000Y-111034695D01*
X92695000Y-110668885D01*
X93203000Y-110668885D01*
X93207475Y-110684124D01*
X93208865Y-110685329D01*
X93216548Y-110687000D01*
X94288884Y-110687000D01*
X94304123Y-110682525D01*
X94305328Y-110681135D01*
X94306999Y-110673452D01*
X94306999Y-110046331D01*
X94306629Y-110039510D01*
X94301105Y-109988648D01*
X94297479Y-109973396D01*
X94252324Y-109852946D01*
X94243786Y-109837351D01*
X94167285Y-109735276D01*
X94154724Y-109722715D01*
X94052649Y-109646214D01*
X94037054Y-109637676D01*
X93916606Y-109592522D01*
X93901351Y-109588895D01*
X93850486Y-109583369D01*
X93843672Y-109583000D01*
X93221115Y-109583000D01*
X93205876Y-109587475D01*
X93204671Y-109588865D01*
X93203000Y-109596548D01*
X93203000Y-110668885D01*
X92695000Y-110668885D01*
X92695000Y-109601116D01*
X92690525Y-109585877D01*
X92689135Y-109584672D01*
X92681452Y-109583001D01*
X92054331Y-109583001D01*
X92047510Y-109583371D01*
X91996648Y-109588895D01*
X91981396Y-109592521D01*
X91860946Y-109637676D01*
X91845351Y-109646214D01*
X91743276Y-109722715D01*
X91730715Y-109735276D01*
X91654214Y-109837351D01*
X91645676Y-109852946D01*
X91604297Y-109963322D01*
X91561655Y-110020087D01*
X91495093Y-110044786D01*
X91425744Y-110029578D01*
X91393121Y-110003891D01*
X91342150Y-109947875D01*
X91342145Y-109947870D01*
X91338670Y-109944051D01*
X91334619Y-109940852D01*
X91334615Y-109940848D01*
X91167414Y-109808800D01*
X91167410Y-109808798D01*
X91163359Y-109805598D01*
X90967789Y-109697638D01*
X90962920Y-109695914D01*
X90962916Y-109695912D01*
X90762087Y-109624795D01*
X90762083Y-109624794D01*
X90757212Y-109623069D01*
X90752119Y-109622162D01*
X90752116Y-109622161D01*
X90542373Y-109584800D01*
X90542367Y-109584799D01*
X90537284Y-109583894D01*
X90463452Y-109582992D01*
X90319081Y-109581228D01*
X90319079Y-109581228D01*
X90313911Y-109581165D01*
X90093091Y-109614955D01*
X89880756Y-109684357D01*
X89828039Y-109711800D01*
X89710064Y-109773214D01*
X89682607Y-109787507D01*
X89678474Y-109790610D01*
X89678471Y-109790612D01*
X89509323Y-109917612D01*
X89503965Y-109921635D01*
X89448242Y-109979946D01*
X89361180Y-110071051D01*
X89349629Y-110083138D01*
X89242201Y-110240621D01*
X89187293Y-110285621D01*
X89116768Y-110293792D01*
X89053021Y-110262538D01*
X89032324Y-110238054D01*
X88951822Y-110113617D01*
X88951820Y-110113614D01*
X88949014Y-110109277D01*
X88798670Y-109944051D01*
X88794619Y-109940852D01*
X88794615Y-109940848D01*
X88627414Y-109808800D01*
X88627410Y-109808798D01*
X88623359Y-109805598D01*
X88427789Y-109697638D01*
X88422920Y-109695914D01*
X88422916Y-109695912D01*
X88222087Y-109624795D01*
X88222083Y-109624794D01*
X88217212Y-109623069D01*
X88212119Y-109622162D01*
X88212116Y-109622161D01*
X88002373Y-109584800D01*
X88002367Y-109584799D01*
X87997284Y-109583894D01*
X87923452Y-109582992D01*
X87779081Y-109581228D01*
X87779079Y-109581228D01*
X87773911Y-109581165D01*
X87553091Y-109614955D01*
X87340756Y-109684357D01*
X87288039Y-109711800D01*
X87170064Y-109773214D01*
X87142607Y-109787507D01*
X87138474Y-109790610D01*
X87138471Y-109790612D01*
X86969323Y-109917612D01*
X86963965Y-109921635D01*
X86908242Y-109979946D01*
X86821180Y-110071051D01*
X86809629Y-110083138D01*
X86806720Y-110087403D01*
X86806714Y-110087411D01*
X86725545Y-110206401D01*
X86683743Y-110267680D01*
X86616464Y-110412621D01*
X86600288Y-110447469D01*
X86553464Y-110500836D01*
X86485220Y-110520417D01*
X86417225Y-110499993D01*
X86371065Y-110446051D01*
X86360000Y-110394419D01*
X86360000Y-107930100D01*
X89053296Y-107930100D01*
X89053986Y-107936665D01*
X89072285Y-108110767D01*
X89073258Y-108120028D01*
X89132273Y-108301656D01*
X89135576Y-108307378D01*
X89135577Y-108307379D01*
X89141326Y-108317337D01*
X89227760Y-108467044D01*
X89355547Y-108608966D01*
X89510048Y-108721218D01*
X89516076Y-108723902D01*
X89516078Y-108723903D01*
X89678481Y-108796209D01*
X89684512Y-108798894D01*
X89777912Y-108818747D01*
X89864856Y-108837228D01*
X89864861Y-108837228D01*
X89871313Y-108838600D01*
X90062287Y-108838600D01*
X90068739Y-108837228D01*
X90068744Y-108837228D01*
X90155688Y-108818747D01*
X90249088Y-108798894D01*
X90255119Y-108796209D01*
X90417522Y-108723903D01*
X90417524Y-108723902D01*
X90423552Y-108721218D01*
X90578053Y-108608966D01*
X90705840Y-108467044D01*
X90792274Y-108317337D01*
X90798023Y-108307379D01*
X90798024Y-108307378D01*
X90801327Y-108301656D01*
X90860342Y-108120028D01*
X90861316Y-108110767D01*
X90879614Y-107936665D01*
X90880304Y-107930100D01*
X90872008Y-107851171D01*
X90861032Y-107746735D01*
X90861032Y-107746733D01*
X90860342Y-107740172D01*
X90801327Y-107558544D01*
X90784905Y-107530100D01*
X112218096Y-107530100D01*
X112218786Y-107536665D01*
X112236850Y-107708531D01*
X112238058Y-107720028D01*
X112297073Y-107901656D01*
X112392560Y-108067044D01*
X112396978Y-108071951D01*
X112396979Y-108071952D01*
X112459173Y-108141025D01*
X112520347Y-108208966D01*
X112674848Y-108321218D01*
X112680876Y-108323902D01*
X112680878Y-108323903D01*
X112843281Y-108396209D01*
X112849312Y-108398894D01*
X112942713Y-108418747D01*
X113029656Y-108437228D01*
X113029661Y-108437228D01*
X113036113Y-108438600D01*
X113227087Y-108438600D01*
X113233539Y-108437228D01*
X113233544Y-108437228D01*
X113320487Y-108418747D01*
X113413888Y-108398894D01*
X113586302Y-108322131D01*
X113656668Y-108312697D01*
X113688798Y-108322131D01*
X113861212Y-108398894D01*
X113954613Y-108418747D01*
X114041556Y-108437228D01*
X114041561Y-108437228D01*
X114048013Y-108438600D01*
X114238987Y-108438600D01*
X114245439Y-108437228D01*
X114245444Y-108437228D01*
X114332387Y-108418747D01*
X114425788Y-108398894D01*
X114431819Y-108396209D01*
X114594222Y-108323903D01*
X114594224Y-108323902D01*
X114600252Y-108321218D01*
X114754753Y-108208966D01*
X114815927Y-108141025D01*
X114878121Y-108071952D01*
X114878122Y-108071951D01*
X114882540Y-108067044D01*
X114978027Y-107901656D01*
X115037042Y-107720028D01*
X115038251Y-107708531D01*
X115056314Y-107536665D01*
X115057004Y-107530100D01*
X115037042Y-107340172D01*
X114978027Y-107158544D01*
X114882540Y-106993156D01*
X114754753Y-106851234D01*
X114600252Y-106738982D01*
X114594224Y-106736298D01*
X114594222Y-106736297D01*
X114431819Y-106663991D01*
X114431818Y-106663991D01*
X114425788Y-106661306D01*
X114332387Y-106641453D01*
X114245444Y-106622972D01*
X114245439Y-106622972D01*
X114238987Y-106621600D01*
X114048013Y-106621600D01*
X114041561Y-106622972D01*
X114041556Y-106622972D01*
X113954613Y-106641453D01*
X113861212Y-106661306D01*
X113855182Y-106663991D01*
X113855181Y-106663991D01*
X113688799Y-106738069D01*
X113618432Y-106747503D01*
X113586301Y-106738069D01*
X113419919Y-106663991D01*
X113419918Y-106663991D01*
X113413888Y-106661306D01*
X113320487Y-106641453D01*
X113233544Y-106622972D01*
X113233539Y-106622972D01*
X113227087Y-106621600D01*
X113036113Y-106621600D01*
X113029661Y-106622972D01*
X113029656Y-106622972D01*
X112942713Y-106641453D01*
X112849312Y-106661306D01*
X112843282Y-106663991D01*
X112843281Y-106663991D01*
X112680878Y-106736297D01*
X112680876Y-106736298D01*
X112674848Y-106738982D01*
X112520347Y-106851234D01*
X112392560Y-106993156D01*
X112297073Y-107158544D01*
X112238058Y-107340172D01*
X112218096Y-107530100D01*
X90784905Y-107530100D01*
X90705840Y-107393156D01*
X90664043Y-107346735D01*
X90582475Y-107256145D01*
X90582474Y-107256144D01*
X90578053Y-107251234D01*
X90423552Y-107138982D01*
X90417524Y-107136298D01*
X90417522Y-107136297D01*
X90255119Y-107063991D01*
X90255118Y-107063991D01*
X90249088Y-107061306D01*
X90155688Y-107041453D01*
X90068744Y-107022972D01*
X90068739Y-107022972D01*
X90062287Y-107021600D01*
X89871313Y-107021600D01*
X89864861Y-107022972D01*
X89864856Y-107022972D01*
X89777912Y-107041453D01*
X89684512Y-107061306D01*
X89678482Y-107063991D01*
X89678481Y-107063991D01*
X89516078Y-107136297D01*
X89516076Y-107136298D01*
X89510048Y-107138982D01*
X89355547Y-107251234D01*
X89351126Y-107256144D01*
X89351125Y-107256145D01*
X89269558Y-107346735D01*
X89227760Y-107393156D01*
X89132273Y-107558544D01*
X89073258Y-107740172D01*
X89072568Y-107746733D01*
X89072568Y-107746735D01*
X89061592Y-107851171D01*
X89053296Y-107930100D01*
X86360000Y-107930100D01*
X86360000Y-106527600D01*
X118110896Y-106527600D01*
X118130858Y-106717528D01*
X118189873Y-106899156D01*
X118285360Y-107064544D01*
X118289778Y-107069451D01*
X118289779Y-107069452D01*
X118352384Y-107138982D01*
X118413147Y-107206466D01*
X118567648Y-107318718D01*
X118573676Y-107321402D01*
X118573678Y-107321403D01*
X118734839Y-107393156D01*
X118742112Y-107396394D01*
X118835513Y-107416247D01*
X118922456Y-107434728D01*
X118922461Y-107434728D01*
X118928913Y-107436100D01*
X119119887Y-107436100D01*
X119126339Y-107434728D01*
X119126344Y-107434728D01*
X119213287Y-107416247D01*
X119306688Y-107396394D01*
X119313961Y-107393156D01*
X119475122Y-107321403D01*
X119475124Y-107321402D01*
X119481152Y-107318718D01*
X119635653Y-107206466D01*
X119696416Y-107138982D01*
X119754056Y-107074966D01*
X126684257Y-107074966D01*
X126714565Y-107209446D01*
X126717645Y-107219275D01*
X126797770Y-107416603D01*
X126802413Y-107425794D01*
X126913694Y-107607388D01*
X126919777Y-107615699D01*
X127059213Y-107776667D01*
X127066580Y-107783883D01*
X127230434Y-107919916D01*
X127238881Y-107925831D01*
X127422756Y-108033279D01*
X127432042Y-108037729D01*
X127631001Y-108113703D01*
X127640899Y-108116579D01*
X127744250Y-108137606D01*
X127758299Y-108136410D01*
X127762000Y-108126065D01*
X127762000Y-108125517D01*
X128270000Y-108125517D01*
X128274064Y-108139359D01*
X128287478Y-108141393D01*
X128294184Y-108140534D01*
X128304262Y-108138392D01*
X128508255Y-108077191D01*
X128517842Y-108073433D01*
X128709095Y-107979739D01*
X128717945Y-107974464D01*
X128891328Y-107850792D01*
X128899200Y-107844139D01*
X129050052Y-107693812D01*
X129056730Y-107685965D01*
X129184022Y-107508819D01*
X129185279Y-107509722D01*
X129232373Y-107466362D01*
X129302311Y-107454145D01*
X129367751Y-107481678D01*
X129395579Y-107513511D01*
X129455987Y-107612088D01*
X129602250Y-107780938D01*
X129774126Y-107923632D01*
X129967000Y-108036338D01*
X130175692Y-108116030D01*
X130180760Y-108117061D01*
X130180763Y-108117062D01*
X130275862Y-108136410D01*
X130394597Y-108160567D01*
X130399772Y-108160757D01*
X130399774Y-108160757D01*
X130612673Y-108168564D01*
X130612677Y-108168564D01*
X130617837Y-108168753D01*
X130622957Y-108168097D01*
X130622959Y-108168097D01*
X130834288Y-108141025D01*
X130834289Y-108141025D01*
X130839416Y-108140368D01*
X130844366Y-108138883D01*
X131048429Y-108077661D01*
X131048434Y-108077659D01*
X131053384Y-108076174D01*
X131253994Y-107977896D01*
X131435860Y-107848173D01*
X131594096Y-107690489D01*
X131724453Y-107509077D01*
X131725776Y-107510028D01*
X131772645Y-107466857D01*
X131842580Y-107454625D01*
X131908026Y-107482144D01*
X131935875Y-107513994D01*
X131995987Y-107612088D01*
X132142250Y-107780938D01*
X132314126Y-107923632D01*
X132507000Y-108036338D01*
X132715692Y-108116030D01*
X132720760Y-108117061D01*
X132720763Y-108117062D01*
X132815862Y-108136410D01*
X132934597Y-108160567D01*
X132939772Y-108160757D01*
X132939774Y-108160757D01*
X133152673Y-108168564D01*
X133152677Y-108168564D01*
X133157837Y-108168753D01*
X133162957Y-108168097D01*
X133162959Y-108168097D01*
X133374288Y-108141025D01*
X133374289Y-108141025D01*
X133379416Y-108140368D01*
X133384366Y-108138883D01*
X133588429Y-108077661D01*
X133588434Y-108077659D01*
X133593384Y-108076174D01*
X133793994Y-107977896D01*
X133975860Y-107848173D01*
X134084091Y-107740319D01*
X134146462Y-107706404D01*
X134217268Y-107711592D01*
X134274030Y-107754238D01*
X134291012Y-107785341D01*
X134335385Y-107903705D01*
X134422739Y-108020261D01*
X134539295Y-108107615D01*
X134675684Y-108158745D01*
X134737866Y-108165500D01*
X136534134Y-108165500D01*
X136596316Y-108158745D01*
X136732705Y-108107615D01*
X136849261Y-108020261D01*
X136936615Y-107903705D01*
X136987745Y-107767316D01*
X136994500Y-107705134D01*
X136994500Y-105908866D01*
X136987745Y-105846684D01*
X136936615Y-105710295D01*
X136849261Y-105593739D01*
X136732705Y-105506385D01*
X136724296Y-105503233D01*
X136724295Y-105503232D01*
X136637219Y-105470589D01*
X136625474Y-105466186D01*
X136568709Y-105423545D01*
X136544393Y-105361374D01*
X136530232Y-105226635D01*
X136530232Y-105226633D01*
X136529542Y-105220072D01*
X136470527Y-105038444D01*
X136375040Y-104873056D01*
X136247253Y-104731134D01*
X136109503Y-104631052D01*
X136098094Y-104622763D01*
X136098093Y-104622762D01*
X136092752Y-104618882D01*
X136086724Y-104616198D01*
X136086722Y-104616197D01*
X135924319Y-104543891D01*
X135924318Y-104543891D01*
X135918288Y-104541206D01*
X135824887Y-104521353D01*
X135737944Y-104502872D01*
X135737939Y-104502872D01*
X135731487Y-104501500D01*
X135540513Y-104501500D01*
X135534061Y-104502872D01*
X135534056Y-104502872D01*
X135447112Y-104521353D01*
X135353712Y-104541206D01*
X135347682Y-104543891D01*
X135347681Y-104543891D01*
X135185278Y-104616197D01*
X135185276Y-104616198D01*
X135179248Y-104618882D01*
X135173907Y-104622762D01*
X135173906Y-104622763D01*
X135162497Y-104631052D01*
X135024747Y-104731134D01*
X134896960Y-104873056D01*
X134801473Y-105038444D01*
X134742458Y-105220072D01*
X134741768Y-105226633D01*
X134741768Y-105226635D01*
X134727607Y-105361374D01*
X134700594Y-105427031D01*
X134646526Y-105466186D01*
X134634781Y-105470589D01*
X134547705Y-105503232D01*
X134547704Y-105503233D01*
X134539295Y-105506385D01*
X134422739Y-105593739D01*
X134335385Y-105710295D01*
X134332233Y-105718703D01*
X134290919Y-105828907D01*
X134248277Y-105885671D01*
X134181716Y-105910371D01*
X134112367Y-105895163D01*
X134079743Y-105869476D01*
X134029151Y-105813875D01*
X134029142Y-105813866D01*
X134025670Y-105810051D01*
X134021619Y-105806852D01*
X134021615Y-105806848D01*
X133854414Y-105674800D01*
X133854410Y-105674798D01*
X133850359Y-105671598D01*
X133814028Y-105651542D01*
X133757744Y-105620472D01*
X133654789Y-105563638D01*
X133649920Y-105561914D01*
X133649916Y-105561912D01*
X133449087Y-105490795D01*
X133449083Y-105490794D01*
X133444212Y-105489069D01*
X133439119Y-105488162D01*
X133439116Y-105488161D01*
X133229373Y-105450800D01*
X133229367Y-105450799D01*
X133224284Y-105449894D01*
X133150452Y-105448992D01*
X133006081Y-105447228D01*
X133006079Y-105447228D01*
X133000911Y-105447165D01*
X132848704Y-105470456D01*
X132778343Y-105460988D01*
X132724269Y-105414983D01*
X132703651Y-105347046D01*
X132709813Y-105306969D01*
X132717503Y-105283302D01*
X132719542Y-105277028D01*
X132724839Y-105226635D01*
X132738814Y-105093665D01*
X132739504Y-105087100D01*
X132725935Y-104957994D01*
X132720232Y-104903735D01*
X132720232Y-104903733D01*
X132719542Y-104897172D01*
X132660527Y-104715544D01*
X132637053Y-104674885D01*
X132568341Y-104555874D01*
X132565040Y-104550156D01*
X132556982Y-104541206D01*
X132441675Y-104413145D01*
X132441674Y-104413144D01*
X132437253Y-104408234D01*
X132282752Y-104295982D01*
X132276724Y-104293298D01*
X132276722Y-104293297D01*
X132114319Y-104220991D01*
X132114318Y-104220991D01*
X132108288Y-104218306D01*
X132014887Y-104198453D01*
X131927944Y-104179972D01*
X131927939Y-104179972D01*
X131921487Y-104178600D01*
X131730513Y-104178600D01*
X131724061Y-104179972D01*
X131724056Y-104179972D01*
X131637112Y-104198453D01*
X131543712Y-104218306D01*
X131537682Y-104220991D01*
X131537681Y-104220991D01*
X131375278Y-104293297D01*
X131375276Y-104293298D01*
X131369248Y-104295982D01*
X131214747Y-104408234D01*
X131210326Y-104413144D01*
X131210325Y-104413145D01*
X131095019Y-104541206D01*
X131086960Y-104550156D01*
X131083659Y-104555874D01*
X131014948Y-104674885D01*
X130991473Y-104715544D01*
X130932458Y-104897172D01*
X130931768Y-104903733D01*
X130931768Y-104903735D01*
X130926065Y-104957994D01*
X130912496Y-105087100D01*
X130913186Y-105093665D01*
X130927162Y-105226635D01*
X130932458Y-105277028D01*
X130942187Y-105306969D01*
X130942394Y-105307607D01*
X130944420Y-105378575D01*
X130907757Y-105439372D01*
X130844044Y-105470697D01*
X130800466Y-105470589D01*
X130746566Y-105460988D01*
X130689373Y-105450800D01*
X130689367Y-105450799D01*
X130684284Y-105449894D01*
X130610452Y-105448992D01*
X130466081Y-105447228D01*
X130466079Y-105447228D01*
X130460911Y-105447165D01*
X130240091Y-105480955D01*
X130027756Y-105550357D01*
X129973663Y-105578516D01*
X129893067Y-105620472D01*
X129829607Y-105653507D01*
X129825474Y-105656610D01*
X129825471Y-105656612D01*
X129713925Y-105740363D01*
X129650965Y-105787635D01*
X129606711Y-105833944D01*
X129557280Y-105885671D01*
X129496629Y-105949138D01*
X129493715Y-105953410D01*
X129493714Y-105953411D01*
X129388898Y-106107066D01*
X129333987Y-106152069D01*
X129263462Y-106160240D01*
X129199715Y-106128986D01*
X129179018Y-106104502D01*
X129098426Y-105979926D01*
X129092136Y-105971757D01*
X128948806Y-105814240D01*
X128941273Y-105807215D01*
X128774139Y-105675222D01*
X128765552Y-105669517D01*
X128579117Y-105566599D01*
X128569705Y-105562369D01*
X128368959Y-105491280D01*
X128358988Y-105488646D01*
X128287837Y-105475972D01*
X128274540Y-105477432D01*
X128270000Y-105491989D01*
X128270000Y-108125517D01*
X127762000Y-108125517D01*
X127762000Y-107079115D01*
X127757525Y-107063876D01*
X127756135Y-107062671D01*
X127748452Y-107061000D01*
X126699225Y-107061000D01*
X126685694Y-107064973D01*
X126684257Y-107074966D01*
X119754056Y-107074966D01*
X119759021Y-107069452D01*
X119759022Y-107069451D01*
X119763440Y-107064544D01*
X119858927Y-106899156D01*
X119917942Y-106717528D01*
X119936476Y-106541183D01*
X126680389Y-106541183D01*
X126681912Y-106549607D01*
X126694292Y-106553000D01*
X127743885Y-106553000D01*
X127759124Y-106548525D01*
X127760329Y-106547135D01*
X127762000Y-106539452D01*
X127762000Y-105490102D01*
X127758082Y-105476758D01*
X127743806Y-105474771D01*
X127705324Y-105480660D01*
X127695288Y-105483051D01*
X127492868Y-105549212D01*
X127483359Y-105553209D01*
X127294463Y-105651542D01*
X127285738Y-105657036D01*
X127115433Y-105784905D01*
X127107726Y-105791748D01*
X126960590Y-105945717D01*
X126954104Y-105953727D01*
X126834098Y-106129649D01*
X126829000Y-106138623D01*
X126739338Y-106331783D01*
X126735775Y-106341470D01*
X126680389Y-106541183D01*
X119936476Y-106541183D01*
X119937904Y-106527600D01*
X119917942Y-106337672D01*
X119858927Y-106156044D01*
X119830650Y-106107066D01*
X119766741Y-105996374D01*
X119763440Y-105990656D01*
X119749840Y-105975551D01*
X119640075Y-105853645D01*
X119640074Y-105853644D01*
X119635653Y-105848734D01*
X119481152Y-105736482D01*
X119475124Y-105733798D01*
X119475122Y-105733797D01*
X119312719Y-105661491D01*
X119312718Y-105661491D01*
X119306688Y-105658806D01*
X119213287Y-105638953D01*
X119126344Y-105620472D01*
X119126339Y-105620472D01*
X119119887Y-105619100D01*
X118928913Y-105619100D01*
X118922461Y-105620472D01*
X118922456Y-105620472D01*
X118835513Y-105638953D01*
X118742112Y-105658806D01*
X118736082Y-105661491D01*
X118736081Y-105661491D01*
X118573678Y-105733797D01*
X118573676Y-105733798D01*
X118567648Y-105736482D01*
X118413147Y-105848734D01*
X118408726Y-105853644D01*
X118408725Y-105853645D01*
X118298961Y-105975551D01*
X118285360Y-105990656D01*
X118282059Y-105996374D01*
X118218151Y-106107066D01*
X118189873Y-106156044D01*
X118130858Y-106337672D01*
X118110896Y-106527600D01*
X86360000Y-106527600D01*
X86360000Y-104089200D01*
X112319696Y-104089200D01*
X112320386Y-104095765D01*
X112333548Y-104220991D01*
X112339658Y-104279128D01*
X112398673Y-104460756D01*
X112494160Y-104626144D01*
X112498578Y-104631051D01*
X112498579Y-104631052D01*
X112545945Y-104683657D01*
X112621947Y-104768066D01*
X112658509Y-104794630D01*
X112766453Y-104873056D01*
X112776448Y-104880318D01*
X112782476Y-104883002D01*
X112782478Y-104883003D01*
X112910245Y-104939888D01*
X112950912Y-104957994D01*
X112957367Y-104959366D01*
X112957370Y-104959367D01*
X112971358Y-104962340D01*
X112977470Y-104963639D01*
X113039943Y-104997367D01*
X113074265Y-105059516D01*
X113076280Y-105102676D01*
X113058961Y-105239764D01*
X113074910Y-105402422D01*
X113077134Y-105409107D01*
X113077134Y-105409108D01*
X113090681Y-105449831D01*
X113126499Y-105557505D01*
X113130148Y-105563530D01*
X113197792Y-105675222D01*
X113211165Y-105697304D01*
X113216056Y-105702369D01*
X113216057Y-105702370D01*
X113280706Y-105769316D01*
X113324698Y-105814871D01*
X113330590Y-105818726D01*
X113330594Y-105818730D01*
X113385318Y-105854540D01*
X113461457Y-105904364D01*
X113497132Y-105917631D01*
X113608048Y-105958880D01*
X113608051Y-105958881D01*
X113614645Y-105961333D01*
X113621622Y-105962264D01*
X113769666Y-105982018D01*
X113769670Y-105982018D01*
X113776647Y-105982949D01*
X113783658Y-105982311D01*
X113783662Y-105982311D01*
X113932391Y-105968775D01*
X113939412Y-105968136D01*
X113946114Y-105965958D01*
X113946116Y-105965958D01*
X114088152Y-105919808D01*
X114088155Y-105919807D01*
X114094851Y-105917631D01*
X114100902Y-105914024D01*
X114229186Y-105837552D01*
X114229188Y-105837551D01*
X114235238Y-105833944D01*
X114353595Y-105721234D01*
X114444040Y-105585103D01*
X114479680Y-105491280D01*
X114499578Y-105438900D01*
X114499579Y-105438895D01*
X114502078Y-105432317D01*
X114504514Y-105414983D01*
X114524273Y-105274393D01*
X114524273Y-105274388D01*
X114524824Y-105270470D01*
X114525110Y-105250000D01*
X114516087Y-105169560D01*
X114507677Y-105094577D01*
X114507676Y-105094575D01*
X114506892Y-105087581D01*
X114453142Y-104933234D01*
X114366534Y-104794630D01*
X114335278Y-104763155D01*
X114256333Y-104683657D01*
X114256329Y-104683654D01*
X114251370Y-104678660D01*
X114176352Y-104631052D01*
X114122944Y-104597158D01*
X114076145Y-104543769D01*
X114065640Y-104473554D01*
X114070625Y-104451837D01*
X114124702Y-104285406D01*
X114126742Y-104279128D01*
X114132853Y-104220991D01*
X114146014Y-104095765D01*
X114146704Y-104089200D01*
X114141633Y-104040948D01*
X114127432Y-103905835D01*
X114127432Y-103905833D01*
X114126742Y-103899272D01*
X114067727Y-103717644D01*
X113972240Y-103552256D01*
X113897355Y-103469087D01*
X113848875Y-103415245D01*
X113848874Y-103415244D01*
X113844453Y-103410334D01*
X113728360Y-103325987D01*
X113695294Y-103301963D01*
X113695293Y-103301962D01*
X113689952Y-103298082D01*
X113683924Y-103295398D01*
X113683922Y-103295397D01*
X113521519Y-103223091D01*
X113521518Y-103223091D01*
X113515488Y-103220406D01*
X113422088Y-103200553D01*
X113335144Y-103182072D01*
X113335139Y-103182072D01*
X113328687Y-103180700D01*
X113137713Y-103180700D01*
X113131261Y-103182072D01*
X113131256Y-103182072D01*
X113044313Y-103200553D01*
X112950912Y-103220406D01*
X112944882Y-103223091D01*
X112944881Y-103223091D01*
X112782478Y-103295397D01*
X112782476Y-103295398D01*
X112776448Y-103298082D01*
X112771107Y-103301962D01*
X112771106Y-103301963D01*
X112738040Y-103325987D01*
X112621947Y-103410334D01*
X112617526Y-103415244D01*
X112617525Y-103415245D01*
X112569046Y-103469087D01*
X112494160Y-103552256D01*
X112398673Y-103717644D01*
X112339658Y-103899272D01*
X112338968Y-103905833D01*
X112338968Y-103905835D01*
X112324767Y-104040948D01*
X112319696Y-104089200D01*
X86360000Y-104089200D01*
X86360000Y-103124000D01*
X104598096Y-103124000D01*
X104598786Y-103130565D01*
X104616393Y-103298082D01*
X104618058Y-103313928D01*
X104677073Y-103495556D01*
X104772560Y-103660944D01*
X104776978Y-103665851D01*
X104776979Y-103665852D01*
X104883440Y-103784089D01*
X104900347Y-103802866D01*
X105054848Y-103915118D01*
X105060876Y-103917802D01*
X105060878Y-103917803D01*
X105186491Y-103973729D01*
X105229312Y-103992794D01*
X105319095Y-104011878D01*
X105409656Y-104031128D01*
X105409661Y-104031128D01*
X105416113Y-104032500D01*
X105607087Y-104032500D01*
X105613539Y-104031128D01*
X105613544Y-104031128D01*
X105704105Y-104011878D01*
X105793888Y-103992794D01*
X105836709Y-103973729D01*
X105962322Y-103917803D01*
X105962324Y-103917802D01*
X105968352Y-103915118D01*
X106122853Y-103802866D01*
X106127275Y-103797954D01*
X106132177Y-103793541D01*
X106133338Y-103794831D01*
X106186483Y-103762091D01*
X106257467Y-103763443D01*
X106293732Y-103781704D01*
X106389026Y-103850940D01*
X106395054Y-103853624D01*
X106395056Y-103853625D01*
X106557459Y-103925931D01*
X106563490Y-103928616D01*
X106637042Y-103944250D01*
X106743834Y-103966950D01*
X106743839Y-103966950D01*
X106750291Y-103968322D01*
X106941265Y-103968322D01*
X106947717Y-103966950D01*
X106947722Y-103966950D01*
X107054514Y-103944250D01*
X107128066Y-103928616D01*
X107134097Y-103925931D01*
X107296500Y-103853625D01*
X107296502Y-103853624D01*
X107302530Y-103850940D01*
X107457031Y-103738688D01*
X107480133Y-103713031D01*
X107580399Y-103601674D01*
X107580400Y-103601673D01*
X107584818Y-103596766D01*
X107667908Y-103452850D01*
X107677001Y-103437101D01*
X107677002Y-103437100D01*
X107680305Y-103431378D01*
X107714549Y-103325987D01*
X107737280Y-103256029D01*
X107737280Y-103256027D01*
X107739320Y-103249750D01*
X107740010Y-103243188D01*
X107740012Y-103243177D01*
X107741856Y-103225634D01*
X107768870Y-103159978D01*
X107827092Y-103119349D01*
X107893359Y-103115560D01*
X107898849Y-103116727D01*
X107898858Y-103116728D01*
X107905313Y-103118100D01*
X108096287Y-103118100D01*
X108102739Y-103116728D01*
X108102744Y-103116728D01*
X108189687Y-103098247D01*
X108283088Y-103078394D01*
X108310593Y-103066148D01*
X108451522Y-103003403D01*
X108451524Y-103003402D01*
X108457552Y-103000718D01*
X108479042Y-102985105D01*
X108520741Y-102954808D01*
X108612053Y-102888466D01*
X108617294Y-102882645D01*
X108630078Y-102868447D01*
X109674178Y-102868447D01*
X109690127Y-103031105D01*
X109692351Y-103037790D01*
X109692351Y-103037791D01*
X109703479Y-103071242D01*
X109741716Y-103186188D01*
X109745365Y-103192213D01*
X109821627Y-103318135D01*
X109826382Y-103325987D01*
X109939915Y-103443554D01*
X109945807Y-103447409D01*
X109945811Y-103447413D01*
X110019382Y-103495556D01*
X110076674Y-103533047D01*
X110104481Y-103543388D01*
X110223265Y-103587563D01*
X110223268Y-103587564D01*
X110229862Y-103590016D01*
X110236839Y-103590947D01*
X110384883Y-103610701D01*
X110384887Y-103610701D01*
X110391864Y-103611632D01*
X110398875Y-103610994D01*
X110398879Y-103610994D01*
X110547608Y-103597458D01*
X110554629Y-103596819D01*
X110561331Y-103594641D01*
X110561333Y-103594641D01*
X110703369Y-103548491D01*
X110703372Y-103548490D01*
X110710068Y-103546314D01*
X110738792Y-103529191D01*
X110844403Y-103466235D01*
X110844405Y-103466234D01*
X110850455Y-103462627D01*
X110968812Y-103349917D01*
X111059257Y-103213786D01*
X111083244Y-103150639D01*
X111114795Y-103067583D01*
X111114796Y-103067578D01*
X111117295Y-103061000D01*
X111121318Y-103032377D01*
X111139490Y-102903076D01*
X111139490Y-102903071D01*
X111140041Y-102899153D01*
X111140327Y-102878683D01*
X111125525Y-102746721D01*
X111122894Y-102723260D01*
X111122893Y-102723258D01*
X111122109Y-102716264D01*
X111068359Y-102561917D01*
X110981751Y-102423313D01*
X110976789Y-102418316D01*
X110871550Y-102312340D01*
X110871546Y-102312337D01*
X110866587Y-102307343D01*
X110852562Y-102298442D01*
X116709478Y-102298442D01*
X116710168Y-102305007D01*
X116726449Y-102459908D01*
X116729440Y-102488370D01*
X116788455Y-102669998D01*
X116791758Y-102675720D01*
X116791759Y-102675721D01*
X116815167Y-102716264D01*
X116883942Y-102835386D01*
X116888360Y-102840293D01*
X116888361Y-102840294D01*
X116991470Y-102954808D01*
X117022188Y-103018815D01*
X117016236Y-103082211D01*
X117001988Y-103121357D01*
X116981503Y-103283506D01*
X116997452Y-103446164D01*
X116999676Y-103452849D01*
X116999676Y-103452850D01*
X117011792Y-103489271D01*
X117049041Y-103601247D01*
X117055805Y-103612416D01*
X117129305Y-103733777D01*
X117133707Y-103741046D01*
X117138598Y-103746111D01*
X117138599Y-103746112D01*
X117188663Y-103797955D01*
X117247240Y-103858613D01*
X117253132Y-103862468D01*
X117253136Y-103862472D01*
X117331721Y-103913896D01*
X117383999Y-103948106D01*
X117419674Y-103961373D01*
X117530590Y-104002622D01*
X117530593Y-104002623D01*
X117537187Y-104005075D01*
X117544164Y-104006006D01*
X117692208Y-104025760D01*
X117692212Y-104025760D01*
X117699189Y-104026691D01*
X117706200Y-104026053D01*
X117706204Y-104026053D01*
X117854933Y-104012517D01*
X117861954Y-104011878D01*
X117868656Y-104009700D01*
X117868658Y-104009700D01*
X118010694Y-103963550D01*
X118010697Y-103963549D01*
X118017393Y-103961373D01*
X118093217Y-103916173D01*
X118151728Y-103881294D01*
X118151730Y-103881293D01*
X118157780Y-103877686D01*
X118276137Y-103764976D01*
X118366582Y-103628845D01*
X118382264Y-103587563D01*
X118422120Y-103482642D01*
X118422121Y-103482637D01*
X118424620Y-103476059D01*
X118426697Y-103461280D01*
X118446815Y-103318135D01*
X118446815Y-103318130D01*
X118447366Y-103314212D01*
X118447537Y-103301963D01*
X118447597Y-103297704D01*
X118447597Y-103297698D01*
X118447652Y-103293742D01*
X118435047Y-103181365D01*
X118434311Y-103174800D01*
X119380896Y-103174800D01*
X119381586Y-103181365D01*
X119400111Y-103357616D01*
X119400858Y-103364728D01*
X119459873Y-103546356D01*
X119555360Y-103711744D01*
X119559778Y-103716651D01*
X119559779Y-103716652D01*
X119640903Y-103806749D01*
X119683147Y-103853666D01*
X119761912Y-103910892D01*
X119831763Y-103961642D01*
X119837648Y-103965918D01*
X119843676Y-103968602D01*
X119843678Y-103968603D01*
X120000062Y-104038229D01*
X120012112Y-104043594D01*
X120096433Y-104061517D01*
X120192456Y-104081928D01*
X120192461Y-104081928D01*
X120198913Y-104083300D01*
X120389887Y-104083300D01*
X120396339Y-104081928D01*
X120396344Y-104081928D01*
X120492367Y-104061517D01*
X120576688Y-104043594D01*
X120582715Y-104040911D01*
X120582723Y-104040908D01*
X120674653Y-103999978D01*
X120745020Y-103990544D01*
X120799961Y-104013148D01*
X120800667Y-104013661D01*
X120834529Y-104038263D01*
X120840557Y-104040947D01*
X120840559Y-104040948D01*
X121002962Y-104113254D01*
X121008993Y-104115939D01*
X121102393Y-104135792D01*
X121189337Y-104154273D01*
X121189342Y-104154273D01*
X121195794Y-104155645D01*
X121386768Y-104155645D01*
X121393220Y-104154273D01*
X121393225Y-104154273D01*
X121480169Y-104135792D01*
X121573569Y-104115939D01*
X121579600Y-104113254D01*
X121742003Y-104040948D01*
X121742005Y-104040947D01*
X121748033Y-104038263D01*
X121757854Y-104031128D01*
X121836856Y-103973729D01*
X121902534Y-103926011D01*
X121912342Y-103915118D01*
X122025902Y-103788997D01*
X122025903Y-103788996D01*
X122030321Y-103784089D01*
X122119393Y-103629812D01*
X122122504Y-103624424D01*
X122122505Y-103624423D01*
X122125808Y-103618701D01*
X122184823Y-103437073D01*
X122186757Y-103418678D01*
X122204095Y-103253710D01*
X122204785Y-103247145D01*
X122200587Y-103207199D01*
X122185513Y-103063780D01*
X122185513Y-103063778D01*
X122184823Y-103057217D01*
X122169795Y-103010966D01*
X126674257Y-103010966D01*
X126704565Y-103145446D01*
X126707645Y-103155275D01*
X126787770Y-103352603D01*
X126792413Y-103361794D01*
X126903694Y-103543388D01*
X126909777Y-103551699D01*
X127049213Y-103712667D01*
X127056580Y-103719883D01*
X127220434Y-103855916D01*
X127228881Y-103861831D01*
X127412756Y-103969279D01*
X127422042Y-103973729D01*
X127621001Y-104049703D01*
X127630899Y-104052579D01*
X127734250Y-104073606D01*
X127748299Y-104072410D01*
X127752000Y-104062065D01*
X127752000Y-104061517D01*
X128260000Y-104061517D01*
X128264064Y-104075359D01*
X128277478Y-104077393D01*
X128284184Y-104076534D01*
X128294262Y-104074392D01*
X128498255Y-104013191D01*
X128507842Y-104009433D01*
X128699095Y-103915739D01*
X128707945Y-103910464D01*
X128881328Y-103786792D01*
X128889200Y-103780139D01*
X129040052Y-103629812D01*
X129046730Y-103621965D01*
X129171003Y-103449020D01*
X129176313Y-103440183D01*
X129270670Y-103249267D01*
X129274466Y-103239680D01*
X129327509Y-103065095D01*
X129366451Y-103005730D01*
X129431305Y-102976843D01*
X129501481Y-102987604D01*
X129554699Y-103034598D01*
X129568942Y-103066148D01*
X129587778Y-103130147D01*
X129620225Y-103192213D01*
X129675375Y-103297704D01*
X129681224Y-103308893D01*
X129807610Y-103466085D01*
X129962120Y-103595735D01*
X129967509Y-103598698D01*
X129967514Y-103598701D01*
X130108704Y-103676320D01*
X130138870Y-103692904D01*
X130144737Y-103694765D01*
X130144739Y-103694766D01*
X130306602Y-103746112D01*
X130331128Y-103753892D01*
X130488108Y-103771500D01*
X130596750Y-103771500D01*
X130746737Y-103756794D01*
X130939827Y-103698496D01*
X131045321Y-103642404D01*
X131112475Y-103606698D01*
X131112478Y-103606696D01*
X131117917Y-103603804D01*
X131122687Y-103599914D01*
X131122691Y-103599911D01*
X131269448Y-103480219D01*
X131269451Y-103480216D01*
X131274223Y-103476324D01*
X131282570Y-103466235D01*
X131328814Y-103410334D01*
X131402790Y-103320912D01*
X131498723Y-103143488D01*
X131516375Y-103086465D01*
X131524047Y-103061682D01*
X131563299Y-103002523D01*
X131628304Y-102973976D01*
X131698423Y-102985105D01*
X131751394Y-103032377D01*
X131767329Y-103071241D01*
X131785222Y-103150639D01*
X131828016Y-103256029D01*
X131853235Y-103318135D01*
X131869266Y-103357616D01*
X131899192Y-103406451D01*
X131982690Y-103542707D01*
X131985987Y-103548088D01*
X132132250Y-103716938D01*
X132213134Y-103784089D01*
X132296891Y-103853625D01*
X132304126Y-103859632D01*
X132497000Y-103972338D01*
X132705692Y-104052030D01*
X132710760Y-104053061D01*
X132710763Y-104053062D01*
X132805862Y-104072410D01*
X132924597Y-104096567D01*
X132929772Y-104096757D01*
X132929774Y-104096757D01*
X133142673Y-104104564D01*
X133142677Y-104104564D01*
X133147837Y-104104753D01*
X133152957Y-104104097D01*
X133152959Y-104104097D01*
X133364288Y-104077025D01*
X133364289Y-104077025D01*
X133369416Y-104076368D01*
X133374366Y-104074883D01*
X133578429Y-104013661D01*
X133578434Y-104013659D01*
X133583384Y-104012174D01*
X133783994Y-103913896D01*
X133965860Y-103784173D01*
X134074091Y-103676319D01*
X134136462Y-103642404D01*
X134207268Y-103647592D01*
X134264030Y-103690238D01*
X134281012Y-103721341D01*
X134297370Y-103764976D01*
X134325385Y-103839705D01*
X134412739Y-103956261D01*
X134529295Y-104043615D01*
X134665684Y-104094745D01*
X134727866Y-104101500D01*
X136524134Y-104101500D01*
X136586316Y-104094745D01*
X136722705Y-104043615D01*
X136839261Y-103956261D01*
X136926615Y-103839705D01*
X136977745Y-103703316D01*
X136984500Y-103641134D01*
X136984500Y-101844866D01*
X136977745Y-101782684D01*
X136926615Y-101646295D01*
X136839261Y-101529739D01*
X136722705Y-101442385D01*
X136586316Y-101391255D01*
X136524134Y-101384500D01*
X134727866Y-101384500D01*
X134665684Y-101391255D01*
X134529295Y-101442385D01*
X134412739Y-101529739D01*
X134325385Y-101646295D01*
X134322233Y-101654703D01*
X134280919Y-101764907D01*
X134238277Y-101821671D01*
X134171716Y-101846371D01*
X134102367Y-101831163D01*
X134069743Y-101805476D01*
X134019151Y-101749875D01*
X134019142Y-101749866D01*
X134015670Y-101746051D01*
X134011619Y-101742852D01*
X134011615Y-101742848D01*
X133844414Y-101610800D01*
X133844410Y-101610798D01*
X133840359Y-101607598D01*
X133804028Y-101587542D01*
X133788136Y-101578769D01*
X133644789Y-101499638D01*
X133639920Y-101497914D01*
X133639916Y-101497912D01*
X133439087Y-101426795D01*
X133439083Y-101426794D01*
X133434212Y-101425069D01*
X133429119Y-101424162D01*
X133429116Y-101424161D01*
X133219373Y-101386800D01*
X133219367Y-101386799D01*
X133214284Y-101385894D01*
X133140452Y-101384992D01*
X132996081Y-101383228D01*
X132996079Y-101383228D01*
X132990911Y-101383165D01*
X132770091Y-101416955D01*
X132557756Y-101486357D01*
X132359607Y-101589507D01*
X132355474Y-101592610D01*
X132355471Y-101592612D01*
X132192608Y-101714893D01*
X132180965Y-101723635D01*
X132144782Y-101761498D01*
X132087280Y-101821671D01*
X132026629Y-101885138D01*
X132023715Y-101889410D01*
X132023714Y-101889411D01*
X132011199Y-101907757D01*
X131900743Y-102069680D01*
X131865165Y-102146327D01*
X131813379Y-102257891D01*
X131806688Y-102272305D01*
X131776556Y-102380956D01*
X131765837Y-102419607D01*
X131728358Y-102479905D01*
X131664229Y-102510368D01*
X131593811Y-102501324D01*
X131539461Y-102455645D01*
X131523546Y-102421510D01*
X131513554Y-102387562D01*
X131504222Y-102355853D01*
X131418054Y-102191028D01*
X131413630Y-102182566D01*
X131413629Y-102182565D01*
X131410776Y-102177107D01*
X131284390Y-102019915D01*
X131129880Y-101890265D01*
X131124491Y-101887302D01*
X131124486Y-101887299D01*
X130972872Y-101803949D01*
X130953130Y-101793096D01*
X130947263Y-101791235D01*
X130947261Y-101791234D01*
X130766742Y-101733970D01*
X130766741Y-101733970D01*
X130760872Y-101732108D01*
X130603892Y-101714500D01*
X130495250Y-101714500D01*
X130345263Y-101729206D01*
X130152173Y-101787504D01*
X130118373Y-101805476D01*
X129979525Y-101879302D01*
X129979522Y-101879304D01*
X129974083Y-101882196D01*
X129969313Y-101886086D01*
X129969309Y-101886089D01*
X129822552Y-102005781D01*
X129822549Y-102005784D01*
X129817777Y-102009676D01*
X129813850Y-102014423D01*
X129813848Y-102014425D01*
X129804078Y-102026235D01*
X129689210Y-102165088D01*
X129593277Y-102342512D01*
X129579331Y-102387563D01*
X129567500Y-102425783D01*
X129528248Y-102484942D01*
X129463244Y-102513489D01*
X129393125Y-102502360D01*
X129340154Y-102455089D01*
X129324931Y-102419219D01*
X129297214Y-102308875D01*
X129293894Y-102299124D01*
X129208972Y-102103814D01*
X129204105Y-102094739D01*
X129088426Y-101915926D01*
X129082136Y-101907757D01*
X128938806Y-101750240D01*
X128931273Y-101743215D01*
X128764139Y-101611222D01*
X128755552Y-101605517D01*
X128569117Y-101502599D01*
X128559705Y-101498369D01*
X128358959Y-101427280D01*
X128348988Y-101424646D01*
X128277837Y-101411972D01*
X128264540Y-101413432D01*
X128260000Y-101427989D01*
X128260000Y-104061517D01*
X127752000Y-104061517D01*
X127752000Y-103015115D01*
X127747525Y-102999876D01*
X127746135Y-102998671D01*
X127738452Y-102997000D01*
X126689225Y-102997000D01*
X126675694Y-103000973D01*
X126674257Y-103010966D01*
X122169795Y-103010966D01*
X122125808Y-102875589D01*
X122099296Y-102829668D01*
X122087668Y-102809529D01*
X122030321Y-102710201D01*
X121924590Y-102592774D01*
X121906956Y-102573190D01*
X121906955Y-102573189D01*
X121902534Y-102568279D01*
X121777152Y-102477183D01*
X126670389Y-102477183D01*
X126671912Y-102485607D01*
X126684292Y-102489000D01*
X127733885Y-102489000D01*
X127749124Y-102484525D01*
X127750329Y-102483135D01*
X127752000Y-102475452D01*
X127752000Y-101426102D01*
X127748082Y-101412758D01*
X127733806Y-101410771D01*
X127695324Y-101416660D01*
X127685288Y-101419051D01*
X127482868Y-101485212D01*
X127473359Y-101489209D01*
X127284463Y-101587542D01*
X127275738Y-101593036D01*
X127105433Y-101720905D01*
X127097726Y-101727748D01*
X126950590Y-101881717D01*
X126944104Y-101889727D01*
X126824098Y-102065649D01*
X126819000Y-102074623D01*
X126729338Y-102267783D01*
X126725775Y-102277470D01*
X126670389Y-102477183D01*
X121777152Y-102477183D01*
X121774769Y-102475452D01*
X121753375Y-102459908D01*
X121753374Y-102459907D01*
X121748033Y-102456027D01*
X121742005Y-102453343D01*
X121742003Y-102453342D01*
X121579600Y-102381036D01*
X121579599Y-102381036D01*
X121573569Y-102378351D01*
X121467725Y-102355853D01*
X121393225Y-102340017D01*
X121393220Y-102340017D01*
X121386768Y-102338645D01*
X121195794Y-102338645D01*
X121189342Y-102340017D01*
X121189337Y-102340017D01*
X121114837Y-102355853D01*
X121008993Y-102378351D01*
X121002966Y-102381034D01*
X121002958Y-102381037D01*
X120911028Y-102421967D01*
X120840661Y-102431401D01*
X120785720Y-102408797D01*
X120763929Y-102392965D01*
X120751152Y-102383682D01*
X120745124Y-102380998D01*
X120745122Y-102380997D01*
X120582719Y-102308691D01*
X120582718Y-102308691D01*
X120576688Y-102306006D01*
X120483288Y-102286153D01*
X120396344Y-102267672D01*
X120396339Y-102267672D01*
X120389887Y-102266300D01*
X120198913Y-102266300D01*
X120192461Y-102267672D01*
X120192456Y-102267672D01*
X120105512Y-102286153D01*
X120012112Y-102306006D01*
X120006082Y-102308691D01*
X120006081Y-102308691D01*
X119843678Y-102380997D01*
X119843676Y-102380998D01*
X119837648Y-102383682D01*
X119832307Y-102387562D01*
X119832306Y-102387563D01*
X119807197Y-102405806D01*
X119683147Y-102495934D01*
X119678726Y-102500844D01*
X119678725Y-102500845D01*
X119605520Y-102582148D01*
X119555360Y-102637856D01*
X119459873Y-102803244D01*
X119400858Y-102984872D01*
X119400168Y-102991433D01*
X119400168Y-102991435D01*
X119386925Y-103117435D01*
X119380896Y-103174800D01*
X118434311Y-103174800D01*
X118430219Y-103138319D01*
X118430218Y-103138317D01*
X118429434Y-103131323D01*
X118375684Y-102976976D01*
X118366214Y-102961820D01*
X118347077Y-102893452D01*
X118363948Y-102832050D01*
X118454205Y-102675721D01*
X118454206Y-102675720D01*
X118457509Y-102669998D01*
X118516524Y-102488370D01*
X118519516Y-102459908D01*
X118535796Y-102305007D01*
X118536486Y-102298442D01*
X118527913Y-102216872D01*
X118517214Y-102115077D01*
X118517214Y-102115075D01*
X118516524Y-102108514D01*
X118457509Y-101926886D01*
X118362022Y-101761498D01*
X118348114Y-101746051D01*
X118238657Y-101624487D01*
X118238656Y-101624486D01*
X118234235Y-101619576D01*
X118111955Y-101530734D01*
X118085076Y-101511205D01*
X118085075Y-101511204D01*
X118079734Y-101507324D01*
X118073706Y-101504640D01*
X118073704Y-101504639D01*
X117911301Y-101432333D01*
X117911300Y-101432333D01*
X117905270Y-101429648D01*
X117786371Y-101404375D01*
X117724926Y-101391314D01*
X117724921Y-101391314D01*
X117718469Y-101389942D01*
X117527495Y-101389942D01*
X117521043Y-101391314D01*
X117521038Y-101391314D01*
X117459593Y-101404375D01*
X117340694Y-101429648D01*
X117334664Y-101432333D01*
X117334663Y-101432333D01*
X117172260Y-101504639D01*
X117172258Y-101504640D01*
X117166230Y-101507324D01*
X117160889Y-101511204D01*
X117160888Y-101511205D01*
X117134009Y-101530734D01*
X117011729Y-101619576D01*
X117007308Y-101624486D01*
X117007307Y-101624487D01*
X116897851Y-101746051D01*
X116883942Y-101761498D01*
X116788455Y-101926886D01*
X116729440Y-102108514D01*
X116728750Y-102115075D01*
X116728750Y-102115077D01*
X116718051Y-102216872D01*
X116709478Y-102298442D01*
X110852562Y-102298442D01*
X110804250Y-102267783D01*
X110728591Y-102219768D01*
X110681599Y-102203035D01*
X110581258Y-102167305D01*
X110581253Y-102167304D01*
X110574623Y-102164943D01*
X110567635Y-102164110D01*
X110567632Y-102164109D01*
X110456693Y-102150880D01*
X110412335Y-102145591D01*
X110405332Y-102146327D01*
X110405331Y-102146327D01*
X110256792Y-102161939D01*
X110256790Y-102161940D01*
X110249792Y-102162675D01*
X110190214Y-102182957D01*
X110101744Y-102213074D01*
X110101741Y-102213075D01*
X110095074Y-102215345D01*
X109955869Y-102300984D01*
X109947999Y-102308691D01*
X109848829Y-102405806D01*
X109839097Y-102415336D01*
X109750562Y-102552717D01*
X109748153Y-102559337D01*
X109748152Y-102559338D01*
X109740211Y-102581156D01*
X109694663Y-102706298D01*
X109674178Y-102868447D01*
X108630078Y-102868447D01*
X108735421Y-102751452D01*
X108735422Y-102751451D01*
X108739840Y-102746544D01*
X108835327Y-102581156D01*
X108894342Y-102399528D01*
X108895450Y-102388991D01*
X108913614Y-102216165D01*
X108914304Y-102209600D01*
X108907654Y-102146327D01*
X108895032Y-102026235D01*
X108895032Y-102026233D01*
X108894342Y-102019672D01*
X108835327Y-101838044D01*
X108807901Y-101790540D01*
X108784633Y-101750240D01*
X108739840Y-101672656D01*
X108716105Y-101646295D01*
X108616475Y-101535645D01*
X108616474Y-101535644D01*
X108612053Y-101530734D01*
X108470637Y-101427989D01*
X108462894Y-101422363D01*
X108462893Y-101422362D01*
X108457552Y-101418482D01*
X108451524Y-101415798D01*
X108451522Y-101415797D01*
X108289119Y-101343491D01*
X108289118Y-101343491D01*
X108283088Y-101340806D01*
X108189687Y-101320953D01*
X108102744Y-101302472D01*
X108102739Y-101302472D01*
X108096287Y-101301100D01*
X107905313Y-101301100D01*
X107898861Y-101302472D01*
X107898856Y-101302472D01*
X107811912Y-101320953D01*
X107718512Y-101340806D01*
X107712482Y-101343491D01*
X107712481Y-101343491D01*
X107550078Y-101415797D01*
X107550076Y-101415798D01*
X107544048Y-101418482D01*
X107538707Y-101422362D01*
X107538706Y-101422363D01*
X107530963Y-101427989D01*
X107389547Y-101530734D01*
X107385126Y-101535644D01*
X107385125Y-101535645D01*
X107285496Y-101646295D01*
X107261760Y-101672656D01*
X107216967Y-101750240D01*
X107193700Y-101790540D01*
X107166273Y-101838044D01*
X107107258Y-102019672D01*
X107106568Y-102026234D01*
X107106566Y-102026245D01*
X107104722Y-102043788D01*
X107077708Y-102109444D01*
X107019486Y-102150073D01*
X106953219Y-102153862D01*
X106947729Y-102152695D01*
X106947720Y-102152694D01*
X106941265Y-102151322D01*
X106750291Y-102151322D01*
X106743839Y-102152694D01*
X106743834Y-102152694D01*
X106685527Y-102165088D01*
X106563490Y-102191028D01*
X106557460Y-102193713D01*
X106557459Y-102193713D01*
X106395056Y-102266019D01*
X106395054Y-102266020D01*
X106389026Y-102268704D01*
X106383685Y-102272584D01*
X106383684Y-102272585D01*
X106357131Y-102291877D01*
X106234525Y-102380956D01*
X106230103Y-102385868D01*
X106225201Y-102390281D01*
X106224040Y-102388991D01*
X106170895Y-102421731D01*
X106099911Y-102420379D01*
X106063645Y-102402117D01*
X106047355Y-102390281D01*
X105981607Y-102342512D01*
X105973694Y-102336763D01*
X105973693Y-102336762D01*
X105968352Y-102332882D01*
X105962324Y-102330198D01*
X105962322Y-102330197D01*
X105799919Y-102257891D01*
X105799918Y-102257891D01*
X105793888Y-102255206D01*
X105700487Y-102235353D01*
X105613544Y-102216872D01*
X105613539Y-102216872D01*
X105607087Y-102215500D01*
X105416113Y-102215500D01*
X105409661Y-102216872D01*
X105409656Y-102216872D01*
X105322713Y-102235353D01*
X105229312Y-102255206D01*
X105223282Y-102257891D01*
X105223281Y-102257891D01*
X105060878Y-102330197D01*
X105060876Y-102330198D01*
X105054848Y-102332882D01*
X105049507Y-102336762D01*
X105049506Y-102336763D01*
X105041593Y-102342512D01*
X104900347Y-102445134D01*
X104895926Y-102450044D01*
X104895925Y-102450045D01*
X104848821Y-102502360D01*
X104772560Y-102587056D01*
X104769259Y-102592774D01*
X104697962Y-102716264D01*
X104677073Y-102752444D01*
X104618058Y-102934072D01*
X104617368Y-102940633D01*
X104617368Y-102940635D01*
X104602889Y-103078394D01*
X104598096Y-103124000D01*
X86360000Y-103124000D01*
X86360000Y-100370564D01*
X103508561Y-100370564D01*
X103524510Y-100533222D01*
X103526734Y-100539907D01*
X103526734Y-100539908D01*
X103536706Y-100569884D01*
X103576099Y-100688305D01*
X103579748Y-100694330D01*
X103648390Y-100807670D01*
X103660765Y-100828104D01*
X103665656Y-100833169D01*
X103665657Y-100833170D01*
X103692479Y-100860945D01*
X103774298Y-100945671D01*
X103780190Y-100949526D01*
X103780194Y-100949530D01*
X103864153Y-101004471D01*
X103911057Y-101035164D01*
X103946732Y-101048431D01*
X104057648Y-101089680D01*
X104057651Y-101089681D01*
X104064245Y-101092133D01*
X104071222Y-101093064D01*
X104219266Y-101112818D01*
X104219270Y-101112818D01*
X104226247Y-101113749D01*
X104233258Y-101113111D01*
X104233262Y-101113111D01*
X104381991Y-101099575D01*
X104389012Y-101098936D01*
X104395714Y-101096758D01*
X104395716Y-101096758D01*
X104537752Y-101050608D01*
X104537755Y-101050607D01*
X104544451Y-101048431D01*
X104588449Y-101022203D01*
X104678786Y-100968352D01*
X104678788Y-100968351D01*
X104684838Y-100964744D01*
X104803195Y-100852034D01*
X104893640Y-100715903D01*
X104912686Y-100665765D01*
X104949178Y-100569700D01*
X104949179Y-100569695D01*
X104951678Y-100563117D01*
X104954940Y-100539908D01*
X104963022Y-100482400D01*
X105868096Y-100482400D01*
X105868786Y-100488965D01*
X105873438Y-100533222D01*
X105888058Y-100672328D01*
X105947073Y-100853956D01*
X106042560Y-101019344D01*
X106046978Y-101024251D01*
X106046979Y-101024252D01*
X106137768Y-101125083D01*
X106170347Y-101161266D01*
X106204550Y-101186116D01*
X106310775Y-101263293D01*
X106324848Y-101273518D01*
X106330876Y-101276202D01*
X106330878Y-101276203D01*
X106493281Y-101348509D01*
X106499312Y-101351194D01*
X106570314Y-101366286D01*
X106679656Y-101389528D01*
X106679661Y-101389528D01*
X106686113Y-101390900D01*
X106877087Y-101390900D01*
X106883539Y-101389528D01*
X106883544Y-101389528D01*
X106992886Y-101366286D01*
X107063888Y-101351194D01*
X107069919Y-101348509D01*
X107232322Y-101276203D01*
X107232324Y-101276202D01*
X107238352Y-101273518D01*
X107252426Y-101263293D01*
X107358650Y-101186116D01*
X107392853Y-101161266D01*
X107425432Y-101125083D01*
X107516221Y-101024252D01*
X107516222Y-101024251D01*
X107520640Y-101019344D01*
X107616127Y-100853956D01*
X107641143Y-100776964D01*
X112804961Y-100776964D01*
X112820910Y-100939622D01*
X112823134Y-100946307D01*
X112823134Y-100946308D01*
X112836477Y-100986419D01*
X112872499Y-101094705D01*
X112957165Y-101234504D01*
X112962056Y-101239569D01*
X112962057Y-101239570D01*
X112994487Y-101273152D01*
X113070698Y-101352071D01*
X113076590Y-101355926D01*
X113076594Y-101355930D01*
X113160401Y-101410771D01*
X113207457Y-101441564D01*
X113243132Y-101454831D01*
X113354048Y-101496080D01*
X113354051Y-101496081D01*
X113360645Y-101498533D01*
X113367622Y-101499464D01*
X113515666Y-101519218D01*
X113515670Y-101519218D01*
X113522647Y-101520149D01*
X113529658Y-101519511D01*
X113529662Y-101519511D01*
X113678391Y-101505975D01*
X113685412Y-101505336D01*
X113692114Y-101503158D01*
X113692116Y-101503158D01*
X113834152Y-101457008D01*
X113834155Y-101457007D01*
X113840851Y-101454831D01*
X113846902Y-101451224D01*
X113975186Y-101374752D01*
X113975188Y-101374751D01*
X113981238Y-101371144D01*
X114099595Y-101258434D01*
X114190040Y-101122303D01*
X114203470Y-101086947D01*
X114245578Y-100976100D01*
X114245579Y-100976095D01*
X114248078Y-100969517D01*
X114252142Y-100940603D01*
X114270273Y-100811593D01*
X114270273Y-100811588D01*
X114270824Y-100807670D01*
X114271110Y-100787200D01*
X114252892Y-100624781D01*
X114199142Y-100470434D01*
X114112534Y-100331830D01*
X114107572Y-100326833D01*
X114009824Y-100228400D01*
X123749696Y-100228400D01*
X123750386Y-100234965D01*
X123768577Y-100408040D01*
X123769658Y-100418328D01*
X123828673Y-100599956D01*
X123831976Y-100605678D01*
X123831977Y-100605679D01*
X123843006Y-100624781D01*
X123924160Y-100765344D01*
X123928578Y-100770251D01*
X123928579Y-100770252D01*
X124010239Y-100860945D01*
X124051947Y-100907266D01*
X124206448Y-101019518D01*
X124212476Y-101022202D01*
X124212478Y-101022203D01*
X124374881Y-101094509D01*
X124380912Y-101097194D01*
X124387373Y-101098567D01*
X124387375Y-101098568D01*
X124402610Y-101101807D01*
X124465083Y-101135536D01*
X124496244Y-101186116D01*
X124535428Y-101306711D01*
X124630915Y-101472099D01*
X124635333Y-101477006D01*
X124635334Y-101477007D01*
X124739425Y-101592612D01*
X124758702Y-101614021D01*
X124793233Y-101639109D01*
X124905815Y-101720905D01*
X124913203Y-101726273D01*
X124919231Y-101728957D01*
X124919233Y-101728958D01*
X125069952Y-101796062D01*
X125087667Y-101803949D01*
X125171042Y-101821671D01*
X125268011Y-101842283D01*
X125268016Y-101842283D01*
X125274468Y-101843655D01*
X125465442Y-101843655D01*
X125471894Y-101842283D01*
X125471899Y-101842283D01*
X125568868Y-101821671D01*
X125652243Y-101803949D01*
X125669958Y-101796062D01*
X125820677Y-101728958D01*
X125820679Y-101728957D01*
X125826707Y-101726273D01*
X125834096Y-101720905D01*
X125946677Y-101639109D01*
X125981208Y-101614021D01*
X126000485Y-101592612D01*
X126104576Y-101477007D01*
X126104577Y-101477006D01*
X126108995Y-101472099D01*
X126204482Y-101306711D01*
X126263497Y-101125083D01*
X126264482Y-101115716D01*
X126282769Y-100941720D01*
X126283459Y-100935155D01*
X126275526Y-100859679D01*
X126264187Y-100751790D01*
X126264187Y-100751788D01*
X126263497Y-100745227D01*
X126240797Y-100675364D01*
X128705361Y-100675364D01*
X128721310Y-100838022D01*
X128723534Y-100844707D01*
X128723534Y-100844708D01*
X128742711Y-100902355D01*
X128772899Y-100993105D01*
X128776548Y-100999130D01*
X128851145Y-101122303D01*
X128857565Y-101132904D01*
X128862456Y-101137969D01*
X128862457Y-101137970D01*
X128908951Y-101186116D01*
X128971098Y-101250471D01*
X128976990Y-101254326D01*
X128976994Y-101254330D01*
X129006317Y-101273518D01*
X129107857Y-101339964D01*
X129138054Y-101351194D01*
X129254448Y-101394480D01*
X129254451Y-101394481D01*
X129261045Y-101396933D01*
X129268022Y-101397864D01*
X129416066Y-101417618D01*
X129416070Y-101417618D01*
X129423047Y-101418549D01*
X129430058Y-101417911D01*
X129430062Y-101417911D01*
X129578791Y-101404375D01*
X129585812Y-101403736D01*
X129592514Y-101401558D01*
X129592516Y-101401558D01*
X129734552Y-101355408D01*
X129734555Y-101355407D01*
X129741251Y-101353231D01*
X129809689Y-101312434D01*
X129875586Y-101273152D01*
X129875588Y-101273151D01*
X129881638Y-101269544D01*
X129999995Y-101156834D01*
X130090440Y-101020703D01*
X130122937Y-100935155D01*
X130145978Y-100874500D01*
X130145979Y-100874495D01*
X130148478Y-100867917D01*
X130150710Y-100852034D01*
X130170673Y-100709993D01*
X130170673Y-100709988D01*
X130171224Y-100706070D01*
X130171510Y-100685600D01*
X130157826Y-100563599D01*
X130154077Y-100530177D01*
X130154076Y-100530175D01*
X130153292Y-100523181D01*
X130137889Y-100478950D01*
X130134375Y-100408040D01*
X130169756Y-100346487D01*
X130232798Y-100313835D01*
X130270925Y-100312297D01*
X130371761Y-100323607D01*
X130378785Y-100324000D01*
X130709885Y-100324000D01*
X130725124Y-100319525D01*
X130726329Y-100318135D01*
X130728000Y-100310452D01*
X130728000Y-100305885D01*
X131236000Y-100305885D01*
X131240475Y-100321124D01*
X131241865Y-100322329D01*
X131249548Y-100324000D01*
X131578657Y-100324000D01*
X131584805Y-100323699D01*
X131722603Y-100310188D01*
X131734638Y-100307805D01*
X131912076Y-100254233D01*
X131923416Y-100249559D01*
X132087077Y-100162540D01*
X132097294Y-100155751D01*
X132240933Y-100038603D01*
X132249637Y-100029959D01*
X132367784Y-99887144D01*
X132374644Y-99876973D01*
X132462804Y-99713924D01*
X132467556Y-99702619D01*
X132503250Y-99587308D01*
X132503331Y-99581768D01*
X133889425Y-99581768D01*
X133921138Y-99689521D01*
X133925731Y-99700889D01*
X134011607Y-99865154D01*
X134018321Y-99875415D01*
X134134468Y-100019873D01*
X134143046Y-100028632D01*
X134285039Y-100147778D01*
X134295159Y-100154708D01*
X134457585Y-100244002D01*
X134468858Y-100248834D01*
X134645538Y-100304880D01*
X134657532Y-100307430D01*
X134801761Y-100323607D01*
X134808785Y-100324000D01*
X134889885Y-100324000D01*
X134905124Y-100319525D01*
X134906329Y-100318135D01*
X134908000Y-100310452D01*
X134908000Y-100305885D01*
X135416000Y-100305885D01*
X135420475Y-100321124D01*
X135421865Y-100322329D01*
X135429548Y-100324000D01*
X135508657Y-100324000D01*
X135514805Y-100323699D01*
X135652603Y-100310188D01*
X135664638Y-100307805D01*
X135842076Y-100254233D01*
X135853416Y-100249559D01*
X136017077Y-100162540D01*
X136027294Y-100155751D01*
X136170933Y-100038603D01*
X136179637Y-100029959D01*
X136297784Y-99887144D01*
X136304644Y-99876973D01*
X136392804Y-99713924D01*
X136397556Y-99702619D01*
X136433250Y-99587308D01*
X136433456Y-99573205D01*
X136426701Y-99570000D01*
X135434115Y-99570000D01*
X135418876Y-99574475D01*
X135417671Y-99575865D01*
X135416000Y-99583548D01*
X135416000Y-100305885D01*
X134908000Y-100305885D01*
X134908000Y-99588115D01*
X134903525Y-99572876D01*
X134902135Y-99571671D01*
X134894452Y-99570000D01*
X133904076Y-99570000D01*
X133890545Y-99573973D01*
X133889425Y-99581768D01*
X132503331Y-99581768D01*
X132503456Y-99573205D01*
X132496701Y-99570000D01*
X131254115Y-99570000D01*
X131238876Y-99574475D01*
X131237671Y-99575865D01*
X131236000Y-99583548D01*
X131236000Y-100305885D01*
X130728000Y-100305885D01*
X130728000Y-99588115D01*
X130723525Y-99572876D01*
X130722135Y-99571671D01*
X130714452Y-99570000D01*
X129474076Y-99570000D01*
X129460545Y-99573973D01*
X129459425Y-99581768D01*
X129491138Y-99689521D01*
X129495733Y-99700893D01*
X129531806Y-99769894D01*
X129545641Y-99839530D01*
X129519631Y-99905590D01*
X129462036Y-99947102D01*
X129433316Y-99953580D01*
X129287975Y-99968856D01*
X129287973Y-99968857D01*
X129280975Y-99969592D01*
X129199673Y-99997269D01*
X129132927Y-100019991D01*
X129132924Y-100019992D01*
X129126257Y-100022262D01*
X129120258Y-100025952D01*
X129120257Y-100025953D01*
X129099908Y-100038472D01*
X128987052Y-100107901D01*
X128946331Y-100147778D01*
X128878269Y-100214430D01*
X128870280Y-100222253D01*
X128781745Y-100359634D01*
X128779336Y-100366254D01*
X128779335Y-100366255D01*
X128775215Y-100377576D01*
X128725846Y-100513215D01*
X128705361Y-100675364D01*
X126240797Y-100675364D01*
X126204482Y-100563599D01*
X126200179Y-100556145D01*
X126149204Y-100467855D01*
X126108995Y-100398211D01*
X126096886Y-100384762D01*
X125985630Y-100261200D01*
X125985629Y-100261199D01*
X125981208Y-100256289D01*
X125842830Y-100155751D01*
X125832049Y-100147918D01*
X125832048Y-100147917D01*
X125826707Y-100144037D01*
X125820679Y-100141353D01*
X125820677Y-100141352D01*
X125658274Y-100069046D01*
X125658273Y-100069046D01*
X125652243Y-100066361D01*
X125645782Y-100064988D01*
X125645780Y-100064987D01*
X125630545Y-100061748D01*
X125568072Y-100028019D01*
X125536911Y-99977439D01*
X125524924Y-99940548D01*
X125497727Y-99856844D01*
X125402240Y-99691456D01*
X125309192Y-99588115D01*
X125278875Y-99554445D01*
X125278874Y-99554444D01*
X125274453Y-99549534D01*
X125119952Y-99437282D01*
X125113924Y-99434598D01*
X125113922Y-99434597D01*
X124951519Y-99362291D01*
X124951518Y-99362291D01*
X124945488Y-99359606D01*
X124852087Y-99339753D01*
X124765144Y-99321272D01*
X124765139Y-99321272D01*
X124758687Y-99319900D01*
X124567713Y-99319900D01*
X124561261Y-99321272D01*
X124561256Y-99321272D01*
X124474312Y-99339753D01*
X124380912Y-99359606D01*
X124374882Y-99362291D01*
X124374881Y-99362291D01*
X124212478Y-99434597D01*
X124212476Y-99434598D01*
X124206448Y-99437282D01*
X124051947Y-99549534D01*
X124047526Y-99554444D01*
X124047525Y-99554445D01*
X124017209Y-99588115D01*
X123924160Y-99691456D01*
X123828673Y-99856844D01*
X123769658Y-100038472D01*
X123768968Y-100045033D01*
X123768968Y-100045035D01*
X123757441Y-100154708D01*
X123749696Y-100228400D01*
X114009824Y-100228400D01*
X114002333Y-100220857D01*
X114002329Y-100220854D01*
X113997370Y-100215860D01*
X113981536Y-100205811D01*
X113901010Y-100154708D01*
X113859374Y-100128285D01*
X113802129Y-100107901D01*
X113712041Y-100075822D01*
X113712036Y-100075821D01*
X113705406Y-100073460D01*
X113698418Y-100072627D01*
X113698415Y-100072626D01*
X113576268Y-100058061D01*
X113543118Y-100054108D01*
X113536115Y-100054844D01*
X113536114Y-100054844D01*
X113387575Y-100070456D01*
X113387573Y-100070457D01*
X113380575Y-100071192D01*
X113338816Y-100085408D01*
X113232527Y-100121591D01*
X113232524Y-100121592D01*
X113225857Y-100123862D01*
X113219858Y-100127552D01*
X113219857Y-100127553D01*
X113218667Y-100128285D01*
X113086652Y-100209501D01*
X113060649Y-100234965D01*
X112981681Y-100312297D01*
X112969880Y-100323853D01*
X112881345Y-100461234D01*
X112878936Y-100467854D01*
X112878935Y-100467855D01*
X112859881Y-100520205D01*
X112825446Y-100614815D01*
X112804961Y-100776964D01*
X107641143Y-100776964D01*
X107675142Y-100672328D01*
X107689763Y-100533222D01*
X107694414Y-100488965D01*
X107695104Y-100482400D01*
X107686989Y-100405193D01*
X107675832Y-100299035D01*
X107675832Y-100299033D01*
X107675142Y-100292472D01*
X107616127Y-100110844D01*
X107612298Y-100104211D01*
X107523941Y-99951174D01*
X107520640Y-99945456D01*
X107500757Y-99923373D01*
X107397275Y-99808445D01*
X107397274Y-99808444D01*
X107392853Y-99803534D01*
X107253956Y-99702619D01*
X107243694Y-99695163D01*
X107243693Y-99695162D01*
X107238352Y-99691282D01*
X107232324Y-99688598D01*
X107232322Y-99688597D01*
X107069919Y-99616291D01*
X107069918Y-99616291D01*
X107063888Y-99613606D01*
X106957277Y-99590945D01*
X106883544Y-99575272D01*
X106883539Y-99575272D01*
X106877087Y-99573900D01*
X106686113Y-99573900D01*
X106679661Y-99575272D01*
X106679656Y-99575272D01*
X106605923Y-99590945D01*
X106499312Y-99613606D01*
X106493282Y-99616291D01*
X106493281Y-99616291D01*
X106330878Y-99688597D01*
X106330876Y-99688598D01*
X106324848Y-99691282D01*
X106319507Y-99695162D01*
X106319506Y-99695163D01*
X106309244Y-99702619D01*
X106170347Y-99803534D01*
X106165926Y-99808444D01*
X106165925Y-99808445D01*
X106062444Y-99923373D01*
X106042560Y-99945456D01*
X106039259Y-99951174D01*
X105950903Y-100104211D01*
X105947073Y-100110844D01*
X105888058Y-100292472D01*
X105887368Y-100299033D01*
X105887368Y-100299035D01*
X105876211Y-100405193D01*
X105868096Y-100482400D01*
X104963022Y-100482400D01*
X104973873Y-100405193D01*
X104973873Y-100405188D01*
X104974424Y-100401270D01*
X104974710Y-100380800D01*
X104960744Y-100256289D01*
X104957277Y-100225377D01*
X104957276Y-100225375D01*
X104956492Y-100218381D01*
X104902742Y-100064034D01*
X104833054Y-99952508D01*
X104819866Y-99931402D01*
X104819864Y-99931400D01*
X104816134Y-99925430D01*
X104811172Y-99920433D01*
X104705933Y-99814457D01*
X104705929Y-99814454D01*
X104700970Y-99809460D01*
X104691633Y-99803534D01*
X104617635Y-99756574D01*
X104562974Y-99721885D01*
X104538435Y-99713147D01*
X104415641Y-99669422D01*
X104415636Y-99669421D01*
X104409006Y-99667060D01*
X104402018Y-99666227D01*
X104402015Y-99666226D01*
X104291076Y-99652997D01*
X104246718Y-99647708D01*
X104239715Y-99648444D01*
X104239714Y-99648444D01*
X104091175Y-99664056D01*
X104091173Y-99664057D01*
X104084175Y-99664792D01*
X104020267Y-99686548D01*
X103936127Y-99715191D01*
X103936124Y-99715192D01*
X103929457Y-99717462D01*
X103790252Y-99803101D01*
X103673480Y-99917453D01*
X103584945Y-100054834D01*
X103582536Y-100061454D01*
X103582535Y-100061455D01*
X103578991Y-100071192D01*
X103529046Y-100208415D01*
X103508561Y-100370564D01*
X86360000Y-100370564D01*
X86360000Y-99405364D01*
X121796561Y-99405364D01*
X121812510Y-99568022D01*
X121814734Y-99574707D01*
X121814734Y-99574708D01*
X121827217Y-99612234D01*
X121864099Y-99723105D01*
X121948765Y-99862904D01*
X122062298Y-99980471D01*
X122068190Y-99984326D01*
X122068194Y-99984330D01*
X122135895Y-100028632D01*
X122199057Y-100069964D01*
X122234732Y-100083231D01*
X122345648Y-100124480D01*
X122345651Y-100124481D01*
X122352245Y-100126933D01*
X122359222Y-100127864D01*
X122507266Y-100147618D01*
X122507270Y-100147618D01*
X122514247Y-100148549D01*
X122521258Y-100147911D01*
X122521262Y-100147911D01*
X122669991Y-100134375D01*
X122677012Y-100133736D01*
X122683714Y-100131558D01*
X122683716Y-100131558D01*
X122825752Y-100085408D01*
X122825755Y-100085407D01*
X122832451Y-100083231D01*
X122844880Y-100075822D01*
X122966786Y-100003152D01*
X122966788Y-100003151D01*
X122972838Y-99999544D01*
X123091195Y-99886834D01*
X123181640Y-99750703D01*
X123214554Y-99664056D01*
X123237178Y-99604500D01*
X123237179Y-99604495D01*
X123239678Y-99597917D01*
X123241169Y-99587308D01*
X123261873Y-99439993D01*
X123261873Y-99439988D01*
X123262424Y-99436070D01*
X123262710Y-99415600D01*
X123244492Y-99253181D01*
X123190742Y-99098834D01*
X123165723Y-99058795D01*
X129460544Y-99058795D01*
X129467299Y-99062000D01*
X132489924Y-99062000D01*
X132500839Y-99058795D01*
X133890544Y-99058795D01*
X133897299Y-99062000D01*
X134889885Y-99062000D01*
X134905124Y-99057525D01*
X134906329Y-99056135D01*
X134908000Y-99048452D01*
X134908000Y-99043885D01*
X135416000Y-99043885D01*
X135420475Y-99059124D01*
X135421865Y-99060329D01*
X135429548Y-99062000D01*
X136419924Y-99062000D01*
X136433455Y-99058027D01*
X136434575Y-99050232D01*
X136402862Y-98942479D01*
X136398269Y-98931111D01*
X136312393Y-98766846D01*
X136305679Y-98756585D01*
X136189532Y-98612127D01*
X136180954Y-98603368D01*
X136038961Y-98484222D01*
X136028841Y-98477292D01*
X135866415Y-98387998D01*
X135855142Y-98383166D01*
X135678462Y-98327120D01*
X135666468Y-98324570D01*
X135522239Y-98308393D01*
X135515215Y-98308000D01*
X135434115Y-98308000D01*
X135418876Y-98312475D01*
X135417671Y-98313865D01*
X135416000Y-98321548D01*
X135416000Y-99043885D01*
X134908000Y-99043885D01*
X134908000Y-98326115D01*
X134903525Y-98310876D01*
X134902135Y-98309671D01*
X134894452Y-98308000D01*
X134815343Y-98308000D01*
X134809195Y-98308301D01*
X134671397Y-98321812D01*
X134659362Y-98324195D01*
X134481924Y-98377767D01*
X134470584Y-98382441D01*
X134306923Y-98469460D01*
X134296706Y-98476249D01*
X134153067Y-98593397D01*
X134144363Y-98602041D01*
X134026216Y-98744856D01*
X134019356Y-98755027D01*
X133931196Y-98918076D01*
X133926444Y-98929381D01*
X133890750Y-99044692D01*
X133890544Y-99058795D01*
X132500839Y-99058795D01*
X132503455Y-99058027D01*
X132504575Y-99050232D01*
X132472862Y-98942479D01*
X132468269Y-98931111D01*
X132382393Y-98766846D01*
X132375679Y-98756585D01*
X132259532Y-98612127D01*
X132250955Y-98603368D01*
X132198890Y-98559681D01*
X132159564Y-98500572D01*
X132158437Y-98429584D01*
X132175669Y-98392336D01*
X132248442Y-98285255D01*
X132252277Y-98279612D01*
X132319530Y-98111466D01*
X132320644Y-98104738D01*
X132320645Y-98104734D01*
X132347993Y-97939539D01*
X132347993Y-97939536D01*
X132349108Y-97932802D01*
X132346671Y-97886288D01*
X132339987Y-97758766D01*
X132339630Y-97751953D01*
X132336622Y-97741030D01*
X132293352Y-97583941D01*
X132291539Y-97577359D01*
X132207078Y-97417164D01*
X132202673Y-97411951D01*
X132202670Y-97411947D01*
X132094594Y-97284057D01*
X132094590Y-97284053D01*
X132090187Y-97278843D01*
X132010159Y-97217657D01*
X131968193Y-97160395D01*
X131963848Y-97089531D01*
X131998504Y-97027568D01*
X132023282Y-97008754D01*
X132028752Y-97006318D01*
X132036810Y-97000464D01*
X132128768Y-96933652D01*
X132183253Y-96894066D01*
X132269328Y-96798470D01*
X132306621Y-96757052D01*
X132306622Y-96757051D01*
X132311040Y-96752144D01*
X132406527Y-96586756D01*
X132465542Y-96405128D01*
X132467138Y-96389949D01*
X132484814Y-96221765D01*
X132485504Y-96215200D01*
X132482191Y-96183681D01*
X132466232Y-96031835D01*
X132466232Y-96031833D01*
X132465542Y-96025272D01*
X132406527Y-95843644D01*
X132311040Y-95678256D01*
X132253042Y-95613842D01*
X132187675Y-95541245D01*
X132187674Y-95541244D01*
X132183253Y-95536334D01*
X132028752Y-95424082D01*
X132022724Y-95421398D01*
X132022722Y-95421397D01*
X131860319Y-95349091D01*
X131860318Y-95349091D01*
X131854288Y-95346406D01*
X131758460Y-95326037D01*
X131673944Y-95308072D01*
X131673939Y-95308072D01*
X131667487Y-95306700D01*
X131476513Y-95306700D01*
X131470061Y-95308072D01*
X131470056Y-95308072D01*
X131385540Y-95326037D01*
X131289712Y-95346406D01*
X131283682Y-95349091D01*
X131283681Y-95349091D01*
X131121278Y-95421397D01*
X131121276Y-95421398D01*
X131115248Y-95424082D01*
X130960747Y-95536334D01*
X130956326Y-95541244D01*
X130956325Y-95541245D01*
X130890959Y-95613842D01*
X130832960Y-95678256D01*
X130737473Y-95843644D01*
X130678458Y-96025272D01*
X130677768Y-96031833D01*
X130677768Y-96031835D01*
X130661809Y-96183681D01*
X130658496Y-96215200D01*
X130659186Y-96221765D01*
X130676863Y-96389949D01*
X130678458Y-96405128D01*
X130737473Y-96586756D01*
X130832960Y-96752144D01*
X130837378Y-96757051D01*
X130837379Y-96757052D01*
X130874672Y-96798470D01*
X130960747Y-96894066D01*
X130966089Y-96897947D01*
X130966091Y-96897949D01*
X130989326Y-96914830D01*
X131070984Y-96974158D01*
X131114337Y-97030379D01*
X131120412Y-97101115D01*
X131087281Y-97163907D01*
X131061817Y-97184095D01*
X131005095Y-97218177D01*
X131000138Y-97222865D01*
X131000135Y-97222867D01*
X130935429Y-97284057D01*
X130873515Y-97342607D01*
X130869683Y-97348245D01*
X130869680Y-97348249D01*
X130776729Y-97485022D01*
X130771723Y-97492388D01*
X130704470Y-97660534D01*
X130703356Y-97667262D01*
X130703355Y-97667266D01*
X130676007Y-97832461D01*
X130674892Y-97839198D01*
X130675249Y-97846015D01*
X130675249Y-97846019D01*
X130680151Y-97939539D01*
X130684370Y-98020047D01*
X130686181Y-98026620D01*
X130686181Y-98026623D01*
X130691659Y-98046509D01*
X130711297Y-98117803D01*
X130719763Y-98148540D01*
X130718569Y-98219526D01*
X130679186Y-98278599D01*
X130614119Y-98307001D01*
X130598287Y-98308000D01*
X130385343Y-98308000D01*
X130379195Y-98308301D01*
X130241397Y-98321812D01*
X130229362Y-98324195D01*
X130051924Y-98377767D01*
X130040584Y-98382441D01*
X129876923Y-98469460D01*
X129866706Y-98476249D01*
X129723067Y-98593397D01*
X129714363Y-98602041D01*
X129596216Y-98744856D01*
X129589356Y-98755027D01*
X129501196Y-98918076D01*
X129496444Y-98929381D01*
X129460750Y-99044692D01*
X129460544Y-99058795D01*
X123165723Y-99058795D01*
X123133374Y-99007024D01*
X123107866Y-98966202D01*
X123107864Y-98966200D01*
X123104134Y-98960230D01*
X123099172Y-98955233D01*
X122993933Y-98849257D01*
X122993929Y-98849254D01*
X122988970Y-98844260D01*
X122982025Y-98839852D01*
X122936040Y-98810669D01*
X122850974Y-98756685D01*
X122817754Y-98744856D01*
X122703641Y-98704222D01*
X122703636Y-98704221D01*
X122697006Y-98701860D01*
X122690018Y-98701027D01*
X122690015Y-98701026D01*
X122576179Y-98687452D01*
X122534718Y-98682508D01*
X122527715Y-98683244D01*
X122527714Y-98683244D01*
X122379175Y-98698856D01*
X122379173Y-98698857D01*
X122372175Y-98699592D01*
X122290873Y-98727269D01*
X122224127Y-98749991D01*
X122224124Y-98749992D01*
X122217457Y-98752262D01*
X122211458Y-98755952D01*
X122211457Y-98755953D01*
X122196540Y-98765130D01*
X122078252Y-98837901D01*
X121961480Y-98952253D01*
X121872945Y-99089634D01*
X121870536Y-99096254D01*
X121870535Y-99096255D01*
X121854267Y-99140950D01*
X121817046Y-99243215D01*
X121796561Y-99405364D01*
X86360000Y-99405364D01*
X86360000Y-98233822D01*
X114846318Y-98233822D01*
X114847008Y-98240387D01*
X114862015Y-98383166D01*
X114866280Y-98423750D01*
X114925295Y-98605378D01*
X114928598Y-98611100D01*
X114928599Y-98611101D01*
X114949380Y-98647094D01*
X115020782Y-98770766D01*
X115025200Y-98775673D01*
X115025201Y-98775674D01*
X115144147Y-98907777D01*
X115148569Y-98912688D01*
X115303070Y-99024940D01*
X115309098Y-99027624D01*
X115309100Y-99027625D01*
X115463247Y-99096255D01*
X115477534Y-99102616D01*
X115570935Y-99122469D01*
X115657878Y-99140950D01*
X115657883Y-99140950D01*
X115664335Y-99142322D01*
X115855309Y-99142322D01*
X115861761Y-99140950D01*
X115861766Y-99140950D01*
X115948709Y-99122469D01*
X116042110Y-99102616D01*
X116056397Y-99096255D01*
X116210544Y-99027625D01*
X116210546Y-99027624D01*
X116216574Y-99024940D01*
X116231090Y-99014394D01*
X116342577Y-98933393D01*
X116409445Y-98909535D01*
X116478596Y-98925615D01*
X116510272Y-98951016D01*
X116533547Y-98976866D01*
X116625790Y-99043885D01*
X116680609Y-99083713D01*
X116688048Y-99089118D01*
X116694076Y-99091802D01*
X116694078Y-99091803D01*
X116856481Y-99164109D01*
X116862512Y-99166794D01*
X116955913Y-99186647D01*
X117042856Y-99205128D01*
X117042861Y-99205128D01*
X117049313Y-99206500D01*
X117240287Y-99206500D01*
X117246739Y-99205128D01*
X117246744Y-99205128D01*
X117333687Y-99186647D01*
X117427088Y-99166794D01*
X117433119Y-99164109D01*
X117595522Y-99091803D01*
X117595524Y-99091802D01*
X117601552Y-99089118D01*
X117608992Y-99083713D01*
X117663810Y-99043885D01*
X117756053Y-98976866D01*
X117772884Y-98958173D01*
X117879421Y-98839852D01*
X117879422Y-98839851D01*
X117883840Y-98834944D01*
X117971424Y-98683244D01*
X117976023Y-98675279D01*
X117976024Y-98675278D01*
X117979327Y-98669556D01*
X118038342Y-98487928D01*
X118039570Y-98476249D01*
X118057614Y-98304565D01*
X118058304Y-98298000D01*
X118046550Y-98186164D01*
X119408961Y-98186164D01*
X119424910Y-98348822D01*
X119427134Y-98355507D01*
X119427134Y-98355508D01*
X119437942Y-98387998D01*
X119476499Y-98503905D01*
X119561165Y-98643704D01*
X119566056Y-98648769D01*
X119566057Y-98648770D01*
X119617326Y-98701861D01*
X119674698Y-98761271D01*
X119680590Y-98765126D01*
X119680594Y-98765130D01*
X119763765Y-98819555D01*
X119811457Y-98850764D01*
X119847132Y-98864031D01*
X119958048Y-98905280D01*
X119958051Y-98905281D01*
X119964645Y-98907733D01*
X119971622Y-98908664D01*
X120119666Y-98928418D01*
X120119670Y-98928418D01*
X120126647Y-98929349D01*
X120133658Y-98928711D01*
X120133662Y-98928711D01*
X120282391Y-98915175D01*
X120289412Y-98914536D01*
X120296114Y-98912358D01*
X120296116Y-98912358D01*
X120438152Y-98866208D01*
X120438155Y-98866207D01*
X120444851Y-98864031D01*
X120473575Y-98846908D01*
X120579186Y-98783952D01*
X120579188Y-98783951D01*
X120585238Y-98780344D01*
X120703595Y-98667634D01*
X120794040Y-98531503D01*
X120832587Y-98430028D01*
X120849578Y-98385300D01*
X120849579Y-98385295D01*
X120852078Y-98378717D01*
X120855434Y-98354836D01*
X120874273Y-98220793D01*
X120874273Y-98220788D01*
X120874824Y-98216870D01*
X120875110Y-98196400D01*
X120869412Y-98145600D01*
X123698896Y-98145600D01*
X123699586Y-98152165D01*
X123717869Y-98326115D01*
X123718858Y-98335528D01*
X123777873Y-98517156D01*
X123873360Y-98682544D01*
X123877778Y-98687451D01*
X123877779Y-98687452D01*
X123961419Y-98780344D01*
X124001147Y-98824466D01*
X124058600Y-98866208D01*
X124147931Y-98931111D01*
X124155648Y-98936718D01*
X124161676Y-98939402D01*
X124161678Y-98939403D01*
X124324081Y-99011709D01*
X124330112Y-99014394D01*
X124392359Y-99027625D01*
X124510456Y-99052728D01*
X124510461Y-99052728D01*
X124516913Y-99054100D01*
X124707887Y-99054100D01*
X124714339Y-99052728D01*
X124714344Y-99052728D01*
X124832441Y-99027625D01*
X124894688Y-99014394D01*
X124900719Y-99011709D01*
X125063122Y-98939403D01*
X125063124Y-98939402D01*
X125069152Y-98936718D01*
X125076870Y-98931111D01*
X125166200Y-98866208D01*
X125223653Y-98824466D01*
X125263381Y-98780344D01*
X125347021Y-98687452D01*
X125347022Y-98687451D01*
X125351440Y-98682544D01*
X125446927Y-98517156D01*
X125505942Y-98335528D01*
X125506932Y-98326115D01*
X125525214Y-98152165D01*
X125525904Y-98145600D01*
X125522982Y-98117803D01*
X125506632Y-97962235D01*
X125506632Y-97962233D01*
X125505942Y-97955672D01*
X125446927Y-97774044D01*
X125439429Y-97761056D01*
X125391053Y-97677267D01*
X125351440Y-97608656D01*
X125303089Y-97554956D01*
X125228075Y-97471645D01*
X125228074Y-97471644D01*
X125223653Y-97466734D01*
X125069152Y-97354482D01*
X125063124Y-97351798D01*
X125063122Y-97351797D01*
X124900719Y-97279491D01*
X124900718Y-97279491D01*
X124894688Y-97276806D01*
X124801288Y-97256953D01*
X124714344Y-97238472D01*
X124714339Y-97238472D01*
X124707887Y-97237100D01*
X124516913Y-97237100D01*
X124510461Y-97238472D01*
X124510456Y-97238472D01*
X124423512Y-97256953D01*
X124330112Y-97276806D01*
X124324082Y-97279491D01*
X124324081Y-97279491D01*
X124161678Y-97351797D01*
X124161676Y-97351798D01*
X124155648Y-97354482D01*
X124001147Y-97466734D01*
X123996726Y-97471644D01*
X123996725Y-97471645D01*
X123921712Y-97554956D01*
X123873360Y-97608656D01*
X123833747Y-97677267D01*
X123785372Y-97761056D01*
X123777873Y-97774044D01*
X123718858Y-97955672D01*
X123718168Y-97962233D01*
X123718168Y-97962235D01*
X123701818Y-98117803D01*
X123698896Y-98145600D01*
X120869412Y-98145600D01*
X120862898Y-98087528D01*
X120857677Y-98040977D01*
X120857676Y-98040975D01*
X120856892Y-98033981D01*
X120803142Y-97879634D01*
X120733587Y-97768321D01*
X120720266Y-97747002D01*
X120720264Y-97747000D01*
X120716534Y-97741030D01*
X120711572Y-97736033D01*
X120606333Y-97630057D01*
X120606329Y-97630054D01*
X120601370Y-97625060D01*
X120592033Y-97619134D01*
X120498636Y-97559863D01*
X120463374Y-97537485D01*
X120438835Y-97528747D01*
X120316041Y-97485022D01*
X120316036Y-97485021D01*
X120309406Y-97482660D01*
X120302418Y-97481827D01*
X120302415Y-97481826D01*
X120191476Y-97468597D01*
X120147118Y-97463308D01*
X120140115Y-97464044D01*
X120140114Y-97464044D01*
X119991575Y-97479656D01*
X119991573Y-97479657D01*
X119984575Y-97480392D01*
X119930722Y-97498725D01*
X119836527Y-97530791D01*
X119836524Y-97530792D01*
X119829857Y-97533062D01*
X119690652Y-97618701D01*
X119679056Y-97630057D01*
X119584910Y-97722252D01*
X119573880Y-97733053D01*
X119485345Y-97870434D01*
X119482936Y-97877054D01*
X119482935Y-97877055D01*
X119464959Y-97926444D01*
X119429446Y-98024015D01*
X119408961Y-98186164D01*
X118046550Y-98186164D01*
X118038342Y-98108072D01*
X117979327Y-97926444D01*
X117883840Y-97761056D01*
X117863957Y-97738973D01*
X117760475Y-97624045D01*
X117760474Y-97624044D01*
X117756053Y-97619134D01*
X117601552Y-97506882D01*
X117595524Y-97504198D01*
X117595522Y-97504197D01*
X117433119Y-97431891D01*
X117433118Y-97431891D01*
X117427088Y-97429206D01*
X117333687Y-97409353D01*
X117246744Y-97390872D01*
X117246739Y-97390872D01*
X117240287Y-97389500D01*
X117049313Y-97389500D01*
X117042861Y-97390872D01*
X117042856Y-97390872D01*
X116955913Y-97409353D01*
X116862512Y-97429206D01*
X116856482Y-97431891D01*
X116856481Y-97431891D01*
X116694078Y-97504197D01*
X116694076Y-97504198D01*
X116688048Y-97506882D01*
X116682707Y-97510762D01*
X116682706Y-97510763D01*
X116562045Y-97598429D01*
X116495177Y-97622287D01*
X116426026Y-97606207D01*
X116394350Y-97580806D01*
X116371075Y-97554956D01*
X116216574Y-97442704D01*
X116210546Y-97440020D01*
X116210544Y-97440019D01*
X116048141Y-97367713D01*
X116048140Y-97367713D01*
X116042110Y-97365028D01*
X115936628Y-97342607D01*
X115861766Y-97326694D01*
X115861761Y-97326694D01*
X115855309Y-97325322D01*
X115664335Y-97325322D01*
X115657883Y-97326694D01*
X115657878Y-97326694D01*
X115583016Y-97342607D01*
X115477534Y-97365028D01*
X115471504Y-97367713D01*
X115471503Y-97367713D01*
X115309100Y-97440019D01*
X115309098Y-97440020D01*
X115303070Y-97442704D01*
X115148569Y-97554956D01*
X115144151Y-97559863D01*
X115144147Y-97559867D01*
X115104637Y-97603748D01*
X115020782Y-97696878D01*
X114925295Y-97862266D01*
X114866280Y-98043894D01*
X114865590Y-98050455D01*
X114865590Y-98050457D01*
X114859535Y-98108072D01*
X114846318Y-98233822D01*
X86360000Y-98233822D01*
X86360000Y-95544564D01*
X87862161Y-95544564D01*
X87878110Y-95707222D01*
X87880334Y-95713907D01*
X87880334Y-95713908D01*
X87897185Y-95764565D01*
X87929699Y-95862305D01*
X87933348Y-95868330D01*
X87981555Y-95947928D01*
X88014365Y-96002104D01*
X88019256Y-96007169D01*
X88019257Y-96007170D01*
X88047086Y-96035988D01*
X88127898Y-96119671D01*
X88133790Y-96123526D01*
X88133794Y-96123530D01*
X88215553Y-96177031D01*
X88264657Y-96209164D01*
X88298541Y-96221765D01*
X88411248Y-96263680D01*
X88411251Y-96263681D01*
X88417845Y-96266133D01*
X88424822Y-96267064D01*
X88572866Y-96286818D01*
X88572870Y-96286818D01*
X88579847Y-96287749D01*
X88586858Y-96287111D01*
X88586862Y-96287111D01*
X88735591Y-96273575D01*
X88742612Y-96272936D01*
X88749314Y-96270758D01*
X88749316Y-96270758D01*
X88891352Y-96224608D01*
X88891355Y-96224607D01*
X88898051Y-96222431D01*
X88951319Y-96190677D01*
X89032386Y-96142352D01*
X89032388Y-96142351D01*
X89038438Y-96138744D01*
X89156795Y-96026034D01*
X89247240Y-95889903D01*
X89291522Y-95773330D01*
X89302778Y-95743700D01*
X89302779Y-95743695D01*
X89305278Y-95737117D01*
X89308560Y-95713765D01*
X89327473Y-95579193D01*
X89327473Y-95579188D01*
X89328024Y-95575270D01*
X89328310Y-95554800D01*
X89713696Y-95554800D01*
X89714386Y-95561365D01*
X89731109Y-95720472D01*
X89733658Y-95744728D01*
X89792673Y-95926356D01*
X89795976Y-95932078D01*
X89795977Y-95932079D01*
X89808752Y-95954206D01*
X89888160Y-96091744D01*
X89892578Y-96096651D01*
X89892579Y-96096652D01*
X89979641Y-96193344D01*
X90015947Y-96233666D01*
X90100289Y-96294944D01*
X90146984Y-96328870D01*
X90170448Y-96345918D01*
X90176476Y-96348602D01*
X90176478Y-96348603D01*
X90303436Y-96405128D01*
X90344912Y-96423594D01*
X90438312Y-96443447D01*
X90525256Y-96461928D01*
X90525261Y-96461928D01*
X90531713Y-96463300D01*
X90722687Y-96463300D01*
X90729139Y-96461928D01*
X90729144Y-96461928D01*
X90816088Y-96443447D01*
X90909488Y-96423594D01*
X90950964Y-96405128D01*
X91077922Y-96348603D01*
X91077924Y-96348602D01*
X91083952Y-96345918D01*
X91107417Y-96328870D01*
X91154111Y-96294944D01*
X91238453Y-96233666D01*
X91274759Y-96193344D01*
X91361821Y-96096652D01*
X91361822Y-96096651D01*
X91366240Y-96091744D01*
X91445648Y-95954206D01*
X91458423Y-95932079D01*
X91458424Y-95932078D01*
X91461727Y-95926356D01*
X91520742Y-95744728D01*
X91523292Y-95720472D01*
X91530026Y-95656400D01*
X95442396Y-95656400D01*
X95443086Y-95662965D01*
X95451680Y-95744728D01*
X95462358Y-95846328D01*
X95521373Y-96027956D01*
X95616860Y-96193344D01*
X95621278Y-96198251D01*
X95621279Y-96198252D01*
X95703192Y-96289226D01*
X95744647Y-96335266D01*
X95824335Y-96393163D01*
X95866220Y-96423594D01*
X95899148Y-96447518D01*
X95905176Y-96450202D01*
X95905178Y-96450203D01*
X95969341Y-96478770D01*
X96023437Y-96524750D01*
X96044086Y-96592678D01*
X96027211Y-96656877D01*
X95948387Y-96793404D01*
X95939473Y-96808844D01*
X95880458Y-96990472D01*
X95879768Y-96997033D01*
X95879768Y-96997035D01*
X95870047Y-97089531D01*
X95860496Y-97180400D01*
X95861186Y-97186965D01*
X95878793Y-97354482D01*
X95880458Y-97370328D01*
X95939473Y-97551956D01*
X95942776Y-97557678D01*
X95942777Y-97557679D01*
X95966304Y-97598429D01*
X96034960Y-97717344D01*
X96039378Y-97722251D01*
X96039379Y-97722252D01*
X96054435Y-97738973D01*
X96162747Y-97859266D01*
X96317248Y-97971518D01*
X96323276Y-97974202D01*
X96323278Y-97974203D01*
X96465707Y-98037616D01*
X96491712Y-98049194D01*
X96585113Y-98069047D01*
X96672056Y-98087528D01*
X96672061Y-98087528D01*
X96678513Y-98088900D01*
X96869487Y-98088900D01*
X96875939Y-98087528D01*
X96875944Y-98087528D01*
X96962887Y-98069047D01*
X97056288Y-98049194D01*
X97082293Y-98037616D01*
X97224722Y-97974203D01*
X97224724Y-97974202D01*
X97230752Y-97971518D01*
X97385253Y-97859266D01*
X97493565Y-97738973D01*
X97508621Y-97722252D01*
X97508622Y-97722251D01*
X97513040Y-97717344D01*
X97581696Y-97598429D01*
X97605223Y-97557679D01*
X97605224Y-97557678D01*
X97608527Y-97551956D01*
X97667542Y-97370328D01*
X97669208Y-97354482D01*
X97686814Y-97186965D01*
X97687504Y-97180400D01*
X97677953Y-97089531D01*
X97668232Y-96997035D01*
X97668232Y-96997033D01*
X97667542Y-96990472D01*
X97608527Y-96808844D01*
X97513040Y-96643456D01*
X97498038Y-96626794D01*
X97389675Y-96506445D01*
X97389674Y-96506444D01*
X97385253Y-96501534D01*
X97230752Y-96389282D01*
X97224724Y-96386598D01*
X97224722Y-96386597D01*
X97160559Y-96358030D01*
X97106463Y-96312050D01*
X97085814Y-96244122D01*
X97102689Y-96179923D01*
X97187123Y-96033679D01*
X97187124Y-96033678D01*
X97190427Y-96027956D01*
X97249442Y-95846328D01*
X97258726Y-95758000D01*
X105410896Y-95758000D01*
X105411586Y-95764565D01*
X105426179Y-95903406D01*
X105430858Y-95947928D01*
X105489873Y-96129556D01*
X105585360Y-96294944D01*
X105589778Y-96299851D01*
X105589779Y-96299852D01*
X105670302Y-96389282D01*
X105713147Y-96436866D01*
X105731504Y-96450203D01*
X105839156Y-96528417D01*
X105867648Y-96549118D01*
X105873676Y-96551802D01*
X105873678Y-96551803D01*
X106017194Y-96615700D01*
X106042112Y-96626794D01*
X106135512Y-96646647D01*
X106222456Y-96665128D01*
X106222461Y-96665128D01*
X106228913Y-96666500D01*
X106419887Y-96666500D01*
X106426339Y-96665128D01*
X106426344Y-96665128D01*
X106513287Y-96646647D01*
X106606688Y-96626794D01*
X106631606Y-96615700D01*
X106775122Y-96551803D01*
X106775124Y-96551802D01*
X106781152Y-96549118D01*
X106809645Y-96528417D01*
X106917296Y-96450203D01*
X106935653Y-96436866D01*
X106978498Y-96389282D01*
X107059021Y-96299852D01*
X107059022Y-96299851D01*
X107063440Y-96294944D01*
X107158927Y-96129556D01*
X107217942Y-95947928D01*
X107221887Y-95910400D01*
X109932096Y-95910400D01*
X109932786Y-95916965D01*
X109943969Y-96023361D01*
X109952058Y-96100328D01*
X110011073Y-96281956D01*
X110014376Y-96287678D01*
X110014377Y-96287679D01*
X110021204Y-96299504D01*
X110106560Y-96447344D01*
X110110978Y-96452251D01*
X110110979Y-96452252D01*
X110200615Y-96551803D01*
X110234347Y-96589266D01*
X110268842Y-96614328D01*
X110368968Y-96687074D01*
X110388848Y-96701518D01*
X110394876Y-96704202D01*
X110394878Y-96704203D01*
X110502556Y-96752144D01*
X110563312Y-96779194D01*
X110653998Y-96798470D01*
X110743656Y-96817528D01*
X110743661Y-96817528D01*
X110750113Y-96818900D01*
X110941087Y-96818900D01*
X110947539Y-96817528D01*
X110947544Y-96817528D01*
X111037202Y-96798470D01*
X111127888Y-96779194D01*
X111188644Y-96752144D01*
X111296322Y-96704203D01*
X111296324Y-96704202D01*
X111302352Y-96701518D01*
X111322233Y-96687074D01*
X111422358Y-96614328D01*
X111456853Y-96589266D01*
X111490585Y-96551803D01*
X111580221Y-96452252D01*
X111580222Y-96452251D01*
X111584640Y-96447344D01*
X111649003Y-96335864D01*
X117203495Y-96335864D01*
X117219444Y-96498522D01*
X117221668Y-96505207D01*
X117221668Y-96505208D01*
X117232342Y-96537296D01*
X117271033Y-96653605D01*
X117355699Y-96793404D01*
X117360590Y-96798469D01*
X117360591Y-96798470D01*
X117378808Y-96817334D01*
X117469232Y-96910971D01*
X117475124Y-96914826D01*
X117475128Y-96914830D01*
X117559087Y-96969771D01*
X117605991Y-97000464D01*
X117641666Y-97013731D01*
X117752582Y-97054980D01*
X117752585Y-97054981D01*
X117759179Y-97057433D01*
X117766156Y-97058364D01*
X117914200Y-97078118D01*
X117914204Y-97078118D01*
X117921181Y-97079049D01*
X117928192Y-97078411D01*
X117928196Y-97078411D01*
X118076925Y-97064875D01*
X118083946Y-97064236D01*
X118090648Y-97062058D01*
X118090650Y-97062058D01*
X118232686Y-97015908D01*
X118232689Y-97015907D01*
X118239385Y-97013731D01*
X118245436Y-97010124D01*
X118373720Y-96933652D01*
X118373722Y-96933651D01*
X118379772Y-96930044D01*
X118498129Y-96817334D01*
X118588574Y-96681203D01*
X118613456Y-96615700D01*
X118644112Y-96535000D01*
X118644113Y-96534995D01*
X118646612Y-96528417D01*
X118650465Y-96501003D01*
X118668807Y-96370493D01*
X118668807Y-96370488D01*
X118669358Y-96366570D01*
X118669644Y-96346100D01*
X118660399Y-96263680D01*
X118652211Y-96190677D01*
X118652210Y-96190675D01*
X118651426Y-96183681D01*
X118597676Y-96029334D01*
X118511068Y-95890730D01*
X118503706Y-95883316D01*
X118400867Y-95779757D01*
X118400863Y-95779754D01*
X118395904Y-95774760D01*
X118380070Y-95764711D01*
X118300467Y-95714194D01*
X118289446Y-95707200D01*
X121870096Y-95707200D01*
X121870786Y-95713765D01*
X121889299Y-95889903D01*
X121890058Y-95897128D01*
X121949073Y-96078756D01*
X121952376Y-96084478D01*
X121952377Y-96084479D01*
X121965152Y-96106606D01*
X122044560Y-96244144D01*
X122048978Y-96249051D01*
X122048979Y-96249052D01*
X122136361Y-96346100D01*
X122172347Y-96386066D01*
X122251586Y-96443637D01*
X122318919Y-96492557D01*
X122326848Y-96498318D01*
X122332876Y-96501002D01*
X122332878Y-96501003D01*
X122495279Y-96573308D01*
X122501312Y-96575994D01*
X122594713Y-96595847D01*
X122681656Y-96614328D01*
X122681661Y-96614328D01*
X122688113Y-96615700D01*
X122879087Y-96615700D01*
X122885539Y-96614328D01*
X122885544Y-96614328D01*
X122972487Y-96595847D01*
X123065888Y-96575994D01*
X123071915Y-96573311D01*
X123071923Y-96573308D01*
X123232104Y-96501991D01*
X123302471Y-96492557D01*
X123334600Y-96501991D01*
X123344605Y-96506445D01*
X123408741Y-96535000D01*
X123500815Y-96575994D01*
X123594216Y-96595847D01*
X123681159Y-96614328D01*
X123681164Y-96614328D01*
X123687616Y-96615700D01*
X123878590Y-96615700D01*
X123885042Y-96614328D01*
X123885047Y-96614328D01*
X123971990Y-96595847D01*
X124065391Y-96575994D01*
X124071424Y-96573308D01*
X124233825Y-96501003D01*
X124233827Y-96501002D01*
X124239855Y-96498318D01*
X124247785Y-96492557D01*
X124315117Y-96443637D01*
X124394356Y-96386066D01*
X124430342Y-96346100D01*
X124517724Y-96249052D01*
X124517725Y-96249051D01*
X124522143Y-96244144D01*
X124601551Y-96106606D01*
X124614326Y-96084479D01*
X124614327Y-96084478D01*
X124617630Y-96078756D01*
X124676645Y-95897128D01*
X124677405Y-95889903D01*
X124695917Y-95713765D01*
X124696607Y-95707200D01*
X124694166Y-95683974D01*
X124677335Y-95523835D01*
X124677335Y-95523833D01*
X124676645Y-95517272D01*
X124617630Y-95335644D01*
X124612084Y-95326037D01*
X124554774Y-95226774D01*
X124522143Y-95170256D01*
X124471984Y-95114548D01*
X124398778Y-95033245D01*
X124398777Y-95033244D01*
X124394356Y-95028334D01*
X124264740Y-94934162D01*
X124245197Y-94919963D01*
X124245196Y-94919962D01*
X124239855Y-94916082D01*
X124233827Y-94913398D01*
X124233825Y-94913397D01*
X124071422Y-94841091D01*
X124071421Y-94841091D01*
X124065391Y-94838406D01*
X123946647Y-94813166D01*
X123885047Y-94800072D01*
X123885042Y-94800072D01*
X123878590Y-94798700D01*
X123687616Y-94798700D01*
X123681164Y-94800072D01*
X123681159Y-94800072D01*
X123619559Y-94813166D01*
X123500815Y-94838406D01*
X123494785Y-94841091D01*
X123494784Y-94841091D01*
X123471405Y-94851500D01*
X123371715Y-94895885D01*
X123334601Y-94912409D01*
X123264234Y-94921843D01*
X123232104Y-94912409D01*
X123071923Y-94841092D01*
X123071915Y-94841089D01*
X123065888Y-94838406D01*
X122947144Y-94813166D01*
X122885544Y-94800072D01*
X122885539Y-94800072D01*
X122879087Y-94798700D01*
X122688113Y-94798700D01*
X122681661Y-94800072D01*
X122681656Y-94800072D01*
X122620056Y-94813166D01*
X122501312Y-94838406D01*
X122495282Y-94841091D01*
X122495281Y-94841091D01*
X122332878Y-94913397D01*
X122332876Y-94913398D01*
X122326848Y-94916082D01*
X122321507Y-94919962D01*
X122321506Y-94919963D01*
X122301963Y-94934162D01*
X122172347Y-95028334D01*
X122167926Y-95033244D01*
X122167925Y-95033245D01*
X122094720Y-95114548D01*
X122044560Y-95170256D01*
X122011929Y-95226774D01*
X121954620Y-95326037D01*
X121949073Y-95335644D01*
X121890058Y-95517272D01*
X121889368Y-95523833D01*
X121889368Y-95523835D01*
X121872537Y-95683974D01*
X121870096Y-95707200D01*
X118289446Y-95707200D01*
X118257908Y-95687185D01*
X118189890Y-95662965D01*
X118110575Y-95634722D01*
X118110570Y-95634721D01*
X118103940Y-95632360D01*
X118096952Y-95631527D01*
X118096949Y-95631526D01*
X117986010Y-95618297D01*
X117941652Y-95613008D01*
X117934649Y-95613744D01*
X117934648Y-95613744D01*
X117786109Y-95629356D01*
X117786107Y-95629357D01*
X117779109Y-95630092D01*
X117721114Y-95649835D01*
X117631061Y-95680491D01*
X117631058Y-95680492D01*
X117624391Y-95682762D01*
X117485186Y-95768401D01*
X117368414Y-95882753D01*
X117279879Y-96020134D01*
X117277470Y-96026754D01*
X117277469Y-96026755D01*
X117260830Y-96072471D01*
X117223980Y-96173715D01*
X117203495Y-96335864D01*
X111649003Y-96335864D01*
X111669996Y-96299504D01*
X111676823Y-96287679D01*
X111676824Y-96287678D01*
X111680127Y-96281956D01*
X111739142Y-96100328D01*
X111747232Y-96023361D01*
X111758414Y-95916965D01*
X111759104Y-95910400D01*
X111744451Y-95770985D01*
X111739832Y-95727035D01*
X111739832Y-95727033D01*
X111739142Y-95720472D01*
X111680127Y-95538844D01*
X111667673Y-95517272D01*
X111605142Y-95408966D01*
X111584640Y-95373456D01*
X111504854Y-95284844D01*
X111461275Y-95236445D01*
X111461274Y-95236444D01*
X111456853Y-95231534D01*
X111302352Y-95119282D01*
X111296324Y-95116598D01*
X111296322Y-95116597D01*
X111253654Y-95097600D01*
X114605696Y-95097600D01*
X114606386Y-95104165D01*
X114619273Y-95226774D01*
X114625658Y-95287528D01*
X114684673Y-95469156D01*
X114780160Y-95634544D01*
X114784578Y-95639451D01*
X114784579Y-95639452D01*
X114851877Y-95714194D01*
X114907947Y-95776466D01*
X115062448Y-95888718D01*
X115068476Y-95891402D01*
X115068478Y-95891403D01*
X115195436Y-95947928D01*
X115236912Y-95966394D01*
X115330312Y-95986247D01*
X115417256Y-96004728D01*
X115417261Y-96004728D01*
X115423713Y-96006100D01*
X115614687Y-96006100D01*
X115621139Y-96004728D01*
X115621144Y-96004728D01*
X115708088Y-95986247D01*
X115801488Y-95966394D01*
X115842964Y-95947928D01*
X115969922Y-95891403D01*
X115969924Y-95891402D01*
X115975952Y-95888718D01*
X116130453Y-95776466D01*
X116186523Y-95714194D01*
X116253821Y-95639452D01*
X116253822Y-95639451D01*
X116258240Y-95634544D01*
X116353727Y-95469156D01*
X116412742Y-95287528D01*
X116419128Y-95226774D01*
X116432014Y-95104165D01*
X116432704Y-95097600D01*
X116426819Y-95041606D01*
X116413432Y-94914235D01*
X116413432Y-94914233D01*
X116412742Y-94907672D01*
X116353727Y-94726044D01*
X116348181Y-94716437D01*
X116307687Y-94646300D01*
X116258240Y-94560656D01*
X116238561Y-94538800D01*
X127407296Y-94538800D01*
X127407986Y-94545365D01*
X127422624Y-94684634D01*
X127427258Y-94728728D01*
X127486273Y-94910356D01*
X127489576Y-94916078D01*
X127489577Y-94916079D01*
X127492905Y-94921843D01*
X127581760Y-95075744D01*
X127586178Y-95080651D01*
X127586179Y-95080652D01*
X127601235Y-95097373D01*
X127709547Y-95217666D01*
X127864048Y-95329918D01*
X127870076Y-95332602D01*
X127870078Y-95332603D01*
X128020056Y-95399377D01*
X128038512Y-95407594D01*
X128103450Y-95421397D01*
X128218856Y-95445928D01*
X128218861Y-95445928D01*
X128225313Y-95447300D01*
X128416287Y-95447300D01*
X128422739Y-95445928D01*
X128422744Y-95445928D01*
X128538150Y-95421397D01*
X128603088Y-95407594D01*
X128621544Y-95399377D01*
X128771522Y-95332603D01*
X128771524Y-95332602D01*
X128777552Y-95329918D01*
X128932053Y-95217666D01*
X129040365Y-95097373D01*
X129055421Y-95080652D01*
X129055422Y-95080651D01*
X129059840Y-95075744D01*
X129148695Y-94921843D01*
X129152023Y-94916079D01*
X129152024Y-94916078D01*
X129155327Y-94910356D01*
X129214342Y-94728728D01*
X129218977Y-94684634D01*
X129233614Y-94545365D01*
X129234304Y-94538800D01*
X129227517Y-94474226D01*
X129215032Y-94355435D01*
X129215032Y-94355433D01*
X129214342Y-94348872D01*
X129155327Y-94167244D01*
X129131726Y-94126365D01*
X129063141Y-94007574D01*
X129059840Y-94001856D01*
X129006846Y-93943000D01*
X131383496Y-93943000D01*
X131384186Y-93949565D01*
X131402008Y-94119128D01*
X131403458Y-94132928D01*
X131462473Y-94314556D01*
X131465776Y-94320278D01*
X131465777Y-94320279D01*
X131499686Y-94379010D01*
X131557960Y-94479944D01*
X131562378Y-94484851D01*
X131562379Y-94484852D01*
X131673321Y-94608066D01*
X131685747Y-94621866D01*
X131721266Y-94647672D01*
X131824950Y-94723003D01*
X131840248Y-94734118D01*
X131846276Y-94736802D01*
X131846278Y-94736803D01*
X132008681Y-94809109D01*
X132014712Y-94811794D01*
X132108113Y-94831647D01*
X132195056Y-94850128D01*
X132195061Y-94850128D01*
X132201513Y-94851500D01*
X132392487Y-94851500D01*
X132398939Y-94850128D01*
X132398944Y-94850128D01*
X132485888Y-94831647D01*
X132579288Y-94811794D01*
X132585319Y-94809109D01*
X132747722Y-94736803D01*
X132747724Y-94736802D01*
X132753752Y-94734118D01*
X132769051Y-94723003D01*
X132872734Y-94647672D01*
X132908253Y-94621866D01*
X132920679Y-94608066D01*
X133031621Y-94484852D01*
X133031622Y-94484851D01*
X133036040Y-94479944D01*
X133094314Y-94379010D01*
X133128223Y-94320279D01*
X133128224Y-94320278D01*
X133131527Y-94314556D01*
X133190542Y-94132928D01*
X133191993Y-94119128D01*
X133209814Y-93949565D01*
X133210504Y-93943000D01*
X133190542Y-93753072D01*
X133131527Y-93571444D01*
X133120256Y-93551921D01*
X133039341Y-93411774D01*
X133036040Y-93406056D01*
X133023615Y-93392256D01*
X132912675Y-93269045D01*
X132912674Y-93269044D01*
X132908253Y-93264134D01*
X132753752Y-93151882D01*
X132747724Y-93149198D01*
X132747722Y-93149197D01*
X132585319Y-93076891D01*
X132585318Y-93076891D01*
X132579288Y-93074206D01*
X132485888Y-93054353D01*
X132398944Y-93035872D01*
X132398939Y-93035872D01*
X132392487Y-93034500D01*
X132201513Y-93034500D01*
X132195061Y-93035872D01*
X132195056Y-93035872D01*
X132108112Y-93054353D01*
X132014712Y-93074206D01*
X132008679Y-93076892D01*
X132008673Y-93076894D01*
X131982786Y-93088419D01*
X131969856Y-93090152D01*
X131967982Y-93092494D01*
X131947025Y-93104342D01*
X131846281Y-93149195D01*
X131846274Y-93149199D01*
X131840248Y-93151882D01*
X131685747Y-93264134D01*
X131681326Y-93269044D01*
X131681325Y-93269045D01*
X131570386Y-93392256D01*
X131557960Y-93406056D01*
X131554659Y-93411774D01*
X131473745Y-93551921D01*
X131462473Y-93571444D01*
X131403458Y-93753072D01*
X131383496Y-93943000D01*
X129006846Y-93943000D01*
X129000332Y-93935765D01*
X128936475Y-93864845D01*
X128936474Y-93864844D01*
X128932053Y-93859934D01*
X128777552Y-93747682D01*
X128771524Y-93744998D01*
X128771522Y-93744997D01*
X128609119Y-93672691D01*
X128609118Y-93672691D01*
X128603088Y-93670006D01*
X128509687Y-93650153D01*
X128422744Y-93631672D01*
X128422739Y-93631672D01*
X128416287Y-93630300D01*
X128225313Y-93630300D01*
X128218861Y-93631672D01*
X128218856Y-93631672D01*
X128131912Y-93650153D01*
X128038512Y-93670006D01*
X128032482Y-93672691D01*
X128032481Y-93672691D01*
X127870078Y-93744997D01*
X127870076Y-93744998D01*
X127864048Y-93747682D01*
X127709547Y-93859934D01*
X127705126Y-93864844D01*
X127705125Y-93864845D01*
X127641269Y-93935765D01*
X127581760Y-94001856D01*
X127578459Y-94007574D01*
X127509875Y-94126365D01*
X127486273Y-94167244D01*
X127427258Y-94348872D01*
X127426568Y-94355433D01*
X127426568Y-94355435D01*
X127414083Y-94474226D01*
X127407296Y-94538800D01*
X116238561Y-94538800D01*
X116130453Y-94418734D01*
X115975952Y-94306482D01*
X115969924Y-94303798D01*
X115969922Y-94303797D01*
X115807519Y-94231491D01*
X115807518Y-94231491D01*
X115801488Y-94228806D01*
X115708087Y-94208953D01*
X115621144Y-94190472D01*
X115621139Y-94190472D01*
X115614687Y-94189100D01*
X115423713Y-94189100D01*
X115417261Y-94190472D01*
X115417256Y-94190472D01*
X115330313Y-94208953D01*
X115236912Y-94228806D01*
X115230882Y-94231491D01*
X115230881Y-94231491D01*
X115068478Y-94303797D01*
X115068476Y-94303798D01*
X115062448Y-94306482D01*
X114907947Y-94418734D01*
X114780160Y-94560656D01*
X114730713Y-94646300D01*
X114690220Y-94716437D01*
X114684673Y-94726044D01*
X114625658Y-94907672D01*
X114624968Y-94914233D01*
X114624968Y-94914235D01*
X114611581Y-95041606D01*
X114605696Y-95097600D01*
X111253654Y-95097600D01*
X111133919Y-95044291D01*
X111133918Y-95044291D01*
X111127888Y-95041606D01*
X111121432Y-95040234D01*
X111119583Y-95039633D01*
X111060978Y-94999559D01*
X111033341Y-94934162D01*
X111045448Y-94864205D01*
X111093455Y-94811900D01*
X111119583Y-94799967D01*
X111121432Y-94799366D01*
X111127888Y-94797994D01*
X111133919Y-94795309D01*
X111296322Y-94723003D01*
X111296324Y-94723002D01*
X111302352Y-94720318D01*
X111456853Y-94608066D01*
X111519220Y-94538800D01*
X111580221Y-94471052D01*
X111580222Y-94471051D01*
X111584640Y-94466144D01*
X111655972Y-94342594D01*
X111676823Y-94306479D01*
X111676824Y-94306478D01*
X111680127Y-94300756D01*
X111739142Y-94119128D01*
X111751984Y-93996948D01*
X111758414Y-93935765D01*
X111759104Y-93929200D01*
X111741282Y-93759635D01*
X111739832Y-93745835D01*
X111739832Y-93745833D01*
X111739142Y-93739272D01*
X111680127Y-93557644D01*
X111584640Y-93392256D01*
X111473701Y-93269045D01*
X111461275Y-93255245D01*
X111461274Y-93255244D01*
X111456853Y-93250334D01*
X111321346Y-93151882D01*
X111307694Y-93141963D01*
X111307693Y-93141962D01*
X111302352Y-93138082D01*
X111296324Y-93135398D01*
X111296322Y-93135397D01*
X111133919Y-93063091D01*
X111133918Y-93063091D01*
X111127888Y-93060406D01*
X111034488Y-93040553D01*
X110947544Y-93022072D01*
X110947539Y-93022072D01*
X110941087Y-93020700D01*
X110750113Y-93020700D01*
X110743661Y-93022072D01*
X110743656Y-93022072D01*
X110656712Y-93040553D01*
X110563312Y-93060406D01*
X110557282Y-93063091D01*
X110557281Y-93063091D01*
X110394878Y-93135397D01*
X110394876Y-93135398D01*
X110388848Y-93138082D01*
X110383507Y-93141962D01*
X110383506Y-93141963D01*
X110369854Y-93151882D01*
X110234347Y-93250334D01*
X110229926Y-93255244D01*
X110229925Y-93255245D01*
X110217500Y-93269045D01*
X110106560Y-93392256D01*
X110011073Y-93557644D01*
X109952058Y-93739272D01*
X109951368Y-93745833D01*
X109951368Y-93745835D01*
X109949918Y-93759635D01*
X109932096Y-93929200D01*
X109932786Y-93935765D01*
X109939217Y-93996948D01*
X109952058Y-94119128D01*
X110011073Y-94300756D01*
X110014376Y-94306478D01*
X110014377Y-94306479D01*
X110035228Y-94342594D01*
X110106560Y-94466144D01*
X110110978Y-94471051D01*
X110110979Y-94471052D01*
X110171980Y-94538800D01*
X110234347Y-94608066D01*
X110388848Y-94720318D01*
X110394876Y-94723002D01*
X110394878Y-94723003D01*
X110557281Y-94795309D01*
X110563312Y-94797994D01*
X110569768Y-94799366D01*
X110571617Y-94799967D01*
X110630222Y-94840041D01*
X110657859Y-94905438D01*
X110645752Y-94975395D01*
X110597745Y-95027700D01*
X110571617Y-95039633D01*
X110569768Y-95040234D01*
X110563312Y-95041606D01*
X110557282Y-95044291D01*
X110557281Y-95044291D01*
X110394878Y-95116597D01*
X110394876Y-95116598D01*
X110388848Y-95119282D01*
X110234347Y-95231534D01*
X110229926Y-95236444D01*
X110229925Y-95236445D01*
X110186347Y-95284844D01*
X110106560Y-95373456D01*
X110086058Y-95408966D01*
X110023528Y-95517272D01*
X110011073Y-95538844D01*
X109952058Y-95720472D01*
X109951368Y-95727033D01*
X109951368Y-95727035D01*
X109946749Y-95770985D01*
X109932096Y-95910400D01*
X107221887Y-95910400D01*
X107222622Y-95903406D01*
X107237214Y-95764565D01*
X107237904Y-95758000D01*
X107234976Y-95730145D01*
X107218632Y-95574635D01*
X107218632Y-95574633D01*
X107217942Y-95568072D01*
X107158927Y-95386444D01*
X107151429Y-95373456D01*
X107100268Y-95284844D01*
X107063440Y-95221056D01*
X107013281Y-95165348D01*
X106940075Y-95084045D01*
X106940074Y-95084044D01*
X106935653Y-95079134D01*
X106802573Y-94982445D01*
X106786494Y-94970763D01*
X106786493Y-94970762D01*
X106781152Y-94966882D01*
X106775124Y-94964198D01*
X106775122Y-94964197D01*
X106612719Y-94891891D01*
X106612718Y-94891891D01*
X106606688Y-94889206D01*
X106512394Y-94869163D01*
X106426344Y-94850872D01*
X106426339Y-94850872D01*
X106419887Y-94849500D01*
X106228913Y-94849500D01*
X106222461Y-94850872D01*
X106222456Y-94850872D01*
X106136406Y-94869163D01*
X106042112Y-94889206D01*
X106036082Y-94891891D01*
X106036081Y-94891891D01*
X105873678Y-94964197D01*
X105873676Y-94964198D01*
X105867648Y-94966882D01*
X105862307Y-94970762D01*
X105862306Y-94970763D01*
X105846227Y-94982445D01*
X105713147Y-95079134D01*
X105708726Y-95084044D01*
X105708725Y-95084045D01*
X105635520Y-95165348D01*
X105585360Y-95221056D01*
X105548532Y-95284844D01*
X105497372Y-95373456D01*
X105489873Y-95386444D01*
X105430858Y-95568072D01*
X105430168Y-95574633D01*
X105430168Y-95574635D01*
X105413824Y-95730145D01*
X105410896Y-95758000D01*
X97258726Y-95758000D01*
X97260121Y-95744728D01*
X97268714Y-95662965D01*
X97269404Y-95656400D01*
X97260461Y-95571309D01*
X97250132Y-95473035D01*
X97250132Y-95473033D01*
X97249442Y-95466472D01*
X97190427Y-95284844D01*
X97094940Y-95119456D01*
X97075057Y-95097373D01*
X96971575Y-94982445D01*
X96971574Y-94982444D01*
X96967153Y-94977534D01*
X96848686Y-94891462D01*
X96817994Y-94869163D01*
X96817993Y-94869162D01*
X96812652Y-94865282D01*
X96806624Y-94862598D01*
X96806622Y-94862597D01*
X96644219Y-94790291D01*
X96644218Y-94790291D01*
X96638188Y-94787606D01*
X96543894Y-94767563D01*
X96457844Y-94749272D01*
X96457839Y-94749272D01*
X96451387Y-94747900D01*
X96260413Y-94747900D01*
X96253961Y-94749272D01*
X96253956Y-94749272D01*
X96167906Y-94767563D01*
X96073612Y-94787606D01*
X96067582Y-94790291D01*
X96067581Y-94790291D01*
X95905178Y-94862597D01*
X95905176Y-94862598D01*
X95899148Y-94865282D01*
X95893807Y-94869162D01*
X95893806Y-94869163D01*
X95863114Y-94891462D01*
X95744647Y-94977534D01*
X95740226Y-94982444D01*
X95740225Y-94982445D01*
X95636744Y-95097373D01*
X95616860Y-95119456D01*
X95521373Y-95284844D01*
X95462358Y-95466472D01*
X95461668Y-95473033D01*
X95461668Y-95473035D01*
X95451339Y-95571309D01*
X95442396Y-95656400D01*
X91530026Y-95656400D01*
X91540014Y-95561365D01*
X91540704Y-95554800D01*
X91538355Y-95532451D01*
X91521432Y-95371435D01*
X91521432Y-95371433D01*
X91520742Y-95364872D01*
X91461727Y-95183244D01*
X91454229Y-95170256D01*
X91408490Y-95091035D01*
X91366240Y-95017856D01*
X91274603Y-94916082D01*
X91242875Y-94880845D01*
X91242874Y-94880844D01*
X91238453Y-94875934D01*
X91120576Y-94790291D01*
X91089294Y-94767563D01*
X91089293Y-94767562D01*
X91083952Y-94763682D01*
X91077924Y-94760998D01*
X91077922Y-94760997D01*
X90915519Y-94688691D01*
X90915518Y-94688691D01*
X90909488Y-94686006D01*
X90816087Y-94666153D01*
X90729144Y-94647672D01*
X90729139Y-94647672D01*
X90722687Y-94646300D01*
X90531713Y-94646300D01*
X90525261Y-94647672D01*
X90525256Y-94647672D01*
X90438313Y-94666153D01*
X90344912Y-94686006D01*
X90338882Y-94688691D01*
X90338881Y-94688691D01*
X90176478Y-94760997D01*
X90176476Y-94760998D01*
X90170448Y-94763682D01*
X90165107Y-94767562D01*
X90165106Y-94767563D01*
X90133824Y-94790291D01*
X90015947Y-94875934D01*
X90011526Y-94880844D01*
X90011525Y-94880845D01*
X89979798Y-94916082D01*
X89888160Y-95017856D01*
X89845910Y-95091035D01*
X89800172Y-95170256D01*
X89792673Y-95183244D01*
X89733658Y-95364872D01*
X89732968Y-95371433D01*
X89732968Y-95371435D01*
X89716045Y-95532451D01*
X89713696Y-95554800D01*
X89328310Y-95554800D01*
X89313347Y-95421397D01*
X89310877Y-95399377D01*
X89310876Y-95399375D01*
X89310092Y-95392381D01*
X89256342Y-95238034D01*
X89198974Y-95146224D01*
X89173466Y-95105402D01*
X89173464Y-95105400D01*
X89169734Y-95099430D01*
X89164772Y-95094433D01*
X89059533Y-94988457D01*
X89059529Y-94988454D01*
X89054570Y-94983460D01*
X89045233Y-94977534D01*
X88957477Y-94921843D01*
X88916574Y-94895885D01*
X88892035Y-94887147D01*
X88769241Y-94843422D01*
X88769236Y-94843421D01*
X88762606Y-94841060D01*
X88755618Y-94840227D01*
X88755615Y-94840226D01*
X88644676Y-94826997D01*
X88600318Y-94821708D01*
X88593315Y-94822444D01*
X88593314Y-94822444D01*
X88444775Y-94838056D01*
X88444773Y-94838057D01*
X88437775Y-94838792D01*
X88367848Y-94862597D01*
X88289727Y-94889191D01*
X88289724Y-94889192D01*
X88283057Y-94891462D01*
X88277058Y-94895152D01*
X88277057Y-94895153D01*
X88262561Y-94904071D01*
X88143852Y-94977101D01*
X88102235Y-95017856D01*
X88034645Y-95084045D01*
X88027080Y-95091453D01*
X87938545Y-95228834D01*
X87936136Y-95235454D01*
X87936135Y-95235455D01*
X87920242Y-95279121D01*
X87882646Y-95382415D01*
X87862161Y-95544564D01*
X86360000Y-95544564D01*
X86360000Y-91579133D01*
X86752612Y-91579133D01*
X86761325Y-91590653D01*
X86859018Y-91662284D01*
X86866928Y-91667227D01*
X87089890Y-91784533D01*
X87098453Y-91788256D01*
X87336304Y-91871318D01*
X87345313Y-91873732D01*
X87592842Y-91920727D01*
X87602098Y-91921781D01*
X87853857Y-91931673D01*
X87863171Y-91931347D01*
X88113615Y-91903920D01*
X88122792Y-91902219D01*
X88366431Y-91838074D01*
X88375251Y-91835037D01*
X88606736Y-91735583D01*
X88615008Y-91731276D01*
X88829249Y-91598700D01*
X88836188Y-91593658D01*
X88844518Y-91581019D01*
X88843414Y-91579133D01*
X91832612Y-91579133D01*
X91841325Y-91590653D01*
X91939018Y-91662284D01*
X91946928Y-91667227D01*
X92169890Y-91784533D01*
X92178453Y-91788256D01*
X92416304Y-91871318D01*
X92425313Y-91873732D01*
X92672842Y-91920727D01*
X92682098Y-91921781D01*
X92933857Y-91931673D01*
X92943171Y-91931347D01*
X93193615Y-91903920D01*
X93202792Y-91902219D01*
X93446431Y-91838074D01*
X93455251Y-91835037D01*
X93686736Y-91735583D01*
X93695008Y-91731276D01*
X93909249Y-91598700D01*
X93916188Y-91593658D01*
X93924518Y-91581019D01*
X93918456Y-91570666D01*
X92889812Y-90542022D01*
X92875868Y-90534408D01*
X92874035Y-90534539D01*
X92867420Y-90538790D01*
X91839270Y-91566940D01*
X91832612Y-91579133D01*
X88843414Y-91579133D01*
X88838456Y-91570666D01*
X87809812Y-90542022D01*
X87795868Y-90534408D01*
X87794035Y-90534539D01*
X87787420Y-90538790D01*
X86759270Y-91566940D01*
X86752612Y-91579133D01*
X86360000Y-91579133D01*
X86360000Y-91299980D01*
X86380002Y-91231859D01*
X86396905Y-91210885D01*
X87424978Y-90182812D01*
X87431356Y-90171132D01*
X88161408Y-90171132D01*
X88161539Y-90172965D01*
X88165790Y-90179580D01*
X89196913Y-91210703D01*
X89209293Y-91217463D01*
X89217634Y-91211219D01*
X89343765Y-91015127D01*
X89348212Y-91006936D01*
X89451691Y-90777222D01*
X89454882Y-90768455D01*
X89523269Y-90525976D01*
X89525129Y-90516834D01*
X89557116Y-90265396D01*
X89557597Y-90259108D01*
X89559847Y-90173160D01*
X89559696Y-90166851D01*
X89556848Y-90128523D01*
X91114898Y-90128523D01*
X91126987Y-90380175D01*
X91128124Y-90389435D01*
X91177274Y-90636535D01*
X91179768Y-90645528D01*
X91264900Y-90882639D01*
X91268700Y-90891174D01*
X91387946Y-91113101D01*
X91392957Y-91120968D01*
X91456446Y-91205990D01*
X91467704Y-91214439D01*
X91480123Y-91207667D01*
X92504978Y-90182812D01*
X92511356Y-90171132D01*
X93241408Y-90171132D01*
X93241539Y-90172965D01*
X93245790Y-90179580D01*
X94276913Y-91210703D01*
X94289293Y-91217463D01*
X94297634Y-91211219D01*
X94353115Y-91124964D01*
X110925361Y-91124964D01*
X110941310Y-91287622D01*
X110943534Y-91294307D01*
X110943534Y-91294308D01*
X110954221Y-91326434D01*
X110992899Y-91442705D01*
X111015306Y-91479704D01*
X111070396Y-91570666D01*
X111077565Y-91582504D01*
X111082456Y-91587569D01*
X111082457Y-91587570D01*
X111103692Y-91609559D01*
X111191098Y-91700071D01*
X111196990Y-91703926D01*
X111196994Y-91703930D01*
X111279100Y-91757658D01*
X111327857Y-91789564D01*
X111362125Y-91802308D01*
X111474448Y-91844080D01*
X111474451Y-91844081D01*
X111481045Y-91846533D01*
X111488022Y-91847464D01*
X111636066Y-91867218D01*
X111636070Y-91867218D01*
X111643047Y-91868149D01*
X111650058Y-91867511D01*
X111650062Y-91867511D01*
X111798791Y-91853975D01*
X111805812Y-91853336D01*
X111812514Y-91851158D01*
X111812516Y-91851158D01*
X111954552Y-91805008D01*
X111954555Y-91805007D01*
X111961251Y-91802831D01*
X111967302Y-91799224D01*
X112095586Y-91722752D01*
X112095588Y-91722751D01*
X112101638Y-91719144D01*
X112192136Y-91632964D01*
X118088161Y-91632964D01*
X118104110Y-91795622D01*
X118106334Y-91802307D01*
X118106334Y-91802308D01*
X118118232Y-91838074D01*
X118155699Y-91950705D01*
X118240365Y-92090504D01*
X118245256Y-92095569D01*
X118245257Y-92095570D01*
X118246808Y-92097176D01*
X118353898Y-92208071D01*
X118359790Y-92211926D01*
X118359794Y-92211930D01*
X118443753Y-92266871D01*
X118490657Y-92297564D01*
X118526332Y-92310831D01*
X118637248Y-92352080D01*
X118637251Y-92352081D01*
X118643845Y-92354533D01*
X118650822Y-92355464D01*
X118798866Y-92375218D01*
X118798870Y-92375218D01*
X118805847Y-92376149D01*
X118812858Y-92375511D01*
X118812862Y-92375511D01*
X118961591Y-92361975D01*
X118968612Y-92361336D01*
X118975314Y-92359158D01*
X118975316Y-92359158D01*
X119117352Y-92313008D01*
X119117355Y-92313007D01*
X119124051Y-92310831D01*
X119221363Y-92252822D01*
X119258386Y-92230752D01*
X119258388Y-92230751D01*
X119264438Y-92227144D01*
X119382795Y-92114434D01*
X119398920Y-92090164D01*
X124285761Y-92090164D01*
X124301710Y-92252822D01*
X124303934Y-92259507D01*
X124303934Y-92259508D01*
X124315311Y-92293708D01*
X124353299Y-92407905D01*
X124437965Y-92547704D01*
X124551498Y-92665271D01*
X124557390Y-92669126D01*
X124557394Y-92669130D01*
X124616707Y-92707943D01*
X124688257Y-92754764D01*
X124723932Y-92768031D01*
X124834848Y-92809280D01*
X124834851Y-92809281D01*
X124841445Y-92811733D01*
X124848422Y-92812664D01*
X124996466Y-92832418D01*
X124996470Y-92832418D01*
X125003447Y-92833349D01*
X125010458Y-92832711D01*
X125010462Y-92832711D01*
X125159191Y-92819175D01*
X125166212Y-92818536D01*
X125172914Y-92816358D01*
X125172916Y-92816358D01*
X125314952Y-92770208D01*
X125314955Y-92770207D01*
X125321651Y-92768031D01*
X125406745Y-92717305D01*
X125455986Y-92687952D01*
X125455988Y-92687951D01*
X125462038Y-92684344D01*
X125580395Y-92571634D01*
X125670840Y-92435503D01*
X125684270Y-92400147D01*
X125726378Y-92289300D01*
X125726379Y-92289295D01*
X125728878Y-92282717D01*
X125732140Y-92259508D01*
X125751073Y-92124793D01*
X125751073Y-92124788D01*
X125751624Y-92120870D01*
X125751910Y-92100400D01*
X125736911Y-91966677D01*
X125734477Y-91944977D01*
X125734476Y-91944975D01*
X125733692Y-91937981D01*
X125679942Y-91783634D01*
X125607204Y-91667227D01*
X125597066Y-91651002D01*
X125597064Y-91651000D01*
X125593334Y-91645030D01*
X125585523Y-91637164D01*
X125483133Y-91534057D01*
X125483129Y-91534054D01*
X125478170Y-91529060D01*
X125467897Y-91522540D01*
X125413118Y-91487777D01*
X125340174Y-91441485D01*
X125311419Y-91431246D01*
X125192841Y-91389022D01*
X125192836Y-91389021D01*
X125186206Y-91386660D01*
X125179218Y-91385827D01*
X125179215Y-91385826D01*
X125068276Y-91372597D01*
X125023918Y-91367308D01*
X125016915Y-91368044D01*
X125016914Y-91368044D01*
X124868375Y-91383656D01*
X124868373Y-91383657D01*
X124861375Y-91384392D01*
X124780073Y-91412069D01*
X124713327Y-91434791D01*
X124713324Y-91434792D01*
X124706657Y-91437062D01*
X124567452Y-91522701D01*
X124522277Y-91566940D01*
X124461998Y-91625970D01*
X124450680Y-91637053D01*
X124362145Y-91774434D01*
X124359736Y-91781054D01*
X124359735Y-91781055D01*
X124355999Y-91791320D01*
X124306246Y-91928015D01*
X124285761Y-92090164D01*
X119398920Y-92090164D01*
X119473240Y-91978303D01*
X119495111Y-91920727D01*
X119528778Y-91832100D01*
X119528779Y-91832095D01*
X119531278Y-91825517D01*
X119532258Y-91818545D01*
X119553473Y-91667593D01*
X119553473Y-91667588D01*
X119554024Y-91663670D01*
X119554310Y-91643200D01*
X119540380Y-91519011D01*
X119536877Y-91487777D01*
X119536876Y-91487775D01*
X119536092Y-91480781D01*
X119482342Y-91326434D01*
X119419056Y-91225154D01*
X119399466Y-91193802D01*
X119399464Y-91193800D01*
X119395734Y-91187830D01*
X119390772Y-91182833D01*
X119285533Y-91076857D01*
X119285529Y-91076854D01*
X119280570Y-91071860D01*
X119264736Y-91061811D01*
X119178266Y-91006936D01*
X119142574Y-90984285D01*
X119101909Y-90969805D01*
X119023172Y-90941768D01*
X129459425Y-90941768D01*
X129491138Y-91049521D01*
X129495731Y-91060889D01*
X129581607Y-91225154D01*
X129588321Y-91235415D01*
X129704468Y-91379873D01*
X129713046Y-91388632D01*
X129855039Y-91507778D01*
X129865159Y-91514708D01*
X130027585Y-91604002D01*
X130038858Y-91608834D01*
X130215538Y-91664880D01*
X130227532Y-91667430D01*
X130371761Y-91683607D01*
X130378785Y-91684000D01*
X130596977Y-91684000D01*
X130665098Y-91704002D01*
X130711591Y-91757658D01*
X130721695Y-91827932D01*
X130713966Y-91856792D01*
X130704470Y-91880534D01*
X130703356Y-91887262D01*
X130703355Y-91887266D01*
X130687312Y-91984174D01*
X130674892Y-92059198D01*
X130675249Y-92066015D01*
X130675249Y-92066019D01*
X130680151Y-92159539D01*
X130684370Y-92240047D01*
X130686181Y-92246620D01*
X130686181Y-92246623D01*
X130728764Y-92401219D01*
X130732461Y-92414641D01*
X130816922Y-92574836D01*
X130821327Y-92580049D01*
X130821330Y-92580053D01*
X130929406Y-92707943D01*
X130929410Y-92707947D01*
X130933813Y-92713157D01*
X130939237Y-92717304D01*
X130939238Y-92717305D01*
X131072257Y-92819006D01*
X131072261Y-92819009D01*
X131077678Y-92823150D01*
X131171916Y-92867094D01*
X131235631Y-92896805D01*
X131235634Y-92896806D01*
X131241808Y-92899685D01*
X131248456Y-92901171D01*
X131248459Y-92901172D01*
X131354421Y-92924857D01*
X131418543Y-92939190D01*
X131424088Y-92939500D01*
X131557244Y-92939500D01*
X131692037Y-92924857D01*
X131792287Y-92891119D01*
X131855588Y-92869816D01*
X131860643Y-92869619D01*
X131866641Y-92865312D01*
X132018905Y-92773823D01*
X132023862Y-92769135D01*
X132023865Y-92769133D01*
X132145527Y-92654082D01*
X132145529Y-92654080D01*
X132150485Y-92649393D01*
X132154317Y-92643755D01*
X132154320Y-92643751D01*
X132248442Y-92505255D01*
X132252277Y-92499612D01*
X132319530Y-92331466D01*
X132320644Y-92324738D01*
X132320645Y-92324734D01*
X132347993Y-92159539D01*
X132347993Y-92159536D01*
X132349108Y-92152802D01*
X132347641Y-92124793D01*
X132339987Y-91978766D01*
X132339630Y-91971953D01*
X132333778Y-91950705D01*
X132293352Y-91803941D01*
X132291539Y-91797359D01*
X132207078Y-91637164D01*
X132202673Y-91631951D01*
X132202670Y-91631947D01*
X132184306Y-91610217D01*
X132155614Y-91545276D01*
X132166587Y-91475132D01*
X132200908Y-91431246D01*
X132240933Y-91398603D01*
X132249637Y-91389959D01*
X132367784Y-91247144D01*
X132374644Y-91236973D01*
X132462804Y-91073924D01*
X132467556Y-91062619D01*
X132503250Y-90947308D01*
X132503331Y-90941768D01*
X133889425Y-90941768D01*
X133921138Y-91049521D01*
X133925731Y-91060889D01*
X134011607Y-91225154D01*
X134018321Y-91235415D01*
X134134468Y-91379873D01*
X134143046Y-91388632D01*
X134285039Y-91507778D01*
X134295159Y-91514708D01*
X134457585Y-91604002D01*
X134468858Y-91608834D01*
X134645538Y-91664880D01*
X134657532Y-91667430D01*
X134801761Y-91683607D01*
X134808785Y-91684000D01*
X134889885Y-91684000D01*
X134905124Y-91679525D01*
X134906329Y-91678135D01*
X134908000Y-91670452D01*
X134908000Y-91665885D01*
X135416000Y-91665885D01*
X135420475Y-91681124D01*
X135421865Y-91682329D01*
X135429548Y-91684000D01*
X135508657Y-91684000D01*
X135514805Y-91683699D01*
X135652603Y-91670188D01*
X135664638Y-91667805D01*
X135842076Y-91614233D01*
X135853416Y-91609559D01*
X136017077Y-91522540D01*
X136027294Y-91515751D01*
X136170933Y-91398603D01*
X136179637Y-91389959D01*
X136297784Y-91247144D01*
X136304644Y-91236973D01*
X136392804Y-91073924D01*
X136397556Y-91062619D01*
X136433250Y-90947308D01*
X136433456Y-90933205D01*
X136426701Y-90930000D01*
X135434115Y-90930000D01*
X135418876Y-90934475D01*
X135417671Y-90935865D01*
X135416000Y-90943548D01*
X135416000Y-91665885D01*
X134908000Y-91665885D01*
X134908000Y-90948115D01*
X134903525Y-90932876D01*
X134902135Y-90931671D01*
X134894452Y-90930000D01*
X133904076Y-90930000D01*
X133890545Y-90933973D01*
X133889425Y-90941768D01*
X132503331Y-90941768D01*
X132503456Y-90933205D01*
X132496701Y-90930000D01*
X129474076Y-90930000D01*
X129460545Y-90933973D01*
X129459425Y-90941768D01*
X119023172Y-90941768D01*
X118995241Y-90931822D01*
X118995236Y-90931821D01*
X118988606Y-90929460D01*
X118981618Y-90928627D01*
X118981615Y-90928626D01*
X118870676Y-90915397D01*
X118826318Y-90910108D01*
X118819315Y-90910844D01*
X118819314Y-90910844D01*
X118670775Y-90926456D01*
X118670773Y-90926457D01*
X118663775Y-90927192D01*
X118602314Y-90948115D01*
X118515727Y-90977591D01*
X118515724Y-90977592D01*
X118509057Y-90979862D01*
X118369852Y-91065501D01*
X118361251Y-91073924D01*
X118281820Y-91151709D01*
X118253080Y-91179853D01*
X118164545Y-91317234D01*
X118162136Y-91323854D01*
X118162135Y-91323855D01*
X118139276Y-91386660D01*
X118108646Y-91470815D01*
X118088161Y-91632964D01*
X112192136Y-91632964D01*
X112219995Y-91606434D01*
X112310440Y-91470303D01*
X112325276Y-91431246D01*
X112365978Y-91324100D01*
X112365979Y-91324095D01*
X112368478Y-91317517D01*
X112371740Y-91294308D01*
X112390673Y-91159593D01*
X112390673Y-91159588D01*
X112391224Y-91155670D01*
X112391510Y-91135200D01*
X112375006Y-90988064D01*
X112374077Y-90979777D01*
X112374076Y-90979775D01*
X112373292Y-90972781D01*
X112319542Y-90818434D01*
X112232934Y-90679830D01*
X112227972Y-90674833D01*
X112122733Y-90568857D01*
X112122729Y-90568854D01*
X112117770Y-90563860D01*
X112101936Y-90553811D01*
X112043669Y-90516834D01*
X111979774Y-90476285D01*
X111918917Y-90454615D01*
X111832441Y-90423822D01*
X111832436Y-90423821D01*
X111825806Y-90421460D01*
X111818818Y-90420627D01*
X111818815Y-90420626D01*
X111704979Y-90407052D01*
X111663518Y-90402108D01*
X111656515Y-90402844D01*
X111656514Y-90402844D01*
X111507975Y-90418456D01*
X111507973Y-90418457D01*
X111500975Y-90419192D01*
X111419673Y-90446869D01*
X111352927Y-90469591D01*
X111352924Y-90469592D01*
X111346257Y-90471862D01*
X111207052Y-90557501D01*
X111090280Y-90671853D01*
X111001745Y-90809234D01*
X110999336Y-90815854D01*
X110999335Y-90815855D01*
X110975028Y-90882639D01*
X110945846Y-90962815D01*
X110925361Y-91124964D01*
X94353115Y-91124964D01*
X94423765Y-91015127D01*
X94428212Y-91006936D01*
X94531691Y-90777222D01*
X94534882Y-90768455D01*
X94603269Y-90525976D01*
X94605129Y-90516834D01*
X94637116Y-90265396D01*
X94637597Y-90259108D01*
X94639847Y-90173160D01*
X94639696Y-90166851D01*
X94631171Y-90052134D01*
X104559500Y-90052134D01*
X104566255Y-90114316D01*
X104617385Y-90250705D01*
X104704739Y-90367261D01*
X104821295Y-90454615D01*
X104957684Y-90505745D01*
X105019866Y-90512500D01*
X106816134Y-90512500D01*
X106878316Y-90505745D01*
X107014705Y-90454615D01*
X107131261Y-90367261D01*
X107218615Y-90250705D01*
X107246159Y-90177231D01*
X107262798Y-90132848D01*
X107305440Y-90076084D01*
X107372001Y-90051384D01*
X107441350Y-90066592D01*
X107476017Y-90094580D01*
X107501218Y-90123673D01*
X107508580Y-90130883D01*
X107672434Y-90266916D01*
X107680881Y-90272831D01*
X107864756Y-90380279D01*
X107874042Y-90384729D01*
X108073001Y-90460703D01*
X108082899Y-90463579D01*
X108186250Y-90484606D01*
X108200299Y-90483410D01*
X108204000Y-90473065D01*
X108204000Y-90472517D01*
X108712000Y-90472517D01*
X108716064Y-90486359D01*
X108729478Y-90488393D01*
X108736184Y-90487534D01*
X108746262Y-90485392D01*
X108950255Y-90424191D01*
X108959842Y-90420433D01*
X109151095Y-90326739D01*
X109159945Y-90321464D01*
X109333328Y-90197792D01*
X109341200Y-90191139D01*
X109492052Y-90040812D01*
X109498730Y-90032965D01*
X109623003Y-89860020D01*
X109628313Y-89851183D01*
X109722670Y-89660267D01*
X109726469Y-89650672D01*
X109772440Y-89499364D01*
X122609361Y-89499364D01*
X122625310Y-89662022D01*
X122627534Y-89668707D01*
X122627534Y-89668708D01*
X122650507Y-89737767D01*
X122676899Y-89817105D01*
X122680548Y-89823130D01*
X122730051Y-89904868D01*
X122761565Y-89956904D01*
X122875098Y-90074471D01*
X122880990Y-90078326D01*
X122880994Y-90078330D01*
X122947294Y-90121715D01*
X123011857Y-90163964D01*
X123047532Y-90177231D01*
X123158448Y-90218480D01*
X123158451Y-90218481D01*
X123165045Y-90220933D01*
X123172022Y-90221864D01*
X123320066Y-90241618D01*
X123320070Y-90241618D01*
X123327047Y-90242549D01*
X123334058Y-90241911D01*
X123334062Y-90241911D01*
X123482791Y-90228375D01*
X123489812Y-90227736D01*
X123496514Y-90225558D01*
X123496516Y-90225558D01*
X123638552Y-90179408D01*
X123638555Y-90179407D01*
X123645251Y-90177231D01*
X123735096Y-90123673D01*
X123779586Y-90097152D01*
X123779588Y-90097151D01*
X123785638Y-90093544D01*
X123903995Y-89980834D01*
X123980822Y-89865200D01*
X125832496Y-89865200D01*
X125833186Y-89871765D01*
X125850129Y-90032965D01*
X125852458Y-90055128D01*
X125911473Y-90236756D01*
X125914776Y-90242478D01*
X125914777Y-90242479D01*
X125919526Y-90250705D01*
X126006960Y-90402144D01*
X126011378Y-90407051D01*
X126011379Y-90407052D01*
X126106325Y-90512500D01*
X126134747Y-90544066D01*
X126289248Y-90656318D01*
X126295276Y-90659002D01*
X126295278Y-90659003D01*
X126342057Y-90679830D01*
X126463712Y-90733994D01*
X126557112Y-90753847D01*
X126644056Y-90772328D01*
X126644061Y-90772328D01*
X126650513Y-90773700D01*
X126841487Y-90773700D01*
X126847939Y-90772328D01*
X126847944Y-90772328D01*
X126934888Y-90753847D01*
X127028288Y-90733994D01*
X127149943Y-90679830D01*
X127196722Y-90659003D01*
X127196724Y-90659002D01*
X127202752Y-90656318D01*
X127357253Y-90544066D01*
X127385675Y-90512500D01*
X127470048Y-90418795D01*
X129460544Y-90418795D01*
X129467299Y-90422000D01*
X130709885Y-90422000D01*
X130725124Y-90417525D01*
X130726329Y-90416135D01*
X130728000Y-90408452D01*
X130728000Y-90403885D01*
X131236000Y-90403885D01*
X131240475Y-90419124D01*
X131241865Y-90420329D01*
X131249548Y-90422000D01*
X132489924Y-90422000D01*
X132500839Y-90418795D01*
X133890544Y-90418795D01*
X133897299Y-90422000D01*
X134889885Y-90422000D01*
X134905124Y-90417525D01*
X134906329Y-90416135D01*
X134908000Y-90408452D01*
X134908000Y-90403885D01*
X135416000Y-90403885D01*
X135420475Y-90419124D01*
X135421865Y-90420329D01*
X135429548Y-90422000D01*
X136419924Y-90422000D01*
X136433455Y-90418027D01*
X136434575Y-90410232D01*
X136402862Y-90302479D01*
X136398269Y-90291111D01*
X136312393Y-90126846D01*
X136305679Y-90116585D01*
X136189532Y-89972127D01*
X136180954Y-89963368D01*
X136038961Y-89844222D01*
X136028841Y-89837292D01*
X135866415Y-89747998D01*
X135855142Y-89743166D01*
X135678462Y-89687120D01*
X135666468Y-89684570D01*
X135522239Y-89668393D01*
X135515215Y-89668000D01*
X135434115Y-89668000D01*
X135418876Y-89672475D01*
X135417671Y-89673865D01*
X135416000Y-89681548D01*
X135416000Y-90403885D01*
X134908000Y-90403885D01*
X134908000Y-89686115D01*
X134903525Y-89670876D01*
X134902135Y-89669671D01*
X134894452Y-89668000D01*
X134815343Y-89668000D01*
X134809195Y-89668301D01*
X134671397Y-89681812D01*
X134659362Y-89684195D01*
X134481924Y-89737767D01*
X134470584Y-89742441D01*
X134306923Y-89829460D01*
X134296706Y-89836249D01*
X134153067Y-89953397D01*
X134144363Y-89962041D01*
X134026216Y-90104856D01*
X134019356Y-90115027D01*
X133931196Y-90278076D01*
X133926444Y-90289381D01*
X133890750Y-90404692D01*
X133890544Y-90418795D01*
X132500839Y-90418795D01*
X132503455Y-90418027D01*
X132504575Y-90410232D01*
X132472862Y-90302479D01*
X132468269Y-90291111D01*
X132382393Y-90126846D01*
X132375679Y-90116585D01*
X132259532Y-89972127D01*
X132250954Y-89963368D01*
X132108961Y-89844222D01*
X132098841Y-89837292D01*
X131936415Y-89747998D01*
X131925142Y-89743166D01*
X131748462Y-89687120D01*
X131736468Y-89684570D01*
X131592239Y-89668393D01*
X131585215Y-89668000D01*
X131254115Y-89668000D01*
X131238876Y-89672475D01*
X131237671Y-89673865D01*
X131236000Y-89681548D01*
X131236000Y-90403885D01*
X130728000Y-90403885D01*
X130728000Y-89686115D01*
X130723525Y-89670876D01*
X130722135Y-89669671D01*
X130714452Y-89668000D01*
X130385343Y-89668000D01*
X130379195Y-89668301D01*
X130241397Y-89681812D01*
X130229362Y-89684195D01*
X130051924Y-89737767D01*
X130040584Y-89742441D01*
X129876923Y-89829460D01*
X129866706Y-89836249D01*
X129723067Y-89953397D01*
X129714363Y-89962041D01*
X129596216Y-90104856D01*
X129589356Y-90115027D01*
X129501196Y-90278076D01*
X129496444Y-90289381D01*
X129460750Y-90404692D01*
X129460544Y-90418795D01*
X127470048Y-90418795D01*
X127480621Y-90407052D01*
X127480622Y-90407051D01*
X127485040Y-90402144D01*
X127572474Y-90250705D01*
X127577223Y-90242479D01*
X127577224Y-90242478D01*
X127580527Y-90236756D01*
X127639542Y-90055128D01*
X127641872Y-90032965D01*
X127658814Y-89871765D01*
X127659504Y-89865200D01*
X127653225Y-89805461D01*
X127640232Y-89681835D01*
X127640232Y-89681833D01*
X127639542Y-89675272D01*
X127580527Y-89493644D01*
X127485040Y-89328256D01*
X127357253Y-89186334D01*
X127202752Y-89074082D01*
X127196724Y-89071398D01*
X127196722Y-89071397D01*
X127034319Y-88999091D01*
X127034318Y-88999091D01*
X127028288Y-88996406D01*
X126934887Y-88976553D01*
X126847944Y-88958072D01*
X126847939Y-88958072D01*
X126841487Y-88956700D01*
X126650513Y-88956700D01*
X126644061Y-88958072D01*
X126644056Y-88958072D01*
X126557113Y-88976553D01*
X126463712Y-88996406D01*
X126457682Y-88999091D01*
X126457681Y-88999091D01*
X126295278Y-89071397D01*
X126295276Y-89071398D01*
X126289248Y-89074082D01*
X126134747Y-89186334D01*
X126006960Y-89328256D01*
X125911473Y-89493644D01*
X125852458Y-89675272D01*
X125851768Y-89681833D01*
X125851768Y-89681835D01*
X125838775Y-89805461D01*
X125832496Y-89865200D01*
X123980822Y-89865200D01*
X123994440Y-89844703D01*
X124009347Y-89805461D01*
X124049978Y-89698500D01*
X124049979Y-89698495D01*
X124052478Y-89691917D01*
X124055015Y-89673865D01*
X124074673Y-89533993D01*
X124074673Y-89533988D01*
X124075224Y-89530070D01*
X124075510Y-89509600D01*
X124066129Y-89425962D01*
X124058077Y-89354177D01*
X124058076Y-89354175D01*
X124057292Y-89347181D01*
X124003542Y-89192834D01*
X123927661Y-89071397D01*
X123920666Y-89060202D01*
X123920664Y-89060200D01*
X123916934Y-89054230D01*
X123911972Y-89049233D01*
X123806733Y-88943257D01*
X123806729Y-88943254D01*
X123801770Y-88938260D01*
X123785936Y-88928211D01*
X123729607Y-88892464D01*
X123663774Y-88850685D01*
X123615965Y-88833661D01*
X123516441Y-88798222D01*
X123516436Y-88798221D01*
X123509806Y-88795860D01*
X123502818Y-88795027D01*
X123502815Y-88795026D01*
X123391876Y-88781797D01*
X123347518Y-88776508D01*
X123340515Y-88777244D01*
X123340514Y-88777244D01*
X123191975Y-88792856D01*
X123191973Y-88792857D01*
X123184975Y-88793592D01*
X123143216Y-88807808D01*
X123036927Y-88843991D01*
X123036924Y-88843992D01*
X123030257Y-88846262D01*
X123024258Y-88849952D01*
X123024257Y-88849953D01*
X123023067Y-88850685D01*
X122891052Y-88931901D01*
X122774280Y-89046253D01*
X122685745Y-89183634D01*
X122683336Y-89190254D01*
X122683335Y-89190255D01*
X122657796Y-89260424D01*
X122629846Y-89337215D01*
X122609361Y-89499364D01*
X109772440Y-89499364D01*
X109788377Y-89446910D01*
X109790555Y-89436837D01*
X109791986Y-89425962D01*
X109789775Y-89411778D01*
X109776617Y-89408000D01*
X108730115Y-89408000D01*
X108714876Y-89412475D01*
X108713671Y-89413865D01*
X108712000Y-89421548D01*
X108712000Y-90472517D01*
X108204000Y-90472517D01*
X108204000Y-88881885D01*
X108712000Y-88881885D01*
X108716475Y-88897124D01*
X108717865Y-88898329D01*
X108725548Y-88900000D01*
X109776344Y-88900000D01*
X109789875Y-88896027D01*
X109791180Y-88886947D01*
X109749214Y-88719875D01*
X109745894Y-88710124D01*
X109660972Y-88514814D01*
X109656105Y-88505739D01*
X109540426Y-88326926D01*
X109534136Y-88318757D01*
X109390806Y-88161240D01*
X109383273Y-88154215D01*
X109349780Y-88127764D01*
X131499361Y-88127764D01*
X131515310Y-88290422D01*
X131517534Y-88297107D01*
X131517534Y-88297108D01*
X131527453Y-88326926D01*
X131566899Y-88445505D01*
X131570548Y-88451530D01*
X131626530Y-88543966D01*
X131651565Y-88585304D01*
X131765098Y-88702871D01*
X131770990Y-88706726D01*
X131770994Y-88706730D01*
X131834933Y-88748570D01*
X131901857Y-88792364D01*
X131937532Y-88805631D01*
X132048448Y-88846880D01*
X132048451Y-88846881D01*
X132055045Y-88849333D01*
X132062022Y-88850264D01*
X132210066Y-88870018D01*
X132210070Y-88870018D01*
X132217047Y-88870949D01*
X132224058Y-88870311D01*
X132224062Y-88870311D01*
X132372791Y-88856775D01*
X132379812Y-88856136D01*
X132386514Y-88853958D01*
X132386516Y-88853958D01*
X132528552Y-88807808D01*
X132528555Y-88807807D01*
X132535251Y-88805631D01*
X132547680Y-88798222D01*
X132669586Y-88725552D01*
X132669588Y-88725551D01*
X132675638Y-88721944D01*
X132793995Y-88609234D01*
X132884440Y-88473103D01*
X132908035Y-88410989D01*
X132939978Y-88326900D01*
X132939979Y-88326895D01*
X132942478Y-88320317D01*
X132945740Y-88297108D01*
X132964673Y-88162393D01*
X132964673Y-88162388D01*
X132965224Y-88158470D01*
X132965510Y-88138000D01*
X132951152Y-88009993D01*
X132948077Y-87982577D01*
X132948076Y-87982575D01*
X132947292Y-87975581D01*
X132893542Y-87821234D01*
X132806934Y-87682630D01*
X132799842Y-87675488D01*
X132696733Y-87571657D01*
X132696729Y-87571654D01*
X132691770Y-87566660D01*
X132675936Y-87556611D01*
X132631124Y-87528173D01*
X132553774Y-87479085D01*
X132529235Y-87470347D01*
X132406441Y-87426622D01*
X132406436Y-87426621D01*
X132399806Y-87424260D01*
X132392818Y-87423427D01*
X132392815Y-87423426D01*
X132281876Y-87410197D01*
X132237518Y-87404908D01*
X132230515Y-87405644D01*
X132230514Y-87405644D01*
X132081975Y-87421256D01*
X132081973Y-87421257D01*
X132074975Y-87421992D01*
X132040307Y-87433794D01*
X131926927Y-87472391D01*
X131926924Y-87472392D01*
X131920257Y-87474662D01*
X131781052Y-87560301D01*
X131769456Y-87571657D01*
X131672856Y-87666255D01*
X131664280Y-87674653D01*
X131575745Y-87812034D01*
X131573336Y-87818654D01*
X131573335Y-87818655D01*
X131569187Y-87830051D01*
X131519846Y-87965615D01*
X131499361Y-88127764D01*
X109349780Y-88127764D01*
X109216139Y-88022222D01*
X109207552Y-88016517D01*
X109021117Y-87913599D01*
X109011705Y-87909369D01*
X108810959Y-87838280D01*
X108800988Y-87835646D01*
X108729837Y-87822972D01*
X108716540Y-87824432D01*
X108712000Y-87838989D01*
X108712000Y-88881885D01*
X108204000Y-88881885D01*
X108204000Y-87837102D01*
X108200082Y-87823758D01*
X108185806Y-87821771D01*
X108147324Y-87827660D01*
X108137288Y-87830051D01*
X107934868Y-87896212D01*
X107925359Y-87900209D01*
X107736463Y-87998542D01*
X107727738Y-88004036D01*
X107557433Y-88131905D01*
X107549726Y-88138748D01*
X107472478Y-88219584D01*
X107410954Y-88255014D01*
X107340042Y-88251557D01*
X107282255Y-88210311D01*
X107263402Y-88176763D01*
X107221767Y-88065703D01*
X107218615Y-88057295D01*
X107131261Y-87940739D01*
X107014705Y-87853385D01*
X106878316Y-87802255D01*
X106816134Y-87795500D01*
X105019866Y-87795500D01*
X104957684Y-87802255D01*
X104821295Y-87853385D01*
X104704739Y-87940739D01*
X104617385Y-88057295D01*
X104566255Y-88193684D01*
X104559500Y-88255866D01*
X104559500Y-90052134D01*
X94631171Y-90052134D01*
X94620912Y-89914074D01*
X94619536Y-89904868D01*
X94563929Y-89659126D01*
X94561205Y-89650215D01*
X94469888Y-89415392D01*
X94465877Y-89406983D01*
X94340854Y-89188240D01*
X94335643Y-89180514D01*
X94298391Y-89133261D01*
X94286466Y-89124790D01*
X94274934Y-89131276D01*
X93249022Y-90157188D01*
X93241408Y-90171132D01*
X92511356Y-90171132D01*
X92512592Y-90168868D01*
X92512461Y-90167035D01*
X92508210Y-90160420D01*
X91478321Y-89130531D01*
X91465013Y-89123264D01*
X91454974Y-89130386D01*
X91444761Y-89142666D01*
X91439346Y-89150258D01*
X91308646Y-89365646D01*
X91304408Y-89373963D01*
X91206981Y-89606299D01*
X91204020Y-89615149D01*
X91142006Y-89859331D01*
X91140384Y-89868528D01*
X91115143Y-90119198D01*
X91114898Y-90128523D01*
X89556848Y-90128523D01*
X89540912Y-89914074D01*
X89539536Y-89904868D01*
X89483929Y-89659126D01*
X89481205Y-89650215D01*
X89389888Y-89415392D01*
X89385877Y-89406983D01*
X89260854Y-89188240D01*
X89255643Y-89180514D01*
X89218391Y-89133261D01*
X89206466Y-89124790D01*
X89194934Y-89131276D01*
X88169022Y-90157188D01*
X88161408Y-90171132D01*
X87431356Y-90171132D01*
X87432592Y-90168868D01*
X87432461Y-90167035D01*
X87428210Y-90160420D01*
X86396905Y-89129115D01*
X86362879Y-89066803D01*
X86360000Y-89040020D01*
X86360000Y-88758803D01*
X86750216Y-88758803D01*
X86754789Y-88768579D01*
X87784188Y-89797978D01*
X87798132Y-89805592D01*
X87799965Y-89805461D01*
X87806580Y-89801210D01*
X88835419Y-88772371D01*
X88841803Y-88760681D01*
X88832391Y-88748570D01*
X88695593Y-88653670D01*
X88687565Y-88648942D01*
X88461593Y-88537505D01*
X88452960Y-88534017D01*
X88212998Y-88457205D01*
X88203938Y-88455029D01*
X87955260Y-88414529D01*
X87945973Y-88413717D01*
X87694053Y-88410419D01*
X87684742Y-88410989D01*
X87435097Y-88444964D01*
X87425978Y-88446902D01*
X87184098Y-88517404D01*
X87175367Y-88520667D01*
X86946558Y-88626151D01*
X86938406Y-88630670D01*
X86759353Y-88748062D01*
X86750216Y-88758803D01*
X86360000Y-88758803D01*
X86360000Y-87630000D01*
X89053616Y-87630000D01*
X89073113Y-87852857D01*
X89131014Y-88068943D01*
X89165063Y-88141962D01*
X89223231Y-88266705D01*
X89223234Y-88266710D01*
X89225557Y-88271692D01*
X89273729Y-88340489D01*
X89348241Y-88446902D01*
X89353871Y-88454943D01*
X89512057Y-88613129D01*
X89516565Y-88616286D01*
X89516568Y-88616288D01*
X89592928Y-88669756D01*
X89695308Y-88741443D01*
X89700290Y-88743766D01*
X89700295Y-88743769D01*
X89772294Y-88777342D01*
X89898057Y-88835986D01*
X90114143Y-88893887D01*
X90151143Y-88897124D01*
X90278449Y-88908262D01*
X90278458Y-88908262D01*
X90281174Y-88908500D01*
X90392826Y-88908500D01*
X90395542Y-88908262D01*
X90395551Y-88908262D01*
X90522857Y-88897124D01*
X90559857Y-88893887D01*
X90775943Y-88835986D01*
X90901706Y-88777342D01*
X90941464Y-88758803D01*
X91830216Y-88758803D01*
X91834789Y-88768579D01*
X92864188Y-89797978D01*
X92878132Y-89805592D01*
X92879965Y-89805461D01*
X92886580Y-89801210D01*
X93915419Y-88772371D01*
X93921803Y-88760681D01*
X93912391Y-88748570D01*
X93775593Y-88653670D01*
X93767565Y-88648942D01*
X93541593Y-88537505D01*
X93532956Y-88534016D01*
X93475397Y-88515591D01*
X93416616Y-88475774D01*
X93388694Y-88410498D01*
X93400495Y-88340489D01*
X93423713Y-88309640D01*
X93422853Y-88308866D01*
X93546221Y-88171852D01*
X93546222Y-88171851D01*
X93550640Y-88166944D01*
X93618095Y-88050109D01*
X93642823Y-88007279D01*
X93642824Y-88007278D01*
X93646127Y-88001556D01*
X93654637Y-87975364D01*
X101628961Y-87975364D01*
X101644910Y-88138022D01*
X101647134Y-88144707D01*
X101647134Y-88144708D01*
X101657797Y-88176763D01*
X101696499Y-88293105D01*
X101700148Y-88299130D01*
X101770037Y-88414529D01*
X101781165Y-88432904D01*
X101786056Y-88437969D01*
X101786057Y-88437970D01*
X101798604Y-88450963D01*
X101894698Y-88550471D01*
X101900590Y-88554326D01*
X101900594Y-88554330D01*
X101975525Y-88603363D01*
X102031457Y-88639964D01*
X102067132Y-88653231D01*
X102178048Y-88694480D01*
X102178051Y-88694481D01*
X102184645Y-88696933D01*
X102191622Y-88697864D01*
X102339666Y-88717618D01*
X102339670Y-88717618D01*
X102346647Y-88718549D01*
X102353658Y-88717911D01*
X102353662Y-88717911D01*
X102502391Y-88704375D01*
X102509412Y-88703736D01*
X102516114Y-88701558D01*
X102516116Y-88701558D01*
X102658152Y-88655408D01*
X102658155Y-88655407D01*
X102664851Y-88653231D01*
X102702698Y-88630670D01*
X102799186Y-88573152D01*
X102799188Y-88573151D01*
X102805238Y-88569544D01*
X102923595Y-88456834D01*
X103014040Y-88320703D01*
X103059306Y-88201540D01*
X103069578Y-88174500D01*
X103069579Y-88174495D01*
X103072078Y-88167917D01*
X103073406Y-88158470D01*
X103094273Y-88009993D01*
X103094273Y-88009988D01*
X103094824Y-88006070D01*
X103095110Y-87985600D01*
X103080221Y-87852857D01*
X103077677Y-87830177D01*
X103077676Y-87830175D01*
X103076892Y-87823181D01*
X103023142Y-87668834D01*
X102955324Y-87560301D01*
X102940266Y-87536202D01*
X102940264Y-87536200D01*
X102936534Y-87530230D01*
X102931572Y-87525233D01*
X102826333Y-87419257D01*
X102826329Y-87419254D01*
X102821370Y-87414260D01*
X102810156Y-87407143D01*
X102768440Y-87380669D01*
X102683374Y-87326685D01*
X102658835Y-87317947D01*
X102536041Y-87274222D01*
X102536036Y-87274221D01*
X102529406Y-87271860D01*
X102522418Y-87271027D01*
X102522415Y-87271026D01*
X102408579Y-87257452D01*
X102367118Y-87252508D01*
X102360115Y-87253244D01*
X102360114Y-87253244D01*
X102211575Y-87268856D01*
X102211573Y-87268857D01*
X102204575Y-87269592D01*
X102123273Y-87297269D01*
X102056527Y-87319991D01*
X102056524Y-87319992D01*
X102049857Y-87322262D01*
X101910652Y-87407901D01*
X101893947Y-87424260D01*
X101834103Y-87482864D01*
X101793880Y-87522253D01*
X101705345Y-87659634D01*
X101702936Y-87666254D01*
X101702935Y-87666255D01*
X101698794Y-87677633D01*
X101649446Y-87813215D01*
X101628961Y-87975364D01*
X93654637Y-87975364D01*
X93705142Y-87819928D01*
X93706544Y-87806594D01*
X93724414Y-87636565D01*
X93725104Y-87630000D01*
X93720311Y-87584394D01*
X93705832Y-87446635D01*
X93705832Y-87446633D01*
X93705142Y-87440072D01*
X93646127Y-87258444D01*
X93550640Y-87093056D01*
X93489505Y-87025158D01*
X93422853Y-86951134D01*
X93424950Y-86949246D01*
X93394219Y-86899373D01*
X93395566Y-86828389D01*
X93435076Y-86769402D01*
X93466029Y-86750406D01*
X93686736Y-86655583D01*
X93695008Y-86651276D01*
X93909249Y-86518700D01*
X93916188Y-86513658D01*
X93924518Y-86501019D01*
X93918456Y-86490666D01*
X92889812Y-85462022D01*
X92875868Y-85454408D01*
X92874035Y-85454539D01*
X92867420Y-85458790D01*
X91839270Y-86486940D01*
X91832612Y-86499133D01*
X91841325Y-86510653D01*
X91939018Y-86582284D01*
X91946928Y-86587227D01*
X92169890Y-86704533D01*
X92178453Y-86708257D01*
X92191717Y-86712889D01*
X92249434Y-86754233D01*
X92275636Y-86820218D01*
X92262004Y-86889893D01*
X92224234Y-86933779D01*
X92200347Y-86951134D01*
X92195926Y-86956044D01*
X92195925Y-86956045D01*
X92133696Y-87025158D01*
X92072560Y-87093056D01*
X91977073Y-87258444D01*
X91918058Y-87440072D01*
X91917368Y-87446633D01*
X91917368Y-87446635D01*
X91902889Y-87584394D01*
X91898096Y-87630000D01*
X91898786Y-87636565D01*
X91916657Y-87806594D01*
X91918058Y-87819928D01*
X91977073Y-88001556D01*
X91980376Y-88007278D01*
X91980377Y-88007279D01*
X92005105Y-88050109D01*
X92072560Y-88166944D01*
X92076978Y-88171851D01*
X92076979Y-88171852D01*
X92155702Y-88259283D01*
X92200347Y-88308866D01*
X92226138Y-88327604D01*
X92269492Y-88383825D01*
X92275568Y-88454562D01*
X92242436Y-88517354D01*
X92204829Y-88543966D01*
X92026558Y-88626151D01*
X92018406Y-88630670D01*
X91839353Y-88748062D01*
X91830216Y-88758803D01*
X90941464Y-88758803D01*
X90973705Y-88743769D01*
X90973710Y-88743766D01*
X90978692Y-88741443D01*
X91081072Y-88669756D01*
X91157432Y-88616288D01*
X91157435Y-88616286D01*
X91161943Y-88613129D01*
X91320129Y-88454943D01*
X91325760Y-88446902D01*
X91400271Y-88340489D01*
X91448443Y-88271692D01*
X91450766Y-88266710D01*
X91450769Y-88266705D01*
X91508937Y-88141962D01*
X91542986Y-88068943D01*
X91600887Y-87852857D01*
X91620384Y-87630000D01*
X91600887Y-87407143D01*
X91542986Y-87191057D01*
X91491606Y-87080871D01*
X91450769Y-86993295D01*
X91450766Y-86993290D01*
X91448443Y-86988308D01*
X91352542Y-86851347D01*
X91323288Y-86809568D01*
X91323286Y-86809565D01*
X91320129Y-86805057D01*
X91161943Y-86646871D01*
X91157435Y-86643714D01*
X91157432Y-86643712D01*
X91069703Y-86582284D01*
X90978692Y-86518557D01*
X90973710Y-86516234D01*
X90973705Y-86516231D01*
X90810049Y-86439918D01*
X90775943Y-86424014D01*
X90559857Y-86366113D01*
X90508121Y-86361587D01*
X90395551Y-86351738D01*
X90395542Y-86351738D01*
X90392826Y-86351500D01*
X90281174Y-86351500D01*
X90278458Y-86351738D01*
X90278449Y-86351738D01*
X90165879Y-86361587D01*
X90114143Y-86366113D01*
X89898057Y-86424014D01*
X89863951Y-86439918D01*
X89700295Y-86516231D01*
X89700290Y-86516234D01*
X89695308Y-86518557D01*
X89604297Y-86582284D01*
X89516568Y-86643712D01*
X89516565Y-86643714D01*
X89512057Y-86646871D01*
X89353871Y-86805057D01*
X89350714Y-86809565D01*
X89350712Y-86809568D01*
X89321458Y-86851347D01*
X89225557Y-86988308D01*
X89223234Y-86993290D01*
X89223231Y-86993295D01*
X89182394Y-87080871D01*
X89131014Y-87191057D01*
X89073113Y-87407143D01*
X89053616Y-87630000D01*
X86360000Y-87630000D01*
X86360000Y-86499133D01*
X86752612Y-86499133D01*
X86761325Y-86510653D01*
X86859018Y-86582284D01*
X86866928Y-86587227D01*
X87089890Y-86704533D01*
X87098453Y-86708256D01*
X87336304Y-86791318D01*
X87345313Y-86793732D01*
X87592842Y-86840727D01*
X87602098Y-86841781D01*
X87853857Y-86851673D01*
X87863171Y-86851347D01*
X88113615Y-86823920D01*
X88122792Y-86822219D01*
X88366431Y-86758074D01*
X88375251Y-86755037D01*
X88606736Y-86655583D01*
X88615008Y-86651276D01*
X88829249Y-86518700D01*
X88836188Y-86513658D01*
X88844518Y-86501019D01*
X88838456Y-86490666D01*
X87809812Y-85462022D01*
X87795868Y-85454408D01*
X87794035Y-85454539D01*
X87787420Y-85458790D01*
X86759270Y-86486940D01*
X86752612Y-86499133D01*
X86360000Y-86499133D01*
X86360000Y-86219980D01*
X86380002Y-86151859D01*
X86396905Y-86130885D01*
X87424978Y-85102812D01*
X87431356Y-85091132D01*
X88161408Y-85091132D01*
X88161539Y-85092965D01*
X88165790Y-85099580D01*
X89196913Y-86130703D01*
X89209293Y-86137463D01*
X89217634Y-86131219D01*
X89343765Y-85935127D01*
X89348212Y-85926936D01*
X89451691Y-85697222D01*
X89454882Y-85688455D01*
X89523269Y-85445976D01*
X89525129Y-85436834D01*
X89557116Y-85185396D01*
X89557597Y-85179108D01*
X89559847Y-85093160D01*
X89559696Y-85086851D01*
X89556848Y-85048523D01*
X91114898Y-85048523D01*
X91126987Y-85300175D01*
X91128124Y-85309435D01*
X91177274Y-85556535D01*
X91179768Y-85565528D01*
X91264900Y-85802639D01*
X91268700Y-85811174D01*
X91387946Y-86033101D01*
X91392957Y-86040968D01*
X91456446Y-86125990D01*
X91467704Y-86134439D01*
X91480123Y-86127667D01*
X92504978Y-85102812D01*
X92511356Y-85091132D01*
X93241408Y-85091132D01*
X93241539Y-85092965D01*
X93245790Y-85099580D01*
X94276913Y-86130703D01*
X94289293Y-86137463D01*
X94297634Y-86131219D01*
X94423765Y-85935127D01*
X94428212Y-85926936D01*
X94531691Y-85697222D01*
X94534882Y-85688455D01*
X94546066Y-85648800D01*
X99010096Y-85648800D01*
X99030058Y-85838728D01*
X99089073Y-86020356D01*
X99184560Y-86185744D01*
X99188978Y-86190651D01*
X99188979Y-86190652D01*
X99307925Y-86322755D01*
X99312347Y-86327666D01*
X99365265Y-86366113D01*
X99443000Y-86422591D01*
X99466848Y-86439918D01*
X99472876Y-86442602D01*
X99472878Y-86442603D01*
X99635281Y-86514909D01*
X99641312Y-86517594D01*
X99734712Y-86537447D01*
X99821656Y-86555928D01*
X99821661Y-86555928D01*
X99828113Y-86557300D01*
X100019087Y-86557300D01*
X100025539Y-86555928D01*
X100025544Y-86555928D01*
X100112488Y-86537447D01*
X100205888Y-86517594D01*
X100211919Y-86514909D01*
X100374322Y-86442603D01*
X100374324Y-86442602D01*
X100380352Y-86439918D01*
X100404201Y-86422591D01*
X100481935Y-86366113D01*
X100534853Y-86327666D01*
X100539275Y-86322755D01*
X100560696Y-86298964D01*
X112296961Y-86298964D01*
X112312910Y-86461622D01*
X112315134Y-86468307D01*
X112315134Y-86468308D01*
X112325388Y-86499133D01*
X112364499Y-86616705D01*
X112368148Y-86622730D01*
X112427966Y-86721500D01*
X112449165Y-86756504D01*
X112562698Y-86874071D01*
X112568590Y-86877926D01*
X112568594Y-86877930D01*
X112652553Y-86932871D01*
X112699457Y-86963564D01*
X112735132Y-86976831D01*
X112846048Y-87018080D01*
X112846051Y-87018081D01*
X112852645Y-87020533D01*
X112859622Y-87021464D01*
X113007666Y-87041218D01*
X113007670Y-87041218D01*
X113014647Y-87042149D01*
X113021658Y-87041511D01*
X113021662Y-87041511D01*
X113170391Y-87027975D01*
X113177412Y-87027336D01*
X113184114Y-87025158D01*
X113184116Y-87025158D01*
X113326152Y-86979008D01*
X113326155Y-86979007D01*
X113332851Y-86976831D01*
X113367720Y-86956045D01*
X113467186Y-86896752D01*
X113467188Y-86896751D01*
X113473238Y-86893144D01*
X113591595Y-86780434D01*
X113634671Y-86715600D01*
X122733696Y-86715600D01*
X122734386Y-86722165D01*
X122752736Y-86896752D01*
X122753658Y-86905528D01*
X122812673Y-87087156D01*
X122908160Y-87252544D01*
X123035947Y-87394466D01*
X123060934Y-87412620D01*
X123152415Y-87479085D01*
X123190448Y-87506718D01*
X123196476Y-87509402D01*
X123196478Y-87509403D01*
X123336304Y-87571657D01*
X123364912Y-87584394D01*
X123458312Y-87604247D01*
X123545256Y-87622728D01*
X123545261Y-87622728D01*
X123551713Y-87624100D01*
X123742687Y-87624100D01*
X123749139Y-87622728D01*
X123749144Y-87622728D01*
X123836088Y-87604247D01*
X123929488Y-87584394D01*
X123958096Y-87571657D01*
X124097922Y-87509403D01*
X124097924Y-87509402D01*
X124103952Y-87506718D01*
X124141986Y-87479085D01*
X124233466Y-87412620D01*
X124258453Y-87394466D01*
X124386240Y-87252544D01*
X124481727Y-87087156D01*
X124540742Y-86905528D01*
X124541665Y-86896752D01*
X124560014Y-86722165D01*
X124560704Y-86715600D01*
X124553480Y-86646871D01*
X124541432Y-86532235D01*
X124541432Y-86532233D01*
X124540742Y-86525672D01*
X124481727Y-86344044D01*
X124386240Y-86178656D01*
X124340330Y-86127667D01*
X124262875Y-86041645D01*
X124262874Y-86041644D01*
X124258453Y-86036734D01*
X124103952Y-85924482D01*
X124097924Y-85921798D01*
X124097922Y-85921797D01*
X123935519Y-85849491D01*
X123935518Y-85849491D01*
X123929488Y-85846806D01*
X123836087Y-85826953D01*
X123749144Y-85808472D01*
X123749139Y-85808472D01*
X123742687Y-85807100D01*
X123551713Y-85807100D01*
X123545261Y-85808472D01*
X123545256Y-85808472D01*
X123458313Y-85826953D01*
X123364912Y-85846806D01*
X123358882Y-85849491D01*
X123358881Y-85849491D01*
X123196478Y-85921797D01*
X123196476Y-85921798D01*
X123190448Y-85924482D01*
X123035947Y-86036734D01*
X123031526Y-86041644D01*
X123031525Y-86041645D01*
X122954071Y-86127667D01*
X122908160Y-86178656D01*
X122812673Y-86344044D01*
X122753658Y-86525672D01*
X122752968Y-86532233D01*
X122752968Y-86532235D01*
X122740920Y-86646871D01*
X122733696Y-86715600D01*
X113634671Y-86715600D01*
X113682040Y-86644303D01*
X113705599Y-86582284D01*
X113737578Y-86498100D01*
X113737579Y-86498095D01*
X113740078Y-86491517D01*
X113743340Y-86468308D01*
X113762273Y-86333593D01*
X113762273Y-86333588D01*
X113762824Y-86329670D01*
X113763110Y-86309200D01*
X113754087Y-86228760D01*
X113745677Y-86153777D01*
X113745676Y-86153775D01*
X113744892Y-86146781D01*
X113691142Y-85992434D01*
X113604534Y-85853830D01*
X113597559Y-85846806D01*
X113494333Y-85742857D01*
X113494329Y-85742854D01*
X113489370Y-85737860D01*
X113473536Y-85727811D01*
X113411520Y-85688455D01*
X113351374Y-85650285D01*
X113326835Y-85641547D01*
X113204041Y-85597822D01*
X113204036Y-85597821D01*
X113197406Y-85595460D01*
X113190418Y-85594627D01*
X113190415Y-85594626D01*
X113079476Y-85581397D01*
X113035118Y-85576108D01*
X113028115Y-85576844D01*
X113028114Y-85576844D01*
X112879575Y-85592456D01*
X112879573Y-85592457D01*
X112872575Y-85593192D01*
X112791273Y-85620869D01*
X112724527Y-85643591D01*
X112724524Y-85643592D01*
X112717857Y-85645862D01*
X112578652Y-85731501D01*
X112567056Y-85742857D01*
X112469156Y-85838728D01*
X112461880Y-85845853D01*
X112373345Y-85983234D01*
X112370936Y-85989854D01*
X112370935Y-85989855D01*
X112352085Y-86041645D01*
X112317446Y-86136815D01*
X112296961Y-86298964D01*
X100560696Y-86298964D01*
X100658221Y-86190652D01*
X100658222Y-86190651D01*
X100662640Y-86185744D01*
X100758127Y-86020356D01*
X100817142Y-85838728D01*
X100837104Y-85648800D01*
X100817142Y-85458872D01*
X100758127Y-85277244D01*
X100662640Y-85111856D01*
X100645631Y-85092965D01*
X100539275Y-84974845D01*
X100539274Y-84974844D01*
X100534853Y-84969934D01*
X100380352Y-84857682D01*
X100374324Y-84854998D01*
X100374322Y-84854997D01*
X100211919Y-84782691D01*
X100211918Y-84782691D01*
X100205888Y-84780006D01*
X100112487Y-84760153D01*
X100025544Y-84741672D01*
X100025539Y-84741672D01*
X100019087Y-84740300D01*
X99828113Y-84740300D01*
X99821661Y-84741672D01*
X99821656Y-84741672D01*
X99734713Y-84760153D01*
X99641312Y-84780006D01*
X99635282Y-84782691D01*
X99635281Y-84782691D01*
X99472878Y-84854997D01*
X99472876Y-84854998D01*
X99466848Y-84857682D01*
X99312347Y-84969934D01*
X99307926Y-84974844D01*
X99307925Y-84974845D01*
X99201570Y-85092965D01*
X99184560Y-85111856D01*
X99089073Y-85277244D01*
X99030058Y-85458872D01*
X99010096Y-85648800D01*
X94546066Y-85648800D01*
X94603269Y-85445976D01*
X94605129Y-85436834D01*
X94637116Y-85185396D01*
X94637597Y-85179108D01*
X94639847Y-85093160D01*
X94639696Y-85086851D01*
X94620912Y-84834074D01*
X94619536Y-84824868D01*
X94563929Y-84579126D01*
X94561205Y-84570215D01*
X94469888Y-84335392D01*
X94465877Y-84326983D01*
X94340854Y-84108240D01*
X94335643Y-84100514D01*
X94298391Y-84053261D01*
X94286466Y-84044790D01*
X94274934Y-84051276D01*
X93249022Y-85077188D01*
X93241408Y-85091132D01*
X92511356Y-85091132D01*
X92512592Y-85088868D01*
X92512461Y-85087035D01*
X92508210Y-85080420D01*
X91478321Y-84050531D01*
X91465013Y-84043264D01*
X91454974Y-84050386D01*
X91444761Y-84062666D01*
X91439346Y-84070258D01*
X91308646Y-84285646D01*
X91304408Y-84293963D01*
X91206981Y-84526299D01*
X91204020Y-84535149D01*
X91142006Y-84779331D01*
X91140384Y-84788528D01*
X91115143Y-85039198D01*
X91114898Y-85048523D01*
X89556848Y-85048523D01*
X89540912Y-84834074D01*
X89539536Y-84824868D01*
X89483929Y-84579126D01*
X89481205Y-84570215D01*
X89389888Y-84335392D01*
X89385877Y-84326983D01*
X89260854Y-84108240D01*
X89255643Y-84100514D01*
X89218391Y-84053261D01*
X89206466Y-84044790D01*
X89194934Y-84051276D01*
X88169022Y-85077188D01*
X88161408Y-85091132D01*
X87431356Y-85091132D01*
X87432592Y-85088868D01*
X87432461Y-85087035D01*
X87428210Y-85080420D01*
X86396905Y-84049115D01*
X86362879Y-83986803D01*
X86360000Y-83960020D01*
X86360000Y-83678803D01*
X86750216Y-83678803D01*
X86754789Y-83688579D01*
X87784188Y-84717978D01*
X87798132Y-84725592D01*
X87799965Y-84725461D01*
X87806580Y-84721210D01*
X88835419Y-83692371D01*
X88841803Y-83680681D01*
X88840344Y-83678803D01*
X91830216Y-83678803D01*
X91834789Y-83688579D01*
X92864188Y-84717978D01*
X92878132Y-84725592D01*
X92879965Y-84725461D01*
X92886580Y-84721210D01*
X93915419Y-83692371D01*
X93921803Y-83680681D01*
X93912391Y-83668570D01*
X93775593Y-83573670D01*
X93767565Y-83568942D01*
X93541593Y-83457505D01*
X93532960Y-83454017D01*
X93292998Y-83377205D01*
X93283938Y-83375029D01*
X93035260Y-83334529D01*
X93025973Y-83333717D01*
X92774053Y-83330419D01*
X92764742Y-83330989D01*
X92515097Y-83364964D01*
X92505978Y-83366902D01*
X92264098Y-83437404D01*
X92255367Y-83440667D01*
X92026558Y-83546151D01*
X92018406Y-83550670D01*
X91839353Y-83668062D01*
X91830216Y-83678803D01*
X88840344Y-83678803D01*
X88832391Y-83668570D01*
X88695593Y-83573670D01*
X88687565Y-83568942D01*
X88461593Y-83457505D01*
X88452960Y-83454017D01*
X88212998Y-83377205D01*
X88203938Y-83375029D01*
X87955260Y-83334529D01*
X87945973Y-83333717D01*
X87694053Y-83330419D01*
X87684742Y-83330989D01*
X87435097Y-83364964D01*
X87425978Y-83366902D01*
X87184098Y-83437404D01*
X87175367Y-83440667D01*
X86946558Y-83546151D01*
X86938406Y-83550670D01*
X86759353Y-83668062D01*
X86750216Y-83678803D01*
X86360000Y-83678803D01*
X86360000Y-82422500D01*
X86380002Y-82354379D01*
X86433658Y-82307886D01*
X86486000Y-82296500D01*
X136238315Y-82296500D01*
X136306436Y-82316502D01*
G37*
%TD.AperFunction*%
%TD*%
M02*
