M48
; DRILL file {KiCad (6.0.7)} date Sat Nov 19 04:13:58 2022
; FORMAT={-:-/ absolute / inch / decimal}
; #@! TF.CreationDate,2022-11-19T04:13:58-05:00
; #@! TF.GenerationSoftware,Kicad,Pcbnew,(6.0.7)
; #@! TF.FileFunction,Plated,1,4,PTH
FMAT,2
INCH
; #@! TA.AperFunction,Plated,PTH,ViaDrill
T1C0.0157
; #@! TA.AperFunction,Plated,PTH,ComponentDrill
T2C0.0236
; #@! TA.AperFunction,Plated,PTH,ComponentDrill
T3C0.0394
; #@! TA.AperFunction,Plated,PTH,ComponentDrill
T4C0.0591
; #@! TA.AperFunction,Plated,PTH,ComponentDrill
T5C0.0669
%
G90
G05
T1
X3.488Y-3.762
X3.542Y-4.2492
X3.568Y-3.762
X3.654Y-3.45
X3.7935Y-3.766
X3.81Y-3.826
X3.934Y-3.372
X3.996Y-3.768
X4.006Y-4.2335
X4.03Y-3.464
X4.104Y-3.952
X4.154Y-4.06
X4.186Y-3.77
X4.204Y-3.956
X4.2065Y-4.0575
X4.252Y-4.024
X4.312Y-4.176
X4.3233Y-3.8453
X4.3467Y-4.0503
X4.364Y-3.698
X4.364Y-3.776
X4.396Y-3.588
X4.45Y-3.398
X4.454Y-4.2335
X4.458Y-4.098
X4.47Y-3.968
X4.48Y-4.1437
X4.4938Y-4.2335
X4.545Y-4.055
X4.548Y-3.744
X4.5575Y-3.8675
X4.58Y-3.602
X4.612Y-3.87
X4.6308Y-4.0275
X4.6344Y-4.0667
X4.6432Y-3.7932
X4.678Y-3.608
X4.686Y-4.194
X4.702Y-3.536
X4.704Y-3.736
X4.73Y-3.866
X4.732Y-3.926
X4.736Y-4.062
X4.7752Y-4.0648
X4.778Y-4.272
X4.814Y-3.524
X4.824Y-3.914
X4.834Y-3.768
X4.856Y-3.524
X4.868Y-3.414
X4.8734Y-3.768
X4.9005Y-3.7365
X4.906Y-3.864
X4.908Y-3.946
X4.922Y-3.626
X4.9358Y-3.9738
X4.99Y-3.538
X5.052Y-3.722
X5.096Y-3.964
X5.18Y-3.788
X5.19Y-4.1373
X5.204Y-3.29
X5.206Y-3.47
X5.2085Y-3.6985
X5.34Y-4.15
X5.384Y-3.272
T3
X3.4594Y-4.3678
X3.5594Y-4.3678
X3.6594Y-4.3678
X3.8794Y-4.3728
X3.9794Y-4.3728
X4.0794Y-4.3728
X4.17Y-3.51
X4.27Y-3.51
X4.3094Y-4.37
X4.4094Y-4.37
X4.5094Y-4.37
X4.7494Y-4.37
X4.8494Y-4.37
X4.9494Y-4.37
X5.0396Y-4.045
X5.04Y-4.205
X5.1396Y-4.045
X5.14Y-4.205
X5.17Y-4.37
X5.2396Y-4.045
X5.24Y-4.205
X5.27Y-4.37
X5.3396Y-4.045
X5.34Y-4.205
X5.37Y-4.37
T4
X3.5566Y-3.45
T5
X3.4566Y-3.35
X3.4566Y-3.55
X3.6566Y-3.35
X3.6566Y-3.55
T2
G00X5.1351Y-3.5699
M15
G01X5.1784Y-3.5699
M16
G05
G00X5.1351Y-3.9101
M15
G01X5.1784Y-3.9101
M16
G05
G00X5.3095Y-3.5699
M15
G01X5.3331Y-3.5699
M16
G05
G00X5.3095Y-3.9101
M15
G01X5.3331Y-3.9101
M16
G05
T0
M30
