%TF.GenerationSoftware,KiCad,Pcbnew,(6.0.7)*%
%TF.CreationDate,2022-09-25T04:10:57-04:00*%
%TF.ProjectId,PicoPilot,5069636f-5069-46c6-9f74-2e6b69636164,rev?*%
%TF.SameCoordinates,Original*%
%TF.FileFunction,Legend,Top*%
%TF.FilePolarity,Positive*%
%FSLAX46Y46*%
G04 Gerber Fmt 4.6, Leading zero omitted, Abs format (unit mm)*
G04 Created by KiCad (PCBNEW (6.0.7)) date 2022-09-25 04:10:57*
%MOMM*%
%LPD*%
G01*
G04 APERTURE LIST*
%ADD10C,0.125000*%
%ADD11C,0.300000*%
%ADD12C,0.175000*%
%ADD13C,0.150000*%
%ADD14C,0.120000*%
G04 APERTURE END LIST*
D10*
X159004047Y-147705000D02*
X158956428Y-147681190D01*
X158885000Y-147681190D01*
X158813571Y-147705000D01*
X158765952Y-147752619D01*
X158742142Y-147800238D01*
X158718333Y-147895476D01*
X158718333Y-147966904D01*
X158742142Y-148062142D01*
X158765952Y-148109761D01*
X158813571Y-148157380D01*
X158885000Y-148181190D01*
X158932619Y-148181190D01*
X159004047Y-148157380D01*
X159027857Y-148133571D01*
X159027857Y-147966904D01*
X158932619Y-147966904D01*
X159242142Y-148181190D02*
X159242142Y-147681190D01*
X159527857Y-148181190D01*
X159527857Y-147681190D01*
X159765952Y-148181190D02*
X159765952Y-147681190D01*
X159885000Y-147681190D01*
X159956428Y-147705000D01*
X160004047Y-147752619D01*
X160027857Y-147800238D01*
X160051666Y-147895476D01*
X160051666Y-147966904D01*
X160027857Y-148062142D01*
X160004047Y-148109761D01*
X159956428Y-148157380D01*
X159885000Y-148181190D01*
X159765952Y-148181190D01*
X148844047Y-147705000D02*
X148796428Y-147681190D01*
X148725000Y-147681190D01*
X148653571Y-147705000D01*
X148605952Y-147752619D01*
X148582142Y-147800238D01*
X148558333Y-147895476D01*
X148558333Y-147966904D01*
X148582142Y-148062142D01*
X148605952Y-148109761D01*
X148653571Y-148157380D01*
X148725000Y-148181190D01*
X148772619Y-148181190D01*
X148844047Y-148157380D01*
X148867857Y-148133571D01*
X148867857Y-147966904D01*
X148772619Y-147966904D01*
X149082142Y-148181190D02*
X149082142Y-147681190D01*
X149367857Y-148181190D01*
X149367857Y-147681190D01*
X149605952Y-148181190D02*
X149605952Y-147681190D01*
X149725000Y-147681190D01*
X149796428Y-147705000D01*
X149844047Y-147752619D01*
X149867857Y-147800238D01*
X149891666Y-147895476D01*
X149891666Y-147966904D01*
X149867857Y-148062142D01*
X149844047Y-148109761D01*
X149796428Y-148157380D01*
X149725000Y-148181190D01*
X149605952Y-148181190D01*
X138684047Y-147705000D02*
X138636428Y-147681190D01*
X138565000Y-147681190D01*
X138493571Y-147705000D01*
X138445952Y-147752619D01*
X138422142Y-147800238D01*
X138398333Y-147895476D01*
X138398333Y-147966904D01*
X138422142Y-148062142D01*
X138445952Y-148109761D01*
X138493571Y-148157380D01*
X138565000Y-148181190D01*
X138612619Y-148181190D01*
X138684047Y-148157380D01*
X138707857Y-148133571D01*
X138707857Y-147966904D01*
X138612619Y-147966904D01*
X138922142Y-148181190D02*
X138922142Y-147681190D01*
X139207857Y-148181190D01*
X139207857Y-147681190D01*
X139445952Y-148181190D02*
X139445952Y-147681190D01*
X139565000Y-147681190D01*
X139636428Y-147705000D01*
X139684047Y-147752619D01*
X139707857Y-147800238D01*
X139731666Y-147895476D01*
X139731666Y-147966904D01*
X139707857Y-148062142D01*
X139684047Y-148109761D01*
X139636428Y-148157380D01*
X139565000Y-148181190D01*
X139445952Y-148181190D01*
X128651047Y-147705000D02*
X128603428Y-147681190D01*
X128532000Y-147681190D01*
X128460571Y-147705000D01*
X128412952Y-147752619D01*
X128389142Y-147800238D01*
X128365333Y-147895476D01*
X128365333Y-147966904D01*
X128389142Y-148062142D01*
X128412952Y-148109761D01*
X128460571Y-148157380D01*
X128532000Y-148181190D01*
X128579619Y-148181190D01*
X128651047Y-148157380D01*
X128674857Y-148133571D01*
X128674857Y-147966904D01*
X128579619Y-147966904D01*
X128889142Y-148181190D02*
X128889142Y-147681190D01*
X129174857Y-148181190D01*
X129174857Y-147681190D01*
X129412952Y-148181190D02*
X129412952Y-147681190D01*
X129532000Y-147681190D01*
X129603428Y-147705000D01*
X129651047Y-147752619D01*
X129674857Y-147800238D01*
X129698666Y-147895476D01*
X129698666Y-147966904D01*
X129674857Y-148062142D01*
X129651047Y-148109761D01*
X129603428Y-148157380D01*
X129532000Y-148181190D01*
X129412952Y-148181190D01*
X118491047Y-147578000D02*
X118443428Y-147554190D01*
X118372000Y-147554190D01*
X118300571Y-147578000D01*
X118252952Y-147625619D01*
X118229142Y-147673238D01*
X118205333Y-147768476D01*
X118205333Y-147839904D01*
X118229142Y-147935142D01*
X118252952Y-147982761D01*
X118300571Y-148030380D01*
X118372000Y-148054190D01*
X118419619Y-148054190D01*
X118491047Y-148030380D01*
X118514857Y-148006571D01*
X118514857Y-147839904D01*
X118419619Y-147839904D01*
X118729142Y-148054190D02*
X118729142Y-147554190D01*
X119014857Y-148054190D01*
X119014857Y-147554190D01*
X119252952Y-148054190D02*
X119252952Y-147554190D01*
X119372000Y-147554190D01*
X119443428Y-147578000D01*
X119491047Y-147625619D01*
X119514857Y-147673238D01*
X119538666Y-147768476D01*
X119538666Y-147839904D01*
X119514857Y-147935142D01*
X119491047Y-147982761D01*
X119443428Y-148030380D01*
X119372000Y-148054190D01*
X119252952Y-148054190D01*
D11*
X167048571Y-109211857D02*
X165548571Y-109211857D01*
X167048571Y-108497571D02*
X165548571Y-108497571D01*
X166620000Y-107997571D01*
X165548571Y-107497571D01*
X167048571Y-107497571D01*
X165548571Y-106783285D02*
X166762857Y-106783285D01*
X166905714Y-106711857D01*
X166977142Y-106640428D01*
X167048571Y-106497571D01*
X167048571Y-106211857D01*
X166977142Y-106069000D01*
X166905714Y-105997571D01*
X166762857Y-105926142D01*
X165548571Y-105926142D01*
X166667571Y-90665857D02*
X165167571Y-90665857D01*
X166239000Y-90165857D01*
X165167571Y-89665857D01*
X166667571Y-89665857D01*
X166239000Y-89023000D02*
X166239000Y-88308714D01*
X166667571Y-89165857D02*
X165167571Y-88665857D01*
X166667571Y-88165857D01*
X165239000Y-86880142D02*
X165167571Y-87023000D01*
X165167571Y-87237285D01*
X165239000Y-87451571D01*
X165381857Y-87594428D01*
X165524714Y-87665857D01*
X165810428Y-87737285D01*
X166024714Y-87737285D01*
X166310428Y-87665857D01*
X166453285Y-87594428D01*
X166596142Y-87451571D01*
X166667571Y-87237285D01*
X166667571Y-87094428D01*
X166596142Y-86880142D01*
X166524714Y-86808714D01*
X166024714Y-86808714D01*
X166024714Y-87094428D01*
D12*
X179696000Y-123312666D02*
X179596000Y-123279333D01*
X179429333Y-123279333D01*
X179362666Y-123312666D01*
X179329333Y-123346000D01*
X179296000Y-123412666D01*
X179296000Y-123479333D01*
X179329333Y-123546000D01*
X179362666Y-123579333D01*
X179429333Y-123612666D01*
X179562666Y-123646000D01*
X179629333Y-123679333D01*
X179662666Y-123712666D01*
X179696000Y-123779333D01*
X179696000Y-123846000D01*
X179662666Y-123912666D01*
X179629333Y-123946000D01*
X179562666Y-123979333D01*
X179396000Y-123979333D01*
X179296000Y-123946000D01*
X178996000Y-123279333D02*
X178996000Y-123979333D01*
X178829333Y-123979333D01*
X178729333Y-123946000D01*
X178662666Y-123879333D01*
X178629333Y-123812666D01*
X178596000Y-123679333D01*
X178596000Y-123579333D01*
X178629333Y-123446000D01*
X178662666Y-123379333D01*
X178729333Y-123312666D01*
X178829333Y-123279333D01*
X178996000Y-123279333D01*
X177896000Y-123346000D02*
X177929333Y-123312666D01*
X178029333Y-123279333D01*
X178096000Y-123279333D01*
X178196000Y-123312666D01*
X178262666Y-123379333D01*
X178296000Y-123446000D01*
X178329333Y-123579333D01*
X178329333Y-123679333D01*
X178296000Y-123812666D01*
X178262666Y-123879333D01*
X178196000Y-123946000D01*
X178096000Y-123979333D01*
X178029333Y-123979333D01*
X177929333Y-123946000D01*
X177896000Y-123912666D01*
X176979000Y-123312666D02*
X176879000Y-123279333D01*
X176712333Y-123279333D01*
X176645666Y-123312666D01*
X176612333Y-123346000D01*
X176579000Y-123412666D01*
X176579000Y-123479333D01*
X176612333Y-123546000D01*
X176645666Y-123579333D01*
X176712333Y-123612666D01*
X176845666Y-123646000D01*
X176912333Y-123679333D01*
X176945666Y-123712666D01*
X176979000Y-123779333D01*
X176979000Y-123846000D01*
X176945666Y-123912666D01*
X176912333Y-123946000D01*
X176845666Y-123979333D01*
X176679000Y-123979333D01*
X176579000Y-123946000D01*
X176279000Y-123279333D02*
X176279000Y-123979333D01*
X176112333Y-123979333D01*
X176012333Y-123946000D01*
X175945666Y-123879333D01*
X175912333Y-123812666D01*
X175879000Y-123679333D01*
X175879000Y-123579333D01*
X175912333Y-123446000D01*
X175945666Y-123379333D01*
X176012333Y-123312666D01*
X176112333Y-123279333D01*
X176279000Y-123279333D01*
X175612333Y-123479333D02*
X175279000Y-123479333D01*
X175679000Y-123279333D02*
X175445666Y-123979333D01*
X175212333Y-123279333D01*
D13*
X175514095Y-125563380D02*
X176085523Y-125563380D01*
X175799809Y-126563380D02*
X175799809Y-125563380D01*
X176323619Y-125563380D02*
X176990285Y-126563380D01*
X176990285Y-125563380D02*
X176323619Y-126563380D01*
X164663428Y-146557952D02*
X164663428Y-145796047D01*
X165044380Y-146177000D02*
X164282476Y-146177000D01*
X167639952Y-146232571D02*
X166878047Y-146232571D01*
X178649333Y-126563380D02*
X178316000Y-126087190D01*
X178077904Y-126563380D02*
X178077904Y-125563380D01*
X178458857Y-125563380D01*
X178554095Y-125611000D01*
X178601714Y-125658619D01*
X178649333Y-125753857D01*
X178649333Y-125896714D01*
X178601714Y-125991952D01*
X178554095Y-126039571D01*
X178458857Y-126087190D01*
X178077904Y-126087190D01*
X178982666Y-125563380D02*
X179649333Y-126563380D01*
X179649333Y-125563380D02*
X178982666Y-126563380D01*
%TO.C,*%
%TO.C,P7*%
X181915380Y-122286190D02*
X180915380Y-122286190D01*
X181010619Y-121857619D02*
X180963000Y-121810000D01*
X180915380Y-121714761D01*
X180915380Y-121476666D01*
X180963000Y-121381428D01*
X181010619Y-121333809D01*
X181105857Y-121286190D01*
X181201095Y-121286190D01*
X181343952Y-121333809D01*
X181915380Y-121905238D01*
X181915380Y-121286190D01*
X181820142Y-120286190D02*
X181867761Y-120333809D01*
X181915380Y-120476666D01*
X181915380Y-120571904D01*
X181867761Y-120714761D01*
X181772523Y-120810000D01*
X181677285Y-120857619D01*
X181486809Y-120905238D01*
X181343952Y-120905238D01*
X181153476Y-120857619D01*
X181058238Y-120810000D01*
X180963000Y-120714761D01*
X180915380Y-120571904D01*
X180915380Y-120476666D01*
X180963000Y-120333809D01*
X181010619Y-120286190D01*
%TO.C,J7*%
X162607666Y-96631380D02*
X162607666Y-97345666D01*
X162560047Y-97488523D01*
X162464809Y-97583761D01*
X162321952Y-97631380D01*
X162226714Y-97631380D01*
X162988619Y-96631380D02*
X163655285Y-96631380D01*
X163226714Y-97631380D01*
%TO.C,J4*%
X110230380Y-87176333D02*
X110944666Y-87176333D01*
X111087523Y-87223952D01*
X111182761Y-87319190D01*
X111230380Y-87462047D01*
X111230380Y-87557285D01*
X110563714Y-86271571D02*
X111230380Y-86271571D01*
X110182761Y-86509666D02*
X110897047Y-86747761D01*
X110897047Y-86128714D01*
X123390380Y-88295380D02*
X123390380Y-88104904D01*
X123438000Y-88009666D01*
X123533238Y-87914428D01*
X123723714Y-87866809D01*
X124057047Y-87866809D01*
X124247523Y-87914428D01*
X124342761Y-88009666D01*
X124390380Y-88104904D01*
X124390380Y-88295380D01*
X124342761Y-88390619D01*
X124247523Y-88485857D01*
X124057047Y-88533476D01*
X123723714Y-88533476D01*
X123533238Y-88485857D01*
X123438000Y-88390619D01*
X123390380Y-88295380D01*
X124390380Y-86962047D02*
X124390380Y-87438238D01*
X123390380Y-87438238D01*
X123866571Y-86628714D02*
X123866571Y-86295380D01*
X124390380Y-86152523D02*
X124390380Y-86628714D01*
X123390380Y-86628714D01*
X123390380Y-86152523D01*
X124390380Y-85723952D02*
X123390380Y-85723952D01*
X123390380Y-85485857D01*
X123438000Y-85343000D01*
X123533238Y-85247761D01*
X123628476Y-85200142D01*
X123818952Y-85152523D01*
X123961809Y-85152523D01*
X124152285Y-85200142D01*
X124247523Y-85247761D01*
X124342761Y-85343000D01*
X124390380Y-85485857D01*
X124390380Y-85723952D01*
%TO.C,J2*%
X180940380Y-129738238D02*
X181749904Y-129738238D01*
X181845142Y-129690619D01*
X181892761Y-129643000D01*
X181940380Y-129547761D01*
X181940380Y-129357285D01*
X181892761Y-129262047D01*
X181845142Y-129214428D01*
X181749904Y-129166809D01*
X180940380Y-129166809D01*
X181654666Y-128738238D02*
X181654666Y-128262047D01*
X181940380Y-128833476D02*
X180940380Y-128500142D01*
X181940380Y-128166809D01*
X181940380Y-127262047D02*
X181464190Y-127595380D01*
X181940380Y-127833476D02*
X180940380Y-127833476D01*
X180940380Y-127452523D01*
X180988000Y-127357285D01*
X181035619Y-127309666D01*
X181130857Y-127262047D01*
X181273714Y-127262047D01*
X181368952Y-127309666D01*
X181416571Y-127357285D01*
X181464190Y-127452523D01*
X181464190Y-127833476D01*
X180940380Y-126976333D02*
X180940380Y-126404904D01*
X181940380Y-126690619D02*
X180940380Y-126690619D01*
%TO.C,P5*%
X121879380Y-147607095D02*
X120879380Y-147607095D01*
X120879380Y-147226142D01*
X120927000Y-147130904D01*
X120974619Y-147083285D01*
X121069857Y-147035666D01*
X121212714Y-147035666D01*
X121307952Y-147083285D01*
X121355571Y-147130904D01*
X121403190Y-147226142D01*
X121403190Y-147607095D01*
X120879380Y-146130904D02*
X120879380Y-146607095D01*
X121355571Y-146654714D01*
X121307952Y-146607095D01*
X121260333Y-146511857D01*
X121260333Y-146273761D01*
X121307952Y-146178523D01*
X121355571Y-146130904D01*
X121450809Y-146083285D01*
X121688904Y-146083285D01*
X121784142Y-146130904D01*
X121831761Y-146178523D01*
X121879380Y-146273761D01*
X121879380Y-146511857D01*
X121831761Y-146607095D01*
X121784142Y-146654714D01*
X114451047Y-143708380D02*
X114451047Y-142708380D01*
X114832000Y-142708380D01*
X114927238Y-142756000D01*
X114974857Y-142803619D01*
X115022476Y-142898857D01*
X115022476Y-143041714D01*
X114974857Y-143136952D01*
X114927238Y-143184571D01*
X114832000Y-143232190D01*
X114451047Y-143232190D01*
X115355809Y-142708380D02*
X115593904Y-143708380D01*
X115784380Y-142994095D01*
X115974857Y-143708380D01*
X116212952Y-142708380D01*
X116593904Y-143708380D02*
X116593904Y-142708380D01*
X116927238Y-143422666D01*
X117260571Y-142708380D01*
X117260571Y-143708380D01*
X118212952Y-142708380D02*
X117736761Y-142708380D01*
X117689142Y-143184571D01*
X117736761Y-143136952D01*
X117832000Y-143089333D01*
X118070095Y-143089333D01*
X118165333Y-143136952D01*
X118212952Y-143184571D01*
X118260571Y-143279809D01*
X118260571Y-143517904D01*
X118212952Y-143613142D01*
X118165333Y-143660761D01*
X118070095Y-143708380D01*
X117832000Y-143708380D01*
X117736761Y-143660761D01*
X117689142Y-143613142D01*
%TO.C,P1*%
X162504380Y-147550095D02*
X161504380Y-147550095D01*
X161504380Y-147169142D01*
X161552000Y-147073904D01*
X161599619Y-147026285D01*
X161694857Y-146978666D01*
X161837714Y-146978666D01*
X161932952Y-147026285D01*
X161980571Y-147073904D01*
X162028190Y-147169142D01*
X162028190Y-147550095D01*
X162504380Y-146026285D02*
X162504380Y-146597714D01*
X162504380Y-146312000D02*
X161504380Y-146312000D01*
X161647238Y-146407238D01*
X161742476Y-146502476D01*
X161790095Y-146597714D01*
X155218047Y-143581380D02*
X155218047Y-142581380D01*
X155599000Y-142581380D01*
X155694238Y-142629000D01*
X155741857Y-142676619D01*
X155789476Y-142771857D01*
X155789476Y-142914714D01*
X155741857Y-143009952D01*
X155694238Y-143057571D01*
X155599000Y-143105190D01*
X155218047Y-143105190D01*
X156122809Y-142581380D02*
X156360904Y-143581380D01*
X156551380Y-142867095D01*
X156741857Y-143581380D01*
X156979952Y-142581380D01*
X157360904Y-143581380D02*
X157360904Y-142581380D01*
X157694238Y-143295666D01*
X158027571Y-142581380D01*
X158027571Y-143581380D01*
X159027571Y-143581380D02*
X158456142Y-143581380D01*
X158741857Y-143581380D02*
X158741857Y-142581380D01*
X158646619Y-142724238D01*
X158551380Y-142819476D01*
X158456142Y-142867095D01*
%TO.C,P2*%
X152344380Y-147550095D02*
X151344380Y-147550095D01*
X151344380Y-147169142D01*
X151392000Y-147073904D01*
X151439619Y-147026285D01*
X151534857Y-146978666D01*
X151677714Y-146978666D01*
X151772952Y-147026285D01*
X151820571Y-147073904D01*
X151868190Y-147169142D01*
X151868190Y-147550095D01*
X151439619Y-146597714D02*
X151392000Y-146550095D01*
X151344380Y-146454857D01*
X151344380Y-146216761D01*
X151392000Y-146121523D01*
X151439619Y-146073904D01*
X151534857Y-146026285D01*
X151630095Y-146026285D01*
X151772952Y-146073904D01*
X152344380Y-146645333D01*
X152344380Y-146026285D01*
X144931047Y-143581380D02*
X144931047Y-142581380D01*
X145312000Y-142581380D01*
X145407238Y-142629000D01*
X145454857Y-142676619D01*
X145502476Y-142771857D01*
X145502476Y-142914714D01*
X145454857Y-143009952D01*
X145407238Y-143057571D01*
X145312000Y-143105190D01*
X144931047Y-143105190D01*
X145835809Y-142581380D02*
X146073904Y-143581380D01*
X146264380Y-142867095D01*
X146454857Y-143581380D01*
X146692952Y-142581380D01*
X147073904Y-143581380D02*
X147073904Y-142581380D01*
X147407238Y-143295666D01*
X147740571Y-142581380D01*
X147740571Y-143581380D01*
X148169142Y-142676619D02*
X148216761Y-142629000D01*
X148312000Y-142581380D01*
X148550095Y-142581380D01*
X148645333Y-142629000D01*
X148692952Y-142676619D01*
X148740571Y-142771857D01*
X148740571Y-142867095D01*
X148692952Y-143009952D01*
X148121523Y-143581380D01*
X148740571Y-143581380D01*
%TO.C,P6*%
X165846142Y-144486380D02*
X165369952Y-144486380D01*
X165322333Y-144962571D01*
X165369952Y-144914952D01*
X165465190Y-144867333D01*
X165703285Y-144867333D01*
X165798523Y-144914952D01*
X165846142Y-144962571D01*
X165893761Y-145057809D01*
X165893761Y-145295904D01*
X165846142Y-145391142D01*
X165798523Y-145438761D01*
X165703285Y-145486380D01*
X165465190Y-145486380D01*
X165369952Y-145438761D01*
X165322333Y-145391142D01*
X166227095Y-144819714D02*
X166465190Y-145486380D01*
X166703285Y-144819714D01*
%TO.C,*%
%TO.C,U1*%
X129500380Y-127761904D02*
X130309904Y-127761904D01*
X130405142Y-127714285D01*
X130452761Y-127666666D01*
X130500380Y-127571428D01*
X130500380Y-127380952D01*
X130452761Y-127285714D01*
X130405142Y-127238095D01*
X130309904Y-127190476D01*
X129500380Y-127190476D01*
X130500380Y-126190476D02*
X130500380Y-126761904D01*
X130500380Y-126476190D02*
X129500380Y-126476190D01*
X129643238Y-126571428D01*
X129738476Y-126666666D01*
X129786095Y-126761904D01*
X144408592Y-114902277D02*
X144435529Y-114983089D01*
X144516341Y-115063902D01*
X144624091Y-115117776D01*
X144731841Y-115117776D01*
X144812653Y-115090839D01*
X144947340Y-115010027D01*
X145028152Y-114929215D01*
X145108964Y-114794528D01*
X145135902Y-114713715D01*
X145135902Y-114605966D01*
X145082027Y-114498216D01*
X145028152Y-114444341D01*
X144920402Y-114390467D01*
X144866528Y-114390467D01*
X144677966Y-114579028D01*
X144785715Y-114686778D01*
X144677966Y-114094155D02*
X144112280Y-114659841D01*
X143896781Y-114444341D01*
X143869844Y-114363529D01*
X143869844Y-114309654D01*
X143896781Y-114228842D01*
X143977593Y-114148030D01*
X144058406Y-114121093D01*
X144112280Y-114121093D01*
X144193093Y-114148030D01*
X144408592Y-114363529D01*
X143815969Y-113232158D02*
X144139218Y-113555407D01*
X143977593Y-113393783D02*
X143411908Y-113959468D01*
X143546595Y-113932531D01*
X143654345Y-113932531D01*
X143735157Y-113959468D01*
X143546595Y-112962784D02*
X143438845Y-112855035D01*
X143358033Y-112828097D01*
X143304158Y-112828097D01*
X143169471Y-112855035D01*
X143034784Y-112935847D01*
X142819285Y-113151346D01*
X142792348Y-113232158D01*
X142792348Y-113286033D01*
X142819285Y-113366845D01*
X142927035Y-113474595D01*
X143007847Y-113501532D01*
X143061722Y-113501532D01*
X143142534Y-113474595D01*
X143277221Y-113339908D01*
X143304158Y-113259096D01*
X143304158Y-113205221D01*
X143277221Y-113124409D01*
X143169471Y-113016659D01*
X143088659Y-112989722D01*
X143034784Y-112989722D01*
X142953972Y-113016659D01*
X108569218Y-140586903D02*
X108596155Y-140667715D01*
X108676967Y-140748528D01*
X108784717Y-140802402D01*
X108892467Y-140802402D01*
X108973279Y-140775465D01*
X109107966Y-140694653D01*
X109188778Y-140613841D01*
X109269590Y-140479154D01*
X109296528Y-140398341D01*
X109296528Y-140290592D01*
X109242653Y-140182842D01*
X109188778Y-140128967D01*
X109081028Y-140075093D01*
X109027154Y-140075093D01*
X108838592Y-140263654D01*
X108946341Y-140371404D01*
X108838592Y-139778781D02*
X108272906Y-140344467D01*
X108057407Y-140128967D01*
X108030470Y-140048155D01*
X108030470Y-139994280D01*
X108057407Y-139913468D01*
X108138219Y-139832656D01*
X108219032Y-139805719D01*
X108272906Y-139805719D01*
X108353719Y-139832656D01*
X108569218Y-140048155D01*
X107976595Y-138916784D02*
X108299844Y-139240033D01*
X108138219Y-139078409D02*
X107572534Y-139644094D01*
X107707221Y-139617157D01*
X107814971Y-139617157D01*
X107895783Y-139644094D01*
X124788964Y-114848402D02*
X124519590Y-114579028D01*
X125004463Y-114740653D02*
X124250216Y-115117776D01*
X124627340Y-114363529D01*
X123603719Y-114417404D02*
X123630656Y-114498216D01*
X123711468Y-114579028D01*
X123819218Y-114632903D01*
X123926967Y-114632903D01*
X124007780Y-114605966D01*
X124142467Y-114525154D01*
X124223279Y-114444341D01*
X124304091Y-114309654D01*
X124331028Y-114228842D01*
X124331028Y-114121093D01*
X124277154Y-114013343D01*
X124223279Y-113959468D01*
X124115529Y-113905593D01*
X124061654Y-113905593D01*
X123873093Y-114094155D01*
X123980842Y-114201905D01*
X123873093Y-113609282D02*
X123307407Y-114174967D01*
X123549844Y-113286033D01*
X122984158Y-113851719D01*
X123280470Y-113016659D02*
X122714784Y-113582345D01*
X122580097Y-113447658D01*
X122526223Y-113339908D01*
X122526223Y-113232158D01*
X122553160Y-113151346D01*
X122633972Y-113016659D01*
X122714784Y-112935847D01*
X122849471Y-112855035D01*
X122930284Y-112828097D01*
X123038033Y-112828097D01*
X123145783Y-112881972D01*
X123280470Y-113016659D01*
X106575309Y-115046870D02*
X106952433Y-114292622D01*
X106198186Y-114669746D01*
X106090436Y-114023248D02*
X106036561Y-113915499D01*
X106036561Y-113861624D01*
X106063499Y-113780812D01*
X106144311Y-113700000D01*
X106225123Y-113673062D01*
X106278998Y-113673062D01*
X106359810Y-113700000D01*
X106575309Y-113915499D01*
X106009624Y-114481184D01*
X105821062Y-114292622D01*
X105794125Y-114211810D01*
X105794125Y-114157935D01*
X105821062Y-114077123D01*
X105874937Y-114023248D01*
X105955749Y-113996311D01*
X106009624Y-113996311D01*
X106090436Y-114023248D01*
X106278998Y-114211810D01*
X105443938Y-113915499D02*
X105901874Y-113457563D01*
X105928812Y-113376751D01*
X105928812Y-113322876D01*
X105901874Y-113242064D01*
X105794125Y-113134314D01*
X105713312Y-113107377D01*
X105659438Y-113107377D01*
X105578625Y-113134314D01*
X105120690Y-113592250D01*
X105417001Y-112811065D02*
X105363126Y-112703316D01*
X105228439Y-112568629D01*
X105147627Y-112541691D01*
X105093752Y-112541691D01*
X105012940Y-112568629D01*
X104959065Y-112622503D01*
X104932128Y-112703316D01*
X104932128Y-112757190D01*
X104959065Y-112838003D01*
X105039877Y-112972690D01*
X105066815Y-113053502D01*
X105066815Y-113107377D01*
X105039877Y-113188189D01*
X104986003Y-113242064D01*
X104905190Y-113269001D01*
X104851316Y-113269001D01*
X104770503Y-113242064D01*
X104635816Y-113107377D01*
X104581942Y-112999627D01*
X146948592Y-114902277D02*
X146975529Y-114983089D01*
X147056341Y-115063902D01*
X147164091Y-115117776D01*
X147271841Y-115117776D01*
X147352653Y-115090839D01*
X147487340Y-115010027D01*
X147568152Y-114929215D01*
X147648964Y-114794528D01*
X147675902Y-114713715D01*
X147675902Y-114605966D01*
X147622027Y-114498216D01*
X147568152Y-114444341D01*
X147460402Y-114390467D01*
X147406528Y-114390467D01*
X147217966Y-114579028D01*
X147325715Y-114686778D01*
X147217966Y-114094155D02*
X146652280Y-114659841D01*
X146436781Y-114444341D01*
X146409844Y-114363529D01*
X146409844Y-114309654D01*
X146436781Y-114228842D01*
X146517593Y-114148030D01*
X146598406Y-114121093D01*
X146652280Y-114121093D01*
X146733093Y-114148030D01*
X146948592Y-114363529D01*
X146355969Y-113232158D02*
X146679218Y-113555407D01*
X146517593Y-113393783D02*
X145951908Y-113959468D01*
X146086595Y-113932531D01*
X146194345Y-113932531D01*
X146275157Y-113959468D01*
X145709471Y-113232158D02*
X145736409Y-113312971D01*
X145736409Y-113366845D01*
X145709471Y-113447658D01*
X145682534Y-113474595D01*
X145601722Y-113501532D01*
X145547847Y-113501532D01*
X145467035Y-113474595D01*
X145359285Y-113366845D01*
X145332348Y-113286033D01*
X145332348Y-113232158D01*
X145359285Y-113151346D01*
X145386223Y-113124409D01*
X145467035Y-113097471D01*
X145520910Y-113097471D01*
X145601722Y-113124409D01*
X145709471Y-113232158D01*
X145790284Y-113259096D01*
X145844158Y-113259096D01*
X145924971Y-113232158D01*
X146032720Y-113124409D01*
X146059658Y-113043597D01*
X146059658Y-112989722D01*
X146032720Y-112908910D01*
X145924971Y-112801160D01*
X145844158Y-112774223D01*
X145790284Y-112774223D01*
X145709471Y-112801160D01*
X145601722Y-112908910D01*
X145574784Y-112989722D01*
X145574784Y-113043597D01*
X145601722Y-113124409D01*
X154568592Y-114902277D02*
X154595529Y-114983089D01*
X154676341Y-115063902D01*
X154784091Y-115117776D01*
X154891841Y-115117776D01*
X154972653Y-115090839D01*
X155107340Y-115010027D01*
X155188152Y-114929215D01*
X155268964Y-114794528D01*
X155295902Y-114713715D01*
X155295902Y-114605966D01*
X155242027Y-114498216D01*
X155188152Y-114444341D01*
X155080402Y-114390467D01*
X155026528Y-114390467D01*
X154837966Y-114579028D01*
X154945715Y-114686778D01*
X154837966Y-114094155D02*
X154272280Y-114659841D01*
X154056781Y-114444341D01*
X154029844Y-114363529D01*
X154029844Y-114309654D01*
X154056781Y-114228842D01*
X154137593Y-114148030D01*
X154218406Y-114121093D01*
X154272280Y-114121093D01*
X154353093Y-114148030D01*
X154568592Y-114363529D01*
X153975969Y-113232158D02*
X154299218Y-113555407D01*
X154137593Y-113393783D02*
X153571908Y-113959468D01*
X153706595Y-113932531D01*
X153814345Y-113932531D01*
X153895157Y-113959468D01*
X152925410Y-113312971D02*
X153033160Y-113420720D01*
X153113972Y-113447658D01*
X153167847Y-113447658D01*
X153302534Y-113420720D01*
X153437221Y-113339908D01*
X153652720Y-113124409D01*
X153679658Y-113043597D01*
X153679658Y-112989722D01*
X153652720Y-112908910D01*
X153544971Y-112801160D01*
X153464158Y-112774223D01*
X153410284Y-112774223D01*
X153329471Y-112801160D01*
X153194784Y-112935847D01*
X153167847Y-113016659D01*
X153167847Y-113070534D01*
X153194784Y-113151346D01*
X153302534Y-113259096D01*
X153383346Y-113286033D01*
X153437221Y-113286033D01*
X153518033Y-113259096D01*
X111146155Y-140513841D02*
X111173093Y-140594653D01*
X111253905Y-140675465D01*
X111361654Y-140729340D01*
X111469404Y-140729340D01*
X111550216Y-140702402D01*
X111684903Y-140621590D01*
X111765715Y-140540778D01*
X111846528Y-140406091D01*
X111873465Y-140325279D01*
X111873465Y-140217529D01*
X111819590Y-140109780D01*
X111765715Y-140055905D01*
X111657966Y-140002030D01*
X111604091Y-140002030D01*
X111415529Y-140190592D01*
X111523279Y-140298341D01*
X111415529Y-139705719D02*
X110849844Y-140271404D01*
X111092280Y-139382470D01*
X110526595Y-139948155D01*
X110822906Y-139113096D02*
X110257221Y-139678781D01*
X110122534Y-139544094D01*
X110068659Y-139436345D01*
X110068659Y-139328595D01*
X110095597Y-139247783D01*
X110176409Y-139113096D01*
X110257221Y-139032284D01*
X110391908Y-138951471D01*
X110472720Y-138924534D01*
X110580470Y-138924534D01*
X110688219Y-138978409D01*
X110822906Y-139113096D01*
X129168592Y-114902277D02*
X129195529Y-114983089D01*
X129276341Y-115063902D01*
X129384091Y-115117776D01*
X129491841Y-115117776D01*
X129572653Y-115090839D01*
X129707340Y-115010027D01*
X129788152Y-114929215D01*
X129868964Y-114794528D01*
X129895902Y-114713715D01*
X129895902Y-114605966D01*
X129842027Y-114498216D01*
X129788152Y-114444341D01*
X129680402Y-114390467D01*
X129626528Y-114390467D01*
X129437966Y-114579028D01*
X129545715Y-114686778D01*
X129437966Y-114094155D02*
X128872280Y-114659841D01*
X128656781Y-114444341D01*
X128629844Y-114363529D01*
X128629844Y-114309654D01*
X128656781Y-114228842D01*
X128737593Y-114148030D01*
X128818406Y-114121093D01*
X128872280Y-114121093D01*
X128953093Y-114148030D01*
X129168592Y-114363529D01*
X128387407Y-114067218D02*
X128333532Y-114067218D01*
X128252720Y-114040280D01*
X128118033Y-113905593D01*
X128091096Y-113824781D01*
X128091096Y-113770906D01*
X128118033Y-113690094D01*
X128171908Y-113636219D01*
X128279658Y-113582345D01*
X128926155Y-113582345D01*
X128575969Y-113232158D01*
X127525410Y-113312971D02*
X127633160Y-113420720D01*
X127713972Y-113447658D01*
X127767847Y-113447658D01*
X127902534Y-113420720D01*
X128037221Y-113339908D01*
X128252720Y-113124409D01*
X128279658Y-113043597D01*
X128279658Y-112989722D01*
X128252720Y-112908910D01*
X128144971Y-112801160D01*
X128064158Y-112774223D01*
X128010284Y-112774223D01*
X127929471Y-112801160D01*
X127794784Y-112935847D01*
X127767847Y-113016659D01*
X127767847Y-113070534D01*
X127794784Y-113151346D01*
X127902534Y-113259096D01*
X127983346Y-113286033D01*
X128037221Y-113286033D01*
X128118033Y-113259096D01*
X131439218Y-140486903D02*
X131466155Y-140567715D01*
X131546967Y-140648528D01*
X131654717Y-140702402D01*
X131762467Y-140702402D01*
X131843279Y-140675465D01*
X131977966Y-140594653D01*
X132058778Y-140513841D01*
X132139590Y-140379154D01*
X132166528Y-140298341D01*
X132166528Y-140190592D01*
X132112653Y-140082842D01*
X132058778Y-140028967D01*
X131951028Y-139975093D01*
X131897154Y-139975093D01*
X131708592Y-140163654D01*
X131816341Y-140271404D01*
X131708592Y-139678781D02*
X131142906Y-140244467D01*
X130927407Y-140028967D01*
X130900470Y-139948155D01*
X130900470Y-139894280D01*
X130927407Y-139813468D01*
X131008219Y-139732656D01*
X131089032Y-139705719D01*
X131142906Y-139705719D01*
X131223719Y-139732656D01*
X131439218Y-139948155D01*
X130738845Y-139355532D02*
X130765783Y-139436345D01*
X130765783Y-139490219D01*
X130738845Y-139571032D01*
X130711908Y-139597969D01*
X130631096Y-139624906D01*
X130577221Y-139624906D01*
X130496409Y-139597969D01*
X130388659Y-139490219D01*
X130361722Y-139409407D01*
X130361722Y-139355532D01*
X130388659Y-139274720D01*
X130415597Y-139247783D01*
X130496409Y-139220845D01*
X130550284Y-139220845D01*
X130631096Y-139247783D01*
X130738845Y-139355532D01*
X130819658Y-139382470D01*
X130873532Y-139382470D01*
X130954345Y-139355532D01*
X131062094Y-139247783D01*
X131089032Y-139166971D01*
X131089032Y-139113096D01*
X131062094Y-139032284D01*
X130954345Y-138924534D01*
X130873532Y-138897597D01*
X130819658Y-138897597D01*
X130738845Y-138924534D01*
X130631096Y-139032284D01*
X130604158Y-139113096D01*
X130604158Y-139166971D01*
X130631096Y-139247783D01*
X116538592Y-115110152D02*
X116188406Y-114759966D01*
X116592467Y-114733028D01*
X116511654Y-114652216D01*
X116484717Y-114571404D01*
X116484717Y-114517529D01*
X116511654Y-114436717D01*
X116646341Y-114302030D01*
X116727154Y-114275093D01*
X116781028Y-114275093D01*
X116861841Y-114302030D01*
X117023465Y-114463654D01*
X117050402Y-114544467D01*
X117050402Y-114598341D01*
X116026781Y-114598341D02*
X116403905Y-113844094D01*
X115649658Y-114221218D01*
X115514971Y-114086531D02*
X115164784Y-113736345D01*
X115568845Y-113709407D01*
X115488033Y-113628595D01*
X115461096Y-113547783D01*
X115461096Y-113493908D01*
X115488033Y-113413096D01*
X115622720Y-113278409D01*
X115703532Y-113251471D01*
X115757407Y-113251471D01*
X115838219Y-113278409D01*
X115999844Y-113440033D01*
X116026781Y-113520845D01*
X116026781Y-113574720D01*
X133979218Y-140486903D02*
X134006155Y-140567715D01*
X134086967Y-140648528D01*
X134194717Y-140702402D01*
X134302467Y-140702402D01*
X134383279Y-140675465D01*
X134517966Y-140594653D01*
X134598778Y-140513841D01*
X134679590Y-140379154D01*
X134706528Y-140298341D01*
X134706528Y-140190592D01*
X134652653Y-140082842D01*
X134598778Y-140028967D01*
X134491028Y-139975093D01*
X134437154Y-139975093D01*
X134248592Y-140163654D01*
X134356341Y-140271404D01*
X134248592Y-139678781D02*
X133682906Y-140244467D01*
X133467407Y-140028967D01*
X133440470Y-139948155D01*
X133440470Y-139894280D01*
X133467407Y-139813468D01*
X133548219Y-139732656D01*
X133629032Y-139705719D01*
X133682906Y-139705719D01*
X133763719Y-139732656D01*
X133979218Y-139948155D01*
X133655969Y-139086158D02*
X133548219Y-138978409D01*
X133467407Y-138951471D01*
X133413532Y-138951471D01*
X133278845Y-138978409D01*
X133144158Y-139059221D01*
X132928659Y-139274720D01*
X132901722Y-139355532D01*
X132901722Y-139409407D01*
X132928659Y-139490219D01*
X133036409Y-139597969D01*
X133117221Y-139624906D01*
X133171096Y-139624906D01*
X133251908Y-139597969D01*
X133386595Y-139463282D01*
X133413532Y-139382470D01*
X133413532Y-139328595D01*
X133386595Y-139247783D01*
X133278845Y-139140033D01*
X133198033Y-139113096D01*
X133144158Y-139113096D01*
X133063346Y-139140033D01*
X121279218Y-140486903D02*
X121306155Y-140567715D01*
X121386967Y-140648528D01*
X121494717Y-140702402D01*
X121602467Y-140702402D01*
X121683279Y-140675465D01*
X121817966Y-140594653D01*
X121898778Y-140513841D01*
X121979590Y-140379154D01*
X122006528Y-140298341D01*
X122006528Y-140190592D01*
X121952653Y-140082842D01*
X121898778Y-140028967D01*
X121791028Y-139975093D01*
X121737154Y-139975093D01*
X121548592Y-140163654D01*
X121656341Y-140271404D01*
X121548592Y-139678781D02*
X120982906Y-140244467D01*
X120767407Y-140028967D01*
X120740470Y-139948155D01*
X120740470Y-139894280D01*
X120767407Y-139813468D01*
X120848219Y-139732656D01*
X120929032Y-139705719D01*
X120982906Y-139705719D01*
X121063719Y-139732656D01*
X121279218Y-139948155D01*
X120147847Y-139409407D02*
X120417221Y-139678781D01*
X120713532Y-139436345D01*
X120659658Y-139436345D01*
X120578845Y-139409407D01*
X120444158Y-139274720D01*
X120417221Y-139193908D01*
X120417221Y-139140033D01*
X120444158Y-139059221D01*
X120578845Y-138924534D01*
X120659658Y-138897597D01*
X120713532Y-138897597D01*
X120794345Y-138924534D01*
X120929032Y-139059221D01*
X120955969Y-139140033D01*
X120955969Y-139193908D01*
X106039218Y-140486903D02*
X106066155Y-140567715D01*
X106146967Y-140648528D01*
X106254717Y-140702402D01*
X106362467Y-140702402D01*
X106443279Y-140675465D01*
X106577966Y-140594653D01*
X106658778Y-140513841D01*
X106739590Y-140379154D01*
X106766528Y-140298341D01*
X106766528Y-140190592D01*
X106712653Y-140082842D01*
X106658778Y-140028967D01*
X106551028Y-139975093D01*
X106497154Y-139975093D01*
X106308592Y-140163654D01*
X106416341Y-140271404D01*
X106308592Y-139678781D02*
X105742906Y-140244467D01*
X105527407Y-140028967D01*
X105500470Y-139948155D01*
X105500470Y-139894280D01*
X105527407Y-139813468D01*
X105608219Y-139732656D01*
X105689032Y-139705719D01*
X105742906Y-139705719D01*
X105823719Y-139732656D01*
X106039218Y-139948155D01*
X105069471Y-139571032D02*
X105015597Y-139517157D01*
X104988659Y-139436345D01*
X104988659Y-139382470D01*
X105015597Y-139301658D01*
X105096409Y-139166971D01*
X105231096Y-139032284D01*
X105365783Y-138951471D01*
X105446595Y-138924534D01*
X105500470Y-138924534D01*
X105581282Y-138951471D01*
X105635157Y-139005346D01*
X105662094Y-139086158D01*
X105662094Y-139140033D01*
X105635157Y-139220845D01*
X105554345Y-139355532D01*
X105419658Y-139490219D01*
X105284971Y-139571032D01*
X105204158Y-139597969D01*
X105150284Y-139597969D01*
X105069471Y-139571032D01*
X109117966Y-115079526D02*
X109495089Y-114325279D01*
X108740842Y-114702402D01*
X109117966Y-114002030D02*
X109064091Y-113894280D01*
X108929404Y-113759593D01*
X108848592Y-113732656D01*
X108794717Y-113732656D01*
X108713905Y-113759593D01*
X108660030Y-113813468D01*
X108633093Y-113894280D01*
X108633093Y-113948155D01*
X108660030Y-114028967D01*
X108740842Y-114163654D01*
X108767780Y-114244467D01*
X108767780Y-114298341D01*
X108740842Y-114379154D01*
X108686967Y-114433028D01*
X108606155Y-114459966D01*
X108552280Y-114459966D01*
X108471468Y-114433028D01*
X108336781Y-114298341D01*
X108282906Y-114190592D01*
X108202094Y-113571032D02*
X108471468Y-113301658D01*
X108094345Y-114055905D02*
X108202094Y-113571032D01*
X107717221Y-113678781D01*
X108094345Y-112978409D02*
X108040470Y-112870659D01*
X107905783Y-112735972D01*
X107824971Y-112709035D01*
X107771096Y-112709035D01*
X107690284Y-112735972D01*
X107636409Y-112789847D01*
X107609471Y-112870659D01*
X107609471Y-112924534D01*
X107636409Y-113005346D01*
X107717221Y-113140033D01*
X107744158Y-113220845D01*
X107744158Y-113274720D01*
X107717221Y-113355532D01*
X107663346Y-113409407D01*
X107582534Y-113436345D01*
X107528659Y-113436345D01*
X107447847Y-113409407D01*
X107313160Y-113274720D01*
X107259285Y-113166971D01*
X131991435Y-114161624D02*
X131910622Y-114619560D01*
X132314683Y-114484873D02*
X131748998Y-115050558D01*
X131533499Y-114835059D01*
X131506561Y-114754247D01*
X131506561Y-114700372D01*
X131533499Y-114619560D01*
X131614311Y-114538748D01*
X131695123Y-114511810D01*
X131748998Y-114511810D01*
X131829810Y-114538748D01*
X132045309Y-114754247D01*
X131183312Y-114484873D02*
X131641248Y-114026937D01*
X131668186Y-113946125D01*
X131668186Y-113892250D01*
X131641248Y-113811438D01*
X131533499Y-113703688D01*
X131452687Y-113676751D01*
X131398812Y-113676751D01*
X131318000Y-113703688D01*
X130860064Y-114161624D01*
X131156375Y-113326564D02*
X130590690Y-113892250D01*
X130833126Y-113003316D01*
X130267441Y-113569001D01*
X152028592Y-114902277D02*
X152055529Y-114983089D01*
X152136341Y-115063902D01*
X152244091Y-115117776D01*
X152351841Y-115117776D01*
X152432653Y-115090839D01*
X152567340Y-115010027D01*
X152648152Y-114929215D01*
X152728964Y-114794528D01*
X152755902Y-114713715D01*
X152755902Y-114605966D01*
X152702027Y-114498216D01*
X152648152Y-114444341D01*
X152540402Y-114390467D01*
X152486528Y-114390467D01*
X152297966Y-114579028D01*
X152405715Y-114686778D01*
X152297966Y-114094155D02*
X151732280Y-114659841D01*
X151516781Y-114444341D01*
X151489844Y-114363529D01*
X151489844Y-114309654D01*
X151516781Y-114228842D01*
X151597593Y-114148030D01*
X151678406Y-114121093D01*
X151732280Y-114121093D01*
X151813093Y-114148030D01*
X152028592Y-114363529D01*
X151435969Y-113232158D02*
X151759218Y-113555407D01*
X151597593Y-113393783D02*
X151031908Y-113959468D01*
X151166595Y-113932531D01*
X151274345Y-113932531D01*
X151355157Y-113959468D01*
X150681722Y-113609282D02*
X150304598Y-113232158D01*
X151112720Y-112908910D01*
X116199218Y-140486903D02*
X116226155Y-140567715D01*
X116306967Y-140648528D01*
X116414717Y-140702402D01*
X116522467Y-140702402D01*
X116603279Y-140675465D01*
X116737966Y-140594653D01*
X116818778Y-140513841D01*
X116899590Y-140379154D01*
X116926528Y-140298341D01*
X116926528Y-140190592D01*
X116872653Y-140082842D01*
X116818778Y-140028967D01*
X116711028Y-139975093D01*
X116657154Y-139975093D01*
X116468592Y-140163654D01*
X116576341Y-140271404D01*
X116468592Y-139678781D02*
X115902906Y-140244467D01*
X115687407Y-140028967D01*
X115660470Y-139948155D01*
X115660470Y-139894280D01*
X115687407Y-139813468D01*
X115768219Y-139732656D01*
X115849032Y-139705719D01*
X115902906Y-139705719D01*
X115983719Y-139732656D01*
X116199218Y-139948155D01*
X115391096Y-139732656D02*
X115040910Y-139382470D01*
X115444971Y-139355532D01*
X115364158Y-139274720D01*
X115337221Y-139193908D01*
X115337221Y-139140033D01*
X115364158Y-139059221D01*
X115498845Y-138924534D01*
X115579658Y-138897597D01*
X115633532Y-138897597D01*
X115714345Y-138924534D01*
X115875969Y-139086158D01*
X115902906Y-139166971D01*
X115902906Y-139220845D01*
X141868592Y-114902277D02*
X141895529Y-114983089D01*
X141976341Y-115063902D01*
X142084091Y-115117776D01*
X142191841Y-115117776D01*
X142272653Y-115090839D01*
X142407340Y-115010027D01*
X142488152Y-114929215D01*
X142568964Y-114794528D01*
X142595902Y-114713715D01*
X142595902Y-114605966D01*
X142542027Y-114498216D01*
X142488152Y-114444341D01*
X142380402Y-114390467D01*
X142326528Y-114390467D01*
X142137966Y-114579028D01*
X142245715Y-114686778D01*
X142137966Y-114094155D02*
X141572280Y-114659841D01*
X141356781Y-114444341D01*
X141329844Y-114363529D01*
X141329844Y-114309654D01*
X141356781Y-114228842D01*
X141437593Y-114148030D01*
X141518406Y-114121093D01*
X141572280Y-114121093D01*
X141653093Y-114148030D01*
X141868592Y-114363529D01*
X141087407Y-114067218D02*
X141033532Y-114067218D01*
X140952720Y-114040280D01*
X140818033Y-113905593D01*
X140791096Y-113824781D01*
X140791096Y-113770906D01*
X140818033Y-113690094D01*
X140871908Y-113636219D01*
X140979658Y-113582345D01*
X141626155Y-113582345D01*
X141275969Y-113232158D01*
X140360097Y-113447658D02*
X140306223Y-113393783D01*
X140279285Y-113312971D01*
X140279285Y-113259096D01*
X140306223Y-113178284D01*
X140387035Y-113043597D01*
X140521722Y-112908910D01*
X140656409Y-112828097D01*
X140737221Y-112801160D01*
X140791096Y-112801160D01*
X140871908Y-112828097D01*
X140925783Y-112881972D01*
X140952720Y-112962784D01*
X140952720Y-113016659D01*
X140925783Y-113097471D01*
X140844971Y-113232158D01*
X140710284Y-113366845D01*
X140575597Y-113447658D01*
X140494784Y-113474595D01*
X140440910Y-113474595D01*
X140360097Y-113447658D01*
X134248592Y-114902277D02*
X134275529Y-114983089D01*
X134356341Y-115063902D01*
X134464091Y-115117776D01*
X134571841Y-115117776D01*
X134652653Y-115090839D01*
X134787340Y-115010027D01*
X134868152Y-114929215D01*
X134948964Y-114794528D01*
X134975902Y-114713715D01*
X134975902Y-114605966D01*
X134922027Y-114498216D01*
X134868152Y-114444341D01*
X134760402Y-114390467D01*
X134706528Y-114390467D01*
X134517966Y-114579028D01*
X134625715Y-114686778D01*
X134517966Y-114094155D02*
X133952280Y-114659841D01*
X133736781Y-114444341D01*
X133709844Y-114363529D01*
X133709844Y-114309654D01*
X133736781Y-114228842D01*
X133817593Y-114148030D01*
X133898406Y-114121093D01*
X133952280Y-114121093D01*
X134033093Y-114148030D01*
X134248592Y-114363529D01*
X133467407Y-114067218D02*
X133413532Y-114067218D01*
X133332720Y-114040280D01*
X133198033Y-113905593D01*
X133171096Y-113824781D01*
X133171096Y-113770906D01*
X133198033Y-113690094D01*
X133251908Y-113636219D01*
X133359658Y-113582345D01*
X134006155Y-113582345D01*
X133655969Y-113232158D01*
X132928659Y-113528470D02*
X132874784Y-113528470D01*
X132793972Y-113501532D01*
X132659285Y-113366845D01*
X132632348Y-113286033D01*
X132632348Y-113232158D01*
X132659285Y-113151346D01*
X132713160Y-113097471D01*
X132820910Y-113043597D01*
X133467407Y-113043597D01*
X133117221Y-112693410D01*
X156571809Y-134509523D02*
X156609904Y-134395238D01*
X156609904Y-134204761D01*
X156571809Y-134128571D01*
X156533714Y-134090476D01*
X156457523Y-134052380D01*
X156381333Y-134052380D01*
X156305142Y-134090476D01*
X156267047Y-134128571D01*
X156228952Y-134204761D01*
X156190857Y-134357142D01*
X156152761Y-134433333D01*
X156114666Y-134471428D01*
X156038476Y-134509523D01*
X155962285Y-134509523D01*
X155886095Y-134471428D01*
X155848000Y-134433333D01*
X155809904Y-134357142D01*
X155809904Y-134166666D01*
X155848000Y-134052380D01*
X155809904Y-133785714D02*
X156609904Y-133595238D01*
X156038476Y-133442857D01*
X156609904Y-133290476D01*
X155809904Y-133100000D01*
X156533714Y-132338095D02*
X156571809Y-132376190D01*
X156609904Y-132490476D01*
X156609904Y-132566666D01*
X156571809Y-132680952D01*
X156495619Y-132757142D01*
X156419428Y-132795238D01*
X156267047Y-132833333D01*
X156152761Y-132833333D01*
X156000380Y-132795238D01*
X155924190Y-132757142D01*
X155848000Y-132680952D01*
X155809904Y-132566666D01*
X155809904Y-132490476D01*
X155848000Y-132376190D01*
X155886095Y-132338095D01*
X156609904Y-131614285D02*
X156609904Y-131995238D01*
X155809904Y-131995238D01*
X156609904Y-131347619D02*
X155809904Y-131347619D01*
X156609904Y-130890476D02*
X156152761Y-131233333D01*
X155809904Y-130890476D02*
X156267047Y-131347619D01*
X114006308Y-115077868D02*
X113656122Y-114727682D01*
X114060183Y-114700744D01*
X113979370Y-114619932D01*
X113952433Y-114539120D01*
X113952433Y-114485245D01*
X113979370Y-114404433D01*
X114114057Y-114269746D01*
X114194870Y-114242809D01*
X114248744Y-114242809D01*
X114329557Y-114269746D01*
X114491181Y-114431370D01*
X114518118Y-114512183D01*
X114518118Y-114566057D01*
X113494497Y-114566057D02*
X113871621Y-113811810D01*
X113117374Y-114188934D01*
X112982687Y-114054247D02*
X112632500Y-113704061D01*
X113036561Y-113677123D01*
X112955749Y-113596311D01*
X112928812Y-113515499D01*
X112928812Y-113461624D01*
X112955749Y-113380812D01*
X113090436Y-113246125D01*
X113171248Y-113219187D01*
X113225123Y-113219187D01*
X113305935Y-113246125D01*
X113467560Y-113407749D01*
X113494497Y-113488561D01*
X113494497Y-113542436D01*
X113144311Y-112976751D02*
X112713312Y-112545752D01*
X112228439Y-112761251D02*
X112039877Y-112572690D01*
X112255377Y-112195566D02*
X112524751Y-112464940D01*
X111959065Y-113030625D01*
X111689691Y-112761251D01*
X112012940Y-111953129D02*
X111447255Y-112518815D01*
X111689691Y-111629881D01*
X111124006Y-112195566D01*
X141868592Y-141156277D02*
X141895529Y-141237089D01*
X141976341Y-141317902D01*
X142084091Y-141371776D01*
X142191841Y-141371776D01*
X142272653Y-141344839D01*
X142407340Y-141264027D01*
X142488152Y-141183215D01*
X142568964Y-141048528D01*
X142595902Y-140967715D01*
X142595902Y-140859966D01*
X142542027Y-140752216D01*
X142488152Y-140698341D01*
X142380402Y-140644467D01*
X142326528Y-140644467D01*
X142137966Y-140833028D01*
X142245715Y-140940778D01*
X142137966Y-140348155D02*
X141572280Y-140913841D01*
X141356781Y-140698341D01*
X141329844Y-140617529D01*
X141329844Y-140563654D01*
X141356781Y-140482842D01*
X141437593Y-140402030D01*
X141518406Y-140375093D01*
X141572280Y-140375093D01*
X141653093Y-140402030D01*
X141868592Y-140617529D01*
X141275969Y-139486158D02*
X141599218Y-139809407D01*
X141437593Y-139647783D02*
X140871908Y-140213468D01*
X141006595Y-140186531D01*
X141114345Y-140186531D01*
X141195157Y-140213468D01*
X140737221Y-138947410D02*
X141060470Y-139270659D01*
X140898845Y-139109035D02*
X140333160Y-139674720D01*
X140467847Y-139647783D01*
X140575597Y-139647783D01*
X140656409Y-139674720D01*
X123846155Y-140513841D02*
X123873093Y-140594653D01*
X123953905Y-140675465D01*
X124061654Y-140729340D01*
X124169404Y-140729340D01*
X124250216Y-140702402D01*
X124384903Y-140621590D01*
X124465715Y-140540778D01*
X124546528Y-140406091D01*
X124573465Y-140325279D01*
X124573465Y-140217529D01*
X124519590Y-140109780D01*
X124465715Y-140055905D01*
X124357966Y-140002030D01*
X124304091Y-140002030D01*
X124115529Y-140190592D01*
X124223279Y-140298341D01*
X124115529Y-139705719D02*
X123549844Y-140271404D01*
X123792280Y-139382470D01*
X123226595Y-139948155D01*
X123522906Y-139113096D02*
X122957221Y-139678781D01*
X122822534Y-139544094D01*
X122768659Y-139436345D01*
X122768659Y-139328595D01*
X122795597Y-139247783D01*
X122876409Y-139113096D01*
X122957221Y-139032284D01*
X123091908Y-138951471D01*
X123172720Y-138924534D01*
X123280470Y-138924534D01*
X123388219Y-138978409D01*
X123522906Y-139113096D01*
X154568592Y-141010277D02*
X154595529Y-141091089D01*
X154676341Y-141171902D01*
X154784091Y-141225776D01*
X154891841Y-141225776D01*
X154972653Y-141198839D01*
X155107340Y-141118027D01*
X155188152Y-141037215D01*
X155268964Y-140902528D01*
X155295902Y-140821715D01*
X155295902Y-140713966D01*
X155242027Y-140606216D01*
X155188152Y-140552341D01*
X155080402Y-140498467D01*
X155026528Y-140498467D01*
X154837966Y-140687028D01*
X154945715Y-140794778D01*
X154837966Y-140202155D02*
X154272280Y-140767841D01*
X154056781Y-140552341D01*
X154029844Y-140471529D01*
X154029844Y-140417654D01*
X154056781Y-140336842D01*
X154137593Y-140256030D01*
X154218406Y-140229093D01*
X154272280Y-140229093D01*
X154353093Y-140256030D01*
X154568592Y-140471529D01*
X153975969Y-139340158D02*
X154299218Y-139663407D01*
X154137593Y-139501783D02*
X153571908Y-140067468D01*
X153706595Y-140040531D01*
X153814345Y-140040531D01*
X153895157Y-140067468D01*
X152898473Y-139394033D02*
X153167847Y-139663407D01*
X153464158Y-139420971D01*
X153410284Y-139420971D01*
X153329471Y-139394033D01*
X153194784Y-139259346D01*
X153167847Y-139178534D01*
X153167847Y-139124659D01*
X153194784Y-139043847D01*
X153329471Y-138909160D01*
X153410284Y-138882223D01*
X153464158Y-138882223D01*
X153544971Y-138909160D01*
X153679658Y-139043847D01*
X153706595Y-139124659D01*
X153706595Y-139178534D01*
X136546155Y-140513841D02*
X136573093Y-140594653D01*
X136653905Y-140675465D01*
X136761654Y-140729340D01*
X136869404Y-140729340D01*
X136950216Y-140702402D01*
X137084903Y-140621590D01*
X137165715Y-140540778D01*
X137246528Y-140406091D01*
X137273465Y-140325279D01*
X137273465Y-140217529D01*
X137219590Y-140109780D01*
X137165715Y-140055905D01*
X137057966Y-140002030D01*
X137004091Y-140002030D01*
X136815529Y-140190592D01*
X136923279Y-140298341D01*
X136815529Y-139705719D02*
X136249844Y-140271404D01*
X136492280Y-139382470D01*
X135926595Y-139948155D01*
X136222906Y-139113096D02*
X135657221Y-139678781D01*
X135522534Y-139544094D01*
X135468659Y-139436345D01*
X135468659Y-139328595D01*
X135495597Y-139247783D01*
X135576409Y-139113096D01*
X135657221Y-139032284D01*
X135791908Y-138951471D01*
X135872720Y-138924534D01*
X135980470Y-138924534D01*
X136088219Y-138978409D01*
X136222906Y-139113096D01*
X121294592Y-114902277D02*
X121321529Y-114983089D01*
X121402341Y-115063902D01*
X121510091Y-115117776D01*
X121617841Y-115117776D01*
X121698653Y-115090839D01*
X121833340Y-115010027D01*
X121914152Y-114929215D01*
X121994964Y-114794528D01*
X122021902Y-114713715D01*
X122021902Y-114605966D01*
X121968027Y-114498216D01*
X121914152Y-114444341D01*
X121806402Y-114390467D01*
X121752528Y-114390467D01*
X121563966Y-114579028D01*
X121671715Y-114686778D01*
X121563966Y-114094155D02*
X120998280Y-114659841D01*
X120782781Y-114444341D01*
X120755844Y-114363529D01*
X120755844Y-114309654D01*
X120782781Y-114228842D01*
X120863593Y-114148030D01*
X120944406Y-114121093D01*
X120998280Y-114121093D01*
X121079093Y-114148030D01*
X121294592Y-114363529D01*
X120513407Y-114067218D02*
X120459532Y-114067218D01*
X120378720Y-114040280D01*
X120244033Y-113905593D01*
X120217096Y-113824781D01*
X120217096Y-113770906D01*
X120244033Y-113690094D01*
X120297908Y-113636219D01*
X120405658Y-113582345D01*
X121052155Y-113582345D01*
X120701969Y-113232158D01*
X120055471Y-113232158D02*
X120082409Y-113312971D01*
X120082409Y-113366845D01*
X120055471Y-113447658D01*
X120028534Y-113474595D01*
X119947722Y-113501532D01*
X119893847Y-113501532D01*
X119813035Y-113474595D01*
X119705285Y-113366845D01*
X119678348Y-113286033D01*
X119678348Y-113232158D01*
X119705285Y-113151346D01*
X119732223Y-113124409D01*
X119813035Y-113097471D01*
X119866910Y-113097471D01*
X119947722Y-113124409D01*
X120055471Y-113232158D01*
X120136284Y-113259096D01*
X120190158Y-113259096D01*
X120270971Y-113232158D01*
X120378720Y-113124409D01*
X120405658Y-113043597D01*
X120405658Y-112989722D01*
X120378720Y-112908910D01*
X120270971Y-112801160D01*
X120190158Y-112774223D01*
X120136284Y-112774223D01*
X120055471Y-112801160D01*
X119947722Y-112908910D01*
X119920784Y-112989722D01*
X119920784Y-113043597D01*
X119947722Y-113124409D01*
X136546155Y-114913841D02*
X136573093Y-114994653D01*
X136653905Y-115075465D01*
X136761654Y-115129340D01*
X136869404Y-115129340D01*
X136950216Y-115102402D01*
X137084903Y-115021590D01*
X137165715Y-114940778D01*
X137246528Y-114806091D01*
X137273465Y-114725279D01*
X137273465Y-114617529D01*
X137219590Y-114509780D01*
X137165715Y-114455905D01*
X137057966Y-114402030D01*
X137004091Y-114402030D01*
X136815529Y-114590592D01*
X136923279Y-114698341D01*
X136815529Y-114105719D02*
X136249844Y-114671404D01*
X136492280Y-113782470D01*
X135926595Y-114348155D01*
X136222906Y-113513096D02*
X135657221Y-114078781D01*
X135522534Y-113944094D01*
X135468659Y-113836345D01*
X135468659Y-113728595D01*
X135495597Y-113647783D01*
X135576409Y-113513096D01*
X135657221Y-113432284D01*
X135791908Y-113351471D01*
X135872720Y-113324534D01*
X135980470Y-113324534D01*
X136088219Y-113378409D01*
X136222906Y-113513096D01*
X128869218Y-140386903D02*
X128896155Y-140467715D01*
X128976967Y-140548528D01*
X129084717Y-140602402D01*
X129192467Y-140602402D01*
X129273279Y-140575465D01*
X129407966Y-140494653D01*
X129488778Y-140413841D01*
X129569590Y-140279154D01*
X129596528Y-140198341D01*
X129596528Y-140090592D01*
X129542653Y-139982842D01*
X129488778Y-139928967D01*
X129381028Y-139875093D01*
X129327154Y-139875093D01*
X129138592Y-140063654D01*
X129246341Y-140171404D01*
X129138592Y-139578781D02*
X128572906Y-140144467D01*
X128357407Y-139928967D01*
X128330470Y-139848155D01*
X128330470Y-139794280D01*
X128357407Y-139713468D01*
X128438219Y-139632656D01*
X128519032Y-139605719D01*
X128572906Y-139605719D01*
X128653719Y-139632656D01*
X128869218Y-139848155D01*
X128061096Y-139632656D02*
X127683972Y-139255532D01*
X128492094Y-138932284D01*
X126638592Y-114902277D02*
X126665529Y-114983089D01*
X126746341Y-115063902D01*
X126854091Y-115117776D01*
X126961841Y-115117776D01*
X127042653Y-115090839D01*
X127177340Y-115010027D01*
X127258152Y-114929215D01*
X127338964Y-114794528D01*
X127365902Y-114713715D01*
X127365902Y-114605966D01*
X127312027Y-114498216D01*
X127258152Y-114444341D01*
X127150402Y-114390467D01*
X127096528Y-114390467D01*
X126907966Y-114579028D01*
X127015715Y-114686778D01*
X126907966Y-114094155D02*
X126342280Y-114659841D01*
X126126781Y-114444341D01*
X126099844Y-114363529D01*
X126099844Y-114309654D01*
X126126781Y-114228842D01*
X126207593Y-114148030D01*
X126288406Y-114121093D01*
X126342280Y-114121093D01*
X126423093Y-114148030D01*
X126638592Y-114363529D01*
X125857407Y-114067218D02*
X125803532Y-114067218D01*
X125722720Y-114040280D01*
X125588033Y-113905593D01*
X125561096Y-113824781D01*
X125561096Y-113770906D01*
X125588033Y-113690094D01*
X125641908Y-113636219D01*
X125749658Y-113582345D01*
X126396155Y-113582345D01*
X126045969Y-113232158D01*
X125291722Y-113609282D02*
X124914598Y-113232158D01*
X125722720Y-112908910D01*
X149246155Y-140513841D02*
X149273093Y-140594653D01*
X149353905Y-140675465D01*
X149461654Y-140729340D01*
X149569404Y-140729340D01*
X149650216Y-140702402D01*
X149784903Y-140621590D01*
X149865715Y-140540778D01*
X149946528Y-140406091D01*
X149973465Y-140325279D01*
X149973465Y-140217529D01*
X149919590Y-140109780D01*
X149865715Y-140055905D01*
X149757966Y-140002030D01*
X149704091Y-140002030D01*
X149515529Y-140190592D01*
X149623279Y-140298341D01*
X149515529Y-139705719D02*
X148949844Y-140271404D01*
X149192280Y-139382470D01*
X148626595Y-139948155D01*
X148922906Y-139113096D02*
X148357221Y-139678781D01*
X148222534Y-139544094D01*
X148168659Y-139436345D01*
X148168659Y-139328595D01*
X148195597Y-139247783D01*
X148276409Y-139113096D01*
X148357221Y-139032284D01*
X148491908Y-138951471D01*
X148572720Y-138924534D01*
X148680470Y-138924534D01*
X148788219Y-138978409D01*
X148922906Y-139113096D01*
X146948592Y-141010277D02*
X146975529Y-141091089D01*
X147056341Y-141171902D01*
X147164091Y-141225776D01*
X147271841Y-141225776D01*
X147352653Y-141198839D01*
X147487340Y-141118027D01*
X147568152Y-141037215D01*
X147648964Y-140902528D01*
X147675902Y-140821715D01*
X147675902Y-140713966D01*
X147622027Y-140606216D01*
X147568152Y-140552341D01*
X147460402Y-140498467D01*
X147406528Y-140498467D01*
X147217966Y-140687028D01*
X147325715Y-140794778D01*
X147217966Y-140202155D02*
X146652280Y-140767841D01*
X146436781Y-140552341D01*
X146409844Y-140471529D01*
X146409844Y-140417654D01*
X146436781Y-140336842D01*
X146517593Y-140256030D01*
X146598406Y-140229093D01*
X146652280Y-140229093D01*
X146733093Y-140256030D01*
X146948592Y-140471529D01*
X146355969Y-139340158D02*
X146679218Y-139663407D01*
X146517593Y-139501783D02*
X145951908Y-140067468D01*
X146086595Y-140040531D01*
X146194345Y-140040531D01*
X146275157Y-140067468D01*
X145601722Y-139717282D02*
X145251536Y-139367096D01*
X145655597Y-139340158D01*
X145574784Y-139259346D01*
X145547847Y-139178534D01*
X145547847Y-139124659D01*
X145574784Y-139043847D01*
X145709471Y-138909160D01*
X145790284Y-138882223D01*
X145844158Y-138882223D01*
X145924971Y-138909160D01*
X146086595Y-139070784D01*
X146113532Y-139151597D01*
X146113532Y-139205471D01*
X113659218Y-140586903D02*
X113686155Y-140667715D01*
X113766967Y-140748528D01*
X113874717Y-140802402D01*
X113982467Y-140802402D01*
X114063279Y-140775465D01*
X114197966Y-140694653D01*
X114278778Y-140613841D01*
X114359590Y-140479154D01*
X114386528Y-140398341D01*
X114386528Y-140290592D01*
X114332653Y-140182842D01*
X114278778Y-140128967D01*
X114171028Y-140075093D01*
X114117154Y-140075093D01*
X113928592Y-140263654D01*
X114036341Y-140371404D01*
X113928592Y-139778781D02*
X113362906Y-140344467D01*
X113147407Y-140128967D01*
X113120470Y-140048155D01*
X113120470Y-139994280D01*
X113147407Y-139913468D01*
X113228219Y-139832656D01*
X113309032Y-139805719D01*
X113362906Y-139805719D01*
X113443719Y-139832656D01*
X113659218Y-140048155D01*
X112878033Y-139751844D02*
X112824158Y-139751844D01*
X112743346Y-139724906D01*
X112608659Y-139590219D01*
X112581722Y-139509407D01*
X112581722Y-139455532D01*
X112608659Y-139374720D01*
X112662534Y-139320845D01*
X112770284Y-139266971D01*
X113416781Y-139266971D01*
X113066595Y-138916784D01*
X111146155Y-114913841D02*
X111173093Y-114994653D01*
X111253905Y-115075465D01*
X111361654Y-115129340D01*
X111469404Y-115129340D01*
X111550216Y-115102402D01*
X111684903Y-115021590D01*
X111765715Y-114940778D01*
X111846528Y-114806091D01*
X111873465Y-114725279D01*
X111873465Y-114617529D01*
X111819590Y-114509780D01*
X111765715Y-114455905D01*
X111657966Y-114402030D01*
X111604091Y-114402030D01*
X111415529Y-114590592D01*
X111523279Y-114698341D01*
X111415529Y-114105719D02*
X110849844Y-114671404D01*
X111092280Y-113782470D01*
X110526595Y-114348155D01*
X110822906Y-113513096D02*
X110257221Y-114078781D01*
X110122534Y-113944094D01*
X110068659Y-113836345D01*
X110068659Y-113728595D01*
X110095597Y-113647783D01*
X110176409Y-113513096D01*
X110257221Y-113432284D01*
X110391908Y-113351471D01*
X110472720Y-113324534D01*
X110580470Y-113324534D01*
X110688219Y-113378409D01*
X110822906Y-113513096D01*
X156571809Y-123095238D02*
X156609904Y-122980952D01*
X156609904Y-122790476D01*
X156571809Y-122714285D01*
X156533714Y-122676190D01*
X156457523Y-122638095D01*
X156381333Y-122638095D01*
X156305142Y-122676190D01*
X156267047Y-122714285D01*
X156228952Y-122790476D01*
X156190857Y-122942857D01*
X156152761Y-123019047D01*
X156114666Y-123057142D01*
X156038476Y-123095238D01*
X155962285Y-123095238D01*
X155886095Y-123057142D01*
X155848000Y-123019047D01*
X155809904Y-122942857D01*
X155809904Y-122752380D01*
X155848000Y-122638095D01*
X155809904Y-122371428D02*
X156609904Y-122180952D01*
X156038476Y-122028571D01*
X156609904Y-121876190D01*
X155809904Y-121685714D01*
X156609904Y-121380952D02*
X155809904Y-121380952D01*
X155809904Y-121190476D01*
X155848000Y-121076190D01*
X155924190Y-121000000D01*
X156000380Y-120961904D01*
X156152761Y-120923809D01*
X156267047Y-120923809D01*
X156419428Y-120961904D01*
X156495619Y-121000000D01*
X156571809Y-121076190D01*
X156609904Y-121190476D01*
X156609904Y-121380952D01*
X156609904Y-120580952D02*
X155809904Y-120580952D01*
X155809904Y-120047619D02*
X155809904Y-119895238D01*
X155848000Y-119819047D01*
X155924190Y-119742857D01*
X156076571Y-119704761D01*
X156343238Y-119704761D01*
X156495619Y-119742857D01*
X156571809Y-119819047D01*
X156609904Y-119895238D01*
X156609904Y-120047619D01*
X156571809Y-120123809D01*
X156495619Y-120200000D01*
X156343238Y-120238095D01*
X156076571Y-120238095D01*
X155924190Y-120200000D01*
X155848000Y-120123809D01*
X155809904Y-120047619D01*
X144408592Y-141156277D02*
X144435529Y-141237089D01*
X144516341Y-141317902D01*
X144624091Y-141371776D01*
X144731841Y-141371776D01*
X144812653Y-141344839D01*
X144947340Y-141264027D01*
X145028152Y-141183215D01*
X145108964Y-141048528D01*
X145135902Y-140967715D01*
X145135902Y-140859966D01*
X145082027Y-140752216D01*
X145028152Y-140698341D01*
X144920402Y-140644467D01*
X144866528Y-140644467D01*
X144677966Y-140833028D01*
X144785715Y-140940778D01*
X144677966Y-140348155D02*
X144112280Y-140913841D01*
X143896781Y-140698341D01*
X143869844Y-140617529D01*
X143869844Y-140563654D01*
X143896781Y-140482842D01*
X143977593Y-140402030D01*
X144058406Y-140375093D01*
X144112280Y-140375093D01*
X144193093Y-140402030D01*
X144408592Y-140617529D01*
X143815969Y-139486158D02*
X144139218Y-139809407D01*
X143977593Y-139647783D02*
X143411908Y-140213468D01*
X143546595Y-140186531D01*
X143654345Y-140186531D01*
X143735157Y-140213468D01*
X143088659Y-139782470D02*
X143034784Y-139782470D01*
X142953972Y-139755532D01*
X142819285Y-139620845D01*
X142792348Y-139540033D01*
X142792348Y-139486158D01*
X142819285Y-139405346D01*
X142873160Y-139351471D01*
X142980910Y-139297597D01*
X143627407Y-139297597D01*
X143277221Y-138947410D01*
X152028592Y-141056277D02*
X152055529Y-141137089D01*
X152136341Y-141217902D01*
X152244091Y-141271776D01*
X152351841Y-141271776D01*
X152432653Y-141244839D01*
X152567340Y-141164027D01*
X152648152Y-141083215D01*
X152728964Y-140948528D01*
X152755902Y-140867715D01*
X152755902Y-140759966D01*
X152702027Y-140652216D01*
X152648152Y-140598341D01*
X152540402Y-140544467D01*
X152486528Y-140544467D01*
X152297966Y-140733028D01*
X152405715Y-140840778D01*
X152297966Y-140248155D02*
X151732280Y-140813841D01*
X151516781Y-140598341D01*
X151489844Y-140517529D01*
X151489844Y-140463654D01*
X151516781Y-140382842D01*
X151597593Y-140302030D01*
X151678406Y-140275093D01*
X151732280Y-140275093D01*
X151813093Y-140302030D01*
X152028592Y-140517529D01*
X151435969Y-139386158D02*
X151759218Y-139709407D01*
X151597593Y-139547783D02*
X151031908Y-140113468D01*
X151166595Y-140086531D01*
X151274345Y-140086531D01*
X151355157Y-140113468D01*
X150573972Y-139278409D02*
X150951096Y-138901285D01*
X150493160Y-139628595D02*
X151031908Y-139359221D01*
X150681722Y-139009035D01*
X119581773Y-114845211D02*
X119312399Y-114575837D01*
X119797272Y-114737462D02*
X119043025Y-115114585D01*
X119420149Y-114360338D01*
X119231587Y-114171776D02*
X118665902Y-114737462D01*
X118531215Y-114602775D01*
X118477340Y-114495025D01*
X118477340Y-114387276D01*
X118504277Y-114306463D01*
X118585089Y-114171776D01*
X118665902Y-114090964D01*
X118800589Y-114010152D01*
X118881401Y-113983215D01*
X118989150Y-113983215D01*
X119096900Y-114037089D01*
X119231587Y-114171776D01*
X118288778Y-113336717D02*
X118342653Y-113336717D01*
X118450402Y-113390592D01*
X118504277Y-113444467D01*
X118558152Y-113552216D01*
X118558152Y-113659966D01*
X118531215Y-113740778D01*
X118450402Y-113875465D01*
X118369590Y-113956277D01*
X118234903Y-114037089D01*
X118154091Y-114064027D01*
X118046341Y-114064027D01*
X117938592Y-114010152D01*
X117884717Y-113956277D01*
X117830842Y-113848528D01*
X117830842Y-113794653D01*
X118288778Y-113121218D02*
X117857780Y-112690219D01*
X117184345Y-113255905D02*
X117561468Y-112501658D01*
X116807221Y-112878781D01*
X116861096Y-111801285D02*
X116780284Y-112259221D01*
X117184345Y-112124534D02*
X116618659Y-112690219D01*
X116403160Y-112474720D01*
X116376223Y-112393908D01*
X116376223Y-112340033D01*
X116403160Y-112259221D01*
X116483972Y-112178409D01*
X116564784Y-112151471D01*
X116618659Y-112151471D01*
X116699471Y-112178409D01*
X116914971Y-112393908D01*
X116322348Y-111855160D02*
X116133786Y-111666598D01*
X116349285Y-111289475D02*
X116618659Y-111558849D01*
X116052974Y-112124534D01*
X115783600Y-111855160D01*
X115621975Y-111154788D02*
X115810537Y-111343349D01*
X116106849Y-111047038D02*
X115541163Y-111612723D01*
X115271789Y-111343349D01*
X139328592Y-141010277D02*
X139355529Y-141091089D01*
X139436341Y-141171902D01*
X139544091Y-141225776D01*
X139651841Y-141225776D01*
X139732653Y-141198839D01*
X139867340Y-141118027D01*
X139948152Y-141037215D01*
X140028964Y-140902528D01*
X140055902Y-140821715D01*
X140055902Y-140713966D01*
X140002027Y-140606216D01*
X139948152Y-140552341D01*
X139840402Y-140498467D01*
X139786528Y-140498467D01*
X139597966Y-140687028D01*
X139705715Y-140794778D01*
X139597966Y-140202155D02*
X139032280Y-140767841D01*
X138816781Y-140552341D01*
X138789844Y-140471529D01*
X138789844Y-140417654D01*
X138816781Y-140336842D01*
X138897593Y-140256030D01*
X138978406Y-140229093D01*
X139032280Y-140229093D01*
X139113093Y-140256030D01*
X139328592Y-140471529D01*
X138735969Y-139340158D02*
X139059218Y-139663407D01*
X138897593Y-139501783D02*
X138331908Y-140067468D01*
X138466595Y-140040531D01*
X138574345Y-140040531D01*
X138655157Y-140067468D01*
X137820097Y-139555658D02*
X137766223Y-139501783D01*
X137739285Y-139420971D01*
X137739285Y-139367096D01*
X137766223Y-139286284D01*
X137847035Y-139151597D01*
X137981722Y-139016910D01*
X138116409Y-138936097D01*
X138197221Y-138909160D01*
X138251096Y-138909160D01*
X138331908Y-138936097D01*
X138385783Y-138989972D01*
X138412720Y-139070784D01*
X138412720Y-139124659D01*
X138385783Y-139205471D01*
X138304971Y-139340158D01*
X138170284Y-139474845D01*
X138035597Y-139555658D01*
X137954784Y-139582595D01*
X137900910Y-139582595D01*
X137820097Y-139555658D01*
X149246155Y-114913841D02*
X149273093Y-114994653D01*
X149353905Y-115075465D01*
X149461654Y-115129340D01*
X149569404Y-115129340D01*
X149650216Y-115102402D01*
X149784903Y-115021590D01*
X149865715Y-114940778D01*
X149946528Y-114806091D01*
X149973465Y-114725279D01*
X149973465Y-114617529D01*
X149919590Y-114509780D01*
X149865715Y-114455905D01*
X149757966Y-114402030D01*
X149704091Y-114402030D01*
X149515529Y-114590592D01*
X149623279Y-114698341D01*
X149515529Y-114105719D02*
X148949844Y-114671404D01*
X149192280Y-113782470D01*
X148626595Y-114348155D01*
X148922906Y-113513096D02*
X148357221Y-114078781D01*
X148222534Y-113944094D01*
X148168659Y-113836345D01*
X148168659Y-113728595D01*
X148195597Y-113647783D01*
X148276409Y-113513096D01*
X148357221Y-113432284D01*
X148491908Y-113351471D01*
X148572720Y-113324534D01*
X148680470Y-113324534D01*
X148788219Y-113378409D01*
X148922906Y-113513096D01*
X118739218Y-140486903D02*
X118766155Y-140567715D01*
X118846967Y-140648528D01*
X118954717Y-140702402D01*
X119062467Y-140702402D01*
X119143279Y-140675465D01*
X119277966Y-140594653D01*
X119358778Y-140513841D01*
X119439590Y-140379154D01*
X119466528Y-140298341D01*
X119466528Y-140190592D01*
X119412653Y-140082842D01*
X119358778Y-140028967D01*
X119251028Y-139975093D01*
X119197154Y-139975093D01*
X119008592Y-140163654D01*
X119116341Y-140271404D01*
X119008592Y-139678781D02*
X118442906Y-140244467D01*
X118227407Y-140028967D01*
X118200470Y-139948155D01*
X118200470Y-139894280D01*
X118227407Y-139813468D01*
X118308219Y-139732656D01*
X118389032Y-139705719D01*
X118442906Y-139705719D01*
X118523719Y-139732656D01*
X118739218Y-139948155D01*
X117823346Y-139247783D02*
X118200470Y-138870659D01*
X117742534Y-139597969D02*
X118281282Y-139328595D01*
X117931096Y-138978409D01*
X126359218Y-140486903D02*
X126386155Y-140567715D01*
X126466967Y-140648528D01*
X126574717Y-140702402D01*
X126682467Y-140702402D01*
X126763279Y-140675465D01*
X126897966Y-140594653D01*
X126978778Y-140513841D01*
X127059590Y-140379154D01*
X127086528Y-140298341D01*
X127086528Y-140190592D01*
X127032653Y-140082842D01*
X126978778Y-140028967D01*
X126871028Y-139975093D01*
X126817154Y-139975093D01*
X126628592Y-140163654D01*
X126736341Y-140271404D01*
X126628592Y-139678781D02*
X126062906Y-140244467D01*
X125847407Y-140028967D01*
X125820470Y-139948155D01*
X125820470Y-139894280D01*
X125847407Y-139813468D01*
X125928219Y-139732656D01*
X126009032Y-139705719D01*
X126062906Y-139705719D01*
X126143719Y-139732656D01*
X126359218Y-139948155D01*
X125254784Y-139436345D02*
X125362534Y-139544094D01*
X125443346Y-139571032D01*
X125497221Y-139571032D01*
X125631908Y-139544094D01*
X125766595Y-139463282D01*
X125982094Y-139247783D01*
X126009032Y-139166971D01*
X126009032Y-139113096D01*
X125982094Y-139032284D01*
X125874345Y-138924534D01*
X125793532Y-138897597D01*
X125739658Y-138897597D01*
X125658845Y-138924534D01*
X125524158Y-139059221D01*
X125497221Y-139140033D01*
X125497221Y-139193908D01*
X125524158Y-139274720D01*
X125631908Y-139382470D01*
X125712720Y-139409407D01*
X125766595Y-139409407D01*
X125847407Y-139382470D01*
X139338592Y-114902277D02*
X139365529Y-114983089D01*
X139446341Y-115063902D01*
X139554091Y-115117776D01*
X139661841Y-115117776D01*
X139742653Y-115090839D01*
X139877340Y-115010027D01*
X139958152Y-114929215D01*
X140038964Y-114794528D01*
X140065902Y-114713715D01*
X140065902Y-114605966D01*
X140012027Y-114498216D01*
X139958152Y-114444341D01*
X139850402Y-114390467D01*
X139796528Y-114390467D01*
X139607966Y-114579028D01*
X139715715Y-114686778D01*
X139607966Y-114094155D02*
X139042280Y-114659841D01*
X138826781Y-114444341D01*
X138799844Y-114363529D01*
X138799844Y-114309654D01*
X138826781Y-114228842D01*
X138907593Y-114148030D01*
X138988406Y-114121093D01*
X139042280Y-114121093D01*
X139123093Y-114148030D01*
X139338592Y-114363529D01*
X138557407Y-114067218D02*
X138503532Y-114067218D01*
X138422720Y-114040280D01*
X138288033Y-113905593D01*
X138261096Y-113824781D01*
X138261096Y-113770906D01*
X138288033Y-113690094D01*
X138341908Y-113636219D01*
X138449658Y-113582345D01*
X139096155Y-113582345D01*
X138745969Y-113232158D01*
X138207221Y-112693410D02*
X138530470Y-113016659D01*
X138368845Y-112855035D02*
X137803160Y-113420720D01*
X137937847Y-113393783D01*
X138045597Y-113393783D01*
X138126409Y-113420720D01*
%TO.C,P3*%
X141899380Y-147550095D02*
X140899380Y-147550095D01*
X140899380Y-147169142D01*
X140947000Y-147073904D01*
X140994619Y-147026285D01*
X141089857Y-146978666D01*
X141232714Y-146978666D01*
X141327952Y-147026285D01*
X141375571Y-147073904D01*
X141423190Y-147169142D01*
X141423190Y-147550095D01*
X140899380Y-146645333D02*
X140899380Y-146026285D01*
X141280333Y-146359619D01*
X141280333Y-146216761D01*
X141327952Y-146121523D01*
X141375571Y-146073904D01*
X141470809Y-146026285D01*
X141708904Y-146026285D01*
X141804142Y-146073904D01*
X141851761Y-146121523D01*
X141899380Y-146216761D01*
X141899380Y-146502476D01*
X141851761Y-146597714D01*
X141804142Y-146645333D01*
X134756047Y-143581380D02*
X134756047Y-142581380D01*
X135137000Y-142581380D01*
X135232238Y-142629000D01*
X135279857Y-142676619D01*
X135327476Y-142771857D01*
X135327476Y-142914714D01*
X135279857Y-143009952D01*
X135232238Y-143057571D01*
X135137000Y-143105190D01*
X134756047Y-143105190D01*
X135660809Y-142581380D02*
X135898904Y-143581380D01*
X136089380Y-142867095D01*
X136279857Y-143581380D01*
X136517952Y-142581380D01*
X136898904Y-143581380D02*
X136898904Y-142581380D01*
X137232238Y-143295666D01*
X137565571Y-142581380D01*
X137565571Y-143581380D01*
X137946523Y-142581380D02*
X138565571Y-142581380D01*
X138232238Y-142962333D01*
X138375095Y-142962333D01*
X138470333Y-143009952D01*
X138517952Y-143057571D01*
X138565571Y-143152809D01*
X138565571Y-143390904D01*
X138517952Y-143486142D01*
X138470333Y-143533761D01*
X138375095Y-143581380D01*
X138089380Y-143581380D01*
X137994142Y-143533761D01*
X137946523Y-143486142D01*
%TO.C,J5*%
X134380380Y-87176333D02*
X135094666Y-87176333D01*
X135237523Y-87223952D01*
X135332761Y-87319190D01*
X135380380Y-87462047D01*
X135380380Y-87557285D01*
X134380380Y-86223952D02*
X134380380Y-86700142D01*
X134856571Y-86747761D01*
X134808952Y-86700142D01*
X134761333Y-86604904D01*
X134761333Y-86366809D01*
X134808952Y-86271571D01*
X134856571Y-86223952D01*
X134951809Y-86176333D01*
X135189904Y-86176333D01*
X135285142Y-86223952D01*
X135332761Y-86271571D01*
X135380380Y-86366809D01*
X135380380Y-86604904D01*
X135332761Y-86700142D01*
X135285142Y-86747761D01*
X150128000Y-87557285D02*
X150080380Y-87652523D01*
X150080380Y-87795380D01*
X150128000Y-87938238D01*
X150223238Y-88033476D01*
X150318476Y-88081095D01*
X150508952Y-88128714D01*
X150651809Y-88128714D01*
X150842285Y-88081095D01*
X150937523Y-88033476D01*
X151032761Y-87938238D01*
X151080380Y-87795380D01*
X151080380Y-87700142D01*
X151032761Y-87557285D01*
X150985142Y-87509666D01*
X150651809Y-87509666D01*
X150651809Y-87700142D01*
X151080380Y-87081095D02*
X150080380Y-87081095D01*
X150080380Y-86700142D01*
X150128000Y-86604904D01*
X150175619Y-86557285D01*
X150270857Y-86509666D01*
X150413714Y-86509666D01*
X150508952Y-86557285D01*
X150556571Y-86604904D01*
X150604190Y-86700142D01*
X150604190Y-87081095D01*
X151032761Y-86128714D02*
X151080380Y-85985857D01*
X151080380Y-85747761D01*
X151032761Y-85652523D01*
X150985142Y-85604904D01*
X150889904Y-85557285D01*
X150794666Y-85557285D01*
X150699428Y-85604904D01*
X150651809Y-85652523D01*
X150604190Y-85747761D01*
X150556571Y-85938238D01*
X150508952Y-86033476D01*
X150461333Y-86081095D01*
X150366095Y-86128714D01*
X150270857Y-86128714D01*
X150175619Y-86081095D01*
X150128000Y-86033476D01*
X150080380Y-85938238D01*
X150080380Y-85700142D01*
X150128000Y-85557285D01*
%TO.C,P4*%
X131739380Y-147550095D02*
X130739380Y-147550095D01*
X130739380Y-147169142D01*
X130787000Y-147073904D01*
X130834619Y-147026285D01*
X130929857Y-146978666D01*
X131072714Y-146978666D01*
X131167952Y-147026285D01*
X131215571Y-147073904D01*
X131263190Y-147169142D01*
X131263190Y-147550095D01*
X131072714Y-146121523D02*
X131739380Y-146121523D01*
X130691761Y-146359619D02*
X131406047Y-146597714D01*
X131406047Y-145978666D01*
X124611047Y-143454380D02*
X124611047Y-142454380D01*
X124992000Y-142454380D01*
X125087238Y-142502000D01*
X125134857Y-142549619D01*
X125182476Y-142644857D01*
X125182476Y-142787714D01*
X125134857Y-142882952D01*
X125087238Y-142930571D01*
X124992000Y-142978190D01*
X124611047Y-142978190D01*
X125515809Y-142454380D02*
X125753904Y-143454380D01*
X125944380Y-142740095D01*
X126134857Y-143454380D01*
X126372952Y-142454380D01*
X126753904Y-143454380D02*
X126753904Y-142454380D01*
X127087238Y-143168666D01*
X127420571Y-142454380D01*
X127420571Y-143454380D01*
X128325333Y-142787714D02*
X128325333Y-143454380D01*
X128087238Y-142406761D02*
X127849142Y-143121047D01*
X128468190Y-143121047D01*
%TO.C,*%
%TO.C,G\u002A\u002A\u002A*%
G36*
X174692616Y-86115897D02*
G01*
X175320055Y-86614872D01*
X176147646Y-87355697D01*
X177088634Y-88264083D01*
X177173596Y-88349182D01*
X178175848Y-89371335D01*
X178835368Y-90092260D01*
X179202564Y-90581537D01*
X179327845Y-90908749D01*
X179261618Y-91143476D01*
X179229025Y-91186416D01*
X178943588Y-91476424D01*
X178653468Y-91551445D01*
X178250855Y-91372205D01*
X177627935Y-90899432D01*
X177008724Y-90377631D01*
X175568042Y-89147730D01*
X175424894Y-105118170D01*
X173001021Y-105118170D01*
X173001021Y-97249041D01*
X173005127Y-94936865D01*
X173007586Y-93118317D01*
X172993609Y-91746761D01*
X172948407Y-90775558D01*
X172857190Y-90158073D01*
X172705171Y-89847667D01*
X172477560Y-89797704D01*
X172159568Y-89961546D01*
X171736406Y-90292556D01*
X171193285Y-90744097D01*
X170990141Y-90907695D01*
X170371220Y-91370312D01*
X169998503Y-91519085D01*
X169708137Y-91392182D01*
X169548792Y-91243448D01*
X169387575Y-91032470D01*
X169376457Y-90790183D01*
X169565294Y-90443619D01*
X170003940Y-89919808D01*
X170742251Y-89145782D01*
X171516855Y-88362966D01*
X172466222Y-87440673D01*
X173309746Y-86679200D01*
X173961003Y-86152615D01*
X174333572Y-85934983D01*
X174352085Y-85933064D01*
X174692616Y-86115897D01*
G37*
G36*
X176377193Y-133265453D02*
G01*
X176484538Y-133280367D01*
X176550029Y-133318958D01*
X176596880Y-133406017D01*
X176643299Y-133549655D01*
X176691508Y-133698196D01*
X176727927Y-133760320D01*
X176762168Y-133733182D01*
X176803841Y-133613943D01*
X176837722Y-133492160D01*
X176880987Y-133350890D01*
X176927334Y-133281295D01*
X177002050Y-133258146D01*
X177074382Y-133256055D01*
X177187765Y-133263951D01*
X177223320Y-133296442D01*
X177212253Y-133343041D01*
X177178562Y-133428653D01*
X177120241Y-133578500D01*
X177048387Y-133764046D01*
X177028611Y-133815252D01*
X176953545Y-134004144D01*
X176897818Y-134118410D01*
X176846503Y-134176745D01*
X176784674Y-134197843D01*
X176721030Y-134200477D01*
X176617516Y-134189373D01*
X176552045Y-134138945D01*
X176495624Y-134023521D01*
X176482439Y-133989225D01*
X176415702Y-133815285D01*
X176335950Y-133611426D01*
X176297276Y-133513985D01*
X176191804Y-133249998D01*
X176377193Y-133265453D01*
G37*
G36*
X177322310Y-133396509D02*
G01*
X177350917Y-133244532D01*
X177433165Y-133110537D01*
X177579038Y-133017972D01*
X177759764Y-132971589D01*
X177946569Y-132976139D01*
X178110680Y-133036373D01*
X178190194Y-133105946D01*
X178267847Y-133261600D01*
X178306440Y-133466263D01*
X178307081Y-133687902D01*
X178270879Y-133894482D01*
X178198940Y-134053972D01*
X178155762Y-134101383D01*
X178040222Y-134152200D01*
X177872335Y-134179025D01*
X177696961Y-134178688D01*
X177558962Y-134148021D01*
X177550780Y-134144112D01*
X177438486Y-134036086D01*
X177359152Y-133858266D01*
X177328063Y-133688585D01*
X177652593Y-133688585D01*
X177682181Y-133841603D01*
X177713538Y-133909924D01*
X177785306Y-133951463D01*
X177874773Y-133921191D01*
X177930718Y-133855800D01*
X177976492Y-133710058D01*
X177982668Y-133543790D01*
X177954765Y-133385557D01*
X177898303Y-133263919D01*
X177818800Y-133207436D01*
X177805222Y-133206348D01*
X177733813Y-133250677D01*
X177682107Y-133364744D01*
X177653801Y-133520172D01*
X177652593Y-133688585D01*
X177328063Y-133688585D01*
X177318514Y-133636468D01*
X177322310Y-133396509D01*
G37*
G36*
X178805365Y-133857799D02*
G01*
X178861939Y-133890319D01*
X178876445Y-133975170D01*
X178876890Y-134026505D01*
X178870871Y-134137893D01*
X178833705Y-134187395D01*
X178736733Y-134200088D01*
X178678064Y-134200477D01*
X178550763Y-134195210D01*
X178494190Y-134162691D01*
X178479683Y-134077840D01*
X178479238Y-134026505D01*
X178485258Y-133915116D01*
X178522423Y-133865615D01*
X178619395Y-133852921D01*
X178678064Y-133852532D01*
X178805365Y-133857799D01*
G37*
G36*
X179801368Y-132997542D02*
G01*
X179816838Y-133005128D01*
X179939140Y-133115071D01*
X179981189Y-133256010D01*
X179940062Y-133392055D01*
X179897777Y-133481591D01*
X179922739Y-133552126D01*
X179969740Y-133603308D01*
X180056605Y-133740232D01*
X180046651Y-133884129D01*
X179939376Y-134040011D01*
X179924549Y-134055182D01*
X179790055Y-134159747D01*
X179643959Y-134195807D01*
X179589031Y-134196553D01*
X179444316Y-134187045D01*
X179335401Y-134168768D01*
X179324248Y-134165214D01*
X179205518Y-134096941D01*
X179111273Y-134002586D01*
X179075716Y-133920335D01*
X179116361Y-133851224D01*
X179213983Y-133820016D01*
X179332115Y-133830690D01*
X179428574Y-133881831D01*
X179523611Y-133941578D01*
X179608888Y-133922110D01*
X179612970Y-133919585D01*
X179692040Y-133829410D01*
X179686392Y-133736262D01*
X179602850Y-133672115D01*
X179558120Y-133662616D01*
X179461619Y-133639152D01*
X179442076Y-133583801D01*
X179453412Y-133538350D01*
X179522533Y-133420086D01*
X179580743Y-133364493D01*
X179642443Y-133296321D01*
X179645238Y-133252654D01*
X179569339Y-133208634D01*
X179468545Y-133228679D01*
X179402339Y-133284485D01*
X179315929Y-133338335D01*
X179210460Y-133328803D01*
X179105670Y-133289696D01*
X179084750Y-133232237D01*
X179143185Y-133134606D01*
X179164664Y-133107516D01*
X179283494Y-133025407D01*
X179456893Y-132975364D01*
X179643353Y-132963904D01*
X179801368Y-132997542D01*
G37*
D14*
%TO.C,P7*%
X177546000Y-122615000D02*
X180146000Y-122615000D01*
X177546000Y-119955000D02*
X180146000Y-119955000D01*
X177546000Y-122615000D02*
X177546000Y-119955000D01*
X174946000Y-121285000D02*
X174946000Y-119955000D01*
X174946000Y-119955000D02*
X176276000Y-119955000D01*
X180146000Y-122615000D02*
X180146000Y-119955000D01*
%TO.C,J8*%
X164169000Y-81631000D02*
X164169000Y-82961000D01*
X164169000Y-84231000D02*
X164169000Y-94451000D01*
X161509000Y-84231000D02*
X161509000Y-94451000D01*
X161509000Y-84231000D02*
X164169000Y-84231000D01*
X161509000Y-94451000D02*
X164169000Y-94451000D01*
X162839000Y-81631000D02*
X164169000Y-81631000D01*
%TO.C,J7*%
X161611000Y-116519000D02*
X164271000Y-116519000D01*
X164271000Y-101219000D02*
X164271000Y-116519000D01*
X161611000Y-101219000D02*
X164271000Y-101219000D01*
X162941000Y-98619000D02*
X164271000Y-98619000D01*
X161611000Y-101219000D02*
X161611000Y-116519000D01*
X164271000Y-98619000D02*
X164271000Y-99949000D01*
%TO.C,J4*%
X114818000Y-88173000D02*
X122498000Y-88173000D01*
X114818000Y-88173000D02*
X114818000Y-85513000D01*
X122498000Y-88173000D02*
X122498000Y-85513000D01*
X112218000Y-86843000D02*
X112218000Y-85513000D01*
X114818000Y-85513000D02*
X122498000Y-85513000D01*
X112218000Y-85513000D02*
X113548000Y-85513000D01*
%TO.C,J2*%
X177551000Y-126813000D02*
X174951000Y-126813000D01*
X177551000Y-126813000D02*
X177551000Y-129473000D01*
X178821000Y-126813000D02*
X180151000Y-126813000D01*
X174951000Y-126813000D02*
X174951000Y-129473000D01*
X180151000Y-126813000D02*
X180151000Y-128143000D01*
X177551000Y-129473000D02*
X174951000Y-129473000D01*
%TO.C,P5*%
X120202000Y-149134000D02*
X120202000Y-146474000D01*
X120202000Y-146474000D02*
X112462000Y-146474000D01*
X114172000Y-149134000D02*
X114172000Y-155134000D01*
X116712000Y-149134000D02*
X116712000Y-155134000D01*
X115952000Y-146076929D02*
X115952000Y-146474000D01*
X117602000Y-146474000D02*
X117602000Y-149134000D01*
X118592000Y-149134000D02*
X118592000Y-155134000D01*
X119252000Y-155134000D02*
X118492000Y-155134000D01*
X118872000Y-143764000D02*
X120142000Y-143764000D01*
X112462000Y-149134000D02*
X120202000Y-149134000D01*
X115952000Y-155134000D02*
X115952000Y-149134000D01*
X118832000Y-149134000D02*
X118832000Y-155134000D01*
X114172000Y-155134000D02*
X113412000Y-155134000D01*
X115062000Y-146474000D02*
X115062000Y-149134000D01*
X118712000Y-149134000D02*
X118712000Y-155134000D01*
X118492000Y-146144000D02*
X118492000Y-146474000D01*
X119192000Y-149134000D02*
X119192000Y-155134000D01*
X113412000Y-146076929D02*
X113412000Y-146474000D01*
X118492000Y-155134000D02*
X118492000Y-149134000D01*
X120142000Y-143764000D02*
X120142000Y-145034000D01*
X112462000Y-146474000D02*
X112462000Y-149134000D01*
X114172000Y-146076929D02*
X114172000Y-146474000D01*
X119072000Y-149134000D02*
X119072000Y-155134000D01*
X116712000Y-146076929D02*
X116712000Y-146474000D01*
X116712000Y-155134000D02*
X115952000Y-155134000D01*
X119252000Y-146144000D02*
X119252000Y-146474000D01*
X113412000Y-155134000D02*
X113412000Y-149134000D01*
X119252000Y-149134000D02*
X119252000Y-155134000D01*
X118952000Y-149134000D02*
X118952000Y-155134000D01*
%TO.C,P1*%
X160827000Y-146417000D02*
X153087000Y-146417000D01*
X153087000Y-149077000D02*
X160827000Y-149077000D01*
X157337000Y-146019929D02*
X157337000Y-146417000D01*
X159577000Y-149077000D02*
X159577000Y-155077000D01*
X154037000Y-155077000D02*
X154037000Y-149077000D01*
X159337000Y-149077000D02*
X159337000Y-155077000D01*
X155687000Y-146417000D02*
X155687000Y-149077000D01*
X159457000Y-149077000D02*
X159457000Y-155077000D01*
X159497000Y-143707000D02*
X160767000Y-143707000D01*
X159877000Y-149077000D02*
X159877000Y-155077000D01*
X159877000Y-155077000D02*
X159117000Y-155077000D01*
X154037000Y-146019929D02*
X154037000Y-146417000D01*
X159217000Y-149077000D02*
X159217000Y-155077000D01*
X160827000Y-149077000D02*
X160827000Y-146417000D01*
X154797000Y-149077000D02*
X154797000Y-155077000D01*
X154797000Y-146019929D02*
X154797000Y-146417000D01*
X160767000Y-143707000D02*
X160767000Y-144977000D01*
X159117000Y-155077000D02*
X159117000Y-149077000D01*
X159697000Y-149077000D02*
X159697000Y-155077000D01*
X156577000Y-146019929D02*
X156577000Y-146417000D01*
X159117000Y-146087000D02*
X159117000Y-146417000D01*
X159877000Y-146087000D02*
X159877000Y-146417000D01*
X157337000Y-155077000D02*
X156577000Y-155077000D01*
X154797000Y-155077000D02*
X154037000Y-155077000D01*
X157337000Y-149077000D02*
X157337000Y-155077000D01*
X159817000Y-149077000D02*
X159817000Y-155077000D01*
X158227000Y-146417000D02*
X158227000Y-149077000D01*
X156577000Y-155077000D02*
X156577000Y-149077000D01*
X153087000Y-146417000D02*
X153087000Y-149077000D01*
%TO.C,P2*%
X148957000Y-146087000D02*
X148957000Y-146417000D01*
X150607000Y-143707000D02*
X150607000Y-144977000D01*
X149657000Y-149077000D02*
X149657000Y-155077000D01*
X145527000Y-146417000D02*
X145527000Y-149077000D01*
X142927000Y-149077000D02*
X150667000Y-149077000D01*
X149537000Y-149077000D02*
X149537000Y-155077000D01*
X149177000Y-149077000D02*
X149177000Y-155077000D01*
X142927000Y-146417000D02*
X142927000Y-149077000D01*
X146417000Y-155077000D02*
X146417000Y-149077000D01*
X149717000Y-155077000D02*
X148957000Y-155077000D01*
X149717000Y-146087000D02*
X149717000Y-146417000D01*
X144637000Y-149077000D02*
X144637000Y-155077000D01*
X147177000Y-149077000D02*
X147177000Y-155077000D01*
X149297000Y-149077000D02*
X149297000Y-155077000D01*
X148957000Y-155077000D02*
X148957000Y-149077000D01*
X147177000Y-155077000D02*
X146417000Y-155077000D01*
X143877000Y-155077000D02*
X143877000Y-149077000D01*
X147177000Y-146019929D02*
X147177000Y-146417000D01*
X144637000Y-146019929D02*
X144637000Y-146417000D01*
X149717000Y-149077000D02*
X149717000Y-155077000D01*
X143877000Y-146019929D02*
X143877000Y-146417000D01*
X150667000Y-146417000D02*
X142927000Y-146417000D01*
X149417000Y-149077000D02*
X149417000Y-155077000D01*
X150667000Y-149077000D02*
X150667000Y-146417000D01*
X149337000Y-143707000D02*
X150607000Y-143707000D01*
X144637000Y-155077000D02*
X143877000Y-155077000D01*
X149057000Y-149077000D02*
X149057000Y-155077000D01*
X146417000Y-146019929D02*
X146417000Y-146417000D01*
X148067000Y-146417000D02*
X148067000Y-149077000D01*
%TO.C,G\u002A\u002A\u002A*%
G36*
X176014866Y-130496108D02*
G01*
X176061742Y-130528354D01*
X176124062Y-130607927D01*
X176102255Y-130645817D01*
X176034095Y-130652762D01*
X175955478Y-130632501D01*
X175937334Y-130604381D01*
X175896812Y-130565072D01*
X175840572Y-130556000D01*
X175782533Y-130568736D01*
X175753588Y-130622795D01*
X175744224Y-130741953D01*
X175743810Y-130797905D01*
X175748904Y-130943000D01*
X175770528Y-131015365D01*
X175818191Y-131038775D01*
X175840572Y-131039810D01*
X175919189Y-131019549D01*
X175937334Y-130991429D01*
X175977855Y-130952120D01*
X176034095Y-130943048D01*
X176117236Y-130957163D01*
X176114702Y-131006007D01*
X176061742Y-131067456D01*
X175955784Y-131119203D01*
X175811742Y-131132019D01*
X175676385Y-131106242D01*
X175610762Y-131064202D01*
X175566775Y-130959544D01*
X175552157Y-130808479D01*
X175566205Y-130654649D01*
X175608215Y-130541694D01*
X175619402Y-130528354D01*
X175730889Y-130473697D01*
X175879184Y-130462949D01*
X176014866Y-130496108D01*
G37*
G36*
X172202295Y-130728500D02*
G01*
X172259702Y-130832633D01*
X172262203Y-130860083D01*
X172262616Y-130939744D01*
X172262713Y-131099725D01*
X172262508Y-131323588D01*
X172262019Y-131594893D01*
X172261262Y-131897200D01*
X172261083Y-131959048D01*
X172259250Y-132298139D01*
X172255358Y-132553261D01*
X172248392Y-132737200D01*
X172237334Y-132862742D01*
X172221170Y-132942674D01*
X172198881Y-132989782D01*
X172177443Y-133011334D01*
X172095315Y-133062253D01*
X172026203Y-133055815D01*
X171958000Y-133019554D01*
X171930689Y-132996118D01*
X171909924Y-132953746D01*
X171894823Y-132880382D01*
X171884505Y-132763970D01*
X171878089Y-132592456D01*
X171874693Y-132353785D01*
X171873436Y-132035901D01*
X171873334Y-131861584D01*
X171873711Y-131505891D01*
X171875522Y-131234744D01*
X171879785Y-131035929D01*
X171887519Y-130897231D01*
X171899741Y-130806437D01*
X171917472Y-130751331D01*
X171941728Y-130719699D01*
X171970095Y-130701143D01*
X172094502Y-130678544D01*
X172202295Y-130728500D01*
G37*
G36*
X169247450Y-137388625D02*
G01*
X169372180Y-137491396D01*
X169545467Y-137657838D01*
X169577579Y-137689850D01*
X169754572Y-137871889D01*
X169866730Y-138003261D01*
X169921548Y-138097572D01*
X169926523Y-138168428D01*
X169889149Y-138229437D01*
X169880038Y-138238895D01*
X169813870Y-138283034D01*
X169736878Y-138280645D01*
X169636174Y-138224676D01*
X169498870Y-138108074D01*
X169321238Y-137933137D01*
X169147550Y-137750937D01*
X169038191Y-137619802D01*
X168985733Y-137525882D01*
X168982750Y-137455329D01*
X169021813Y-137394294D01*
X169028534Y-137387391D01*
X169089233Y-137344118D01*
X169157670Y-137342031D01*
X169247450Y-137388625D01*
G37*
G36*
X169299438Y-140598214D02*
G01*
X169356845Y-140702347D01*
X169359345Y-140729798D01*
X169359759Y-140809458D01*
X169359855Y-140969439D01*
X169359651Y-141193303D01*
X169359161Y-141464608D01*
X169358405Y-141766914D01*
X169358226Y-141828762D01*
X169356392Y-142167854D01*
X169352501Y-142422976D01*
X169345535Y-142606914D01*
X169334477Y-142732456D01*
X169318313Y-142812388D01*
X169296024Y-142859496D01*
X169274586Y-142881048D01*
X169192458Y-142931967D01*
X169123345Y-142925529D01*
X169055143Y-142889268D01*
X169027832Y-142865833D01*
X169007066Y-142823460D01*
X168991966Y-142750096D01*
X168981648Y-142633684D01*
X168975232Y-142462170D01*
X168971836Y-142223499D01*
X168970579Y-141905616D01*
X168970476Y-141731298D01*
X168970854Y-141375605D01*
X168972665Y-141104458D01*
X168976928Y-140905643D01*
X168984661Y-140766946D01*
X168996884Y-140676151D01*
X169014615Y-140621045D01*
X169038871Y-140589413D01*
X169067238Y-140570857D01*
X169191645Y-140548259D01*
X169299438Y-140598214D01*
G37*
G36*
X176179238Y-132297715D02*
G01*
X176182769Y-132459845D01*
X176198278Y-132547452D01*
X176233143Y-132582664D01*
X176276000Y-132588000D01*
X176354618Y-132608261D01*
X176372762Y-132636381D01*
X176328694Y-132662152D01*
X176213572Y-132679623D01*
X176082476Y-132684762D01*
X175927854Y-132677417D01*
X175823025Y-132658230D01*
X175792191Y-132636381D01*
X175832712Y-132597072D01*
X175888953Y-132588000D01*
X175946991Y-132575264D01*
X175975937Y-132521205D01*
X175985300Y-132402048D01*
X175985715Y-132346095D01*
X175980620Y-132201000D01*
X175958997Y-132128635D01*
X175911334Y-132105226D01*
X175888953Y-132104191D01*
X175810335Y-132083930D01*
X175792191Y-132055810D01*
X175835112Y-132025513D01*
X175942334Y-132008662D01*
X175985715Y-132007429D01*
X176179238Y-132007429D01*
X176179238Y-132297715D01*
G37*
G36*
X175147336Y-130203163D02*
G01*
X175163238Y-130265715D01*
X175129028Y-130346574D01*
X175066476Y-130362476D01*
X174985617Y-130328266D01*
X174969715Y-130265715D01*
X175003925Y-130184855D01*
X175066476Y-130168953D01*
X175147336Y-130203163D01*
G37*
G36*
X181150381Y-145196646D02*
G01*
X181188864Y-145235368D01*
X181215219Y-145306006D01*
X181232402Y-145426247D01*
X181243372Y-145613778D01*
X181248687Y-145784671D01*
X181262325Y-146319404D01*
X181115639Y-146423854D01*
X181009062Y-146524799D01*
X180970826Y-146646149D01*
X180968953Y-146695662D01*
X180963008Y-146760452D01*
X180939129Y-146827647D01*
X180888252Y-146908638D01*
X180801310Y-147014819D01*
X180669238Y-147157584D01*
X180482970Y-147348325D01*
X180317129Y-147514844D01*
X180110136Y-147718605D01*
X179923417Y-147896328D01*
X179768690Y-148037346D01*
X179657672Y-148130992D01*
X179602081Y-148166600D01*
X179601091Y-148166667D01*
X179512383Y-148135071D01*
X179478819Y-148108610D01*
X179427106Y-148020182D01*
X179420762Y-147983413D01*
X179453759Y-147928637D01*
X179545111Y-147819480D01*
X179683358Y-147668557D01*
X179857041Y-147488486D01*
X180001334Y-147344191D01*
X180216555Y-147130380D01*
X180371359Y-146970727D01*
X180475497Y-146852761D01*
X180538719Y-146764013D01*
X180570779Y-146692015D01*
X180581427Y-146624296D01*
X180581905Y-146601825D01*
X180603904Y-146461465D01*
X180686836Y-146358672D01*
X180725379Y-146329379D01*
X180790442Y-146279284D01*
X180832728Y-146226334D01*
X180857919Y-146149173D01*
X180871701Y-146026442D01*
X180879757Y-145836783D01*
X180882617Y-145738562D01*
X180891885Y-145507284D01*
X180906347Y-145354275D01*
X180929358Y-145261060D01*
X180964274Y-145209163D01*
X180981048Y-145196629D01*
X181085340Y-145169255D01*
X181150381Y-145196646D01*
G37*
G36*
X176163336Y-131751354D02*
G01*
X176179238Y-131813905D01*
X176145028Y-131894764D01*
X176082476Y-131910667D01*
X176001617Y-131876456D01*
X175985715Y-131813905D01*
X176019925Y-131733046D01*
X176082476Y-131717143D01*
X176163336Y-131751354D01*
G37*
G36*
X176953334Y-132200953D02*
G01*
X176955354Y-132393796D01*
X176964658Y-132509372D01*
X176986113Y-132567144D01*
X177024583Y-132586576D01*
X177050095Y-132588000D01*
X177128713Y-132608261D01*
X177146857Y-132636381D01*
X177102789Y-132662152D01*
X176987667Y-132679623D01*
X176856572Y-132684762D01*
X176701949Y-132677417D01*
X176597120Y-132658230D01*
X176566286Y-132636381D01*
X176606807Y-132597072D01*
X176663048Y-132588000D01*
X176713899Y-132578863D01*
X176743031Y-132537659D01*
X176756355Y-132443699D01*
X176759783Y-132276291D01*
X176759810Y-132249334D01*
X176757199Y-132071354D01*
X176745427Y-131969392D01*
X176718581Y-131922757D01*
X176670750Y-131910761D01*
X176663048Y-131910667D01*
X176584430Y-131890406D01*
X176566286Y-131862286D01*
X176609207Y-131831990D01*
X176716430Y-131815139D01*
X176759810Y-131813905D01*
X176953334Y-131813905D01*
X176953334Y-132200953D01*
G37*
G36*
X171309108Y-130112435D02*
G01*
X171379299Y-130203254D01*
X171389524Y-130251772D01*
X171356251Y-130299470D01*
X171262069Y-130406176D01*
X171115433Y-130563436D01*
X170924799Y-130762795D01*
X170698623Y-130995795D01*
X170445359Y-131253983D01*
X170173463Y-131528902D01*
X169891391Y-131812098D01*
X169607598Y-132095114D01*
X169330539Y-132369495D01*
X169068670Y-132626787D01*
X168830447Y-132858533D01*
X168624325Y-133056277D01*
X168458758Y-133211566D01*
X168342204Y-133315942D01*
X168283116Y-133360951D01*
X168279200Y-133362095D01*
X168191218Y-133330538D01*
X168157676Y-133304038D01*
X168106061Y-133217925D01*
X168099619Y-133182515D01*
X168132892Y-133134817D01*
X168227074Y-133028110D01*
X168373710Y-132870850D01*
X168564344Y-132671492D01*
X168790521Y-132438491D01*
X169043784Y-132180303D01*
X169315680Y-131905384D01*
X169597752Y-131622188D01*
X169881546Y-131339172D01*
X170158604Y-131064791D01*
X170420473Y-130807499D01*
X170658696Y-130575754D01*
X170864819Y-130378009D01*
X171030385Y-130222720D01*
X171146939Y-130118344D01*
X171206027Y-130073335D01*
X171209943Y-130072191D01*
X171309108Y-130112435D01*
G37*
G36*
X171861238Y-144906441D02*
G01*
X171887756Y-144930930D01*
X171908425Y-144974614D01*
X171924149Y-145049076D01*
X171935832Y-145165898D01*
X171944379Y-145336659D01*
X171950695Y-145572943D01*
X171955682Y-145886330D01*
X171958856Y-146156678D01*
X171971806Y-147353541D01*
X172184846Y-147566580D01*
X172311078Y-147685686D01*
X172409593Y-147749596D01*
X172517167Y-147775246D01*
X172647429Y-147779619D01*
X172793549Y-147773463D01*
X172898212Y-147743646D01*
X172998521Y-147673146D01*
X173108516Y-147568076D01*
X173221932Y-147449086D01*
X173286708Y-147353367D01*
X173318233Y-147244197D01*
X173331899Y-147084854D01*
X173334506Y-147028841D01*
X173360537Y-146798792D01*
X173414828Y-146660351D01*
X173498216Y-146612333D01*
X173602953Y-146647999D01*
X173649543Y-146699388D01*
X173679037Y-146795932D01*
X173696232Y-146958187D01*
X173701755Y-147071386D01*
X173715891Y-147441554D01*
X173353334Y-147804110D01*
X172990777Y-148166667D01*
X172637675Y-148163523D01*
X172284572Y-148160380D01*
X171932990Y-147802031D01*
X171581409Y-147443681D01*
X171594324Y-146201751D01*
X171598810Y-145820111D01*
X171603936Y-145523875D01*
X171610558Y-145301686D01*
X171619530Y-145142187D01*
X171631708Y-145034021D01*
X171647949Y-144965831D01*
X171669106Y-144926258D01*
X171691905Y-144906443D01*
X171795921Y-144878925D01*
X171861238Y-144906441D01*
G37*
G36*
X170729154Y-145514991D02*
G01*
X170784605Y-145653983D01*
X170799662Y-145768429D01*
X170789674Y-145972016D01*
X170727966Y-146094183D01*
X170615429Y-146134667D01*
X170512664Y-146099775D01*
X170473406Y-146065854D01*
X170434992Y-145963542D01*
X170427562Y-145815202D01*
X170447308Y-145659289D01*
X170490420Y-145534255D01*
X170530762Y-145486727D01*
X170642275Y-145456867D01*
X170729154Y-145514991D01*
G37*
G36*
X177398310Y-132089885D02*
G01*
X177409497Y-132076544D01*
X177505490Y-132026954D01*
X177630667Y-132007429D01*
X177789353Y-132037882D01*
X177883616Y-132134355D01*
X177920031Y-132304524D01*
X177920953Y-132346095D01*
X177904998Y-132489781D01*
X177865335Y-132598284D01*
X177851837Y-132615646D01*
X177745880Y-132667393D01*
X177601838Y-132680210D01*
X177466481Y-132654432D01*
X177400857Y-132612392D01*
X177356870Y-132507735D01*
X177342252Y-132356670D01*
X177343218Y-132346095D01*
X177533905Y-132346095D01*
X177538999Y-132491191D01*
X177560623Y-132563556D01*
X177608286Y-132586965D01*
X177630667Y-132588000D01*
X177688705Y-132575264D01*
X177717651Y-132521205D01*
X177727015Y-132402048D01*
X177727429Y-132346095D01*
X177722334Y-132201000D01*
X177700711Y-132128635D01*
X177653048Y-132105226D01*
X177630667Y-132104191D01*
X177572629Y-132116927D01*
X177543683Y-132170986D01*
X177534319Y-132290143D01*
X177533905Y-132346095D01*
X177343218Y-132346095D01*
X177356300Y-132202839D01*
X177398310Y-132089885D01*
G37*
G36*
X178819098Y-145528697D02*
G01*
X178885378Y-145612317D01*
X178923993Y-145699238D01*
X178979718Y-145817748D01*
X179029629Y-145886120D01*
X179043522Y-145892762D01*
X179087903Y-145933054D01*
X179145808Y-146033693D01*
X179164114Y-146074191D01*
X179197504Y-146179648D01*
X179220257Y-146322742D01*
X179233822Y-146520299D01*
X179239646Y-146789145D01*
X179240106Y-146957143D01*
X179236112Y-147283457D01*
X179223517Y-147528785D01*
X179199667Y-147708718D01*
X179161908Y-147838848D01*
X179107587Y-147934769D01*
X179065552Y-147982775D01*
X178998876Y-148075174D01*
X178929302Y-148208023D01*
X178918826Y-148232187D01*
X178848782Y-148356936D01*
X178765896Y-148405689D01*
X178731383Y-148408572D01*
X178616939Y-148385196D01*
X178559581Y-148350515D01*
X178510151Y-148273756D01*
X178520372Y-148185585D01*
X178596201Y-148067345D01*
X178681972Y-147967211D01*
X178862420Y-147767477D01*
X178862420Y-146146809D01*
X178681972Y-145947075D01*
X178581959Y-145825780D01*
X178516433Y-145725996D01*
X178501524Y-145684585D01*
X178544374Y-145581642D01*
X178653233Y-145516835D01*
X178732807Y-145505715D01*
X178819098Y-145528697D01*
G37*
G36*
X170148583Y-145514991D02*
G01*
X170204034Y-145653983D01*
X170219090Y-145768429D01*
X170209102Y-145972016D01*
X170147394Y-146094183D01*
X170034857Y-146134667D01*
X169932092Y-146099775D01*
X169892834Y-146065854D01*
X169854420Y-145963542D01*
X169846991Y-145815202D01*
X169866736Y-145659289D01*
X169909849Y-145534255D01*
X169950191Y-145486727D01*
X170061703Y-145456867D01*
X170148583Y-145514991D01*
G37*
G36*
X172659496Y-132416564D02*
G01*
X172761469Y-132480000D01*
X172903708Y-132602308D01*
X173057762Y-132751746D01*
X173235553Y-132934510D01*
X173348572Y-133066477D01*
X173404317Y-133161194D01*
X173410285Y-133232206D01*
X173373974Y-133293059D01*
X173363467Y-133304038D01*
X173287345Y-133352510D01*
X173200259Y-133343225D01*
X173088705Y-133269557D01*
X172939177Y-133124882D01*
X172889334Y-133071473D01*
X172753665Y-132931868D01*
X172632607Y-132821142D01*
X172548066Y-132758993D01*
X172535815Y-132753549D01*
X172469446Y-132689980D01*
X172454541Y-132586328D01*
X172485625Y-132480749D01*
X172557228Y-132411399D01*
X172586047Y-132403325D01*
X172659496Y-132416564D01*
G37*
G36*
X178388860Y-131848115D02*
G01*
X178404762Y-131910667D01*
X178427571Y-131981494D01*
X178512438Y-132006431D01*
X178549905Y-132007429D01*
X178651815Y-132021443D01*
X178695037Y-132055208D01*
X178695048Y-132055810D01*
X178653006Y-132089780D01*
X178551711Y-132104187D01*
X178549905Y-132104191D01*
X178463984Y-132109476D01*
X178421138Y-132141971D01*
X178406392Y-132226637D01*
X178404762Y-132346095D01*
X178407933Y-132489297D01*
X178427430Y-132560707D01*
X178478230Y-132585284D01*
X178549905Y-132588000D01*
X178651815Y-132602014D01*
X178695037Y-132635779D01*
X178695048Y-132636381D01*
X178654188Y-132670860D01*
X178555222Y-132682529D01*
X178433568Y-132673396D01*
X178324645Y-132645467D01*
X178271715Y-132612392D01*
X178234401Y-132523752D01*
X178213128Y-132383562D01*
X178211238Y-132327979D01*
X178198304Y-132183590D01*
X178164526Y-132095346D01*
X178150762Y-132084032D01*
X178115183Y-132052259D01*
X178150762Y-132027588D01*
X178201645Y-131961075D01*
X178211238Y-131906635D01*
X178247374Y-131828684D01*
X178308000Y-131813905D01*
X178388860Y-131848115D01*
G37*
G36*
X167838580Y-135055994D02*
G01*
X167848038Y-135065105D01*
X167895698Y-135137449D01*
X167889557Y-135219512D01*
X167822635Y-135325542D01*
X167687954Y-135469788D01*
X167615810Y-135539238D01*
X167468187Y-135684575D01*
X167380366Y-135790675D01*
X167337718Y-135880133D01*
X167325618Y-135975546D01*
X167325524Y-135987676D01*
X167304916Y-136128314D01*
X167225971Y-136229933D01*
X167180381Y-136264953D01*
X167097856Y-136332745D01*
X167054362Y-136406800D01*
X167037622Y-136519859D01*
X167035238Y-136652000D01*
X167039858Y-136816594D01*
X167061900Y-136917303D01*
X167113645Y-136986868D01*
X167180381Y-137039048D01*
X167285499Y-137138593D01*
X167323391Y-137260175D01*
X167325524Y-137316325D01*
X167335097Y-137413826D01*
X167373569Y-137502826D01*
X167455565Y-137605919D01*
X167595713Y-137745701D01*
X167615810Y-137764762D01*
X167778714Y-137927709D01*
X167871147Y-138046902D01*
X167900087Y-138136589D01*
X167872512Y-138211018D01*
X167848038Y-138238895D01*
X167781870Y-138283034D01*
X167704878Y-138280645D01*
X167604174Y-138224676D01*
X167466870Y-138108074D01*
X167289238Y-137933137D01*
X167126358Y-137762614D01*
X167022312Y-137639109D01*
X166964745Y-137544104D01*
X166941304Y-137459082D01*
X166938476Y-137407384D01*
X166916353Y-137268856D01*
X166833255Y-137166179D01*
X166793334Y-137135810D01*
X166720543Y-137078831D01*
X166677335Y-137019169D01*
X166656010Y-136931162D01*
X166648871Y-136789149D01*
X166648191Y-136652000D01*
X166650154Y-136459799D01*
X166661178Y-136338689D01*
X166688959Y-136263009D01*
X166741197Y-136207099D01*
X166793334Y-136168191D01*
X166899239Y-136067165D01*
X166936788Y-135944166D01*
X166938476Y-135896460D01*
X166947444Y-135810133D01*
X166982592Y-135725275D01*
X167056289Y-135623742D01*
X167180905Y-135487388D01*
X167298993Y-135367564D01*
X167481032Y-135190571D01*
X167612404Y-135078413D01*
X167706715Y-135023595D01*
X167777571Y-135018620D01*
X167838580Y-135055994D01*
G37*
G36*
X174722041Y-140845434D02*
G01*
X174831198Y-140935342D01*
X174980361Y-141070325D01*
X175155816Y-141238221D01*
X175237497Y-141319074D01*
X175433829Y-141516709D01*
X175571529Y-141661184D01*
X175660974Y-141767171D01*
X175712536Y-141849343D01*
X175736591Y-141922371D01*
X175743513Y-142000926D01*
X175743810Y-142035113D01*
X175720066Y-142225450D01*
X175648115Y-142333098D01*
X175550286Y-142360953D01*
X175448699Y-142328675D01*
X175414819Y-142302895D01*
X175374823Y-142217171D01*
X175356839Y-142088266D01*
X175356762Y-142079655D01*
X175348820Y-142001888D01*
X175317404Y-141924068D01*
X175251135Y-141830787D01*
X175138631Y-141706633D01*
X174968511Y-141536198D01*
X174921334Y-141490095D01*
X174755453Y-141323238D01*
X174618675Y-141175773D01*
X174524429Y-141062902D01*
X174486148Y-140999827D01*
X174485905Y-140997298D01*
X174525858Y-140894112D01*
X174617333Y-140822856D01*
X174666602Y-140812762D01*
X174722041Y-140845434D01*
G37*
G36*
X174223266Y-130265715D02*
G01*
X174422596Y-130291666D01*
X174541792Y-130370321D01*
X174582634Y-130502876D01*
X174582667Y-130507619D01*
X174540397Y-130644234D01*
X174428043Y-130730190D01*
X174320027Y-130749524D01*
X174239958Y-130759560D01*
X174204365Y-130807882D01*
X174195686Y-130921808D01*
X174195619Y-130943048D01*
X174187505Y-131069658D01*
X174154708Y-131125615D01*
X174098857Y-131136572D01*
X174052885Y-131129296D01*
X174024318Y-131095191D01*
X174009065Y-131015840D01*
X174003033Y-130872827D01*
X174002095Y-130701143D01*
X174002095Y-130507619D01*
X174195619Y-130507619D01*
X174210825Y-130613859D01*
X174267403Y-130651265D01*
X174292381Y-130652762D01*
X174363208Y-130629953D01*
X174388145Y-130545086D01*
X174389143Y-130507619D01*
X174373937Y-130401379D01*
X174317359Y-130363974D01*
X174292381Y-130362476D01*
X174221554Y-130385285D01*
X174196618Y-130470152D01*
X174195619Y-130507619D01*
X174002095Y-130507619D01*
X174002095Y-130265715D01*
X174223266Y-130265715D01*
G37*
G36*
X177409606Y-147563858D02*
G01*
X177460579Y-147632098D01*
X177467504Y-147790805D01*
X177411763Y-147978701D01*
X177305632Y-148163769D01*
X177217779Y-148265127D01*
X177044927Y-148432762D01*
X176116178Y-148448028D01*
X175768805Y-148452032D01*
X175507701Y-148450768D01*
X175322493Y-148443756D01*
X175202806Y-148430513D01*
X175138268Y-148410558D01*
X175126953Y-148402066D01*
X175073596Y-148306965D01*
X175066476Y-148263429D01*
X175075019Y-148196052D01*
X175108932Y-148146238D01*
X175180640Y-148111397D01*
X175302571Y-148088940D01*
X175487152Y-148076279D01*
X175746807Y-148070824D01*
X175995391Y-148069905D01*
X176316390Y-148068699D01*
X176555564Y-148061732D01*
X176727849Y-148043980D01*
X176848179Y-148010419D01*
X176931490Y-147956024D01*
X176992715Y-147875771D01*
X177046789Y-147764637D01*
X177070702Y-147708163D01*
X177133600Y-147591919D01*
X177211345Y-147544320D01*
X177286271Y-147537715D01*
X177409606Y-147563858D01*
G37*
G36*
X171012529Y-137542603D02*
G01*
X171054140Y-137440187D01*
X171144483Y-137327030D01*
X171216371Y-137252943D01*
X171348188Y-137130532D01*
X171451960Y-137065749D01*
X171561018Y-137041417D01*
X171631429Y-137039048D01*
X171756555Y-137049050D01*
X171858938Y-137090506D01*
X171971910Y-137180594D01*
X172046486Y-137252943D01*
X172168897Y-137384759D01*
X172233680Y-137488531D01*
X172258012Y-137597589D01*
X172260381Y-137668000D01*
X172250379Y-137793126D01*
X172208923Y-137895509D01*
X172118835Y-138008482D01*
X172046486Y-138083058D01*
X171916912Y-138204147D01*
X171816041Y-138268275D01*
X171710055Y-138292335D01*
X171623153Y-138294496D01*
X171493299Y-138283516D01*
X171390757Y-138242263D01*
X171280808Y-138152811D01*
X171208095Y-138080176D01*
X171088332Y-137946160D01*
X171026042Y-137838880D01*
X171003938Y-137723646D01*
X171002487Y-137668000D01*
X171389524Y-137668000D01*
X171424387Y-137815595D01*
X171528082Y-137895225D01*
X171631429Y-137909905D01*
X171749414Y-137888784D01*
X171815276Y-137851848D01*
X171859983Y-137761379D01*
X171873334Y-137668000D01*
X171852212Y-137550015D01*
X171815276Y-137484153D01*
X171724807Y-137439446D01*
X171631429Y-137426095D01*
X171513444Y-137447217D01*
X171447581Y-137484153D01*
X171402875Y-137574622D01*
X171389524Y-137668000D01*
X171002487Y-137668000D01*
X171002476Y-137667575D01*
X171012529Y-137542603D01*
G37*
G36*
X175239266Y-131813905D02*
G01*
X175438596Y-131839857D01*
X175557792Y-131918511D01*
X175598634Y-132051067D01*
X175598667Y-132055810D01*
X175556397Y-132192424D01*
X175444043Y-132278380D01*
X175336027Y-132297715D01*
X175255958Y-132307751D01*
X175220365Y-132356073D01*
X175211686Y-132469998D01*
X175211619Y-132491238D01*
X175203505Y-132617849D01*
X175170708Y-132673805D01*
X175114857Y-132684762D01*
X175068885Y-132677486D01*
X175040318Y-132643382D01*
X175025065Y-132564031D01*
X175019033Y-132421018D01*
X175018095Y-132249334D01*
X175018095Y-132055810D01*
X175211619Y-132055810D01*
X175226825Y-132162050D01*
X175283403Y-132199455D01*
X175308381Y-132200953D01*
X175379208Y-132178144D01*
X175404145Y-132093277D01*
X175405143Y-132055810D01*
X175389937Y-131949570D01*
X175333359Y-131912164D01*
X175308381Y-131910667D01*
X175237554Y-131933476D01*
X175212618Y-132018343D01*
X175211619Y-132055810D01*
X175018095Y-132055810D01*
X175018095Y-131813905D01*
X175239266Y-131813905D01*
G37*
G36*
X175030142Y-145474018D02*
G01*
X175157903Y-145526567D01*
X175207092Y-145618721D01*
X175203491Y-145684819D01*
X175142189Y-145760689D01*
X174992726Y-145829687D01*
X174957591Y-145840816D01*
X174798960Y-145898933D01*
X174736706Y-145949127D01*
X174770777Y-145991503D01*
X174870480Y-146020477D01*
X175015201Y-146077037D01*
X175112737Y-146167474D01*
X175141878Y-146269667D01*
X175135208Y-146296561D01*
X175072705Y-146358092D01*
X174952779Y-146416853D01*
X174904232Y-146432666D01*
X174770147Y-146476194D01*
X174676517Y-146516415D01*
X174660760Y-146526767D01*
X174643451Y-146587240D01*
X174628493Y-146723834D01*
X174617543Y-146915909D01*
X174612380Y-147129384D01*
X174608473Y-147374399D01*
X174600455Y-147540824D01*
X174585372Y-147646826D01*
X174560273Y-147710570D01*
X174522205Y-147750221D01*
X174510095Y-147758644D01*
X174395259Y-147796033D01*
X174328667Y-147774419D01*
X174293341Y-147743331D01*
X174269303Y-147686339D01*
X174254474Y-147587009D01*
X174246774Y-147428908D01*
X174244122Y-147195601D01*
X174244000Y-147105446D01*
X174243303Y-146850225D01*
X174239179Y-146674125D01*
X174228581Y-146559505D01*
X174208463Y-146488724D01*
X174175777Y-146444142D01*
X174127476Y-146408119D01*
X174123048Y-146405211D01*
X174022994Y-146304038D01*
X174017368Y-146191014D01*
X174106292Y-146062472D01*
X174135143Y-146034843D01*
X174238701Y-145919649D01*
X174350912Y-145764664D01*
X174400047Y-145685403D01*
X174531904Y-145457334D01*
X174817457Y-145457334D01*
X175030142Y-145474018D01*
G37*
G36*
X168151282Y-135408187D02*
G01*
X168241626Y-135295030D01*
X168313514Y-135220943D01*
X168434145Y-135108701D01*
X168533425Y-135031247D01*
X168583429Y-135007048D01*
X168644856Y-135039079D01*
X168748479Y-135122416D01*
X168853344Y-135220943D01*
X168975754Y-135352759D01*
X169040537Y-135456531D01*
X169064869Y-135565589D01*
X169067238Y-135636000D01*
X169057237Y-135761126D01*
X169015780Y-135863509D01*
X168925692Y-135976482D01*
X168853344Y-136051058D01*
X168731303Y-136163074D01*
X168628721Y-136239582D01*
X168575153Y-136262496D01*
X168509276Y-136228538D01*
X168403721Y-136142913D01*
X168305238Y-136048176D01*
X168185475Y-135914160D01*
X168123185Y-135806880D01*
X168101081Y-135691646D01*
X168099619Y-135635575D01*
X168101914Y-135607045D01*
X168491620Y-135607045D01*
X168495707Y-135726233D01*
X168507057Y-135764494D01*
X168554783Y-135823262D01*
X168606962Y-135803505D01*
X168645968Y-135720906D01*
X168656000Y-135631968D01*
X168639459Y-135508332D01*
X168587096Y-135466759D01*
X168583429Y-135466667D01*
X168524068Y-135508015D01*
X168491620Y-135607045D01*
X168101914Y-135607045D01*
X168109672Y-135510603D01*
X168151282Y-135408187D01*
G37*
G36*
X169248667Y-144906441D02*
G01*
X169275185Y-144930930D01*
X169295853Y-144974614D01*
X169311577Y-145049076D01*
X169323261Y-145165898D01*
X169331808Y-145336659D01*
X169338123Y-145572943D01*
X169343111Y-145886330D01*
X169346284Y-146156678D01*
X169359235Y-147353541D01*
X169572274Y-147566580D01*
X169698507Y-147685686D01*
X169797022Y-147749596D01*
X169904595Y-147775246D01*
X170034857Y-147779619D01*
X170180978Y-147773463D01*
X170285641Y-147743646D01*
X170385949Y-147673146D01*
X170495945Y-147568076D01*
X170609361Y-147449086D01*
X170674136Y-147353367D01*
X170705662Y-147244197D01*
X170719327Y-147084854D01*
X170721935Y-147028841D01*
X170747965Y-146798792D01*
X170802257Y-146660351D01*
X170885645Y-146612333D01*
X170990381Y-146647999D01*
X171036971Y-146699388D01*
X171066465Y-146795932D01*
X171083661Y-146958187D01*
X171089184Y-147071386D01*
X171103319Y-147441554D01*
X170378206Y-148166667D01*
X170025103Y-148163523D01*
X169672000Y-148160380D01*
X169320419Y-147802031D01*
X168968837Y-147443681D01*
X168981752Y-146201751D01*
X168986239Y-145820111D01*
X168991365Y-145523875D01*
X168997986Y-145301686D01*
X169006958Y-145142187D01*
X169019137Y-145034021D01*
X169035377Y-144965831D01*
X169056535Y-144926258D01*
X169079334Y-144906443D01*
X169183350Y-144878925D01*
X169248667Y-144906441D01*
G37*
G36*
X176382310Y-130541694D02*
G01*
X176393497Y-130528354D01*
X176504984Y-130473697D01*
X176653279Y-130462949D01*
X176788961Y-130496108D01*
X176835837Y-130528354D01*
X176879882Y-130618668D01*
X176903620Y-130757428D01*
X176904953Y-130797905D01*
X176888998Y-130941590D01*
X176849335Y-131050094D01*
X176835837Y-131067456D01*
X176729880Y-131119203D01*
X176585838Y-131132019D01*
X176450481Y-131106242D01*
X176384857Y-131064202D01*
X176340870Y-130959544D01*
X176326252Y-130808479D01*
X176327218Y-130797905D01*
X176517905Y-130797905D01*
X176522999Y-130943000D01*
X176544623Y-131015365D01*
X176592286Y-131038775D01*
X176614667Y-131039810D01*
X176672705Y-131027074D01*
X176701651Y-130973015D01*
X176711015Y-130853857D01*
X176711429Y-130797905D01*
X176706334Y-130652809D01*
X176684711Y-130580445D01*
X176637048Y-130557035D01*
X176614667Y-130556000D01*
X176556629Y-130568736D01*
X176527683Y-130622795D01*
X176518319Y-130741953D01*
X176517905Y-130797905D01*
X176327218Y-130797905D01*
X176340300Y-130654649D01*
X176382310Y-130541694D01*
G37*
G36*
X169756639Y-142286279D02*
G01*
X169858611Y-142349714D01*
X170000851Y-142472022D01*
X170154904Y-142621461D01*
X170332696Y-142804224D01*
X170445715Y-142936192D01*
X170501460Y-143030909D01*
X170507428Y-143101921D01*
X170471117Y-143162773D01*
X170460610Y-143173753D01*
X170384487Y-143222225D01*
X170297402Y-143212939D01*
X170185848Y-143139271D01*
X170036320Y-142994596D01*
X169986476Y-142941187D01*
X169850808Y-142801583D01*
X169729750Y-142690856D01*
X169645209Y-142628707D01*
X169632958Y-142623264D01*
X169566589Y-142559695D01*
X169551683Y-142456043D01*
X169582768Y-142350464D01*
X169654370Y-142281113D01*
X169683190Y-142273040D01*
X169756639Y-142286279D01*
G37*
G36*
X175163238Y-130749524D02*
G01*
X175166769Y-130911654D01*
X175182278Y-130999261D01*
X175217143Y-131034473D01*
X175260000Y-131039810D01*
X175338618Y-131060070D01*
X175356762Y-131088191D01*
X175312694Y-131113961D01*
X175197572Y-131131433D01*
X175066476Y-131136572D01*
X174911854Y-131129227D01*
X174807025Y-131110040D01*
X174776191Y-131088191D01*
X174816712Y-131048882D01*
X174872953Y-131039810D01*
X174930991Y-131027074D01*
X174959937Y-130973015D01*
X174969300Y-130853857D01*
X174969715Y-130797905D01*
X174964620Y-130652809D01*
X174942997Y-130580445D01*
X174895334Y-130557035D01*
X174872953Y-130556000D01*
X174794335Y-130535740D01*
X174776191Y-130507619D01*
X174819112Y-130477323D01*
X174926334Y-130460472D01*
X174969715Y-130459238D01*
X175163238Y-130459238D01*
X175163238Y-130749524D01*
G37*
G36*
X174829326Y-135310725D02*
G01*
X175000802Y-135323959D01*
X175088796Y-135345463D01*
X175096364Y-135350443D01*
X175140227Y-135436796D01*
X175162040Y-135588442D01*
X175163238Y-135638630D01*
X175154932Y-135789602D01*
X175118676Y-135883803D01*
X175037466Y-135960602D01*
X175018095Y-135974667D01*
X174941017Y-136036247D01*
X174897508Y-136101863D01*
X174878032Y-136200127D01*
X174873051Y-136359653D01*
X174872953Y-136410095D01*
X174870026Y-136588531D01*
X174854888Y-136698854D01*
X174818001Y-136769680D01*
X174749826Y-136829622D01*
X174727810Y-136845524D01*
X174648971Y-136909064D01*
X174605419Y-136977291D01*
X174586779Y-137080108D01*
X174582678Y-137247418D01*
X174582667Y-137263876D01*
X174579355Y-137437345D01*
X174559277Y-137551678D01*
X174507223Y-137644486D01*
X174407982Y-137753381D01*
X174368772Y-137792772D01*
X174219538Y-137929508D01*
X174110639Y-137994175D01*
X174025665Y-137993083D01*
X173963391Y-137948610D01*
X173908232Y-137838901D01*
X173945422Y-137720919D01*
X174050476Y-137619619D01*
X174127555Y-137558039D01*
X174171064Y-137492423D01*
X174190540Y-137394159D01*
X174195521Y-137234633D01*
X174195619Y-137184191D01*
X174198546Y-137005756D01*
X174213684Y-136895432D01*
X174250571Y-136824606D01*
X174318746Y-136764664D01*
X174340762Y-136748762D01*
X174417418Y-136687646D01*
X174460909Y-136622643D01*
X174480579Y-136525443D01*
X174485773Y-136367735D01*
X174485905Y-136309002D01*
X174488635Y-136130189D01*
X174502037Y-136023131D01*
X174533925Y-135962861D01*
X174592117Y-135924413D01*
X174608744Y-135916623D01*
X174696115Y-135850020D01*
X174717045Y-135784613D01*
X174696195Y-135752613D01*
X174638149Y-135728930D01*
X174528503Y-135711381D01*
X174352858Y-135697788D01*
X174096810Y-135685969D01*
X174055049Y-135684381D01*
X173786082Y-135672613D01*
X173598001Y-135659181D01*
X173474934Y-135641618D01*
X173401008Y-135617460D01*
X173360351Y-135584240D01*
X173354328Y-135575524D01*
X173326984Y-135471248D01*
X173354412Y-135406191D01*
X173384503Y-135374519D01*
X173438430Y-135351184D01*
X173530434Y-135334571D01*
X173674759Y-135323066D01*
X173885644Y-135315055D01*
X174177334Y-135308922D01*
X174218624Y-135308233D01*
X174570042Y-135305552D01*
X174829326Y-135310725D01*
G37*
G36*
X173264430Y-141699152D02*
G01*
X173390863Y-141755917D01*
X173451065Y-141805293D01*
X173553591Y-141877345D01*
X173672911Y-141904616D01*
X173834196Y-141888819D01*
X174019093Y-141843912D01*
X174076899Y-141838995D01*
X174090722Y-141885181D01*
X174074820Y-141981184D01*
X174017450Y-142177721D01*
X173933978Y-142294957D01*
X173805804Y-142350060D01*
X173663429Y-142360953D01*
X173509091Y-142352821D01*
X173416181Y-142319678D01*
X173350100Y-142248403D01*
X173344504Y-142240000D01*
X173232748Y-142138576D01*
X173094853Y-142129372D01*
X172991848Y-142175064D01*
X172871645Y-142214381D01*
X172787295Y-142167109D01*
X172746674Y-142039289D01*
X172744191Y-141985100D01*
X172762026Y-141825632D01*
X172826980Y-141732415D01*
X172956225Y-141690481D01*
X173090041Y-141683619D01*
X173264430Y-141699152D01*
G37*
%TO.C,P6*%
X166009000Y-146854000D02*
X168609000Y-146854000D01*
X163409000Y-148184000D02*
X163409000Y-146854000D01*
X163409000Y-146854000D02*
X164739000Y-146854000D01*
X166009000Y-149514000D02*
X166009000Y-146854000D01*
X168609000Y-149514000D02*
X168609000Y-146854000D01*
X166009000Y-149514000D02*
X168609000Y-149514000D01*
%TO.C,U1*%
X109548000Y-116500000D02*
X109948000Y-116500000D01*
X140048000Y-137500000D02*
X140448000Y-137500000D01*
X112048000Y-137500000D02*
X112448000Y-137500000D01*
X106948000Y-116500000D02*
X107348000Y-116500000D01*
X155548000Y-125900000D02*
X155548000Y-125500000D01*
X107215000Y-137500000D02*
X107215000Y-134493000D01*
X124748000Y-137500000D02*
X125148000Y-137500000D01*
X112048000Y-116500000D02*
X112448000Y-116500000D01*
X142548000Y-116500000D02*
X142948000Y-116500000D01*
X122248000Y-116500000D02*
X122648000Y-116500000D01*
X129848000Y-137500000D02*
X130248000Y-137500000D01*
X142548000Y-137500000D02*
X142948000Y-137500000D01*
X140048000Y-116500000D02*
X140448000Y-116500000D01*
X155548000Y-130700000D02*
X155548000Y-137500000D01*
X145148000Y-116500000D02*
X145548000Y-116500000D01*
X109548000Y-137500000D02*
X109948000Y-137500000D01*
X145148000Y-137500000D02*
X145548000Y-137500000D01*
X132348000Y-137500000D02*
X132748000Y-137500000D01*
X147648000Y-116500000D02*
X148048000Y-116500000D01*
X127348000Y-116500000D02*
X127748000Y-116500000D01*
X137448000Y-137500000D02*
X137848000Y-137500000D01*
X122248000Y-137500000D02*
X122648000Y-137500000D01*
X134948000Y-116500000D02*
X135348000Y-116500000D01*
X147648000Y-137500000D02*
X148048000Y-137500000D01*
X137448000Y-116500000D02*
X137848000Y-116500000D01*
X114648000Y-116500000D02*
X115048000Y-116500000D01*
X129848000Y-116500000D02*
X130248000Y-116500000D01*
X127348000Y-137500000D02*
X127748000Y-137500000D01*
X117148000Y-137500000D02*
X117548000Y-137500000D01*
X104548000Y-137500000D02*
X104548000Y-116500000D01*
X150148000Y-116500000D02*
X150548000Y-116500000D01*
X124748000Y-116500000D02*
X125148000Y-116500000D01*
X106948000Y-137500000D02*
X107348000Y-137500000D01*
X119648000Y-137500000D02*
X120048000Y-137500000D01*
X152748000Y-137500000D02*
X153148000Y-137500000D01*
X104548000Y-116500000D02*
X104848000Y-116500000D01*
X117148000Y-116500000D02*
X117548000Y-116500000D01*
X119648000Y-116500000D02*
X120048000Y-116500000D01*
X152748000Y-116500000D02*
X153148000Y-116500000D01*
X104548000Y-137500000D02*
X104848000Y-137500000D01*
X134948000Y-137500000D02*
X135348000Y-137500000D01*
X150148000Y-137500000D02*
X150548000Y-137500000D01*
X114648000Y-137500000D02*
X115048000Y-137500000D01*
X132348000Y-116500000D02*
X132748000Y-116500000D01*
X155548000Y-128500000D02*
X155548000Y-128100000D01*
X155548000Y-116500000D02*
X155548000Y-123300000D01*
X107215000Y-134493000D02*
X104548000Y-134493000D01*
%TO.C,P3*%
X134477000Y-155077000D02*
X133717000Y-155077000D01*
X132767000Y-149077000D02*
X140507000Y-149077000D01*
X137907000Y-146417000D02*
X137907000Y-149077000D01*
X139177000Y-143707000D02*
X140447000Y-143707000D01*
X134477000Y-146019929D02*
X134477000Y-146417000D01*
X137017000Y-146019929D02*
X137017000Y-146417000D01*
X140507000Y-146417000D02*
X132767000Y-146417000D01*
X140507000Y-149077000D02*
X140507000Y-146417000D01*
X138797000Y-146087000D02*
X138797000Y-146417000D01*
X134477000Y-149077000D02*
X134477000Y-155077000D01*
X139017000Y-149077000D02*
X139017000Y-155077000D01*
X139557000Y-146087000D02*
X139557000Y-146417000D01*
X136257000Y-146019929D02*
X136257000Y-146417000D01*
X139557000Y-149077000D02*
X139557000Y-155077000D01*
X132767000Y-146417000D02*
X132767000Y-149077000D01*
X140447000Y-143707000D02*
X140447000Y-144977000D01*
X138797000Y-155077000D02*
X138797000Y-149077000D01*
X137017000Y-149077000D02*
X137017000Y-155077000D01*
X133717000Y-146019929D02*
X133717000Y-146417000D01*
X139557000Y-155077000D02*
X138797000Y-155077000D01*
X136257000Y-155077000D02*
X136257000Y-149077000D01*
X138897000Y-149077000D02*
X138897000Y-155077000D01*
X139257000Y-149077000D02*
X139257000Y-155077000D01*
X139497000Y-149077000D02*
X139497000Y-155077000D01*
X133717000Y-155077000D02*
X133717000Y-149077000D01*
X135367000Y-146417000D02*
X135367000Y-149077000D01*
X137017000Y-155077000D02*
X136257000Y-155077000D01*
X139377000Y-149077000D02*
X139377000Y-155077000D01*
X139137000Y-149077000D02*
X139137000Y-155077000D01*
%TO.C,J5*%
X138968000Y-88173000D02*
X149188000Y-88173000D01*
X136368000Y-86843000D02*
X136368000Y-85513000D01*
X136368000Y-85513000D02*
X137698000Y-85513000D01*
X138968000Y-85513000D02*
X149188000Y-85513000D01*
X149188000Y-88173000D02*
X149188000Y-85513000D01*
X138968000Y-88173000D02*
X138968000Y-85513000D01*
%TO.C,P4*%
X124317000Y-155077000D02*
X123557000Y-155077000D01*
X129097000Y-149077000D02*
X129097000Y-155077000D01*
X127747000Y-146417000D02*
X127747000Y-149077000D01*
X122607000Y-149077000D02*
X130347000Y-149077000D01*
X125207000Y-146417000D02*
X125207000Y-149077000D01*
X129397000Y-149077000D02*
X129397000Y-155077000D01*
X122607000Y-146417000D02*
X122607000Y-149077000D01*
X129217000Y-149077000D02*
X129217000Y-155077000D01*
X126097000Y-155077000D02*
X126097000Y-149077000D01*
X130347000Y-146417000D02*
X122607000Y-146417000D01*
X123557000Y-155077000D02*
X123557000Y-149077000D01*
X129337000Y-149077000D02*
X129337000Y-155077000D01*
X129397000Y-155077000D02*
X128637000Y-155077000D01*
X126857000Y-155077000D02*
X126097000Y-155077000D01*
X123557000Y-146019929D02*
X123557000Y-146417000D01*
X126857000Y-146019929D02*
X126857000Y-146417000D01*
X128977000Y-149077000D02*
X128977000Y-155077000D01*
X130347000Y-149077000D02*
X130347000Y-146417000D01*
X128637000Y-155077000D02*
X128637000Y-149077000D01*
X128637000Y-146087000D02*
X128637000Y-146417000D01*
X124317000Y-149077000D02*
X124317000Y-155077000D01*
X128857000Y-149077000D02*
X128857000Y-155077000D01*
X130287000Y-143707000D02*
X130287000Y-144977000D01*
X124317000Y-146019929D02*
X124317000Y-146417000D01*
X128737000Y-149077000D02*
X128737000Y-155077000D01*
X126097000Y-146019929D02*
X126097000Y-146417000D01*
X126857000Y-149077000D02*
X126857000Y-155077000D01*
X129397000Y-146087000D02*
X129397000Y-146417000D01*
X129017000Y-143707000D02*
X130287000Y-143707000D01*
%TO.C,G\u002A\u002A\u002A*%
G36*
X149909775Y-78624504D02*
G01*
X149931258Y-78655227D01*
X149881322Y-78695576D01*
X149761005Y-78712688D01*
X149758860Y-78712693D01*
X149636750Y-78726932D01*
X149591743Y-78794100D01*
X149586462Y-78885091D01*
X149600701Y-79007201D01*
X149667869Y-79052208D01*
X149758860Y-79057489D01*
X149879906Y-79074135D01*
X149931245Y-79114240D01*
X149931258Y-79114955D01*
X149881322Y-79155304D01*
X149761005Y-79172417D01*
X149758860Y-79172421D01*
X149648317Y-79181499D01*
X149599176Y-79230688D01*
X149586734Y-79352927D01*
X149586462Y-79402286D01*
X149576824Y-79552671D01*
X149537868Y-79619136D01*
X149471530Y-79632150D01*
X149395717Y-79612407D01*
X149362651Y-79533022D01*
X149356597Y-79407074D01*
X149339839Y-79255095D01*
X149298214Y-79158730D01*
X149284765Y-79148477D01*
X149242504Y-79110738D01*
X149284765Y-79081433D01*
X149339859Y-79004232D01*
X149356597Y-78904930D01*
X149388382Y-78760359D01*
X149438692Y-78679855D01*
X149534141Y-78630425D01*
X149672592Y-78603317D01*
X149811863Y-78600640D01*
X149909775Y-78624504D01*
G37*
G36*
X141640103Y-78873639D02*
G01*
X141656145Y-78942557D01*
X141623540Y-79031767D01*
X141509470Y-79057488D01*
X141508375Y-79057489D01*
X141331394Y-79102668D01*
X141226704Y-79236171D01*
X141196416Y-79426914D01*
X141184114Y-79567255D01*
X141135816Y-79624738D01*
X141081484Y-79632150D01*
X141021084Y-79621297D01*
X140986481Y-79572356D01*
X140970655Y-79460751D01*
X140966584Y-79261907D01*
X140966552Y-79229887D01*
X140969653Y-79018486D01*
X140983636Y-78897377D01*
X141015523Y-78841986D01*
X141072336Y-78827737D01*
X141081484Y-78827625D01*
X141177528Y-78868260D01*
X141196416Y-78942557D01*
X141215210Y-79036013D01*
X141241196Y-79057489D01*
X141305482Y-79015996D01*
X141368815Y-78942557D01*
X141472082Y-78852797D01*
X141553899Y-78827625D01*
X141640103Y-78873639D01*
G37*
G36*
X146647481Y-79199636D02*
G01*
X146795253Y-79172421D01*
X146909951Y-79147062D01*
X146943021Y-79058341D01*
X146943023Y-79057489D01*
X146915931Y-78973362D01*
X146815127Y-78943743D01*
X146770625Y-78942557D01*
X146649578Y-78925912D01*
X146598240Y-78885806D01*
X146598226Y-78885091D01*
X146646667Y-78842855D01*
X146763870Y-78828530D01*
X146907655Y-78840006D01*
X147035840Y-78875175D01*
X147090793Y-78909719D01*
X147145465Y-79029409D01*
X147171420Y-79237867D01*
X147172887Y-79311982D01*
X147172887Y-79632150D01*
X146899923Y-79629964D01*
X146706016Y-79610843D01*
X146575108Y-79563303D01*
X146555127Y-79546190D01*
X146494593Y-79412174D01*
X146497489Y-79402286D01*
X146713158Y-79402286D01*
X146753793Y-79498329D01*
X146828091Y-79517218D01*
X146924134Y-79476583D01*
X146943023Y-79402286D01*
X146902388Y-79306242D01*
X146828091Y-79287353D01*
X146732047Y-79327988D01*
X146713158Y-79402286D01*
X146497489Y-79402286D01*
X146530986Y-79287926D01*
X146647481Y-79199636D01*
G37*
G36*
X147876467Y-78846886D02*
G01*
X148006480Y-78917673D01*
X148072684Y-79059496D01*
X148092274Y-79291861D01*
X148092344Y-79311982D01*
X148087483Y-79496075D01*
X148066415Y-79592516D01*
X148019413Y-79628402D01*
X147977412Y-79632150D01*
X147913220Y-79619569D01*
X147878534Y-79564304D01*
X147864593Y-79440070D01*
X147862480Y-79287353D01*
X147858286Y-79094778D01*
X147839864Y-78990720D01*
X147798453Y-78948896D01*
X147747548Y-78942557D01*
X147683356Y-78955138D01*
X147648670Y-79010403D01*
X147634728Y-79134637D01*
X147632615Y-79287353D01*
X147628422Y-79479929D01*
X147610000Y-79583987D01*
X147568589Y-79625811D01*
X147517683Y-79632150D01*
X147457283Y-79621297D01*
X147422680Y-79572356D01*
X147406854Y-79460751D01*
X147402783Y-79261907D01*
X147402751Y-79229887D01*
X147402751Y-78827625D01*
X147665453Y-78827625D01*
X147876467Y-78846886D01*
G37*
G36*
X150325309Y-79199636D02*
G01*
X150473081Y-79172421D01*
X150587779Y-79147062D01*
X150620850Y-79058341D01*
X150620851Y-79057489D01*
X150593759Y-78973362D01*
X150492955Y-78943743D01*
X150448453Y-78942557D01*
X150327406Y-78925912D01*
X150276068Y-78885806D01*
X150276054Y-78885091D01*
X150324496Y-78842855D01*
X150441698Y-78828530D01*
X150585483Y-78840006D01*
X150713668Y-78875175D01*
X150768621Y-78909719D01*
X150823293Y-79029409D01*
X150849248Y-79237867D01*
X150850715Y-79311982D01*
X150850715Y-79632150D01*
X150577751Y-79629964D01*
X150383844Y-79610843D01*
X150252936Y-79563303D01*
X150232955Y-79546190D01*
X150172421Y-79412174D01*
X150175317Y-79402286D01*
X150390987Y-79402286D01*
X150431621Y-79498329D01*
X150505919Y-79517218D01*
X150601962Y-79476583D01*
X150620851Y-79402286D01*
X150580216Y-79306242D01*
X150505919Y-79287353D01*
X150409875Y-79327988D01*
X150390987Y-79402286D01*
X150175317Y-79402286D01*
X150208814Y-79287926D01*
X150325309Y-79199636D01*
G37*
G36*
X154827215Y-78925565D02*
G01*
X154840502Y-78909719D01*
X154954521Y-78850817D01*
X155103204Y-78827625D01*
X155291689Y-78863796D01*
X155403652Y-78978386D01*
X155446905Y-79180509D01*
X155448000Y-79229887D01*
X155429049Y-79400554D01*
X155381939Y-79529433D01*
X155365906Y-79550055D01*
X155240052Y-79611520D01*
X155068961Y-79626742D01*
X154908186Y-79596125D01*
X154830240Y-79546190D01*
X154777992Y-79421880D01*
X154760630Y-79242447D01*
X154761777Y-79229887D01*
X154988272Y-79229887D01*
X154994323Y-79402229D01*
X155020007Y-79488183D01*
X155076620Y-79515988D01*
X155103204Y-79517218D01*
X155172141Y-79502090D01*
X155206522Y-79437880D01*
X155217644Y-79296347D01*
X155218136Y-79229887D01*
X155212085Y-79057545D01*
X155186401Y-78971592D01*
X155129787Y-78943787D01*
X155103204Y-78942557D01*
X155034267Y-78957685D01*
X154999886Y-79021895D01*
X154988763Y-79163428D01*
X154988272Y-79229887D01*
X154761777Y-79229887D01*
X154777316Y-79059730D01*
X154827215Y-78925565D01*
G37*
G36*
X137370818Y-78909719D02*
G01*
X137484838Y-78850817D01*
X137633520Y-78827625D01*
X137830384Y-78869457D01*
X137947654Y-78989700D01*
X137978317Y-79139584D01*
X137966396Y-79234689D01*
X137909000Y-79276966D01*
X137773681Y-79287274D01*
X137748453Y-79287353D01*
X137598067Y-79296992D01*
X137531602Y-79335947D01*
X137518588Y-79402286D01*
X137545680Y-79486412D01*
X137646484Y-79516032D01*
X137690987Y-79517218D01*
X137812033Y-79533863D01*
X137863371Y-79573969D01*
X137863385Y-79574684D01*
X137814852Y-79615637D01*
X137697302Y-79629497D01*
X137552804Y-79618649D01*
X137423427Y-79585476D01*
X137360557Y-79546190D01*
X137308309Y-79421880D01*
X137290946Y-79242447D01*
X137307632Y-79059730D01*
X137308465Y-79057489D01*
X137518588Y-79057489D01*
X137559223Y-79153533D01*
X137633520Y-79172421D01*
X137729564Y-79131787D01*
X137748453Y-79057489D01*
X137707818Y-78961446D01*
X137633520Y-78942557D01*
X137537477Y-78983192D01*
X137518588Y-79057489D01*
X137308465Y-79057489D01*
X137357531Y-78925565D01*
X137370818Y-78909719D01*
G37*
G36*
X143451670Y-78844362D02*
G01*
X143485682Y-78914012D01*
X143494992Y-79065732D01*
X143495059Y-79088834D01*
X143475328Y-79291063D01*
X143404020Y-79435143D01*
X143354006Y-79491097D01*
X143213826Y-79602484D01*
X143095710Y-79612375D01*
X142967202Y-79520457D01*
X142934765Y-79487023D01*
X142849751Y-79349399D01*
X142803804Y-79181496D01*
X142797651Y-79016553D01*
X142832014Y-78887808D01*
X142907617Y-78828501D01*
X142920398Y-78827625D01*
X142989335Y-78842753D01*
X143023716Y-78906963D01*
X143034839Y-79048496D01*
X143035330Y-79114955D01*
X143041381Y-79287297D01*
X143067066Y-79373251D01*
X143123679Y-79401056D01*
X143150263Y-79402286D01*
X143219199Y-79387158D01*
X143253581Y-79322948D01*
X143264703Y-79181414D01*
X143265195Y-79114955D01*
X143271246Y-78942613D01*
X143296930Y-78856660D01*
X143353543Y-78828854D01*
X143380127Y-78827625D01*
X143451670Y-78844362D01*
G37*
G36*
X130258976Y-78638395D02*
G01*
X130277864Y-78712693D01*
X130304956Y-78796820D01*
X130405760Y-78826439D01*
X130450263Y-78827625D01*
X130571309Y-78844270D01*
X130622647Y-78884376D01*
X130622661Y-78885091D01*
X130572725Y-78925440D01*
X130452407Y-78942553D01*
X130450263Y-78942557D01*
X130348207Y-78948835D01*
X130297316Y-78987432D01*
X130279800Y-79087997D01*
X130277864Y-79229887D01*
X130281631Y-79399980D01*
X130304789Y-79484799D01*
X130365128Y-79513991D01*
X130450263Y-79517218D01*
X130571309Y-79533863D01*
X130622647Y-79573969D01*
X130622661Y-79574684D01*
X130574128Y-79615637D01*
X130456578Y-79629497D01*
X130312080Y-79618649D01*
X130182703Y-79585476D01*
X130119833Y-79546190D01*
X130075513Y-79440904D01*
X130050245Y-79274390D01*
X130048000Y-79208369D01*
X130032637Y-79036867D01*
X129992516Y-78932052D01*
X129976168Y-78918613D01*
X129933907Y-78880873D01*
X129976168Y-78851569D01*
X130036605Y-78772567D01*
X130048000Y-78707904D01*
X130090922Y-78615315D01*
X130162932Y-78597761D01*
X130258976Y-78638395D01*
G37*
G36*
X144970288Y-78638395D02*
G01*
X144989177Y-78712693D01*
X145016269Y-78796820D01*
X145117072Y-78826439D01*
X145161575Y-78827625D01*
X145282621Y-78844270D01*
X145333960Y-78884376D01*
X145333973Y-78885091D01*
X145284037Y-78925440D01*
X145163720Y-78942553D01*
X145161575Y-78942557D01*
X145059519Y-78948835D01*
X145008628Y-78987432D01*
X144991112Y-79087997D01*
X144989177Y-79229887D01*
X144992943Y-79399980D01*
X145016102Y-79484799D01*
X145076440Y-79513991D01*
X145161575Y-79517218D01*
X145282621Y-79533863D01*
X145333960Y-79573969D01*
X145333973Y-79574684D01*
X145285441Y-79615637D01*
X145167890Y-79629497D01*
X145023392Y-79618649D01*
X144894015Y-79585476D01*
X144831145Y-79546190D01*
X144786825Y-79440904D01*
X144761557Y-79274390D01*
X144759312Y-79208369D01*
X144743949Y-79036867D01*
X144703828Y-78932052D01*
X144687480Y-78918613D01*
X144645219Y-78880873D01*
X144687480Y-78851569D01*
X144747917Y-78772567D01*
X144759312Y-78707904D01*
X144802234Y-78615315D01*
X144874244Y-78597761D01*
X144970288Y-78638395D01*
G37*
G36*
X144165763Y-78523463D02*
G01*
X144184652Y-78597761D01*
X144144017Y-78693804D01*
X144069720Y-78712693D01*
X143973676Y-78672058D01*
X143954787Y-78597761D01*
X143995422Y-78501717D01*
X144069720Y-78482829D01*
X144165763Y-78523463D01*
G37*
G36*
X135201057Y-78638395D02*
G01*
X135219946Y-78712693D01*
X135195880Y-78806073D01*
X135162480Y-78827625D01*
X135115790Y-78875756D01*
X135105014Y-78942557D01*
X135080948Y-79035938D01*
X135047548Y-79057489D01*
X135000857Y-79105620D01*
X134990082Y-79172421D01*
X134966016Y-79265802D01*
X134932615Y-79287353D01*
X134885925Y-79335484D01*
X134875149Y-79402286D01*
X134851084Y-79495666D01*
X134817683Y-79517218D01*
X134770993Y-79565348D01*
X134760217Y-79632150D01*
X134719583Y-79728193D01*
X134645285Y-79747082D01*
X134549242Y-79706447D01*
X134530353Y-79632150D01*
X134554418Y-79538769D01*
X134587819Y-79517218D01*
X134634509Y-79469087D01*
X134645285Y-79402286D01*
X134669350Y-79308905D01*
X134702751Y-79287353D01*
X134749441Y-79239223D01*
X134760217Y-79172421D01*
X134784283Y-79079041D01*
X134817683Y-79057489D01*
X134864374Y-79009359D01*
X134875149Y-78942557D01*
X134899215Y-78849177D01*
X134932615Y-78827625D01*
X134979306Y-78779494D01*
X134990082Y-78712693D01*
X135030716Y-78616649D01*
X135105014Y-78597761D01*
X135201057Y-78638395D01*
G37*
G36*
X132034684Y-78827625D02*
G01*
X132258229Y-78852340D01*
X132392219Y-78936863D01*
X132453174Y-79096763D01*
X132461575Y-79229887D01*
X132428343Y-79454033D01*
X132326987Y-79587041D01*
X132155017Y-79632122D01*
X132149616Y-79632150D01*
X132044202Y-79649922D01*
X132005565Y-79726705D01*
X132001846Y-79804548D01*
X131983785Y-79930738D01*
X131916583Y-79975168D01*
X131886914Y-79976946D01*
X131834604Y-79969059D01*
X131801117Y-79931530D01*
X131782293Y-79843555D01*
X131773972Y-79684334D01*
X131771991Y-79433062D01*
X131771982Y-79402286D01*
X131771982Y-79229887D01*
X132001846Y-79229887D01*
X132007897Y-79402229D01*
X132033581Y-79488183D01*
X132090195Y-79515988D01*
X132116778Y-79517218D01*
X132185715Y-79502090D01*
X132220097Y-79437880D01*
X132231219Y-79296347D01*
X132231711Y-79229887D01*
X132225659Y-79057545D01*
X132199975Y-78971592D01*
X132143362Y-78943787D01*
X132116778Y-78942557D01*
X132047842Y-78957685D01*
X132013460Y-79021895D01*
X132002338Y-79163428D01*
X132001846Y-79229887D01*
X131771982Y-79229887D01*
X131771982Y-78827625D01*
X132034684Y-78827625D01*
G37*
G36*
X139196445Y-78925565D02*
G01*
X139209732Y-78909719D01*
X139323752Y-78850817D01*
X139472434Y-78827625D01*
X139660920Y-78863796D01*
X139772883Y-78978386D01*
X139816136Y-79180509D01*
X139817231Y-79229887D01*
X139798280Y-79400554D01*
X139751169Y-79529433D01*
X139735136Y-79550055D01*
X139609282Y-79611520D01*
X139438192Y-79626742D01*
X139277417Y-79596125D01*
X139199471Y-79546190D01*
X139147223Y-79421880D01*
X139129860Y-79242447D01*
X139131007Y-79229887D01*
X139357502Y-79229887D01*
X139363553Y-79402229D01*
X139389237Y-79488183D01*
X139445851Y-79515988D01*
X139472434Y-79517218D01*
X139541371Y-79502090D01*
X139575753Y-79437880D01*
X139586875Y-79296347D01*
X139587367Y-79229887D01*
X139581316Y-79057545D01*
X139555632Y-78971592D01*
X139499018Y-78943787D01*
X139472434Y-78942557D01*
X139403498Y-78957685D01*
X139369116Y-79021895D01*
X139357994Y-79163428D01*
X139357502Y-79229887D01*
X139131007Y-79229887D01*
X139146546Y-79059730D01*
X139196445Y-78925565D01*
G37*
G36*
X129224587Y-78638395D02*
G01*
X129243475Y-78712693D01*
X129276080Y-78801903D01*
X129390150Y-78827624D01*
X129391245Y-78827625D01*
X129550975Y-78859390D01*
X129649741Y-78963908D01*
X129696452Y-79155011D01*
X129703204Y-79311982D01*
X129698343Y-79496075D01*
X129677275Y-79592516D01*
X129630272Y-79628402D01*
X129588272Y-79632150D01*
X129524080Y-79619569D01*
X129489394Y-79564304D01*
X129475452Y-79440070D01*
X129473339Y-79287353D01*
X129469146Y-79094778D01*
X129450724Y-78990720D01*
X129409313Y-78948896D01*
X129358407Y-78942557D01*
X129294215Y-78955138D01*
X129259529Y-79010403D01*
X129245588Y-79134637D01*
X129243475Y-79287353D01*
X129239282Y-79479929D01*
X129220860Y-79583987D01*
X129179449Y-79625811D01*
X129128543Y-79632150D01*
X129073938Y-79623508D01*
X129040007Y-79582999D01*
X129021889Y-79488747D01*
X129014724Y-79318879D01*
X129013611Y-79114955D01*
X129015531Y-78869230D01*
X129024533Y-78716541D01*
X129045478Y-78635012D01*
X129083227Y-78602769D01*
X129128543Y-78597761D01*
X129224587Y-78638395D01*
G37*
G36*
X136929950Y-78840124D02*
G01*
X137040816Y-78883498D01*
X137049182Y-78966563D01*
X136957566Y-79098137D01*
X136828996Y-79229887D01*
X136702661Y-79356777D01*
X136619170Y-79451191D01*
X136599131Y-79483979D01*
X136650161Y-79504802D01*
X136777626Y-79516375D01*
X136828996Y-79517218D01*
X136972937Y-79529963D01*
X137052998Y-79561802D01*
X137058860Y-79574684D01*
X137006516Y-79605294D01*
X136869777Y-79626046D01*
X136714063Y-79632150D01*
X136516111Y-79626108D01*
X136409478Y-79603918D01*
X136370990Y-79559484D01*
X136369267Y-79541445D01*
X136408364Y-79453434D01*
X136508886Y-79323919D01*
X136599131Y-79229887D01*
X136725466Y-79102998D01*
X136808957Y-79008584D01*
X136828996Y-78975795D01*
X136777966Y-78954973D01*
X136650501Y-78943399D01*
X136599131Y-78942557D01*
X136455190Y-78929812D01*
X136375129Y-78897973D01*
X136369267Y-78885091D01*
X136421611Y-78854481D01*
X136558350Y-78833729D01*
X136714063Y-78827625D01*
X136929950Y-78840124D01*
G37*
G36*
X138881732Y-78873639D02*
G01*
X138897774Y-78942557D01*
X138865169Y-79031767D01*
X138751099Y-79057488D01*
X138750004Y-79057489D01*
X138573023Y-79102668D01*
X138468333Y-79236171D01*
X138438045Y-79426914D01*
X138425743Y-79567255D01*
X138377445Y-79624738D01*
X138323113Y-79632150D01*
X138262713Y-79621297D01*
X138228110Y-79572356D01*
X138212284Y-79460751D01*
X138208213Y-79261907D01*
X138208181Y-79229887D01*
X138211282Y-79018486D01*
X138225265Y-78897377D01*
X138257152Y-78841986D01*
X138313965Y-78827737D01*
X138323113Y-78827625D01*
X138419157Y-78868260D01*
X138438045Y-78942557D01*
X138456839Y-79036013D01*
X138482825Y-79057489D01*
X138547111Y-79015996D01*
X138610444Y-78942557D01*
X138713711Y-78852797D01*
X138795528Y-78827625D01*
X138881732Y-78873639D01*
G37*
G36*
X142050196Y-79199636D02*
G01*
X142197968Y-79172421D01*
X142312666Y-79147062D01*
X142345736Y-79058341D01*
X142345738Y-79057489D01*
X142318646Y-78973362D01*
X142217842Y-78943743D01*
X142173339Y-78942557D01*
X142052293Y-78925912D01*
X142000955Y-78885806D01*
X142000941Y-78885091D01*
X142049382Y-78842855D01*
X142166585Y-78828530D01*
X142310370Y-78840006D01*
X142438555Y-78875175D01*
X142493508Y-78909719D01*
X142548180Y-79029409D01*
X142574135Y-79237867D01*
X142575602Y-79311982D01*
X142575602Y-79632150D01*
X142302638Y-79629964D01*
X142108731Y-79610843D01*
X141977823Y-79563303D01*
X141957842Y-79546190D01*
X141897308Y-79412174D01*
X141900204Y-79402286D01*
X142115873Y-79402286D01*
X142156508Y-79498329D01*
X142230806Y-79517218D01*
X142326849Y-79476583D01*
X142345738Y-79402286D01*
X142305103Y-79306242D01*
X142230806Y-79287353D01*
X142134762Y-79327988D01*
X142115873Y-79402286D01*
X141900204Y-79402286D01*
X141933701Y-79287926D01*
X142050196Y-79199636D01*
G37*
G36*
X148648116Y-78638395D02*
G01*
X148667005Y-78712693D01*
X148694097Y-78796820D01*
X148794900Y-78826439D01*
X148839403Y-78827625D01*
X148960449Y-78844270D01*
X149011788Y-78884376D01*
X149011801Y-78885091D01*
X148961865Y-78925440D01*
X148841548Y-78942553D01*
X148839403Y-78942557D01*
X148737347Y-78948835D01*
X148686456Y-78987432D01*
X148668940Y-79087997D01*
X148667005Y-79229887D01*
X148670771Y-79399980D01*
X148693930Y-79484799D01*
X148754268Y-79513991D01*
X148839403Y-79517218D01*
X148960449Y-79533863D01*
X149011788Y-79573969D01*
X149011801Y-79574684D01*
X148963269Y-79615637D01*
X148845718Y-79629497D01*
X148701220Y-79618649D01*
X148571843Y-79585476D01*
X148508973Y-79546190D01*
X148464653Y-79440904D01*
X148439385Y-79274390D01*
X148437140Y-79208369D01*
X148421777Y-79036867D01*
X148381656Y-78932052D01*
X148365308Y-78918613D01*
X148323047Y-78880873D01*
X148365308Y-78851569D01*
X148425745Y-78772567D01*
X148437140Y-78707904D01*
X148480062Y-78615315D01*
X148552073Y-78597761D01*
X148648116Y-78638395D01*
G37*
G36*
X146202690Y-78840206D02*
G01*
X146237376Y-78895471D01*
X146251317Y-79019705D01*
X146253430Y-79172421D01*
X146244706Y-79356080D01*
X146221916Y-79480594D01*
X146195964Y-79517218D01*
X146145406Y-79563941D01*
X146138498Y-79606029D01*
X146087599Y-79742284D01*
X145958858Y-79867381D01*
X145788206Y-79953888D01*
X145652648Y-79976946D01*
X145518673Y-79962685D01*
X145450927Y-79927561D01*
X145448905Y-79919480D01*
X145498206Y-79876724D01*
X145596675Y-79862014D01*
X145742469Y-79831282D01*
X145826539Y-79779920D01*
X145901126Y-79683882D01*
X145876475Y-79638479D01*
X145818330Y-79632150D01*
X145681607Y-79585344D01*
X145597667Y-79442443D01*
X145564553Y-79199723D01*
X145563837Y-79147793D01*
X145568698Y-78963700D01*
X145589766Y-78867259D01*
X145636769Y-78831372D01*
X145678769Y-78827625D01*
X145742961Y-78840206D01*
X145777647Y-78895471D01*
X145791589Y-79019705D01*
X145793701Y-79172421D01*
X145797895Y-79364997D01*
X145816317Y-79469055D01*
X145857728Y-79510879D01*
X145908634Y-79517218D01*
X145972826Y-79504637D01*
X146007511Y-79449372D01*
X146021453Y-79325138D01*
X146023566Y-79172421D01*
X146027759Y-78979846D01*
X146046181Y-78875788D01*
X146087592Y-78833964D01*
X146138498Y-78827625D01*
X146202690Y-78840206D01*
G37*
G36*
X134139349Y-79420347D02*
G01*
X134183778Y-79487549D01*
X134185557Y-79517218D01*
X134158465Y-79601344D01*
X134057661Y-79630964D01*
X134013158Y-79632150D01*
X133886968Y-79614088D01*
X133842539Y-79546886D01*
X133840760Y-79517218D01*
X133867852Y-79433091D01*
X133968656Y-79403471D01*
X134013158Y-79402286D01*
X134139349Y-79420347D01*
G37*
G36*
X156235599Y-78843125D02*
G01*
X156381539Y-78903461D01*
X156456605Y-79029387D01*
X156481552Y-79241656D01*
X156482389Y-79311982D01*
X156477528Y-79496075D01*
X156456460Y-79592516D01*
X156409458Y-79628402D01*
X156367457Y-79632150D01*
X156303265Y-79619569D01*
X156268579Y-79564304D01*
X156254638Y-79440070D01*
X156252525Y-79287353D01*
X156243801Y-79103695D01*
X156221011Y-78979181D01*
X156195059Y-78942557D01*
X156162278Y-78994240D01*
X156141471Y-79126387D01*
X156137593Y-79229887D01*
X156127256Y-79393793D01*
X156100827Y-79497827D01*
X156080127Y-79517218D01*
X156047346Y-79465534D01*
X156026539Y-79333388D01*
X156022661Y-79229887D01*
X156012324Y-79065982D01*
X155985895Y-78961947D01*
X155965195Y-78942557D01*
X155934585Y-78994901D01*
X155913833Y-79131640D01*
X155907729Y-79287353D01*
X155903535Y-79479929D01*
X155885113Y-79583987D01*
X155843702Y-79625811D01*
X155792796Y-79632150D01*
X155732396Y-79621297D01*
X155697794Y-79572356D01*
X155681967Y-79460751D01*
X155677896Y-79261907D01*
X155677864Y-79229887D01*
X155677864Y-78827625D01*
X155998032Y-78827625D01*
X156235599Y-78843125D01*
G37*
G36*
X131178433Y-78638395D02*
G01*
X131197321Y-78712693D01*
X131224413Y-78796820D01*
X131325217Y-78826439D01*
X131369720Y-78827625D01*
X131490766Y-78844270D01*
X131542105Y-78884376D01*
X131542118Y-78885091D01*
X131492182Y-78925440D01*
X131371864Y-78942553D01*
X131369720Y-78942557D01*
X131267664Y-78948835D01*
X131216773Y-78987432D01*
X131199257Y-79087997D01*
X131197321Y-79229887D01*
X131201088Y-79399980D01*
X131224246Y-79484799D01*
X131284585Y-79513991D01*
X131369720Y-79517218D01*
X131490766Y-79533863D01*
X131542105Y-79573969D01*
X131542118Y-79574684D01*
X131493585Y-79615637D01*
X131376035Y-79629497D01*
X131231537Y-79618649D01*
X131102160Y-79585476D01*
X131039290Y-79546190D01*
X130994970Y-79440904D01*
X130969702Y-79274390D01*
X130967457Y-79208369D01*
X130952094Y-79036867D01*
X130911973Y-78932052D01*
X130895625Y-78918613D01*
X130853364Y-78880873D01*
X130895625Y-78851569D01*
X130956062Y-78772567D01*
X130967457Y-78707904D01*
X131010379Y-78615315D01*
X131082389Y-78597761D01*
X131178433Y-78638395D01*
G37*
G36*
X140163021Y-78892980D02*
G01*
X140332711Y-78835541D01*
X140473986Y-78827625D01*
X140736688Y-78827625D01*
X140736688Y-79320191D01*
X140728989Y-79603154D01*
X140704444Y-79787347D01*
X140660878Y-79887990D01*
X140654594Y-79894852D01*
X140561710Y-79940062D01*
X140415830Y-79967871D01*
X140255956Y-79976698D01*
X140121092Y-79964962D01*
X140050241Y-79931081D01*
X140047095Y-79919480D01*
X140098076Y-79883495D01*
X140225433Y-79863479D01*
X140276959Y-79862014D01*
X140427345Y-79852376D01*
X140493810Y-79813421D01*
X140506824Y-79747082D01*
X140474219Y-79657872D01*
X140360149Y-79632151D01*
X140359054Y-79632150D01*
X140185227Y-79589298D01*
X140082078Y-79458602D01*
X140047117Y-79236852D01*
X140047095Y-79229887D01*
X140276959Y-79229887D01*
X140283010Y-79402229D01*
X140308694Y-79488183D01*
X140365308Y-79515988D01*
X140391892Y-79517218D01*
X140460828Y-79502090D01*
X140495210Y-79437880D01*
X140506332Y-79296347D01*
X140506824Y-79229887D01*
X140500773Y-79057545D01*
X140475089Y-78971592D01*
X140418475Y-78943787D01*
X140391892Y-78942557D01*
X140322955Y-78957685D01*
X140288573Y-79021895D01*
X140277451Y-79163428D01*
X140276959Y-79229887D01*
X140047095Y-79229887D01*
X140073323Y-79019239D01*
X140163021Y-78892980D01*
G37*
G36*
X134139349Y-78845686D02*
G01*
X134183778Y-78912889D01*
X134185557Y-78942557D01*
X134158465Y-79026684D01*
X134057661Y-79056304D01*
X134013158Y-79057489D01*
X133886968Y-79039428D01*
X133842539Y-78972225D01*
X133840760Y-78942557D01*
X133867852Y-78858430D01*
X133968656Y-78828811D01*
X134013158Y-78827625D01*
X134139349Y-78845686D01*
G37*
G36*
X144184652Y-79172421D02*
G01*
X144188845Y-79364997D01*
X144207267Y-79469055D01*
X144248678Y-79510879D01*
X144299584Y-79517218D01*
X144392964Y-79541283D01*
X144414516Y-79574684D01*
X144362172Y-79605294D01*
X144225433Y-79626046D01*
X144069720Y-79632150D01*
X143886061Y-79623426D01*
X143761547Y-79600636D01*
X143724923Y-79574684D01*
X143773054Y-79527994D01*
X143839855Y-79517218D01*
X143908792Y-79502090D01*
X143943173Y-79437880D01*
X143954296Y-79296347D01*
X143954787Y-79229887D01*
X143948736Y-79057545D01*
X143923052Y-78971592D01*
X143866439Y-78943787D01*
X143839855Y-78942557D01*
X143746475Y-78918492D01*
X143724923Y-78885091D01*
X143775904Y-78849106D01*
X143903261Y-78829090D01*
X143954787Y-78827625D01*
X144184652Y-78827625D01*
X144184652Y-79172421D01*
G37*
G36*
X133273969Y-78838871D02*
G01*
X133368177Y-78867372D01*
X133381032Y-78885091D01*
X133330051Y-78921076D01*
X133202694Y-78941092D01*
X133151168Y-78942557D01*
X133000782Y-78952195D01*
X132934317Y-78991151D01*
X132921303Y-79057489D01*
X132953908Y-79146699D01*
X133067978Y-79172420D01*
X133069073Y-79172421D01*
X133239374Y-79209651D01*
X133344015Y-79303730D01*
X133366916Y-79428247D01*
X133298937Y-79550055D01*
X133206054Y-79595266D01*
X133060174Y-79623075D01*
X132900300Y-79631902D01*
X132765436Y-79620166D01*
X132694585Y-79586284D01*
X132691439Y-79574684D01*
X132742420Y-79538698D01*
X132869777Y-79518683D01*
X132921303Y-79517218D01*
X133071689Y-79507580D01*
X133138153Y-79468624D01*
X133151168Y-79402286D01*
X133118563Y-79313076D01*
X133004493Y-79287354D01*
X133003398Y-79287353D01*
X132848072Y-79250063D01*
X132730706Y-79158368D01*
X132691439Y-79057489D01*
X132743889Y-78937963D01*
X132889003Y-78858063D01*
X133108432Y-78827671D01*
X133118330Y-78827625D01*
X133273969Y-78838871D01*
G37*
G36*
X152557771Y-78843125D02*
G01*
X152703711Y-78903461D01*
X152778777Y-79029387D01*
X152803724Y-79241656D01*
X152804561Y-79311982D01*
X152799700Y-79496075D01*
X152778632Y-79592516D01*
X152731630Y-79628402D01*
X152689629Y-79632150D01*
X152625437Y-79619569D01*
X152590751Y-79564304D01*
X152576810Y-79440070D01*
X152574697Y-79287353D01*
X152565973Y-79103695D01*
X152543183Y-78979181D01*
X152517231Y-78942557D01*
X152484450Y-78994240D01*
X152463643Y-79126387D01*
X152459765Y-79229887D01*
X152449428Y-79393793D01*
X152422999Y-79497827D01*
X152402299Y-79517218D01*
X152369518Y-79465534D01*
X152348711Y-79333388D01*
X152344833Y-79229887D01*
X152334496Y-79065982D01*
X152308067Y-78961947D01*
X152287367Y-78942557D01*
X152256757Y-78994901D01*
X152236005Y-79131640D01*
X152229901Y-79287353D01*
X152225707Y-79479929D01*
X152207285Y-79583987D01*
X152165874Y-79625811D01*
X152114968Y-79632150D01*
X152054568Y-79621297D01*
X152019966Y-79572356D01*
X152004139Y-79460751D01*
X152000068Y-79261907D01*
X152000036Y-79229887D01*
X152000036Y-78827625D01*
X152320204Y-78827625D01*
X152557771Y-78843125D01*
G37*
G36*
X136120514Y-78638395D02*
G01*
X136139403Y-78712693D01*
X136115338Y-78806073D01*
X136081937Y-78827625D01*
X136035247Y-78875756D01*
X136024471Y-78942557D01*
X136000405Y-79035938D01*
X135967005Y-79057489D01*
X135920314Y-79105620D01*
X135909539Y-79172421D01*
X135885473Y-79265802D01*
X135852073Y-79287353D01*
X135805382Y-79335484D01*
X135794606Y-79402286D01*
X135770541Y-79495666D01*
X135737140Y-79517218D01*
X135690450Y-79565348D01*
X135679674Y-79632150D01*
X135639040Y-79728193D01*
X135564742Y-79747082D01*
X135468699Y-79706447D01*
X135449810Y-79632150D01*
X135473875Y-79538769D01*
X135507276Y-79517218D01*
X135553966Y-79469087D01*
X135564742Y-79402286D01*
X135588808Y-79308905D01*
X135622208Y-79287353D01*
X135668898Y-79239223D01*
X135679674Y-79172421D01*
X135703740Y-79079041D01*
X135737140Y-79057489D01*
X135783831Y-79009359D01*
X135794606Y-78942557D01*
X135818672Y-78849177D01*
X135852073Y-78827625D01*
X135898763Y-78779494D01*
X135909539Y-78712693D01*
X135950173Y-78616649D01*
X136024471Y-78597761D01*
X136120514Y-78638395D01*
G37*
G36*
X151754130Y-78873639D02*
G01*
X151770172Y-78942557D01*
X151737567Y-79031767D01*
X151623497Y-79057488D01*
X151622402Y-79057489D01*
X151445421Y-79102668D01*
X151340731Y-79236171D01*
X151310444Y-79426914D01*
X151298141Y-79567255D01*
X151249843Y-79624738D01*
X151195511Y-79632150D01*
X151135111Y-79621297D01*
X151100509Y-79572356D01*
X151084682Y-79460751D01*
X151080611Y-79261907D01*
X151080579Y-79229887D01*
X151083680Y-79018486D01*
X151097663Y-78897377D01*
X151129550Y-78841986D01*
X151186363Y-78827737D01*
X151195511Y-78827625D01*
X151291555Y-78868260D01*
X151310444Y-78942557D01*
X151329237Y-79036013D01*
X151355223Y-79057489D01*
X151419509Y-79015996D01*
X151482842Y-78942557D01*
X151586109Y-78852797D01*
X151667926Y-78827625D01*
X151754130Y-78873639D01*
G37*
G36*
X153447946Y-79420347D02*
G01*
X153492375Y-79487549D01*
X153494154Y-79517218D01*
X153467062Y-79601344D01*
X153366258Y-79630964D01*
X153321756Y-79632150D01*
X153195566Y-79614088D01*
X153151136Y-79546886D01*
X153149358Y-79517218D01*
X153176450Y-79433091D01*
X153277253Y-79403471D01*
X153321756Y-79402286D01*
X153447946Y-79420347D01*
G37*
G36*
X154363537Y-78865953D02*
G01*
X154484401Y-78934125D01*
X154528543Y-79024651D01*
X154480232Y-79051369D01*
X154413611Y-79057489D01*
X154320231Y-79033424D01*
X154298679Y-79000023D01*
X154250548Y-78953333D01*
X154183747Y-78942557D01*
X154114810Y-78957685D01*
X154080429Y-79021895D01*
X154069306Y-79163428D01*
X154068815Y-79229887D01*
X154074866Y-79402229D01*
X154100550Y-79488183D01*
X154157163Y-79515988D01*
X154183747Y-79517218D01*
X154277127Y-79493152D01*
X154298679Y-79459752D01*
X154346809Y-79413061D01*
X154413611Y-79402286D01*
X154512364Y-79419051D01*
X154509354Y-79477068D01*
X154446449Y-79550055D01*
X154320595Y-79611520D01*
X154149504Y-79626742D01*
X153988729Y-79596125D01*
X153910783Y-79546190D01*
X153858535Y-79421880D01*
X153841173Y-79242447D01*
X153857859Y-79059730D01*
X153907758Y-78925565D01*
X153921045Y-78909719D01*
X154043676Y-78846527D01*
X154203901Y-78834346D01*
X154363537Y-78865953D01*
G37*
%TD*%
M02*
