%TF.GenerationSoftware,KiCad,Pcbnew,(6.0.7)*%
%TF.CreationDate,2022-08-29T22:08:19-04:00*%
%TF.ProjectId,PicoPilot,5069636f-5069-46c6-9f74-2e6b69636164,rev?*%
%TF.SameCoordinates,Original*%
%TF.FileFunction,Soldermask,Top*%
%TF.FilePolarity,Negative*%
%FSLAX46Y46*%
G04 Gerber Fmt 4.6, Leading zero omitted, Abs format (unit mm)*
G04 Created by KiCad (PCBNEW (6.0.7)) date 2022-08-29 22:08:19*
%MOMM*%
%LPD*%
G01*
G04 APERTURE LIST*
%ADD10R,1.700000X1.700000*%
%ADD11O,1.700000X1.700000*%
%ADD12C,4.000000*%
%ADD13O,1.800000X1.800000*%
%ADD14O,1.500000X1.500000*%
%ADD15R,1.700000X3.500000*%
%ADD16R,3.500000X1.700000*%
G04 APERTURE END LIST*
D10*
%TO.C,J7*%
X163093000Y-107208000D03*
D11*
X163093000Y-109748000D03*
X163093000Y-112288000D03*
X163093000Y-114828000D03*
X163093000Y-117368000D03*
X163093000Y-119908000D03*
X163093000Y-122448000D03*
X163093000Y-124988000D03*
%TD*%
D12*
%TO.C,*%
X108204000Y-107696000D03*
%TD*%
D13*
%TO.C,U1*%
X106048000Y-124275000D03*
D14*
X109078000Y-129425000D03*
D13*
X106048000Y-129725000D03*
D14*
X109078000Y-124575000D03*
D11*
X105918000Y-135890000D03*
D15*
X105918000Y-136790000D03*
D11*
X108458000Y-135890000D03*
D15*
X108458000Y-136790000D03*
X110998000Y-136790000D03*
D10*
X110998000Y-135890000D03*
D15*
X113538000Y-136790000D03*
D11*
X113538000Y-135890000D03*
X116078000Y-135890000D03*
D15*
X116078000Y-136790000D03*
X118618000Y-136790000D03*
D11*
X118618000Y-135890000D03*
X121158000Y-135890000D03*
D15*
X121158000Y-136790000D03*
D10*
X123698000Y-135890000D03*
D15*
X123698000Y-136790000D03*
D11*
X126238000Y-135890000D03*
D15*
X126238000Y-136790000D03*
X128778000Y-136790000D03*
D11*
X128778000Y-135890000D03*
X131318000Y-135890000D03*
D15*
X131318000Y-136790000D03*
X133858000Y-136790000D03*
D11*
X133858000Y-135890000D03*
D15*
X136398000Y-136790000D03*
D10*
X136398000Y-135890000D03*
D11*
X138938000Y-135890000D03*
D15*
X138938000Y-136790000D03*
D11*
X141478000Y-135890000D03*
D15*
X141478000Y-136790000D03*
D11*
X144018000Y-135890000D03*
D15*
X144018000Y-136790000D03*
X146558000Y-136790000D03*
D11*
X146558000Y-135890000D03*
D10*
X149098000Y-135890000D03*
D15*
X149098000Y-136790000D03*
X151638000Y-136790000D03*
D11*
X151638000Y-135890000D03*
X154178000Y-135890000D03*
D15*
X154178000Y-136790000D03*
D11*
X154178000Y-118110000D03*
D15*
X154178000Y-117210000D03*
D11*
X151638000Y-118110000D03*
D15*
X151638000Y-117210000D03*
X149098000Y-117210000D03*
D10*
X149098000Y-118110000D03*
D15*
X146558000Y-117210000D03*
D11*
X146558000Y-118110000D03*
D15*
X144018000Y-117210000D03*
D11*
X144018000Y-118110000D03*
D15*
X141478000Y-117210000D03*
D11*
X141478000Y-118110000D03*
X138938000Y-118110000D03*
D15*
X138938000Y-117210000D03*
D10*
X136398000Y-118110000D03*
D15*
X136398000Y-117210000D03*
D11*
X133858000Y-118110000D03*
D15*
X133858000Y-117210000D03*
X131318000Y-117210000D03*
D11*
X131318000Y-118110000D03*
D15*
X128778000Y-117210000D03*
D11*
X128778000Y-118110000D03*
D15*
X126238000Y-117210000D03*
D11*
X126238000Y-118110000D03*
D15*
X123698000Y-117210000D03*
D10*
X123698000Y-118110000D03*
D15*
X121158000Y-117210000D03*
D11*
X121158000Y-118110000D03*
D15*
X118618000Y-117210000D03*
D11*
X118618000Y-118110000D03*
X116078000Y-118110000D03*
D15*
X116078000Y-117210000D03*
X113538000Y-117210000D03*
D11*
X113538000Y-118110000D03*
D15*
X110998000Y-117210000D03*
D10*
X110998000Y-118110000D03*
D11*
X108458000Y-118110000D03*
D15*
X108458000Y-117210000D03*
D11*
X105918000Y-118110000D03*
D15*
X105918000Y-117210000D03*
D16*
X154848000Y-129540000D03*
D11*
X153948000Y-129540000D03*
D16*
X154848000Y-127000000D03*
D10*
X153948000Y-127000000D03*
D11*
X153948000Y-124460000D03*
D16*
X154848000Y-124460000D03*
%TD*%
D11*
%TO.C,P4*%
X123937000Y-144977000D03*
X126477000Y-144977000D03*
D10*
X129017000Y-144977000D03*
%TD*%
%TO.C,J4*%
X114300000Y-105156000D03*
D11*
X116840000Y-105156000D03*
X119380000Y-105156000D03*
X121920000Y-105156000D03*
%TD*%
%TO.C,J2*%
X161544000Y-131572000D03*
D10*
X164084000Y-131572000D03*
%TD*%
%TO.C,P5*%
X118872000Y-144780000D03*
D11*
X116332000Y-144780000D03*
X113792000Y-144780000D03*
%TD*%
%TO.C,P1*%
X154417000Y-144977000D03*
X156957000Y-144977000D03*
D10*
X159497000Y-144977000D03*
%TD*%
%TO.C,P2*%
X149337000Y-144977000D03*
D11*
X146797000Y-144977000D03*
X144257000Y-144977000D03*
%TD*%
%TO.C,P6*%
X164358000Y-136627000D03*
D10*
X161818000Y-136627000D03*
%TD*%
%TO.C,P3*%
X139177000Y-144977000D03*
D11*
X136637000Y-144977000D03*
X134097000Y-144977000D03*
%TD*%
D10*
%TO.C,J5*%
X139700000Y-105156000D03*
D11*
X142240000Y-105156000D03*
X144780000Y-105156000D03*
X147320000Y-105156000D03*
X149860000Y-105156000D03*
%TD*%
D12*
%TO.C,*%
X108204000Y-145796000D03*
%TD*%
%TO.C,*%
X170180000Y-127000000D03*
%TD*%
M02*
