M48
; DRILL file {KiCad (6.0.7)} date Tue Aug 23 02:17:10 2022
; FORMAT={-:-/ absolute / inch / decimal}
; #@! TF.CreationDate,2022-08-23T02:17:10-04:00
; #@! TF.GenerationSoftware,Kicad,Pcbnew,(6.0.7)
; #@! TF.FileFunction,Plated,1,2,PTH
FMAT,2
INCH
; #@! TA.AperFunction,Plated,PTH,ViaDrill
T1C0.0157
; #@! TA.AperFunction,Plated,PTH,ComponentDrill
T2C0.0394
; #@! TA.AperFunction,Plated,PTH,ComponentDrill
T3C0.0402
%
G90
G05
T1
X4.6Y-4.9
X4.6Y-5.6
X4.7Y-2.8
X4.7Y-5.8
X4.8Y-2.2
X4.8Y-2.9
X4.9Y-4.6
X5.0Y-2.2
X5.0Y-2.7
X5.0Y-4.1
X5.1Y-2.9
X5.1Y-4.5
X5.1Y-5.6
X5.2Y-4.8
X5.2Y-5.8
X5.3Y-4.8
X5.6Y-5.6
X5.6966Y-5.1285
X5.7Y-5.8
X6.0Y-5.2
X6.1Y-2.8
X6.1Y-5.6
X6.2Y-5.8
X6.4Y-3.0
X6.4Y-5.1
X6.5Y-3.0
X6.6Y-5.6
X6.7Y-5.6
X6.7Y-5.8
X7.1Y-4.9
T2
X4.5994Y-5.7278
X4.6994Y-5.7278
X4.7994Y-5.7278
X4.8Y-2.8
X4.9Y-1.9
X4.9Y-2.0
X4.9Y-2.1
X4.9Y-2.2
X4.9Y-2.3
X4.9Y-2.4
X4.9Y-2.5
X4.9Y-2.8
X5.0Y-2.8
X5.0994Y-5.7278
X5.1Y-2.8
X5.1994Y-5.7278
X5.2994Y-5.7278
X5.6Y-5.7278
X5.7Y-5.7278
X5.8Y-5.7278
X6.0994Y-5.7278
X6.1994Y-5.7278
X6.2Y-2.8
X6.2994Y-5.7278
X6.3Y-2.8
X6.4Y-2.8
X6.5Y-2.8
X6.5994Y-5.7278
X6.6Y-2.8
X6.6994Y-5.7278
X6.7994Y-5.7278
X7.1Y-4.2976
X7.1Y-4.3976
X7.1Y-4.7
X7.1Y-4.8
T3
X4.65Y-4.25
X4.65Y-4.95
X4.75Y-4.25
X4.75Y-4.95
X4.85Y-4.25
X4.85Y-4.95
X4.95Y-4.25
X4.95Y-4.95
X5.05Y-4.25
X5.05Y-4.95
X5.15Y-4.25
X5.15Y-4.95
X5.25Y-4.25
X5.25Y-4.95
X5.35Y-4.25
X5.35Y-4.95
X5.45Y-4.25
X5.45Y-4.95
X5.55Y-4.25
X5.55Y-4.95
X5.65Y-4.25
X5.65Y-4.95
X5.75Y-4.25
X5.75Y-4.95
X5.85Y-4.25
X5.85Y-4.95
X5.95Y-4.25
X5.95Y-4.95
X6.05Y-4.25
X6.05Y-4.95
X6.15Y-4.25
X6.15Y-4.95
X6.25Y-4.25
X6.25Y-4.95
X6.35Y-4.25
X6.35Y-4.95
X6.45Y-4.25
X6.45Y-4.95
X6.5409Y-4.5
X6.5409Y-4.6
X6.5409Y-4.7
X6.55Y-4.25
X6.55Y-4.95
T0
M30
