%TF.GenerationSoftware,KiCad,Pcbnew,(6.0.7)*%
%TF.CreationDate,2022-11-19T04:14:00-05:00*%
%TF.ProjectId,picopilotv1,7069636f-7069-46c6-9f74-76312e6b6963,rev?*%
%TF.SameCoordinates,Original*%
%TF.FileFunction,Legend,Top*%
%TF.FilePolarity,Positive*%
%FSLAX46Y46*%
G04 Gerber Fmt 4.6, Leading zero omitted, Abs format (unit mm)*
G04 Created by KiCad (PCBNEW (6.0.7)) date 2022-11-19 04:14:00*
%MOMM*%
%LPD*%
G01*
G04 APERTURE LIST*
%ADD10C,0.125000*%
%ADD11C,0.175000*%
%ADD12C,0.075000*%
%ADD13C,0.300000*%
%ADD14C,0.150000*%
%ADD15C,0.120000*%
%ADD16C,0.100000*%
%ADD17C,0.127000*%
%ADD18C,0.200000*%
G04 APERTURE END LIST*
D10*
X92758523Y-109285714D02*
X93139476Y-109285714D01*
X103559523Y-109535714D02*
X103940476Y-109535714D01*
X114348523Y-109535714D02*
X114729476Y-109535714D01*
X125524523Y-109535714D02*
X125905476Y-109535714D01*
X136207523Y-109535714D02*
X136588476Y-109535714D01*
X90059523Y-109285714D02*
X90440476Y-109285714D01*
X90250000Y-109476190D02*
X90250000Y-109095238D01*
X100809523Y-109535714D02*
X101190476Y-109535714D01*
X101000000Y-109726190D02*
X101000000Y-109345238D01*
X111809523Y-109535714D02*
X112190476Y-109535714D01*
X112000000Y-109726190D02*
X112000000Y-109345238D01*
X122809523Y-109535714D02*
X123190476Y-109535714D01*
X123000000Y-109726190D02*
X123000000Y-109345238D01*
X133559523Y-109535714D02*
X133940476Y-109535714D01*
X133750000Y-109726190D02*
X133750000Y-109345238D01*
X135028857Y-105231380D02*
X135100285Y-105255190D01*
X135219333Y-105255190D01*
X135266952Y-105231380D01*
X135290761Y-105207571D01*
X135314571Y-105159952D01*
X135314571Y-105112333D01*
X135290761Y-105064714D01*
X135266952Y-105040904D01*
X135219333Y-105017095D01*
X135124095Y-104993285D01*
X135076476Y-104969476D01*
X135052666Y-104945666D01*
X135028857Y-104898047D01*
X135028857Y-104850428D01*
X135052666Y-104802809D01*
X135076476Y-104779000D01*
X135124095Y-104755190D01*
X135243142Y-104755190D01*
X135314571Y-104779000D01*
X135528857Y-105255190D02*
X135528857Y-104755190D01*
X135647904Y-104755190D01*
X135719333Y-104779000D01*
X135766952Y-104826619D01*
X135790761Y-104874238D01*
X135814571Y-104969476D01*
X135814571Y-105040904D01*
X135790761Y-105136142D01*
X135766952Y-105183761D01*
X135719333Y-105231380D01*
X135647904Y-105255190D01*
X135528857Y-105255190D01*
X136005047Y-105112333D02*
X136243142Y-105112333D01*
X135957428Y-105255190D02*
X136124095Y-104755190D01*
X136290761Y-105255190D01*
X87011904Y-109097000D02*
X86964285Y-109073190D01*
X86892857Y-109073190D01*
X86821428Y-109097000D01*
X86773809Y-109144619D01*
X86750000Y-109192238D01*
X86726190Y-109287476D01*
X86726190Y-109358904D01*
X86750000Y-109454142D01*
X86773809Y-109501761D01*
X86821428Y-109549380D01*
X86892857Y-109573190D01*
X86940476Y-109573190D01*
X87011904Y-109549380D01*
X87035714Y-109525571D01*
X87035714Y-109358904D01*
X86940476Y-109358904D01*
X87250000Y-109573190D02*
X87250000Y-109073190D01*
X87440476Y-109073190D01*
X87488095Y-109097000D01*
X87511904Y-109120809D01*
X87535714Y-109168428D01*
X87535714Y-109239857D01*
X87511904Y-109287476D01*
X87488095Y-109311285D01*
X87440476Y-109335095D01*
X87250000Y-109335095D01*
X87750000Y-109573190D02*
X87750000Y-109073190D01*
X88083333Y-109073190D02*
X88178571Y-109073190D01*
X88226190Y-109097000D01*
X88273809Y-109144619D01*
X88297619Y-109239857D01*
X88297619Y-109406523D01*
X88273809Y-109501761D01*
X88226190Y-109549380D01*
X88178571Y-109573190D01*
X88083333Y-109573190D01*
X88035714Y-109549380D01*
X87988095Y-109501761D01*
X87964285Y-109406523D01*
X87964285Y-109239857D01*
X87988095Y-109144619D01*
X88035714Y-109097000D01*
X88083333Y-109073190D01*
X88750000Y-109073190D02*
X88511904Y-109073190D01*
X88488095Y-109311285D01*
X88511904Y-109287476D01*
X88559523Y-109263666D01*
X88678571Y-109263666D01*
X88726190Y-109287476D01*
X88750000Y-109311285D01*
X88773809Y-109358904D01*
X88773809Y-109477952D01*
X88750000Y-109525571D01*
X88726190Y-109549380D01*
X88678571Y-109573190D01*
X88559523Y-109573190D01*
X88511904Y-109549380D01*
X88488095Y-109525571D01*
X130511904Y-109250000D02*
X130464285Y-109226190D01*
X130392857Y-109226190D01*
X130321428Y-109250000D01*
X130273809Y-109297619D01*
X130250000Y-109345238D01*
X130226190Y-109440476D01*
X130226190Y-109511904D01*
X130250000Y-109607142D01*
X130273809Y-109654761D01*
X130321428Y-109702380D01*
X130392857Y-109726190D01*
X130440476Y-109726190D01*
X130511904Y-109702380D01*
X130535714Y-109678571D01*
X130535714Y-109511904D01*
X130440476Y-109511904D01*
X130750000Y-109726190D02*
X130750000Y-109226190D01*
X130940476Y-109226190D01*
X130988095Y-109250000D01*
X131011904Y-109273809D01*
X131035714Y-109321428D01*
X131035714Y-109392857D01*
X131011904Y-109440476D01*
X130988095Y-109464285D01*
X130940476Y-109488095D01*
X130750000Y-109488095D01*
X131250000Y-109726190D02*
X131250000Y-109226190D01*
X131583333Y-109226190D02*
X131678571Y-109226190D01*
X131726190Y-109250000D01*
X131773809Y-109297619D01*
X131797619Y-109392857D01*
X131797619Y-109559523D01*
X131773809Y-109654761D01*
X131726190Y-109702380D01*
X131678571Y-109726190D01*
X131583333Y-109726190D01*
X131535714Y-109702380D01*
X131488095Y-109654761D01*
X131464285Y-109559523D01*
X131464285Y-109392857D01*
X131488095Y-109297619D01*
X131535714Y-109250000D01*
X131583333Y-109226190D01*
X132273809Y-109726190D02*
X131988095Y-109726190D01*
X132130952Y-109726190D02*
X132130952Y-109226190D01*
X132083333Y-109297619D01*
X132035714Y-109345238D01*
X131988095Y-109369047D01*
X127635047Y-100715000D02*
X127587428Y-100691190D01*
X127516000Y-100691190D01*
X127444571Y-100715000D01*
X127396952Y-100762619D01*
X127373142Y-100810238D01*
X127349333Y-100905476D01*
X127349333Y-100976904D01*
X127373142Y-101072142D01*
X127396952Y-101119761D01*
X127444571Y-101167380D01*
X127516000Y-101191190D01*
X127563619Y-101191190D01*
X127635047Y-101167380D01*
X127658857Y-101143571D01*
X127658857Y-100976904D01*
X127563619Y-100976904D01*
X127873142Y-101191190D02*
X127873142Y-100691190D01*
X128158857Y-101191190D01*
X128158857Y-100691190D01*
X128396952Y-101191190D02*
X128396952Y-100691190D01*
X128516000Y-100691190D01*
X128587428Y-100715000D01*
X128635047Y-100762619D01*
X128658857Y-100810238D01*
X128682666Y-100905476D01*
X128682666Y-100976904D01*
X128658857Y-101072142D01*
X128635047Y-101119761D01*
X128587428Y-101167380D01*
X128516000Y-101191190D01*
X128396952Y-101191190D01*
X119761904Y-109224000D02*
X119714285Y-109200190D01*
X119642857Y-109200190D01*
X119571428Y-109224000D01*
X119523809Y-109271619D01*
X119500000Y-109319238D01*
X119476190Y-109414476D01*
X119476190Y-109485904D01*
X119500000Y-109581142D01*
X119523809Y-109628761D01*
X119571428Y-109676380D01*
X119642857Y-109700190D01*
X119690476Y-109700190D01*
X119761904Y-109676380D01*
X119785714Y-109652571D01*
X119785714Y-109485904D01*
X119690476Y-109485904D01*
X120000000Y-109700190D02*
X120000000Y-109200190D01*
X120190476Y-109200190D01*
X120238095Y-109224000D01*
X120261904Y-109247809D01*
X120285714Y-109295428D01*
X120285714Y-109366857D01*
X120261904Y-109414476D01*
X120238095Y-109438285D01*
X120190476Y-109462095D01*
X120000000Y-109462095D01*
X120500000Y-109700190D02*
X120500000Y-109200190D01*
X120833333Y-109200190D02*
X120928571Y-109200190D01*
X120976190Y-109224000D01*
X121023809Y-109271619D01*
X121047619Y-109366857D01*
X121047619Y-109533523D01*
X121023809Y-109628761D01*
X120976190Y-109676380D01*
X120928571Y-109700190D01*
X120833333Y-109700190D01*
X120785714Y-109676380D01*
X120738095Y-109628761D01*
X120714285Y-109533523D01*
X120714285Y-109366857D01*
X120738095Y-109271619D01*
X120785714Y-109224000D01*
X120833333Y-109200190D01*
X121238095Y-109247809D02*
X121261904Y-109224000D01*
X121309523Y-109200190D01*
X121428571Y-109200190D01*
X121476190Y-109224000D01*
X121500000Y-109247809D01*
X121523809Y-109295428D01*
X121523809Y-109343047D01*
X121500000Y-109414476D01*
X121214285Y-109700190D01*
X121523809Y-109700190D01*
X132453142Y-105231380D02*
X132524571Y-105255190D01*
X132643619Y-105255190D01*
X132691238Y-105231380D01*
X132715047Y-105207571D01*
X132738857Y-105159952D01*
X132738857Y-105112333D01*
X132715047Y-105064714D01*
X132691238Y-105040904D01*
X132643619Y-105017095D01*
X132548380Y-104993285D01*
X132500761Y-104969476D01*
X132476952Y-104945666D01*
X132453142Y-104898047D01*
X132453142Y-104850428D01*
X132476952Y-104802809D01*
X132500761Y-104779000D01*
X132548380Y-104755190D01*
X132667428Y-104755190D01*
X132738857Y-104779000D01*
X132953142Y-105255190D02*
X132953142Y-104755190D01*
X133072190Y-104755190D01*
X133143619Y-104779000D01*
X133191238Y-104826619D01*
X133215047Y-104874238D01*
X133238857Y-104969476D01*
X133238857Y-105040904D01*
X133215047Y-105136142D01*
X133191238Y-105183761D01*
X133143619Y-105231380D01*
X133072190Y-105255190D01*
X132953142Y-105255190D01*
X133738857Y-105207571D02*
X133715047Y-105231380D01*
X133643619Y-105255190D01*
X133596000Y-105255190D01*
X133524571Y-105231380D01*
X133476952Y-105183761D01*
X133453142Y-105136142D01*
X133429333Y-105040904D01*
X133429333Y-104969476D01*
X133453142Y-104874238D01*
X133476952Y-104826619D01*
X133524571Y-104779000D01*
X133596000Y-104755190D01*
X133643619Y-104755190D01*
X133715047Y-104779000D01*
X133738857Y-104802809D01*
X129960761Y-104755190D02*
X130270285Y-104755190D01*
X130103619Y-104945666D01*
X130175047Y-104945666D01*
X130222666Y-104969476D01*
X130246476Y-104993285D01*
X130270285Y-105040904D01*
X130270285Y-105159952D01*
X130246476Y-105207571D01*
X130222666Y-105231380D01*
X130175047Y-105255190D01*
X130032190Y-105255190D01*
X129984571Y-105231380D01*
X129960761Y-105207571D01*
X130436952Y-104921857D02*
X130556000Y-105255190D01*
X130675047Y-104921857D01*
X130817904Y-104755190D02*
X131127428Y-104755190D01*
X130960761Y-104945666D01*
X131032190Y-104945666D01*
X131079809Y-104969476D01*
X131103619Y-104993285D01*
X131127428Y-105040904D01*
X131127428Y-105159952D01*
X131103619Y-105207571D01*
X131079809Y-105231380D01*
X131032190Y-105255190D01*
X130889333Y-105255190D01*
X130841714Y-105231380D01*
X130817904Y-105207571D01*
D11*
X138365666Y-107440333D02*
X137665666Y-107440333D01*
X137732333Y-107140333D02*
X137699000Y-107107000D01*
X137665666Y-107040333D01*
X137665666Y-106873666D01*
X137699000Y-106807000D01*
X137732333Y-106773666D01*
X137799000Y-106740333D01*
X137865666Y-106740333D01*
X137965666Y-106773666D01*
X138365666Y-107173666D01*
X138365666Y-106740333D01*
X138332333Y-106140333D02*
X138365666Y-106207000D01*
X138365666Y-106340333D01*
X138332333Y-106407000D01*
X138299000Y-106440333D01*
X138232333Y-106473666D01*
X138032333Y-106473666D01*
X137965666Y-106440333D01*
X137932333Y-106407000D01*
X137899000Y-106340333D01*
X137899000Y-106207000D01*
X137932333Y-106140333D01*
D10*
X97761904Y-109250000D02*
X97714285Y-109226190D01*
X97642857Y-109226190D01*
X97571428Y-109250000D01*
X97523809Y-109297619D01*
X97500000Y-109345238D01*
X97476190Y-109440476D01*
X97476190Y-109511904D01*
X97500000Y-109607142D01*
X97523809Y-109654761D01*
X97571428Y-109702380D01*
X97642857Y-109726190D01*
X97690476Y-109726190D01*
X97761904Y-109702380D01*
X97785714Y-109678571D01*
X97785714Y-109511904D01*
X97690476Y-109511904D01*
X98000000Y-109726190D02*
X98000000Y-109226190D01*
X98190476Y-109226190D01*
X98238095Y-109250000D01*
X98261904Y-109273809D01*
X98285714Y-109321428D01*
X98285714Y-109392857D01*
X98261904Y-109440476D01*
X98238095Y-109464285D01*
X98190476Y-109488095D01*
X98000000Y-109488095D01*
X98500000Y-109726190D02*
X98500000Y-109226190D01*
X98833333Y-109226190D02*
X98928571Y-109226190D01*
X98976190Y-109250000D01*
X99023809Y-109297619D01*
X99047619Y-109392857D01*
X99047619Y-109559523D01*
X99023809Y-109654761D01*
X98976190Y-109702380D01*
X98928571Y-109726190D01*
X98833333Y-109726190D01*
X98785714Y-109702380D01*
X98738095Y-109654761D01*
X98714285Y-109559523D01*
X98714285Y-109392857D01*
X98738095Y-109297619D01*
X98785714Y-109250000D01*
X98833333Y-109226190D01*
X99476190Y-109392857D02*
X99476190Y-109726190D01*
X99357142Y-109202380D02*
X99238095Y-109559523D01*
X99547619Y-109559523D01*
X135552666Y-101191190D02*
X135386000Y-100953095D01*
X135266952Y-101191190D02*
X135266952Y-100691190D01*
X135457428Y-100691190D01*
X135505047Y-100715000D01*
X135528857Y-100738809D01*
X135552666Y-100786428D01*
X135552666Y-100857857D01*
X135528857Y-100905476D01*
X135505047Y-100929285D01*
X135457428Y-100953095D01*
X135266952Y-100953095D01*
X135719333Y-100691190D02*
X136052666Y-101191190D01*
X136052666Y-100691190D02*
X135719333Y-101191190D01*
D12*
X106340495Y-86991828D02*
X106397638Y-87010876D01*
X106416685Y-87029923D01*
X106435733Y-87068019D01*
X106435733Y-87125161D01*
X106416685Y-87163257D01*
X106397638Y-87182304D01*
X106359542Y-87201352D01*
X106207161Y-87201352D01*
X106207161Y-86801352D01*
X106340495Y-86801352D01*
X106378590Y-86820400D01*
X106397638Y-86839447D01*
X106416685Y-86877542D01*
X106416685Y-86915638D01*
X106397638Y-86953733D01*
X106378590Y-86972780D01*
X106340495Y-86991828D01*
X106207161Y-86991828D01*
X106683352Y-86801352D02*
X106759542Y-86801352D01*
X106797638Y-86820400D01*
X106835733Y-86858495D01*
X106854780Y-86934685D01*
X106854780Y-87068019D01*
X106835733Y-87144209D01*
X106797638Y-87182304D01*
X106759542Y-87201352D01*
X106683352Y-87201352D01*
X106645257Y-87182304D01*
X106607161Y-87144209D01*
X106588114Y-87068019D01*
X106588114Y-86934685D01*
X106607161Y-86858495D01*
X106645257Y-86820400D01*
X106683352Y-86801352D01*
X107102400Y-86801352D02*
X107178590Y-86801352D01*
X107216685Y-86820400D01*
X107254780Y-86858495D01*
X107273828Y-86934685D01*
X107273828Y-87068019D01*
X107254780Y-87144209D01*
X107216685Y-87182304D01*
X107178590Y-87201352D01*
X107102400Y-87201352D01*
X107064304Y-87182304D01*
X107026209Y-87144209D01*
X107007161Y-87068019D01*
X107007161Y-86934685D01*
X107026209Y-86858495D01*
X107064304Y-86820400D01*
X107102400Y-86801352D01*
X107388114Y-86801352D02*
X107616685Y-86801352D01*
X107502400Y-87201352D02*
X107502400Y-86801352D01*
X108035733Y-87182304D02*
X108092876Y-87201352D01*
X108188114Y-87201352D01*
X108226209Y-87182304D01*
X108245257Y-87163257D01*
X108264304Y-87125161D01*
X108264304Y-87087066D01*
X108245257Y-87048971D01*
X108226209Y-87029923D01*
X108188114Y-87010876D01*
X108111923Y-86991828D01*
X108073828Y-86972780D01*
X108054780Y-86953733D01*
X108035733Y-86915638D01*
X108035733Y-86877542D01*
X108054780Y-86839447D01*
X108073828Y-86820400D01*
X108111923Y-86801352D01*
X108207161Y-86801352D01*
X108264304Y-86820400D01*
X108435733Y-86991828D02*
X108569066Y-86991828D01*
X108626209Y-87201352D02*
X108435733Y-87201352D01*
X108435733Y-86801352D01*
X108626209Y-86801352D01*
X108988114Y-87201352D02*
X108797638Y-87201352D01*
X108797638Y-86801352D01*
X109121447Y-86991828D02*
X109254780Y-86991828D01*
X109311923Y-87201352D02*
X109121447Y-87201352D01*
X109121447Y-86801352D01*
X109311923Y-86801352D01*
X109711923Y-87163257D02*
X109692876Y-87182304D01*
X109635733Y-87201352D01*
X109597638Y-87201352D01*
X109540495Y-87182304D01*
X109502400Y-87144209D01*
X109483352Y-87106114D01*
X109464304Y-87029923D01*
X109464304Y-86972780D01*
X109483352Y-86896590D01*
X109502400Y-86858495D01*
X109540495Y-86820400D01*
X109597638Y-86801352D01*
X109635733Y-86801352D01*
X109692876Y-86820400D01*
X109711923Y-86839447D01*
X109826209Y-86801352D02*
X110054780Y-86801352D01*
X109940495Y-87201352D02*
X109940495Y-86801352D01*
D11*
X137665666Y-103859666D02*
X138232333Y-103859666D01*
X138299000Y-103826333D01*
X138332333Y-103793000D01*
X138365666Y-103726333D01*
X138365666Y-103593000D01*
X138332333Y-103526333D01*
X138299000Y-103493000D01*
X138232333Y-103459666D01*
X137665666Y-103459666D01*
X138165666Y-103159666D02*
X138165666Y-102826333D01*
X138365666Y-103226333D02*
X137665666Y-102993000D01*
X138365666Y-102759666D01*
X138365666Y-102126333D02*
X138032333Y-102359666D01*
X138365666Y-102526333D02*
X137665666Y-102526333D01*
X137665666Y-102259666D01*
X137699000Y-102193000D01*
X137732333Y-102159666D01*
X137799000Y-102126333D01*
X137899000Y-102126333D01*
X137965666Y-102159666D01*
X137999000Y-102193000D01*
X138032333Y-102259666D01*
X138032333Y-102526333D01*
X137665666Y-101926333D02*
X137665666Y-101526333D01*
X138365666Y-101726333D02*
X137665666Y-101726333D01*
D10*
X108761904Y-109250000D02*
X108714285Y-109226190D01*
X108642857Y-109226190D01*
X108571428Y-109250000D01*
X108523809Y-109297619D01*
X108500000Y-109345238D01*
X108476190Y-109440476D01*
X108476190Y-109511904D01*
X108500000Y-109607142D01*
X108523809Y-109654761D01*
X108571428Y-109702380D01*
X108642857Y-109726190D01*
X108690476Y-109726190D01*
X108761904Y-109702380D01*
X108785714Y-109678571D01*
X108785714Y-109511904D01*
X108690476Y-109511904D01*
X109000000Y-109726190D02*
X109000000Y-109226190D01*
X109190476Y-109226190D01*
X109238095Y-109250000D01*
X109261904Y-109273809D01*
X109285714Y-109321428D01*
X109285714Y-109392857D01*
X109261904Y-109440476D01*
X109238095Y-109464285D01*
X109190476Y-109488095D01*
X109000000Y-109488095D01*
X109500000Y-109726190D02*
X109500000Y-109226190D01*
X109833333Y-109226190D02*
X109928571Y-109226190D01*
X109976190Y-109250000D01*
X110023809Y-109297619D01*
X110047619Y-109392857D01*
X110047619Y-109559523D01*
X110023809Y-109654761D01*
X109976190Y-109702380D01*
X109928571Y-109726190D01*
X109833333Y-109726190D01*
X109785714Y-109702380D01*
X109738095Y-109654761D01*
X109714285Y-109559523D01*
X109714285Y-109392857D01*
X109738095Y-109297619D01*
X109785714Y-109250000D01*
X109833333Y-109226190D01*
X110214285Y-109226190D02*
X110523809Y-109226190D01*
X110357142Y-109416666D01*
X110428571Y-109416666D01*
X110476190Y-109440476D01*
X110500000Y-109464285D01*
X110523809Y-109511904D01*
X110523809Y-109630952D01*
X110500000Y-109678571D01*
X110476190Y-109702380D01*
X110428571Y-109726190D01*
X110285714Y-109726190D01*
X110238095Y-109702380D01*
X110214285Y-109678571D01*
X127635047Y-104779000D02*
X127587428Y-104755190D01*
X127516000Y-104755190D01*
X127444571Y-104779000D01*
X127396952Y-104826619D01*
X127373142Y-104874238D01*
X127349333Y-104969476D01*
X127349333Y-105040904D01*
X127373142Y-105136142D01*
X127396952Y-105183761D01*
X127444571Y-105231380D01*
X127516000Y-105255190D01*
X127563619Y-105255190D01*
X127635047Y-105231380D01*
X127658857Y-105207571D01*
X127658857Y-105040904D01*
X127563619Y-105040904D01*
X127873142Y-105255190D02*
X127873142Y-104755190D01*
X128158857Y-105255190D01*
X128158857Y-104755190D01*
X128396952Y-105255190D02*
X128396952Y-104755190D01*
X128516000Y-104755190D01*
X128587428Y-104779000D01*
X128635047Y-104826619D01*
X128658857Y-104874238D01*
X128682666Y-104969476D01*
X128682666Y-105040904D01*
X128658857Y-105136142D01*
X128635047Y-105183761D01*
X128587428Y-105231380D01*
X128516000Y-105255190D01*
X128396952Y-105255190D01*
X130484571Y-100691190D02*
X130246476Y-100691190D01*
X130222666Y-100929285D01*
X130246476Y-100905476D01*
X130294095Y-100881666D01*
X130413142Y-100881666D01*
X130460761Y-100905476D01*
X130484571Y-100929285D01*
X130508380Y-100976904D01*
X130508380Y-101095952D01*
X130484571Y-101143571D01*
X130460761Y-101167380D01*
X130413142Y-101191190D01*
X130294095Y-101191190D01*
X130246476Y-101167380D01*
X130222666Y-101143571D01*
X130675047Y-100857857D02*
X130794095Y-101191190D01*
X130913142Y-100857857D01*
X132715047Y-100691190D02*
X133000761Y-100691190D01*
X132857904Y-101191190D02*
X132857904Y-100691190D01*
X133119809Y-100691190D02*
X133453142Y-101191190D01*
X133453142Y-100691190D02*
X133119809Y-101191190D01*
D13*
%TO.C,G\u002A\u002A\u002A*%
X95407428Y-64988000D02*
X95262285Y-64915428D01*
X95044571Y-64915428D01*
X94826857Y-64988000D01*
X94681714Y-65133142D01*
X94609142Y-65278285D01*
X94536571Y-65568571D01*
X94536571Y-65786285D01*
X94609142Y-66076571D01*
X94681714Y-66221714D01*
X94826857Y-66366857D01*
X95044571Y-66439428D01*
X95189714Y-66439428D01*
X95407428Y-66366857D01*
X95480000Y-66294285D01*
X95480000Y-65786285D01*
X95189714Y-65786285D01*
X96350857Y-64915428D02*
X96350857Y-65278285D01*
X95988000Y-65133142D02*
X96350857Y-65278285D01*
X96713714Y-65133142D01*
X96133142Y-65568571D02*
X96350857Y-65278285D01*
X96568571Y-65568571D01*
X97512000Y-64915428D02*
X97512000Y-65278285D01*
X97149142Y-65133142D02*
X97512000Y-65278285D01*
X97874857Y-65133142D01*
X97294285Y-65568571D02*
X97512000Y-65278285D01*
X97729714Y-65568571D01*
X98673142Y-64915428D02*
X98673142Y-65278285D01*
X98310285Y-65133142D02*
X98673142Y-65278285D01*
X99036000Y-65133142D01*
X98455428Y-65568571D02*
X98673142Y-65278285D01*
X98890857Y-65568571D01*
X111407428Y-64988000D02*
X111262285Y-64915428D01*
X111044571Y-64915428D01*
X110826857Y-64988000D01*
X110681714Y-65133142D01*
X110609142Y-65278285D01*
X110536571Y-65568571D01*
X110536571Y-65786285D01*
X110609142Y-66076571D01*
X110681714Y-66221714D01*
X110826857Y-66366857D01*
X111044571Y-66439428D01*
X111189714Y-66439428D01*
X111407428Y-66366857D01*
X111480000Y-66294285D01*
X111480000Y-65786285D01*
X111189714Y-65786285D01*
X112350857Y-64915428D02*
X112350857Y-65278285D01*
X111988000Y-65133142D02*
X112350857Y-65278285D01*
X112713714Y-65133142D01*
X112133142Y-65568571D02*
X112350857Y-65278285D01*
X112568571Y-65568571D01*
X113512000Y-64915428D02*
X113512000Y-65278285D01*
X113149142Y-65133142D02*
X113512000Y-65278285D01*
X113874857Y-65133142D01*
X113294285Y-65568571D02*
X113512000Y-65278285D01*
X113729714Y-65568571D01*
X114673142Y-64915428D02*
X114673142Y-65278285D01*
X114310285Y-65133142D02*
X114673142Y-65278285D01*
X115036000Y-65133142D01*
X114455428Y-65568571D02*
X114673142Y-65278285D01*
X114890857Y-65568571D01*
X38483991Y-163677721D02*
X38338848Y-163605149D01*
X38121134Y-163605149D01*
X37903420Y-163677721D01*
X37758277Y-163822863D01*
X37685705Y-163968006D01*
X37613134Y-164258292D01*
X37613134Y-164476006D01*
X37685705Y-164766292D01*
X37758277Y-164911435D01*
X37903420Y-165056578D01*
X38121134Y-165129149D01*
X38266277Y-165129149D01*
X38483991Y-165056578D01*
X38556563Y-164984006D01*
X38556563Y-164476006D01*
X38266277Y-164476006D01*
X39427420Y-163605149D02*
X39427420Y-163968006D01*
X39064563Y-163822863D02*
X39427420Y-163968006D01*
X39790277Y-163822863D01*
X39209705Y-164258292D02*
X39427420Y-163968006D01*
X39645134Y-164258292D01*
X40588563Y-163605149D02*
X40588563Y-163968006D01*
X40225705Y-163822863D02*
X40588563Y-163968006D01*
X40951420Y-163822863D01*
X40370848Y-164258292D02*
X40588563Y-163968006D01*
X40806277Y-164258292D01*
X41749705Y-163605149D02*
X41749705Y-163968006D01*
X41386848Y-163822863D02*
X41749705Y-163968006D01*
X42112563Y-163822863D01*
X41531991Y-164258292D02*
X41749705Y-163968006D01*
X41967420Y-164258292D01*
D14*
%TO.C,PWR*%
X121951866Y-83882666D02*
X121951866Y-83182666D01*
X122218533Y-83182666D01*
X122285200Y-83216000D01*
X122318533Y-83249333D01*
X122351866Y-83316000D01*
X122351866Y-83416000D01*
X122318533Y-83482666D01*
X122285200Y-83516000D01*
X122218533Y-83549333D01*
X121951866Y-83549333D01*
X122585200Y-83182666D02*
X122751866Y-83882666D01*
X122885200Y-83382666D01*
X123018533Y-83882666D01*
X123185200Y-83182666D01*
X123851866Y-83882666D02*
X123618533Y-83549333D01*
X123451866Y-83882666D02*
X123451866Y-83182666D01*
X123718533Y-83182666D01*
X123785200Y-83216000D01*
X123818533Y-83249333D01*
X123851866Y-83316000D01*
X123851866Y-83416000D01*
X123818533Y-83482666D01*
X123785200Y-83516000D01*
X123718533Y-83549333D01*
X123451866Y-83549333D01*
D10*
%TO.C,C8*%
X110101866Y-101880171D02*
X110078057Y-101903980D01*
X110006628Y-101927790D01*
X109959009Y-101927790D01*
X109887580Y-101903980D01*
X109839961Y-101856361D01*
X109816152Y-101808742D01*
X109792342Y-101713504D01*
X109792342Y-101642076D01*
X109816152Y-101546838D01*
X109839961Y-101499219D01*
X109887580Y-101451600D01*
X109959009Y-101427790D01*
X110006628Y-101427790D01*
X110078057Y-101451600D01*
X110101866Y-101475409D01*
X110387580Y-101642076D02*
X110339961Y-101618266D01*
X110316152Y-101594457D01*
X110292342Y-101546838D01*
X110292342Y-101523028D01*
X110316152Y-101475409D01*
X110339961Y-101451600D01*
X110387580Y-101427790D01*
X110482819Y-101427790D01*
X110530438Y-101451600D01*
X110554247Y-101475409D01*
X110578057Y-101523028D01*
X110578057Y-101546838D01*
X110554247Y-101594457D01*
X110530438Y-101618266D01*
X110482819Y-101642076D01*
X110387580Y-101642076D01*
X110339961Y-101665885D01*
X110316152Y-101689695D01*
X110292342Y-101737314D01*
X110292342Y-101832552D01*
X110316152Y-101880171D01*
X110339961Y-101903980D01*
X110387580Y-101927790D01*
X110482819Y-101927790D01*
X110530438Y-101903980D01*
X110554247Y-101880171D01*
X110578057Y-101832552D01*
X110578057Y-101737314D01*
X110554247Y-101689695D01*
X110530438Y-101665885D01*
X110482819Y-101642076D01*
%TO.C,C19*%
X123122571Y-104267771D02*
X123098761Y-104291580D01*
X123027333Y-104315390D01*
X122979714Y-104315390D01*
X122908285Y-104291580D01*
X122860666Y-104243961D01*
X122836857Y-104196342D01*
X122813047Y-104101104D01*
X122813047Y-104029676D01*
X122836857Y-103934438D01*
X122860666Y-103886819D01*
X122908285Y-103839200D01*
X122979714Y-103815390D01*
X123027333Y-103815390D01*
X123098761Y-103839200D01*
X123122571Y-103863009D01*
X123598761Y-104315390D02*
X123313047Y-104315390D01*
X123455904Y-104315390D02*
X123455904Y-103815390D01*
X123408285Y-103886819D01*
X123360666Y-103934438D01*
X123313047Y-103958247D01*
X123836857Y-104315390D02*
X123932095Y-104315390D01*
X123979714Y-104291580D01*
X124003523Y-104267771D01*
X124051142Y-104196342D01*
X124074952Y-104101104D01*
X124074952Y-103910628D01*
X124051142Y-103863009D01*
X124027333Y-103839200D01*
X123979714Y-103815390D01*
X123884476Y-103815390D01*
X123836857Y-103839200D01*
X123813047Y-103863009D01*
X123789238Y-103910628D01*
X123789238Y-104029676D01*
X123813047Y-104077295D01*
X123836857Y-104101104D01*
X123884476Y-104124914D01*
X123979714Y-104124914D01*
X124027333Y-104101104D01*
X124051142Y-104077295D01*
X124074952Y-104029676D01*
%TO.C,R1*%
X103756590Y-88119733D02*
X103518495Y-88286400D01*
X103756590Y-88405447D02*
X103256590Y-88405447D01*
X103256590Y-88214971D01*
X103280400Y-88167352D01*
X103304209Y-88143542D01*
X103351828Y-88119733D01*
X103423257Y-88119733D01*
X103470876Y-88143542D01*
X103494685Y-88167352D01*
X103518495Y-88214971D01*
X103518495Y-88405447D01*
X103756590Y-87643542D02*
X103756590Y-87929257D01*
X103756590Y-87786400D02*
X103256590Y-87786400D01*
X103328019Y-87834019D01*
X103375638Y-87881638D01*
X103399447Y-87929257D01*
%TO.C,C16*%
X112403771Y-84760571D02*
X112379961Y-84784380D01*
X112308533Y-84808190D01*
X112260914Y-84808190D01*
X112189485Y-84784380D01*
X112141866Y-84736761D01*
X112118057Y-84689142D01*
X112094247Y-84593904D01*
X112094247Y-84522476D01*
X112118057Y-84427238D01*
X112141866Y-84379619D01*
X112189485Y-84332000D01*
X112260914Y-84308190D01*
X112308533Y-84308190D01*
X112379961Y-84332000D01*
X112403771Y-84355809D01*
X112879961Y-84808190D02*
X112594247Y-84808190D01*
X112737104Y-84808190D02*
X112737104Y-84308190D01*
X112689485Y-84379619D01*
X112641866Y-84427238D01*
X112594247Y-84451047D01*
X113308533Y-84308190D02*
X113213295Y-84308190D01*
X113165676Y-84332000D01*
X113141866Y-84355809D01*
X113094247Y-84427238D01*
X113070438Y-84522476D01*
X113070438Y-84712952D01*
X113094247Y-84760571D01*
X113118057Y-84784380D01*
X113165676Y-84808190D01*
X113260914Y-84808190D01*
X113308533Y-84784380D01*
X113332342Y-84760571D01*
X113356152Y-84712952D01*
X113356152Y-84593904D01*
X113332342Y-84546285D01*
X113308533Y-84522476D01*
X113260914Y-84498666D01*
X113165676Y-84498666D01*
X113118057Y-84522476D01*
X113094247Y-84546285D01*
X113070438Y-84593904D01*
%TO.C,D1*%
X125854590Y-98540047D02*
X125354590Y-98540047D01*
X125354590Y-98421000D01*
X125378400Y-98349571D01*
X125426019Y-98301952D01*
X125473638Y-98278142D01*
X125568876Y-98254333D01*
X125640304Y-98254333D01*
X125735542Y-98278142D01*
X125783161Y-98301952D01*
X125830780Y-98349571D01*
X125854590Y-98421000D01*
X125854590Y-98540047D01*
X125854590Y-97778142D02*
X125854590Y-98063857D01*
X125854590Y-97921000D02*
X125354590Y-97921000D01*
X125426019Y-97968619D01*
X125473638Y-98016238D01*
X125497447Y-98063857D01*
%TO.C,U5*%
X122047047Y-101376990D02*
X122047047Y-101781752D01*
X122070857Y-101829371D01*
X122094666Y-101853180D01*
X122142285Y-101876990D01*
X122237523Y-101876990D01*
X122285142Y-101853180D01*
X122308952Y-101829371D01*
X122332761Y-101781752D01*
X122332761Y-101376990D01*
X122808952Y-101376990D02*
X122570857Y-101376990D01*
X122547047Y-101615085D01*
X122570857Y-101591276D01*
X122618476Y-101567466D01*
X122737523Y-101567466D01*
X122785142Y-101591276D01*
X122808952Y-101615085D01*
X122832761Y-101662704D01*
X122832761Y-101781752D01*
X122808952Y-101829371D01*
X122785142Y-101853180D01*
X122737523Y-101876990D01*
X122618476Y-101876990D01*
X122570857Y-101853180D01*
X122547047Y-101829371D01*
D14*
%TO.C,U1*%
X132842095Y-85304380D02*
X132842095Y-86113904D01*
X132889714Y-86209142D01*
X132937333Y-86256761D01*
X133032571Y-86304380D01*
X133223047Y-86304380D01*
X133318285Y-86256761D01*
X133365904Y-86209142D01*
X133413523Y-86113904D01*
X133413523Y-85304380D01*
X134413523Y-86304380D02*
X133842095Y-86304380D01*
X134127809Y-86304380D02*
X134127809Y-85304380D01*
X134032571Y-85447238D01*
X133937333Y-85542476D01*
X133842095Y-85590095D01*
D10*
%TO.C,R14*%
X128242190Y-95165028D02*
X128004095Y-95331695D01*
X128242190Y-95450742D02*
X127742190Y-95450742D01*
X127742190Y-95260266D01*
X127766000Y-95212647D01*
X127789809Y-95188838D01*
X127837428Y-95165028D01*
X127908857Y-95165028D01*
X127956476Y-95188838D01*
X127980285Y-95212647D01*
X128004095Y-95260266D01*
X128004095Y-95450742D01*
X128242190Y-94688838D02*
X128242190Y-94974552D01*
X128242190Y-94831695D02*
X127742190Y-94831695D01*
X127813619Y-94879314D01*
X127861238Y-94926933D01*
X127885047Y-94974552D01*
X127908857Y-94260266D02*
X128242190Y-94260266D01*
X127718380Y-94379314D02*
X128075523Y-94498361D01*
X128075523Y-94188838D01*
%TO.C,R4*%
X112032266Y-97457390D02*
X111865600Y-97219295D01*
X111746552Y-97457390D02*
X111746552Y-96957390D01*
X111937028Y-96957390D01*
X111984647Y-96981200D01*
X112008457Y-97005009D01*
X112032266Y-97052628D01*
X112032266Y-97124057D01*
X112008457Y-97171676D01*
X111984647Y-97195485D01*
X111937028Y-97219295D01*
X111746552Y-97219295D01*
X112460838Y-97124057D02*
X112460838Y-97457390D01*
X112341790Y-96933580D02*
X112222742Y-97290723D01*
X112532266Y-97290723D01*
D14*
%TO.C,Y1*%
X110521809Y-94210190D02*
X110521809Y-94686380D01*
X110188476Y-93686380D02*
X110521809Y-94210190D01*
X110855142Y-93686380D01*
X111712285Y-94686380D02*
X111140857Y-94686380D01*
X111426571Y-94686380D02*
X111426571Y-93686380D01*
X111331333Y-93829238D01*
X111236095Y-93924476D01*
X111140857Y-93972095D01*
%TO.C,P4*%
X128595380Y-117451095D02*
X127595380Y-117451095D01*
X127595380Y-117070142D01*
X127643000Y-116974904D01*
X127690619Y-116927285D01*
X127785857Y-116879666D01*
X127928714Y-116879666D01*
X128023952Y-116927285D01*
X128071571Y-116974904D01*
X128119190Y-117070142D01*
X128119190Y-117451095D01*
X127928714Y-116022523D02*
X128595380Y-116022523D01*
X127547761Y-116260619D02*
X128262047Y-116498714D01*
X128262047Y-115879666D01*
D10*
%TO.C,R3*%
X114165866Y-98270190D02*
X113999200Y-98032095D01*
X113880152Y-98270190D02*
X113880152Y-97770190D01*
X114070628Y-97770190D01*
X114118247Y-97794000D01*
X114142057Y-97817809D01*
X114165866Y-97865428D01*
X114165866Y-97936857D01*
X114142057Y-97984476D01*
X114118247Y-98008285D01*
X114070628Y-98032095D01*
X113880152Y-98032095D01*
X114332533Y-97770190D02*
X114642057Y-97770190D01*
X114475390Y-97960666D01*
X114546819Y-97960666D01*
X114594438Y-97984476D01*
X114618247Y-98008285D01*
X114642057Y-98055904D01*
X114642057Y-98174952D01*
X114618247Y-98222571D01*
X114594438Y-98246380D01*
X114546819Y-98270190D01*
X114403961Y-98270190D01*
X114356342Y-98246380D01*
X114332533Y-98222571D01*
%TO.C,R5*%
X118534666Y-97508190D02*
X118368000Y-97270095D01*
X118248952Y-97508190D02*
X118248952Y-97008190D01*
X118439428Y-97008190D01*
X118487047Y-97032000D01*
X118510857Y-97055809D01*
X118534666Y-97103428D01*
X118534666Y-97174857D01*
X118510857Y-97222476D01*
X118487047Y-97246285D01*
X118439428Y-97270095D01*
X118248952Y-97270095D01*
X118987047Y-97008190D02*
X118748952Y-97008190D01*
X118725142Y-97246285D01*
X118748952Y-97222476D01*
X118796571Y-97198666D01*
X118915619Y-97198666D01*
X118963238Y-97222476D01*
X118987047Y-97246285D01*
X119010857Y-97293904D01*
X119010857Y-97412952D01*
X118987047Y-97460571D01*
X118963238Y-97484380D01*
X118915619Y-97508190D01*
X118796571Y-97508190D01*
X118748952Y-97484380D01*
X118725142Y-97460571D01*
D14*
%TO.C,U3*%
X59447180Y-103936704D02*
X60256704Y-103936704D01*
X60351942Y-103889085D01*
X60399561Y-103841466D01*
X60447180Y-103746228D01*
X60447180Y-103555752D01*
X60399561Y-103460514D01*
X60351942Y-103412895D01*
X60256704Y-103365276D01*
X59447180Y-103365276D01*
X59447180Y-102984323D02*
X59447180Y-102365276D01*
X59828133Y-102698609D01*
X59828133Y-102555752D01*
X59875752Y-102460514D01*
X59923371Y-102412895D01*
X60018609Y-102365276D01*
X60256704Y-102365276D01*
X60351942Y-102412895D01*
X60399561Y-102460514D01*
X60447180Y-102555752D01*
X60447180Y-102841466D01*
X60399561Y-102936704D01*
X60351942Y-102984323D01*
%TO.C,U2*%
X105573580Y-103352504D02*
X106383104Y-103352504D01*
X106478342Y-103304885D01*
X106525961Y-103257266D01*
X106573580Y-103162028D01*
X106573580Y-102971552D01*
X106525961Y-102876314D01*
X106478342Y-102828695D01*
X106383104Y-102781076D01*
X105573580Y-102781076D01*
X105668819Y-102352504D02*
X105621200Y-102304885D01*
X105573580Y-102209647D01*
X105573580Y-101971552D01*
X105621200Y-101876314D01*
X105668819Y-101828695D01*
X105764057Y-101781076D01*
X105859295Y-101781076D01*
X106002152Y-101828695D01*
X106573580Y-102400123D01*
X106573580Y-101781076D01*
D10*
%TO.C,R9*%
X100043466Y-92174190D02*
X99876800Y-91936095D01*
X99757752Y-92174190D02*
X99757752Y-91674190D01*
X99948228Y-91674190D01*
X99995847Y-91698000D01*
X100019657Y-91721809D01*
X100043466Y-91769428D01*
X100043466Y-91840857D01*
X100019657Y-91888476D01*
X99995847Y-91912285D01*
X99948228Y-91936095D01*
X99757752Y-91936095D01*
X100281561Y-92174190D02*
X100376800Y-92174190D01*
X100424419Y-92150380D01*
X100448228Y-92126571D01*
X100495847Y-92055142D01*
X100519657Y-91959904D01*
X100519657Y-91769428D01*
X100495847Y-91721809D01*
X100472038Y-91698000D01*
X100424419Y-91674190D01*
X100329180Y-91674190D01*
X100281561Y-91698000D01*
X100257752Y-91721809D01*
X100233942Y-91769428D01*
X100233942Y-91888476D01*
X100257752Y-91936095D01*
X100281561Y-91959904D01*
X100329180Y-91983714D01*
X100424419Y-91983714D01*
X100472038Y-91959904D01*
X100495847Y-91936095D01*
X100519657Y-91888476D01*
%TO.C,R8*%
X98341666Y-85112990D02*
X98175000Y-84874895D01*
X98055952Y-85112990D02*
X98055952Y-84612990D01*
X98246428Y-84612990D01*
X98294047Y-84636800D01*
X98317857Y-84660609D01*
X98341666Y-84708228D01*
X98341666Y-84779657D01*
X98317857Y-84827276D01*
X98294047Y-84851085D01*
X98246428Y-84874895D01*
X98055952Y-84874895D01*
X98627380Y-84827276D02*
X98579761Y-84803466D01*
X98555952Y-84779657D01*
X98532142Y-84732038D01*
X98532142Y-84708228D01*
X98555952Y-84660609D01*
X98579761Y-84636800D01*
X98627380Y-84612990D01*
X98722619Y-84612990D01*
X98770238Y-84636800D01*
X98794047Y-84660609D01*
X98817857Y-84708228D01*
X98817857Y-84732038D01*
X98794047Y-84779657D01*
X98770238Y-84803466D01*
X98722619Y-84827276D01*
X98627380Y-84827276D01*
X98579761Y-84851085D01*
X98555952Y-84874895D01*
X98532142Y-84922514D01*
X98532142Y-85017752D01*
X98555952Y-85065371D01*
X98579761Y-85089180D01*
X98627380Y-85112990D01*
X98722619Y-85112990D01*
X98770238Y-85089180D01*
X98794047Y-85065371D01*
X98817857Y-85017752D01*
X98817857Y-84922514D01*
X98794047Y-84874895D01*
X98770238Y-84851085D01*
X98722619Y-84827276D01*
%TO.C,R6*%
X127678666Y-86586190D02*
X127512000Y-86348095D01*
X127392952Y-86586190D02*
X127392952Y-86086190D01*
X127583428Y-86086190D01*
X127631047Y-86110000D01*
X127654857Y-86133809D01*
X127678666Y-86181428D01*
X127678666Y-86252857D01*
X127654857Y-86300476D01*
X127631047Y-86324285D01*
X127583428Y-86348095D01*
X127392952Y-86348095D01*
X128107238Y-86086190D02*
X128012000Y-86086190D01*
X127964380Y-86110000D01*
X127940571Y-86133809D01*
X127892952Y-86205238D01*
X127869142Y-86300476D01*
X127869142Y-86490952D01*
X127892952Y-86538571D01*
X127916761Y-86562380D01*
X127964380Y-86586190D01*
X128059619Y-86586190D01*
X128107238Y-86562380D01*
X128131047Y-86538571D01*
X128154857Y-86490952D01*
X128154857Y-86371904D01*
X128131047Y-86324285D01*
X128107238Y-86300476D01*
X128059619Y-86276666D01*
X127964380Y-86276666D01*
X127916761Y-86300476D01*
X127892952Y-86324285D01*
X127869142Y-86371904D01*
D14*
%TO.C,P1*%
X95671380Y-117324095D02*
X94671380Y-117324095D01*
X94671380Y-116943142D01*
X94719000Y-116847904D01*
X94766619Y-116800285D01*
X94861857Y-116752666D01*
X95004714Y-116752666D01*
X95099952Y-116800285D01*
X95147571Y-116847904D01*
X95195190Y-116943142D01*
X95195190Y-117324095D01*
X95671380Y-115800285D02*
X95671380Y-116371714D01*
X95671380Y-116086000D02*
X94671380Y-116086000D01*
X94814238Y-116181238D01*
X94909476Y-116276476D01*
X94957095Y-116371714D01*
D10*
%TO.C,C5*%
X112895866Y-86081371D02*
X112872057Y-86105180D01*
X112800628Y-86128990D01*
X112753009Y-86128990D01*
X112681580Y-86105180D01*
X112633961Y-86057561D01*
X112610152Y-86009942D01*
X112586342Y-85914704D01*
X112586342Y-85843276D01*
X112610152Y-85748038D01*
X112633961Y-85700419D01*
X112681580Y-85652800D01*
X112753009Y-85628990D01*
X112800628Y-85628990D01*
X112872057Y-85652800D01*
X112895866Y-85676609D01*
X113348247Y-85628990D02*
X113110152Y-85628990D01*
X113086342Y-85867085D01*
X113110152Y-85843276D01*
X113157771Y-85819466D01*
X113276819Y-85819466D01*
X113324438Y-85843276D01*
X113348247Y-85867085D01*
X113372057Y-85914704D01*
X113372057Y-86033752D01*
X113348247Y-86081371D01*
X113324438Y-86105180D01*
X113276819Y-86128990D01*
X113157771Y-86128990D01*
X113110152Y-86105180D01*
X113086342Y-86081371D01*
%TO.C,C13*%
X117890171Y-86538571D02*
X117866361Y-86562380D01*
X117794933Y-86586190D01*
X117747314Y-86586190D01*
X117675885Y-86562380D01*
X117628266Y-86514761D01*
X117604457Y-86467142D01*
X117580647Y-86371904D01*
X117580647Y-86300476D01*
X117604457Y-86205238D01*
X117628266Y-86157619D01*
X117675885Y-86110000D01*
X117747314Y-86086190D01*
X117794933Y-86086190D01*
X117866361Y-86110000D01*
X117890171Y-86133809D01*
X118366361Y-86586190D02*
X118080647Y-86586190D01*
X118223504Y-86586190D02*
X118223504Y-86086190D01*
X118175885Y-86157619D01*
X118128266Y-86205238D01*
X118080647Y-86229047D01*
X118533028Y-86086190D02*
X118842552Y-86086190D01*
X118675885Y-86276666D01*
X118747314Y-86276666D01*
X118794933Y-86300476D01*
X118818742Y-86324285D01*
X118842552Y-86371904D01*
X118842552Y-86490952D01*
X118818742Y-86538571D01*
X118794933Y-86562380D01*
X118747314Y-86586190D01*
X118604457Y-86586190D01*
X118556838Y-86562380D01*
X118533028Y-86538571D01*
D14*
%TO.C,GPS*%
X99957000Y-89487285D02*
X99909380Y-89582523D01*
X99909380Y-89725380D01*
X99957000Y-89868238D01*
X100052238Y-89963476D01*
X100147476Y-90011095D01*
X100337952Y-90058714D01*
X100480809Y-90058714D01*
X100671285Y-90011095D01*
X100766523Y-89963476D01*
X100861761Y-89868238D01*
X100909380Y-89725380D01*
X100909380Y-89630142D01*
X100861761Y-89487285D01*
X100814142Y-89439666D01*
X100480809Y-89439666D01*
X100480809Y-89630142D01*
X100909380Y-89011095D02*
X99909380Y-89011095D01*
X99909380Y-88630142D01*
X99957000Y-88534904D01*
X100004619Y-88487285D01*
X100099857Y-88439666D01*
X100242714Y-88439666D01*
X100337952Y-88487285D01*
X100385571Y-88534904D01*
X100433190Y-88630142D01*
X100433190Y-89011095D01*
X100861761Y-88058714D02*
X100909380Y-87915857D01*
X100909380Y-87677761D01*
X100861761Y-87582523D01*
X100814142Y-87534904D01*
X100718904Y-87487285D01*
X100623666Y-87487285D01*
X100528428Y-87534904D01*
X100480809Y-87582523D01*
X100433190Y-87677761D01*
X100385571Y-87868238D01*
X100337952Y-87963476D01*
X100290333Y-88011095D01*
X100195095Y-88058714D01*
X100099857Y-88058714D01*
X100004619Y-88011095D01*
X99957000Y-87963476D01*
X99909380Y-87868238D01*
X99909380Y-87630142D01*
X99957000Y-87487285D01*
%TO.C,J1*%
X140448380Y-63396333D02*
X141162666Y-63396333D01*
X141305523Y-63443952D01*
X141400761Y-63539190D01*
X141448380Y-63682047D01*
X141448380Y-63777285D01*
X141448380Y-62396333D02*
X141448380Y-62967761D01*
X141448380Y-62682047D02*
X140448380Y-62682047D01*
X140591238Y-62777285D01*
X140686476Y-62872523D01*
X140734095Y-62967761D01*
D10*
%TO.C,L1*%
X95928666Y-83538190D02*
X95690571Y-83538190D01*
X95690571Y-83038190D01*
X96357238Y-83538190D02*
X96071523Y-83538190D01*
X96214380Y-83538190D02*
X96214380Y-83038190D01*
X96166761Y-83109619D01*
X96119142Y-83157238D01*
X96071523Y-83181047D01*
%TO.C,R11*%
X125854590Y-95165028D02*
X125616495Y-95331695D01*
X125854590Y-95450742D02*
X125354590Y-95450742D01*
X125354590Y-95260266D01*
X125378400Y-95212647D01*
X125402209Y-95188838D01*
X125449828Y-95165028D01*
X125521257Y-95165028D01*
X125568876Y-95188838D01*
X125592685Y-95212647D01*
X125616495Y-95260266D01*
X125616495Y-95450742D01*
X125854590Y-94688838D02*
X125854590Y-94974552D01*
X125854590Y-94831695D02*
X125354590Y-94831695D01*
X125426019Y-94879314D01*
X125473638Y-94926933D01*
X125497447Y-94974552D01*
X125854590Y-94212647D02*
X125854590Y-94498361D01*
X125854590Y-94355504D02*
X125354590Y-94355504D01*
X125426019Y-94403123D01*
X125473638Y-94450742D01*
X125497447Y-94498361D01*
D14*
%TO.C,P5*%
X139390380Y-117705095D02*
X138390380Y-117705095D01*
X138390380Y-117324142D01*
X138438000Y-117228904D01*
X138485619Y-117181285D01*
X138580857Y-117133666D01*
X138723714Y-117133666D01*
X138818952Y-117181285D01*
X138866571Y-117228904D01*
X138914190Y-117324142D01*
X138914190Y-117705095D01*
X138390380Y-116228904D02*
X138390380Y-116705095D01*
X138866571Y-116752714D01*
X138818952Y-116705095D01*
X138771333Y-116609857D01*
X138771333Y-116371761D01*
X138818952Y-116276523D01*
X138866571Y-116228904D01*
X138961809Y-116181285D01*
X139199904Y-116181285D01*
X139295142Y-116228904D01*
X139342761Y-116276523D01*
X139390380Y-116371761D01*
X139390380Y-116609857D01*
X139342761Y-116705095D01*
X139295142Y-116752714D01*
%TO.C,J2*%
X59396380Y-101018933D02*
X60110666Y-101018933D01*
X60253523Y-101066552D01*
X60348761Y-101161790D01*
X60396380Y-101304647D01*
X60396380Y-101399885D01*
X59491619Y-100590361D02*
X59444000Y-100542742D01*
X59396380Y-100447504D01*
X59396380Y-100209409D01*
X59444000Y-100114171D01*
X59491619Y-100066552D01*
X59586857Y-100018933D01*
X59682095Y-100018933D01*
X59824952Y-100066552D01*
X60396380Y-100637980D01*
X60396380Y-100018933D01*
D10*
%TO.C,U6*%
X117785390Y-92328952D02*
X118190152Y-92328952D01*
X118237771Y-92305142D01*
X118261580Y-92281333D01*
X118285390Y-92233714D01*
X118285390Y-92138476D01*
X118261580Y-92090857D01*
X118237771Y-92067047D01*
X118190152Y-92043238D01*
X117785390Y-92043238D01*
X117785390Y-91590857D02*
X117785390Y-91686095D01*
X117809200Y-91733714D01*
X117833009Y-91757523D01*
X117904438Y-91805142D01*
X117999676Y-91828952D01*
X118190152Y-91828952D01*
X118237771Y-91805142D01*
X118261580Y-91781333D01*
X118285390Y-91733714D01*
X118285390Y-91638476D01*
X118261580Y-91590857D01*
X118237771Y-91567047D01*
X118190152Y-91543238D01*
X118071104Y-91543238D01*
X118023485Y-91567047D01*
X117999676Y-91590857D01*
X117975866Y-91638476D01*
X117975866Y-91733714D01*
X117999676Y-91781333D01*
X118023485Y-91805142D01*
X118071104Y-91828952D01*
%TO.C,C9*%
X117874266Y-83185771D02*
X117850457Y-83209580D01*
X117779028Y-83233390D01*
X117731409Y-83233390D01*
X117659980Y-83209580D01*
X117612361Y-83161961D01*
X117588552Y-83114342D01*
X117564742Y-83019104D01*
X117564742Y-82947676D01*
X117588552Y-82852438D01*
X117612361Y-82804819D01*
X117659980Y-82757200D01*
X117731409Y-82733390D01*
X117779028Y-82733390D01*
X117850457Y-82757200D01*
X117874266Y-82781009D01*
X118112361Y-83233390D02*
X118207600Y-83233390D01*
X118255219Y-83209580D01*
X118279028Y-83185771D01*
X118326647Y-83114342D01*
X118350457Y-83019104D01*
X118350457Y-82828628D01*
X118326647Y-82781009D01*
X118302838Y-82757200D01*
X118255219Y-82733390D01*
X118159980Y-82733390D01*
X118112361Y-82757200D01*
X118088552Y-82781009D01*
X118064742Y-82828628D01*
X118064742Y-82947676D01*
X118088552Y-82995295D01*
X118112361Y-83019104D01*
X118159980Y-83042914D01*
X118255219Y-83042914D01*
X118302838Y-83019104D01*
X118326647Y-82995295D01*
X118350457Y-82947676D01*
%TO.C,C17*%
X114130971Y-89637371D02*
X114107161Y-89661180D01*
X114035733Y-89684990D01*
X113988114Y-89684990D01*
X113916685Y-89661180D01*
X113869066Y-89613561D01*
X113845257Y-89565942D01*
X113821447Y-89470704D01*
X113821447Y-89399276D01*
X113845257Y-89304038D01*
X113869066Y-89256419D01*
X113916685Y-89208800D01*
X113988114Y-89184990D01*
X114035733Y-89184990D01*
X114107161Y-89208800D01*
X114130971Y-89232609D01*
X114607161Y-89684990D02*
X114321447Y-89684990D01*
X114464304Y-89684990D02*
X114464304Y-89184990D01*
X114416685Y-89256419D01*
X114369066Y-89304038D01*
X114321447Y-89327847D01*
X114773828Y-89184990D02*
X115107161Y-89184990D01*
X114892876Y-89684990D01*
%TO.C,R10*%
X121039771Y-97406590D02*
X120873104Y-97168495D01*
X120754057Y-97406590D02*
X120754057Y-96906590D01*
X120944533Y-96906590D01*
X120992152Y-96930400D01*
X121015961Y-96954209D01*
X121039771Y-97001828D01*
X121039771Y-97073257D01*
X121015961Y-97120876D01*
X120992152Y-97144685D01*
X120944533Y-97168495D01*
X120754057Y-97168495D01*
X121515961Y-97406590D02*
X121230247Y-97406590D01*
X121373104Y-97406590D02*
X121373104Y-96906590D01*
X121325485Y-96978019D01*
X121277866Y-97025638D01*
X121230247Y-97049447D01*
X121825485Y-96906590D02*
X121873104Y-96906590D01*
X121920723Y-96930400D01*
X121944533Y-96954209D01*
X121968342Y-97001828D01*
X121992152Y-97097066D01*
X121992152Y-97216114D01*
X121968342Y-97311352D01*
X121944533Y-97358971D01*
X121920723Y-97382780D01*
X121873104Y-97406590D01*
X121825485Y-97406590D01*
X121777866Y-97382780D01*
X121754057Y-97358971D01*
X121730247Y-97311352D01*
X121706438Y-97216114D01*
X121706438Y-97097066D01*
X121730247Y-97001828D01*
X121754057Y-96954209D01*
X121777866Y-96930400D01*
X121825485Y-96906590D01*
%TO.C,C6*%
X122911371Y-108439733D02*
X122935180Y-108463542D01*
X122958990Y-108534971D01*
X122958990Y-108582590D01*
X122935180Y-108654019D01*
X122887561Y-108701638D01*
X122839942Y-108725447D01*
X122744704Y-108749257D01*
X122673276Y-108749257D01*
X122578038Y-108725447D01*
X122530419Y-108701638D01*
X122482800Y-108654019D01*
X122458990Y-108582590D01*
X122458990Y-108534971D01*
X122482800Y-108463542D01*
X122506609Y-108439733D01*
X122458990Y-108011161D02*
X122458990Y-108106400D01*
X122482800Y-108154019D01*
X122506609Y-108177828D01*
X122578038Y-108225447D01*
X122673276Y-108249257D01*
X122863752Y-108249257D01*
X122911371Y-108225447D01*
X122935180Y-108201638D01*
X122958990Y-108154019D01*
X122958990Y-108058780D01*
X122935180Y-108011161D01*
X122911371Y-107987352D01*
X122863752Y-107963542D01*
X122744704Y-107963542D01*
X122697085Y-107987352D01*
X122673276Y-108011161D01*
X122649466Y-108058780D01*
X122649466Y-108154019D01*
X122673276Y-108201638D01*
X122697085Y-108225447D01*
X122744704Y-108249257D01*
%TO.C,R13*%
X127073790Y-95165028D02*
X126835695Y-95331695D01*
X127073790Y-95450742D02*
X126573790Y-95450742D01*
X126573790Y-95260266D01*
X126597600Y-95212647D01*
X126621409Y-95188838D01*
X126669028Y-95165028D01*
X126740457Y-95165028D01*
X126788076Y-95188838D01*
X126811885Y-95212647D01*
X126835695Y-95260266D01*
X126835695Y-95450742D01*
X127073790Y-94688838D02*
X127073790Y-94974552D01*
X127073790Y-94831695D02*
X126573790Y-94831695D01*
X126645219Y-94879314D01*
X126692838Y-94926933D01*
X126716647Y-94974552D01*
X126573790Y-94522171D02*
X126573790Y-94212647D01*
X126764266Y-94379314D01*
X126764266Y-94307885D01*
X126788076Y-94260266D01*
X126811885Y-94236457D01*
X126859504Y-94212647D01*
X126978552Y-94212647D01*
X127026171Y-94236457D01*
X127049980Y-94260266D01*
X127073790Y-94307885D01*
X127073790Y-94450742D01*
X127049980Y-94498361D01*
X127026171Y-94522171D01*
%TO.C,C1*%
X126408666Y-88773771D02*
X126384857Y-88797580D01*
X126313428Y-88821390D01*
X126265809Y-88821390D01*
X126194380Y-88797580D01*
X126146761Y-88749961D01*
X126122952Y-88702342D01*
X126099142Y-88607104D01*
X126099142Y-88535676D01*
X126122952Y-88440438D01*
X126146761Y-88392819D01*
X126194380Y-88345200D01*
X126265809Y-88321390D01*
X126313428Y-88321390D01*
X126384857Y-88345200D01*
X126408666Y-88369009D01*
X126884857Y-88821390D02*
X126599142Y-88821390D01*
X126742000Y-88821390D02*
X126742000Y-88321390D01*
X126694380Y-88392819D01*
X126646761Y-88440438D01*
X126599142Y-88464247D01*
%TO.C,C12*%
X117890171Y-85420971D02*
X117866361Y-85444780D01*
X117794933Y-85468590D01*
X117747314Y-85468590D01*
X117675885Y-85444780D01*
X117628266Y-85397161D01*
X117604457Y-85349542D01*
X117580647Y-85254304D01*
X117580647Y-85182876D01*
X117604457Y-85087638D01*
X117628266Y-85040019D01*
X117675885Y-84992400D01*
X117747314Y-84968590D01*
X117794933Y-84968590D01*
X117866361Y-84992400D01*
X117890171Y-85016209D01*
X118366361Y-85468590D02*
X118080647Y-85468590D01*
X118223504Y-85468590D02*
X118223504Y-84968590D01*
X118175885Y-85040019D01*
X118128266Y-85087638D01*
X118080647Y-85111447D01*
X118556838Y-85016209D02*
X118580647Y-84992400D01*
X118628266Y-84968590D01*
X118747314Y-84968590D01*
X118794933Y-84992400D01*
X118818742Y-85016209D01*
X118842552Y-85063828D01*
X118842552Y-85111447D01*
X118818742Y-85182876D01*
X118533028Y-85468590D01*
X118842552Y-85468590D01*
D14*
%TO.C,J4*%
X89836666Y-84542380D02*
X89836666Y-85256666D01*
X89789047Y-85399523D01*
X89693809Y-85494761D01*
X89550952Y-85542380D01*
X89455714Y-85542380D01*
X90741428Y-84875714D02*
X90741428Y-85542380D01*
X90503333Y-84494761D02*
X90265238Y-85209047D01*
X90884285Y-85209047D01*
D10*
%TO.C,C3*%
X104920266Y-85979771D02*
X104896457Y-86003580D01*
X104825028Y-86027390D01*
X104777409Y-86027390D01*
X104705980Y-86003580D01*
X104658361Y-85955961D01*
X104634552Y-85908342D01*
X104610742Y-85813104D01*
X104610742Y-85741676D01*
X104634552Y-85646438D01*
X104658361Y-85598819D01*
X104705980Y-85551200D01*
X104777409Y-85527390D01*
X104825028Y-85527390D01*
X104896457Y-85551200D01*
X104920266Y-85575009D01*
X105086933Y-85527390D02*
X105396457Y-85527390D01*
X105229790Y-85717866D01*
X105301219Y-85717866D01*
X105348838Y-85741676D01*
X105372647Y-85765485D01*
X105396457Y-85813104D01*
X105396457Y-85932152D01*
X105372647Y-85979771D01*
X105348838Y-86003580D01*
X105301219Y-86027390D01*
X105158361Y-86027390D01*
X105110742Y-86003580D01*
X105086933Y-85979771D01*
%TO.C,R2*%
X102588190Y-91116933D02*
X102350095Y-91283600D01*
X102588190Y-91402647D02*
X102088190Y-91402647D01*
X102088190Y-91212171D01*
X102112000Y-91164552D01*
X102135809Y-91140742D01*
X102183428Y-91116933D01*
X102254857Y-91116933D01*
X102302476Y-91140742D01*
X102326285Y-91164552D01*
X102350095Y-91212171D01*
X102350095Y-91402647D01*
X102135809Y-90926457D02*
X102112000Y-90902647D01*
X102088190Y-90855028D01*
X102088190Y-90735980D01*
X102112000Y-90688361D01*
X102135809Y-90664552D01*
X102183428Y-90640742D01*
X102231047Y-90640742D01*
X102302476Y-90664552D01*
X102588190Y-90950266D01*
X102588190Y-90640742D01*
D14*
%TO.C,H2*%
X240138095Y-146452380D02*
X240138095Y-145452380D01*
X240138095Y-145928571D02*
X240709523Y-145928571D01*
X240709523Y-146452380D02*
X240709523Y-145452380D01*
X241138095Y-145547619D02*
X241185714Y-145500000D01*
X241280952Y-145452380D01*
X241519047Y-145452380D01*
X241614285Y-145500000D01*
X241661904Y-145547619D01*
X241709523Y-145642857D01*
X241709523Y-145738095D01*
X241661904Y-145880952D01*
X241090476Y-146452380D01*
X241709523Y-146452380D01*
D10*
%TO.C,C10*%
X109957371Y-99330628D02*
X109981180Y-99354438D01*
X110004990Y-99425866D01*
X110004990Y-99473485D01*
X109981180Y-99544914D01*
X109933561Y-99592533D01*
X109885942Y-99616342D01*
X109790704Y-99640152D01*
X109719276Y-99640152D01*
X109624038Y-99616342D01*
X109576419Y-99592533D01*
X109528800Y-99544914D01*
X109504990Y-99473485D01*
X109504990Y-99425866D01*
X109528800Y-99354438D01*
X109552609Y-99330628D01*
X110004990Y-98854438D02*
X110004990Y-99140152D01*
X110004990Y-98997295D02*
X109504990Y-98997295D01*
X109576419Y-99044914D01*
X109624038Y-99092533D01*
X109647847Y-99140152D01*
X109504990Y-98544914D02*
X109504990Y-98497295D01*
X109528800Y-98449676D01*
X109552609Y-98425866D01*
X109600228Y-98402057D01*
X109695466Y-98378247D01*
X109814514Y-98378247D01*
X109909752Y-98402057D01*
X109957371Y-98425866D01*
X109981180Y-98449676D01*
X110004990Y-98497295D01*
X110004990Y-98544914D01*
X109981180Y-98592533D01*
X109957371Y-98616342D01*
X109909752Y-98640152D01*
X109814514Y-98663961D01*
X109695466Y-98663961D01*
X109600228Y-98640152D01*
X109552609Y-98616342D01*
X109528800Y-98592533D01*
X109504990Y-98544914D01*
D14*
%TO.C,J3*%
X133564380Y-95329333D02*
X134278666Y-95329333D01*
X134421523Y-95376952D01*
X134516761Y-95472190D01*
X134564380Y-95615047D01*
X134564380Y-95710285D01*
X133564380Y-94948380D02*
X133564380Y-94329333D01*
X133945333Y-94662666D01*
X133945333Y-94519809D01*
X133992952Y-94424571D01*
X134040571Y-94376952D01*
X134135809Y-94329333D01*
X134373904Y-94329333D01*
X134469142Y-94376952D01*
X134516761Y-94424571D01*
X134564380Y-94519809D01*
X134564380Y-94805523D01*
X134516761Y-94900761D01*
X134469142Y-94948380D01*
%TO.C,P2*%
X106370380Y-117578095D02*
X105370380Y-117578095D01*
X105370380Y-117197142D01*
X105418000Y-117101904D01*
X105465619Y-117054285D01*
X105560857Y-117006666D01*
X105703714Y-117006666D01*
X105798952Y-117054285D01*
X105846571Y-117101904D01*
X105894190Y-117197142D01*
X105894190Y-117578095D01*
X105465619Y-116625714D02*
X105418000Y-116578095D01*
X105370380Y-116482857D01*
X105370380Y-116244761D01*
X105418000Y-116149523D01*
X105465619Y-116101904D01*
X105560857Y-116054285D01*
X105656095Y-116054285D01*
X105798952Y-116101904D01*
X106370380Y-116673333D01*
X106370380Y-116054285D01*
D10*
%TO.C,C4*%
X110566971Y-89034133D02*
X110590780Y-89057942D01*
X110614590Y-89129371D01*
X110614590Y-89176990D01*
X110590780Y-89248419D01*
X110543161Y-89296038D01*
X110495542Y-89319847D01*
X110400304Y-89343657D01*
X110328876Y-89343657D01*
X110233638Y-89319847D01*
X110186019Y-89296038D01*
X110138400Y-89248419D01*
X110114590Y-89176990D01*
X110114590Y-89129371D01*
X110138400Y-89057942D01*
X110162209Y-89034133D01*
X110281257Y-88605561D02*
X110614590Y-88605561D01*
X110090780Y-88724609D02*
X110447923Y-88843657D01*
X110447923Y-88534133D01*
%TO.C,C15*%
X114181771Y-87808571D02*
X114157961Y-87832380D01*
X114086533Y-87856190D01*
X114038914Y-87856190D01*
X113967485Y-87832380D01*
X113919866Y-87784761D01*
X113896057Y-87737142D01*
X113872247Y-87641904D01*
X113872247Y-87570476D01*
X113896057Y-87475238D01*
X113919866Y-87427619D01*
X113967485Y-87380000D01*
X114038914Y-87356190D01*
X114086533Y-87356190D01*
X114157961Y-87380000D01*
X114181771Y-87403809D01*
X114657961Y-87856190D02*
X114372247Y-87856190D01*
X114515104Y-87856190D02*
X114515104Y-87356190D01*
X114467485Y-87427619D01*
X114419866Y-87475238D01*
X114372247Y-87499047D01*
X115110342Y-87356190D02*
X114872247Y-87356190D01*
X114848438Y-87594285D01*
X114872247Y-87570476D01*
X114919866Y-87546666D01*
X115038914Y-87546666D01*
X115086533Y-87570476D01*
X115110342Y-87594285D01*
X115134152Y-87641904D01*
X115134152Y-87760952D01*
X115110342Y-87808571D01*
X115086533Y-87832380D01*
X115038914Y-87856190D01*
X114919866Y-87856190D01*
X114872247Y-87832380D01*
X114848438Y-87808571D01*
%TO.C,C18*%
X95639771Y-91567771D02*
X95615961Y-91591580D01*
X95544533Y-91615390D01*
X95496914Y-91615390D01*
X95425485Y-91591580D01*
X95377866Y-91543961D01*
X95354057Y-91496342D01*
X95330247Y-91401104D01*
X95330247Y-91329676D01*
X95354057Y-91234438D01*
X95377866Y-91186819D01*
X95425485Y-91139200D01*
X95496914Y-91115390D01*
X95544533Y-91115390D01*
X95615961Y-91139200D01*
X95639771Y-91163009D01*
X96115961Y-91615390D02*
X95830247Y-91615390D01*
X95973104Y-91615390D02*
X95973104Y-91115390D01*
X95925485Y-91186819D01*
X95877866Y-91234438D01*
X95830247Y-91258247D01*
X96401676Y-91329676D02*
X96354057Y-91305866D01*
X96330247Y-91282057D01*
X96306438Y-91234438D01*
X96306438Y-91210628D01*
X96330247Y-91163009D01*
X96354057Y-91139200D01*
X96401676Y-91115390D01*
X96496914Y-91115390D01*
X96544533Y-91139200D01*
X96568342Y-91163009D01*
X96592152Y-91210628D01*
X96592152Y-91234438D01*
X96568342Y-91282057D01*
X96544533Y-91305866D01*
X96496914Y-91329676D01*
X96401676Y-91329676D01*
X96354057Y-91353485D01*
X96330247Y-91377295D01*
X96306438Y-91424914D01*
X96306438Y-91520152D01*
X96330247Y-91567771D01*
X96354057Y-91591580D01*
X96401676Y-91615390D01*
X96496914Y-91615390D01*
X96544533Y-91591580D01*
X96568342Y-91567771D01*
X96592152Y-91520152D01*
X96592152Y-91424914D01*
X96568342Y-91377295D01*
X96544533Y-91353485D01*
X96496914Y-91329676D01*
%TO.C,R7*%
X125011666Y-86078190D02*
X124845000Y-85840095D01*
X124725952Y-86078190D02*
X124725952Y-85578190D01*
X124916428Y-85578190D01*
X124964047Y-85602000D01*
X124987857Y-85625809D01*
X125011666Y-85673428D01*
X125011666Y-85744857D01*
X124987857Y-85792476D01*
X124964047Y-85816285D01*
X124916428Y-85840095D01*
X124725952Y-85840095D01*
X125178333Y-85578190D02*
X125511666Y-85578190D01*
X125297380Y-86078190D01*
%TO.C,C14*%
X112403771Y-83592171D02*
X112379961Y-83615980D01*
X112308533Y-83639790D01*
X112260914Y-83639790D01*
X112189485Y-83615980D01*
X112141866Y-83568361D01*
X112118057Y-83520742D01*
X112094247Y-83425504D01*
X112094247Y-83354076D01*
X112118057Y-83258838D01*
X112141866Y-83211219D01*
X112189485Y-83163600D01*
X112260914Y-83139790D01*
X112308533Y-83139790D01*
X112379961Y-83163600D01*
X112403771Y-83187409D01*
X112879961Y-83639790D02*
X112594247Y-83639790D01*
X112737104Y-83639790D02*
X112737104Y-83139790D01*
X112689485Y-83211219D01*
X112641866Y-83258838D01*
X112594247Y-83282647D01*
X113308533Y-83306457D02*
X113308533Y-83639790D01*
X113189485Y-83115980D02*
X113070438Y-83473123D01*
X113379961Y-83473123D01*
%TO.C,C21*%
X117460571Y-90440628D02*
X117484380Y-90464438D01*
X117508190Y-90535866D01*
X117508190Y-90583485D01*
X117484380Y-90654914D01*
X117436761Y-90702533D01*
X117389142Y-90726342D01*
X117293904Y-90750152D01*
X117222476Y-90750152D01*
X117127238Y-90726342D01*
X117079619Y-90702533D01*
X117032000Y-90654914D01*
X117008190Y-90583485D01*
X117008190Y-90535866D01*
X117032000Y-90464438D01*
X117055809Y-90440628D01*
X117055809Y-90250152D02*
X117032000Y-90226342D01*
X117008190Y-90178723D01*
X117008190Y-90059676D01*
X117032000Y-90012057D01*
X117055809Y-89988247D01*
X117103428Y-89964438D01*
X117151047Y-89964438D01*
X117222476Y-89988247D01*
X117508190Y-90273961D01*
X117508190Y-89964438D01*
X117508190Y-89488247D02*
X117508190Y-89773961D01*
X117508190Y-89631104D02*
X117008190Y-89631104D01*
X117079619Y-89678723D01*
X117127238Y-89726342D01*
X117151047Y-89773961D01*
D14*
%TO.C,STATUS*%
X120542266Y-88878533D02*
X120642266Y-88911866D01*
X120808933Y-88911866D01*
X120875600Y-88878533D01*
X120908933Y-88845200D01*
X120942266Y-88778533D01*
X120942266Y-88711866D01*
X120908933Y-88645200D01*
X120875600Y-88611866D01*
X120808933Y-88578533D01*
X120675600Y-88545200D01*
X120608933Y-88511866D01*
X120575600Y-88478533D01*
X120542266Y-88411866D01*
X120542266Y-88345200D01*
X120575600Y-88278533D01*
X120608933Y-88245200D01*
X120675600Y-88211866D01*
X120842266Y-88211866D01*
X120942266Y-88245200D01*
X121142266Y-88211866D02*
X121542266Y-88211866D01*
X121342266Y-88911866D02*
X121342266Y-88211866D01*
X121742266Y-88711866D02*
X122075600Y-88711866D01*
X121675600Y-88911866D02*
X121908933Y-88211866D01*
X122142266Y-88911866D01*
X122275600Y-88211866D02*
X122675600Y-88211866D01*
X122475600Y-88911866D02*
X122475600Y-88211866D01*
X122908933Y-88211866D02*
X122908933Y-88778533D01*
X122942266Y-88845200D01*
X122975600Y-88878533D01*
X123042266Y-88911866D01*
X123175600Y-88911866D01*
X123242266Y-88878533D01*
X123275600Y-88845200D01*
X123308933Y-88778533D01*
X123308933Y-88211866D01*
X123608933Y-88878533D02*
X123708933Y-88911866D01*
X123875600Y-88911866D01*
X123942266Y-88878533D01*
X123975600Y-88845200D01*
X124008933Y-88778533D01*
X124008933Y-88711866D01*
X123975600Y-88645200D01*
X123942266Y-88611866D01*
X123875600Y-88578533D01*
X123742266Y-88545200D01*
X123675600Y-88511866D01*
X123642266Y-88478533D01*
X123608933Y-88411866D01*
X123608933Y-88345200D01*
X123642266Y-88278533D01*
X123675600Y-88245200D01*
X123742266Y-88211866D01*
X123908933Y-88211866D01*
X124008933Y-88245200D01*
D10*
%TO.C,C2*%
X111524266Y-86081371D02*
X111500457Y-86105180D01*
X111429028Y-86128990D01*
X111381409Y-86128990D01*
X111309980Y-86105180D01*
X111262361Y-86057561D01*
X111238552Y-86009942D01*
X111214742Y-85914704D01*
X111214742Y-85843276D01*
X111238552Y-85748038D01*
X111262361Y-85700419D01*
X111309980Y-85652800D01*
X111381409Y-85628990D01*
X111429028Y-85628990D01*
X111500457Y-85652800D01*
X111524266Y-85676609D01*
X111714742Y-85676609D02*
X111738552Y-85652800D01*
X111786171Y-85628990D01*
X111905219Y-85628990D01*
X111952838Y-85652800D01*
X111976647Y-85676609D01*
X112000457Y-85724228D01*
X112000457Y-85771847D01*
X111976647Y-85843276D01*
X111690933Y-86128990D01*
X112000457Y-86128990D01*
%TO.C,C7*%
X121539771Y-105442533D02*
X121563580Y-105466342D01*
X121587390Y-105537771D01*
X121587390Y-105585390D01*
X121563580Y-105656819D01*
X121515961Y-105704438D01*
X121468342Y-105728247D01*
X121373104Y-105752057D01*
X121301676Y-105752057D01*
X121206438Y-105728247D01*
X121158819Y-105704438D01*
X121111200Y-105656819D01*
X121087390Y-105585390D01*
X121087390Y-105537771D01*
X121111200Y-105466342D01*
X121135009Y-105442533D01*
X121087390Y-105275866D02*
X121087390Y-104942533D01*
X121587390Y-105156819D01*
D14*
%TO.C,J5*%
X140702380Y-67333333D02*
X141416666Y-67333333D01*
X141559523Y-67380952D01*
X141654761Y-67476190D01*
X141702380Y-67619047D01*
X141702380Y-67714285D01*
X140702380Y-66380952D02*
X140702380Y-66857142D01*
X141178571Y-66904761D01*
X141130952Y-66857142D01*
X141083333Y-66761904D01*
X141083333Y-66523809D01*
X141130952Y-66428571D01*
X141178571Y-66380952D01*
X141273809Y-66333333D01*
X141511904Y-66333333D01*
X141607142Y-66380952D01*
X141654761Y-66428571D01*
X141702380Y-66523809D01*
X141702380Y-66761904D01*
X141654761Y-66857142D01*
X141607142Y-66904761D01*
%TO.C,U4*%
X93813380Y-100837904D02*
X94622904Y-100837904D01*
X94718142Y-100790285D01*
X94765761Y-100742666D01*
X94813380Y-100647428D01*
X94813380Y-100456952D01*
X94765761Y-100361714D01*
X94718142Y-100314095D01*
X94622904Y-100266476D01*
X93813380Y-100266476D01*
X94146714Y-99361714D02*
X94813380Y-99361714D01*
X93765761Y-99599809D02*
X94480047Y-99837904D01*
X94480047Y-99218857D01*
D10*
%TO.C,C20*%
X119609371Y-88154628D02*
X119633180Y-88178438D01*
X119656990Y-88249866D01*
X119656990Y-88297485D01*
X119633180Y-88368914D01*
X119585561Y-88416533D01*
X119537942Y-88440342D01*
X119442704Y-88464152D01*
X119371276Y-88464152D01*
X119276038Y-88440342D01*
X119228419Y-88416533D01*
X119180800Y-88368914D01*
X119156990Y-88297485D01*
X119156990Y-88249866D01*
X119180800Y-88178438D01*
X119204609Y-88154628D01*
X119204609Y-87964152D02*
X119180800Y-87940342D01*
X119156990Y-87892723D01*
X119156990Y-87773676D01*
X119180800Y-87726057D01*
X119204609Y-87702247D01*
X119252228Y-87678438D01*
X119299847Y-87678438D01*
X119371276Y-87702247D01*
X119656990Y-87987961D01*
X119656990Y-87678438D01*
X119156990Y-87368914D02*
X119156990Y-87321295D01*
X119180800Y-87273676D01*
X119204609Y-87249866D01*
X119252228Y-87226057D01*
X119347466Y-87202247D01*
X119466514Y-87202247D01*
X119561752Y-87226057D01*
X119609371Y-87249866D01*
X119633180Y-87273676D01*
X119656990Y-87321295D01*
X119656990Y-87368914D01*
X119633180Y-87416533D01*
X119609371Y-87440342D01*
X119561752Y-87464152D01*
X119466514Y-87487961D01*
X119347466Y-87487961D01*
X119252228Y-87464152D01*
X119204609Y-87440342D01*
X119180800Y-87416533D01*
X119156990Y-87368914D01*
D14*
%TO.C,P3*%
X117292380Y-117451095D02*
X116292380Y-117451095D01*
X116292380Y-117070142D01*
X116340000Y-116974904D01*
X116387619Y-116927285D01*
X116482857Y-116879666D01*
X116625714Y-116879666D01*
X116720952Y-116927285D01*
X116768571Y-116974904D01*
X116816190Y-117070142D01*
X116816190Y-117451095D01*
X116292380Y-116546333D02*
X116292380Y-115927285D01*
X116673333Y-116260619D01*
X116673333Y-116117761D01*
X116720952Y-116022523D01*
X116768571Y-115974904D01*
X116863809Y-115927285D01*
X117101904Y-115927285D01*
X117197142Y-115974904D01*
X117244761Y-116022523D01*
X117292380Y-116117761D01*
X117292380Y-116403476D01*
X117244761Y-116498714D01*
X117197142Y-116546333D01*
D10*
%TO.C,C11*%
X117890171Y-84303371D02*
X117866361Y-84327180D01*
X117794933Y-84350990D01*
X117747314Y-84350990D01*
X117675885Y-84327180D01*
X117628266Y-84279561D01*
X117604457Y-84231942D01*
X117580647Y-84136704D01*
X117580647Y-84065276D01*
X117604457Y-83970038D01*
X117628266Y-83922419D01*
X117675885Y-83874800D01*
X117747314Y-83850990D01*
X117794933Y-83850990D01*
X117866361Y-83874800D01*
X117890171Y-83898609D01*
X118366361Y-84350990D02*
X118080647Y-84350990D01*
X118223504Y-84350990D02*
X118223504Y-83850990D01*
X118175885Y-83922419D01*
X118128266Y-83970038D01*
X118080647Y-83993847D01*
X118842552Y-84350990D02*
X118556838Y-84350990D01*
X118699695Y-84350990D02*
X118699695Y-83850990D01*
X118652076Y-83922419D01*
X118604457Y-83970038D01*
X118556838Y-83993847D01*
%TO.C,G\u002A\u002A\u002A*%
G36*
X99727899Y-83124874D02*
G01*
X99727899Y-83188908D01*
X99733188Y-83234263D01*
X99758136Y-83250980D01*
X99791933Y-83252941D01*
X99855967Y-83252941D01*
X99855967Y-83637143D01*
X99791933Y-83637143D01*
X99746578Y-83642432D01*
X99729861Y-83667380D01*
X99727899Y-83701177D01*
X99727899Y-83765210D01*
X99343698Y-83765210D01*
X99343698Y-84277479D01*
X99023530Y-84277479D01*
X99023530Y-83637143D01*
X99343698Y-83637143D01*
X99535799Y-83637143D01*
X99535799Y-83252941D01*
X99343698Y-83252941D01*
X99343698Y-83637143D01*
X99023530Y-83637143D01*
X99023530Y-83124874D01*
X99727899Y-83124874D01*
G37*
G36*
X100688404Y-84149412D02*
G01*
X100944538Y-84149412D01*
X100944538Y-84277479D01*
X100112101Y-84277479D01*
X100112101Y-84149412D01*
X100368236Y-84149412D01*
X100368236Y-83509076D01*
X100112101Y-83509076D01*
X100112101Y-83381009D01*
X100688404Y-83381009D01*
X100688404Y-84149412D01*
G37*
G36*
X101905042Y-83445042D02*
G01*
X101910331Y-83490397D01*
X101935279Y-83507114D01*
X101969076Y-83509076D01*
X102014431Y-83514365D01*
X102031148Y-83539313D01*
X102033110Y-83573109D01*
X102033110Y-83637143D01*
X101712941Y-83637143D01*
X101712941Y-83573109D01*
X101710157Y-83533734D01*
X101694081Y-83515085D01*
X101653127Y-83509438D01*
X101616891Y-83509076D01*
X101520841Y-83509076D01*
X101520841Y-84149412D01*
X101616891Y-84149412D01*
X101675954Y-84147556D01*
X101703928Y-84136838D01*
X101712398Y-84109536D01*
X101712941Y-84085378D01*
X101712941Y-84021345D01*
X102033110Y-84021345D01*
X102033110Y-84085378D01*
X102027821Y-84130733D01*
X102002873Y-84147450D01*
X101969076Y-84149412D01*
X101923721Y-84154701D01*
X101907004Y-84179649D01*
X101905042Y-84213446D01*
X101905042Y-84277479D01*
X101328740Y-84277479D01*
X101328740Y-84213446D01*
X101323451Y-84168091D01*
X101298503Y-84151374D01*
X101264706Y-84149412D01*
X101200673Y-84149412D01*
X101200673Y-83509076D01*
X101264706Y-83509076D01*
X101310061Y-83503787D01*
X101326778Y-83478839D01*
X101328740Y-83445042D01*
X101328740Y-83381009D01*
X101905042Y-83381009D01*
X101905042Y-83445042D01*
G37*
G36*
X102289244Y-83509076D02*
G01*
X102353278Y-83509076D01*
X102398633Y-83503787D01*
X102415350Y-83478839D01*
X102417311Y-83445042D01*
X102417311Y-83381009D01*
X102993614Y-83381009D01*
X102993614Y-83445042D01*
X102998903Y-83490397D01*
X103023851Y-83507114D01*
X103057647Y-83509076D01*
X103121681Y-83509076D01*
X103121681Y-84149412D01*
X103057647Y-84149412D01*
X103012292Y-84154701D01*
X102995575Y-84179649D01*
X102993614Y-84213446D01*
X102993614Y-84277479D01*
X102417311Y-84277479D01*
X102417311Y-84213446D01*
X102412022Y-84168091D01*
X102387074Y-84151374D01*
X102353278Y-84149412D01*
X102609412Y-84149412D01*
X102801513Y-84149412D01*
X102801513Y-83509076D01*
X102609412Y-83509076D01*
X102609412Y-84149412D01*
X102353278Y-84149412D01*
X102289244Y-84149412D01*
X102289244Y-83509076D01*
G37*
G36*
X104082185Y-83124874D02*
G01*
X104082185Y-83188908D01*
X104087474Y-83234263D01*
X104112422Y-83250980D01*
X104146219Y-83252941D01*
X104210252Y-83252941D01*
X104210252Y-83637143D01*
X104146219Y-83637143D01*
X104100864Y-83642432D01*
X104084147Y-83667380D01*
X104082185Y-83701177D01*
X104082185Y-83765210D01*
X103697983Y-83765210D01*
X103697983Y-84277479D01*
X103377815Y-84277479D01*
X103377815Y-83637143D01*
X103697983Y-83637143D01*
X103890084Y-83637143D01*
X103890084Y-83252941D01*
X103697983Y-83252941D01*
X103697983Y-83637143D01*
X103377815Y-83637143D01*
X103377815Y-83124874D01*
X104082185Y-83124874D01*
G37*
G36*
X105042689Y-84149412D02*
G01*
X105298824Y-84149412D01*
X105298824Y-84277479D01*
X104466387Y-84277479D01*
X104466387Y-84149412D01*
X104722521Y-84149412D01*
X104722521Y-83509076D01*
X104466387Y-83509076D01*
X104466387Y-83381009D01*
X105042689Y-83381009D01*
X105042689Y-84149412D01*
G37*
G36*
X106131261Y-84149412D02*
G01*
X106387395Y-84149412D01*
X106387395Y-84277479D01*
X105554958Y-84277479D01*
X105554958Y-84149412D01*
X105811093Y-84149412D01*
X105811093Y-83252941D01*
X105554958Y-83252941D01*
X105554958Y-83124874D01*
X106131261Y-83124874D01*
X106131261Y-84149412D01*
G37*
G36*
X106643530Y-83509076D02*
G01*
X106707563Y-83509076D01*
X106752918Y-83503787D01*
X106769635Y-83478839D01*
X106771597Y-83445042D01*
X106771597Y-83381009D01*
X107347899Y-83381009D01*
X107347899Y-83445042D01*
X107353188Y-83490397D01*
X107378136Y-83507114D01*
X107411933Y-83509076D01*
X107475967Y-83509076D01*
X107475967Y-84149412D01*
X107411933Y-84149412D01*
X107366578Y-84154701D01*
X107349861Y-84179649D01*
X107347899Y-84213446D01*
X107347899Y-84277479D01*
X106771597Y-84277479D01*
X106771597Y-84213446D01*
X106766308Y-84168091D01*
X106741360Y-84151374D01*
X106707563Y-84149412D01*
X106963698Y-84149412D01*
X107155799Y-84149412D01*
X107155799Y-83509076D01*
X106963698Y-83509076D01*
X106963698Y-84149412D01*
X106707563Y-84149412D01*
X106643530Y-84149412D01*
X106643530Y-83509076D01*
G37*
G36*
X108180336Y-83381009D02*
G01*
X108564538Y-83381009D01*
X108564538Y-83509076D01*
X108180336Y-83509076D01*
X108180336Y-84149412D01*
X108564538Y-84149412D01*
X108564538Y-84277479D01*
X107988236Y-84277479D01*
X107988236Y-84213446D01*
X107982947Y-84168091D01*
X107957999Y-84151374D01*
X107924202Y-84149412D01*
X107860168Y-84149412D01*
X107860168Y-83509076D01*
X107796135Y-83509076D01*
X107750780Y-83503787D01*
X107734063Y-83478839D01*
X107732101Y-83445042D01*
X107737390Y-83399687D01*
X107762338Y-83382970D01*
X107796135Y-83381009D01*
X107860168Y-83381009D01*
X107860168Y-83124874D01*
X108180336Y-83124874D01*
X108180336Y-83381009D01*
G37*
G36*
X110613614Y-83188908D02*
G01*
X110618903Y-83234263D01*
X110643851Y-83250980D01*
X110677647Y-83252941D01*
X110741681Y-83252941D01*
X110741681Y-83637143D01*
X110677647Y-83637143D01*
X110632292Y-83642432D01*
X110615575Y-83667380D01*
X110613614Y-83701177D01*
X110618903Y-83746532D01*
X110643851Y-83763249D01*
X110677647Y-83765210D01*
X110741681Y-83765210D01*
X110741681Y-84149412D01*
X110677647Y-84149412D01*
X110632292Y-84154701D01*
X110615575Y-84179649D01*
X110613614Y-84213446D01*
X110613614Y-84277479D01*
X110037311Y-84277479D01*
X110037311Y-84213446D01*
X110032022Y-84168091D01*
X110007074Y-84151374D01*
X109973278Y-84149412D01*
X109909244Y-84149412D01*
X109909244Y-83893277D01*
X110229412Y-83893277D01*
X110229412Y-84149412D01*
X110421513Y-84149412D01*
X110421513Y-83765210D01*
X110165378Y-83765210D01*
X110165378Y-83637143D01*
X110421513Y-83637143D01*
X110421513Y-83252941D01*
X110229412Y-83252941D01*
X110229412Y-83509076D01*
X109909244Y-83509076D01*
X109909244Y-83252941D01*
X109973278Y-83252941D01*
X110018633Y-83247652D01*
X110035350Y-83222704D01*
X110037311Y-83188908D01*
X110037311Y-83124874D01*
X110613614Y-83124874D01*
X110613614Y-83188908D01*
G37*
G36*
X100688404Y-83252941D02*
G01*
X100368236Y-83252941D01*
X100368236Y-82996807D01*
X100688404Y-82996807D01*
X100688404Y-83252941D01*
G37*
G36*
X105042689Y-83252941D02*
G01*
X104722521Y-83252941D01*
X104722521Y-82996807D01*
X105042689Y-82996807D01*
X105042689Y-83252941D01*
G37*
G36*
X120325405Y-86148578D02*
G01*
X120325825Y-86111435D01*
X120326745Y-86077019D01*
X120328166Y-86047029D01*
X120330088Y-86023164D01*
X120330640Y-86018412D01*
X120340655Y-85954486D01*
X120354206Y-85892474D01*
X120370821Y-85834146D01*
X120390030Y-85781270D01*
X120399612Y-85759257D01*
X120415757Y-85727163D01*
X120434487Y-85695670D01*
X120456984Y-85662968D01*
X120484430Y-85627243D01*
X120491224Y-85618829D01*
X120530399Y-85568462D01*
X120563589Y-85520753D01*
X120591844Y-85474032D01*
X120616213Y-85426630D01*
X120626844Y-85403129D01*
X120637412Y-85377182D01*
X120649239Y-85345469D01*
X120661566Y-85310235D01*
X120673634Y-85273724D01*
X120684683Y-85238179D01*
X120693954Y-85205844D01*
X120695309Y-85200788D01*
X120711658Y-85140242D01*
X120726852Y-85086803D01*
X120741301Y-85039466D01*
X120755412Y-84997229D01*
X120769596Y-84959090D01*
X120784260Y-84924043D01*
X120799814Y-84891087D01*
X120816667Y-84859219D01*
X120835228Y-84827434D01*
X120855905Y-84794730D01*
X120868683Y-84775459D01*
X120891926Y-84741868D01*
X120916386Y-84708256D01*
X120940910Y-84676109D01*
X120964341Y-84646915D01*
X120985524Y-84622159D01*
X120999460Y-84607175D01*
X121018599Y-84589271D01*
X121043510Y-84568427D01*
X121072724Y-84545677D01*
X121104775Y-84522059D01*
X121138194Y-84498606D01*
X121171514Y-84476354D01*
X121203267Y-84456338D01*
X121231986Y-84439593D01*
X121251514Y-84429383D01*
X121276605Y-84418363D01*
X121297925Y-84412167D01*
X121318129Y-84410428D01*
X121339869Y-84412781D01*
X121352406Y-84415439D01*
X121360847Y-84416627D01*
X121376522Y-84418025D01*
X121398407Y-84419573D01*
X121425481Y-84421210D01*
X121456724Y-84422874D01*
X121491112Y-84424507D01*
X121527625Y-84426045D01*
X121536165Y-84426377D01*
X121593030Y-84428691D01*
X121642506Y-84431038D01*
X121685464Y-84433520D01*
X121722772Y-84436241D01*
X121755302Y-84439301D01*
X121783922Y-84442802D01*
X121809503Y-84446847D01*
X121832914Y-84451538D01*
X121855025Y-84456976D01*
X121876707Y-84463263D01*
X121891499Y-84468026D01*
X121921145Y-84478700D01*
X121945642Y-84489635D01*
X121967997Y-84502386D01*
X121991218Y-84518513D01*
X121996232Y-84522282D01*
X122013131Y-84536131D01*
X122029008Y-84551520D01*
X122044501Y-84569351D01*
X122060247Y-84590523D01*
X122076883Y-84615937D01*
X122095048Y-84646493D01*
X122115378Y-84683092D01*
X122131624Y-84713518D01*
X122150933Y-84749963D01*
X122167188Y-84780208D01*
X122181058Y-84805425D01*
X122193212Y-84826786D01*
X122204318Y-84845462D01*
X122215048Y-84862626D01*
X122226069Y-84879449D01*
X122228333Y-84882824D01*
X122241326Y-84903062D01*
X122257981Y-84930586D01*
X122278245Y-84965307D01*
X122302066Y-85007135D01*
X122329391Y-85055978D01*
X122342400Y-85079470D01*
X122382592Y-85147548D01*
X122426478Y-85213335D01*
X122469785Y-85270988D01*
X122489425Y-85295960D01*
X122508206Y-85320797D01*
X122526903Y-85346624D01*
X122546290Y-85374568D01*
X122567141Y-85405755D01*
X122590231Y-85441311D01*
X122616333Y-85482363D01*
X122629654Y-85503546D01*
X122648236Y-85532770D01*
X122667855Y-85562912D01*
X122687388Y-85592297D01*
X122705710Y-85619248D01*
X122721700Y-85642089D01*
X122731525Y-85655565D01*
X122763291Y-85700268D01*
X122788969Y-85741740D01*
X122809273Y-85781434D01*
X122824916Y-85820805D01*
X122836613Y-85861307D01*
X122840020Y-85876564D01*
X122845301Y-85909237D01*
X122849085Y-85948151D01*
X122851285Y-85991411D01*
X122851815Y-86037120D01*
X122850586Y-86083383D01*
X122850024Y-86094299D01*
X122848439Y-86118564D01*
X122846141Y-86148583D01*
X122843234Y-86183309D01*
X122839826Y-86221692D01*
X122836022Y-86262683D01*
X122831929Y-86305235D01*
X122827653Y-86348299D01*
X122823300Y-86390827D01*
X122818976Y-86431769D01*
X122814788Y-86470078D01*
X122810843Y-86504705D01*
X122807245Y-86534601D01*
X122804102Y-86558718D01*
X122801519Y-86576008D01*
X122800795Y-86580109D01*
X122791427Y-86622311D01*
X122779357Y-86662556D01*
X122764093Y-86701662D01*
X122745146Y-86740446D01*
X122722026Y-86779725D01*
X122694240Y-86820317D01*
X122661300Y-86863040D01*
X122622714Y-86908710D01*
X122577991Y-86958145D01*
X122566686Y-86970241D01*
X122534717Y-87003801D01*
X122507151Y-87031637D01*
X122483172Y-87054429D01*
X122461965Y-87072854D01*
X122442715Y-87087590D01*
X122424606Y-87099317D01*
X122406824Y-87108712D01*
X122393143Y-87114663D01*
X122375990Y-87120234D01*
X122350880Y-87126432D01*
X122318088Y-87133195D01*
X122277889Y-87140463D01*
X122270323Y-87141747D01*
X122239279Y-87146967D01*
X122214596Y-87151125D01*
X122194655Y-87154514D01*
X122177837Y-87157426D01*
X122162520Y-87160153D01*
X122147085Y-87162990D01*
X122129913Y-87166228D01*
X122109382Y-87170161D01*
X122083874Y-87175081D01*
X122054113Y-87180828D01*
X122026559Y-87186259D01*
X122001400Y-87191430D01*
X121979878Y-87196069D01*
X121963235Y-87199904D01*
X121952715Y-87202661D01*
X121949845Y-87203692D01*
X121945935Y-87206099D01*
X121943318Y-87209348D01*
X121941787Y-87214904D01*
X121941134Y-87224232D01*
X121941151Y-87238800D01*
X121941633Y-87260072D01*
X121941671Y-87261541D01*
X121941913Y-87278793D01*
X121941320Y-87292527D01*
X121939446Y-87305212D01*
X121935846Y-87319315D01*
X121930075Y-87337305D01*
X121925701Y-87350075D01*
X121908716Y-87399203D01*
X121926210Y-87424228D01*
X121935555Y-87437549D01*
X121948042Y-87455286D01*
X121962035Y-87475118D01*
X121975811Y-87494601D01*
X121990888Y-87516642D01*
X122000897Y-87533315D01*
X122006155Y-87545513D01*
X122006979Y-87554130D01*
X122003686Y-87560060D01*
X121999931Y-87562666D01*
X121992673Y-87565676D01*
X121985612Y-87566015D01*
X121977673Y-87563030D01*
X121967783Y-87556069D01*
X121954869Y-87544477D01*
X121937857Y-87527603D01*
X121931336Y-87520944D01*
X121915953Y-87505562D01*
X121902634Y-87492989D01*
X121892383Y-87484113D01*
X121886201Y-87479820D01*
X121884860Y-87479815D01*
X121880304Y-87490727D01*
X121873395Y-87504312D01*
X121865459Y-87518286D01*
X121857822Y-87530366D01*
X121851810Y-87538266D01*
X121850025Y-87539827D01*
X121843118Y-87541526D01*
X121835726Y-87536932D01*
X121834177Y-87535434D01*
X121829257Y-87528922D01*
X121826637Y-87520245D01*
X121825724Y-87506893D01*
X121825706Y-87499508D01*
X121825330Y-87485320D01*
X121824141Y-87474722D01*
X121822479Y-87470137D01*
X121817410Y-87470517D01*
X121806237Y-87473154D01*
X121790661Y-87477601D01*
X121774112Y-87482839D01*
X121744023Y-87491831D01*
X121718146Y-87497674D01*
X121697296Y-87500262D01*
X121682287Y-87499496D01*
X121674033Y-87495395D01*
X121669932Y-87487454D01*
X121671011Y-87479201D01*
X121677703Y-87470324D01*
X121690440Y-87460514D01*
X121709654Y-87449457D01*
X121735777Y-87436843D01*
X121769241Y-87422361D01*
X121783594Y-87416457D01*
X121804070Y-87408052D01*
X121822048Y-87400532D01*
X121836024Y-87394538D01*
X121844496Y-87390707D01*
X121846089Y-87389874D01*
X121848751Y-87384568D01*
X121851995Y-87372414D01*
X121855595Y-87354783D01*
X121859324Y-87333044D01*
X121862955Y-87308569D01*
X121866259Y-87282729D01*
X121869011Y-87256894D01*
X121870028Y-87245395D01*
X121872862Y-87210844D01*
X121838187Y-87213554D01*
X121822389Y-87214838D01*
X121800544Y-87216682D01*
X121774831Y-87218899D01*
X121747429Y-87221301D01*
X121727118Y-87223107D01*
X121700842Y-87225005D01*
X121668183Y-87226629D01*
X121630311Y-87227976D01*
X121588395Y-87229044D01*
X121543606Y-87229829D01*
X121497115Y-87230327D01*
X121450091Y-87230535D01*
X121403705Y-87230450D01*
X121359128Y-87230068D01*
X121317528Y-87229387D01*
X121280077Y-87228402D01*
X121247946Y-87227111D01*
X121222303Y-87225509D01*
X121212153Y-87224578D01*
X121186911Y-87222125D01*
X121168802Y-87221174D01*
X121156788Y-87222004D01*
X121149834Y-87224897D01*
X121146903Y-87230136D01*
X121146958Y-87238001D01*
X121147614Y-87242109D01*
X121152212Y-87258703D01*
X121159534Y-87268539D01*
X121171109Y-87273030D01*
X121181836Y-87273752D01*
X121197712Y-87275574D01*
X121208804Y-87280507D01*
X121213817Y-87287747D01*
X121213244Y-87293205D01*
X121211134Y-87301265D01*
X121210942Y-87303470D01*
X121208217Y-87307999D01*
X121200836Y-87316976D01*
X121189990Y-87329016D01*
X121179369Y-87340180D01*
X121164629Y-87355847D01*
X121155550Y-87366872D01*
X121151563Y-87374033D01*
X121151921Y-87377903D01*
X121155957Y-87383031D01*
X121163989Y-87393209D01*
X121174890Y-87407008D01*
X121187531Y-87423001D01*
X121188771Y-87424569D01*
X121202244Y-87441873D01*
X121214696Y-87458341D01*
X121224738Y-87472106D01*
X121230954Y-87481261D01*
X121237548Y-87495691D01*
X121239081Y-87508227D01*
X121235647Y-87517183D01*
X121228771Y-87520735D01*
X121219479Y-87520194D01*
X121208434Y-87515719D01*
X121194803Y-87506740D01*
X121177755Y-87492690D01*
X121156461Y-87473001D01*
X121150463Y-87467216D01*
X121134862Y-87452534D01*
X121120853Y-87440209D01*
X121109706Y-87431296D01*
X121102690Y-87426848D01*
X121101504Y-87426540D01*
X121095115Y-87428418D01*
X121085171Y-87434351D01*
X121071053Y-87444794D01*
X121052140Y-87460198D01*
X121033377Y-87476192D01*
X121012399Y-87493727D01*
X120996293Y-87505609D01*
X120984227Y-87512156D01*
X120975369Y-87513685D01*
X120968884Y-87510514D01*
X120963942Y-87502961D01*
X120963840Y-87502740D01*
X120960297Y-87493173D01*
X120959760Y-87484451D01*
X120962671Y-87474295D01*
X120969471Y-87460424D01*
X120973436Y-87453222D01*
X120987825Y-87427493D01*
X120947628Y-87443127D01*
X120928698Y-87450107D01*
X120910640Y-87456104D01*
X120896068Y-87460279D01*
X120890192Y-87461543D01*
X120878787Y-87462750D01*
X120872446Y-87461019D01*
X120868256Y-87455549D01*
X120868219Y-87455480D01*
X120865722Y-87446847D01*
X120869195Y-87437941D01*
X120869887Y-87436862D01*
X120879947Y-87425087D01*
X120894913Y-87413395D01*
X120915386Y-87401486D01*
X120941969Y-87389059D01*
X120975263Y-87375813D01*
X121015869Y-87361450D01*
X121031312Y-87356303D01*
X121053232Y-87349047D01*
X121072254Y-87342668D01*
X121087061Y-87337614D01*
X121096332Y-87334334D01*
X121098861Y-87333306D01*
X121099188Y-87328967D01*
X121099116Y-87317824D01*
X121098680Y-87301322D01*
X121097914Y-87280904D01*
X121097363Y-87268524D01*
X121094386Y-87205001D01*
X121044267Y-87195492D01*
X120992357Y-87185610D01*
X120947827Y-87177039D01*
X120909932Y-87169598D01*
X120877928Y-87163109D01*
X120851069Y-87157392D01*
X120828613Y-87152270D01*
X120809815Y-87147561D01*
X120793930Y-87143089D01*
X120780214Y-87138673D01*
X120767924Y-87134135D01*
X120756313Y-87129295D01*
X120744640Y-87123975D01*
X120742254Y-87122848D01*
X120694973Y-87096401D01*
X120648445Y-87062635D01*
X120603524Y-87022494D01*
X120561063Y-86976917D01*
X120521916Y-86926845D01*
X120486935Y-86873220D01*
X120456974Y-86816981D01*
X120448964Y-86799449D01*
X120428971Y-86749545D01*
X120409661Y-86692899D01*
X120391403Y-86631023D01*
X120374567Y-86565427D01*
X120359522Y-86497621D01*
X120346636Y-86429118D01*
X120336280Y-86361427D01*
X120330774Y-86315729D01*
X120328707Y-86290437D01*
X120327135Y-86259378D01*
X120326061Y-86224248D01*
X120325736Y-86203144D01*
X120381590Y-86203144D01*
X120385612Y-86288147D01*
X120393903Y-86371763D01*
X120406406Y-86451915D01*
X120409643Y-86468517D01*
X120414192Y-86489675D01*
X120420105Y-86515227D01*
X120426993Y-86543672D01*
X120434466Y-86573507D01*
X120442136Y-86603230D01*
X120449614Y-86631338D01*
X120456509Y-86656329D01*
X120462432Y-86676701D01*
X120466995Y-86690951D01*
X120467980Y-86693650D01*
X120472469Y-86706390D01*
X120475342Y-86716470D01*
X120475907Y-86720039D01*
X120477554Y-86727055D01*
X120481696Y-86738004D01*
X120483764Y-86742671D01*
X120489144Y-86754261D01*
X120496680Y-86770457D01*
X120505033Y-86788381D01*
X120507999Y-86794741D01*
X120525416Y-86827397D01*
X120547816Y-86862148D01*
X120574109Y-86897791D01*
X120603206Y-86933127D01*
X120634017Y-86966953D01*
X120665454Y-86998070D01*
X120696427Y-87025275D01*
X120725847Y-87047370D01*
X120750513Y-87062103D01*
X120768098Y-87069588D01*
X120792485Y-87077947D01*
X120822304Y-87086871D01*
X120856182Y-87096049D01*
X120892748Y-87105169D01*
X120930631Y-87113922D01*
X120968461Y-87121996D01*
X121004865Y-87129082D01*
X121038472Y-87134868D01*
X121067912Y-87139045D01*
X121091812Y-87141300D01*
X121101522Y-87141611D01*
X121114316Y-87142241D01*
X121123380Y-87143860D01*
X121126007Y-87145284D01*
X121131297Y-87148461D01*
X121141038Y-87151165D01*
X121141736Y-87151291D01*
X121152288Y-87153220D01*
X121167859Y-87156184D01*
X121185368Y-87159594D01*
X121188230Y-87160159D01*
X121207168Y-87163344D01*
X121230612Y-87166474D01*
X121254816Y-87169076D01*
X121266689Y-87170081D01*
X121295099Y-87171692D01*
X121330158Y-87172872D01*
X121370268Y-87173626D01*
X121413833Y-87173961D01*
X121459253Y-87173885D01*
X121504932Y-87173404D01*
X121549271Y-87172526D01*
X121590672Y-87171257D01*
X121627539Y-87169604D01*
X121646972Y-87168421D01*
X121758334Y-87159541D01*
X121864723Y-87148453D01*
X121969224Y-87134772D01*
X122074919Y-87118109D01*
X122140268Y-87106505D01*
X122193196Y-87096614D01*
X122238841Y-87087670D01*
X122278072Y-87079293D01*
X122311759Y-87071106D01*
X122340770Y-87062730D01*
X122365974Y-87053787D01*
X122388241Y-87043898D01*
X122408439Y-87032686D01*
X122427437Y-87019772D01*
X122446106Y-87004777D01*
X122465312Y-86987324D01*
X122485926Y-86967034D01*
X122504584Y-86947916D01*
X122560128Y-86888042D01*
X122608168Y-86831127D01*
X122648833Y-86776971D01*
X122682251Y-86725376D01*
X122708551Y-86676145D01*
X122727861Y-86629078D01*
X122740310Y-86583977D01*
X122740329Y-86583883D01*
X122742854Y-86568487D01*
X122745602Y-86546565D01*
X122748433Y-86519841D01*
X122751206Y-86490039D01*
X122753780Y-86458884D01*
X122756015Y-86428101D01*
X122757771Y-86399414D01*
X122758906Y-86374546D01*
X122759280Y-86355224D01*
X122759245Y-86351858D01*
X122759805Y-86334985D01*
X122761741Y-86313257D01*
X122764721Y-86289900D01*
X122767227Y-86274435D01*
X122778667Y-86199979D01*
X122786028Y-86125778D01*
X122789588Y-86048656D01*
X122790023Y-86012217D01*
X122790003Y-85980892D01*
X122789706Y-85956279D01*
X122789029Y-85936830D01*
X122787865Y-85921000D01*
X122786111Y-85907243D01*
X122783661Y-85894013D01*
X122781293Y-85883459D01*
X122767793Y-85834895D01*
X122752042Y-85794065D01*
X122734080Y-85761068D01*
X122725761Y-85749406D01*
X122718741Y-85739599D01*
X122714558Y-85732234D01*
X122714047Y-85730431D01*
X122711267Y-85725033D01*
X122705424Y-85718700D01*
X122696004Y-85708742D01*
X122683602Y-85693149D01*
X122668017Y-85671632D01*
X122649050Y-85643904D01*
X122626503Y-85609678D01*
X122600176Y-85568667D01*
X122588178Y-85549724D01*
X122550754Y-85491193D01*
X122516366Y-85439066D01*
X122484338Y-85392367D01*
X122453996Y-85350121D01*
X122424665Y-85311353D01*
X122412111Y-85295403D01*
X122365999Y-85232873D01*
X122321278Y-85162749D01*
X122286747Y-85101683D01*
X122253596Y-85041550D01*
X122222231Y-84987734D01*
X122192985Y-84940798D01*
X122174962Y-84913794D01*
X122150986Y-84876994D01*
X122125672Y-84834471D01*
X122100223Y-84788359D01*
X122075845Y-84740794D01*
X122066645Y-84721801D01*
X122049352Y-84686355D01*
X122034334Y-84657663D01*
X122020982Y-84634741D01*
X122008687Y-84616603D01*
X121996838Y-84602265D01*
X121986341Y-84592049D01*
X121953285Y-84567534D01*
X121913937Y-84545806D01*
X121870004Y-84527584D01*
X121823191Y-84513588D01*
X121780800Y-84505315D01*
X121746122Y-84501171D01*
X121703998Y-84497691D01*
X121655217Y-84494906D01*
X121600567Y-84492845D01*
X121540837Y-84491540D01*
X121476815Y-84491021D01*
X121415348Y-84491258D01*
X121376136Y-84491646D01*
X121344267Y-84492043D01*
X121318824Y-84492502D01*
X121298891Y-84493079D01*
X121283551Y-84493828D01*
X121271888Y-84494804D01*
X121262986Y-84496062D01*
X121255928Y-84497656D01*
X121249798Y-84499641D01*
X121245289Y-84501407D01*
X121225746Y-84511159D01*
X121201616Y-84526004D01*
X121174015Y-84545062D01*
X121144060Y-84567454D01*
X121112867Y-84592298D01*
X121081552Y-84618717D01*
X121051232Y-84645828D01*
X121023022Y-84672754D01*
X121006335Y-84689752D01*
X120976408Y-84722626D01*
X120950280Y-84754808D01*
X120926187Y-84788708D01*
X120902359Y-84826741D01*
X120888644Y-84850441D01*
X120874146Y-84876865D01*
X120860794Y-84903039D01*
X120848223Y-84929927D01*
X120836067Y-84958497D01*
X120823963Y-84989713D01*
X120811543Y-85024541D01*
X120798444Y-85063946D01*
X120784299Y-85108895D01*
X120768744Y-85160353D01*
X120759234Y-85192530D01*
X120741543Y-85251782D01*
X120725240Y-85303942D01*
X120709879Y-85349973D01*
X120695017Y-85390835D01*
X120680207Y-85427491D01*
X120665005Y-85460901D01*
X120648967Y-85492027D01*
X120631646Y-85521831D01*
X120612599Y-85551274D01*
X120591380Y-85581318D01*
X120567544Y-85612923D01*
X120560494Y-85621988D01*
X120514967Y-85684395D01*
X120476166Y-85746466D01*
X120444330Y-85807709D01*
X120419700Y-85867628D01*
X120402515Y-85925733D01*
X120395709Y-85960600D01*
X120386582Y-86037292D01*
X120381895Y-86118832D01*
X120381590Y-86203144D01*
X120325736Y-86203144D01*
X120325484Y-86186749D01*
X120325405Y-86148578D01*
G37*
G36*
X121461602Y-85210867D02*
G01*
X121485101Y-85217151D01*
X121490351Y-85218898D01*
X121514834Y-85228483D01*
X121534664Y-85238793D01*
X121548699Y-85249125D01*
X121555795Y-85258776D01*
X121555940Y-85259206D01*
X121556409Y-85265641D01*
X121552804Y-85272723D01*
X121544023Y-85282333D01*
X121540289Y-85285920D01*
X121519759Y-85300557D01*
X121493748Y-85311900D01*
X121464598Y-85319305D01*
X121434647Y-85322132D01*
X121412926Y-85320842D01*
X121391192Y-85315081D01*
X121376148Y-85304724D01*
X121368707Y-85292291D01*
X121367005Y-85280835D01*
X121370401Y-85268776D01*
X121379515Y-85254792D01*
X121393905Y-85238654D01*
X121410859Y-85222954D01*
X121426468Y-85213361D01*
X121442720Y-85209468D01*
X121461602Y-85210867D01*
G37*
G36*
X121184379Y-85100245D02*
G01*
X121191611Y-85104985D01*
X121197154Y-85113478D01*
X121202940Y-85125802D01*
X121204639Y-85130280D01*
X121210382Y-85155490D01*
X121210204Y-85179793D01*
X121204751Y-85202039D01*
X121194669Y-85221074D01*
X121180604Y-85235744D01*
X121163201Y-85244898D01*
X121143105Y-85247383D01*
X121139245Y-85247032D01*
X121126861Y-85242003D01*
X121113622Y-85231071D01*
X121100906Y-85216216D01*
X121090092Y-85199414D01*
X121082558Y-85182646D01*
X121079684Y-85167889D01*
X121080282Y-85162411D01*
X121085101Y-85153351D01*
X121094778Y-85141430D01*
X121107418Y-85128536D01*
X121121122Y-85116560D01*
X121133995Y-85107392D01*
X121137480Y-85105435D01*
X121154008Y-85099466D01*
X121170489Y-85097728D01*
X121184379Y-85100245D01*
G37*
G36*
X121814762Y-85064959D02*
G01*
X121815035Y-85064992D01*
X121839630Y-85069602D01*
X121856751Y-85077007D01*
X121866902Y-85087859D01*
X121870585Y-85102814D01*
X121868303Y-85122525D01*
X121866014Y-85131273D01*
X121859663Y-85148643D01*
X121851320Y-85165471D01*
X121842183Y-85179817D01*
X121833453Y-85189742D01*
X121827731Y-85193161D01*
X121817866Y-85193764D01*
X121808618Y-85192735D01*
X121791672Y-85185521D01*
X121775843Y-85171909D01*
X121762429Y-85153760D01*
X121752729Y-85132931D01*
X121748042Y-85111282D01*
X121747805Y-85105698D01*
X121750090Y-85087391D01*
X121757391Y-85074489D01*
X121770246Y-85066666D01*
X121789191Y-85063597D01*
X121814762Y-85064959D01*
G37*
G36*
X34008279Y-163203831D02*
G01*
X33629453Y-163742693D01*
X33053288Y-164458613D01*
X33017620Y-164500689D01*
X31118552Y-166776273D01*
X29437932Y-168873816D01*
X28011196Y-170746180D01*
X26873782Y-172346227D01*
X26061125Y-173626819D01*
X25809429Y-174089063D01*
X25321083Y-175611469D01*
X25336750Y-177258067D01*
X25859213Y-179041709D01*
X26891258Y-180975249D01*
X27491654Y-181854925D01*
X27984014Y-182570664D01*
X28295782Y-183093589D01*
X28360074Y-183292025D01*
X28112412Y-183194280D01*
X27567560Y-182840190D01*
X26950455Y-182387082D01*
X25238922Y-181249086D01*
X23586513Y-180484185D01*
X22087386Y-180133224D01*
X21711888Y-180114701D01*
X20998136Y-180159727D01*
X20281005Y-180320926D01*
X19507637Y-180632772D01*
X18625172Y-181129738D01*
X17580751Y-181846299D01*
X16321515Y-182816926D01*
X14794606Y-184076094D01*
X12947164Y-185658276D01*
X12153337Y-186348544D01*
X10700525Y-187604019D01*
X9628305Y-188502966D01*
X8921329Y-189056677D01*
X8564249Y-189276443D01*
X8541718Y-189173556D01*
X8785393Y-188826423D01*
X9109213Y-188423527D01*
X9684709Y-187717865D01*
X10419023Y-186823032D01*
X10939080Y-186191849D01*
X12371412Y-184425509D01*
X13704408Y-182722951D01*
X14883705Y-181157467D01*
X15854938Y-179802346D01*
X16563741Y-178730879D01*
X16872915Y-178192272D01*
X17372943Y-176726569D01*
X17411880Y-175160778D01*
X16982142Y-173460614D01*
X16076142Y-171591793D01*
X15070830Y-170046636D01*
X14605522Y-169364274D01*
X14327093Y-168898777D01*
X14289567Y-168763126D01*
X14558231Y-168914087D01*
X15118706Y-169305252D01*
X15684015Y-169726530D01*
X17583504Y-170996605D01*
X19317412Y-171769995D01*
X20915857Y-172053762D01*
X22408959Y-171854970D01*
X23269977Y-171505368D01*
X24039818Y-171033357D01*
X25136462Y-170251958D01*
X26488712Y-169217378D01*
X28025373Y-167985821D01*
X29675249Y-166613491D01*
X31367144Y-165156593D01*
X31841635Y-164738569D01*
X32729720Y-163971856D01*
X33462558Y-163376422D01*
X33952316Y-163021314D01*
X34109341Y-162955833D01*
X34008279Y-163203831D01*
G37*
G36*
X61984009Y-161659995D02*
G01*
X61820659Y-161937392D01*
X61372899Y-162545738D01*
X60704169Y-163402390D01*
X59877907Y-164424701D01*
X59640821Y-164712620D01*
X57833758Y-166926674D01*
X56366982Y-168792248D01*
X55211295Y-170355248D01*
X54337495Y-171661576D01*
X53716383Y-172757139D01*
X53318760Y-173687839D01*
X53115424Y-174499582D01*
X53072922Y-175037868D01*
X53236437Y-176100356D01*
X53696056Y-177422366D01*
X54389735Y-178858707D01*
X55255431Y-180264192D01*
X55384272Y-180446682D01*
X55867988Y-181170342D01*
X56161677Y-181710180D01*
X56205922Y-181927029D01*
X55941068Y-181847599D01*
X55413616Y-181491924D01*
X54998961Y-181157475D01*
X53232246Y-179894769D01*
X51464393Y-179102526D01*
X49744154Y-178792485D01*
X48120284Y-178976387D01*
X47275173Y-179297552D01*
X46612827Y-179702730D01*
X45612382Y-180423733D01*
X44334680Y-181411822D01*
X42840559Y-182618256D01*
X41190861Y-183994294D01*
X39446424Y-185491197D01*
X38416421Y-186394509D01*
X37605063Y-187094216D01*
X36945294Y-187630361D01*
X36540842Y-187919988D01*
X36473711Y-187948232D01*
X36578195Y-187750122D01*
X36977960Y-187197672D01*
X37624725Y-186353704D01*
X38470207Y-185281038D01*
X39466122Y-184042495D01*
X39641353Y-183826801D01*
X41424992Y-181603653D01*
X42860214Y-179720537D01*
X43962784Y-178118194D01*
X44748462Y-176737365D01*
X45233012Y-175518791D01*
X45432195Y-174403212D01*
X45361775Y-173331369D01*
X45037514Y-172244003D01*
X44475173Y-171081854D01*
X43690517Y-169785663D01*
X43467380Y-169442734D01*
X42908262Y-168579058D01*
X42486217Y-167903499D01*
X42271780Y-167529792D01*
X42258477Y-167493451D01*
X42459611Y-167586165D01*
X42993561Y-167929072D01*
X43756153Y-168454406D01*
X43981284Y-168614125D01*
X45421937Y-169573884D01*
X46620216Y-170197634D01*
X47707712Y-170539509D01*
X48816017Y-170653639D01*
X48941566Y-170654615D01*
X49629117Y-170611624D01*
X50321022Y-170460553D01*
X51067469Y-170168254D01*
X51918651Y-169701580D01*
X52924758Y-169027384D01*
X54135982Y-168112520D01*
X55602512Y-166923838D01*
X57374540Y-165428193D01*
X59079222Y-163959468D01*
X60111471Y-163079136D01*
X60982126Y-162363890D01*
X61619598Y-161870398D01*
X61952300Y-161655332D01*
X61984009Y-161659995D01*
G37*
G36*
X67928690Y-169714299D02*
G01*
X67777153Y-170007758D01*
X67376846Y-170607879D01*
X66809227Y-171393531D01*
X66712733Y-171522496D01*
X66011034Y-172510429D01*
X65637120Y-173229971D01*
X65557100Y-173814290D01*
X65737083Y-174396555D01*
X65902094Y-174707806D01*
X66232329Y-175379834D01*
X66247747Y-175666039D01*
X65953758Y-175540184D01*
X65763501Y-175380183D01*
X65016788Y-174941964D01*
X64180345Y-174941342D01*
X63195976Y-175391219D01*
X62147374Y-176181765D01*
X61421732Y-176781126D01*
X60885777Y-177184604D01*
X60638989Y-177318192D01*
X60632945Y-177308410D01*
X60782238Y-177025600D01*
X61177070Y-176430122D01*
X61737867Y-175641006D01*
X61848903Y-175489478D01*
X62557112Y-174471025D01*
X62935427Y-173733930D01*
X63013913Y-173156448D01*
X62822636Y-172616837D01*
X62631980Y-172318542D01*
X62334770Y-171761088D01*
X62438875Y-171553961D01*
X62915060Y-171720854D01*
X63174554Y-171878769D01*
X63854374Y-172174367D01*
X64560369Y-172126262D01*
X65385714Y-171703738D01*
X66423588Y-170876081D01*
X66545028Y-170767715D01*
X67227461Y-170179110D01*
X67721740Y-169800396D01*
X67927663Y-169707856D01*
X67928690Y-169714299D01*
G37*
G36*
X27666988Y-155079685D02*
G01*
X27514896Y-155346886D01*
X27110062Y-155931947D01*
X26529652Y-156724682D01*
X26315924Y-157008870D01*
X25691169Y-157871351D01*
X25219799Y-158592675D01*
X24980587Y-159049822D01*
X24965870Y-159117329D01*
X25098427Y-159542990D01*
X25425206Y-160187916D01*
X25518490Y-160345559D01*
X25814307Y-160885101D01*
X25890441Y-161146009D01*
X25855246Y-161147527D01*
X25476294Y-160960826D01*
X24917233Y-160681331D01*
X24130167Y-160450324D01*
X23319974Y-160591440D01*
X22387068Y-161136769D01*
X21658326Y-161731438D01*
X20856863Y-162400500D01*
X20345437Y-162750460D01*
X20156906Y-162765938D01*
X20324130Y-162431554D01*
X20405838Y-162317715D01*
X20781619Y-161814777D01*
X21328538Y-161087852D01*
X21654754Y-160655896D01*
X22264899Y-159732878D01*
X22493708Y-158983568D01*
X22367314Y-158226672D01*
X22092825Y-157617103D01*
X21652704Y-156766004D01*
X22353531Y-157225203D01*
X23110579Y-157594246D01*
X23845330Y-157628939D01*
X24666795Y-157302088D01*
X25683987Y-156586493D01*
X26022083Y-156309952D01*
X26785640Y-155688521D01*
X27360768Y-155252026D01*
X27650310Y-155073131D01*
X27666988Y-155079685D01*
G37*
G36*
X62543346Y-133647838D02*
G01*
X62149547Y-134206101D01*
X61542321Y-134985496D01*
X61089401Y-135537932D01*
X59431340Y-137555216D01*
X57934556Y-139436664D01*
X56641533Y-141125860D01*
X55594754Y-142566386D01*
X54836701Y-143701827D01*
X54496026Y-144293862D01*
X53940520Y-145864600D01*
X53869145Y-147481410D01*
X54288825Y-149183547D01*
X55206487Y-151010266D01*
X55851755Y-151979157D01*
X56540258Y-152952428D01*
X56932567Y-153544724D01*
X57053034Y-153810167D01*
X56926008Y-153802881D01*
X56575840Y-153576990D01*
X56568235Y-153571670D01*
X55138561Y-152587099D01*
X54033204Y-151869925D01*
X53147691Y-151358608D01*
X52377550Y-150991607D01*
X51828045Y-150779420D01*
X50978859Y-150540259D01*
X50159028Y-150466007D01*
X49312211Y-150585030D01*
X48382070Y-150925697D01*
X47312265Y-151516374D01*
X46046458Y-152385429D01*
X44528309Y-153561229D01*
X42701478Y-155072141D01*
X41826461Y-155815312D01*
X40764589Y-156724294D01*
X39853096Y-157508592D01*
X39169370Y-158101310D01*
X38790798Y-158435550D01*
X38743369Y-158480522D01*
X38290196Y-158921635D01*
X37769980Y-159361310D01*
X37332239Y-159681772D01*
X37126494Y-159765245D01*
X37124435Y-159755742D01*
X37286691Y-159500043D01*
X37740554Y-158888808D01*
X38436665Y-157985790D01*
X39325662Y-156854741D01*
X40358188Y-155559413D01*
X40769778Y-155047470D01*
X41913375Y-153603984D01*
X42991074Y-152198705D01*
X43936667Y-150921438D01*
X44683950Y-149861988D01*
X45166715Y-149110160D01*
X45228289Y-148999770D01*
X45829640Y-147530587D01*
X46024083Y-146076405D01*
X45799103Y-144565771D01*
X45142185Y-142927228D01*
X44040812Y-141089322D01*
X43775404Y-140704755D01*
X43295883Y-139988890D01*
X43003985Y-139485695D01*
X42960730Y-139309934D01*
X43251388Y-139463949D01*
X43806395Y-139856167D01*
X44166471Y-140133644D01*
X44999885Y-140719475D01*
X46049163Y-141359222D01*
X46772377Y-141751498D01*
X48363859Y-142375208D01*
X49818563Y-142525236D01*
X51253825Y-142204854D01*
X51948733Y-141895909D01*
X52749121Y-141406060D01*
X53888081Y-140586446D01*
X55312389Y-139479534D01*
X56968821Y-138127788D01*
X58804152Y-136573674D01*
X60741828Y-134880351D01*
X61549824Y-134186790D01*
X62197442Y-133674093D01*
X62587820Y-133416971D01*
X62654409Y-133405157D01*
X62543346Y-133647838D01*
G37*
G36*
X72637037Y-144817653D02*
G01*
X72259091Y-145357421D01*
X71684600Y-146075332D01*
X71647149Y-146119787D01*
X70449785Y-147572630D01*
X69598222Y-148720594D01*
X69063554Y-149648225D01*
X68816874Y-150440071D01*
X68829274Y-151180679D01*
X69071848Y-151954596D01*
X69412615Y-152655295D01*
X70085901Y-153921572D01*
X68916002Y-153235966D01*
X68109908Y-152809301D01*
X67407193Y-152586929D01*
X66723080Y-152597515D01*
X65972793Y-152869724D01*
X65071554Y-153432221D01*
X63934588Y-154313673D01*
X62727094Y-155328603D01*
X61991413Y-155935931D01*
X61443922Y-156346615D01*
X61182690Y-156488206D01*
X61173371Y-156476398D01*
X61329902Y-156201443D01*
X61752940Y-155600126D01*
X62372654Y-154769090D01*
X62921505Y-154057033D01*
X63894863Y-152778602D01*
X64550131Y-151813576D01*
X64924953Y-151068529D01*
X65056976Y-150450034D01*
X64983844Y-149864666D01*
X64809164Y-149372324D01*
X64423780Y-148592658D01*
X64015752Y-147966534D01*
X63958420Y-147899079D01*
X63671300Y-147538919D01*
X63765118Y-147424214D01*
X63952778Y-147416317D01*
X64431457Y-147566942D01*
X64552218Y-147688451D01*
X65100863Y-148171934D01*
X65939334Y-148524974D01*
X66818599Y-148658281D01*
X67159264Y-148623223D01*
X67690955Y-148377513D01*
X68502490Y-147850154D01*
X69474591Y-147123858D01*
X70295841Y-146448200D01*
X71226968Y-145666433D01*
X72002053Y-145049808D01*
X72535348Y-144664267D01*
X72738283Y-144569882D01*
X72637037Y-144817653D01*
G37*
G36*
X34253727Y-136702468D02*
G01*
X33863602Y-137264990D01*
X33266900Y-138059337D01*
X32781775Y-138678673D01*
X31719953Y-140065076D01*
X31009070Y-141158382D01*
X30626184Y-142055717D01*
X30548354Y-142854207D01*
X30752638Y-143650977D01*
X31216095Y-144543153D01*
X31346446Y-144755310D01*
X31963799Y-145742175D01*
X30413616Y-144942683D01*
X29514749Y-144508890D01*
X28906150Y-144318939D01*
X28416169Y-144336154D01*
X28074980Y-144442961D01*
X27546091Y-144736285D01*
X26757541Y-145276155D01*
X25855343Y-145952062D01*
X24985513Y-146653499D01*
X24294065Y-147269957D01*
X24154222Y-147410290D01*
X23660974Y-147867210D01*
X23176866Y-148232380D01*
X22855271Y-148397279D01*
X22803158Y-148366271D01*
X22962501Y-148072048D01*
X23387707Y-147471588D01*
X23999545Y-146674551D01*
X24269943Y-146336203D01*
X25430777Y-144844389D01*
X26229804Y-143683222D01*
X26694363Y-142808350D01*
X26851792Y-142175421D01*
X26852085Y-142147168D01*
X26720657Y-141600999D01*
X26389737Y-140829414D01*
X26177563Y-140430757D01*
X25791581Y-139734177D01*
X25548446Y-139254242D01*
X25505286Y-139137505D01*
X25703041Y-139202346D01*
X26204086Y-139500775D01*
X26513756Y-139705512D01*
X27395224Y-140213108D01*
X28197269Y-140425087D01*
X29015329Y-140317960D01*
X29944845Y-139868240D01*
X31081256Y-139052438D01*
X31898844Y-138380238D01*
X32841549Y-137596690D01*
X33624419Y-136973095D01*
X34162709Y-136575115D01*
X34370038Y-136465466D01*
X34253727Y-136702468D01*
G37*
D15*
%TO.C,PWR*%
X124892000Y-84701000D02*
X128777000Y-84701000D01*
X128777000Y-82431000D02*
X124892000Y-82431000D01*
X128777000Y-84701000D02*
X128777000Y-82431000D01*
%TO.C,C8*%
X110293036Y-101198000D02*
X110077364Y-101198000D01*
X110293036Y-100478000D02*
X110077364Y-100478000D01*
%TO.C,C19*%
X123233548Y-101982600D02*
X123756052Y-101982600D01*
X123233548Y-103452600D02*
X123756052Y-103452600D01*
%TO.C,R1*%
X103170400Y-89668236D02*
X103170400Y-89452564D01*
X103890400Y-89668236D02*
X103890400Y-89452564D01*
%TO.C,C16*%
X114344564Y-84272800D02*
X114560236Y-84272800D01*
X114344564Y-84992800D02*
X114560236Y-84992800D01*
%TO.C,D1*%
X126119000Y-96013000D02*
X126119000Y-99898000D01*
X128389000Y-96013000D02*
X126119000Y-96013000D01*
X128389000Y-99898000D02*
X128389000Y-96013000D01*
D16*
%TO.C,U5*%
X124028000Y-101041000D02*
X124028000Y-100541000D01*
X120828000Y-97841000D02*
X121328000Y-97841000D01*
X124028000Y-97841000D02*
X123528000Y-97841000D01*
X120828000Y-97841000D02*
X120828000Y-98341000D01*
X121328000Y-101041000D02*
X120828000Y-101041000D01*
X120828000Y-98341000D02*
X120828000Y-97841000D01*
X120828000Y-101041000D02*
X120828000Y-100541000D01*
X124028000Y-97841000D02*
X124028000Y-98341000D01*
D15*
%TO.C,U1*%
X129504000Y-82442000D02*
X135514000Y-82442000D01*
X135514000Y-82442000D02*
X135514000Y-83702000D01*
X131754000Y-89262000D02*
X135514000Y-89262000D01*
X135514000Y-89262000D02*
X135514000Y-88002000D01*
%TO.C,R14*%
X128426800Y-93224236D02*
X128426800Y-93008564D01*
X127706800Y-93224236D02*
X127706800Y-93008564D01*
%TO.C,R4*%
X112325036Y-97684000D02*
X112109364Y-97684000D01*
X112325036Y-98404000D02*
X112109364Y-98404000D01*
%TO.C,Y1*%
X117698000Y-91430000D02*
X105098000Y-91430000D01*
X117698000Y-96530000D02*
X117698000Y-95280000D01*
X117698000Y-92680000D02*
X117698000Y-91430000D01*
X105098000Y-96530000D02*
X117698000Y-96530000D01*
%TO.C,P4*%
X125915000Y-115098000D02*
X125915000Y-121098000D01*
X126095000Y-121098000D02*
X125335000Y-121098000D01*
X127045000Y-112438000D02*
X119305000Y-112438000D01*
X124445000Y-112438000D02*
X124445000Y-115098000D01*
X126985000Y-109728000D02*
X126985000Y-110998000D01*
X120255000Y-112040929D02*
X120255000Y-112438000D01*
X123555000Y-115098000D02*
X123555000Y-121098000D01*
X126095000Y-115098000D02*
X126095000Y-121098000D01*
X122795000Y-121098000D02*
X122795000Y-115098000D01*
X123555000Y-112040929D02*
X123555000Y-112438000D01*
X121015000Y-115098000D02*
X121015000Y-121098000D01*
X119305000Y-115098000D02*
X127045000Y-115098000D01*
X125675000Y-115098000D02*
X125675000Y-121098000D01*
X126035000Y-115098000D02*
X126035000Y-121098000D01*
X121905000Y-112438000D02*
X121905000Y-115098000D01*
X121015000Y-112040929D02*
X121015000Y-112438000D01*
X125435000Y-115098000D02*
X125435000Y-121098000D01*
X125555000Y-115098000D02*
X125555000Y-121098000D01*
X119305000Y-112438000D02*
X119305000Y-115098000D01*
X125715000Y-109728000D02*
X126985000Y-109728000D01*
X125795000Y-115098000D02*
X125795000Y-121098000D01*
X122795000Y-112040929D02*
X122795000Y-112438000D01*
X127045000Y-115098000D02*
X127045000Y-112438000D01*
X123555000Y-121098000D02*
X122795000Y-121098000D01*
X125335000Y-112108000D02*
X125335000Y-112438000D01*
X121015000Y-121098000D02*
X120255000Y-121098000D01*
X126095000Y-112108000D02*
X126095000Y-112438000D01*
X125335000Y-121098000D02*
X125335000Y-115098000D01*
X120255000Y-121098000D02*
X120255000Y-115098000D01*
%TO.C,R3*%
X114357036Y-97540400D02*
X114141364Y-97540400D01*
X114357036Y-96820400D02*
X114141364Y-96820400D01*
%TO.C,R5*%
X118725836Y-97785600D02*
X118510164Y-97785600D01*
X118725836Y-98505600D02*
X118510164Y-98505600D01*
D17*
%TO.C,U3*%
X111943000Y-99497000D02*
X111943000Y-99977000D01*
X118943000Y-99497000D02*
X118463000Y-99497000D01*
X111943000Y-106497000D02*
X111943000Y-106017000D01*
X118943000Y-99497000D02*
X118943000Y-99977000D01*
X111943000Y-106497000D02*
X112423000Y-106497000D01*
X111943000Y-99497000D02*
X112423000Y-99497000D01*
X118943000Y-106497000D02*
X118943000Y-106017000D01*
X118943000Y-106497000D02*
X118463000Y-106497000D01*
D18*
X112943000Y-107472000D02*
G75*
G03*
X112943000Y-107472000I-100000J0D01*
G01*
D15*
%TO.C,U2*%
X108846200Y-102463600D02*
X108846200Y-99738600D01*
X103656200Y-105188600D02*
X103656200Y-106863600D01*
X103396200Y-105188600D02*
X103656200Y-105188600D01*
X103396200Y-102463600D02*
X103396200Y-99738600D01*
X108846200Y-99738600D02*
X108586200Y-99738600D01*
X108846200Y-105188600D02*
X108586200Y-105188600D01*
X108846200Y-102463600D02*
X108846200Y-105188600D01*
X103396200Y-102463600D02*
X103396200Y-105188600D01*
X103396200Y-99738600D02*
X103656200Y-99738600D01*
%TO.C,R9*%
X98571164Y-91588000D02*
X98786836Y-91588000D01*
X98571164Y-92308000D02*
X98786836Y-92308000D01*
%TO.C,R8*%
X98532836Y-86085000D02*
X98317164Y-86085000D01*
X98532836Y-85365000D02*
X98317164Y-85365000D01*
%TO.C,R6*%
X127869836Y-85111000D02*
X127654164Y-85111000D01*
X127869836Y-85831000D02*
X127654164Y-85831000D01*
%TO.C,P1*%
X87489000Y-121041000D02*
X87489000Y-115041000D01*
X93329000Y-112051000D02*
X93329000Y-112381000D01*
X90789000Y-111983929D02*
X90789000Y-112381000D01*
X86539000Y-115041000D02*
X94279000Y-115041000D01*
X88249000Y-121041000D02*
X87489000Y-121041000D01*
X89139000Y-112381000D02*
X89139000Y-115041000D01*
X94279000Y-112381000D02*
X86539000Y-112381000D01*
X92569000Y-121041000D02*
X92569000Y-115041000D01*
X92909000Y-115041000D02*
X92909000Y-121041000D01*
X92669000Y-115041000D02*
X92669000Y-121041000D01*
X93029000Y-115041000D02*
X93029000Y-121041000D01*
X93329000Y-121041000D02*
X92569000Y-121041000D01*
X94219000Y-109671000D02*
X94219000Y-110941000D01*
X93149000Y-115041000D02*
X93149000Y-121041000D01*
X90029000Y-111983929D02*
X90029000Y-112381000D01*
X94279000Y-115041000D02*
X94279000Y-112381000D01*
X93329000Y-115041000D02*
X93329000Y-121041000D01*
X88249000Y-115041000D02*
X88249000Y-121041000D01*
X91679000Y-112381000D02*
X91679000Y-115041000D01*
X90029000Y-121041000D02*
X90029000Y-115041000D01*
X93269000Y-115041000D02*
X93269000Y-121041000D01*
X92949000Y-109671000D02*
X94219000Y-109671000D01*
X86539000Y-112381000D02*
X86539000Y-115041000D01*
X92789000Y-115041000D02*
X92789000Y-121041000D01*
X92569000Y-112051000D02*
X92569000Y-112381000D01*
X87489000Y-111983929D02*
X87489000Y-112381000D01*
X90789000Y-121041000D02*
X90029000Y-121041000D01*
X90789000Y-115041000D02*
X90789000Y-121041000D01*
X88249000Y-111983929D02*
X88249000Y-112381000D01*
%TO.C,C5*%
X114344564Y-85542800D02*
X114560236Y-85542800D01*
X114344564Y-86262800D02*
X114560236Y-86262800D01*
%TO.C,C13*%
X116376564Y-86720000D02*
X116592236Y-86720000D01*
X116376564Y-86000000D02*
X116592236Y-86000000D01*
%TO.C,GPS*%
X99560000Y-86488000D02*
X97290000Y-86488000D01*
X97290000Y-86488000D02*
X97290000Y-90373000D01*
X99560000Y-90373000D02*
X99560000Y-86488000D01*
%TO.C,J1*%
X126676000Y-101413000D02*
X126676000Y-104073000D01*
X134356000Y-104073000D02*
X126676000Y-104073000D01*
X134356000Y-101413000D02*
X126676000Y-101413000D01*
X134356000Y-101413000D02*
X134356000Y-104073000D01*
X136956000Y-104073000D02*
X135626000Y-104073000D01*
X136956000Y-102743000D02*
X136956000Y-104073000D01*
%TO.C,L1*%
X95452000Y-85870622D02*
X95452000Y-85071378D01*
X96572000Y-85870622D02*
X96572000Y-85071378D01*
%TO.C,R11*%
X125268400Y-93059364D02*
X125268400Y-93275036D01*
X125988400Y-93059364D02*
X125988400Y-93275036D01*
%TO.C,P5*%
X130938000Y-112040929D02*
X130938000Y-112438000D01*
X136358000Y-115098000D02*
X136358000Y-121098000D01*
X136598000Y-115098000D02*
X136598000Y-121098000D01*
X133478000Y-112040929D02*
X133478000Y-112438000D01*
X134238000Y-112040929D02*
X134238000Y-112438000D01*
X136778000Y-112108000D02*
X136778000Y-112438000D01*
X134238000Y-115098000D02*
X134238000Y-121098000D01*
X131698000Y-112040929D02*
X131698000Y-112438000D01*
X136018000Y-121098000D02*
X136018000Y-115098000D01*
X132588000Y-112438000D02*
X132588000Y-115098000D01*
X136478000Y-115098000D02*
X136478000Y-121098000D01*
X136778000Y-115098000D02*
X136778000Y-121098000D01*
X136778000Y-121098000D02*
X136018000Y-121098000D01*
X129988000Y-115098000D02*
X137728000Y-115098000D01*
X136398000Y-109728000D02*
X137668000Y-109728000D01*
X136238000Y-115098000D02*
X136238000Y-121098000D01*
X136018000Y-112108000D02*
X136018000Y-112438000D01*
X134238000Y-121098000D02*
X133478000Y-121098000D01*
X131698000Y-121098000D02*
X130938000Y-121098000D01*
X136118000Y-115098000D02*
X136118000Y-121098000D01*
X130938000Y-121098000D02*
X130938000Y-115098000D01*
X135128000Y-112438000D02*
X135128000Y-115098000D01*
X137668000Y-109728000D02*
X137668000Y-110998000D01*
X133478000Y-121098000D02*
X133478000Y-115098000D01*
X129988000Y-112438000D02*
X129988000Y-115098000D01*
X137728000Y-112438000D02*
X129988000Y-112438000D01*
X137728000Y-115098000D02*
X137728000Y-112438000D01*
X131698000Y-115098000D02*
X131698000Y-121098000D01*
X136718000Y-115098000D02*
X136718000Y-121098000D01*
%TO.C,J2*%
X107188000Y-87824000D02*
X109788000Y-87824000D01*
X105918000Y-90484000D02*
X104588000Y-90484000D01*
X104588000Y-90484000D02*
X104588000Y-89154000D01*
X107188000Y-90484000D02*
X109788000Y-90484000D01*
X107188000Y-90484000D02*
X107188000Y-87824000D01*
X109788000Y-90484000D02*
X109788000Y-87824000D01*
D14*
%TO.C,U6*%
X119871600Y-94809200D02*
X119871600Y-94284200D01*
X124171600Y-90509200D02*
X123646600Y-90509200D01*
X119871600Y-94809200D02*
X120396600Y-94809200D01*
X119871600Y-90509200D02*
X120396600Y-90509200D01*
X119871600Y-90509200D02*
X119871600Y-91034200D01*
X124171600Y-90509200D02*
X124171600Y-91034200D01*
X124171600Y-94809200D02*
X123646600Y-94809200D01*
D15*
%TO.C,C9*%
X116376564Y-83367200D02*
X116592236Y-83367200D01*
X116376564Y-82647200D02*
X116592236Y-82647200D01*
%TO.C,C17*%
X115223000Y-89146748D02*
X115223000Y-89669252D01*
X113753000Y-89146748D02*
X113753000Y-89669252D01*
%TO.C,R10*%
X121253364Y-95956800D02*
X121469036Y-95956800D01*
X121253364Y-96676800D02*
X121469036Y-96676800D01*
%TO.C,C6*%
X122372800Y-106775364D02*
X122372800Y-106991036D01*
X123092800Y-106775364D02*
X123092800Y-106991036D01*
%TO.C,R13*%
X126487600Y-93224236D02*
X126487600Y-93008564D01*
X127207600Y-93224236D02*
X127207600Y-93008564D01*
%TO.C,C1*%
X126535548Y-91717800D02*
X127058052Y-91717800D01*
X126535548Y-90247800D02*
X127058052Y-90247800D01*
%TO.C,C12*%
X116376564Y-85602400D02*
X116592236Y-85602400D01*
X116376564Y-84882400D02*
X116592236Y-84882400D01*
%TO.C,J4*%
X90337000Y-91230000D02*
X89837000Y-91730000D01*
X86237000Y-83530000D02*
X94437000Y-83530000D01*
X94437000Y-91730000D02*
X94437000Y-83530000D01*
X86237000Y-91730000D02*
X86237000Y-83530000D01*
X90837000Y-91730000D02*
X90337000Y-91230000D01*
X86237000Y-91730000D02*
X94437000Y-91730000D01*
%TO.C,C3*%
X104895764Y-87075600D02*
X105111436Y-87075600D01*
X104895764Y-86355600D02*
X105111436Y-86355600D01*
%TO.C,R2*%
X102722000Y-89452564D02*
X102722000Y-89668236D01*
X102002000Y-89452564D02*
X102002000Y-89668236D01*
%TO.C,C10*%
X111002400Y-99066236D02*
X111002400Y-98850564D01*
X110282400Y-99066236D02*
X110282400Y-98850564D01*
%TO.C,J3*%
X136112000Y-99696000D02*
X138012000Y-99696000D01*
X136112000Y-90296000D02*
X138012000Y-90296000D01*
X132212000Y-99696000D02*
X134212000Y-99696000D01*
X138012000Y-99696000D02*
X138012000Y-90296000D01*
X132212000Y-90296000D02*
X134212000Y-90296000D01*
%TO.C,P2*%
X101457000Y-121168000D02*
X100697000Y-121168000D01*
X97207000Y-112508000D02*
X97207000Y-115168000D01*
X103237000Y-112178000D02*
X103237000Y-112508000D01*
X97207000Y-115168000D02*
X104947000Y-115168000D01*
X98917000Y-121168000D02*
X98157000Y-121168000D01*
X103817000Y-115168000D02*
X103817000Y-121168000D01*
X103697000Y-115168000D02*
X103697000Y-121168000D01*
X104947000Y-115168000D02*
X104947000Y-112508000D01*
X98917000Y-112110929D02*
X98917000Y-112508000D01*
X98917000Y-115168000D02*
X98917000Y-121168000D01*
X103997000Y-115168000D02*
X103997000Y-121168000D01*
X103617000Y-109798000D02*
X104887000Y-109798000D01*
X103577000Y-115168000D02*
X103577000Y-121168000D01*
X104887000Y-109798000D02*
X104887000Y-111068000D01*
X103997000Y-112178000D02*
X103997000Y-112508000D01*
X104947000Y-112508000D02*
X97207000Y-112508000D01*
X100697000Y-121168000D02*
X100697000Y-115168000D01*
X103237000Y-121168000D02*
X103237000Y-115168000D01*
X98157000Y-121168000D02*
X98157000Y-115168000D01*
X103997000Y-121168000D02*
X103237000Y-121168000D01*
X101457000Y-115168000D02*
X101457000Y-121168000D01*
X99807000Y-112508000D02*
X99807000Y-115168000D01*
X100697000Y-112110929D02*
X100697000Y-112508000D01*
X103457000Y-115168000D02*
X103457000Y-121168000D01*
X103337000Y-115168000D02*
X103337000Y-121168000D01*
X98157000Y-112110929D02*
X98157000Y-112508000D01*
X101457000Y-112110929D02*
X101457000Y-112508000D01*
X103937000Y-115168000D02*
X103937000Y-121168000D01*
X102347000Y-112508000D02*
X102347000Y-115168000D01*
%TO.C,C4*%
X110898000Y-89288252D02*
X110898000Y-88765748D01*
X112368000Y-89288252D02*
X112368000Y-88765748D01*
%TO.C,C15*%
X114380164Y-87431200D02*
X114595836Y-87431200D01*
X114380164Y-86711200D02*
X114595836Y-86711200D01*
%TO.C,C18*%
X95277000Y-89542252D02*
X95277000Y-89019748D01*
X96747000Y-89542252D02*
X96747000Y-89019748D01*
%TO.C,R7*%
X124987164Y-86381000D02*
X125202836Y-86381000D01*
X124987164Y-87101000D02*
X125202836Y-87101000D01*
%TO.C,C14*%
X114344564Y-83773600D02*
X114560236Y-83773600D01*
X114344564Y-83053600D02*
X114560236Y-83053600D01*
%TO.C,C21*%
X117543252Y-89384200D02*
X117020748Y-89384200D01*
X117543252Y-90854200D02*
X117020748Y-90854200D01*
%TO.C,STATUS*%
X124892000Y-89654000D02*
X128777000Y-89654000D01*
X128777000Y-89654000D02*
X128777000Y-87384000D01*
X128777000Y-87384000D02*
X124892000Y-87384000D01*
%TO.C,C2*%
X111766236Y-86355600D02*
X111550564Y-86355600D01*
X111766236Y-87075600D02*
X111550564Y-87075600D01*
%TO.C,C7*%
X121001200Y-106775364D02*
X121001200Y-106991036D01*
X121721200Y-106775364D02*
X121721200Y-106991036D01*
%TO.C,J5*%
X134366000Y-108137000D02*
X126686000Y-108137000D01*
X134366000Y-105477000D02*
X126686000Y-105477000D01*
X136966000Y-106807000D02*
X136966000Y-108137000D01*
X134366000Y-105477000D02*
X134366000Y-108137000D01*
X126686000Y-105477000D02*
X126686000Y-108137000D01*
X136966000Y-108137000D02*
X135636000Y-108137000D01*
%TO.C,U4*%
X102148000Y-93739000D02*
X102588000Y-93739000D01*
X94748000Y-93739000D02*
X96428000Y-93739000D01*
X86828000Y-106849000D02*
X86828000Y-106159000D01*
X102148000Y-106159000D02*
X102598000Y-106159000D01*
X86378000Y-106159000D02*
X86378000Y-93739000D01*
X86378000Y-93739000D02*
X86828000Y-93739000D01*
X94748000Y-106159000D02*
X96428000Y-106159000D01*
X102598000Y-106159000D02*
X102598000Y-93739000D01*
X86378000Y-106159000D02*
X86828000Y-106159000D01*
%TO.C,C20*%
X117543252Y-87199800D02*
X117020748Y-87199800D01*
X117543252Y-88669800D02*
X117020748Y-88669800D01*
%TO.C,P3*%
X115869000Y-115098000D02*
X115869000Y-112438000D01*
X114159000Y-121098000D02*
X114159000Y-115098000D01*
X110729000Y-112438000D02*
X110729000Y-115098000D01*
X114619000Y-115098000D02*
X114619000Y-121098000D01*
X114259000Y-115098000D02*
X114259000Y-121098000D01*
X111619000Y-112040929D02*
X111619000Y-112438000D01*
X115809000Y-109728000D02*
X115809000Y-110998000D01*
X114859000Y-115098000D02*
X114859000Y-121098000D01*
X114919000Y-115098000D02*
X114919000Y-121098000D01*
X114919000Y-121098000D02*
X114159000Y-121098000D01*
X114379000Y-115098000D02*
X114379000Y-121098000D01*
X108129000Y-112438000D02*
X108129000Y-115098000D01*
X112379000Y-121098000D02*
X111619000Y-121098000D01*
X109079000Y-112040929D02*
X109079000Y-112438000D01*
X114499000Y-115098000D02*
X114499000Y-121098000D01*
X112379000Y-112040929D02*
X112379000Y-112438000D01*
X108129000Y-115098000D02*
X115869000Y-115098000D01*
X114739000Y-115098000D02*
X114739000Y-121098000D01*
X114919000Y-112108000D02*
X114919000Y-112438000D01*
X114159000Y-112108000D02*
X114159000Y-112438000D01*
X109839000Y-121098000D02*
X109079000Y-121098000D01*
X115869000Y-112438000D02*
X108129000Y-112438000D01*
X112379000Y-115098000D02*
X112379000Y-121098000D01*
X109839000Y-115098000D02*
X109839000Y-121098000D01*
X109839000Y-112040929D02*
X109839000Y-112438000D01*
X111619000Y-121098000D02*
X111619000Y-115098000D01*
X109079000Y-121098000D02*
X109079000Y-115098000D01*
X113269000Y-112438000D02*
X113269000Y-115098000D01*
X114539000Y-109728000D02*
X115809000Y-109728000D01*
%TO.C,C11*%
X116376564Y-83764800D02*
X116592236Y-83764800D01*
X116376564Y-84484800D02*
X116592236Y-84484800D01*
%TD*%
M02*
