%TF.GenerationSoftware,KiCad,Pcbnew,(6.0.7)*%
%TF.CreationDate,2022-09-28T03:26:44-04:00*%
%TF.ProjectId,picopilotv1,7069636f-7069-46c6-9f74-76312e6b6963,rev?*%
%TF.SameCoordinates,Original*%
%TF.FileFunction,Paste,Top*%
%TF.FilePolarity,Positive*%
%FSLAX46Y46*%
G04 Gerber Fmt 4.6, Leading zero omitted, Abs format (unit mm)*
G04 Created by KiCad (PCBNEW (6.0.7)) date 2022-09-28 03:26:44*
%MOMM*%
%LPD*%
G01*
G04 APERTURE LIST*
G04 Aperture macros list*
%AMRoundRect*
0 Rectangle with rounded corners*
0 $1 Rounding radius*
0 $2 $3 $4 $5 $6 $7 $8 $9 X,Y pos of 4 corners*
0 Add a 4 corners polygon primitive as box body*
4,1,4,$2,$3,$4,$5,$6,$7,$8,$9,$2,$3,0*
0 Add four circle primitives for the rounded corners*
1,1,$1+$1,$2,$3*
1,1,$1+$1,$4,$5*
1,1,$1+$1,$6,$7*
1,1,$1+$1,$8,$9*
0 Add four rect primitives between the rounded corners*
20,1,$1+$1,$2,$3,$4,$5,0*
20,1,$1+$1,$4,$5,$6,$7,0*
20,1,$1+$1,$6,$7,$8,$9,0*
20,1,$1+$1,$8,$9,$2,$3,0*%
G04 Aperture macros list end*
%ADD10RoundRect,0.140000X-0.140000X-0.170000X0.140000X-0.170000X0.140000X0.170000X-0.140000X0.170000X0*%
%ADD11RoundRect,0.140000X-0.170000X0.140000X-0.170000X-0.140000X0.170000X-0.140000X0.170000X0.140000X0*%
%ADD12RoundRect,0.140000X0.140000X0.170000X-0.140000X0.170000X-0.140000X-0.170000X0.140000X-0.170000X0*%
%ADD13RoundRect,0.140000X0.170000X-0.140000X0.170000X0.140000X-0.170000X0.140000X-0.170000X-0.140000X0*%
%ADD14RoundRect,0.250000X0.475000X-0.250000X0.475000X0.250000X-0.475000X0.250000X-0.475000X-0.250000X0*%
%ADD15RoundRect,0.250000X0.250000X0.475000X-0.250000X0.475000X-0.250000X-0.475000X0.250000X-0.475000X0*%
%ADD16RoundRect,0.250000X-0.250000X-0.475000X0.250000X-0.475000X0.250000X0.475000X-0.250000X0.475000X0*%
%ADD17R,0.300000X0.700000*%
%ADD18RoundRect,0.250000X0.375000X0.625000X-0.375000X0.625000X-0.375000X-0.625000X0.375000X-0.625000X0*%
%ADD19RoundRect,0.218750X-0.218750X-0.381250X0.218750X-0.381250X0.218750X0.381250X-0.218750X0.381250X0*%
%ADD20RoundRect,0.250000X0.625000X-0.375000X0.625000X0.375000X-0.625000X0.375000X-0.625000X-0.375000X0*%
%ADD21RoundRect,0.250000X-0.375000X-0.625000X0.375000X-0.625000X0.375000X0.625000X-0.375000X0.625000X0*%
%ADD22R,0.450000X0.300000*%
%ADD23R,0.300000X0.450000*%
%ADD24RoundRect,0.150000X0.650000X0.150000X-0.650000X0.150000X-0.650000X-0.150000X0.650000X-0.150000X0*%
%ADD25R,2.000000X1.500000*%
%ADD26R,2.000000X3.800000*%
%ADD27RoundRect,0.200000X-0.700000X-0.200000X0.700000X-0.200000X0.700000X0.200000X-0.700000X0.200000X0*%
%ADD28R,2.100000X5.600000*%
%ADD29RoundRect,0.250000X-0.413257X0.000000X0.000000X-0.413257X0.413257X0.000000X0.000000X0.413257X0*%
%ADD30RoundRect,0.050000X-0.309359X0.238649X0.238649X-0.309359X0.309359X-0.238649X-0.238649X0.309359X0*%
%ADD31RoundRect,0.050000X-0.309359X-0.238649X-0.238649X-0.309359X0.309359X0.238649X0.238649X0.309359X0*%
G04 APERTURE END LIST*
D10*
%TO.C,R13*%
X113020000Y-107400000D03*
X113980000Y-107400000D03*
%TD*%
D11*
%TO.C,C14*%
X100600000Y-105600000D03*
X100600000Y-104640000D03*
%TD*%
%TO.C,C16*%
X95500000Y-105600000D03*
X95500000Y-104640000D03*
%TD*%
%TO.C,C15*%
X98000000Y-105600000D03*
X98000000Y-104640000D03*
%TD*%
%TO.C,C13*%
X103000000Y-105600000D03*
X103000000Y-104640000D03*
%TD*%
%TO.C,C12*%
X105300000Y-105600000D03*
X105300000Y-104640000D03*
%TD*%
D12*
%TO.C,R14*%
X116180000Y-107400000D03*
X115220000Y-107400000D03*
%TD*%
%TO.C,R5*%
X101580000Y-88900000D03*
X100620000Y-88900000D03*
%TD*%
D10*
%TO.C,R11*%
X104320000Y-75100000D03*
X105280000Y-75100000D03*
%TD*%
D11*
%TO.C,R10*%
X107100000Y-72420000D03*
X107100000Y-73380000D03*
%TD*%
D12*
%TO.C,R9*%
X104620000Y-49900000D03*
X105580000Y-49900000D03*
%TD*%
%TO.C,R8*%
X94820000Y-60000000D03*
X95780000Y-60000000D03*
%TD*%
D11*
%TO.C,R7*%
X107500000Y-107420000D03*
X107500000Y-108380000D03*
%TD*%
D13*
%TO.C,R6*%
X95600000Y-108380000D03*
X95600000Y-107420000D03*
%TD*%
%TO.C,C11*%
X98000000Y-102310000D03*
X98000000Y-103270000D03*
%TD*%
D12*
%TO.C,R4*%
X121980000Y-88700000D03*
X121020000Y-88700000D03*
%TD*%
%TO.C,R3*%
X121980000Y-87500000D03*
X121020000Y-87500000D03*
%TD*%
D10*
%TO.C,R2*%
X126920000Y-77400000D03*
X127880000Y-77400000D03*
%TD*%
D12*
%TO.C,R1*%
X127880000Y-76100000D03*
X126920000Y-76100000D03*
%TD*%
D10*
%TO.C,C10*%
X123020000Y-91200000D03*
X123980000Y-91200000D03*
%TD*%
D13*
%TO.C,C9*%
X95500000Y-102320000D03*
X95500000Y-103280000D03*
%TD*%
D10*
%TO.C,C8*%
X123020000Y-90000000D03*
X123980000Y-90000000D03*
%TD*%
D12*
%TO.C,C6*%
X113780000Y-96200000D03*
X112820000Y-96200000D03*
%TD*%
D11*
%TO.C,C5*%
X119000000Y-75820000D03*
X119000000Y-76780000D03*
%TD*%
D10*
%TO.C,C3*%
X100620000Y-87600000D03*
X101580000Y-87600000D03*
%TD*%
%TO.C,C2*%
X100620000Y-86200000D03*
X101580000Y-86200000D03*
%TD*%
D12*
%TO.C,C7*%
X113800000Y-97500000D03*
X112840000Y-97500000D03*
%TD*%
D14*
%TO.C,C19*%
X100600000Y-73350000D03*
X100600000Y-71450000D03*
%TD*%
%TO.C,C4*%
X95300000Y-112450000D03*
X95300000Y-110550000D03*
%TD*%
D15*
%TO.C,C18*%
X95150000Y-58100000D03*
X97050000Y-58100000D03*
%TD*%
D16*
%TO.C,C17*%
X102750000Y-118600000D03*
X104650000Y-118600000D03*
%TD*%
D15*
%TO.C,C1*%
X111450000Y-107900000D03*
X109550000Y-107900000D03*
%TD*%
D17*
%TO.C,J3*%
X109950000Y-111580000D03*
X110450000Y-111580000D03*
X110950000Y-111580000D03*
X111450000Y-111580000D03*
X111950000Y-111580000D03*
X112450000Y-111580000D03*
X112950000Y-111580000D03*
X113450000Y-111580000D03*
X113950000Y-111580000D03*
X114450000Y-111580000D03*
X114950000Y-111580000D03*
X115450000Y-111580000D03*
%TD*%
D18*
%TO.C,D1*%
X100300000Y-118700000D03*
X97500000Y-118700000D03*
%TD*%
D19*
%TO.C,L1*%
X97262500Y-55800000D03*
X95137500Y-55800000D03*
%TD*%
D20*
%TO.C,D4*%
X105100000Y-51800000D03*
X105100000Y-54600000D03*
%TD*%
D21*
%TO.C,D3*%
X102900000Y-108100000D03*
X105700000Y-108100000D03*
%TD*%
D18*
%TO.C,D2*%
X100200000Y-108100000D03*
X97400000Y-108100000D03*
%TD*%
D22*
%TO.C,U5*%
X105775000Y-73350000D03*
X105775000Y-72850000D03*
X105775000Y-72350000D03*
X105775000Y-71850000D03*
D23*
X105250000Y-71325000D03*
X104750000Y-71325000D03*
X104250000Y-71325000D03*
X103750000Y-71325000D03*
D22*
X103225000Y-71850000D03*
X103225000Y-72350000D03*
X103225000Y-72850000D03*
X103225000Y-73350000D03*
D23*
X103750000Y-73875000D03*
X104250000Y-73875000D03*
X104750000Y-73875000D03*
X105250000Y-73875000D03*
%TD*%
D24*
%TO.C,U2*%
X126500000Y-73605000D03*
X126500000Y-72335000D03*
X126500000Y-71065000D03*
X126500000Y-69795000D03*
X119300000Y-69795000D03*
X119300000Y-71065000D03*
X119300000Y-72335000D03*
X119300000Y-73605000D03*
%TD*%
D25*
%TO.C,U1*%
X97850000Y-111100000D03*
D26*
X104150000Y-113400000D03*
D25*
X97850000Y-113400000D03*
X97850000Y-115700000D03*
%TD*%
D27*
%TO.C,U4*%
X119900000Y-47700000D03*
X119900000Y-48800000D03*
X119900000Y-49900000D03*
X119900000Y-51000000D03*
X119900000Y-52100000D03*
X119900000Y-53200000D03*
X119900000Y-54300000D03*
X119900000Y-57300000D03*
X119900000Y-58400000D03*
X119900000Y-59500000D03*
X119900000Y-60600000D03*
X119900000Y-61700000D03*
X107900000Y-61700000D03*
X107900000Y-60600000D03*
X107900000Y-59500000D03*
X107900000Y-58400000D03*
X107900000Y-57300000D03*
X107900000Y-54300000D03*
X107900000Y-53200000D03*
X107900000Y-52100000D03*
X107900000Y-51000000D03*
X107900000Y-49900000D03*
X107900000Y-48800000D03*
X107900000Y-47700000D03*
%TD*%
D28*
%TO.C,Y1*%
X96900000Y-95600000D03*
X96900000Y-86600000D03*
%TD*%
D29*
%TO.C,U3*%
X116000000Y-90398439D03*
X115098439Y-91300000D03*
X116901561Y-91300000D03*
X116000000Y-92201561D03*
D30*
X115407798Y-87030843D03*
X115124955Y-87313686D03*
X114842113Y-87596528D03*
X114559270Y-87879371D03*
X114276427Y-88162214D03*
X113993585Y-88445056D03*
X113710742Y-88727899D03*
X113427899Y-89010742D03*
X113145056Y-89293585D03*
X112862214Y-89576427D03*
X112579371Y-89859270D03*
X112296528Y-90142113D03*
X112013686Y-90424955D03*
X111730843Y-90707798D03*
D31*
X111730843Y-91892202D03*
X112013686Y-92175045D03*
X112296528Y-92457887D03*
X112579371Y-92740730D03*
X112862214Y-93023573D03*
X113145056Y-93306415D03*
X113427899Y-93589258D03*
X113710742Y-93872101D03*
X113993585Y-94154944D03*
X114276427Y-94437786D03*
X114559270Y-94720629D03*
X114842113Y-95003472D03*
X115124955Y-95286314D03*
X115407798Y-95569157D03*
D30*
X116592202Y-95569157D03*
X116875045Y-95286314D03*
X117157887Y-95003472D03*
X117440730Y-94720629D03*
X117723573Y-94437786D03*
X118006415Y-94154944D03*
X118289258Y-93872101D03*
X118572101Y-93589258D03*
X118854944Y-93306415D03*
X119137786Y-93023573D03*
X119420629Y-92740730D03*
X119703472Y-92457887D03*
X119986314Y-92175045D03*
X120269157Y-91892202D03*
D31*
X120269157Y-90707798D03*
X119986314Y-90424955D03*
X119703472Y-90142113D03*
X119420629Y-89859270D03*
X119137786Y-89576427D03*
X118854944Y-89293585D03*
X118572101Y-89010742D03*
X118289258Y-88727899D03*
X118006415Y-88445056D03*
X117723573Y-88162214D03*
X117440730Y-87879371D03*
X117157887Y-87596528D03*
X116875045Y-87313686D03*
X116592202Y-87030843D03*
%TD*%
M02*
