%TF.GenerationSoftware,KiCad,Pcbnew,(6.0.7)*%
%TF.CreationDate,2022-09-25T04:10:57-04:00*%
%TF.ProjectId,PicoPilot,5069636f-5069-46c6-9f74-2e6b69636164,rev?*%
%TF.SameCoordinates,Original*%
%TF.FileFunction,Copper,L2,Bot*%
%TF.FilePolarity,Positive*%
%FSLAX46Y46*%
G04 Gerber Fmt 4.6, Leading zero omitted, Abs format (unit mm)*
G04 Created by KiCad (PCBNEW (6.0.7)) date 2022-09-25 04:10:57*
%MOMM*%
%LPD*%
G01*
G04 APERTURE LIST*
%TA.AperFunction,ComponentPad*%
%ADD10R,1.700000X1.700000*%
%TD*%
%TA.AperFunction,ComponentPad*%
%ADD11O,1.700000X1.700000*%
%TD*%
%TA.AperFunction,ViaPad*%
%ADD12C,0.800000*%
%TD*%
%TA.AperFunction,Conductor*%
%ADD13C,0.450000*%
%TD*%
%TA.AperFunction,Conductor*%
%ADD14C,0.250000*%
%TD*%
G04 APERTURE END LIST*
D10*
%TO.P,P7,1,Pin_1*%
%TO.N,SDA*%
X176276000Y-121285000D03*
D11*
%TO.P,P7,2,Pin_2*%
%TO.N,SDC*%
X178816000Y-121285000D03*
%TD*%
D10*
%TO.P,J8,1,Pin_1*%
%TO.N,3v3*%
X162839000Y-82961000D03*
D11*
%TO.P,J8,2,Pin_2*%
%TO.N,GND*%
X162839000Y-85501000D03*
%TO.P,J8,3,Pin_3*%
%TO.N,SDC*%
X162839000Y-88041000D03*
%TO.P,J8,4,Pin_4*%
%TO.N,SDA*%
X162839000Y-90581000D03*
%TO.P,J8,5,Pin_5*%
%TO.N,unconnected-(J8-Pad5)*%
X162839000Y-93121000D03*
%TD*%
%TO.P,J7,7,Pin_7*%
%TO.N,unconnected-(J7-Pad7)*%
X162941000Y-115189000D03*
%TO.P,J7,6,Pin_6*%
%TO.N,unconnected-(J7-Pad6)*%
X162941000Y-112649000D03*
%TO.P,J7,5,Pin_5*%
%TO.N,unconnected-(J7-Pad5)*%
X162941000Y-110109000D03*
%TO.P,J7,4,Pin_4*%
%TO.N,SDA*%
X162941000Y-107569000D03*
%TO.P,J7,3,Pin_3*%
%TO.N,SDC*%
X162941000Y-105029000D03*
%TO.P,J7,2,Pin_2*%
%TO.N,GND*%
X162941000Y-102489000D03*
D10*
%TO.P,J7,1,Pin_1*%
%TO.N,3v3*%
X162941000Y-99949000D03*
%TD*%
%TO.P,J4,1,Pin_1*%
%TO.N,3v3*%
X113548000Y-86843000D03*
D11*
%TO.P,J4,2,Pin_2*%
%TO.N,GND*%
X116088000Y-86843000D03*
%TO.P,J4,3,Pin_3*%
%TO.N,SDC*%
X118628000Y-86843000D03*
%TO.P,J4,4,Pin_4*%
%TO.N,SDA*%
X121168000Y-86843000D03*
%TD*%
D10*
%TO.P,J2,1,Pin_1*%
%TO.N,UART0 RX*%
X178821000Y-128143000D03*
D11*
%TO.P,J2,2,Pin_2*%
%TO.N,UART0 TX*%
X176281000Y-128143000D03*
%TD*%
%TO.P,P5,3,Pin_3*%
%TO.N,PWM5*%
X113792000Y-145034000D03*
%TO.P,P5,2,Pin_2*%
%TO.N,5v5*%
X116332000Y-145034000D03*
D10*
%TO.P,P5,1,Pin_1*%
%TO.N,GND*%
X118872000Y-145034000D03*
%TD*%
D11*
%TO.P,P1,3,Pin_3*%
%TO.N,PWM1*%
X154417000Y-144977000D03*
%TO.P,P1,2,Pin_2*%
%TO.N,5v5*%
X156957000Y-144977000D03*
D10*
%TO.P,P1,1,Pin_1*%
%TO.N,GND*%
X159497000Y-144977000D03*
%TD*%
D11*
%TO.P,P2,3,Pin_3*%
%TO.N,PWM2*%
X144257000Y-144977000D03*
%TO.P,P2,2,Pin_2*%
%TO.N,5v5*%
X146797000Y-144977000D03*
D10*
%TO.P,P2,1,Pin_1*%
%TO.N,GND*%
X149337000Y-144977000D03*
%TD*%
%TO.P,P6,1,Pin_1*%
%TO.N,5v5*%
X164739000Y-148184000D03*
D11*
%TO.P,P6,2,Pin_2*%
%TO.N,GND*%
X167279000Y-148184000D03*
%TD*%
%TO.P,U1,1,GPIO0*%
%TO.N,SDA*%
X105918000Y-135890000D03*
%TO.P,U1,2,GPIO1*%
%TO.N,SDC*%
X108458000Y-135890000D03*
D10*
%TO.P,U1,3,GND*%
%TO.N,unconnected-(U1-Pad3)*%
X110998000Y-135890000D03*
D11*
%TO.P,U1,4,GPIO2*%
%TO.N,unconnected-(U1-Pad4)*%
X113538000Y-135890000D03*
%TO.P,U1,5,GPIO3*%
%TO.N,unconnected-(U1-Pad5)*%
X116078000Y-135890000D03*
%TO.P,U1,6,GPIO4*%
%TO.N,UART1 TX*%
X118618000Y-135890000D03*
%TO.P,U1,7,GPIO5*%
%TO.N,UART1 RX*%
X121158000Y-135890000D03*
D10*
%TO.P,U1,8,GND*%
%TO.N,unconnected-(U1-Pad8)*%
X123698000Y-135890000D03*
D11*
%TO.P,U1,9,GPIO6*%
%TO.N,PWM1*%
X126238000Y-135890000D03*
%TO.P,U1,10,GPIO7*%
%TO.N,unconnected-(U1-Pad10)*%
X128778000Y-135890000D03*
%TO.P,U1,11,GPIO8*%
%TO.N,PWM2*%
X131318000Y-135890000D03*
%TO.P,U1,12,GPIO9*%
%TO.N,unconnected-(U1-Pad12)*%
X133858000Y-135890000D03*
D10*
%TO.P,U1,13,GND*%
%TO.N,unconnected-(U1-Pad13)*%
X136398000Y-135890000D03*
D11*
%TO.P,U1,14,GPIO10*%
%TO.N,PWM3*%
X138938000Y-135890000D03*
%TO.P,U1,15,GPIO11*%
%TO.N,unconnected-(U1-Pad15)*%
X141478000Y-135890000D03*
%TO.P,U1,16,GPIO12*%
%TO.N,UART0 TX*%
X144018000Y-135890000D03*
%TO.P,U1,17,GPIO13*%
%TO.N,UART0 RX*%
X146558000Y-135890000D03*
D10*
%TO.P,U1,18,GND*%
%TO.N,unconnected-(U1-Pad18)*%
X149098000Y-135890000D03*
D11*
%TO.P,U1,19,GPIO14*%
%TO.N,PWM4*%
X151638000Y-135890000D03*
%TO.P,U1,20,GPIO15*%
%TO.N,unconnected-(U1-Pad20)*%
X154178000Y-135890000D03*
%TO.P,U1,21,GPIO16*%
%TO.N,unconnected-(U1-Pad21)*%
X154178000Y-118110000D03*
%TO.P,U1,22,GPIO17*%
%TO.N,unconnected-(U1-Pad22)*%
X151638000Y-118110000D03*
D10*
%TO.P,U1,23,GND*%
%TO.N,unconnected-(U1-Pad23)*%
X149098000Y-118110000D03*
D11*
%TO.P,U1,24,GPIO18*%
%TO.N,unconnected-(U1-Pad24)*%
X146558000Y-118110000D03*
%TO.P,U1,25,GPIO19*%
%TO.N,unconnected-(U1-Pad25)*%
X144018000Y-118110000D03*
%TO.P,U1,26,GPIO20*%
%TO.N,unconnected-(U1-Pad26)*%
X141478000Y-118110000D03*
%TO.P,U1,27,GPIO21*%
%TO.N,unconnected-(U1-Pad27)*%
X138938000Y-118110000D03*
D10*
%TO.P,U1,28,GND*%
%TO.N,unconnected-(U1-Pad28)*%
X136398000Y-118110000D03*
D11*
%TO.P,U1,29,GPIO22*%
%TO.N,unconnected-(U1-Pad29)*%
X133858000Y-118110000D03*
%TO.P,U1,30,RUN*%
%TO.N,unconnected-(U1-Pad30)*%
X131318000Y-118110000D03*
%TO.P,U1,31,GPIO26_ADC0*%
%TO.N,PWM5*%
X128778000Y-118110000D03*
%TO.P,U1,32,GPIO27_ADC1*%
%TO.N,unconnected-(U1-Pad32)*%
X126238000Y-118110000D03*
D10*
%TO.P,U1,33,AGND*%
%TO.N,unconnected-(U1-Pad33)*%
X123698000Y-118110000D03*
D11*
%TO.P,U1,34,GPIO28_ADC2*%
%TO.N,unconnected-(U1-Pad34)*%
X121158000Y-118110000D03*
%TO.P,U1,35,ADC_VREF*%
%TO.N,unconnected-(U1-Pad35)*%
X118618000Y-118110000D03*
%TO.P,U1,36,3V3*%
%TO.N,3v3*%
X116078000Y-118110000D03*
%TO.P,U1,37,3V3_EN*%
%TO.N,unconnected-(U1-Pad37)*%
X113538000Y-118110000D03*
D10*
%TO.P,U1,38,GND*%
%TO.N,GND*%
X110998000Y-118110000D03*
D11*
%TO.P,U1,39,VSYS*%
%TO.N,5v5*%
X108458000Y-118110000D03*
%TO.P,U1,40,VBUS*%
%TO.N,unconnected-(U1-Pad40)*%
X105918000Y-118110000D03*
%TO.P,U1,41,SWCLK*%
%TO.N,unconnected-(U1-Pad41)*%
X153948000Y-129540000D03*
D10*
%TO.P,U1,42,GND*%
%TO.N,unconnected-(U1-Pad42)*%
X153948000Y-127000000D03*
D11*
%TO.P,U1,43,SWDIO*%
%TO.N,unconnected-(U1-Pad43)*%
X153948000Y-124460000D03*
%TD*%
%TO.P,P3,3,Pin_3*%
%TO.N,PWM3*%
X134097000Y-144977000D03*
%TO.P,P3,2,Pin_2*%
%TO.N,5v5*%
X136637000Y-144977000D03*
D10*
%TO.P,P3,1,Pin_1*%
%TO.N,GND*%
X139177000Y-144977000D03*
%TD*%
%TO.P,J5,1,Pin_1*%
%TO.N,3v3*%
X137698000Y-86843000D03*
D11*
%TO.P,J5,2,Pin_2*%
%TO.N,GND*%
X140238000Y-86843000D03*
%TO.P,J5,3,Pin_3*%
%TO.N,UART1 TX*%
X142778000Y-86843000D03*
%TO.P,J5,4,Pin_4*%
%TO.N,UART1 RX*%
X145318000Y-86843000D03*
%TO.P,J5,5,Pin_5*%
%TO.N,unconnected-(J5-Pad5)*%
X147858000Y-86843000D03*
%TD*%
%TO.P,P4,3,Pin_3*%
%TO.N,PWM4*%
X123937000Y-144977000D03*
%TO.P,P4,2,Pin_2*%
%TO.N,5v5*%
X126477000Y-144977000D03*
D10*
%TO.P,P4,1,Pin_1*%
%TO.N,GND*%
X129017000Y-144977000D03*
%TD*%
D12*
%TO.N,5v5*%
X111543500Y-131953000D03*
%TO.N,SDC*%
X120650000Y-84867500D03*
%TO.N,SDA*%
X105791000Y-133604000D03*
%TO.N,3v3*%
X113538000Y-89154000D03*
X114935000Y-113919000D03*
%TO.N,5v5*%
X163449000Y-142621000D03*
X157099000Y-142621000D03*
%TO.N,PWM4*%
X131445000Y-141478000D03*
%TD*%
D13*
%TO.N,5v5*%
X112363000Y-141065000D02*
X116332000Y-145034000D01*
X111543500Y-131953000D02*
X112363000Y-132772500D01*
X112363000Y-132772500D02*
X112363000Y-141065000D01*
D14*
%TO.N,UART1 RX*%
X124873000Y-132175000D02*
X124873000Y-107288000D01*
X121158000Y-135890000D02*
X124873000Y-132175000D01*
X124873000Y-107288000D02*
X145318000Y-86843000D01*
%TO.N,SDA*%
X164116000Y-106394000D02*
X162941000Y-107569000D01*
X164116000Y-91858000D02*
X164116000Y-106394000D01*
X162839000Y-90581000D02*
X164116000Y-91858000D01*
%TO.N,SDC*%
X161664000Y-103752000D02*
X162941000Y-105029000D01*
X161664000Y-89216000D02*
X161664000Y-103752000D01*
X162839000Y-88041000D02*
X161664000Y-89216000D01*
X120603500Y-84867500D02*
X120650000Y-84867500D01*
X118628000Y-86843000D02*
X120603500Y-84867500D01*
%TO.N,UART1 TX*%
X122501365Y-107119635D02*
X142778000Y-86843000D01*
X122501365Y-132006635D02*
X122501365Y-107119635D01*
X118618000Y-135890000D02*
X122501365Y-132006635D01*
%TO.N,SDC*%
X117443000Y-88028000D02*
X118628000Y-86843000D01*
X117443000Y-118596701D02*
X117443000Y-88028000D01*
X109121683Y-126918018D02*
X117443000Y-118596701D01*
X107502999Y-127181622D02*
X107766603Y-126918018D01*
X107766603Y-126918018D02*
X109121683Y-126918018D01*
X105490695Y-134329000D02*
X105066000Y-133904305D01*
X106897000Y-134329000D02*
X105490695Y-134329000D01*
X105066000Y-133303695D02*
X107502999Y-130866696D01*
X107502999Y-130866696D02*
X107502999Y-127181622D01*
X108458000Y-135890000D02*
X106897000Y-134329000D01*
X105066000Y-133904305D02*
X105066000Y-133303695D01*
%TO.N,SDA*%
X119888000Y-88123000D02*
X121168000Y-86843000D01*
X119888000Y-118618000D02*
X119888000Y-88123000D01*
X111137982Y-127368018D02*
X119888000Y-118618000D01*
X107952999Y-127368018D02*
X111137982Y-127368018D01*
X107952999Y-131442001D02*
X107952999Y-127368018D01*
X105791000Y-133604000D02*
X107952999Y-131442001D01*
%TO.N,3v3*%
X113538000Y-112522000D02*
X113538000Y-89154000D01*
X114935000Y-113919000D02*
X113538000Y-112522000D01*
D13*
%TO.N,5v5*%
X163449000Y-142621000D02*
X157099000Y-142621000D01*
D14*
%TO.N,SDC*%
X118491000Y-86090500D02*
X118528500Y-86128000D01*
%TO.N,PWM1*%
X153003000Y-135274727D02*
X151967273Y-134239000D01*
X153003000Y-143563000D02*
X153003000Y-135274727D01*
X151967273Y-134239000D02*
X126238000Y-134239000D01*
X154417000Y-144977000D02*
X153003000Y-143563000D01*
X126238000Y-134239000D02*
X126238000Y-135890000D01*
%TO.N,PWM2*%
X144257000Y-144977000D02*
X142748000Y-143468000D01*
X142335000Y-134715000D02*
X132493000Y-134715000D01*
X142748000Y-143468000D02*
X142748000Y-135128000D01*
X132493000Y-134715000D02*
X131318000Y-135890000D01*
X142748000Y-135128000D02*
X142335000Y-134715000D01*
%TO.N,PWM3*%
X134097000Y-144977000D02*
X134097000Y-140731000D01*
X134097000Y-140731000D02*
X138938000Y-135890000D01*
%TO.N,PWM4*%
X127436000Y-141478000D02*
X131445000Y-141478000D01*
X123937000Y-144977000D02*
X127436000Y-141478000D01*
%TD*%
M02*
