%TF.GenerationSoftware,KiCad,Pcbnew,(6.0.7)*%
%TF.CreationDate,2022-11-19T04:14:00-05:00*%
%TF.ProjectId,picopilotv1,7069636f-7069-46c6-9f74-76312e6b6963,rev?*%
%TF.SameCoordinates,Original*%
%TF.FileFunction,Soldermask,Top*%
%TF.FilePolarity,Negative*%
%FSLAX46Y46*%
G04 Gerber Fmt 4.6, Leading zero omitted, Abs format (unit mm)*
G04 Created by KiCad (PCBNEW (6.0.7)) date 2022-11-19 04:14:00*
%MOMM*%
%LPD*%
G01*
G04 APERTURE LIST*
G04 Aperture macros list*
%AMRoundRect*
0 Rectangle with rounded corners*
0 $1 Rounding radius*
0 $2 $3 $4 $5 $6 $7 $8 $9 X,Y pos of 4 corners*
0 Add a 4 corners polygon primitive as box body*
4,1,4,$2,$3,$4,$5,$6,$7,$8,$9,$2,$3,0*
0 Add four circle primitives for the rounded corners*
1,1,$1+$1,$2,$3*
1,1,$1+$1,$4,$5*
1,1,$1+$1,$6,$7*
1,1,$1+$1,$8,$9*
0 Add four rect primitives between the rounded corners*
20,1,$1+$1,$2,$3,$4,$5,0*
20,1,$1+$1,$4,$5,$6,$7,0*
20,1,$1+$1,$6,$7,$8,$9,0*
20,1,$1+$1,$8,$9,$2,$3,0*%
G04 Aperture macros list end*
%ADD10RoundRect,0.250000X0.375000X0.625000X-0.375000X0.625000X-0.375000X-0.625000X0.375000X-0.625000X0*%
%ADD11RoundRect,0.140000X0.140000X0.170000X-0.140000X0.170000X-0.140000X-0.170000X0.140000X-0.170000X0*%
%ADD12RoundRect,0.250000X-0.250000X-0.475000X0.250000X-0.475000X0.250000X0.475000X-0.250000X0.475000X0*%
%ADD13RoundRect,0.140000X0.170000X-0.140000X0.170000X0.140000X-0.170000X0.140000X-0.170000X-0.140000X0*%
%ADD14RoundRect,0.140000X-0.140000X-0.170000X0.140000X-0.170000X0.140000X0.170000X-0.140000X0.170000X0*%
%ADD15RoundRect,0.250000X-0.625000X0.375000X-0.625000X-0.375000X0.625000X-0.375000X0.625000X0.375000X0*%
%ADD16R,0.450000X0.300000*%
%ADD17R,0.300000X0.450000*%
%ADD18R,2.000000X1.500000*%
%ADD19R,2.000000X3.800000*%
%ADD20R,5.600000X2.100000*%
%ADD21R,1.700000X1.700000*%
%ADD22O,1.700000X1.700000*%
%ADD23RoundRect,0.006000X0.094000X-0.414000X0.094000X0.414000X-0.094000X0.414000X-0.094000X-0.414000X0*%
%ADD24RoundRect,0.020000X0.400000X-0.080000X0.400000X0.080000X-0.400000X0.080000X-0.400000X-0.080000X0*%
%ADD25R,3.100000X3.100000*%
%ADD26RoundRect,0.150000X0.150000X-0.650000X0.150000X0.650000X-0.150000X0.650000X-0.150000X-0.650000X0*%
%ADD27RoundRect,0.218750X0.381250X-0.218750X0.381250X0.218750X-0.381250X0.218750X-0.381250X-0.218750X0*%
%ADD28RoundRect,0.140000X-0.170000X0.140000X-0.170000X-0.140000X0.170000X-0.140000X0.170000X0.140000X0*%
%ADD29RoundRect,0.075000X-0.075000X0.350000X-0.075000X-0.350000X0.075000X-0.350000X0.075000X0.350000X0*%
%ADD30RoundRect,0.075000X0.350000X0.075000X-0.350000X0.075000X-0.350000X-0.075000X0.350000X-0.075000X0*%
%ADD31RoundRect,0.250000X-0.475000X0.250000X-0.475000X-0.250000X0.475000X-0.250000X0.475000X0.250000X0*%
%ADD32RoundRect,0.200100X0.949900X-0.949900X0.949900X0.949900X-0.949900X0.949900X-0.949900X-0.949900X0*%
%ADD33C,2.500000*%
%ADD34C,2.700000*%
%ADD35C,0.650000*%
%ADD36R,1.450000X0.600000*%
%ADD37R,1.450000X0.300000*%
%ADD38O,2.100000X1.000000*%
%ADD39O,1.600000X1.000000*%
%ADD40RoundRect,0.250000X0.475000X-0.250000X0.475000X0.250000X-0.475000X0.250000X-0.475000X-0.250000X0*%
%ADD41RoundRect,0.250000X0.250000X0.475000X-0.250000X0.475000X-0.250000X-0.475000X0.250000X-0.475000X0*%
%ADD42RoundRect,0.200000X0.200000X-0.700000X0.200000X0.700000X-0.200000X0.700000X-0.200000X-0.700000X0*%
G04 APERTURE END LIST*
D10*
%TO.C,PWR*%
X127892000Y-83566000D03*
X125092000Y-83566000D03*
%TD*%
D11*
%TO.C,C8*%
X110665200Y-100838000D03*
X109705200Y-100838000D03*
%TD*%
D12*
%TO.C,C19*%
X122544800Y-102717600D03*
X124444800Y-102717600D03*
%TD*%
D13*
%TO.C,R1*%
X103530400Y-90040400D03*
X103530400Y-89080400D03*
%TD*%
D14*
%TO.C,C16*%
X113972400Y-84632800D03*
X114932400Y-84632800D03*
%TD*%
D15*
%TO.C,D1*%
X127254000Y-96898000D03*
X127254000Y-99698000D03*
%TD*%
D16*
%TO.C,U5*%
X123703000Y-100191000D03*
X123703000Y-99691000D03*
X123703000Y-99191000D03*
X123703000Y-98691000D03*
D17*
X123178000Y-98166000D03*
X122678000Y-98166000D03*
X122178000Y-98166000D03*
X121678000Y-98166000D03*
D16*
X121153000Y-98691000D03*
X121153000Y-99191000D03*
X121153000Y-99691000D03*
X121153000Y-100191000D03*
D17*
X121678000Y-100716000D03*
X122178000Y-100716000D03*
X122678000Y-100716000D03*
X123178000Y-100716000D03*
%TD*%
D18*
%TO.C,U1*%
X130454000Y-83552000D03*
X130454000Y-85852000D03*
D19*
X136754000Y-85852000D03*
D18*
X130454000Y-88152000D03*
%TD*%
D13*
%TO.C,R14*%
X128066800Y-93596400D03*
X128066800Y-92636400D03*
%TD*%
D11*
%TO.C,R4*%
X111737200Y-98044000D03*
X112697200Y-98044000D03*
%TD*%
D20*
%TO.C,Y1*%
X115498000Y-93980000D03*
X106498000Y-93980000D03*
%TD*%
D21*
%TO.C,P4*%
X125715000Y-110998000D03*
D22*
X123175000Y-110998000D03*
X120635000Y-110998000D03*
%TD*%
D11*
%TO.C,R3*%
X114729200Y-97180400D03*
X113769200Y-97180400D03*
%TD*%
%TO.C,R5*%
X119098000Y-98145600D03*
X118138000Y-98145600D03*
%TD*%
D23*
%TO.C,U3*%
X112843000Y-106432000D03*
X113243000Y-106432000D03*
X113643000Y-106432000D03*
X114043000Y-106432000D03*
X114443000Y-106432000D03*
X114843000Y-106432000D03*
X115243000Y-106432000D03*
X115643000Y-106432000D03*
X116043000Y-106432000D03*
X116443000Y-106432000D03*
X116843000Y-106432000D03*
X117243000Y-106432000D03*
X117643000Y-106432000D03*
X118043000Y-106432000D03*
D24*
X118878000Y-105597000D03*
X118878000Y-105197000D03*
X118878000Y-104797000D03*
X118878000Y-104397000D03*
X118878000Y-103997000D03*
X118878000Y-103597000D03*
X118878000Y-103197000D03*
X118878000Y-102797000D03*
X118878000Y-102397000D03*
X118878000Y-101997000D03*
X118878000Y-101597000D03*
X118878000Y-101197000D03*
X118878000Y-100797000D03*
X118878000Y-100397000D03*
D23*
X118043000Y-99562000D03*
X117643000Y-99562000D03*
X117243000Y-99562000D03*
X116843000Y-99562000D03*
X116443000Y-99562000D03*
X116043000Y-99562000D03*
X115643000Y-99562000D03*
X115243000Y-99562000D03*
X114843000Y-99562000D03*
X114443000Y-99562000D03*
X114043000Y-99562000D03*
X113643000Y-99562000D03*
X113243000Y-99562000D03*
X112843000Y-99562000D03*
D24*
X112008000Y-100397000D03*
X112008000Y-100797000D03*
X112008000Y-101197000D03*
X112008000Y-101597000D03*
X112008000Y-101997000D03*
X112008000Y-102397000D03*
X112008000Y-102797000D03*
X112008000Y-103197000D03*
X112008000Y-103597000D03*
X112008000Y-103997000D03*
X112008000Y-104397000D03*
X112008000Y-104797000D03*
X112008000Y-105197000D03*
X112008000Y-105597000D03*
D25*
X115443000Y-102997000D03*
%TD*%
D26*
%TO.C,U2*%
X104216200Y-98863600D03*
X105486200Y-98863600D03*
X106756200Y-98863600D03*
X108026200Y-98863600D03*
X108026200Y-106063600D03*
X106756200Y-106063600D03*
X105486200Y-106063600D03*
X104216200Y-106063600D03*
%TD*%
D14*
%TO.C,R9*%
X99159000Y-91948000D03*
X98199000Y-91948000D03*
%TD*%
D11*
%TO.C,R8*%
X98905000Y-85725000D03*
X97945000Y-85725000D03*
%TD*%
%TO.C,R6*%
X128242000Y-85471000D03*
X127282000Y-85471000D03*
%TD*%
D21*
%TO.C,P1*%
X92949000Y-110941000D03*
D22*
X90409000Y-110941000D03*
X87869000Y-110941000D03*
%TD*%
D14*
%TO.C,C5*%
X113972400Y-85902800D03*
X114932400Y-85902800D03*
%TD*%
%TO.C,C13*%
X116004400Y-86360000D03*
X116964400Y-86360000D03*
%TD*%
D15*
%TO.C,GPS*%
X98425000Y-87373000D03*
X98425000Y-90173000D03*
%TD*%
D21*
%TO.C,J1*%
X135626000Y-102743000D03*
D22*
X133086000Y-102743000D03*
X130546000Y-102743000D03*
X128006000Y-102743000D03*
%TD*%
D27*
%TO.C,L1*%
X96012000Y-86533500D03*
X96012000Y-84408500D03*
%TD*%
D28*
%TO.C,R11*%
X125628400Y-92687200D03*
X125628400Y-93647200D03*
%TD*%
D22*
%TO.C,P5*%
X131318000Y-110998000D03*
X133858000Y-110998000D03*
D21*
X136398000Y-110998000D03*
%TD*%
%TO.C,J2*%
X105918000Y-89154000D03*
D22*
X108458000Y-89154000D03*
%TD*%
D29*
%TO.C,U6*%
X123271600Y-94609200D03*
X122771600Y-94609200D03*
X122271600Y-94609200D03*
X121771600Y-94609200D03*
X121271600Y-94609200D03*
X120771600Y-94609200D03*
D30*
X120071600Y-93909200D03*
X120071600Y-93409200D03*
X120071600Y-92909200D03*
X120071600Y-92409200D03*
X120071600Y-91909200D03*
X120071600Y-91409200D03*
D29*
X120771600Y-90709200D03*
X121271600Y-90709200D03*
X121771600Y-90709200D03*
X122271600Y-90709200D03*
X122771600Y-90709200D03*
X123271600Y-90709200D03*
D30*
X123971600Y-91409200D03*
X123971600Y-91909200D03*
X123971600Y-92409200D03*
X123971600Y-92909200D03*
X123971600Y-93409200D03*
X123971600Y-93909200D03*
%TD*%
D14*
%TO.C,C9*%
X116004400Y-83007200D03*
X116964400Y-83007200D03*
%TD*%
D31*
%TO.C,C17*%
X114488000Y-88458000D03*
X114488000Y-90358000D03*
%TD*%
D14*
%TO.C,R10*%
X120881200Y-96316800D03*
X121841200Y-96316800D03*
%TD*%
D28*
%TO.C,C6*%
X122732800Y-106403200D03*
X122732800Y-107363200D03*
%TD*%
D13*
%TO.C,R13*%
X126847600Y-93596400D03*
X126847600Y-92636400D03*
%TD*%
D12*
%TO.C,C1*%
X125846800Y-90982800D03*
X127746800Y-90982800D03*
%TD*%
D14*
%TO.C,C12*%
X116004400Y-85242400D03*
X116964400Y-85242400D03*
%TD*%
D32*
%TO.C,J4*%
X90337000Y-87630000D03*
D33*
X87797000Y-90170000D03*
X92877000Y-85090000D03*
X92877000Y-90170000D03*
X87797000Y-85090000D03*
%TD*%
D14*
%TO.C,C3*%
X104523600Y-86715600D03*
X105483600Y-86715600D03*
%TD*%
D28*
%TO.C,R2*%
X102362000Y-89080400D03*
X102362000Y-90040400D03*
%TD*%
D34*
%TO.C,H2*%
X240900000Y-149700000D03*
%TD*%
D13*
%TO.C,C10*%
X110642400Y-99438400D03*
X110642400Y-98478400D03*
%TD*%
D35*
%TO.C,J3*%
X131512000Y-92106000D03*
X131512000Y-97886000D03*
D36*
X130067000Y-98246000D03*
X130067000Y-97446000D03*
D37*
X130067000Y-96246000D03*
X130067000Y-95246000D03*
X130067000Y-94746000D03*
X130067000Y-93746000D03*
D36*
X130067000Y-92546000D03*
X130067000Y-91746000D03*
X130067000Y-91746000D03*
X130067000Y-92546000D03*
D37*
X130067000Y-93246000D03*
X130067000Y-94246000D03*
X130067000Y-95746000D03*
X130067000Y-96746000D03*
D36*
X130067000Y-97446000D03*
X130067000Y-98246000D03*
D38*
X130982000Y-99316000D03*
D39*
X135162000Y-90676000D03*
X135162000Y-99316000D03*
D38*
X130982000Y-90676000D03*
%TD*%
D21*
%TO.C,P2*%
X103617000Y-111068000D03*
D22*
X101077000Y-111068000D03*
X98537000Y-111068000D03*
%TD*%
D40*
%TO.C,C4*%
X111633000Y-89977000D03*
X111633000Y-88077000D03*
%TD*%
D14*
%TO.C,C15*%
X114008000Y-87071200D03*
X114968000Y-87071200D03*
%TD*%
D40*
%TO.C,C18*%
X96012000Y-90231000D03*
X96012000Y-88331000D03*
%TD*%
D14*
%TO.C,R7*%
X124615000Y-86741000D03*
X125575000Y-86741000D03*
%TD*%
%TO.C,C14*%
X113972400Y-83413600D03*
X114932400Y-83413600D03*
%TD*%
D41*
%TO.C,C21*%
X118232000Y-90119200D03*
X116332000Y-90119200D03*
%TD*%
D10*
%TO.C,STATUS*%
X127892000Y-88519000D03*
X125092000Y-88519000D03*
%TD*%
D11*
%TO.C,C2*%
X112138400Y-86715600D03*
X111178400Y-86715600D03*
%TD*%
D28*
%TO.C,C7*%
X121361200Y-106403200D03*
X121361200Y-107363200D03*
%TD*%
D21*
%TO.C,J5*%
X135636000Y-106807000D03*
D22*
X133096000Y-106807000D03*
X130556000Y-106807000D03*
X128016000Y-106807000D03*
%TD*%
D42*
%TO.C,U4*%
X87488000Y-105949000D03*
X88588000Y-105949000D03*
X89688000Y-105949000D03*
X90788000Y-105949000D03*
X91888000Y-105949000D03*
X92988000Y-105949000D03*
X94088000Y-105949000D03*
X97088000Y-105949000D03*
X98188000Y-105949000D03*
X99288000Y-105949000D03*
X100388000Y-105949000D03*
X101488000Y-105949000D03*
X101488000Y-93949000D03*
X100388000Y-93949000D03*
X99288000Y-93949000D03*
X98188000Y-93949000D03*
X97088000Y-93949000D03*
X94088000Y-93949000D03*
X92988000Y-93949000D03*
X91888000Y-93949000D03*
X90788000Y-93949000D03*
X89688000Y-93949000D03*
X88588000Y-93949000D03*
X87488000Y-93949000D03*
%TD*%
D41*
%TO.C,C20*%
X118232000Y-87934800D03*
X116332000Y-87934800D03*
%TD*%
D21*
%TO.C,P3*%
X114539000Y-110998000D03*
D22*
X111999000Y-110998000D03*
X109459000Y-110998000D03*
%TD*%
D14*
%TO.C,C11*%
X116004400Y-84124800D03*
X116964400Y-84124800D03*
%TD*%
M02*
