%TF.GenerationSoftware,KiCad,Pcbnew,(6.0.7)*%
%TF.CreationDate,2022-09-28T03:26:44-04:00*%
%TF.ProjectId,picopilotv1,7069636f-7069-46c6-9f74-76312e6b6963,rev?*%
%TF.SameCoordinates,Original*%
%TF.FileFunction,Copper,L2,Inr*%
%TF.FilePolarity,Positive*%
%FSLAX46Y46*%
G04 Gerber Fmt 4.6, Leading zero omitted, Abs format (unit mm)*
G04 Created by KiCad (PCBNEW (6.0.7)) date 2022-09-28 03:26:44*
%MOMM*%
%LPD*%
G01*
G04 APERTURE LIST*
%TA.AperFunction,ComponentPad*%
%ADD10R,2.000000X2.000000*%
%TD*%
%TA.AperFunction,ComponentPad*%
%ADD11C,2.000000*%
%TD*%
%TA.AperFunction,ComponentPad*%
%ADD12R,1.700000X1.700000*%
%TD*%
%TA.AperFunction,ComponentPad*%
%ADD13O,1.700000X1.700000*%
%TD*%
%TA.AperFunction,ComponentPad*%
%ADD14C,0.650000*%
%TD*%
%TA.AperFunction,ComponentPad*%
%ADD15O,0.800000X1.400000*%
%TD*%
%TA.AperFunction,ComponentPad*%
%ADD16C,0.600000*%
%TD*%
%TA.AperFunction,ViaPad*%
%ADD17C,0.800000*%
%TD*%
%TA.AperFunction,Conductor*%
%ADD18C,0.300000*%
%TD*%
%TA.AperFunction,Conductor*%
%ADD19C,0.200000*%
%TD*%
G04 APERTURE END LIST*
D10*
%TO.N,/GPIO11*%
%TO.C,BZ1*%
X125700000Y-110800000D03*
D11*
%TO.N,GND*%
X125700000Y-118400000D03*
%TD*%
D12*
%TO.N,/~{USB_BOOT}*%
%TO.C,J2*%
X124200000Y-76700000D03*
D13*
%TO.N,GND*%
X121660000Y-76700000D03*
%TD*%
D12*
%TO.N,GND*%
%TO.C,P5*%
X135825000Y-113175000D03*
D13*
%TO.N,+5V*%
X135825000Y-115715000D03*
%TO.N,/GPIO10*%
X135825000Y-118255000D03*
%TD*%
D12*
%TO.N,GND*%
%TO.C,P4*%
X135825000Y-103175000D03*
D13*
%TO.N,+5V*%
X135825000Y-105715000D03*
%TO.N,/GPIO9*%
X135825000Y-108255000D03*
%TD*%
D12*
%TO.N,GND*%
%TO.C,P2*%
X135825000Y-83175000D03*
D13*
%TO.N,+5V*%
X135825000Y-85715000D03*
%TO.N,/GPIO7*%
X135825000Y-88255000D03*
%TD*%
D12*
%TO.N,GND*%
%TO.C,P1*%
X135825000Y-73175000D03*
D13*
%TO.N,+5V*%
X135825000Y-75715000D03*
%TO.N,/GPIO6*%
X135825000Y-78255000D03*
%TD*%
D12*
%TO.N,GND*%
%TO.C,P3*%
X135825000Y-93175000D03*
D13*
%TO.N,+5V*%
X135825000Y-95715000D03*
%TO.N,/GPIO8*%
X135825000Y-98255000D03*
%TD*%
D12*
%TO.N,/GPIO0*%
%TO.C,J5*%
X95825000Y-66000000D03*
D13*
%TO.N,/GPIO1*%
X95825000Y-68540000D03*
%TO.N,+3V3*%
X95825000Y-71080000D03*
%TO.N,GND*%
X95825000Y-73620000D03*
%TD*%
D12*
%TO.N,/GPIO12*%
%TO.C,J1*%
X103400000Y-79325000D03*
D13*
%TO.N,/GPIO13*%
X100860000Y-79325000D03*
%TO.N,+5V*%
X98320000Y-79325000D03*
%TO.N,GND*%
X95780000Y-79325000D03*
%TD*%
D14*
%TO.N,GND*%
%TO.C,J3*%
X115500000Y-112890000D03*
%TO.N,N/C*%
X115100000Y-113590000D03*
X114300000Y-113590000D03*
%TO.N,VBUS*%
X113900000Y-112890000D03*
%TO.N,Net-(R14-Pad1)*%
X113500000Y-113590000D03*
%TO.N,/USB_D+*%
X113100000Y-112890000D03*
%TO.N,/USB_D-*%
X112300000Y-112890000D03*
%TO.N,unconnected-(J3-PadB8)*%
X111900000Y-113590000D03*
%TO.N,VBUS*%
X111500000Y-112890000D03*
%TO.N,N/C*%
X111100000Y-113590000D03*
X110300000Y-113590000D03*
%TO.N,GND*%
X109900000Y-112890000D03*
D15*
X117190000Y-119440000D03*
X116830000Y-113490000D03*
X108210000Y-119440000D03*
X108570000Y-113490000D03*
%TD*%
D16*
%TO.N,GND*%
%TO.C,U3*%
X116000000Y-89496878D03*
X116901561Y-90398439D03*
X117803122Y-91300000D03*
X115098439Y-90398439D03*
X116000000Y-91300000D03*
X116901561Y-92201561D03*
X114196878Y-91300000D03*
X115098439Y-92201561D03*
X116000000Y-93103122D03*
%TD*%
D17*
%TO.N,VBUS*%
X114649552Y-112527450D03*
%TO.N,+1V1*%
X123899503Y-88700000D03*
%TO.N,+3V3*%
X114350256Y-85549744D03*
%TO.N,GND*%
X107900000Y-63700000D03*
%TO.N,+3V3*%
X121900000Y-48800000D03*
X104405176Y-76170349D03*
X119300000Y-74700000D03*
X126900000Y-78800000D03*
%TO.N,GND*%
X119700000Y-77800000D03*
X106500000Y-105600000D03*
X111588987Y-93588987D03*
X96600000Y-101500000D03*
%TO.N,+5V*%
X95300000Y-115700000D03*
%TO.N,+1V1*%
X117600000Y-89600000D03*
X116018515Y-94697728D03*
%TO.N,+3V3*%
X113894718Y-90294718D03*
X114400000Y-92900000D03*
%TO.N,/USB_D-*%
X118800000Y-101800000D03*
X122900000Y-88700000D03*
X116200000Y-104400000D03*
X114300000Y-110100000D03*
X112800000Y-115200000D03*
%TO.N,Net-(R14-Pad1)*%
X116200000Y-110000000D03*
X116100000Y-114800000D03*
%TO.N,/USB_D+*%
X118200000Y-101000000D03*
X115400000Y-103600000D03*
X122000000Y-86300000D03*
X113200000Y-109600000D03*
%TO.N,VBUS*%
X111500000Y-106100000D03*
X100300000Y-116300000D03*
%TO.N,GND*%
X102599500Y-71100000D03*
X100600000Y-69800000D03*
%TO.N,Net-(C19-Pad1)*%
X100600000Y-74900000D03*
X103167413Y-74932587D03*
%TO.N,/GPIO4*%
X114700000Y-53400000D03*
X112686044Y-86713956D03*
%TO.N,/GPIO5*%
X114700000Y-54600000D03*
X111753201Y-86346799D03*
%TO.N,/GPIO6*%
X110905848Y-85795535D03*
%TO.N,/GPIO7*%
X110111427Y-86402083D03*
%TO.N,/GPIO8*%
X109400000Y-85700000D03*
%TO.N,/GPIO9*%
X108300000Y-85700497D03*
%TO.N,/GPIO10*%
X132900000Y-118200000D03*
X108300000Y-86700000D03*
%TO.N,/GPIO11*%
X107500000Y-87700000D03*
X123800000Y-110800000D03*
%TD*%
D18*
%TO.N,+5V*%
X95450000Y-115550000D02*
X95300000Y-115700000D01*
X100610661Y-115550000D02*
X95450000Y-115550000D01*
X101260661Y-116200000D02*
X100610661Y-115550000D01*
X135340000Y-116200000D02*
X101260661Y-116200000D01*
X135825000Y-115715000D02*
X135340000Y-116200000D01*
D19*
%TO.N,VBUS*%
X111500000Y-112700000D02*
X111500000Y-112890000D01*
X114387102Y-112265000D02*
X111935000Y-112265000D01*
X111935000Y-112265000D02*
X111500000Y-112700000D01*
X114649552Y-112527450D02*
X114387102Y-112265000D01*
%TO.N,+3V3*%
X104970861Y-76170349D02*
X104405176Y-76170349D01*
X114350256Y-85549744D02*
X104970861Y-76170349D01*
X121900000Y-72100000D02*
X121900000Y-48800000D01*
X119300000Y-74700000D02*
X121900000Y-72100000D01*
X95825000Y-71114950D02*
X95825000Y-71080000D01*
X104405176Y-76170349D02*
X100880399Y-76170349D01*
X100880399Y-76170349D02*
X95825000Y-71114950D01*
X105875525Y-74700000D02*
X104405176Y-76170349D01*
X119300000Y-74700000D02*
X105875525Y-74700000D01*
X126900000Y-76939266D02*
X126900000Y-78800000D01*
X124660734Y-74700000D02*
X126900000Y-76939266D01*
X119300000Y-74700000D02*
X124660734Y-74700000D01*
D18*
%TO.N,+5V*%
X98320000Y-112680000D02*
X95300000Y-115700000D01*
X98320000Y-79325000D02*
X98320000Y-112680000D01*
%TD*%
M02*
