G04 #@! TF.GenerationSoftware,KiCad,Pcbnew,8.0.4*
G04 #@! TF.CreationDate,2024-08-14T20:28:55-04:00*
G04 #@! TF.ProjectId,RP2350_80QFN_minimal,52503233-3530-45f3-9830-51464e5f6d69,REV3*
G04 #@! TF.SameCoordinates,Original*
G04 #@! TF.FileFunction,Soldermask,Bot*
G04 #@! TF.FilePolarity,Negative*
%FSLAX46Y46*%
G04 Gerber Fmt 4.6, Leading zero omitted, Abs format (unit mm)*
G04 Created by KiCad (PCBNEW 8.0.4) date 2024-08-14 20:28:55*
%MOMM*%
%LPD*%
G01*
G04 APERTURE LIST*
G04 Aperture macros list*
%AMRoundRect*
0 Rectangle with rounded corners*
0 $1 Rounding radius*
0 $2 $3 $4 $5 $6 $7 $8 $9 X,Y pos of 4 corners*
0 Add a 4 corners polygon primitive as box body*
4,1,4,$2,$3,$4,$5,$6,$7,$8,$9,$2,$3,0*
0 Add four circle primitives for the rounded corners*
1,1,$1+$1,$2,$3*
1,1,$1+$1,$4,$5*
1,1,$1+$1,$6,$7*
1,1,$1+$1,$8,$9*
0 Add four rect primitives between the rounded corners*
20,1,$1+$1,$2,$3,$4,$5,0*
20,1,$1+$1,$4,$5,$6,$7,0*
20,1,$1+$1,$6,$7,$8,$9,0*
20,1,$1+$1,$8,$9,$2,$3,0*%
G04 Aperture macros list end*
%ADD10RoundRect,0.030000X0.850000X0.850000X-0.850000X0.850000X-0.850000X-0.850000X0.850000X-0.850000X0*%
%ADD11O,1.760000X1.760000*%
%ADD12C,1.712000*%
%ADD13C,2.754000*%
%ADD14RoundRect,0.102000X1.275000X1.275000X-1.275000X1.275000X-1.275000X-1.275000X1.275000X-1.275000X0*%
%ADD15C,0.660000*%
%ADD16RoundRect,0.205320X0.974680X0.974680X-0.974680X0.974680X-0.974680X-0.974680X0.974680X-0.974680X0*%
%ADD17C,2.560000*%
%ADD18RoundRect,0.102000X0.685000X0.685000X-0.685000X0.685000X-0.685000X-0.685000X0.685000X-0.685000X0*%
%ADD19C,1.574000*%
%ADD20C,0.710000*%
%ADD21O,2.160000X1.060000*%
%ADD22O,1.660000X1.060000*%
%ADD23C,2.760000*%
G04 APERTURE END LIST*
D10*
X177040000Y-95140000D03*
D11*
X177040000Y-92600000D03*
X177040000Y-90060000D03*
X177040000Y-87520000D03*
D12*
X139940000Y-124634250D03*
X128940000Y-124634250D03*
D13*
X131940000Y-114634250D03*
D14*
X136940000Y-114634250D03*
D15*
X149454859Y-89882331D03*
X150256246Y-89080943D03*
X151057634Y-88279556D03*
X148653472Y-89080943D03*
X149454859Y-88279556D03*
X150256246Y-87478169D03*
X147852084Y-88279556D03*
X148653472Y-87478169D03*
X149454859Y-86676781D03*
D16*
X165900000Y-123300000D03*
D17*
X168440000Y-125840000D03*
X168440000Y-120760000D03*
X163360000Y-125840000D03*
X163360000Y-120760000D03*
D18*
X168480000Y-58940000D03*
D19*
X168480000Y-61480000D03*
X168480000Y-64020000D03*
X165940000Y-58940000D03*
X165940000Y-61480000D03*
X165940000Y-64020000D03*
X163400000Y-58940000D03*
X163400000Y-61480000D03*
X163400000Y-64020000D03*
X160860000Y-58940000D03*
X160860000Y-61480000D03*
X160860000Y-64020000D03*
X158320000Y-58940000D03*
X158320000Y-61480000D03*
X158320000Y-64020000D03*
X155780000Y-58940000D03*
X155780000Y-61480000D03*
X155780000Y-64020000D03*
X153240000Y-58940000D03*
X153240000Y-61480000D03*
X153240000Y-64020000D03*
X150700000Y-58940000D03*
X150700000Y-61480000D03*
X150700000Y-64020000D03*
X148160000Y-58940000D03*
X148160000Y-61480000D03*
X148160000Y-64020000D03*
X145620000Y-58940000D03*
X145620000Y-61480000D03*
X145620000Y-64020000D03*
X143080000Y-58940000D03*
X143080000Y-61480000D03*
X143080000Y-64020000D03*
X140540000Y-58940000D03*
X140540000Y-61480000D03*
X140540000Y-64020000D03*
X138000000Y-58940000D03*
X138000000Y-61480000D03*
X138000000Y-64020000D03*
X135460000Y-58940000D03*
X135460000Y-61480000D03*
X135460000Y-64020000D03*
X132920000Y-58940000D03*
X132920000Y-61480000D03*
X132920000Y-64020000D03*
X130380000Y-58940000D03*
X130380000Y-61480000D03*
X130380000Y-64020000D03*
D20*
X125730000Y-103950000D03*
X125730000Y-109730000D03*
D21*
X126260000Y-102520000D03*
D22*
X122080000Y-102520000D03*
D21*
X126260000Y-111160000D03*
D22*
X122080000Y-111160000D03*
D23*
X123940000Y-53840000D03*
X174940000Y-53840000D03*
X174940000Y-122840000D03*
X123940000Y-122840000D03*
M02*
