G04 #@! TF.GenerationSoftware,KiCad,Pcbnew,8.0.4*
G04 #@! TF.CreationDate,2024-08-14T20:28:55-04:00*
G04 #@! TF.ProjectId,RP2350_80QFN_minimal,52503233-3530-45f3-9830-51464e5f6d69,REV3*
G04 #@! TF.SameCoordinates,Original*
G04 #@! TF.FileFunction,Legend,Top*
G04 #@! TF.FilePolarity,Positive*
%FSLAX46Y46*%
G04 Gerber Fmt 4.6, Leading zero omitted, Abs format (unit mm)*
G04 Created by KiCad (PCBNEW 8.0.4) date 2024-08-14 20:28:55*
%MOMM*%
%LPD*%
G01*
G04 APERTURE LIST*
%ADD10C,0.500000*%
%ADD11C,0.300000*%
%ADD12C,0.125000*%
%ADD13C,0.250000*%
%ADD14C,0.093750*%
%ADD15C,0.150000*%
%ADD16C,0.000000*%
%ADD17C,0.120000*%
%ADD18C,0.200000*%
%ADD19C,0.127000*%
%ADD20C,0.100000*%
%ADD21C,0.191421*%
G04 APERTURE END LIST*
D10*
X149231923Y-75072690D02*
X149231923Y-67453642D01*
X147327161Y-69358404D02*
X149231923Y-67453642D01*
X149231923Y-67453642D02*
X151136685Y-69358404D01*
D11*
X142011653Y-125500828D02*
X142940225Y-125500828D01*
X142940225Y-125500828D02*
X142440225Y-126072257D01*
X142440225Y-126072257D02*
X142654510Y-126072257D01*
X142654510Y-126072257D02*
X142797368Y-126143685D01*
X142797368Y-126143685D02*
X142868796Y-126215114D01*
X142868796Y-126215114D02*
X142940225Y-126357971D01*
X142940225Y-126357971D02*
X142940225Y-126715114D01*
X142940225Y-126715114D02*
X142868796Y-126857971D01*
X142868796Y-126857971D02*
X142797368Y-126929400D01*
X142797368Y-126929400D02*
X142654510Y-127000828D01*
X142654510Y-127000828D02*
X142225939Y-127000828D01*
X142225939Y-127000828D02*
X142083082Y-126929400D01*
X142083082Y-126929400D02*
X142011653Y-126857971D01*
X143583081Y-126857971D02*
X143654510Y-126929400D01*
X143654510Y-126929400D02*
X143583081Y-127000828D01*
X143583081Y-127000828D02*
X143511653Y-126929400D01*
X143511653Y-126929400D02*
X143583081Y-126857971D01*
X143583081Y-126857971D02*
X143583081Y-127000828D01*
X144154510Y-125500828D02*
X145083082Y-125500828D01*
X145083082Y-125500828D02*
X144583082Y-126072257D01*
X144583082Y-126072257D02*
X144797367Y-126072257D01*
X144797367Y-126072257D02*
X144940225Y-126143685D01*
X144940225Y-126143685D02*
X145011653Y-126215114D01*
X145011653Y-126215114D02*
X145083082Y-126357971D01*
X145083082Y-126357971D02*
X145083082Y-126715114D01*
X145083082Y-126715114D02*
X145011653Y-126857971D01*
X145011653Y-126857971D02*
X144940225Y-126929400D01*
X144940225Y-126929400D02*
X144797367Y-127000828D01*
X144797367Y-127000828D02*
X144368796Y-127000828D01*
X144368796Y-127000828D02*
X144225939Y-126929400D01*
X144225939Y-126929400D02*
X144154510Y-126857971D01*
X145725938Y-126429400D02*
X146868796Y-126429400D01*
X148368796Y-127000828D02*
X147511653Y-127000828D01*
X147940224Y-127000828D02*
X147940224Y-125500828D01*
X147940224Y-125500828D02*
X147797367Y-125715114D01*
X147797367Y-125715114D02*
X147654510Y-125857971D01*
X147654510Y-125857971D02*
X147511653Y-125929400D01*
X148940224Y-125643685D02*
X149011652Y-125572257D01*
X149011652Y-125572257D02*
X149154510Y-125500828D01*
X149154510Y-125500828D02*
X149511652Y-125500828D01*
X149511652Y-125500828D02*
X149654510Y-125572257D01*
X149654510Y-125572257D02*
X149725938Y-125643685D01*
X149725938Y-125643685D02*
X149797367Y-125786542D01*
X149797367Y-125786542D02*
X149797367Y-125929400D01*
X149797367Y-125929400D02*
X149725938Y-126143685D01*
X149725938Y-126143685D02*
X148868795Y-127000828D01*
X148868795Y-127000828D02*
X149797367Y-127000828D01*
X150297366Y-126000828D02*
X150654509Y-127000828D01*
X150654509Y-127000828D02*
X151011652Y-126000828D01*
D12*
X176525093Y-98171119D02*
X177144140Y-98171119D01*
X177144140Y-98171119D02*
X176810807Y-98552071D01*
X176810807Y-98552071D02*
X176953664Y-98552071D01*
X176953664Y-98552071D02*
X177048902Y-98599690D01*
X177048902Y-98599690D02*
X177096521Y-98647309D01*
X177096521Y-98647309D02*
X177144140Y-98742547D01*
X177144140Y-98742547D02*
X177144140Y-98980642D01*
X177144140Y-98980642D02*
X177096521Y-99075880D01*
X177096521Y-99075880D02*
X177048902Y-99123500D01*
X177048902Y-99123500D02*
X176953664Y-99171119D01*
X176953664Y-99171119D02*
X176667950Y-99171119D01*
X176667950Y-99171119D02*
X176572712Y-99123500D01*
X176572712Y-99123500D02*
X176525093Y-99075880D01*
X177572712Y-99075880D02*
X177620331Y-99123500D01*
X177620331Y-99123500D02*
X177572712Y-99171119D01*
X177572712Y-99171119D02*
X177525093Y-99123500D01*
X177525093Y-99123500D02*
X177572712Y-99075880D01*
X177572712Y-99075880D02*
X177572712Y-99171119D01*
X177953664Y-98171119D02*
X178572711Y-98171119D01*
X178572711Y-98171119D02*
X178239378Y-98552071D01*
X178239378Y-98552071D02*
X178382235Y-98552071D01*
X178382235Y-98552071D02*
X178477473Y-98599690D01*
X178477473Y-98599690D02*
X178525092Y-98647309D01*
X178525092Y-98647309D02*
X178572711Y-98742547D01*
X178572711Y-98742547D02*
X178572711Y-98980642D01*
X178572711Y-98980642D02*
X178525092Y-99075880D01*
X178525092Y-99075880D02*
X178477473Y-99123500D01*
X178477473Y-99123500D02*
X178382235Y-99171119D01*
X178382235Y-99171119D02*
X178096521Y-99171119D01*
X178096521Y-99171119D02*
X178001283Y-99123500D01*
X178001283Y-99123500D02*
X177953664Y-99075880D01*
X178906045Y-98504452D02*
X179144140Y-99171119D01*
X179144140Y-99171119D02*
X179382235Y-98504452D01*
X170972712Y-87785404D02*
X171448902Y-87785404D01*
X170877474Y-88071119D02*
X171210807Y-87071119D01*
X171210807Y-87071119D02*
X171544140Y-88071119D01*
X171877474Y-88071119D02*
X171877474Y-87071119D01*
X171877474Y-87071119D02*
X172115569Y-87071119D01*
X172115569Y-87071119D02*
X172258426Y-87118738D01*
X172258426Y-87118738D02*
X172353664Y-87213976D01*
X172353664Y-87213976D02*
X172401283Y-87309214D01*
X172401283Y-87309214D02*
X172448902Y-87499690D01*
X172448902Y-87499690D02*
X172448902Y-87642547D01*
X172448902Y-87642547D02*
X172401283Y-87833023D01*
X172401283Y-87833023D02*
X172353664Y-87928261D01*
X172353664Y-87928261D02*
X172258426Y-88023500D01*
X172258426Y-88023500D02*
X172115569Y-88071119D01*
X172115569Y-88071119D02*
X171877474Y-88071119D01*
X173448902Y-87975880D02*
X173401283Y-88023500D01*
X173401283Y-88023500D02*
X173258426Y-88071119D01*
X173258426Y-88071119D02*
X173163188Y-88071119D01*
X173163188Y-88071119D02*
X173020331Y-88023500D01*
X173020331Y-88023500D02*
X172925093Y-87928261D01*
X172925093Y-87928261D02*
X172877474Y-87833023D01*
X172877474Y-87833023D02*
X172829855Y-87642547D01*
X172829855Y-87642547D02*
X172829855Y-87499690D01*
X172829855Y-87499690D02*
X172877474Y-87309214D01*
X172877474Y-87309214D02*
X172925093Y-87213976D01*
X172925093Y-87213976D02*
X173020331Y-87118738D01*
X173020331Y-87118738D02*
X173163188Y-87071119D01*
X173163188Y-87071119D02*
X173258426Y-87071119D01*
X173258426Y-87071119D02*
X173401283Y-87118738D01*
X173401283Y-87118738D02*
X173448902Y-87166357D01*
X173782236Y-87071119D02*
X174401283Y-87071119D01*
X174401283Y-87071119D02*
X174067950Y-87452071D01*
X174067950Y-87452071D02*
X174210807Y-87452071D01*
X174210807Y-87452071D02*
X174306045Y-87499690D01*
X174306045Y-87499690D02*
X174353664Y-87547309D01*
X174353664Y-87547309D02*
X174401283Y-87642547D01*
X174401283Y-87642547D02*
X174401283Y-87880642D01*
X174401283Y-87880642D02*
X174353664Y-87975880D01*
X174353664Y-87975880D02*
X174306045Y-88023500D01*
X174306045Y-88023500D02*
X174210807Y-88071119D01*
X174210807Y-88071119D02*
X173925093Y-88071119D01*
X173925093Y-88071119D02*
X173829855Y-88023500D01*
X173829855Y-88023500D02*
X173782236Y-87975880D01*
X170972712Y-90385404D02*
X171448902Y-90385404D01*
X170877474Y-90671119D02*
X171210807Y-89671119D01*
X171210807Y-89671119D02*
X171544140Y-90671119D01*
X171877474Y-90671119D02*
X171877474Y-89671119D01*
X171877474Y-89671119D02*
X172115569Y-89671119D01*
X172115569Y-89671119D02*
X172258426Y-89718738D01*
X172258426Y-89718738D02*
X172353664Y-89813976D01*
X172353664Y-89813976D02*
X172401283Y-89909214D01*
X172401283Y-89909214D02*
X172448902Y-90099690D01*
X172448902Y-90099690D02*
X172448902Y-90242547D01*
X172448902Y-90242547D02*
X172401283Y-90433023D01*
X172401283Y-90433023D02*
X172353664Y-90528261D01*
X172353664Y-90528261D02*
X172258426Y-90623500D01*
X172258426Y-90623500D02*
X172115569Y-90671119D01*
X172115569Y-90671119D02*
X171877474Y-90671119D01*
X173448902Y-90575880D02*
X173401283Y-90623500D01*
X173401283Y-90623500D02*
X173258426Y-90671119D01*
X173258426Y-90671119D02*
X173163188Y-90671119D01*
X173163188Y-90671119D02*
X173020331Y-90623500D01*
X173020331Y-90623500D02*
X172925093Y-90528261D01*
X172925093Y-90528261D02*
X172877474Y-90433023D01*
X172877474Y-90433023D02*
X172829855Y-90242547D01*
X172829855Y-90242547D02*
X172829855Y-90099690D01*
X172829855Y-90099690D02*
X172877474Y-89909214D01*
X172877474Y-89909214D02*
X172925093Y-89813976D01*
X172925093Y-89813976D02*
X173020331Y-89718738D01*
X173020331Y-89718738D02*
X173163188Y-89671119D01*
X173163188Y-89671119D02*
X173258426Y-89671119D01*
X173258426Y-89671119D02*
X173401283Y-89718738D01*
X173401283Y-89718738D02*
X173448902Y-89766357D01*
X173829855Y-89766357D02*
X173877474Y-89718738D01*
X173877474Y-89718738D02*
X173972712Y-89671119D01*
X173972712Y-89671119D02*
X174210807Y-89671119D01*
X174210807Y-89671119D02*
X174306045Y-89718738D01*
X174306045Y-89718738D02*
X174353664Y-89766357D01*
X174353664Y-89766357D02*
X174401283Y-89861595D01*
X174401283Y-89861595D02*
X174401283Y-89956833D01*
X174401283Y-89956833D02*
X174353664Y-90099690D01*
X174353664Y-90099690D02*
X173782236Y-90671119D01*
X173782236Y-90671119D02*
X174401283Y-90671119D01*
X170972712Y-92785404D02*
X171448902Y-92785404D01*
X170877474Y-93071119D02*
X171210807Y-92071119D01*
X171210807Y-92071119D02*
X171544140Y-93071119D01*
X171877474Y-93071119D02*
X171877474Y-92071119D01*
X171877474Y-92071119D02*
X172115569Y-92071119D01*
X172115569Y-92071119D02*
X172258426Y-92118738D01*
X172258426Y-92118738D02*
X172353664Y-92213976D01*
X172353664Y-92213976D02*
X172401283Y-92309214D01*
X172401283Y-92309214D02*
X172448902Y-92499690D01*
X172448902Y-92499690D02*
X172448902Y-92642547D01*
X172448902Y-92642547D02*
X172401283Y-92833023D01*
X172401283Y-92833023D02*
X172353664Y-92928261D01*
X172353664Y-92928261D02*
X172258426Y-93023500D01*
X172258426Y-93023500D02*
X172115569Y-93071119D01*
X172115569Y-93071119D02*
X171877474Y-93071119D01*
X173448902Y-92975880D02*
X173401283Y-93023500D01*
X173401283Y-93023500D02*
X173258426Y-93071119D01*
X173258426Y-93071119D02*
X173163188Y-93071119D01*
X173163188Y-93071119D02*
X173020331Y-93023500D01*
X173020331Y-93023500D02*
X172925093Y-92928261D01*
X172925093Y-92928261D02*
X172877474Y-92833023D01*
X172877474Y-92833023D02*
X172829855Y-92642547D01*
X172829855Y-92642547D02*
X172829855Y-92499690D01*
X172829855Y-92499690D02*
X172877474Y-92309214D01*
X172877474Y-92309214D02*
X172925093Y-92213976D01*
X172925093Y-92213976D02*
X173020331Y-92118738D01*
X173020331Y-92118738D02*
X173163188Y-92071119D01*
X173163188Y-92071119D02*
X173258426Y-92071119D01*
X173258426Y-92071119D02*
X173401283Y-92118738D01*
X173401283Y-92118738D02*
X173448902Y-92166357D01*
X174401283Y-93071119D02*
X173829855Y-93071119D01*
X174115569Y-93071119D02*
X174115569Y-92071119D01*
X174115569Y-92071119D02*
X174020331Y-92213976D01*
X174020331Y-92213976D02*
X173925093Y-92309214D01*
X173925093Y-92309214D02*
X173829855Y-92356833D01*
X170972712Y-95385404D02*
X171448902Y-95385404D01*
X170877474Y-95671119D02*
X171210807Y-94671119D01*
X171210807Y-94671119D02*
X171544140Y-95671119D01*
X171877474Y-95671119D02*
X171877474Y-94671119D01*
X171877474Y-94671119D02*
X172115569Y-94671119D01*
X172115569Y-94671119D02*
X172258426Y-94718738D01*
X172258426Y-94718738D02*
X172353664Y-94813976D01*
X172353664Y-94813976D02*
X172401283Y-94909214D01*
X172401283Y-94909214D02*
X172448902Y-95099690D01*
X172448902Y-95099690D02*
X172448902Y-95242547D01*
X172448902Y-95242547D02*
X172401283Y-95433023D01*
X172401283Y-95433023D02*
X172353664Y-95528261D01*
X172353664Y-95528261D02*
X172258426Y-95623500D01*
X172258426Y-95623500D02*
X172115569Y-95671119D01*
X172115569Y-95671119D02*
X171877474Y-95671119D01*
X173448902Y-95575880D02*
X173401283Y-95623500D01*
X173401283Y-95623500D02*
X173258426Y-95671119D01*
X173258426Y-95671119D02*
X173163188Y-95671119D01*
X173163188Y-95671119D02*
X173020331Y-95623500D01*
X173020331Y-95623500D02*
X172925093Y-95528261D01*
X172925093Y-95528261D02*
X172877474Y-95433023D01*
X172877474Y-95433023D02*
X172829855Y-95242547D01*
X172829855Y-95242547D02*
X172829855Y-95099690D01*
X172829855Y-95099690D02*
X172877474Y-94909214D01*
X172877474Y-94909214D02*
X172925093Y-94813976D01*
X172925093Y-94813976D02*
X173020331Y-94718738D01*
X173020331Y-94718738D02*
X173163188Y-94671119D01*
X173163188Y-94671119D02*
X173258426Y-94671119D01*
X173258426Y-94671119D02*
X173401283Y-94718738D01*
X173401283Y-94718738D02*
X173448902Y-94766357D01*
X174067950Y-94671119D02*
X174163188Y-94671119D01*
X174163188Y-94671119D02*
X174258426Y-94718738D01*
X174258426Y-94718738D02*
X174306045Y-94766357D01*
X174306045Y-94766357D02*
X174353664Y-94861595D01*
X174353664Y-94861595D02*
X174401283Y-95052071D01*
X174401283Y-95052071D02*
X174401283Y-95290166D01*
X174401283Y-95290166D02*
X174353664Y-95480642D01*
X174353664Y-95480642D02*
X174306045Y-95575880D01*
X174306045Y-95575880D02*
X174258426Y-95623500D01*
X174258426Y-95623500D02*
X174163188Y-95671119D01*
X174163188Y-95671119D02*
X174067950Y-95671119D01*
X174067950Y-95671119D02*
X173972712Y-95623500D01*
X173972712Y-95623500D02*
X173925093Y-95575880D01*
X173925093Y-95575880D02*
X173877474Y-95480642D01*
X173877474Y-95480642D02*
X173829855Y-95290166D01*
X173829855Y-95290166D02*
X173829855Y-95052071D01*
X173829855Y-95052071D02*
X173877474Y-94861595D01*
X173877474Y-94861595D02*
X173925093Y-94766357D01*
X173925093Y-94766357D02*
X173972712Y-94718738D01*
X173972712Y-94718738D02*
X174067950Y-94671119D01*
D13*
X125602568Y-64564619D02*
X125602568Y-63564619D01*
X125602568Y-63564619D02*
X125983520Y-63564619D01*
X125983520Y-63564619D02*
X126078758Y-63612238D01*
X126078758Y-63612238D02*
X126126377Y-63659857D01*
X126126377Y-63659857D02*
X126173996Y-63755095D01*
X126173996Y-63755095D02*
X126173996Y-63897952D01*
X126173996Y-63897952D02*
X126126377Y-63993190D01*
X126126377Y-63993190D02*
X126078758Y-64040809D01*
X126078758Y-64040809D02*
X125983520Y-64088428D01*
X125983520Y-64088428D02*
X125602568Y-64088428D01*
X126507330Y-63564619D02*
X126745425Y-64564619D01*
X126745425Y-64564619D02*
X126935901Y-63850333D01*
X126935901Y-63850333D02*
X127126377Y-64564619D01*
X127126377Y-64564619D02*
X127364473Y-63564619D01*
X127745425Y-64564619D02*
X127745425Y-63564619D01*
X127745425Y-63564619D02*
X128078758Y-64278904D01*
X128078758Y-64278904D02*
X128412091Y-63564619D01*
X128412091Y-63564619D02*
X128412091Y-64564619D01*
D11*
X127154510Y-61329400D02*
X128297368Y-61329400D01*
X127725939Y-61900828D02*
X127725939Y-60757971D01*
X127054510Y-58929400D02*
X128197368Y-58929400D01*
D12*
X166184690Y-56713002D02*
X166208500Y-56736811D01*
X166208500Y-56736811D02*
X166232309Y-56808240D01*
X166232309Y-56808240D02*
X166232309Y-56855859D01*
X166232309Y-56855859D02*
X166208500Y-56927287D01*
X166208500Y-56927287D02*
X166160880Y-56974906D01*
X166160880Y-56974906D02*
X166113261Y-56998716D01*
X166113261Y-56998716D02*
X166018023Y-57022525D01*
X166018023Y-57022525D02*
X165946595Y-57022525D01*
X165946595Y-57022525D02*
X165851357Y-56998716D01*
X165851357Y-56998716D02*
X165803738Y-56974906D01*
X165803738Y-56974906D02*
X165756119Y-56927287D01*
X165756119Y-56927287D02*
X165732309Y-56855859D01*
X165732309Y-56855859D02*
X165732309Y-56808240D01*
X165732309Y-56808240D02*
X165756119Y-56736811D01*
X165756119Y-56736811D02*
X165779928Y-56713002D01*
X166232309Y-56498716D02*
X165732309Y-56498716D01*
X165970404Y-56498716D02*
X165970404Y-56213002D01*
X166232309Y-56213002D02*
X165732309Y-56213002D01*
X166232309Y-55713001D02*
X166232309Y-55998715D01*
X166232309Y-55855858D02*
X165732309Y-55855858D01*
X165732309Y-55855858D02*
X165803738Y-55903477D01*
X165803738Y-55903477D02*
X165851357Y-55951096D01*
X165851357Y-55951096D02*
X165875166Y-55998715D01*
X165732309Y-55260621D02*
X165732309Y-55498716D01*
X165732309Y-55498716D02*
X165970404Y-55522525D01*
X165970404Y-55522525D02*
X165946595Y-55498716D01*
X165946595Y-55498716D02*
X165922785Y-55451097D01*
X165922785Y-55451097D02*
X165922785Y-55332049D01*
X165922785Y-55332049D02*
X165946595Y-55284430D01*
X165946595Y-55284430D02*
X165970404Y-55260621D01*
X165970404Y-55260621D02*
X166018023Y-55236811D01*
X166018023Y-55236811D02*
X166137071Y-55236811D01*
X166137071Y-55236811D02*
X166184690Y-55260621D01*
X166184690Y-55260621D02*
X166208500Y-55284430D01*
X166208500Y-55284430D02*
X166232309Y-55332049D01*
X166232309Y-55332049D02*
X166232309Y-55451097D01*
X166232309Y-55451097D02*
X166208500Y-55498716D01*
X166208500Y-55498716D02*
X166184690Y-55522525D01*
X163684690Y-56713002D02*
X163708500Y-56736811D01*
X163708500Y-56736811D02*
X163732309Y-56808240D01*
X163732309Y-56808240D02*
X163732309Y-56855859D01*
X163732309Y-56855859D02*
X163708500Y-56927287D01*
X163708500Y-56927287D02*
X163660880Y-56974906D01*
X163660880Y-56974906D02*
X163613261Y-56998716D01*
X163613261Y-56998716D02*
X163518023Y-57022525D01*
X163518023Y-57022525D02*
X163446595Y-57022525D01*
X163446595Y-57022525D02*
X163351357Y-56998716D01*
X163351357Y-56998716D02*
X163303738Y-56974906D01*
X163303738Y-56974906D02*
X163256119Y-56927287D01*
X163256119Y-56927287D02*
X163232309Y-56855859D01*
X163232309Y-56855859D02*
X163232309Y-56808240D01*
X163232309Y-56808240D02*
X163256119Y-56736811D01*
X163256119Y-56736811D02*
X163279928Y-56713002D01*
X163732309Y-56498716D02*
X163232309Y-56498716D01*
X163470404Y-56498716D02*
X163470404Y-56213002D01*
X163732309Y-56213002D02*
X163232309Y-56213002D01*
X163732309Y-55713001D02*
X163732309Y-55998715D01*
X163732309Y-55855858D02*
X163232309Y-55855858D01*
X163232309Y-55855858D02*
X163303738Y-55903477D01*
X163303738Y-55903477D02*
X163351357Y-55951096D01*
X163351357Y-55951096D02*
X163375166Y-55998715D01*
X163398976Y-55284430D02*
X163732309Y-55284430D01*
X163208500Y-55403478D02*
X163565642Y-55522525D01*
X163565642Y-55522525D02*
X163565642Y-55213002D01*
X161084690Y-56713002D02*
X161108500Y-56736811D01*
X161108500Y-56736811D02*
X161132309Y-56808240D01*
X161132309Y-56808240D02*
X161132309Y-56855859D01*
X161132309Y-56855859D02*
X161108500Y-56927287D01*
X161108500Y-56927287D02*
X161060880Y-56974906D01*
X161060880Y-56974906D02*
X161013261Y-56998716D01*
X161013261Y-56998716D02*
X160918023Y-57022525D01*
X160918023Y-57022525D02*
X160846595Y-57022525D01*
X160846595Y-57022525D02*
X160751357Y-56998716D01*
X160751357Y-56998716D02*
X160703738Y-56974906D01*
X160703738Y-56974906D02*
X160656119Y-56927287D01*
X160656119Y-56927287D02*
X160632309Y-56855859D01*
X160632309Y-56855859D02*
X160632309Y-56808240D01*
X160632309Y-56808240D02*
X160656119Y-56736811D01*
X160656119Y-56736811D02*
X160679928Y-56713002D01*
X161132309Y-56498716D02*
X160632309Y-56498716D01*
X160870404Y-56498716D02*
X160870404Y-56213002D01*
X161132309Y-56213002D02*
X160632309Y-56213002D01*
X161132309Y-55713001D02*
X161132309Y-55998715D01*
X161132309Y-55855858D02*
X160632309Y-55855858D01*
X160632309Y-55855858D02*
X160703738Y-55903477D01*
X160703738Y-55903477D02*
X160751357Y-55951096D01*
X160751357Y-55951096D02*
X160775166Y-55998715D01*
X160632309Y-55546335D02*
X160632309Y-55236811D01*
X160632309Y-55236811D02*
X160822785Y-55403478D01*
X160822785Y-55403478D02*
X160822785Y-55332049D01*
X160822785Y-55332049D02*
X160846595Y-55284430D01*
X160846595Y-55284430D02*
X160870404Y-55260621D01*
X160870404Y-55260621D02*
X160918023Y-55236811D01*
X160918023Y-55236811D02*
X161037071Y-55236811D01*
X161037071Y-55236811D02*
X161084690Y-55260621D01*
X161084690Y-55260621D02*
X161108500Y-55284430D01*
X161108500Y-55284430D02*
X161132309Y-55332049D01*
X161132309Y-55332049D02*
X161132309Y-55474906D01*
X161132309Y-55474906D02*
X161108500Y-55522525D01*
X161108500Y-55522525D02*
X161084690Y-55546335D01*
X158684690Y-56713002D02*
X158708500Y-56736811D01*
X158708500Y-56736811D02*
X158732309Y-56808240D01*
X158732309Y-56808240D02*
X158732309Y-56855859D01*
X158732309Y-56855859D02*
X158708500Y-56927287D01*
X158708500Y-56927287D02*
X158660880Y-56974906D01*
X158660880Y-56974906D02*
X158613261Y-56998716D01*
X158613261Y-56998716D02*
X158518023Y-57022525D01*
X158518023Y-57022525D02*
X158446595Y-57022525D01*
X158446595Y-57022525D02*
X158351357Y-56998716D01*
X158351357Y-56998716D02*
X158303738Y-56974906D01*
X158303738Y-56974906D02*
X158256119Y-56927287D01*
X158256119Y-56927287D02*
X158232309Y-56855859D01*
X158232309Y-56855859D02*
X158232309Y-56808240D01*
X158232309Y-56808240D02*
X158256119Y-56736811D01*
X158256119Y-56736811D02*
X158279928Y-56713002D01*
X158732309Y-56498716D02*
X158232309Y-56498716D01*
X158470404Y-56498716D02*
X158470404Y-56213002D01*
X158732309Y-56213002D02*
X158232309Y-56213002D01*
X158732309Y-55713001D02*
X158732309Y-55998715D01*
X158732309Y-55855858D02*
X158232309Y-55855858D01*
X158232309Y-55855858D02*
X158303738Y-55903477D01*
X158303738Y-55903477D02*
X158351357Y-55951096D01*
X158351357Y-55951096D02*
X158375166Y-55998715D01*
X158279928Y-55522525D02*
X158256119Y-55498716D01*
X158256119Y-55498716D02*
X158232309Y-55451097D01*
X158232309Y-55451097D02*
X158232309Y-55332049D01*
X158232309Y-55332049D02*
X158256119Y-55284430D01*
X158256119Y-55284430D02*
X158279928Y-55260621D01*
X158279928Y-55260621D02*
X158327547Y-55236811D01*
X158327547Y-55236811D02*
X158375166Y-55236811D01*
X158375166Y-55236811D02*
X158446595Y-55260621D01*
X158446595Y-55260621D02*
X158732309Y-55546335D01*
X158732309Y-55546335D02*
X158732309Y-55236811D01*
X156084690Y-56713002D02*
X156108500Y-56736811D01*
X156108500Y-56736811D02*
X156132309Y-56808240D01*
X156132309Y-56808240D02*
X156132309Y-56855859D01*
X156132309Y-56855859D02*
X156108500Y-56927287D01*
X156108500Y-56927287D02*
X156060880Y-56974906D01*
X156060880Y-56974906D02*
X156013261Y-56998716D01*
X156013261Y-56998716D02*
X155918023Y-57022525D01*
X155918023Y-57022525D02*
X155846595Y-57022525D01*
X155846595Y-57022525D02*
X155751357Y-56998716D01*
X155751357Y-56998716D02*
X155703738Y-56974906D01*
X155703738Y-56974906D02*
X155656119Y-56927287D01*
X155656119Y-56927287D02*
X155632309Y-56855859D01*
X155632309Y-56855859D02*
X155632309Y-56808240D01*
X155632309Y-56808240D02*
X155656119Y-56736811D01*
X155656119Y-56736811D02*
X155679928Y-56713002D01*
X156132309Y-56498716D02*
X155632309Y-56498716D01*
X155870404Y-56498716D02*
X155870404Y-56213002D01*
X156132309Y-56213002D02*
X155632309Y-56213002D01*
X156132309Y-55713001D02*
X156132309Y-55998715D01*
X156132309Y-55855858D02*
X155632309Y-55855858D01*
X155632309Y-55855858D02*
X155703738Y-55903477D01*
X155703738Y-55903477D02*
X155751357Y-55951096D01*
X155751357Y-55951096D02*
X155775166Y-55998715D01*
X156132309Y-55236811D02*
X156132309Y-55522525D01*
X156132309Y-55379668D02*
X155632309Y-55379668D01*
X155632309Y-55379668D02*
X155703738Y-55427287D01*
X155703738Y-55427287D02*
X155751357Y-55474906D01*
X155751357Y-55474906D02*
X155775166Y-55522525D01*
X153584690Y-56713002D02*
X153608500Y-56736811D01*
X153608500Y-56736811D02*
X153632309Y-56808240D01*
X153632309Y-56808240D02*
X153632309Y-56855859D01*
X153632309Y-56855859D02*
X153608500Y-56927287D01*
X153608500Y-56927287D02*
X153560880Y-56974906D01*
X153560880Y-56974906D02*
X153513261Y-56998716D01*
X153513261Y-56998716D02*
X153418023Y-57022525D01*
X153418023Y-57022525D02*
X153346595Y-57022525D01*
X153346595Y-57022525D02*
X153251357Y-56998716D01*
X153251357Y-56998716D02*
X153203738Y-56974906D01*
X153203738Y-56974906D02*
X153156119Y-56927287D01*
X153156119Y-56927287D02*
X153132309Y-56855859D01*
X153132309Y-56855859D02*
X153132309Y-56808240D01*
X153132309Y-56808240D02*
X153156119Y-56736811D01*
X153156119Y-56736811D02*
X153179928Y-56713002D01*
X153632309Y-56498716D02*
X153132309Y-56498716D01*
X153370404Y-56498716D02*
X153370404Y-56213002D01*
X153632309Y-56213002D02*
X153132309Y-56213002D01*
X153632309Y-55713001D02*
X153632309Y-55998715D01*
X153632309Y-55855858D02*
X153132309Y-55855858D01*
X153132309Y-55855858D02*
X153203738Y-55903477D01*
X153203738Y-55903477D02*
X153251357Y-55951096D01*
X153251357Y-55951096D02*
X153275166Y-55998715D01*
X153132309Y-55403478D02*
X153132309Y-55355859D01*
X153132309Y-55355859D02*
X153156119Y-55308240D01*
X153156119Y-55308240D02*
X153179928Y-55284430D01*
X153179928Y-55284430D02*
X153227547Y-55260621D01*
X153227547Y-55260621D02*
X153322785Y-55236811D01*
X153322785Y-55236811D02*
X153441833Y-55236811D01*
X153441833Y-55236811D02*
X153537071Y-55260621D01*
X153537071Y-55260621D02*
X153584690Y-55284430D01*
X153584690Y-55284430D02*
X153608500Y-55308240D01*
X153608500Y-55308240D02*
X153632309Y-55355859D01*
X153632309Y-55355859D02*
X153632309Y-55403478D01*
X153632309Y-55403478D02*
X153608500Y-55451097D01*
X153608500Y-55451097D02*
X153584690Y-55474906D01*
X153584690Y-55474906D02*
X153537071Y-55498716D01*
X153537071Y-55498716D02*
X153441833Y-55522525D01*
X153441833Y-55522525D02*
X153322785Y-55522525D01*
X153322785Y-55522525D02*
X153227547Y-55498716D01*
X153227547Y-55498716D02*
X153179928Y-55474906D01*
X153179928Y-55474906D02*
X153156119Y-55451097D01*
X153156119Y-55451097D02*
X153132309Y-55403478D01*
X150984690Y-56713002D02*
X151008500Y-56736811D01*
X151008500Y-56736811D02*
X151032309Y-56808240D01*
X151032309Y-56808240D02*
X151032309Y-56855859D01*
X151032309Y-56855859D02*
X151008500Y-56927287D01*
X151008500Y-56927287D02*
X150960880Y-56974906D01*
X150960880Y-56974906D02*
X150913261Y-56998716D01*
X150913261Y-56998716D02*
X150818023Y-57022525D01*
X150818023Y-57022525D02*
X150746595Y-57022525D01*
X150746595Y-57022525D02*
X150651357Y-56998716D01*
X150651357Y-56998716D02*
X150603738Y-56974906D01*
X150603738Y-56974906D02*
X150556119Y-56927287D01*
X150556119Y-56927287D02*
X150532309Y-56855859D01*
X150532309Y-56855859D02*
X150532309Y-56808240D01*
X150532309Y-56808240D02*
X150556119Y-56736811D01*
X150556119Y-56736811D02*
X150579928Y-56713002D01*
X151032309Y-56498716D02*
X150532309Y-56498716D01*
X150770404Y-56498716D02*
X150770404Y-56213002D01*
X151032309Y-56213002D02*
X150532309Y-56213002D01*
X151032309Y-55951096D02*
X151032309Y-55855858D01*
X151032309Y-55855858D02*
X151008500Y-55808239D01*
X151008500Y-55808239D02*
X150984690Y-55784430D01*
X150984690Y-55784430D02*
X150913261Y-55736811D01*
X150913261Y-55736811D02*
X150818023Y-55713001D01*
X150818023Y-55713001D02*
X150627547Y-55713001D01*
X150627547Y-55713001D02*
X150579928Y-55736811D01*
X150579928Y-55736811D02*
X150556119Y-55760620D01*
X150556119Y-55760620D02*
X150532309Y-55808239D01*
X150532309Y-55808239D02*
X150532309Y-55903477D01*
X150532309Y-55903477D02*
X150556119Y-55951096D01*
X150556119Y-55951096D02*
X150579928Y-55974906D01*
X150579928Y-55974906D02*
X150627547Y-55998715D01*
X150627547Y-55998715D02*
X150746595Y-55998715D01*
X150746595Y-55998715D02*
X150794214Y-55974906D01*
X150794214Y-55974906D02*
X150818023Y-55951096D01*
X150818023Y-55951096D02*
X150841833Y-55903477D01*
X150841833Y-55903477D02*
X150841833Y-55808239D01*
X150841833Y-55808239D02*
X150818023Y-55760620D01*
X150818023Y-55760620D02*
X150794214Y-55736811D01*
X150794214Y-55736811D02*
X150746595Y-55713001D01*
X148484690Y-56713002D02*
X148508500Y-56736811D01*
X148508500Y-56736811D02*
X148532309Y-56808240D01*
X148532309Y-56808240D02*
X148532309Y-56855859D01*
X148532309Y-56855859D02*
X148508500Y-56927287D01*
X148508500Y-56927287D02*
X148460880Y-56974906D01*
X148460880Y-56974906D02*
X148413261Y-56998716D01*
X148413261Y-56998716D02*
X148318023Y-57022525D01*
X148318023Y-57022525D02*
X148246595Y-57022525D01*
X148246595Y-57022525D02*
X148151357Y-56998716D01*
X148151357Y-56998716D02*
X148103738Y-56974906D01*
X148103738Y-56974906D02*
X148056119Y-56927287D01*
X148056119Y-56927287D02*
X148032309Y-56855859D01*
X148032309Y-56855859D02*
X148032309Y-56808240D01*
X148032309Y-56808240D02*
X148056119Y-56736811D01*
X148056119Y-56736811D02*
X148079928Y-56713002D01*
X148532309Y-56498716D02*
X148032309Y-56498716D01*
X148270404Y-56498716D02*
X148270404Y-56213002D01*
X148532309Y-56213002D02*
X148032309Y-56213002D01*
X148246595Y-55903477D02*
X148222785Y-55951096D01*
X148222785Y-55951096D02*
X148198976Y-55974906D01*
X148198976Y-55974906D02*
X148151357Y-55998715D01*
X148151357Y-55998715D02*
X148127547Y-55998715D01*
X148127547Y-55998715D02*
X148079928Y-55974906D01*
X148079928Y-55974906D02*
X148056119Y-55951096D01*
X148056119Y-55951096D02*
X148032309Y-55903477D01*
X148032309Y-55903477D02*
X148032309Y-55808239D01*
X148032309Y-55808239D02*
X148056119Y-55760620D01*
X148056119Y-55760620D02*
X148079928Y-55736811D01*
X148079928Y-55736811D02*
X148127547Y-55713001D01*
X148127547Y-55713001D02*
X148151357Y-55713001D01*
X148151357Y-55713001D02*
X148198976Y-55736811D01*
X148198976Y-55736811D02*
X148222785Y-55760620D01*
X148222785Y-55760620D02*
X148246595Y-55808239D01*
X148246595Y-55808239D02*
X148246595Y-55903477D01*
X148246595Y-55903477D02*
X148270404Y-55951096D01*
X148270404Y-55951096D02*
X148294214Y-55974906D01*
X148294214Y-55974906D02*
X148341833Y-55998715D01*
X148341833Y-55998715D02*
X148437071Y-55998715D01*
X148437071Y-55998715D02*
X148484690Y-55974906D01*
X148484690Y-55974906D02*
X148508500Y-55951096D01*
X148508500Y-55951096D02*
X148532309Y-55903477D01*
X148532309Y-55903477D02*
X148532309Y-55808239D01*
X148532309Y-55808239D02*
X148508500Y-55760620D01*
X148508500Y-55760620D02*
X148484690Y-55736811D01*
X148484690Y-55736811D02*
X148437071Y-55713001D01*
X148437071Y-55713001D02*
X148341833Y-55713001D01*
X148341833Y-55713001D02*
X148294214Y-55736811D01*
X148294214Y-55736811D02*
X148270404Y-55760620D01*
X148270404Y-55760620D02*
X148246595Y-55808239D01*
X145884690Y-56713002D02*
X145908500Y-56736811D01*
X145908500Y-56736811D02*
X145932309Y-56808240D01*
X145932309Y-56808240D02*
X145932309Y-56855859D01*
X145932309Y-56855859D02*
X145908500Y-56927287D01*
X145908500Y-56927287D02*
X145860880Y-56974906D01*
X145860880Y-56974906D02*
X145813261Y-56998716D01*
X145813261Y-56998716D02*
X145718023Y-57022525D01*
X145718023Y-57022525D02*
X145646595Y-57022525D01*
X145646595Y-57022525D02*
X145551357Y-56998716D01*
X145551357Y-56998716D02*
X145503738Y-56974906D01*
X145503738Y-56974906D02*
X145456119Y-56927287D01*
X145456119Y-56927287D02*
X145432309Y-56855859D01*
X145432309Y-56855859D02*
X145432309Y-56808240D01*
X145432309Y-56808240D02*
X145456119Y-56736811D01*
X145456119Y-56736811D02*
X145479928Y-56713002D01*
X145932309Y-56498716D02*
X145432309Y-56498716D01*
X145670404Y-56498716D02*
X145670404Y-56213002D01*
X145932309Y-56213002D02*
X145432309Y-56213002D01*
X145432309Y-56022525D02*
X145432309Y-55689192D01*
X145432309Y-55689192D02*
X145932309Y-55903477D01*
X143384690Y-56713002D02*
X143408500Y-56736811D01*
X143408500Y-56736811D02*
X143432309Y-56808240D01*
X143432309Y-56808240D02*
X143432309Y-56855859D01*
X143432309Y-56855859D02*
X143408500Y-56927287D01*
X143408500Y-56927287D02*
X143360880Y-56974906D01*
X143360880Y-56974906D02*
X143313261Y-56998716D01*
X143313261Y-56998716D02*
X143218023Y-57022525D01*
X143218023Y-57022525D02*
X143146595Y-57022525D01*
X143146595Y-57022525D02*
X143051357Y-56998716D01*
X143051357Y-56998716D02*
X143003738Y-56974906D01*
X143003738Y-56974906D02*
X142956119Y-56927287D01*
X142956119Y-56927287D02*
X142932309Y-56855859D01*
X142932309Y-56855859D02*
X142932309Y-56808240D01*
X142932309Y-56808240D02*
X142956119Y-56736811D01*
X142956119Y-56736811D02*
X142979928Y-56713002D01*
X143432309Y-56498716D02*
X142932309Y-56498716D01*
X143170404Y-56498716D02*
X143170404Y-56213002D01*
X143432309Y-56213002D02*
X142932309Y-56213002D01*
X142932309Y-55760620D02*
X142932309Y-55855858D01*
X142932309Y-55855858D02*
X142956119Y-55903477D01*
X142956119Y-55903477D02*
X142979928Y-55927287D01*
X142979928Y-55927287D02*
X143051357Y-55974906D01*
X143051357Y-55974906D02*
X143146595Y-55998715D01*
X143146595Y-55998715D02*
X143337071Y-55998715D01*
X143337071Y-55998715D02*
X143384690Y-55974906D01*
X143384690Y-55974906D02*
X143408500Y-55951096D01*
X143408500Y-55951096D02*
X143432309Y-55903477D01*
X143432309Y-55903477D02*
X143432309Y-55808239D01*
X143432309Y-55808239D02*
X143408500Y-55760620D01*
X143408500Y-55760620D02*
X143384690Y-55736811D01*
X143384690Y-55736811D02*
X143337071Y-55713001D01*
X143337071Y-55713001D02*
X143218023Y-55713001D01*
X143218023Y-55713001D02*
X143170404Y-55736811D01*
X143170404Y-55736811D02*
X143146595Y-55760620D01*
X143146595Y-55760620D02*
X143122785Y-55808239D01*
X143122785Y-55808239D02*
X143122785Y-55903477D01*
X143122785Y-55903477D02*
X143146595Y-55951096D01*
X143146595Y-55951096D02*
X143170404Y-55974906D01*
X143170404Y-55974906D02*
X143218023Y-55998715D01*
X140779718Y-56713002D02*
X140803528Y-56736811D01*
X140803528Y-56736811D02*
X140827337Y-56808240D01*
X140827337Y-56808240D02*
X140827337Y-56855859D01*
X140827337Y-56855859D02*
X140803528Y-56927287D01*
X140803528Y-56927287D02*
X140755908Y-56974906D01*
X140755908Y-56974906D02*
X140708289Y-56998716D01*
X140708289Y-56998716D02*
X140613051Y-57022525D01*
X140613051Y-57022525D02*
X140541623Y-57022525D01*
X140541623Y-57022525D02*
X140446385Y-56998716D01*
X140446385Y-56998716D02*
X140398766Y-56974906D01*
X140398766Y-56974906D02*
X140351147Y-56927287D01*
X140351147Y-56927287D02*
X140327337Y-56855859D01*
X140327337Y-56855859D02*
X140327337Y-56808240D01*
X140327337Y-56808240D02*
X140351147Y-56736811D01*
X140351147Y-56736811D02*
X140374956Y-56713002D01*
X140827337Y-56498716D02*
X140327337Y-56498716D01*
X140565432Y-56498716D02*
X140565432Y-56213002D01*
X140827337Y-56213002D02*
X140327337Y-56213002D01*
X140327337Y-55736811D02*
X140327337Y-55974906D01*
X140327337Y-55974906D02*
X140565432Y-55998715D01*
X140565432Y-55998715D02*
X140541623Y-55974906D01*
X140541623Y-55974906D02*
X140517813Y-55927287D01*
X140517813Y-55927287D02*
X140517813Y-55808239D01*
X140517813Y-55808239D02*
X140541623Y-55760620D01*
X140541623Y-55760620D02*
X140565432Y-55736811D01*
X140565432Y-55736811D02*
X140613051Y-55713001D01*
X140613051Y-55713001D02*
X140732099Y-55713001D01*
X140732099Y-55713001D02*
X140779718Y-55736811D01*
X140779718Y-55736811D02*
X140803528Y-55760620D01*
X140803528Y-55760620D02*
X140827337Y-55808239D01*
X140827337Y-55808239D02*
X140827337Y-55927287D01*
X140827337Y-55927287D02*
X140803528Y-55974906D01*
X140803528Y-55974906D02*
X140779718Y-55998715D01*
X138284690Y-56713002D02*
X138308500Y-56736811D01*
X138308500Y-56736811D02*
X138332309Y-56808240D01*
X138332309Y-56808240D02*
X138332309Y-56855859D01*
X138332309Y-56855859D02*
X138308500Y-56927287D01*
X138308500Y-56927287D02*
X138260880Y-56974906D01*
X138260880Y-56974906D02*
X138213261Y-56998716D01*
X138213261Y-56998716D02*
X138118023Y-57022525D01*
X138118023Y-57022525D02*
X138046595Y-57022525D01*
X138046595Y-57022525D02*
X137951357Y-56998716D01*
X137951357Y-56998716D02*
X137903738Y-56974906D01*
X137903738Y-56974906D02*
X137856119Y-56927287D01*
X137856119Y-56927287D02*
X137832309Y-56855859D01*
X137832309Y-56855859D02*
X137832309Y-56808240D01*
X137832309Y-56808240D02*
X137856119Y-56736811D01*
X137856119Y-56736811D02*
X137879928Y-56713002D01*
X138332309Y-56498716D02*
X137832309Y-56498716D01*
X138070404Y-56498716D02*
X138070404Y-56213002D01*
X138332309Y-56213002D02*
X137832309Y-56213002D01*
X137998976Y-55760620D02*
X138332309Y-55760620D01*
X137808500Y-55879668D02*
X138165642Y-55998715D01*
X138165642Y-55998715D02*
X138165642Y-55689192D01*
X135679718Y-56713002D02*
X135703528Y-56736811D01*
X135703528Y-56736811D02*
X135727337Y-56808240D01*
X135727337Y-56808240D02*
X135727337Y-56855859D01*
X135727337Y-56855859D02*
X135703528Y-56927287D01*
X135703528Y-56927287D02*
X135655908Y-56974906D01*
X135655908Y-56974906D02*
X135608289Y-56998716D01*
X135608289Y-56998716D02*
X135513051Y-57022525D01*
X135513051Y-57022525D02*
X135441623Y-57022525D01*
X135441623Y-57022525D02*
X135346385Y-56998716D01*
X135346385Y-56998716D02*
X135298766Y-56974906D01*
X135298766Y-56974906D02*
X135251147Y-56927287D01*
X135251147Y-56927287D02*
X135227337Y-56855859D01*
X135227337Y-56855859D02*
X135227337Y-56808240D01*
X135227337Y-56808240D02*
X135251147Y-56736811D01*
X135251147Y-56736811D02*
X135274956Y-56713002D01*
X135727337Y-56498716D02*
X135227337Y-56498716D01*
X135465432Y-56498716D02*
X135465432Y-56213002D01*
X135727337Y-56213002D02*
X135227337Y-56213002D01*
X135227337Y-56022525D02*
X135227337Y-55713001D01*
X135227337Y-55713001D02*
X135417813Y-55879668D01*
X135417813Y-55879668D02*
X135417813Y-55808239D01*
X135417813Y-55808239D02*
X135441623Y-55760620D01*
X135441623Y-55760620D02*
X135465432Y-55736811D01*
X135465432Y-55736811D02*
X135513051Y-55713001D01*
X135513051Y-55713001D02*
X135632099Y-55713001D01*
X135632099Y-55713001D02*
X135679718Y-55736811D01*
X135679718Y-55736811D02*
X135703528Y-55760620D01*
X135703528Y-55760620D02*
X135727337Y-55808239D01*
X135727337Y-55808239D02*
X135727337Y-55951096D01*
X135727337Y-55951096D02*
X135703528Y-55998715D01*
X135703528Y-55998715D02*
X135679718Y-56022525D01*
X133179718Y-56713002D02*
X133203528Y-56736811D01*
X133203528Y-56736811D02*
X133227337Y-56808240D01*
X133227337Y-56808240D02*
X133227337Y-56855859D01*
X133227337Y-56855859D02*
X133203528Y-56927287D01*
X133203528Y-56927287D02*
X133155908Y-56974906D01*
X133155908Y-56974906D02*
X133108289Y-56998716D01*
X133108289Y-56998716D02*
X133013051Y-57022525D01*
X133013051Y-57022525D02*
X132941623Y-57022525D01*
X132941623Y-57022525D02*
X132846385Y-56998716D01*
X132846385Y-56998716D02*
X132798766Y-56974906D01*
X132798766Y-56974906D02*
X132751147Y-56927287D01*
X132751147Y-56927287D02*
X132727337Y-56855859D01*
X132727337Y-56855859D02*
X132727337Y-56808240D01*
X132727337Y-56808240D02*
X132751147Y-56736811D01*
X132751147Y-56736811D02*
X132774956Y-56713002D01*
X133227337Y-56498716D02*
X132727337Y-56498716D01*
X132965432Y-56498716D02*
X132965432Y-56213002D01*
X133227337Y-56213002D02*
X132727337Y-56213002D01*
X132774956Y-55998715D02*
X132751147Y-55974906D01*
X132751147Y-55974906D02*
X132727337Y-55927287D01*
X132727337Y-55927287D02*
X132727337Y-55808239D01*
X132727337Y-55808239D02*
X132751147Y-55760620D01*
X132751147Y-55760620D02*
X132774956Y-55736811D01*
X132774956Y-55736811D02*
X132822575Y-55713001D01*
X132822575Y-55713001D02*
X132870194Y-55713001D01*
X132870194Y-55713001D02*
X132941623Y-55736811D01*
X132941623Y-55736811D02*
X133227337Y-56022525D01*
X133227337Y-56022525D02*
X133227337Y-55713001D01*
X130484690Y-56713002D02*
X130508500Y-56736811D01*
X130508500Y-56736811D02*
X130532309Y-56808240D01*
X130532309Y-56808240D02*
X130532309Y-56855859D01*
X130532309Y-56855859D02*
X130508500Y-56927287D01*
X130508500Y-56927287D02*
X130460880Y-56974906D01*
X130460880Y-56974906D02*
X130413261Y-56998716D01*
X130413261Y-56998716D02*
X130318023Y-57022525D01*
X130318023Y-57022525D02*
X130246595Y-57022525D01*
X130246595Y-57022525D02*
X130151357Y-56998716D01*
X130151357Y-56998716D02*
X130103738Y-56974906D01*
X130103738Y-56974906D02*
X130056119Y-56927287D01*
X130056119Y-56927287D02*
X130032309Y-56855859D01*
X130032309Y-56855859D02*
X130032309Y-56808240D01*
X130032309Y-56808240D02*
X130056119Y-56736811D01*
X130056119Y-56736811D02*
X130079928Y-56713002D01*
X130532309Y-56498716D02*
X130032309Y-56498716D01*
X130270404Y-56498716D02*
X130270404Y-56213002D01*
X130532309Y-56213002D02*
X130032309Y-56213002D01*
X130532309Y-55713001D02*
X130532309Y-55998715D01*
X130532309Y-55855858D02*
X130032309Y-55855858D01*
X130032309Y-55855858D02*
X130103738Y-55903477D01*
X130103738Y-55903477D02*
X130151357Y-55951096D01*
X130151357Y-55951096D02*
X130175166Y-55998715D01*
D14*
X168903339Y-56231180D02*
X168546196Y-56481180D01*
X168903339Y-56659751D02*
X168153339Y-56659751D01*
X168153339Y-56659751D02*
X168153339Y-56374037D01*
X168153339Y-56374037D02*
X168189053Y-56302608D01*
X168189053Y-56302608D02*
X168224767Y-56266894D01*
X168224767Y-56266894D02*
X168296196Y-56231180D01*
X168296196Y-56231180D02*
X168403339Y-56231180D01*
X168403339Y-56231180D02*
X168474767Y-56266894D01*
X168474767Y-56266894D02*
X168510482Y-56302608D01*
X168510482Y-56302608D02*
X168546196Y-56374037D01*
X168546196Y-56374037D02*
X168546196Y-56659751D01*
X168831910Y-55481180D02*
X168867625Y-55516894D01*
X168867625Y-55516894D02*
X168903339Y-55624037D01*
X168903339Y-55624037D02*
X168903339Y-55695465D01*
X168903339Y-55695465D02*
X168867625Y-55802608D01*
X168867625Y-55802608D02*
X168796196Y-55874037D01*
X168796196Y-55874037D02*
X168724767Y-55909751D01*
X168724767Y-55909751D02*
X168581910Y-55945465D01*
X168581910Y-55945465D02*
X168474767Y-55945465D01*
X168474767Y-55945465D02*
X168331910Y-55909751D01*
X168331910Y-55909751D02*
X168260482Y-55874037D01*
X168260482Y-55874037D02*
X168189053Y-55802608D01*
X168189053Y-55802608D02*
X168153339Y-55695465D01*
X168153339Y-55695465D02*
X168153339Y-55624037D01*
X168153339Y-55624037D02*
X168189053Y-55516894D01*
X168189053Y-55516894D02*
X168224767Y-55481180D01*
D15*
X125877800Y-74989160D02*
X125830180Y-75132017D01*
X125830180Y-75132017D02*
X125830180Y-75370112D01*
X125830180Y-75370112D02*
X125877800Y-75465350D01*
X125877800Y-75465350D02*
X125925419Y-75512969D01*
X125925419Y-75512969D02*
X126020657Y-75560588D01*
X126020657Y-75560588D02*
X126115895Y-75560588D01*
X126115895Y-75560588D02*
X126211133Y-75512969D01*
X126211133Y-75512969D02*
X126258752Y-75465350D01*
X126258752Y-75465350D02*
X126306371Y-75370112D01*
X126306371Y-75370112D02*
X126353990Y-75179636D01*
X126353990Y-75179636D02*
X126401609Y-75084398D01*
X126401609Y-75084398D02*
X126449228Y-75036779D01*
X126449228Y-75036779D02*
X126544466Y-74989160D01*
X126544466Y-74989160D02*
X126639704Y-74989160D01*
X126639704Y-74989160D02*
X126734942Y-75036779D01*
X126734942Y-75036779D02*
X126782561Y-75084398D01*
X126782561Y-75084398D02*
X126830180Y-75179636D01*
X126830180Y-75179636D02*
X126830180Y-75417731D01*
X126830180Y-75417731D02*
X126782561Y-75560588D01*
X126830180Y-75893922D02*
X125830180Y-76132017D01*
X125830180Y-76132017D02*
X126544466Y-76322493D01*
X126544466Y-76322493D02*
X125830180Y-76512969D01*
X125830180Y-76512969D02*
X126830180Y-76751065D01*
X125830180Y-77132017D02*
X126830180Y-77132017D01*
X126830180Y-77132017D02*
X126830180Y-77370112D01*
X126830180Y-77370112D02*
X126782561Y-77512969D01*
X126782561Y-77512969D02*
X126687323Y-77608207D01*
X126687323Y-77608207D02*
X126592085Y-77655826D01*
X126592085Y-77655826D02*
X126401609Y-77703445D01*
X126401609Y-77703445D02*
X126258752Y-77703445D01*
X126258752Y-77703445D02*
X126068276Y-77655826D01*
X126068276Y-77655826D02*
X125973038Y-77608207D01*
X125973038Y-77608207D02*
X125877800Y-77512969D01*
X125877800Y-77512969D02*
X125830180Y-77370112D01*
X125830180Y-77370112D02*
X125830180Y-77132017D01*
D11*
X125799171Y-94354510D02*
X127299171Y-94354510D01*
X127156314Y-94997368D02*
X127227742Y-95068796D01*
X127227742Y-95068796D02*
X127299171Y-95211654D01*
X127299171Y-95211654D02*
X127299171Y-95568796D01*
X127299171Y-95568796D02*
X127227742Y-95711654D01*
X127227742Y-95711654D02*
X127156314Y-95783082D01*
X127156314Y-95783082D02*
X127013457Y-95854511D01*
X127013457Y-95854511D02*
X126870600Y-95854511D01*
X126870600Y-95854511D02*
X126656314Y-95783082D01*
X126656314Y-95783082D02*
X125799171Y-94925939D01*
X125799171Y-94925939D02*
X125799171Y-95854511D01*
X125942028Y-97354510D02*
X125870600Y-97283082D01*
X125870600Y-97283082D02*
X125799171Y-97068796D01*
X125799171Y-97068796D02*
X125799171Y-96925939D01*
X125799171Y-96925939D02*
X125870600Y-96711653D01*
X125870600Y-96711653D02*
X126013457Y-96568796D01*
X126013457Y-96568796D02*
X126156314Y-96497367D01*
X126156314Y-96497367D02*
X126442028Y-96425939D01*
X126442028Y-96425939D02*
X126656314Y-96425939D01*
X126656314Y-96425939D02*
X126942028Y-96497367D01*
X126942028Y-96497367D02*
X127084885Y-96568796D01*
X127084885Y-96568796D02*
X127227742Y-96711653D01*
X127227742Y-96711653D02*
X127299171Y-96925939D01*
X127299171Y-96925939D02*
X127299171Y-97068796D01*
X127299171Y-97068796D02*
X127227742Y-97283082D01*
X127227742Y-97283082D02*
X127156314Y-97354510D01*
X127499171Y-82340225D02*
X127499171Y-83197368D01*
X125999171Y-82768796D02*
X127499171Y-82768796D01*
X126784885Y-83697367D02*
X126784885Y-84197367D01*
X125999171Y-84411653D02*
X125999171Y-83697367D01*
X125999171Y-83697367D02*
X127499171Y-83697367D01*
X127499171Y-83697367D02*
X127499171Y-84411653D01*
X125999171Y-85768796D02*
X125999171Y-85054510D01*
X125999171Y-85054510D02*
X127499171Y-85054510D01*
X126784885Y-86268796D02*
X126784885Y-86768796D01*
X125999171Y-86983082D02*
X125999171Y-86268796D01*
X125999171Y-86268796D02*
X127499171Y-86268796D01*
X127499171Y-86268796D02*
X127499171Y-86983082D01*
X125999171Y-87625939D02*
X127499171Y-87625939D01*
X127499171Y-87625939D02*
X126427742Y-88125939D01*
X126427742Y-88125939D02*
X127499171Y-88625939D01*
X127499171Y-88625939D02*
X125999171Y-88625939D01*
D15*
X173436779Y-66669819D02*
X173436779Y-65669819D01*
X173436779Y-65669819D02*
X173817731Y-65669819D01*
X173817731Y-65669819D02*
X173912969Y-65717438D01*
X173912969Y-65717438D02*
X173960588Y-65765057D01*
X173960588Y-65765057D02*
X174008207Y-65860295D01*
X174008207Y-65860295D02*
X174008207Y-66003152D01*
X174008207Y-66003152D02*
X173960588Y-66098390D01*
X173960588Y-66098390D02*
X173912969Y-66146009D01*
X173912969Y-66146009D02*
X173817731Y-66193628D01*
X173817731Y-66193628D02*
X173436779Y-66193628D01*
X174627255Y-65669819D02*
X174817731Y-65669819D01*
X174817731Y-65669819D02*
X174912969Y-65717438D01*
X174912969Y-65717438D02*
X175008207Y-65812676D01*
X175008207Y-65812676D02*
X175055826Y-66003152D01*
X175055826Y-66003152D02*
X175055826Y-66336485D01*
X175055826Y-66336485D02*
X175008207Y-66526961D01*
X175008207Y-66526961D02*
X174912969Y-66622200D01*
X174912969Y-66622200D02*
X174817731Y-66669819D01*
X174817731Y-66669819D02*
X174627255Y-66669819D01*
X174627255Y-66669819D02*
X174532017Y-66622200D01*
X174532017Y-66622200D02*
X174436779Y-66526961D01*
X174436779Y-66526961D02*
X174389160Y-66336485D01*
X174389160Y-66336485D02*
X174389160Y-66003152D01*
X174389160Y-66003152D02*
X174436779Y-65812676D01*
X174436779Y-65812676D02*
X174532017Y-65717438D01*
X174532017Y-65717438D02*
X174627255Y-65669819D01*
X175389160Y-65669819D02*
X175627255Y-66669819D01*
X175627255Y-66669819D02*
X175817731Y-65955533D01*
X175817731Y-65955533D02*
X176008207Y-66669819D01*
X176008207Y-66669819D02*
X176246303Y-65669819D01*
X176627255Y-66146009D02*
X176960588Y-66146009D01*
X177103445Y-66669819D02*
X176627255Y-66669819D01*
X176627255Y-66669819D02*
X176627255Y-65669819D01*
X176627255Y-65669819D02*
X177103445Y-65669819D01*
X178103445Y-66669819D02*
X177770112Y-66193628D01*
X177532017Y-66669819D02*
X177532017Y-65669819D01*
X177532017Y-65669819D02*
X177912969Y-65669819D01*
X177912969Y-65669819D02*
X178008207Y-65717438D01*
X178008207Y-65717438D02*
X178055826Y-65765057D01*
X178055826Y-65765057D02*
X178103445Y-65860295D01*
X178103445Y-65860295D02*
X178103445Y-66003152D01*
X178103445Y-66003152D02*
X178055826Y-66098390D01*
X178055826Y-66098390D02*
X178008207Y-66146009D01*
X178008207Y-66146009D02*
X177912969Y-66193628D01*
X177912969Y-66193628D02*
X177532017Y-66193628D01*
X173189160Y-61822200D02*
X173332017Y-61869819D01*
X173332017Y-61869819D02*
X173570112Y-61869819D01*
X173570112Y-61869819D02*
X173665350Y-61822200D01*
X173665350Y-61822200D02*
X173712969Y-61774580D01*
X173712969Y-61774580D02*
X173760588Y-61679342D01*
X173760588Y-61679342D02*
X173760588Y-61584104D01*
X173760588Y-61584104D02*
X173712969Y-61488866D01*
X173712969Y-61488866D02*
X173665350Y-61441247D01*
X173665350Y-61441247D02*
X173570112Y-61393628D01*
X173570112Y-61393628D02*
X173379636Y-61346009D01*
X173379636Y-61346009D02*
X173284398Y-61298390D01*
X173284398Y-61298390D02*
X173236779Y-61250771D01*
X173236779Y-61250771D02*
X173189160Y-61155533D01*
X173189160Y-61155533D02*
X173189160Y-61060295D01*
X173189160Y-61060295D02*
X173236779Y-60965057D01*
X173236779Y-60965057D02*
X173284398Y-60917438D01*
X173284398Y-60917438D02*
X173379636Y-60869819D01*
X173379636Y-60869819D02*
X173617731Y-60869819D01*
X173617731Y-60869819D02*
X173760588Y-60917438D01*
X174046303Y-60869819D02*
X174617731Y-60869819D01*
X174332017Y-61869819D02*
X174332017Y-60869819D01*
X174903446Y-61584104D02*
X175379636Y-61584104D01*
X174808208Y-61869819D02*
X175141541Y-60869819D01*
X175141541Y-60869819D02*
X175474874Y-61869819D01*
X175665351Y-60869819D02*
X176236779Y-60869819D01*
X175951065Y-61869819D02*
X175951065Y-60869819D01*
X176570113Y-60869819D02*
X176570113Y-61679342D01*
X176570113Y-61679342D02*
X176617732Y-61774580D01*
X176617732Y-61774580D02*
X176665351Y-61822200D01*
X176665351Y-61822200D02*
X176760589Y-61869819D01*
X176760589Y-61869819D02*
X176951065Y-61869819D01*
X176951065Y-61869819D02*
X177046303Y-61822200D01*
X177046303Y-61822200D02*
X177093922Y-61774580D01*
X177093922Y-61774580D02*
X177141541Y-61679342D01*
X177141541Y-61679342D02*
X177141541Y-60869819D01*
X177570113Y-61822200D02*
X177712970Y-61869819D01*
X177712970Y-61869819D02*
X177951065Y-61869819D01*
X177951065Y-61869819D02*
X178046303Y-61822200D01*
X178046303Y-61822200D02*
X178093922Y-61774580D01*
X178093922Y-61774580D02*
X178141541Y-61679342D01*
X178141541Y-61679342D02*
X178141541Y-61584104D01*
X178141541Y-61584104D02*
X178093922Y-61488866D01*
X178093922Y-61488866D02*
X178046303Y-61441247D01*
X178046303Y-61441247D02*
X177951065Y-61393628D01*
X177951065Y-61393628D02*
X177760589Y-61346009D01*
X177760589Y-61346009D02*
X177665351Y-61298390D01*
X177665351Y-61298390D02*
X177617732Y-61250771D01*
X177617732Y-61250771D02*
X177570113Y-61155533D01*
X177570113Y-61155533D02*
X177570113Y-61060295D01*
X177570113Y-61060295D02*
X177617732Y-60965057D01*
X177617732Y-60965057D02*
X177665351Y-60917438D01*
X177665351Y-60917438D02*
X177760589Y-60869819D01*
X177760589Y-60869819D02*
X177998684Y-60869819D01*
X177998684Y-60869819D02*
X178141541Y-60917438D01*
X177657438Y-114279411D02*
X177609819Y-114374649D01*
X177609819Y-114374649D02*
X177609819Y-114517506D01*
X177609819Y-114517506D02*
X177657438Y-114660363D01*
X177657438Y-114660363D02*
X177752676Y-114755601D01*
X177752676Y-114755601D02*
X177847914Y-114803220D01*
X177847914Y-114803220D02*
X178038390Y-114850839D01*
X178038390Y-114850839D02*
X178181247Y-114850839D01*
X178181247Y-114850839D02*
X178371723Y-114803220D01*
X178371723Y-114803220D02*
X178466961Y-114755601D01*
X178466961Y-114755601D02*
X178562200Y-114660363D01*
X178562200Y-114660363D02*
X178609819Y-114517506D01*
X178609819Y-114517506D02*
X178609819Y-114422268D01*
X178609819Y-114422268D02*
X178562200Y-114279411D01*
X178562200Y-114279411D02*
X178514580Y-114231792D01*
X178514580Y-114231792D02*
X178181247Y-114231792D01*
X178181247Y-114231792D02*
X178181247Y-114422268D01*
X178609819Y-113803220D02*
X177609819Y-113803220D01*
X177609819Y-113803220D02*
X177609819Y-113422268D01*
X177609819Y-113422268D02*
X177657438Y-113327030D01*
X177657438Y-113327030D02*
X177705057Y-113279411D01*
X177705057Y-113279411D02*
X177800295Y-113231792D01*
X177800295Y-113231792D02*
X177943152Y-113231792D01*
X177943152Y-113231792D02*
X178038390Y-113279411D01*
X178038390Y-113279411D02*
X178086009Y-113327030D01*
X178086009Y-113327030D02*
X178133628Y-113422268D01*
X178133628Y-113422268D02*
X178133628Y-113803220D01*
X178562200Y-112850839D02*
X178609819Y-112707982D01*
X178609819Y-112707982D02*
X178609819Y-112469887D01*
X178609819Y-112469887D02*
X178562200Y-112374649D01*
X178562200Y-112374649D02*
X178514580Y-112327030D01*
X178514580Y-112327030D02*
X178419342Y-112279411D01*
X178419342Y-112279411D02*
X178324104Y-112279411D01*
X178324104Y-112279411D02*
X178228866Y-112327030D01*
X178228866Y-112327030D02*
X178181247Y-112374649D01*
X178181247Y-112374649D02*
X178133628Y-112469887D01*
X178133628Y-112469887D02*
X178086009Y-112660363D01*
X178086009Y-112660363D02*
X178038390Y-112755601D01*
X178038390Y-112755601D02*
X177990771Y-112803220D01*
X177990771Y-112803220D02*
X177895533Y-112850839D01*
X177895533Y-112850839D02*
X177800295Y-112850839D01*
X177800295Y-112850839D02*
X177705057Y-112803220D01*
X177705057Y-112803220D02*
X177657438Y-112755601D01*
X177657438Y-112755601D02*
X177609819Y-112660363D01*
X177609819Y-112660363D02*
X177609819Y-112422268D01*
X177609819Y-112422268D02*
X177657438Y-112279411D01*
X178609819Y-110612744D02*
X178609819Y-111088934D01*
X178609819Y-111088934D02*
X177609819Y-111088934D01*
X177609819Y-110088934D02*
X177609819Y-109898458D01*
X177609819Y-109898458D02*
X177657438Y-109803220D01*
X177657438Y-109803220D02*
X177752676Y-109707982D01*
X177752676Y-109707982D02*
X177943152Y-109660363D01*
X177943152Y-109660363D02*
X178276485Y-109660363D01*
X178276485Y-109660363D02*
X178466961Y-109707982D01*
X178466961Y-109707982D02*
X178562200Y-109803220D01*
X178562200Y-109803220D02*
X178609819Y-109898458D01*
X178609819Y-109898458D02*
X178609819Y-110088934D01*
X178609819Y-110088934D02*
X178562200Y-110184172D01*
X178562200Y-110184172D02*
X178466961Y-110279410D01*
X178466961Y-110279410D02*
X178276485Y-110327029D01*
X178276485Y-110327029D02*
X177943152Y-110327029D01*
X177943152Y-110327029D02*
X177752676Y-110279410D01*
X177752676Y-110279410D02*
X177657438Y-110184172D01*
X177657438Y-110184172D02*
X177609819Y-110088934D01*
X178514580Y-108660363D02*
X178562200Y-108707982D01*
X178562200Y-108707982D02*
X178609819Y-108850839D01*
X178609819Y-108850839D02*
X178609819Y-108946077D01*
X178609819Y-108946077D02*
X178562200Y-109088934D01*
X178562200Y-109088934D02*
X178466961Y-109184172D01*
X178466961Y-109184172D02*
X178371723Y-109231791D01*
X178371723Y-109231791D02*
X178181247Y-109279410D01*
X178181247Y-109279410D02*
X178038390Y-109279410D01*
X178038390Y-109279410D02*
X177847914Y-109231791D01*
X177847914Y-109231791D02*
X177752676Y-109184172D01*
X177752676Y-109184172D02*
X177657438Y-109088934D01*
X177657438Y-109088934D02*
X177609819Y-108946077D01*
X177609819Y-108946077D02*
X177609819Y-108850839D01*
X177609819Y-108850839D02*
X177657438Y-108707982D01*
X177657438Y-108707982D02*
X177705057Y-108660363D01*
X178609819Y-108231791D02*
X177609819Y-108231791D01*
X178609819Y-107660363D02*
X178038390Y-108088934D01*
X177609819Y-107660363D02*
X178181247Y-108231791D01*
X134106666Y-123794819D02*
X134106666Y-124509104D01*
X134106666Y-124509104D02*
X134059047Y-124651961D01*
X134059047Y-124651961D02*
X133963809Y-124747200D01*
X133963809Y-124747200D02*
X133820952Y-124794819D01*
X133820952Y-124794819D02*
X133725714Y-124794819D01*
X134535238Y-123890057D02*
X134582857Y-123842438D01*
X134582857Y-123842438D02*
X134678095Y-123794819D01*
X134678095Y-123794819D02*
X134916190Y-123794819D01*
X134916190Y-123794819D02*
X135011428Y-123842438D01*
X135011428Y-123842438D02*
X135059047Y-123890057D01*
X135059047Y-123890057D02*
X135106666Y-123985295D01*
X135106666Y-123985295D02*
X135106666Y-124080533D01*
X135106666Y-124080533D02*
X135059047Y-124223390D01*
X135059047Y-124223390D02*
X134487619Y-124794819D01*
X134487619Y-124794819D02*
X135106666Y-124794819D01*
X174037618Y-76244820D02*
X173704285Y-75768629D01*
X173466190Y-76244820D02*
X173466190Y-75244820D01*
X173466190Y-75244820D02*
X173847142Y-75244820D01*
X173847142Y-75244820D02*
X173942380Y-75292439D01*
X173942380Y-75292439D02*
X173989999Y-75340058D01*
X173989999Y-75340058D02*
X174037618Y-75435296D01*
X174037618Y-75435296D02*
X174037618Y-75578153D01*
X174037618Y-75578153D02*
X173989999Y-75673391D01*
X173989999Y-75673391D02*
X173942380Y-75721010D01*
X173942380Y-75721010D02*
X173847142Y-75768629D01*
X173847142Y-75768629D02*
X173466190Y-75768629D01*
X174466190Y-75721010D02*
X174799523Y-75721010D01*
X174942380Y-76244820D02*
X174466190Y-76244820D01*
X174466190Y-76244820D02*
X174466190Y-75244820D01*
X174466190Y-75244820D02*
X174942380Y-75244820D01*
X175323333Y-76197201D02*
X175466190Y-76244820D01*
X175466190Y-76244820D02*
X175704285Y-76244820D01*
X175704285Y-76244820D02*
X175799523Y-76197201D01*
X175799523Y-76197201D02*
X175847142Y-76149581D01*
X175847142Y-76149581D02*
X175894761Y-76054343D01*
X175894761Y-76054343D02*
X175894761Y-75959105D01*
X175894761Y-75959105D02*
X175847142Y-75863867D01*
X175847142Y-75863867D02*
X175799523Y-75816248D01*
X175799523Y-75816248D02*
X175704285Y-75768629D01*
X175704285Y-75768629D02*
X175513809Y-75721010D01*
X175513809Y-75721010D02*
X175418571Y-75673391D01*
X175418571Y-75673391D02*
X175370952Y-75625772D01*
X175370952Y-75625772D02*
X175323333Y-75530534D01*
X175323333Y-75530534D02*
X175323333Y-75435296D01*
X175323333Y-75435296D02*
X175370952Y-75340058D01*
X175370952Y-75340058D02*
X175418571Y-75292439D01*
X175418571Y-75292439D02*
X175513809Y-75244820D01*
X175513809Y-75244820D02*
X175751904Y-75244820D01*
X175751904Y-75244820D02*
X175894761Y-75292439D01*
X176323333Y-75721010D02*
X176656666Y-75721010D01*
X176799523Y-76244820D02*
X176323333Y-76244820D01*
X176323333Y-76244820D02*
X176323333Y-75244820D01*
X176323333Y-75244820D02*
X176799523Y-75244820D01*
X177085238Y-75244820D02*
X177656666Y-75244820D01*
X177370952Y-76244820D02*
X177370952Y-75244820D01*
X174132857Y-82971010D02*
X174275714Y-83018629D01*
X174275714Y-83018629D02*
X174323333Y-83066248D01*
X174323333Y-83066248D02*
X174370952Y-83161486D01*
X174370952Y-83161486D02*
X174370952Y-83304343D01*
X174370952Y-83304343D02*
X174323333Y-83399581D01*
X174323333Y-83399581D02*
X174275714Y-83447201D01*
X174275714Y-83447201D02*
X174180476Y-83494820D01*
X174180476Y-83494820D02*
X173799524Y-83494820D01*
X173799524Y-83494820D02*
X173799524Y-82494820D01*
X173799524Y-82494820D02*
X174132857Y-82494820D01*
X174132857Y-82494820D02*
X174228095Y-82542439D01*
X174228095Y-82542439D02*
X174275714Y-82590058D01*
X174275714Y-82590058D02*
X174323333Y-82685296D01*
X174323333Y-82685296D02*
X174323333Y-82780534D01*
X174323333Y-82780534D02*
X174275714Y-82875772D01*
X174275714Y-82875772D02*
X174228095Y-82923391D01*
X174228095Y-82923391D02*
X174132857Y-82971010D01*
X174132857Y-82971010D02*
X173799524Y-82971010D01*
X174990000Y-82494820D02*
X175180476Y-82494820D01*
X175180476Y-82494820D02*
X175275714Y-82542439D01*
X175275714Y-82542439D02*
X175370952Y-82637677D01*
X175370952Y-82637677D02*
X175418571Y-82828153D01*
X175418571Y-82828153D02*
X175418571Y-83161486D01*
X175418571Y-83161486D02*
X175370952Y-83351962D01*
X175370952Y-83351962D02*
X175275714Y-83447201D01*
X175275714Y-83447201D02*
X175180476Y-83494820D01*
X175180476Y-83494820D02*
X174990000Y-83494820D01*
X174990000Y-83494820D02*
X174894762Y-83447201D01*
X174894762Y-83447201D02*
X174799524Y-83351962D01*
X174799524Y-83351962D02*
X174751905Y-83161486D01*
X174751905Y-83161486D02*
X174751905Y-82828153D01*
X174751905Y-82828153D02*
X174799524Y-82637677D01*
X174799524Y-82637677D02*
X174894762Y-82542439D01*
X174894762Y-82542439D02*
X174990000Y-82494820D01*
X176037619Y-82494820D02*
X176228095Y-82494820D01*
X176228095Y-82494820D02*
X176323333Y-82542439D01*
X176323333Y-82542439D02*
X176418571Y-82637677D01*
X176418571Y-82637677D02*
X176466190Y-82828153D01*
X176466190Y-82828153D02*
X176466190Y-83161486D01*
X176466190Y-83161486D02*
X176418571Y-83351962D01*
X176418571Y-83351962D02*
X176323333Y-83447201D01*
X176323333Y-83447201D02*
X176228095Y-83494820D01*
X176228095Y-83494820D02*
X176037619Y-83494820D01*
X176037619Y-83494820D02*
X175942381Y-83447201D01*
X175942381Y-83447201D02*
X175847143Y-83351962D01*
X175847143Y-83351962D02*
X175799524Y-83161486D01*
X175799524Y-83161486D02*
X175799524Y-82828153D01*
X175799524Y-82828153D02*
X175847143Y-82637677D01*
X175847143Y-82637677D02*
X175942381Y-82542439D01*
X175942381Y-82542439D02*
X176037619Y-82494820D01*
X176751905Y-82494820D02*
X177323333Y-82494820D01*
X177037619Y-83494820D02*
X177037619Y-82494820D01*
D16*
G36*
X153872509Y-108224416D02*
G01*
X154028094Y-108311840D01*
X154065582Y-108515882D01*
X154065776Y-108545454D01*
X154083032Y-108733649D01*
X154177326Y-108835256D01*
X154412447Y-108876853D01*
X154852184Y-108885019D01*
X154880749Y-108885026D01*
X155347778Y-108899074D01*
X155599467Y-108951013D01*
X155691143Y-109055539D01*
X155695723Y-109101486D01*
X155809753Y-109307328D01*
X155967380Y-109388986D01*
X156128273Y-109473299D01*
X156210412Y-109664686D01*
X156237867Y-110034223D01*
X156239038Y-110191243D01*
X156239038Y-110922460D01*
X155424065Y-110922460D01*
X154968886Y-110932372D01*
X154722931Y-110975914D01*
X154624074Y-111073795D01*
X154609092Y-111194117D01*
X154673127Y-111392962D01*
X154911390Y-111462973D01*
X155016578Y-111465775D01*
X155302693Y-111504778D01*
X155424034Y-111598753D01*
X155424065Y-111600423D01*
X155514558Y-111771267D01*
X155740586Y-112034150D01*
X155831551Y-112124486D01*
X156039777Y-112342643D01*
X156161606Y-112555598D01*
X156220022Y-112843858D01*
X156238010Y-113287932D01*
X156239038Y-113551871D01*
X156222470Y-114072285D01*
X156177508Y-114435875D01*
X156111263Y-114588297D01*
X156103209Y-114589839D01*
X155982705Y-114699855D01*
X155967380Y-114793583D01*
X155894037Y-114974339D01*
X155831551Y-114997326D01*
X155721193Y-115111089D01*
X155695723Y-115268984D01*
X155791768Y-115495995D01*
X155967380Y-115540641D01*
X156093641Y-115560126D01*
X156173328Y-115652176D01*
X156217049Y-115867182D01*
X156235415Y-116255536D01*
X156239038Y-116831016D01*
X156234936Y-117430754D01*
X156215557Y-117809266D01*
X156170293Y-118016943D01*
X156088534Y-118104179D01*
X155967380Y-118121390D01*
X155741892Y-118211783D01*
X155695723Y-118337850D01*
X155809753Y-118543692D01*
X155967380Y-118625349D01*
X156128273Y-118709663D01*
X156210412Y-118901050D01*
X156237867Y-119270587D01*
X156239038Y-119427606D01*
X156239038Y-120158823D01*
X155559894Y-120158823D01*
X155491979Y-120158823D01*
X155082750Y-120168979D01*
X154811400Y-120195176D01*
X154744920Y-120220564D01*
X154838693Y-120369140D01*
X155059755Y-120597334D01*
X155317717Y-120822234D01*
X155522195Y-120960929D01*
X155566068Y-120973796D01*
X155650871Y-121093443D01*
X155694253Y-121388597D01*
X155695723Y-121461914D01*
X155736291Y-121819444D01*
X155882768Y-121990640D01*
X155967380Y-122021071D01*
X156128273Y-122105385D01*
X156210412Y-122296771D01*
X156237867Y-122666309D01*
X156239038Y-122823328D01*
X156239038Y-123554545D01*
X154880749Y-123554545D01*
X154337434Y-123554545D01*
X153522461Y-123554545D01*
X153522461Y-123214973D01*
X153458792Y-122948693D01*
X153250803Y-122875401D01*
X153118715Y-122853916D01*
X153038033Y-122754048D01*
X152996258Y-122522679D01*
X152980892Y-122106692D01*
X152979145Y-121720855D01*
X153114974Y-121720855D01*
X153114974Y-122739572D01*
X154337434Y-122739572D01*
X155559894Y-122739572D01*
X155559894Y-122196256D01*
X155541359Y-121846208D01*
X155453936Y-121690623D01*
X155249894Y-121653135D01*
X155220321Y-121652941D01*
X154990683Y-121617422D01*
X154896673Y-121457586D01*
X154880749Y-121177540D01*
X154846634Y-120863314D01*
X154762746Y-120706245D01*
X154744920Y-120702139D01*
X154624416Y-120592123D01*
X154609092Y-120498395D01*
X154519375Y-120356726D01*
X154221975Y-120298350D01*
X154065776Y-120294652D01*
X153687992Y-120328296D01*
X153532321Y-120439821D01*
X153522461Y-120498395D01*
X153413734Y-120678473D01*
X153318717Y-120702139D01*
X153211248Y-120755503D01*
X153148165Y-120948345D01*
X153119642Y-121329794D01*
X153114974Y-121720855D01*
X152979145Y-121720855D01*
X152988982Y-121128210D01*
X153027010Y-120739715D01*
X153106005Y-120488298D01*
X153238741Y-120306890D01*
X153250803Y-120294652D01*
X153454306Y-119998961D01*
X153522461Y-119751337D01*
X153426415Y-119524325D01*
X153250803Y-119479679D01*
X153093812Y-119447253D01*
X153012029Y-119307056D01*
X152982042Y-118994709D01*
X152979145Y-118732620D01*
X152990936Y-118300896D01*
X153000837Y-118257219D01*
X153098575Y-118257219D01*
X153140732Y-118766577D01*
X153182888Y-119275936D01*
X154371391Y-119315181D01*
X155559894Y-119354426D01*
X155559894Y-118805823D01*
X155559894Y-118257219D01*
X154329234Y-118257219D01*
X153098575Y-118257219D01*
X153000837Y-118257219D01*
X153041917Y-118075992D01*
X153155498Y-117993529D01*
X153250803Y-117985561D01*
X153477815Y-117889516D01*
X153522461Y-117713903D01*
X153426415Y-117486892D01*
X153250803Y-117442246D01*
X153093812Y-117409820D01*
X153012029Y-117269623D01*
X152982042Y-116957276D01*
X152979145Y-116695187D01*
X152979145Y-116219786D01*
X153098575Y-116219786D01*
X153140732Y-116729144D01*
X153182888Y-117238502D01*
X154371391Y-117277748D01*
X155559894Y-117316993D01*
X155559894Y-116292988D01*
X155555714Y-115773187D01*
X155530558Y-115467959D01*
X155465498Y-115320229D01*
X155341606Y-115272920D01*
X155220321Y-115268984D01*
X154990683Y-115304502D01*
X154896673Y-115464339D01*
X154880749Y-115744385D01*
X154880749Y-116219786D01*
X153989662Y-116219786D01*
X153098575Y-116219786D01*
X152979145Y-116219786D01*
X152979145Y-115948128D01*
X153862033Y-115948128D01*
X154744920Y-115948128D01*
X154744920Y-115472727D01*
X154722205Y-115153323D01*
X154606985Y-115022317D01*
X154344747Y-114998004D01*
X154337434Y-114997326D01*
X154013928Y-114936581D01*
X153929947Y-114793583D01*
X153859878Y-114612777D01*
X153800292Y-114589839D01*
X153625957Y-114501735D01*
X153367247Y-114285516D01*
X153324891Y-114244093D01*
X153137784Y-114023748D01*
X153033098Y-113777591D01*
X152987908Y-113420049D01*
X152979261Y-112959893D01*
X153114974Y-112959893D01*
X153130621Y-113433111D01*
X153186089Y-113687179D01*
X153294168Y-113773259D01*
X153318717Y-113774866D01*
X153498795Y-113883593D01*
X153522461Y-113978609D01*
X153641115Y-114110500D01*
X153942500Y-114182427D01*
X154344747Y-114195953D01*
X154765986Y-114152639D01*
X155124349Y-114054047D01*
X155302726Y-113944652D01*
X155423183Y-113715030D01*
X155510075Y-113347937D01*
X155557869Y-112925440D01*
X155561031Y-112529609D01*
X155514029Y-112242511D01*
X155424065Y-112144919D01*
X155303560Y-112034904D01*
X155288236Y-111941176D01*
X155229294Y-111826893D01*
X155018682Y-111763375D01*
X154605720Y-111738925D01*
X154405348Y-111737433D01*
X153910123Y-111751035D01*
X153634875Y-111799638D01*
X153556418Y-111870208D01*
X153528925Y-111894937D01*
X153522461Y-111941176D01*
X153413734Y-112121254D01*
X153318717Y-112144919D01*
X153200413Y-112207508D01*
X153136896Y-112429381D01*
X153115376Y-112861698D01*
X153114974Y-112959893D01*
X152979261Y-112959893D01*
X152979145Y-112953719D01*
X152995279Y-112408431D01*
X153055113Y-112056718D01*
X153175797Y-111821796D01*
X153250803Y-111737433D01*
X153454306Y-111441742D01*
X153522461Y-111194117D01*
X153426415Y-110967106D01*
X153250803Y-110922460D01*
X153127161Y-110903818D01*
X153048011Y-110815112D01*
X153003517Y-110607172D01*
X152983848Y-110230830D01*
X152979167Y-109636915D01*
X152979145Y-109564171D01*
X152979145Y-108409625D01*
X153182888Y-108409625D01*
X153182888Y-109564171D01*
X153182888Y-110718716D01*
X153556418Y-110761696D01*
X153827378Y-110756338D01*
X153922200Y-110605107D01*
X153929947Y-110456081D01*
X153946103Y-110262956D01*
X154037146Y-110158695D01*
X154266938Y-110115983D01*
X154699340Y-110107504D01*
X154744920Y-110107486D01*
X155559894Y-110107486D01*
X155559894Y-109564171D01*
X155559894Y-109020855D01*
X154744920Y-109020855D01*
X154293417Y-109013945D01*
X154049668Y-108975002D01*
X153949812Y-108876712D01*
X153929988Y-108691758D01*
X153929947Y-108672261D01*
X153890799Y-108423893D01*
X153717059Y-108355393D01*
X153556418Y-108366646D01*
X153182888Y-108409625D01*
X152979145Y-108409625D01*
X152979145Y-108205882D01*
X153522461Y-108205882D01*
X153872509Y-108224416D01*
G37*
G36*
X153250803Y-100803208D02*
G01*
X153250803Y-101414438D01*
X153871735Y-101414438D01*
X154396913Y-101470347D01*
X154711027Y-101666358D01*
X154856502Y-102044897D01*
X154880749Y-102423453D01*
X154880749Y-103044385D01*
X155491979Y-103044385D01*
X156103209Y-103044385D01*
X156103209Y-104334759D01*
X156103209Y-105625133D01*
X155356150Y-105625133D01*
X154609092Y-105625133D01*
X154609092Y-106847593D01*
X154609092Y-108070053D01*
X152164172Y-108070053D01*
X150873797Y-108070053D01*
X149719252Y-108070053D01*
X149719252Y-107390909D01*
X149719252Y-106711764D01*
X149040108Y-106711764D01*
X148360963Y-106711764D01*
X148360963Y-105019192D01*
X148360963Y-103859358D01*
X148904279Y-103859358D01*
X148904279Y-105013903D01*
X148904279Y-106168449D01*
X150873797Y-106168449D01*
X152843316Y-106168449D01*
X152843316Y-105013903D01*
X152843316Y-103859358D01*
X153567737Y-103859358D01*
X153991870Y-103842521D01*
X154297850Y-103799332D01*
X154388812Y-103762704D01*
X154437091Y-103581518D01*
X154453277Y-103226202D01*
X154445407Y-102981688D01*
X154405348Y-102297326D01*
X153624332Y-102256590D01*
X152843316Y-102215855D01*
X152843316Y-101475574D01*
X152843316Y-100735294D01*
X152028343Y-100735294D01*
X151213370Y-100735294D01*
X151213370Y-102297326D01*
X151213370Y-103859358D01*
X150058824Y-103859358D01*
X148904279Y-103859358D01*
X148360963Y-103859358D01*
X148360963Y-103326619D01*
X149549466Y-103287373D01*
X150737969Y-103248128D01*
X150776374Y-101720053D01*
X150814780Y-100191978D01*
X152032791Y-100191978D01*
X153250803Y-100191978D01*
X153250803Y-100803208D01*
G37*
G36*
X150880852Y-111211855D02*
G01*
X151218665Y-111259149D01*
X151349134Y-111327121D01*
X151349198Y-111328765D01*
X151439692Y-111499610D01*
X151665719Y-111762492D01*
X151756685Y-111852828D01*
X151964910Y-112070986D01*
X152086740Y-112283940D01*
X152145156Y-112572200D01*
X152163143Y-113016275D01*
X152164172Y-113280213D01*
X152147604Y-113800628D01*
X152102642Y-114164217D01*
X152036397Y-114316639D01*
X152028343Y-114318182D01*
X151907838Y-114428197D01*
X151892514Y-114521925D01*
X151779274Y-114687852D01*
X151620856Y-114725668D01*
X151411431Y-114746555D01*
X151380774Y-114836083D01*
X151539354Y-115034557D01*
X151756685Y-115248550D01*
X151964910Y-115466708D01*
X152086740Y-115679662D01*
X152145156Y-115967922D01*
X152163143Y-116411997D01*
X152164172Y-116675935D01*
X152147604Y-117196349D01*
X152102642Y-117559939D01*
X152036397Y-117712361D01*
X152028343Y-117713903D01*
X151907838Y-117823919D01*
X151892514Y-117917647D01*
X151819170Y-118098404D01*
X151756685Y-118121390D01*
X151625526Y-118206767D01*
X151642290Y-118391727D01*
X151778204Y-118569514D01*
X151892514Y-118625349D01*
X152053406Y-118709663D01*
X152135546Y-118901050D01*
X152163001Y-119270587D01*
X152164172Y-119427606D01*
X152164172Y-120158823D01*
X151485027Y-120158823D01*
X151417113Y-120158823D01*
X151007884Y-120168979D01*
X150736534Y-120195176D01*
X150670054Y-120220564D01*
X150763827Y-120369140D01*
X150984888Y-120597334D01*
X151242851Y-120822234D01*
X151447328Y-120960929D01*
X151491201Y-120973796D01*
X151576005Y-121093443D01*
X151619386Y-121388597D01*
X151620856Y-121461914D01*
X151661425Y-121819444D01*
X151807901Y-121990640D01*
X151892514Y-122021071D01*
X152053406Y-122105385D01*
X152135546Y-122296771D01*
X152163001Y-122666309D01*
X152164172Y-122823328D01*
X152164172Y-123554545D01*
X150805883Y-123554545D01*
X150262567Y-123554545D01*
X149447594Y-123554545D01*
X149447594Y-123214973D01*
X149383925Y-122948693D01*
X149175936Y-122875401D01*
X149043848Y-122853916D01*
X148963166Y-122754048D01*
X148921391Y-122522679D01*
X148906025Y-122106692D01*
X148904279Y-121720855D01*
X149040108Y-121720855D01*
X149040108Y-122739572D01*
X150262567Y-122739572D01*
X151485027Y-122739572D01*
X151485027Y-122196256D01*
X151466493Y-121846208D01*
X151379070Y-121690623D01*
X151175027Y-121653135D01*
X151145455Y-121652941D01*
X150915816Y-121617422D01*
X150821807Y-121457586D01*
X150805883Y-121177540D01*
X150771767Y-120863314D01*
X150687880Y-120706245D01*
X150670054Y-120702139D01*
X150549550Y-120592123D01*
X150534225Y-120498395D01*
X150444509Y-120356726D01*
X150147109Y-120298350D01*
X149990910Y-120294652D01*
X149613126Y-120328296D01*
X149457455Y-120439821D01*
X149447594Y-120498395D01*
X149338868Y-120678473D01*
X149243851Y-120702139D01*
X149136382Y-120755503D01*
X149073299Y-120948345D01*
X149044776Y-121329794D01*
X149040108Y-121720855D01*
X148904279Y-121720855D01*
X148914116Y-121128210D01*
X148952144Y-120739715D01*
X149031138Y-120488298D01*
X149163875Y-120306890D01*
X149175936Y-120294652D01*
X149392878Y-119983072D01*
X149441652Y-119698524D01*
X149322259Y-119513223D01*
X149175936Y-119479679D01*
X149018946Y-119447253D01*
X148937163Y-119307056D01*
X148907176Y-118994709D01*
X148904279Y-118732620D01*
X148904279Y-118257219D01*
X149023709Y-118257219D01*
X149065865Y-118766577D01*
X149108022Y-119275936D01*
X150296525Y-119315181D01*
X151485027Y-119354426D01*
X151485027Y-118805823D01*
X151485027Y-118257219D01*
X150269881Y-118257219D01*
X150254368Y-118257219D01*
X149023709Y-118257219D01*
X148904279Y-118257219D01*
X148904279Y-117985561D01*
X149379680Y-117985561D01*
X149693906Y-117951446D01*
X149850975Y-117867558D01*
X149855081Y-117849732D01*
X149745731Y-117727715D01*
X149660491Y-117713903D01*
X149466816Y-117600781D01*
X149379680Y-117442246D01*
X149228743Y-117221990D01*
X149098869Y-117170588D01*
X148998000Y-117111736D01*
X148937512Y-116904822D01*
X148909252Y-116504310D01*
X148904279Y-116083957D01*
X149040108Y-116083957D01*
X149055755Y-116557175D01*
X149111223Y-116811243D01*
X149219302Y-116897323D01*
X149243851Y-116898930D01*
X149423929Y-117007657D01*
X149447594Y-117102673D01*
X149566249Y-117234564D01*
X149867634Y-117306491D01*
X150269881Y-117320017D01*
X150691120Y-117276703D01*
X151049483Y-117178111D01*
X151227860Y-117068716D01*
X151348317Y-116839095D01*
X151435209Y-116472001D01*
X151483003Y-116049504D01*
X151486165Y-115653673D01*
X151439162Y-115366575D01*
X151349198Y-115268984D01*
X151228694Y-115158968D01*
X151213370Y-115065240D01*
X151104643Y-114885163D01*
X151009626Y-114861497D01*
X150881500Y-114934202D01*
X150818921Y-115185926D01*
X150805883Y-115540641D01*
X150805883Y-116219786D01*
X150333505Y-116219786D01*
X150330482Y-116219786D01*
X149855081Y-116219786D01*
X149855081Y-115540641D01*
X149833269Y-115113553D01*
X149791192Y-114997326D01*
X149990910Y-114997326D01*
X150097240Y-115206157D01*
X150333505Y-115280529D01*
X150575613Y-115182259D01*
X150579502Y-115178431D01*
X150676500Y-114951830D01*
X150548892Y-114775508D01*
X150330482Y-114725668D01*
X150269881Y-114740158D01*
X150064202Y-114789337D01*
X149990910Y-114997326D01*
X149791192Y-114997326D01*
X149757752Y-114904956D01*
X149651338Y-114861497D01*
X149471260Y-114970224D01*
X149447594Y-115065240D01*
X149338868Y-115245318D01*
X149243851Y-115268984D01*
X149125546Y-115331572D01*
X149062029Y-115553445D01*
X149040509Y-115985762D01*
X149040108Y-116083957D01*
X148904279Y-116083957D01*
X148913875Y-115526416D01*
X148948694Y-115191815D01*
X149017779Y-115031918D01*
X149108022Y-114997326D01*
X149288100Y-114888599D01*
X149311765Y-114793583D01*
X149425005Y-114627655D01*
X149583423Y-114589839D01*
X149804141Y-114532958D01*
X149855081Y-114454010D01*
X149756239Y-114322083D01*
X149725426Y-114318182D01*
X149551091Y-114230078D01*
X149292380Y-114013859D01*
X149250025Y-113972435D01*
X149062917Y-113752091D01*
X148958232Y-113505933D01*
X148913041Y-113148392D01*
X148904395Y-112688235D01*
X149040108Y-112688235D01*
X149055755Y-113161453D01*
X149111223Y-113415522D01*
X149219302Y-113501601D01*
X149243851Y-113503208D01*
X149423929Y-113611935D01*
X149447594Y-113706952D01*
X149566249Y-113838842D01*
X149867634Y-113910769D01*
X150269881Y-113924295D01*
X150691120Y-113880981D01*
X151049483Y-113782390D01*
X151227860Y-113672994D01*
X151348317Y-113443373D01*
X151435209Y-113076279D01*
X151483003Y-112653782D01*
X151486165Y-112257951D01*
X151439162Y-111970853D01*
X151349198Y-111873262D01*
X151228694Y-111763246D01*
X151213370Y-111669518D01*
X151154428Y-111555236D01*
X150943815Y-111491717D01*
X150530854Y-111467267D01*
X150330482Y-111465775D01*
X149835257Y-111479377D01*
X149560009Y-111527980D01*
X149454059Y-111623279D01*
X149447594Y-111669518D01*
X149338868Y-111849596D01*
X149243851Y-111873262D01*
X149125546Y-111935850D01*
X149062029Y-112157723D01*
X149040509Y-112590040D01*
X149040108Y-112688235D01*
X148904395Y-112688235D01*
X148904279Y-112682061D01*
X148935829Y-112027776D01*
X149059899Y-111595789D01*
X149320617Y-111342154D01*
X149762112Y-111222924D01*
X150398396Y-111194117D01*
X150880852Y-111211855D01*
G37*
G36*
X154414629Y-121053383D02*
G01*
X154473263Y-121313369D01*
X154409594Y-121579648D01*
X154201605Y-121652941D01*
X153988581Y-121573355D01*
X153929947Y-121313369D01*
X153993616Y-121047089D01*
X154201605Y-120973796D01*
X154414629Y-121053383D01*
G37*
G36*
X154611208Y-112171421D02*
G01*
X154723499Y-112305844D01*
X154744920Y-112620321D01*
X154722205Y-112939724D01*
X154606985Y-113070730D01*
X154337434Y-113095722D01*
X154063659Y-113069220D01*
X153951368Y-112934797D01*
X153929947Y-112620321D01*
X153952663Y-112300917D01*
X154067882Y-112169911D01*
X154337434Y-112144919D01*
X154611208Y-112171421D01*
G37*
G36*
X150339762Y-121053383D02*
G01*
X150398396Y-121313369D01*
X150334727Y-121579648D01*
X150126739Y-121652941D01*
X149913715Y-121573355D01*
X149855081Y-121313369D01*
X149918750Y-121047089D01*
X150126739Y-120973796D01*
X150339762Y-121053383D01*
G37*
G36*
X150536342Y-111899763D02*
G01*
X150648633Y-112034186D01*
X150670054Y-112348663D01*
X150647338Y-112668066D01*
X150532119Y-112799073D01*
X150262567Y-112824064D01*
X149988793Y-112797562D01*
X149876502Y-112663139D01*
X149855081Y-112348663D01*
X149877797Y-112029259D01*
X149993016Y-111898253D01*
X150262567Y-111873262D01*
X150536342Y-111899763D01*
G37*
D17*
X177440000Y-99740000D02*
X178840000Y-99740000D01*
X177440000Y-101140000D02*
X177440000Y-99740000D01*
X178840000Y-99740000D02*
X178840000Y-101140000D01*
X178840000Y-101140000D02*
X177440000Y-101140000D01*
D18*
X132120000Y-101990000D02*
G75*
G02*
X131920000Y-101990000I-100000J0D01*
G01*
X131920000Y-101990000D02*
G75*
G02*
X132120000Y-101990000I100000J0D01*
G01*
D19*
X134350000Y-103540000D02*
X134070000Y-103540000D01*
X134350000Y-101640000D02*
X134070000Y-101640000D01*
X132850000Y-103540000D02*
X133130000Y-103540000D01*
X132850000Y-101640000D02*
X133130000Y-101640000D01*
D17*
X178370000Y-96470000D02*
X177040000Y-96470000D01*
X178370000Y-95140000D02*
X178370000Y-96470000D01*
X178370000Y-93870000D02*
X178370000Y-86190000D01*
X178370000Y-93870000D02*
X175710000Y-93870000D01*
X178370000Y-86190000D02*
X175710000Y-86190000D01*
X175710000Y-93870000D02*
X175710000Y-86190000D01*
X124100000Y-91555000D02*
X124100000Y-93405000D01*
X122450000Y-91555000D02*
X124100000Y-91555000D01*
X119480000Y-92875000D02*
X119480000Y-98805000D01*
X124100000Y-93405000D02*
X124890000Y-93405000D01*
X124100000Y-100125000D02*
X124100000Y-98275000D01*
X122450000Y-100125000D02*
X124100000Y-100125000D01*
X124100000Y-81055000D02*
X124100000Y-82905000D01*
X122450000Y-81055000D02*
X124100000Y-81055000D01*
X119480000Y-82375000D02*
X119480000Y-88305000D01*
X124100000Y-82905000D02*
X124890000Y-82905000D01*
X124100000Y-89625000D02*
X124100000Y-87775000D01*
X122450000Y-89625000D02*
X124100000Y-89625000D01*
D19*
X129490000Y-123384250D02*
X129490000Y-118584250D01*
X127790000Y-123384250D02*
X129490000Y-123384250D01*
X127790000Y-125884250D02*
X127790000Y-123384250D01*
X129490000Y-125884250D02*
X127790000Y-125884250D01*
X129490000Y-127584250D02*
X129490000Y-125884250D01*
X139390000Y-127584250D02*
X129490000Y-127584250D01*
X139390000Y-125884250D02*
X139390000Y-127584250D01*
X141090000Y-125884250D02*
X139390000Y-125884250D01*
X141090000Y-123384250D02*
X141090000Y-125884250D01*
X139390000Y-123384250D02*
X141090000Y-123384250D01*
X139390000Y-118584250D02*
X139390000Y-123384250D01*
X129490000Y-118584250D02*
X139390000Y-118584250D01*
X132440000Y-112384250D02*
X131440000Y-112384250D01*
X136940000Y-111884250D02*
X136940000Y-112884250D01*
X137440000Y-112384250D02*
X136440000Y-112384250D01*
D17*
X177180000Y-107100000D02*
X179100000Y-107100000D01*
X179100000Y-107100000D02*
X179100000Y-104240000D01*
X177180000Y-104240000D02*
X177180000Y-107100000D01*
X174740000Y-60500000D02*
X177600000Y-60500000D01*
X177600000Y-58580000D02*
X174740000Y-58580000D01*
X177600000Y-60500000D02*
X177600000Y-58580000D01*
X177600000Y-65000000D02*
X177600000Y-63080000D01*
X177600000Y-63080000D02*
X174740000Y-63080000D01*
X174740000Y-65000000D02*
X177600000Y-65000000D01*
X137375000Y-101878748D02*
X137375000Y-102401252D01*
X135905000Y-101878748D02*
X135905000Y-102401252D01*
X140182283Y-95213655D02*
X143010710Y-98042082D01*
X142515736Y-92880202D02*
X140182283Y-95213655D01*
X134952500Y-76747500D02*
X134952500Y-76487500D01*
X134952500Y-76747500D02*
X135212500Y-76747500D01*
X140372500Y-72727500D02*
X140112500Y-72727500D01*
X140372500Y-72727500D02*
X140372500Y-72987500D01*
X140372500Y-76747500D02*
X140112500Y-76747500D01*
X140372500Y-76747500D02*
X140372500Y-76487500D01*
D20*
X134952500Y-72727500D02*
X134592500Y-72727500D01*
X134952500Y-72367500D01*
X134952500Y-72727500D01*
G36*
X134952500Y-72727500D02*
G01*
X134592500Y-72727500D01*
X134952500Y-72367500D01*
X134952500Y-72727500D01*
G37*
D17*
X162630000Y-99630000D02*
X162630000Y-100080000D01*
X162630000Y-99630000D02*
X175050000Y-99630000D01*
X162630000Y-108000000D02*
X162630000Y-109680000D01*
X162630000Y-115400000D02*
X162630000Y-115850000D01*
X162630000Y-115850000D02*
X175050000Y-115850000D01*
X175050000Y-99630000D02*
X175050000Y-100080000D01*
X175050000Y-108000000D02*
X175050000Y-109680000D01*
X175050000Y-115400000D02*
X175050000Y-115840000D01*
X162140000Y-100080000D02*
X161900000Y-99750000D01*
X162380000Y-99750000D01*
X162140000Y-100080000D01*
G36*
X162140000Y-100080000D02*
G01*
X161900000Y-99750000D01*
X162380000Y-99750000D01*
X162140000Y-100080000D01*
G37*
X160940000Y-73086268D02*
X160756152Y-73270116D01*
X157086268Y-76940000D02*
X157270116Y-76756152D01*
X162866866Y-75013134D02*
X160940000Y-73086268D01*
X162866866Y-75013134D02*
X164793732Y-76940000D01*
X159013134Y-78866866D02*
X157086268Y-76940000D01*
X159013134Y-78866866D02*
X160940000Y-80793732D01*
X164793732Y-76940000D02*
X164609884Y-77123848D01*
X160940000Y-80793732D02*
X161123848Y-80609884D01*
X160605892Y-72653165D02*
X160202841Y-72716805D01*
X160266481Y-72313754D01*
X160605892Y-72653165D01*
G36*
X160605892Y-72653165D02*
G01*
X160202841Y-72716805D01*
X160266481Y-72313754D01*
X160605892Y-72653165D01*
G37*
X135090000Y-104730000D02*
X138850000Y-104730000D01*
X135090000Y-111550000D02*
X138850000Y-111550000D01*
X138850000Y-104730000D02*
X138850000Y-105990000D01*
X138850000Y-111550000D02*
X138850000Y-110290000D01*
X133810000Y-104830000D02*
X133570000Y-104500000D01*
X134050000Y-104500000D01*
X133810000Y-104830000D01*
G36*
X133810000Y-104830000D02*
G01*
X133570000Y-104500000D01*
X134050000Y-104500000D01*
X133810000Y-104830000D01*
G37*
X149454859Y-95562756D02*
X150126610Y-94891004D01*
X156738059Y-88279556D02*
X156066307Y-88951307D01*
X148783108Y-94891004D02*
X149454859Y-95562756D01*
X156066307Y-87607805D02*
X156738059Y-88279556D01*
X142843411Y-88951307D02*
X142171659Y-88279556D01*
X150126610Y-81668108D02*
X149285153Y-80826651D01*
X142171659Y-88279556D02*
X142843411Y-87607805D01*
X177840000Y-73140000D02*
X177840000Y-73240000D01*
X177840000Y-71440000D02*
X173440000Y-71440000D01*
X173440000Y-74940000D02*
X177840000Y-74940000D01*
X173440000Y-73140000D02*
X173440000Y-73240000D01*
X173440000Y-80390000D02*
X173440000Y-80490000D01*
X173440000Y-82190000D02*
X177840000Y-82190000D01*
X177840000Y-78690000D02*
X173440000Y-78690000D01*
X177840000Y-80390000D02*
X177840000Y-80490000D01*
X140239564Y-78922500D02*
X139785436Y-78922500D01*
X140239564Y-77452500D02*
X139785436Y-77452500D01*
X142485436Y-74852500D02*
X142939564Y-74852500D01*
X142485436Y-76322500D02*
X142939564Y-76322500D01*
X142485436Y-72752500D02*
X142939564Y-72752500D01*
X142485436Y-74222500D02*
X142939564Y-74222500D01*
X129505000Y-110467064D02*
X129505000Y-110012936D01*
X130975000Y-110467064D02*
X130975000Y-110012936D01*
X134247500Y-77460436D02*
X134247500Y-77914564D01*
X132777500Y-77460436D02*
X132777500Y-77914564D01*
X160879940Y-72017341D02*
X160662659Y-71800060D01*
X161417341Y-71479940D02*
X161200060Y-71262659D01*
X162379940Y-73517341D02*
X162162659Y-73300060D01*
X162917341Y-72979940D02*
X162700060Y-72762659D01*
X156477341Y-85260060D02*
X156260060Y-85477341D01*
X155939940Y-84722659D02*
X155722659Y-84939940D01*
X155677341Y-84460060D02*
X155460060Y-84677341D01*
X155139940Y-83922659D02*
X154922659Y-84139940D01*
X172520000Y-79643641D02*
X172520000Y-79336359D01*
X171760000Y-79643641D02*
X171760000Y-79336359D01*
X130975000Y-103112936D02*
X130975000Y-103567064D01*
X129505000Y-103112936D02*
X129505000Y-103567064D01*
X171760000Y-74243641D02*
X171760000Y-73936359D01*
X172520000Y-74243641D02*
X172520000Y-73936359D01*
X161377341Y-89360060D02*
X161160060Y-89577341D01*
X160839940Y-88822659D02*
X160622659Y-89039940D01*
X144139940Y-97622659D02*
X143922659Y-97839940D01*
X144677341Y-98160060D02*
X144460060Y-98377341D01*
X157962659Y-71579940D02*
X158179940Y-71362659D01*
X158500060Y-72117341D02*
X158717341Y-71900060D01*
D21*
X161578553Y-83644365D02*
G75*
G02*
X161387133Y-83644365I-95710J0D01*
G01*
X161387133Y-83644365D02*
G75*
G02*
X161578553Y-83644365I95710J0D01*
G01*
D17*
X170000000Y-127400000D02*
X170000000Y-119200000D01*
X170000000Y-127400000D02*
X161800000Y-127400000D01*
X170000000Y-122800000D02*
X169500000Y-123300000D01*
X170000000Y-119200000D02*
X161800000Y-119200000D01*
X169500000Y-123300000D02*
X170000000Y-123800000D01*
X161800000Y-127400000D02*
X161800000Y-119200000D01*
D18*
X169750000Y-54900000D02*
X169750000Y-57440000D01*
X129110000Y-57440000D02*
X129110000Y-54900000D01*
X129110000Y-57440000D02*
X169750000Y-57440000D01*
X129110000Y-54900000D02*
X169750000Y-54900000D01*
X170500000Y-58940000D02*
G75*
G02*
X170300000Y-58940000I-100000J0D01*
G01*
X170300000Y-58940000D02*
G75*
G02*
X170500000Y-58940000I100000J0D01*
G01*
D17*
X123975000Y-73730000D02*
X123975000Y-74780000D01*
X121475000Y-73730000D02*
X123975000Y-73730000D01*
X123975000Y-74780000D02*
X124965000Y-74780000D01*
X119505000Y-74900000D02*
X119505000Y-77780000D01*
X123975000Y-78950000D02*
X123975000Y-77900000D01*
X121475000Y-78950000D02*
X123975000Y-78950000D01*
X125030000Y-102140000D02*
X123030000Y-102140000D01*
X121130000Y-102140000D02*
X119230000Y-102140000D01*
X119230000Y-102140000D02*
X119230000Y-111540000D01*
X125030000Y-111540000D02*
X123030000Y-111540000D01*
X121130000Y-111540000D02*
X119230000Y-111540000D01*
X130677500Y-74448752D02*
X130677500Y-73926248D01*
X132147500Y-74448752D02*
X132147500Y-73926248D01*
X132777500Y-74448752D02*
X132777500Y-73926248D01*
X134247500Y-74448752D02*
X134247500Y-73926248D01*
X136673752Y-78922500D02*
X136151248Y-78922500D01*
X136673752Y-77452500D02*
X136151248Y-77452500D01*
X155369190Y-93921693D02*
X155521693Y-93769190D01*
X155878307Y-94430810D02*
X156030810Y-94278307D01*
X158469190Y-94121693D02*
X158621693Y-93969190D01*
X158978307Y-94630810D02*
X159130810Y-94478307D01*
X143378748Y-111105000D02*
X143901252Y-111105000D01*
X143378748Y-112575000D02*
X143901252Y-112575000D01*
X157669190Y-93321693D02*
X157821693Y-93169190D01*
X158178307Y-93830810D02*
X158330810Y-93678307D01*
X156869190Y-92521693D02*
X157021693Y-92369190D01*
X157378307Y-93030810D02*
X157530810Y-92878307D01*
X160669190Y-93421693D02*
X160821693Y-93269190D01*
X161178307Y-93930810D02*
X161330810Y-93778307D01*
X156169190Y-94721693D02*
X156321693Y-94569190D01*
X156678307Y-95230810D02*
X156830810Y-95078307D01*
X159869190Y-92621693D02*
X160021693Y-92469190D01*
X160378307Y-93130810D02*
X160530810Y-92978307D01*
X159069190Y-91821693D02*
X159221693Y-91669190D01*
X159578307Y-92330810D02*
X159730810Y-92178307D01*
X158269190Y-91021693D02*
X158421693Y-90869190D01*
X158778307Y-91530810D02*
X158930810Y-91378307D01*
X153269190Y-96721693D02*
X153421693Y-96569190D01*
X153778307Y-97230810D02*
X153930810Y-97078307D01*
X152369190Y-95921693D02*
X152521693Y-95769190D01*
X152878307Y-96430810D02*
X153030810Y-96278307D01*
X159669190Y-88121693D02*
X159821693Y-87969190D01*
X160178307Y-88630810D02*
X160330810Y-88478307D01*
X151529190Y-95081693D02*
X151681693Y-94929190D01*
X152038307Y-95590810D02*
X152190810Y-95438307D01*
X143378748Y-108805000D02*
X143901252Y-108805000D01*
X143378748Y-110275000D02*
X143901252Y-110275000D01*
X141078307Y-96969190D02*
X141230810Y-97121693D01*
X140569190Y-97478307D02*
X140721693Y-97630810D01*
X140021693Y-93569190D02*
X139869190Y-93721693D01*
X140530810Y-94078307D02*
X140378307Y-94230810D01*
X155269779Y-74161693D02*
X155422282Y-74009190D01*
X155778896Y-74670810D02*
X155931399Y-74518307D01*
X133078748Y-98605000D02*
X133601252Y-98605000D01*
X133078748Y-100075000D02*
X133601252Y-100075000D01*
M02*
