M48
; DRILL file {KiCad 8.0.4} date 2024-08-14T20:28:53-0400
; FORMAT={-:-/ absolute / inch / decimal}
; #@! TF.CreationDate,2024-08-14T20:28:53-04:00
; #@! TF.GenerationSoftware,Kicad,Pcbnew,8.0.4
; #@! TF.FileFunction,Plated,1,4,PTH
FMAT,2
INCH
; #@! TA.AperFunction,Plated,PTH,ComponentDrill
T1C0.0098
; #@! TA.AperFunction,Plated,PTH,ViaDrill
T2C0.0138
; #@! TA.AperFunction,Plated,PTH,ComponentDrill
T3C0.0236
; #@! TA.AperFunction,Plated,PTH,ComponentDrill
T4C0.0394
; #@! TA.AperFunction,Plated,PTH,ComponentDrill
T5C0.0402
; #@! TA.AperFunction,Plated,PTH,ComponentDrill
T6C0.0591
; #@! TA.AperFunction,Plated,PTH,ComponentDrill
T7C0.0669
%
G90
G05
T1
X5.8209Y-3.4756
X5.8525Y-3.444
X5.8525Y-3.5071
X5.884Y-3.4125
X5.884Y-3.4756
X5.884Y-3.5387
X5.9156Y-3.444
X5.9156Y-3.5071
X5.9472Y-3.4756
T2
X4.7323Y-3.3189
X4.7323Y-3.3583
X4.7323Y-3.3976
X4.7717Y-3.3189
X4.7717Y-3.3583
X4.7717Y-3.3976
X4.811Y-3.3189
X4.811Y-3.3583
X4.811Y-3.3976
X4.9333Y-2.9528
X4.9346Y-3.0449
X4.9606Y-3.748
X4.9606Y-3.7953
X5.0315Y-3.9685
X5.0984Y-3.2874
X5.0984Y-3.7008
X5.0984Y-4.1915
X5.0984Y-4.2211
X5.122Y-2.8819
X5.1339Y-2.5827
X5.1929Y-4.0197
X5.1969Y-4.0945
X5.2008Y-3.0236
X5.2323Y-2.5827
X5.2362Y-3.622
X5.2362Y-4.7638
X5.2362Y-4.8031
X5.2362Y-4.8425
X5.2598Y-4.0945
X5.2677Y-3.6218
X5.2756Y-4.7638
X5.2756Y-4.8031
X5.2756Y-4.8425
X5.315Y-4.7638
X5.315Y-4.8031
X5.315Y-4.8425
X5.3346Y-2.5827
X5.3543Y-2.6772
X5.3543Y-2.7165
X5.3543Y-2.7559
X5.3543Y-4.1457
X5.3543Y-4.1693
X5.3543Y-4.1929
X5.3622Y-2.9134
X5.3898Y-4.4252
X5.3937Y-2.6772
X5.3937Y-2.7165
X5.3937Y-2.7559
X5.4134Y-3.1378
X5.4291Y-4.2323
X5.4291Y-4.2559
X5.4291Y-4.2795
X5.4331Y-2.5827
X5.4331Y-2.6772
X5.4331Y-2.7165
X5.4331Y-2.7559
X5.4724Y-2.9173
X5.4898Y-3.8133
X5.5315Y-2.5827
X5.5832Y-3.8706
X5.5945Y-3.374
X5.6158Y-3.3091
X5.622Y-3.4803
X5.6299Y-2.5827
X5.6358Y-3.0354
X5.637Y-3.2885
X5.6378Y-3.7283
X5.6378Y-3.9488
X5.6378Y-3.9783
X5.65Y-3.35
X5.6566Y-3.2665
X5.6786Y-3.2468
X5.7003Y-3.2244
X5.7047Y-3.5079
X5.7224Y-3.2047
X5.7244Y-3.4094
X5.7323Y-2.5827
X5.7455Y-3.1769
X5.752Y-3.8386
X5.7598Y-3.5709
X5.7672Y-3.1548
X5.7717Y-3.7087
X5.7815Y-3.376
X5.7943Y-3.1303
X5.8159Y-3.1063
X5.8228Y-3.7441
X5.8286Y-3.2977
X5.8307Y-2.5827
X5.8403Y-3.0828
X5.8622Y-3.063
X5.8661Y-3.7795
X5.8917Y-3.6743
X5.8954Y-3.0907
X5.9223Y-3.1028
X5.9331Y-2.5827
X5.9517Y-3.1142
X5.9961Y-3.3701
X5.9969Y-3.2126
X6.0197Y-3.7087
X6.0315Y-2.5827
X6.036Y-3.6609
X6.0827Y-3.8228
X6.0906Y-2.9646
X6.0906Y-3.5984
X6.0977Y-3.6271
X6.0988Y-3.6566
X6.1339Y-2.5827
X6.1397Y-3.2617
X6.158Y-3.3809
X6.1614Y-3.2874
X6.1693Y-2.8819
X6.173Y-3.5768
X6.1955Y-2.8608
X6.2182Y-3.0172
X6.2205Y-3.4764
X6.2266Y-3.4064
X6.2323Y-2.5827
X6.2559Y-3.4252
X6.3228Y-2.9055
X6.3307Y-2.5827
X6.3504Y-3.7165
X6.374Y-3.4764
X6.374Y-3.6929
X6.3858Y-2.8071
X6.4331Y-2.5827
X6.4528Y-3.0394
X6.5315Y-2.5827
X6.5748Y-3.3071
X6.5748Y-3.3465
X6.5748Y-3.3858
X6.6142Y-3.3071
X6.6142Y-3.3465
X6.6142Y-3.3858
X6.6142Y-4.2913
X6.6142Y-4.3307
X6.6142Y-4.3701
X6.6331Y-2.8586
X6.6535Y-3.3071
X6.6535Y-3.3465
X6.6535Y-3.3858
X6.6535Y-4.2913
X6.6535Y-4.3307
X6.6535Y-4.3701
X6.6929Y-3.9764
X6.6929Y-4.2913
X6.6929Y-4.3307
X6.6929Y-4.3701
X6.7798Y-2.8369
X6.8228Y-4.0118
X6.878Y-2.4016
X6.878Y-2.5787
X6.8858Y-3.4449
X6.8858Y-3.5472
X6.8858Y-3.6457
X6.8858Y-3.748
T4
X5.0764Y-4.9069
X5.5094Y-4.9069
X6.9701Y-3.4457
X6.9701Y-3.5457
X6.9701Y-3.6457
X6.9701Y-3.7457
T5
X5.1331Y-2.3205
X5.1331Y-2.4205
X5.1331Y-2.5205
X5.2331Y-2.3205
X5.2331Y-2.4205
X5.2331Y-2.5205
X5.3331Y-2.3205
X5.3331Y-2.4205
X5.3331Y-2.5205
X5.4331Y-2.3205
X5.4331Y-2.4205
X5.4331Y-2.5205
X5.5331Y-2.3205
X5.5331Y-2.4205
X5.5331Y-2.5205
X5.6331Y-2.3205
X5.6331Y-2.4205
X5.6331Y-2.5205
X5.7331Y-2.3205
X5.7331Y-2.4205
X5.7331Y-2.5205
X5.8331Y-2.3205
X5.8331Y-2.4205
X5.8331Y-2.5205
X5.9331Y-2.3205
X5.9331Y-2.4205
X5.9331Y-2.5205
X6.0331Y-2.3205
X6.0331Y-2.4205
X6.0331Y-2.5205
X6.1331Y-2.3205
X6.1331Y-2.4205
X6.1331Y-2.5205
X6.2331Y-2.3205
X6.2331Y-2.4205
X6.2331Y-2.5205
X6.3331Y-2.3205
X6.3331Y-2.4205
X6.3331Y-2.5205
X6.4331Y-2.3205
X6.4331Y-2.4205
X6.4331Y-2.5205
X6.5331Y-2.3205
X6.5331Y-2.4205
X6.5331Y-2.5205
X6.6331Y-2.3205
X6.6331Y-2.4205
X6.6331Y-2.5205
T6
X6.5315Y-4.8543
T7
X5.1945Y-4.5132
X5.3913Y-4.5132
X6.4315Y-4.7543
X6.4315Y-4.9543
X6.6315Y-4.7543
X6.6315Y-4.9543
T3
G00X4.8181Y-4.0362
M15
G01X4.7945Y-4.0362
M16
G05
G00X4.8181Y-4.3764
M15
G01X4.7945Y-4.3764
M16
G05
G00X4.9925Y-4.0362
M15
G01X4.9492Y-4.0362
M16
G05
G00X4.9925Y-4.3764
M15
G01X4.9492Y-4.3764
M16
G05
M30
