G04 #@! TF.GenerationSoftware,KiCad,Pcbnew,8.0.4*
G04 #@! TF.CreationDate,2024-08-14T20:28:55-04:00*
G04 #@! TF.ProjectId,RP2350_80QFN_minimal,52503233-3530-45f3-9830-51464e5f6d69,REV3*
G04 #@! TF.SameCoordinates,Original*
G04 #@! TF.FileFunction,Copper,L3,Inr*
G04 #@! TF.FilePolarity,Positive*
%FSLAX46Y46*%
G04 Gerber Fmt 4.6, Leading zero omitted, Abs format (unit mm)*
G04 Created by KiCad (PCBNEW 8.0.4) date 2024-08-14 20:28:55*
%MOMM*%
%LPD*%
G01*
G04 APERTURE LIST*
G04 #@! TA.AperFunction,ComponentPad*
%ADD10R,1.700000X1.700000*%
G04 #@! TD*
G04 #@! TA.AperFunction,ComponentPad*
%ADD11O,1.700000X1.700000*%
G04 #@! TD*
G04 #@! TA.AperFunction,ComponentPad*
%ADD12C,1.508000*%
G04 #@! TD*
G04 #@! TA.AperFunction,ComponentPad*
%ADD13C,2.550000*%
G04 #@! TD*
G04 #@! TA.AperFunction,ComponentPad*
%ADD14R,2.550000X2.550000*%
G04 #@! TD*
G04 #@! TA.AperFunction,ComponentPad*
%ADD15C,0.600000*%
G04 #@! TD*
G04 #@! TA.AperFunction,ComponentPad*
%ADD16R,1.370000X1.370000*%
G04 #@! TD*
G04 #@! TA.AperFunction,ComponentPad*
%ADD17C,1.370000*%
G04 #@! TD*
G04 #@! TA.AperFunction,ComponentPad*
%ADD18O,2.100000X1.000000*%
G04 #@! TD*
G04 #@! TA.AperFunction,ComponentPad*
%ADD19O,1.600000X1.000000*%
G04 #@! TD*
G04 #@! TA.AperFunction,ViaPad*
%ADD20C,0.600000*%
G04 #@! TD*
G04 APERTURE END LIST*
D10*
X177040000Y-95140000D03*
D11*
X177040000Y-92600000D03*
X177040000Y-90060000D03*
X177040000Y-87520000D03*
D12*
X139940000Y-124634250D03*
X128940000Y-124634250D03*
D13*
X131940000Y-114634250D03*
D14*
X136940000Y-114634250D03*
D15*
X149454859Y-89882331D03*
X150256246Y-89080943D03*
X151057634Y-88279556D03*
X148653472Y-89080943D03*
X149454859Y-88279556D03*
X150256246Y-87478169D03*
X147852084Y-88279556D03*
X148653472Y-87478169D03*
X149454859Y-86676781D03*
D16*
X168480000Y-58940000D03*
D17*
X168480000Y-61480000D03*
X168480000Y-64020000D03*
X165940000Y-58940000D03*
X165940000Y-61480000D03*
X165940000Y-64020000D03*
X163400000Y-58940000D03*
X163400000Y-61480000D03*
X163400000Y-64020000D03*
X160860000Y-58940000D03*
X160860000Y-61480000D03*
X160860000Y-64020000D03*
X158320000Y-58940000D03*
X158320000Y-61480000D03*
X158320000Y-64020000D03*
X155780000Y-58940000D03*
X155780000Y-61480000D03*
X155780000Y-64020000D03*
X153240000Y-58940000D03*
X153240000Y-61480000D03*
X153240000Y-64020000D03*
X150700000Y-58940000D03*
X150700000Y-61480000D03*
X150700000Y-64020000D03*
X148160000Y-58940000D03*
X148160000Y-61480000D03*
X148160000Y-64020000D03*
X145620000Y-58940000D03*
X145620000Y-61480000D03*
X145620000Y-64020000D03*
X143080000Y-58940000D03*
X143080000Y-61480000D03*
X143080000Y-64020000D03*
X140540000Y-58940000D03*
X140540000Y-61480000D03*
X140540000Y-64020000D03*
X138000000Y-58940000D03*
X138000000Y-61480000D03*
X138000000Y-64020000D03*
X135460000Y-58940000D03*
X135460000Y-61480000D03*
X135460000Y-64020000D03*
X132920000Y-58940000D03*
X132920000Y-61480000D03*
X132920000Y-64020000D03*
X130380000Y-58940000D03*
X130380000Y-61480000D03*
X130380000Y-64020000D03*
D18*
X126260000Y-102520000D03*
D19*
X122080000Y-102520000D03*
D18*
X126260000Y-111160000D03*
D19*
X122080000Y-111160000D03*
D20*
X156700000Y-73200000D03*
X168480000Y-72607535D03*
X149000000Y-96000000D03*
X156412474Y-85874545D03*
X138000000Y-70000000D03*
X137000000Y-69000000D03*
X138000000Y-68000000D03*
X137000000Y-70000000D03*
X136000000Y-70000000D03*
X136000000Y-68000000D03*
X137000000Y-68000000D03*
X136000000Y-69000000D03*
X138000000Y-69000000D03*
X170000000Y-111000000D03*
X169000000Y-111000000D03*
X168000000Y-111000000D03*
X122200000Y-86300000D03*
X121200000Y-86300000D03*
X120200000Y-86300000D03*
X135000000Y-123000000D03*
X134000000Y-123000000D03*
X133000000Y-123000000D03*
X135000000Y-122000000D03*
X134000000Y-122000000D03*
X133000000Y-122000000D03*
X135000000Y-121000000D03*
X134000000Y-121000000D03*
X133000000Y-121000000D03*
X122200000Y-85300000D03*
X121200000Y-85300000D03*
X120200000Y-85300000D03*
X122200000Y-84300000D03*
X121200000Y-84300000D03*
X120200000Y-84300000D03*
X170000000Y-110000000D03*
X169000000Y-110000000D03*
X168000000Y-110000000D03*
X170000000Y-109000000D03*
X169000000Y-109000000D03*
X168000000Y-109000000D03*
X169000000Y-86000000D03*
X168000000Y-86000000D03*
X167000000Y-86000000D03*
X169000000Y-85000000D03*
X168000000Y-85000000D03*
X167000000Y-85000000D03*
X167000000Y-84000000D03*
X168000000Y-84000000D03*
X169000000Y-84000000D03*
X146600000Y-94200000D03*
X143200000Y-101050003D03*
X125340000Y-77340000D03*
X133000000Y-92000000D03*
X133800000Y-91994974D03*
X125304999Y-75000000D03*
X146100000Y-97500000D03*
X143200000Y-100300000D03*
X133600000Y-104000000D03*
X142800000Y-88400000D03*
X139441422Y-96858578D03*
X149648353Y-93327841D03*
X170000000Y-101000000D03*
X152900000Y-94200000D03*
X146300000Y-90700000D03*
X144900000Y-89100000D03*
X145400000Y-86600000D03*
X146850000Y-85750000D03*
X174700000Y-65500000D03*
X174700000Y-61000000D03*
X163900000Y-77200000D03*
X154700000Y-75300000D03*
X157365557Y-72665558D03*
X160600000Y-73800000D03*
X162200000Y-71300000D03*
X157941975Y-76636052D03*
X158000000Y-88300000D03*
X158900000Y-87000000D03*
X154500000Y-97100000D03*
X173300000Y-101900000D03*
X161300000Y-94400000D03*
X156793361Y-90850000D03*
X161900000Y-93800000D03*
X153313388Y-92986612D03*
X174900000Y-95200000D03*
X154910615Y-92877063D03*
X174900000Y-92600000D03*
X154881902Y-92127610D03*
X174900000Y-90100000D03*
X154700000Y-91400000D03*
X174900000Y-87500000D03*
X161900000Y-88300000D03*
X158154779Y-86523039D03*
X147900000Y-95100000D03*
X172206067Y-72057535D03*
X152300000Y-85600000D03*
X152320593Y-81600000D03*
X148046787Y-83760534D03*
X143150000Y-77100000D03*
X137500000Y-79700000D03*
X139000000Y-74100000D03*
X136200000Y-74000000D03*
X132100000Y-76800000D03*
X130100000Y-73200000D03*
X129500000Y-83500000D03*
X136000000Y-106500000D03*
X136000000Y-105300000D03*
X136000000Y-105900000D03*
X137900000Y-108700000D03*
X137900000Y-107500000D03*
X137900000Y-108100000D03*
X143508793Y-85091207D03*
X126000000Y-96400000D03*
X142100000Y-85700000D03*
X126000000Y-95200000D03*
X127800000Y-100800000D03*
X132000000Y-104000000D03*
X136900000Y-112400000D03*
X131900000Y-102100000D03*
X141812653Y-98312653D03*
X143200000Y-94700000D03*
X151173064Y-79100271D03*
X165900000Y-65600000D03*
X150426582Y-78812000D03*
X163400000Y-65600000D03*
X149742997Y-78503431D03*
X160800000Y-65600000D03*
X148900000Y-77800000D03*
X158300000Y-65600000D03*
X148344168Y-78303543D03*
X155800000Y-65600000D03*
X147724039Y-78900000D03*
X153200000Y-65600000D03*
X150700000Y-65600000D03*
X147174039Y-79508408D03*
X146485654Y-80131478D03*
X148100000Y-65600000D03*
X145935654Y-80693988D03*
X145600000Y-65600000D03*
X145350215Y-81399693D03*
X143000000Y-65600000D03*
X144787262Y-81900000D03*
X140500000Y-65600000D03*
X144237262Y-82468131D03*
X138000000Y-65600000D03*
X135500000Y-65600000D03*
X143678281Y-82968176D03*
X143178665Y-83527539D03*
X132900000Y-65600000D03*
X142642397Y-84051868D03*
X130400000Y-65600000D03*
X129500000Y-94000000D03*
X155947538Y-82847538D03*
X156500000Y-83500000D03*
X129500000Y-106465000D03*
X129500000Y-107215000D03*
G04 #@! TA.AperFunction,Conductor*
G36*
X128582539Y-49160185D02*
G01*
X128628294Y-49212989D01*
X128639500Y-49264500D01*
X128639500Y-54660438D01*
X128639500Y-54739562D01*
X128653152Y-54790513D01*
X128659979Y-54815990D01*
X128659982Y-54815995D01*
X128699535Y-54884504D01*
X128699539Y-54884509D01*
X128699540Y-54884511D01*
X128755489Y-54940460D01*
X128755491Y-54940461D01*
X128755495Y-54940464D01*
X128824004Y-54980017D01*
X128824011Y-54980021D01*
X128900438Y-55000500D01*
X128900440Y-55000500D01*
X169979560Y-55000500D01*
X169979562Y-55000500D01*
X170055989Y-54980021D01*
X170124511Y-54940460D01*
X170180460Y-54884511D01*
X170220021Y-54815989D01*
X170240500Y-54739562D01*
X170240500Y-53714038D01*
X173339500Y-53714038D01*
X173339500Y-53965961D01*
X173378910Y-54214785D01*
X173456760Y-54454383D01*
X173535413Y-54608747D01*
X173561751Y-54660438D01*
X173571132Y-54678848D01*
X173719201Y-54882649D01*
X173719205Y-54882654D01*
X173897345Y-55060794D01*
X173897350Y-55060798D01*
X174075117Y-55189952D01*
X174101155Y-55208870D01*
X174244184Y-55281747D01*
X174325616Y-55323239D01*
X174325618Y-55323239D01*
X174325621Y-55323241D01*
X174565215Y-55401090D01*
X174814038Y-55440500D01*
X174814039Y-55440500D01*
X175065961Y-55440500D01*
X175065962Y-55440500D01*
X175314785Y-55401090D01*
X175554379Y-55323241D01*
X175778845Y-55208870D01*
X175982656Y-55060793D01*
X176160793Y-54882656D01*
X176308870Y-54678845D01*
X176423241Y-54454379D01*
X176501090Y-54214785D01*
X176540500Y-53965962D01*
X176540500Y-53714038D01*
X176501090Y-53465215D01*
X176423241Y-53225621D01*
X176423239Y-53225618D01*
X176423239Y-53225616D01*
X176381747Y-53144184D01*
X176308870Y-53001155D01*
X176289952Y-52975117D01*
X176160798Y-52797350D01*
X176160794Y-52797345D01*
X175982654Y-52619205D01*
X175982649Y-52619201D01*
X175778848Y-52471132D01*
X175778847Y-52471131D01*
X175778845Y-52471130D01*
X175708747Y-52435413D01*
X175554383Y-52356760D01*
X175314785Y-52278910D01*
X175065962Y-52239500D01*
X174814038Y-52239500D01*
X174689626Y-52259205D01*
X174565214Y-52278910D01*
X174325616Y-52356760D01*
X174101151Y-52471132D01*
X173897350Y-52619201D01*
X173897345Y-52619205D01*
X173719205Y-52797345D01*
X173719201Y-52797350D01*
X173571132Y-53001151D01*
X173456760Y-53225616D01*
X173378910Y-53465214D01*
X173339500Y-53714038D01*
X170240500Y-53714038D01*
X170240500Y-49264500D01*
X170260185Y-49197461D01*
X170312989Y-49151706D01*
X170364500Y-49140500D01*
X174892405Y-49140500D01*
X174937294Y-49140500D01*
X174942702Y-49140617D01*
X175344202Y-49158147D01*
X175354937Y-49159087D01*
X175750693Y-49211189D01*
X175761331Y-49213064D01*
X176151043Y-49299462D01*
X176161483Y-49302260D01*
X176542168Y-49422289D01*
X176552315Y-49425982D01*
X176921102Y-49578739D01*
X176930893Y-49583305D01*
X177284942Y-49767611D01*
X177294310Y-49773019D01*
X177630959Y-49987488D01*
X177639820Y-49993693D01*
X177956487Y-50236680D01*
X177964774Y-50243634D01*
X178259056Y-50513294D01*
X178266705Y-50520943D01*
X178536365Y-50815225D01*
X178543319Y-50823512D01*
X178786306Y-51140179D01*
X178792511Y-51149040D01*
X179006980Y-51485689D01*
X179012388Y-51495057D01*
X179196691Y-51849099D01*
X179201263Y-51858903D01*
X179354013Y-52227674D01*
X179357713Y-52237840D01*
X179477738Y-52618512D01*
X179480538Y-52628960D01*
X179566933Y-53018660D01*
X179568811Y-53029314D01*
X179620910Y-53425042D01*
X179621853Y-53435818D01*
X179639382Y-53837297D01*
X179639500Y-53842706D01*
X179639500Y-122837293D01*
X179639382Y-122842702D01*
X179621853Y-123244181D01*
X179620910Y-123254957D01*
X179568811Y-123650685D01*
X179566933Y-123661339D01*
X179480538Y-124051039D01*
X179477738Y-124061487D01*
X179357713Y-124442159D01*
X179354013Y-124452325D01*
X179201263Y-124821096D01*
X179196691Y-124830900D01*
X179012388Y-125184942D01*
X179006980Y-125194310D01*
X178792511Y-125530959D01*
X178786306Y-125539820D01*
X178543319Y-125856487D01*
X178536365Y-125864774D01*
X178266705Y-126159056D01*
X178259056Y-126166705D01*
X177964774Y-126436365D01*
X177956487Y-126443319D01*
X177639820Y-126686306D01*
X177630959Y-126692511D01*
X177294310Y-126906980D01*
X177284942Y-126912388D01*
X176930900Y-127096691D01*
X176921096Y-127101263D01*
X176552325Y-127254013D01*
X176542159Y-127257713D01*
X176161487Y-127377738D01*
X176151039Y-127380538D01*
X175761339Y-127466933D01*
X175750685Y-127468811D01*
X175354958Y-127520910D01*
X175344181Y-127521853D01*
X174943428Y-127539349D01*
X174936974Y-127539463D01*
X170249769Y-127499908D01*
X170243907Y-127499500D01*
X170239562Y-127499500D01*
X170201821Y-127499500D01*
X170200776Y-127499496D01*
X170158608Y-127499140D01*
X170152748Y-127499500D01*
X161647648Y-127499500D01*
X161646875Y-127499449D01*
X161599756Y-127499499D01*
X161599700Y-127499500D01*
X161553024Y-127499500D01*
X161552255Y-127499549D01*
X123942761Y-127539496D01*
X123937220Y-127539378D01*
X123535817Y-127521853D01*
X123525043Y-127520910D01*
X123456419Y-127511875D01*
X123129314Y-127468811D01*
X123118660Y-127466933D01*
X122728960Y-127380538D01*
X122718512Y-127377738D01*
X122337840Y-127257713D01*
X122327674Y-127254013D01*
X121958903Y-127101263D01*
X121949099Y-127096691D01*
X121595057Y-126912388D01*
X121585689Y-126906980D01*
X121249040Y-126692511D01*
X121240179Y-126686306D01*
X120923512Y-126443319D01*
X120915225Y-126436365D01*
X120620943Y-126166705D01*
X120613294Y-126159056D01*
X120343634Y-125864774D01*
X120336680Y-125856487D01*
X120257570Y-125753389D01*
X162259500Y-125753389D01*
X162259500Y-125926611D01*
X162286598Y-126097701D01*
X162340127Y-126262445D01*
X162418768Y-126416788D01*
X162520586Y-126556928D01*
X162643072Y-126679414D01*
X162783212Y-126781232D01*
X162937555Y-126859873D01*
X163102299Y-126913402D01*
X163273389Y-126940500D01*
X163273390Y-126940500D01*
X163446610Y-126940500D01*
X163446611Y-126940500D01*
X163617701Y-126913402D01*
X163782445Y-126859873D01*
X163936788Y-126781232D01*
X164076928Y-126679414D01*
X164199414Y-126556928D01*
X164301232Y-126416788D01*
X164379873Y-126262445D01*
X164433402Y-126097701D01*
X164460500Y-125926611D01*
X164460500Y-125753389D01*
X167339500Y-125753389D01*
X167339500Y-125926611D01*
X167366598Y-126097701D01*
X167420127Y-126262445D01*
X167498768Y-126416788D01*
X167600586Y-126556928D01*
X167723072Y-126679414D01*
X167863212Y-126781232D01*
X168017555Y-126859873D01*
X168182299Y-126913402D01*
X168353389Y-126940500D01*
X168353390Y-126940500D01*
X168526610Y-126940500D01*
X168526611Y-126940500D01*
X168697701Y-126913402D01*
X168862445Y-126859873D01*
X169016788Y-126781232D01*
X169156928Y-126679414D01*
X169279414Y-126556928D01*
X169381232Y-126416788D01*
X169459873Y-126262445D01*
X169513402Y-126097701D01*
X169540500Y-125926611D01*
X169540500Y-125753389D01*
X169513402Y-125582299D01*
X169459873Y-125417555D01*
X169381232Y-125263212D01*
X169279414Y-125123072D01*
X169156928Y-125000586D01*
X169016788Y-124898768D01*
X168862445Y-124820127D01*
X168697701Y-124766598D01*
X168697699Y-124766597D01*
X168697698Y-124766597D01*
X168566271Y-124745781D01*
X168526611Y-124739500D01*
X168353389Y-124739500D01*
X168313728Y-124745781D01*
X168182302Y-124766597D01*
X168017552Y-124820128D01*
X167863211Y-124898768D01*
X167783256Y-124956859D01*
X167723072Y-125000586D01*
X167723070Y-125000588D01*
X167723069Y-125000588D01*
X167600588Y-125123069D01*
X167600588Y-125123070D01*
X167600586Y-125123072D01*
X167567342Y-125168828D01*
X167498768Y-125263211D01*
X167420128Y-125417552D01*
X167366597Y-125582302D01*
X167339500Y-125753389D01*
X164460500Y-125753389D01*
X164433402Y-125582299D01*
X164379873Y-125417555D01*
X164301232Y-125263212D01*
X164199414Y-125123072D01*
X164076928Y-125000586D01*
X163936788Y-124898768D01*
X163782445Y-124820127D01*
X163617701Y-124766598D01*
X163617699Y-124766597D01*
X163617698Y-124766597D01*
X163486271Y-124745781D01*
X163446611Y-124739500D01*
X163273389Y-124739500D01*
X163233728Y-124745781D01*
X163102302Y-124766597D01*
X162937552Y-124820128D01*
X162783211Y-124898768D01*
X162703256Y-124956859D01*
X162643072Y-125000586D01*
X162643070Y-125000588D01*
X162643069Y-125000588D01*
X162520588Y-125123069D01*
X162520588Y-125123070D01*
X162520586Y-125123072D01*
X162487342Y-125168828D01*
X162418768Y-125263211D01*
X162340128Y-125417552D01*
X162286597Y-125582302D01*
X162259500Y-125753389D01*
X120257570Y-125753389D01*
X120093693Y-125539820D01*
X120087488Y-125530959D01*
X119873019Y-125194310D01*
X119867611Y-125184942D01*
X119859223Y-125168828D01*
X119683305Y-124830893D01*
X119678736Y-124821096D01*
X119678335Y-124820127D01*
X119601342Y-124634250D01*
X128030518Y-124634250D01*
X128050392Y-124823342D01*
X128050393Y-124823345D01*
X128109144Y-125004163D01*
X128109147Y-125004170D01*
X128204214Y-125168830D01*
X128331438Y-125310127D01*
X128485259Y-125421885D01*
X128658955Y-125499219D01*
X128844933Y-125538750D01*
X129035067Y-125538750D01*
X129221045Y-125499219D01*
X129394741Y-125421885D01*
X129548562Y-125310127D01*
X129675786Y-125168830D01*
X129770853Y-125004170D01*
X129829608Y-124823342D01*
X129849482Y-124634250D01*
X139030518Y-124634250D01*
X139050392Y-124823342D01*
X139050393Y-124823345D01*
X139109144Y-125004163D01*
X139109147Y-125004170D01*
X139204214Y-125168830D01*
X139331438Y-125310127D01*
X139485259Y-125421885D01*
X139658955Y-125499219D01*
X139844933Y-125538750D01*
X140035067Y-125538750D01*
X140221045Y-125499219D01*
X140394741Y-125421885D01*
X140548562Y-125310127D01*
X140675786Y-125168830D01*
X140770853Y-125004170D01*
X140829608Y-124823342D01*
X140849482Y-124634250D01*
X140829608Y-124445158D01*
X140770853Y-124264330D01*
X140675786Y-124099670D01*
X140548562Y-123958373D01*
X140394741Y-123846615D01*
X140221045Y-123769281D01*
X140221043Y-123769280D01*
X140035067Y-123729750D01*
X139844933Y-123729750D01*
X139658957Y-123769280D01*
X139485257Y-123846616D01*
X139331436Y-123958374D01*
X139204213Y-124099671D01*
X139109147Y-124264329D01*
X139109144Y-124264336D01*
X139051905Y-124440500D01*
X139050392Y-124445158D01*
X139030518Y-124634250D01*
X129849482Y-124634250D01*
X129829608Y-124445158D01*
X129770853Y-124264330D01*
X129675786Y-124099670D01*
X129548562Y-123958373D01*
X129394741Y-123846615D01*
X129221045Y-123769281D01*
X129221043Y-123769280D01*
X129035067Y-123729750D01*
X128844933Y-123729750D01*
X128658957Y-123769280D01*
X128485257Y-123846616D01*
X128331436Y-123958374D01*
X128204213Y-124099671D01*
X128109147Y-124264329D01*
X128109144Y-124264336D01*
X128051905Y-124440500D01*
X128050392Y-124445158D01*
X128030518Y-124634250D01*
X119601342Y-124634250D01*
X119525982Y-124452315D01*
X119522286Y-124442159D01*
X119484791Y-124323241D01*
X119402260Y-124061483D01*
X119399461Y-124051039D01*
X119378918Y-123958374D01*
X119313064Y-123661331D01*
X119311188Y-123650685D01*
X119303441Y-123591839D01*
X119259087Y-123254937D01*
X119258147Y-123244202D01*
X119240618Y-122842702D01*
X119240500Y-122837293D01*
X119240500Y-122714038D01*
X122339500Y-122714038D01*
X122339500Y-122965961D01*
X122378910Y-123214785D01*
X122456760Y-123454383D01*
X122478064Y-123496193D01*
X122562210Y-123661339D01*
X122571132Y-123678848D01*
X122719201Y-123882649D01*
X122719205Y-123882654D01*
X122897345Y-124060794D01*
X122897350Y-124060798D01*
X123070541Y-124186628D01*
X123101155Y-124208870D01*
X123244184Y-124281747D01*
X123325616Y-124323239D01*
X123325618Y-124323239D01*
X123325621Y-124323241D01*
X123565215Y-124401090D01*
X123814038Y-124440500D01*
X123814039Y-124440500D01*
X124065961Y-124440500D01*
X124065962Y-124440500D01*
X124314785Y-124401090D01*
X124554379Y-124323241D01*
X124778845Y-124208870D01*
X124982656Y-124060793D01*
X125160793Y-123882656D01*
X125308870Y-123678845D01*
X125423241Y-123454379D01*
X125441383Y-123398543D01*
X164899499Y-123398543D01*
X164937947Y-123591829D01*
X164937950Y-123591839D01*
X165013364Y-123773907D01*
X165013371Y-123773920D01*
X165122860Y-123937781D01*
X165122863Y-123937785D01*
X165262214Y-124077136D01*
X165262218Y-124077139D01*
X165426079Y-124186628D01*
X165426092Y-124186635D01*
X165608160Y-124262049D01*
X165608165Y-124262051D01*
X165608169Y-124262051D01*
X165608170Y-124262052D01*
X165801456Y-124300500D01*
X165801459Y-124300500D01*
X165998543Y-124300500D01*
X166128582Y-124274632D01*
X166191835Y-124262051D01*
X166373914Y-124186632D01*
X166537782Y-124077139D01*
X166677139Y-123937782D01*
X166786632Y-123773914D01*
X166788552Y-123769280D01*
X166826009Y-123678848D01*
X166862051Y-123591835D01*
X166900500Y-123398541D01*
X166900500Y-123201459D01*
X166900500Y-123201456D01*
X166862052Y-123008170D01*
X166862051Y-123008169D01*
X166862051Y-123008165D01*
X166793515Y-122842702D01*
X166786635Y-122826092D01*
X166786628Y-122826079D01*
X166711764Y-122714038D01*
X173339500Y-122714038D01*
X173339500Y-122965961D01*
X173378910Y-123214785D01*
X173456760Y-123454383D01*
X173478064Y-123496193D01*
X173562210Y-123661339D01*
X173571132Y-123678848D01*
X173719201Y-123882649D01*
X173719205Y-123882654D01*
X173897345Y-124060794D01*
X173897350Y-124060798D01*
X174070541Y-124186628D01*
X174101155Y-124208870D01*
X174244184Y-124281747D01*
X174325616Y-124323239D01*
X174325618Y-124323239D01*
X174325621Y-124323241D01*
X174565215Y-124401090D01*
X174814038Y-124440500D01*
X174814039Y-124440500D01*
X175065961Y-124440500D01*
X175065962Y-124440500D01*
X175314785Y-124401090D01*
X175554379Y-124323241D01*
X175778845Y-124208870D01*
X175982656Y-124060793D01*
X176160793Y-123882656D01*
X176308870Y-123678845D01*
X176423241Y-123454379D01*
X176501090Y-123214785D01*
X176540500Y-122965962D01*
X176540500Y-122714038D01*
X176501090Y-122465215D01*
X176423241Y-122225621D01*
X176423239Y-122225618D01*
X176423239Y-122225616D01*
X176381747Y-122144184D01*
X176308870Y-122001155D01*
X176289952Y-121975117D01*
X176160798Y-121797350D01*
X176160794Y-121797345D01*
X175982654Y-121619205D01*
X175982649Y-121619201D01*
X175778848Y-121471132D01*
X175778847Y-121471131D01*
X175778845Y-121471130D01*
X175708747Y-121435413D01*
X175554383Y-121356760D01*
X175314785Y-121278910D01*
X175065962Y-121239500D01*
X174814038Y-121239500D01*
X174689626Y-121259205D01*
X174565214Y-121278910D01*
X174325616Y-121356760D01*
X174101151Y-121471132D01*
X173897350Y-121619201D01*
X173897345Y-121619205D01*
X173719205Y-121797345D01*
X173719201Y-121797350D01*
X173571132Y-122001151D01*
X173456760Y-122225616D01*
X173378910Y-122465214D01*
X173339500Y-122714038D01*
X166711764Y-122714038D01*
X166677139Y-122662218D01*
X166677136Y-122662214D01*
X166537785Y-122522863D01*
X166537781Y-122522860D01*
X166373920Y-122413371D01*
X166373907Y-122413364D01*
X166191839Y-122337950D01*
X166191829Y-122337947D01*
X165998543Y-122299500D01*
X165998541Y-122299500D01*
X165801459Y-122299500D01*
X165801457Y-122299500D01*
X165608170Y-122337947D01*
X165608160Y-122337950D01*
X165426092Y-122413364D01*
X165426079Y-122413371D01*
X165262218Y-122522860D01*
X165262214Y-122522863D01*
X165122863Y-122662214D01*
X165122860Y-122662218D01*
X165013371Y-122826079D01*
X165013364Y-122826092D01*
X164937950Y-123008160D01*
X164937947Y-123008170D01*
X164899500Y-123201456D01*
X164899500Y-123201459D01*
X164899500Y-123398541D01*
X164899500Y-123398543D01*
X164899499Y-123398543D01*
X125441383Y-123398543D01*
X125501090Y-123214785D01*
X125540500Y-122965962D01*
X125540500Y-122714038D01*
X125501090Y-122465215D01*
X125423241Y-122225621D01*
X125423239Y-122225618D01*
X125423239Y-122225616D01*
X125381747Y-122144184D01*
X125308870Y-122001155D01*
X125289952Y-121975117D01*
X125160798Y-121797350D01*
X125160794Y-121797345D01*
X124982654Y-121619205D01*
X124982649Y-121619201D01*
X124778848Y-121471132D01*
X124778847Y-121471131D01*
X124778845Y-121471130D01*
X124708747Y-121435413D01*
X124554383Y-121356760D01*
X124314785Y-121278910D01*
X124065962Y-121239500D01*
X123814038Y-121239500D01*
X123689626Y-121259205D01*
X123565214Y-121278910D01*
X123325616Y-121356760D01*
X123101151Y-121471132D01*
X122897350Y-121619201D01*
X122897345Y-121619205D01*
X122719205Y-121797345D01*
X122719201Y-121797350D01*
X122571132Y-122001151D01*
X122456760Y-122225616D01*
X122378910Y-122465214D01*
X122339500Y-122714038D01*
X119240500Y-122714038D01*
X119240500Y-120673389D01*
X162259500Y-120673389D01*
X162259500Y-120846611D01*
X162286598Y-121017701D01*
X162340127Y-121182445D01*
X162418768Y-121336788D01*
X162520586Y-121476928D01*
X162643072Y-121599414D01*
X162783212Y-121701232D01*
X162937555Y-121779873D01*
X163102299Y-121833402D01*
X163273389Y-121860500D01*
X163273390Y-121860500D01*
X163446610Y-121860500D01*
X163446611Y-121860500D01*
X163617701Y-121833402D01*
X163782445Y-121779873D01*
X163936788Y-121701232D01*
X164076928Y-121599414D01*
X164199414Y-121476928D01*
X164301232Y-121336788D01*
X164379873Y-121182445D01*
X164433402Y-121017701D01*
X164460500Y-120846611D01*
X164460500Y-120673389D01*
X167339500Y-120673389D01*
X167339500Y-120846611D01*
X167366598Y-121017701D01*
X167420127Y-121182445D01*
X167498768Y-121336788D01*
X167600586Y-121476928D01*
X167723072Y-121599414D01*
X167863212Y-121701232D01*
X168017555Y-121779873D01*
X168182299Y-121833402D01*
X168353389Y-121860500D01*
X168353390Y-121860500D01*
X168526610Y-121860500D01*
X168526611Y-121860500D01*
X168697701Y-121833402D01*
X168862445Y-121779873D01*
X169016788Y-121701232D01*
X169156928Y-121599414D01*
X169279414Y-121476928D01*
X169381232Y-121336788D01*
X169459873Y-121182445D01*
X169513402Y-121017701D01*
X169540500Y-120846611D01*
X169540500Y-120673389D01*
X169513402Y-120502299D01*
X169459873Y-120337555D01*
X169381232Y-120183212D01*
X169279414Y-120043072D01*
X169156928Y-119920586D01*
X169016788Y-119818768D01*
X168862445Y-119740127D01*
X168697701Y-119686598D01*
X168697699Y-119686597D01*
X168697698Y-119686597D01*
X168566271Y-119665781D01*
X168526611Y-119659500D01*
X168353389Y-119659500D01*
X168313728Y-119665781D01*
X168182302Y-119686597D01*
X168017552Y-119740128D01*
X167863211Y-119818768D01*
X167783256Y-119876859D01*
X167723072Y-119920586D01*
X167723070Y-119920588D01*
X167723069Y-119920588D01*
X167600588Y-120043069D01*
X167600588Y-120043070D01*
X167600586Y-120043072D01*
X167556859Y-120103256D01*
X167498768Y-120183211D01*
X167420128Y-120337552D01*
X167366597Y-120502302D01*
X167339500Y-120673389D01*
X164460500Y-120673389D01*
X164433402Y-120502299D01*
X164379873Y-120337555D01*
X164301232Y-120183212D01*
X164199414Y-120043072D01*
X164076928Y-119920586D01*
X163936788Y-119818768D01*
X163782445Y-119740127D01*
X163617701Y-119686598D01*
X163617699Y-119686597D01*
X163617698Y-119686597D01*
X163486271Y-119665781D01*
X163446611Y-119659500D01*
X163273389Y-119659500D01*
X163233728Y-119665781D01*
X163102302Y-119686597D01*
X162937552Y-119740128D01*
X162783211Y-119818768D01*
X162703256Y-119876859D01*
X162643072Y-119920586D01*
X162643070Y-119920588D01*
X162643069Y-119920588D01*
X162520588Y-120043069D01*
X162520588Y-120043070D01*
X162520586Y-120043072D01*
X162476859Y-120103256D01*
X162418768Y-120183211D01*
X162340128Y-120337552D01*
X162286597Y-120502302D01*
X162259500Y-120673389D01*
X119240500Y-120673389D01*
X119240500Y-114634245D01*
X130160023Y-114634245D01*
X130160023Y-114634254D01*
X130179903Y-114899540D01*
X130179903Y-114899542D01*
X130239098Y-115158893D01*
X130239104Y-115158912D01*
X130336296Y-115406553D01*
X130469316Y-115636950D01*
X130520083Y-115700611D01*
X130520084Y-115700611D01*
X131185884Y-115034810D01*
X131186740Y-115036876D01*
X131279762Y-115176094D01*
X131398156Y-115294488D01*
X131537374Y-115387510D01*
X131539437Y-115388364D01*
X130872840Y-116054961D01*
X131050011Y-116175754D01*
X131050015Y-116175756D01*
X131289695Y-116291181D01*
X131289699Y-116291182D01*
X131543909Y-116369596D01*
X131543915Y-116369597D01*
X131806976Y-116409249D01*
X131806983Y-116409250D01*
X132073017Y-116409250D01*
X132073023Y-116409249D01*
X132336084Y-116369597D01*
X132336090Y-116369596D01*
X132590299Y-116291183D01*
X132829992Y-116175753D01*
X133007158Y-116054961D01*
X132876269Y-115924072D01*
X135514499Y-115924072D01*
X135523231Y-115967967D01*
X135523232Y-115967971D01*
X135523233Y-115967972D01*
X135556496Y-116017754D01*
X135606278Y-116051017D01*
X135606281Y-116051017D01*
X135606282Y-116051018D01*
X135650177Y-116059750D01*
X135650180Y-116059750D01*
X138229822Y-116059750D01*
X138273717Y-116051018D01*
X138273717Y-116051017D01*
X138273722Y-116051017D01*
X138323504Y-116017754D01*
X138356767Y-115967972D01*
X138365500Y-115924070D01*
X138365500Y-113344430D01*
X138365500Y-113344427D01*
X138356768Y-113300532D01*
X138356767Y-113300531D01*
X138356767Y-113300528D01*
X138323504Y-113250746D01*
X138323503Y-113250745D01*
X138273724Y-113217484D01*
X138273717Y-113217481D01*
X138229822Y-113208750D01*
X138229820Y-113208750D01*
X135650180Y-113208750D01*
X135650178Y-113208750D01*
X135606282Y-113217481D01*
X135606275Y-113217484D01*
X135556496Y-113250745D01*
X135556495Y-113250746D01*
X135523234Y-113300525D01*
X135523231Y-113300532D01*
X135514500Y-113344427D01*
X135514500Y-113344430D01*
X135514500Y-115924070D01*
X135514500Y-115924072D01*
X135514499Y-115924072D01*
X132876269Y-115924072D01*
X132340562Y-115388364D01*
X132342626Y-115387510D01*
X132481844Y-115294488D01*
X132600238Y-115176094D01*
X132693260Y-115036876D01*
X132694114Y-115034811D01*
X133359914Y-115700611D01*
X133359915Y-115700610D01*
X133410679Y-115636956D01*
X133410686Y-115636945D01*
X133543703Y-115406553D01*
X133640895Y-115158912D01*
X133640901Y-115158893D01*
X133700096Y-114899542D01*
X133700096Y-114899540D01*
X133719977Y-114634254D01*
X133719977Y-114634245D01*
X133700096Y-114368959D01*
X133700096Y-114368957D01*
X133640901Y-114109606D01*
X133640895Y-114109587D01*
X133543703Y-113861946D01*
X133410683Y-113631549D01*
X133359915Y-113567887D01*
X132694114Y-114233687D01*
X132693260Y-114231624D01*
X132600238Y-114092406D01*
X132481844Y-113974012D01*
X132342626Y-113880990D01*
X132340561Y-113880134D01*
X133007158Y-113213537D01*
X132829984Y-113092742D01*
X132590299Y-112977316D01*
X132336090Y-112898903D01*
X132336084Y-112898902D01*
X132073023Y-112859250D01*
X131806976Y-112859250D01*
X131543915Y-112898902D01*
X131543909Y-112898903D01*
X131289699Y-112977317D01*
X131289695Y-112977318D01*
X131050015Y-113092743D01*
X131050011Y-113092745D01*
X130872840Y-113213537D01*
X131539438Y-113880134D01*
X131537374Y-113880990D01*
X131398156Y-113974012D01*
X131279762Y-114092406D01*
X131186740Y-114231624D01*
X131185884Y-114233688D01*
X130520084Y-113567888D01*
X130469314Y-113631552D01*
X130336296Y-113861946D01*
X130239104Y-114109587D01*
X130239098Y-114109606D01*
X130179903Y-114368957D01*
X130179903Y-114368959D01*
X130160023Y-114634245D01*
X119240500Y-114634245D01*
X119240500Y-112400000D01*
X136444867Y-112400000D01*
X136463302Y-112528225D01*
X136517117Y-112646061D01*
X136517118Y-112646063D01*
X136601951Y-112743967D01*
X136710931Y-112814004D01*
X136835225Y-112850499D01*
X136835227Y-112850500D01*
X136835228Y-112850500D01*
X136964773Y-112850500D01*
X136964773Y-112850499D01*
X137089069Y-112814004D01*
X137198049Y-112743967D01*
X137282882Y-112646063D01*
X137336697Y-112528226D01*
X137355133Y-112400000D01*
X137336697Y-112271774D01*
X137282882Y-112153937D01*
X137198049Y-112056033D01*
X137089069Y-111985996D01*
X137089065Y-111985994D01*
X137089064Y-111985994D01*
X136964774Y-111949500D01*
X136964772Y-111949500D01*
X136835228Y-111949500D01*
X136835226Y-111949500D01*
X136710935Y-111985994D01*
X136710932Y-111985995D01*
X136710931Y-111985996D01*
X136659677Y-112018934D01*
X136601950Y-112056033D01*
X136517118Y-112153937D01*
X136517117Y-112153938D01*
X136463302Y-112271774D01*
X136444867Y-112400000D01*
X119240500Y-112400000D01*
X119240500Y-111224071D01*
X121129499Y-111224071D01*
X121154497Y-111349738D01*
X121154499Y-111349744D01*
X121203533Y-111468124D01*
X121203538Y-111468133D01*
X121274723Y-111574668D01*
X121274726Y-111574672D01*
X121365327Y-111665273D01*
X121365331Y-111665276D01*
X121471866Y-111736461D01*
X121471872Y-111736464D01*
X121471873Y-111736465D01*
X121590256Y-111785501D01*
X121590260Y-111785501D01*
X121590261Y-111785502D01*
X121715928Y-111810500D01*
X121715931Y-111810500D01*
X122444071Y-111810500D01*
X122528615Y-111793682D01*
X122569744Y-111785501D01*
X122688127Y-111736465D01*
X122794669Y-111665276D01*
X122885276Y-111574669D01*
X122956465Y-111468127D01*
X123005501Y-111349744D01*
X123030500Y-111224071D01*
X125059499Y-111224071D01*
X125084497Y-111349738D01*
X125084499Y-111349744D01*
X125133533Y-111468124D01*
X125133538Y-111468133D01*
X125204723Y-111574668D01*
X125204726Y-111574672D01*
X125295327Y-111665273D01*
X125295331Y-111665276D01*
X125401866Y-111736461D01*
X125401872Y-111736464D01*
X125401873Y-111736465D01*
X125520256Y-111785501D01*
X125520260Y-111785501D01*
X125520261Y-111785502D01*
X125645928Y-111810500D01*
X125645931Y-111810500D01*
X126874071Y-111810500D01*
X126958615Y-111793682D01*
X126999744Y-111785501D01*
X127118127Y-111736465D01*
X127224669Y-111665276D01*
X127315276Y-111574669D01*
X127386465Y-111468127D01*
X127435501Y-111349744D01*
X127460500Y-111224069D01*
X127460500Y-111095931D01*
X127460500Y-111095928D01*
X127435502Y-110970261D01*
X127435501Y-110970260D01*
X127435501Y-110970256D01*
X127386465Y-110851873D01*
X127386464Y-110851872D01*
X127386461Y-110851866D01*
X127315276Y-110745331D01*
X127315273Y-110745327D01*
X127224672Y-110654726D01*
X127224668Y-110654723D01*
X127118133Y-110583538D01*
X127118124Y-110583533D01*
X126999744Y-110534499D01*
X126999738Y-110534497D01*
X126874071Y-110509500D01*
X126874069Y-110509500D01*
X125986302Y-110509500D01*
X125919263Y-110489815D01*
X125873508Y-110437011D01*
X125863564Y-110367853D01*
X125892589Y-110304297D01*
X125945109Y-110270544D01*
X125944631Y-110269389D01*
X125951033Y-110266737D01*
X125951367Y-110266523D01*
X125951938Y-110266362D01*
X125952132Y-110266281D01*
X125952135Y-110266281D01*
X126083365Y-110190515D01*
X126190515Y-110083365D01*
X126266281Y-109952135D01*
X126305500Y-109805766D01*
X126305500Y-109654234D01*
X126266281Y-109507865D01*
X126190515Y-109376635D01*
X126083365Y-109269485D01*
X126017750Y-109231602D01*
X125952136Y-109193719D01*
X125878950Y-109174109D01*
X125805766Y-109154500D01*
X125654234Y-109154500D01*
X125507863Y-109193719D01*
X125376635Y-109269485D01*
X125376632Y-109269487D01*
X125269487Y-109376632D01*
X125269485Y-109376635D01*
X125193719Y-109507863D01*
X125154500Y-109654234D01*
X125154500Y-109805765D01*
X125193719Y-109952136D01*
X125231602Y-110017750D01*
X125269485Y-110083365D01*
X125376635Y-110190515D01*
X125507865Y-110266281D01*
X125573971Y-110283994D01*
X125633630Y-110320358D01*
X125664160Y-110383204D01*
X125655866Y-110452580D01*
X125611381Y-110506458D01*
X125566070Y-110525385D01*
X125520260Y-110534497D01*
X125520255Y-110534499D01*
X125401875Y-110583533D01*
X125401866Y-110583538D01*
X125295331Y-110654723D01*
X125295327Y-110654726D01*
X125204726Y-110745327D01*
X125204723Y-110745331D01*
X125133538Y-110851866D01*
X125133533Y-110851875D01*
X125084499Y-110970255D01*
X125084497Y-110970261D01*
X125059500Y-111095928D01*
X125059500Y-111095931D01*
X125059500Y-111224069D01*
X125059500Y-111224071D01*
X125059499Y-111224071D01*
X123030500Y-111224071D01*
X123030500Y-111224069D01*
X123030500Y-111095931D01*
X123030500Y-111095928D01*
X123005502Y-110970261D01*
X123005501Y-110970260D01*
X123005501Y-110970256D01*
X122956465Y-110851873D01*
X122956464Y-110851872D01*
X122956461Y-110851866D01*
X122885276Y-110745331D01*
X122885273Y-110745327D01*
X122794672Y-110654726D01*
X122794668Y-110654723D01*
X122688133Y-110583538D01*
X122688124Y-110583533D01*
X122569744Y-110534499D01*
X122569738Y-110534497D01*
X122444071Y-110509500D01*
X122444069Y-110509500D01*
X121715931Y-110509500D01*
X121715929Y-110509500D01*
X121590261Y-110534497D01*
X121590255Y-110534499D01*
X121471875Y-110583533D01*
X121471866Y-110583538D01*
X121365331Y-110654723D01*
X121365327Y-110654726D01*
X121274726Y-110745327D01*
X121274723Y-110745331D01*
X121203538Y-110851866D01*
X121203533Y-110851875D01*
X121154499Y-110970255D01*
X121154497Y-110970261D01*
X121129500Y-111095928D01*
X121129500Y-111095931D01*
X121129500Y-111224069D01*
X121129500Y-111224071D01*
X121129499Y-111224071D01*
X119240500Y-111224071D01*
X119240500Y-106465000D01*
X129044867Y-106465000D01*
X129063302Y-106593225D01*
X129117117Y-106711061D01*
X129117118Y-106711063D01*
X129158479Y-106758797D01*
X129158480Y-106758798D01*
X129187504Y-106822354D01*
X129177560Y-106891513D01*
X129158480Y-106921202D01*
X129117118Y-106968937D01*
X129117117Y-106968938D01*
X129063302Y-107086774D01*
X129044867Y-107215000D01*
X129063302Y-107343225D01*
X129117117Y-107461061D01*
X129117118Y-107461063D01*
X129201951Y-107558967D01*
X129310931Y-107629004D01*
X129435225Y-107665499D01*
X129435227Y-107665500D01*
X129435228Y-107665500D01*
X129564773Y-107665500D01*
X129564773Y-107665499D01*
X129689069Y-107629004D01*
X129798049Y-107558967D01*
X129849143Y-107500000D01*
X137444867Y-107500000D01*
X137463302Y-107628225D01*
X137518225Y-107748488D01*
X137528169Y-107817647D01*
X137518225Y-107851512D01*
X137463302Y-107971774D01*
X137444867Y-108100000D01*
X137463302Y-108228225D01*
X137518225Y-108348488D01*
X137528169Y-108417647D01*
X137518225Y-108451512D01*
X137463302Y-108571774D01*
X137444867Y-108700000D01*
X137463302Y-108828225D01*
X137517117Y-108946061D01*
X137517118Y-108946063D01*
X137601951Y-109043967D01*
X137710931Y-109114004D01*
X137835225Y-109150499D01*
X137835227Y-109150500D01*
X137835228Y-109150500D01*
X137964773Y-109150500D01*
X137964773Y-109150499D01*
X138089069Y-109114004D01*
X138198049Y-109043967D01*
X138282882Y-108946063D01*
X138336697Y-108828226D01*
X138355133Y-108700000D01*
X138336697Y-108571774D01*
X138282882Y-108453937D01*
X138282880Y-108453935D01*
X138281774Y-108451512D01*
X138271830Y-108382354D01*
X138281774Y-108348488D01*
X138282880Y-108346064D01*
X138282882Y-108346063D01*
X138336697Y-108228226D01*
X138355133Y-108100000D01*
X138336697Y-107971774D01*
X138282882Y-107853937D01*
X138282880Y-107853935D01*
X138281774Y-107851512D01*
X138271830Y-107782354D01*
X138281774Y-107748488D01*
X138282880Y-107746064D01*
X138282882Y-107746063D01*
X138336697Y-107628226D01*
X138355133Y-107500000D01*
X138336697Y-107371774D01*
X138282882Y-107253937D01*
X138198049Y-107156033D01*
X138089069Y-107085996D01*
X138089065Y-107085994D01*
X138089064Y-107085994D01*
X137964774Y-107049500D01*
X137964772Y-107049500D01*
X137835228Y-107049500D01*
X137835226Y-107049500D01*
X137710935Y-107085994D01*
X137710932Y-107085995D01*
X137710931Y-107085996D01*
X137659677Y-107118934D01*
X137601950Y-107156033D01*
X137517118Y-107253937D01*
X137517117Y-107253938D01*
X137463302Y-107371774D01*
X137444867Y-107500000D01*
X129849143Y-107500000D01*
X129882882Y-107461063D01*
X129936697Y-107343226D01*
X129955133Y-107215000D01*
X129936697Y-107086774D01*
X129882882Y-106968937D01*
X129841519Y-106921200D01*
X129812495Y-106857647D01*
X129822439Y-106788489D01*
X129841517Y-106758800D01*
X129882882Y-106711063D01*
X129936697Y-106593226D01*
X129955133Y-106465000D01*
X129936697Y-106336774D01*
X129882882Y-106218937D01*
X129798049Y-106121033D01*
X129689069Y-106050996D01*
X129689065Y-106050994D01*
X129689064Y-106050994D01*
X129564774Y-106014500D01*
X129564772Y-106014500D01*
X129435228Y-106014500D01*
X129435226Y-106014500D01*
X129310935Y-106050994D01*
X129310932Y-106050995D01*
X129310931Y-106050996D01*
X129259677Y-106083934D01*
X129201950Y-106121033D01*
X129117118Y-106218937D01*
X129117117Y-106218938D01*
X129063302Y-106336774D01*
X129044867Y-106465000D01*
X119240500Y-106465000D01*
X119240500Y-102584071D01*
X121129499Y-102584071D01*
X121154497Y-102709738D01*
X121154499Y-102709744D01*
X121203533Y-102828124D01*
X121203538Y-102828133D01*
X121274723Y-102934668D01*
X121274726Y-102934672D01*
X121365327Y-103025273D01*
X121365331Y-103025276D01*
X121471866Y-103096461D01*
X121471872Y-103096464D01*
X121471873Y-103096465D01*
X121590256Y-103145501D01*
X121590260Y-103145501D01*
X121590261Y-103145502D01*
X121715928Y-103170500D01*
X121715931Y-103170500D01*
X122444071Y-103170500D01*
X122528615Y-103153682D01*
X122569744Y-103145501D01*
X122688127Y-103096465D01*
X122794669Y-103025276D01*
X122885276Y-102934669D01*
X122956465Y-102828127D01*
X123005501Y-102709744D01*
X123030500Y-102584071D01*
X125059499Y-102584071D01*
X125084497Y-102709738D01*
X125084499Y-102709744D01*
X125133533Y-102828124D01*
X125133538Y-102828133D01*
X125204723Y-102934668D01*
X125204726Y-102934672D01*
X125295327Y-103025273D01*
X125295331Y-103025276D01*
X125401866Y-103096461D01*
X125401872Y-103096464D01*
X125401873Y-103096465D01*
X125520256Y-103145501D01*
X125551899Y-103151795D01*
X125566068Y-103154614D01*
X125627979Y-103186999D01*
X125662553Y-103247714D01*
X125658814Y-103317484D01*
X125617948Y-103374156D01*
X125573971Y-103396006D01*
X125507863Y-103413719D01*
X125376635Y-103489485D01*
X125376632Y-103489487D01*
X125269487Y-103596632D01*
X125269485Y-103596635D01*
X125193719Y-103727863D01*
X125154500Y-103874234D01*
X125154500Y-104025765D01*
X125193719Y-104172136D01*
X125231602Y-104237750D01*
X125269485Y-104303365D01*
X125376635Y-104410515D01*
X125507865Y-104486281D01*
X125654234Y-104525500D01*
X125654236Y-104525500D01*
X125805764Y-104525500D01*
X125805766Y-104525500D01*
X125952135Y-104486281D01*
X126083365Y-104410515D01*
X126190515Y-104303365D01*
X126266281Y-104172135D01*
X126305500Y-104025766D01*
X126305500Y-104000000D01*
X131544867Y-104000000D01*
X131563302Y-104128225D01*
X131583356Y-104172136D01*
X131617118Y-104246063D01*
X131701951Y-104343967D01*
X131810931Y-104414004D01*
X131935225Y-104450499D01*
X131935227Y-104450500D01*
X131935228Y-104450500D01*
X132064773Y-104450500D01*
X132064773Y-104450499D01*
X132189069Y-104414004D01*
X132298049Y-104343967D01*
X132382882Y-104246063D01*
X132436697Y-104128226D01*
X132455133Y-104000000D01*
X132436697Y-103871774D01*
X132382882Y-103753937D01*
X132298049Y-103656033D01*
X132189069Y-103585996D01*
X132189065Y-103585994D01*
X132189064Y-103585994D01*
X132064774Y-103549500D01*
X132064772Y-103549500D01*
X131935228Y-103549500D01*
X131935226Y-103549500D01*
X131810935Y-103585994D01*
X131810932Y-103585995D01*
X131810931Y-103585996D01*
X131759677Y-103618934D01*
X131701950Y-103656033D01*
X131617118Y-103753937D01*
X131617117Y-103753938D01*
X131563302Y-103871774D01*
X131544867Y-104000000D01*
X126305500Y-104000000D01*
X126305500Y-103874234D01*
X126266281Y-103727865D01*
X126190515Y-103596635D01*
X126083365Y-103489485D01*
X126007598Y-103445740D01*
X125952134Y-103413718D01*
X125944631Y-103410611D01*
X125945349Y-103408875D01*
X125894547Y-103377909D01*
X125864019Y-103315062D01*
X125872314Y-103245686D01*
X125916800Y-103191809D01*
X125983352Y-103170535D01*
X125986302Y-103170500D01*
X126874071Y-103170500D01*
X126958615Y-103153682D01*
X126999744Y-103145501D01*
X127118127Y-103096465D01*
X127224669Y-103025276D01*
X127315276Y-102934669D01*
X127386465Y-102828127D01*
X127435501Y-102709744D01*
X127460500Y-102584069D01*
X127460500Y-102455931D01*
X127460500Y-102455928D01*
X127435502Y-102330261D01*
X127435501Y-102330260D01*
X127435501Y-102330256D01*
X127386465Y-102211873D01*
X127386464Y-102211872D01*
X127386461Y-102211866D01*
X127315276Y-102105331D01*
X127315273Y-102105327D01*
X127309946Y-102100000D01*
X131444867Y-102100000D01*
X131463302Y-102228225D01*
X131509899Y-102330256D01*
X131517118Y-102346063D01*
X131601951Y-102443967D01*
X131710931Y-102514004D01*
X131835225Y-102550499D01*
X131835227Y-102550500D01*
X131835228Y-102550500D01*
X131964773Y-102550500D01*
X131964773Y-102550499D01*
X132089069Y-102514004D01*
X132198049Y-102443967D01*
X132282882Y-102346063D01*
X132336697Y-102228226D01*
X132355133Y-102100000D01*
X132336697Y-101971774D01*
X132303919Y-101900000D01*
X172844867Y-101900000D01*
X172863302Y-102028225D01*
X172896081Y-102100000D01*
X172917118Y-102146063D01*
X173001951Y-102243967D01*
X173110931Y-102314004D01*
X173220117Y-102346063D01*
X173235225Y-102350499D01*
X173235227Y-102350500D01*
X173235228Y-102350500D01*
X173364773Y-102350500D01*
X173364773Y-102350499D01*
X173489069Y-102314004D01*
X173598049Y-102243967D01*
X173682882Y-102146063D01*
X173736697Y-102028226D01*
X173755133Y-101900000D01*
X173736697Y-101771774D01*
X173682882Y-101653937D01*
X173598049Y-101556033D01*
X173489069Y-101485996D01*
X173489065Y-101485994D01*
X173489064Y-101485994D01*
X173364774Y-101449500D01*
X173364772Y-101449500D01*
X173235228Y-101449500D01*
X173235226Y-101449500D01*
X173110935Y-101485994D01*
X173110932Y-101485995D01*
X173110931Y-101485996D01*
X173088358Y-101500503D01*
X173001950Y-101556033D01*
X172917118Y-101653937D01*
X172917117Y-101653938D01*
X172863302Y-101771774D01*
X172844867Y-101900000D01*
X132303919Y-101900000D01*
X132282882Y-101853937D01*
X132198049Y-101756033D01*
X132089069Y-101685996D01*
X132089065Y-101685994D01*
X132089064Y-101685994D01*
X131964774Y-101649500D01*
X131964772Y-101649500D01*
X131835228Y-101649500D01*
X131835226Y-101649500D01*
X131710935Y-101685994D01*
X131710932Y-101685995D01*
X131710931Y-101685996D01*
X131659677Y-101718934D01*
X131601950Y-101756033D01*
X131517118Y-101853937D01*
X131517117Y-101853938D01*
X131463302Y-101971774D01*
X131444867Y-102100000D01*
X127309946Y-102100000D01*
X127224672Y-102014726D01*
X127224668Y-102014723D01*
X127118133Y-101943538D01*
X127118124Y-101943533D01*
X126999744Y-101894499D01*
X126999738Y-101894497D01*
X126874071Y-101869500D01*
X126874069Y-101869500D01*
X125645931Y-101869500D01*
X125645929Y-101869500D01*
X125520261Y-101894497D01*
X125520255Y-101894499D01*
X125401875Y-101943533D01*
X125401866Y-101943538D01*
X125295331Y-102014723D01*
X125295327Y-102014726D01*
X125204726Y-102105327D01*
X125204723Y-102105331D01*
X125133538Y-102211866D01*
X125133533Y-102211875D01*
X125084499Y-102330255D01*
X125084497Y-102330261D01*
X125059500Y-102455928D01*
X125059500Y-102455931D01*
X125059500Y-102584069D01*
X125059500Y-102584071D01*
X125059499Y-102584071D01*
X123030500Y-102584071D01*
X123030500Y-102584069D01*
X123030500Y-102455931D01*
X123030500Y-102455928D01*
X123005502Y-102330261D01*
X123005501Y-102330260D01*
X123005501Y-102330256D01*
X122956465Y-102211873D01*
X122956464Y-102211872D01*
X122956461Y-102211866D01*
X122885276Y-102105331D01*
X122885273Y-102105327D01*
X122794672Y-102014726D01*
X122794668Y-102014723D01*
X122688133Y-101943538D01*
X122688124Y-101943533D01*
X122569744Y-101894499D01*
X122569738Y-101894497D01*
X122444071Y-101869500D01*
X122444069Y-101869500D01*
X121715931Y-101869500D01*
X121715929Y-101869500D01*
X121590261Y-101894497D01*
X121590255Y-101894499D01*
X121471875Y-101943533D01*
X121471866Y-101943538D01*
X121365331Y-102014723D01*
X121365327Y-102014726D01*
X121274726Y-102105327D01*
X121274723Y-102105331D01*
X121203538Y-102211866D01*
X121203533Y-102211875D01*
X121154499Y-102330255D01*
X121154497Y-102330261D01*
X121129500Y-102455928D01*
X121129500Y-102455931D01*
X121129500Y-102584069D01*
X121129500Y-102584071D01*
X121129499Y-102584071D01*
X119240500Y-102584071D01*
X119240500Y-100800000D01*
X127344867Y-100800000D01*
X127363302Y-100928225D01*
X127396081Y-101000000D01*
X127417118Y-101046063D01*
X127501951Y-101143967D01*
X127610931Y-101214004D01*
X127720117Y-101246063D01*
X127735225Y-101250499D01*
X127735227Y-101250500D01*
X127735228Y-101250500D01*
X127864773Y-101250500D01*
X127864773Y-101250499D01*
X127989069Y-101214004D01*
X128098049Y-101143967D01*
X128182882Y-101046063D01*
X128236697Y-100928226D01*
X128255133Y-100800000D01*
X128236697Y-100671774D01*
X128182882Y-100553937D01*
X128098049Y-100456033D01*
X127989069Y-100385996D01*
X127989065Y-100385994D01*
X127989064Y-100385994D01*
X127864774Y-100349500D01*
X127864772Y-100349500D01*
X127735228Y-100349500D01*
X127735226Y-100349500D01*
X127610935Y-100385994D01*
X127610932Y-100385995D01*
X127610931Y-100385996D01*
X127559677Y-100418934D01*
X127501950Y-100456033D01*
X127417118Y-100553937D01*
X127417117Y-100553938D01*
X127363302Y-100671774D01*
X127344867Y-100800000D01*
X119240500Y-100800000D01*
X119240500Y-100300000D01*
X142744867Y-100300000D01*
X142763302Y-100428225D01*
X142776002Y-100456033D01*
X142817118Y-100546063D01*
X142823942Y-100553938D01*
X142858481Y-100593799D01*
X142887505Y-100657355D01*
X142877561Y-100726513D01*
X142858481Y-100756202D01*
X142817120Y-100803935D01*
X142817117Y-100803941D01*
X142763302Y-100921777D01*
X142744867Y-101050003D01*
X142763302Y-101178228D01*
X142794282Y-101246063D01*
X142817118Y-101296066D01*
X142901951Y-101393970D01*
X143010931Y-101464007D01*
X143135225Y-101500502D01*
X143135227Y-101500503D01*
X143135228Y-101500503D01*
X143264773Y-101500503D01*
X143264773Y-101500502D01*
X143389069Y-101464007D01*
X143498049Y-101393970D01*
X143582882Y-101296066D01*
X143636697Y-101178229D01*
X143655133Y-101050003D01*
X143647944Y-101000000D01*
X169544867Y-101000000D01*
X169563302Y-101128225D01*
X169586138Y-101178228D01*
X169617118Y-101246063D01*
X169701951Y-101343967D01*
X169810931Y-101414004D01*
X169935225Y-101450499D01*
X169935227Y-101450500D01*
X169935228Y-101450500D01*
X170064773Y-101450500D01*
X170064773Y-101450499D01*
X170189069Y-101414004D01*
X170298049Y-101343967D01*
X170382882Y-101246063D01*
X170436697Y-101128226D01*
X170455133Y-101000000D01*
X170436697Y-100871774D01*
X170382882Y-100753937D01*
X170298049Y-100656033D01*
X170189069Y-100585996D01*
X170189065Y-100585994D01*
X170189064Y-100585994D01*
X170064774Y-100549500D01*
X170064772Y-100549500D01*
X169935228Y-100549500D01*
X169935226Y-100549500D01*
X169810935Y-100585994D01*
X169810932Y-100585995D01*
X169810931Y-100585996D01*
X169759677Y-100618934D01*
X169701950Y-100656033D01*
X169617118Y-100753937D01*
X169617117Y-100753938D01*
X169563302Y-100871774D01*
X169544867Y-101000000D01*
X143647944Y-101000000D01*
X143636697Y-100921777D01*
X143582882Y-100803940D01*
X143541517Y-100756202D01*
X143512494Y-100692647D01*
X143522438Y-100623489D01*
X143541516Y-100593802D01*
X143582882Y-100546063D01*
X143636697Y-100428226D01*
X143655133Y-100300000D01*
X143636697Y-100171774D01*
X143582882Y-100053937D01*
X143498049Y-99956033D01*
X143389069Y-99885996D01*
X143389065Y-99885994D01*
X143389064Y-99885994D01*
X143264774Y-99849500D01*
X143264772Y-99849500D01*
X143135228Y-99849500D01*
X143135226Y-99849500D01*
X143010935Y-99885994D01*
X143010932Y-99885995D01*
X143010931Y-99885996D01*
X142959677Y-99918934D01*
X142901950Y-99956033D01*
X142817118Y-100053937D01*
X142817117Y-100053938D01*
X142763302Y-100171774D01*
X142744867Y-100300000D01*
X119240500Y-100300000D01*
X119240500Y-97500000D01*
X145644867Y-97500000D01*
X145663302Y-97628225D01*
X145717117Y-97746061D01*
X145717118Y-97746063D01*
X145801951Y-97843967D01*
X145910931Y-97914004D01*
X146035225Y-97950499D01*
X146035227Y-97950500D01*
X146035228Y-97950500D01*
X146164773Y-97950500D01*
X146164773Y-97950499D01*
X146289069Y-97914004D01*
X146398049Y-97843967D01*
X146482882Y-97746063D01*
X146536697Y-97628226D01*
X146555133Y-97500000D01*
X146536697Y-97371774D01*
X146482882Y-97253937D01*
X146398049Y-97156033D01*
X146289069Y-97085996D01*
X146289065Y-97085994D01*
X146289064Y-97085994D01*
X146164774Y-97049500D01*
X146164772Y-97049500D01*
X146035228Y-97049500D01*
X146035226Y-97049500D01*
X145910935Y-97085994D01*
X145910932Y-97085995D01*
X145910931Y-97085996D01*
X145881919Y-97104641D01*
X145801950Y-97156033D01*
X145717118Y-97253937D01*
X145717117Y-97253938D01*
X145663302Y-97371774D01*
X145644867Y-97500000D01*
X119240500Y-97500000D01*
X119240500Y-96858578D01*
X138986289Y-96858578D01*
X139004724Y-96986803D01*
X139050024Y-97085994D01*
X139058540Y-97104641D01*
X139143373Y-97202545D01*
X139252353Y-97272582D01*
X139376647Y-97309077D01*
X139376649Y-97309078D01*
X139376650Y-97309078D01*
X139506195Y-97309078D01*
X139506195Y-97309077D01*
X139630491Y-97272582D01*
X139739471Y-97202545D01*
X139824304Y-97104641D01*
X139878119Y-96986804D01*
X139896555Y-96858578D01*
X139878119Y-96730352D01*
X139824304Y-96612515D01*
X139739471Y-96514611D01*
X139630491Y-96444574D01*
X139630487Y-96444572D01*
X139630486Y-96444572D01*
X139506196Y-96408078D01*
X139506194Y-96408078D01*
X139376650Y-96408078D01*
X139376648Y-96408078D01*
X139252357Y-96444572D01*
X139252354Y-96444573D01*
X139252353Y-96444574D01*
X139201099Y-96477512D01*
X139143372Y-96514611D01*
X139058540Y-96612515D01*
X139058539Y-96612516D01*
X139004724Y-96730352D01*
X138986289Y-96858578D01*
X119240500Y-96858578D01*
X119240500Y-96400000D01*
X125544867Y-96400000D01*
X125563302Y-96528225D01*
X125601797Y-96612515D01*
X125617118Y-96646063D01*
X125701951Y-96743967D01*
X125810931Y-96814004D01*
X125935225Y-96850499D01*
X125935227Y-96850500D01*
X125935228Y-96850500D01*
X126064773Y-96850500D01*
X126064773Y-96850499D01*
X126189069Y-96814004D01*
X126298049Y-96743967D01*
X126382882Y-96646063D01*
X126436697Y-96528226D01*
X126455133Y-96400000D01*
X126436697Y-96271774D01*
X126382882Y-96153937D01*
X126298049Y-96056033D01*
X126210860Y-96000000D01*
X148544867Y-96000000D01*
X148563302Y-96128225D01*
X148568908Y-96140500D01*
X148617118Y-96246063D01*
X148701951Y-96343967D01*
X148810931Y-96414004D01*
X148935225Y-96450499D01*
X148935227Y-96450500D01*
X148935228Y-96450500D01*
X149064773Y-96450500D01*
X149064773Y-96450499D01*
X149189069Y-96414004D01*
X149298049Y-96343967D01*
X149382882Y-96246063D01*
X149436697Y-96128226D01*
X149454440Y-96004822D01*
X176039499Y-96004822D01*
X176048231Y-96048717D01*
X176048232Y-96048721D01*
X176048233Y-96048722D01*
X176081496Y-96098504D01*
X176131278Y-96131767D01*
X176131281Y-96131767D01*
X176131282Y-96131768D01*
X176175177Y-96140500D01*
X176175180Y-96140500D01*
X177904822Y-96140500D01*
X177948717Y-96131768D01*
X177948717Y-96131767D01*
X177948722Y-96131767D01*
X177998504Y-96098504D01*
X178031767Y-96048722D01*
X178040500Y-96004820D01*
X178040500Y-94275180D01*
X178040500Y-94275177D01*
X178031768Y-94231282D01*
X178031767Y-94231281D01*
X178031767Y-94231278D01*
X177998504Y-94181496D01*
X177998503Y-94181495D01*
X177948724Y-94148234D01*
X177948717Y-94148231D01*
X177904822Y-94139500D01*
X177904820Y-94139500D01*
X176175180Y-94139500D01*
X176175178Y-94139500D01*
X176131282Y-94148231D01*
X176131275Y-94148234D01*
X176081496Y-94181495D01*
X176081495Y-94181496D01*
X176048234Y-94231275D01*
X176048231Y-94231282D01*
X176039500Y-94275177D01*
X176039500Y-94275180D01*
X176039500Y-96004820D01*
X176039500Y-96004822D01*
X176039499Y-96004822D01*
X149454440Y-96004822D01*
X149455133Y-96000000D01*
X149436697Y-95871774D01*
X149382882Y-95753937D01*
X149298049Y-95656033D01*
X149189069Y-95585996D01*
X149189065Y-95585994D01*
X149189064Y-95585994D01*
X149064774Y-95549500D01*
X149064772Y-95549500D01*
X148935228Y-95549500D01*
X148935226Y-95549500D01*
X148810935Y-95585994D01*
X148810932Y-95585995D01*
X148810931Y-95585996D01*
X148767350Y-95614004D01*
X148701950Y-95656033D01*
X148617118Y-95753937D01*
X148617117Y-95753938D01*
X148563302Y-95871774D01*
X148544867Y-96000000D01*
X126210860Y-96000000D01*
X126189069Y-95985996D01*
X126189065Y-95985994D01*
X126189064Y-95985994D01*
X126064774Y-95949500D01*
X126064772Y-95949500D01*
X125935228Y-95949500D01*
X125935226Y-95949500D01*
X125810935Y-95985994D01*
X125810932Y-95985995D01*
X125810931Y-95985996D01*
X125781637Y-96004822D01*
X125701950Y-96056033D01*
X125617118Y-96153937D01*
X125617117Y-96153938D01*
X125563302Y-96271774D01*
X125544867Y-96400000D01*
X119240500Y-96400000D01*
X119240500Y-95200000D01*
X125544867Y-95200000D01*
X125563302Y-95328225D01*
X125571449Y-95346063D01*
X125617118Y-95446063D01*
X125701951Y-95543967D01*
X125810931Y-95614004D01*
X125935225Y-95650499D01*
X125935227Y-95650500D01*
X125935228Y-95650500D01*
X126064773Y-95650500D01*
X126064773Y-95650499D01*
X126189069Y-95614004D01*
X126298049Y-95543967D01*
X126382882Y-95446063D01*
X126436697Y-95328226D01*
X126455133Y-95200000D01*
X126440755Y-95100000D01*
X147444867Y-95100000D01*
X147463302Y-95228225D01*
X147508972Y-95328226D01*
X147517118Y-95346063D01*
X147601951Y-95443967D01*
X147710931Y-95514004D01*
X147835225Y-95550499D01*
X147835227Y-95550500D01*
X147835228Y-95550500D01*
X147964773Y-95550500D01*
X147964773Y-95550499D01*
X148089069Y-95514004D01*
X148198049Y-95443967D01*
X148282882Y-95346063D01*
X148336697Y-95228226D01*
X148340755Y-95200000D01*
X174444867Y-95200000D01*
X174463302Y-95328225D01*
X174471449Y-95346063D01*
X174517118Y-95446063D01*
X174601951Y-95543967D01*
X174710931Y-95614004D01*
X174835225Y-95650499D01*
X174835227Y-95650500D01*
X174835228Y-95650500D01*
X174964773Y-95650500D01*
X174964773Y-95650499D01*
X175089069Y-95614004D01*
X175198049Y-95543967D01*
X175282882Y-95446063D01*
X175336697Y-95328226D01*
X175355133Y-95200000D01*
X175336697Y-95071774D01*
X175282882Y-94953937D01*
X175198049Y-94856033D01*
X175089069Y-94785996D01*
X175089065Y-94785994D01*
X175089064Y-94785994D01*
X174964774Y-94749500D01*
X174964772Y-94749500D01*
X174835228Y-94749500D01*
X174835226Y-94749500D01*
X174710935Y-94785994D01*
X174710932Y-94785995D01*
X174710931Y-94785996D01*
X174667350Y-94814004D01*
X174601950Y-94856033D01*
X174517118Y-94953937D01*
X174517117Y-94953938D01*
X174463302Y-95071774D01*
X174444867Y-95200000D01*
X148340755Y-95200000D01*
X148355133Y-95100000D01*
X148336697Y-94971774D01*
X148282882Y-94853937D01*
X148198049Y-94756033D01*
X148089069Y-94685996D01*
X148089065Y-94685994D01*
X148089064Y-94685994D01*
X147964774Y-94649500D01*
X147964772Y-94649500D01*
X147835228Y-94649500D01*
X147835226Y-94649500D01*
X147710935Y-94685994D01*
X147710932Y-94685995D01*
X147710931Y-94685996D01*
X147659677Y-94718934D01*
X147601950Y-94756033D01*
X147517118Y-94853937D01*
X147517117Y-94853938D01*
X147463302Y-94971774D01*
X147444867Y-95100000D01*
X126440755Y-95100000D01*
X126436697Y-95071774D01*
X126382882Y-94953937D01*
X126298049Y-94856033D01*
X126189069Y-94785996D01*
X126189065Y-94785994D01*
X126189064Y-94785994D01*
X126064774Y-94749500D01*
X126064772Y-94749500D01*
X125935228Y-94749500D01*
X125935226Y-94749500D01*
X125810935Y-94785994D01*
X125810932Y-94785995D01*
X125810931Y-94785996D01*
X125767350Y-94814004D01*
X125701950Y-94856033D01*
X125617118Y-94953937D01*
X125617117Y-94953938D01*
X125563302Y-95071774D01*
X125544867Y-95200000D01*
X119240500Y-95200000D01*
X119240500Y-94000000D01*
X129044867Y-94000000D01*
X129063302Y-94128225D01*
X129072439Y-94148231D01*
X129117118Y-94246063D01*
X129201951Y-94343967D01*
X129310931Y-94414004D01*
X129420117Y-94446063D01*
X129435225Y-94450499D01*
X129435227Y-94450500D01*
X129435228Y-94450500D01*
X129564773Y-94450500D01*
X129564773Y-94450499D01*
X129689069Y-94414004D01*
X129798049Y-94343967D01*
X129882882Y-94246063D01*
X129903919Y-94200000D01*
X146144867Y-94200000D01*
X146163302Y-94328225D01*
X146196081Y-94400000D01*
X146217118Y-94446063D01*
X146301951Y-94543967D01*
X146410931Y-94614004D01*
X146535225Y-94650499D01*
X146535227Y-94650500D01*
X146535228Y-94650500D01*
X146664773Y-94650500D01*
X146664773Y-94650499D01*
X146789069Y-94614004D01*
X146898049Y-94543967D01*
X146982882Y-94446063D01*
X147036697Y-94328226D01*
X147055133Y-94200000D01*
X152444867Y-94200000D01*
X152463302Y-94328225D01*
X152496081Y-94400000D01*
X152517118Y-94446063D01*
X152601951Y-94543967D01*
X152710931Y-94614004D01*
X152835225Y-94650499D01*
X152835227Y-94650500D01*
X152835228Y-94650500D01*
X152964773Y-94650500D01*
X152964773Y-94650499D01*
X153089069Y-94614004D01*
X153198049Y-94543967D01*
X153282882Y-94446063D01*
X153303919Y-94400000D01*
X160844867Y-94400000D01*
X160863302Y-94528225D01*
X160902477Y-94614004D01*
X160917118Y-94646063D01*
X161001951Y-94743967D01*
X161110931Y-94814004D01*
X161235225Y-94850499D01*
X161235227Y-94850500D01*
X161235228Y-94850500D01*
X161364773Y-94850500D01*
X161364773Y-94850499D01*
X161489069Y-94814004D01*
X161598049Y-94743967D01*
X161682882Y-94646063D01*
X161736697Y-94528226D01*
X161755133Y-94400000D01*
X161736697Y-94271774D01*
X161682882Y-94153937D01*
X161598049Y-94056033D01*
X161489069Y-93985996D01*
X161489065Y-93985994D01*
X161489064Y-93985994D01*
X161364774Y-93949500D01*
X161364772Y-93949500D01*
X161235228Y-93949500D01*
X161235226Y-93949500D01*
X161110935Y-93985994D01*
X161110932Y-93985995D01*
X161110931Y-93985996D01*
X161059677Y-94018934D01*
X161001950Y-94056033D01*
X160917118Y-94153937D01*
X160917117Y-94153938D01*
X160863302Y-94271774D01*
X160844867Y-94400000D01*
X153303919Y-94400000D01*
X153336697Y-94328226D01*
X153355133Y-94200000D01*
X153336697Y-94071774D01*
X153282882Y-93953937D01*
X153198049Y-93856033D01*
X153089069Y-93785996D01*
X153089065Y-93785994D01*
X153089064Y-93785994D01*
X152964774Y-93749500D01*
X152964772Y-93749500D01*
X152835228Y-93749500D01*
X152835226Y-93749500D01*
X152710935Y-93785994D01*
X152710932Y-93785995D01*
X152710931Y-93785996D01*
X152659677Y-93818934D01*
X152601950Y-93856033D01*
X152517118Y-93953937D01*
X152517117Y-93953938D01*
X152463302Y-94071774D01*
X152444867Y-94200000D01*
X147055133Y-94200000D01*
X147036697Y-94071774D01*
X146982882Y-93953937D01*
X146898049Y-93856033D01*
X146789069Y-93785996D01*
X146789065Y-93785994D01*
X146789064Y-93785994D01*
X146664774Y-93749500D01*
X146664772Y-93749500D01*
X146535228Y-93749500D01*
X146535226Y-93749500D01*
X146410935Y-93785994D01*
X146410932Y-93785995D01*
X146410931Y-93785996D01*
X146359677Y-93818934D01*
X146301950Y-93856033D01*
X146217118Y-93953937D01*
X146217117Y-93953938D01*
X146163302Y-94071774D01*
X146144867Y-94200000D01*
X129903919Y-94200000D01*
X129936697Y-94128226D01*
X129955133Y-94000000D01*
X129936697Y-93871774D01*
X129882882Y-93753937D01*
X129798049Y-93656033D01*
X129689069Y-93585996D01*
X129689065Y-93585994D01*
X129689064Y-93585994D01*
X129564774Y-93549500D01*
X129564772Y-93549500D01*
X129435228Y-93549500D01*
X129435226Y-93549500D01*
X129310935Y-93585994D01*
X129310932Y-93585995D01*
X129310931Y-93585996D01*
X129280831Y-93605340D01*
X129201950Y-93656033D01*
X129117118Y-93753937D01*
X129117117Y-93753938D01*
X129063302Y-93871774D01*
X129044867Y-94000000D01*
X119240500Y-94000000D01*
X119240500Y-93327841D01*
X149193220Y-93327841D01*
X149211655Y-93456066D01*
X149244877Y-93528811D01*
X149265471Y-93573904D01*
X149350304Y-93671808D01*
X149459284Y-93741845D01*
X149583578Y-93778340D01*
X149583580Y-93778341D01*
X149583581Y-93778341D01*
X149713126Y-93778341D01*
X149713126Y-93778340D01*
X149837422Y-93741845D01*
X149946402Y-93671808D01*
X150031235Y-93573904D01*
X150085050Y-93456067D01*
X150103486Y-93327841D01*
X150085050Y-93199615D01*
X150031235Y-93081778D01*
X149948774Y-92986612D01*
X152858255Y-92986612D01*
X152876690Y-93114837D01*
X152915408Y-93199615D01*
X152930506Y-93232675D01*
X152981102Y-93291067D01*
X153012966Y-93327841D01*
X153015339Y-93330579D01*
X153124319Y-93400616D01*
X153248613Y-93437111D01*
X153248615Y-93437112D01*
X153248616Y-93437112D01*
X153378161Y-93437112D01*
X153378161Y-93437111D01*
X153502457Y-93400616D01*
X153611437Y-93330579D01*
X153696270Y-93232675D01*
X153750085Y-93114838D01*
X153768521Y-92986612D01*
X153750085Y-92858386D01*
X153696270Y-92740549D01*
X153611437Y-92642645D01*
X153502457Y-92572608D01*
X153502453Y-92572606D01*
X153502452Y-92572606D01*
X153378162Y-92536112D01*
X153378160Y-92536112D01*
X153248616Y-92536112D01*
X153248614Y-92536112D01*
X153124323Y-92572606D01*
X153124320Y-92572607D01*
X153124319Y-92572608D01*
X153081696Y-92600000D01*
X153015338Y-92642645D01*
X152930506Y-92740549D01*
X152930505Y-92740550D01*
X152876690Y-92858386D01*
X152858255Y-92986612D01*
X149948774Y-92986612D01*
X149946402Y-92983874D01*
X149837422Y-92913837D01*
X149837418Y-92913835D01*
X149837417Y-92913835D01*
X149713127Y-92877341D01*
X149713125Y-92877341D01*
X149583581Y-92877341D01*
X149583579Y-92877341D01*
X149459288Y-92913835D01*
X149459285Y-92913836D01*
X149459284Y-92913837D01*
X149412402Y-92943966D01*
X149350303Y-92983874D01*
X149265471Y-93081778D01*
X149265470Y-93081779D01*
X149211655Y-93199615D01*
X149193220Y-93327841D01*
X119240500Y-93327841D01*
X119240500Y-92000000D01*
X132544867Y-92000000D01*
X132563302Y-92128225D01*
X132614822Y-92241035D01*
X132617118Y-92246063D01*
X132701951Y-92343967D01*
X132810931Y-92414004D01*
X132918111Y-92445474D01*
X132935225Y-92450499D01*
X132935227Y-92450500D01*
X132935228Y-92450500D01*
X133064773Y-92450500D01*
X133064773Y-92450499D01*
X133189069Y-92414004D01*
X133298049Y-92343967D01*
X133308461Y-92331949D01*
X133367236Y-92294174D01*
X133437106Y-92294170D01*
X133495886Y-92331942D01*
X133501951Y-92338941D01*
X133610931Y-92408978D01*
X133735225Y-92445473D01*
X133735227Y-92445474D01*
X133735228Y-92445474D01*
X133864773Y-92445474D01*
X133864773Y-92445473D01*
X133989069Y-92408978D01*
X134098049Y-92338941D01*
X134182882Y-92241037D01*
X134236697Y-92123200D01*
X134255133Y-91994974D01*
X134236697Y-91866748D01*
X134182882Y-91748911D01*
X134098049Y-91651007D01*
X133989069Y-91580970D01*
X133989065Y-91580968D01*
X133989064Y-91580968D01*
X133864774Y-91544474D01*
X133864772Y-91544474D01*
X133735228Y-91544474D01*
X133735226Y-91544474D01*
X133610935Y-91580968D01*
X133610932Y-91580969D01*
X133610931Y-91580970D01*
X133571268Y-91606460D01*
X133501949Y-91651008D01*
X133491534Y-91663028D01*
X133432756Y-91700801D01*
X133362886Y-91700801D01*
X133304108Y-91663026D01*
X133304107Y-91663024D01*
X133298050Y-91656034D01*
X133298049Y-91656033D01*
X133189069Y-91585996D01*
X133189065Y-91585994D01*
X133189064Y-91585994D01*
X133064774Y-91549500D01*
X133064772Y-91549500D01*
X132935228Y-91549500D01*
X132935226Y-91549500D01*
X132810935Y-91585994D01*
X132810932Y-91585995D01*
X132810931Y-91585996D01*
X132767395Y-91613975D01*
X132701950Y-91656033D01*
X132617118Y-91753937D01*
X132617117Y-91753938D01*
X132563302Y-91871774D01*
X132544867Y-92000000D01*
X119240500Y-92000000D01*
X119240500Y-91400000D01*
X154244867Y-91400000D01*
X154263302Y-91528225D01*
X154302464Y-91613975D01*
X154317118Y-91646063D01*
X154401951Y-91743967D01*
X154435179Y-91765321D01*
X154480934Y-91818125D01*
X154490878Y-91887284D01*
X154480934Y-91921149D01*
X154445204Y-91999384D01*
X154426769Y-92127610D01*
X154445204Y-92255835D01*
X154499019Y-92373671D01*
X154499022Y-92373676D01*
X154554501Y-92437704D01*
X154583525Y-92501260D01*
X154573581Y-92570418D01*
X154554501Y-92600106D01*
X154527735Y-92630995D01*
X154527732Y-92631001D01*
X154473917Y-92748837D01*
X154455482Y-92877063D01*
X154473917Y-93005288D01*
X154494565Y-93050499D01*
X154527733Y-93123126D01*
X154612566Y-93221030D01*
X154721546Y-93291067D01*
X154789035Y-93310883D01*
X154845840Y-93327562D01*
X154845842Y-93327563D01*
X154845843Y-93327563D01*
X154975388Y-93327563D01*
X154975388Y-93327562D01*
X155099684Y-93291067D01*
X155208664Y-93221030D01*
X155293497Y-93123126D01*
X155347312Y-93005289D01*
X155365748Y-92877063D01*
X155347312Y-92748837D01*
X155293497Y-92631000D01*
X155266636Y-92600000D01*
X174444867Y-92600000D01*
X174463302Y-92728225D01*
X174494315Y-92796132D01*
X174517118Y-92846063D01*
X174601951Y-92943967D01*
X174710931Y-93014004D01*
X174835225Y-93050499D01*
X174835227Y-93050500D01*
X174835228Y-93050500D01*
X174964773Y-93050500D01*
X174964773Y-93050499D01*
X175089069Y-93014004D01*
X175198049Y-92943967D01*
X175282882Y-92846063D01*
X175336697Y-92728226D01*
X175355133Y-92600000D01*
X176034659Y-92600000D01*
X176053975Y-92796129D01*
X176111188Y-92984733D01*
X176204086Y-93158532D01*
X176204090Y-93158539D01*
X176329116Y-93310883D01*
X176481460Y-93435909D01*
X176481467Y-93435913D01*
X176655266Y-93528811D01*
X176655269Y-93528811D01*
X176655273Y-93528814D01*
X176843868Y-93586024D01*
X177040000Y-93605341D01*
X177236132Y-93586024D01*
X177424727Y-93528814D01*
X177598538Y-93435910D01*
X177750883Y-93310883D01*
X177875910Y-93158538D01*
X177953165Y-93014004D01*
X177968811Y-92984733D01*
X177968811Y-92984732D01*
X177968814Y-92984727D01*
X178026024Y-92796132D01*
X178045341Y-92600000D01*
X178026024Y-92403868D01*
X177968814Y-92215273D01*
X177968811Y-92215269D01*
X177968811Y-92215266D01*
X177875913Y-92041467D01*
X177875909Y-92041460D01*
X177750883Y-91889116D01*
X177598539Y-91764090D01*
X177598532Y-91764086D01*
X177424733Y-91671188D01*
X177424727Y-91671186D01*
X177236132Y-91613976D01*
X177236129Y-91613975D01*
X177040000Y-91594659D01*
X176843870Y-91613975D01*
X176655266Y-91671188D01*
X176481467Y-91764086D01*
X176481460Y-91764090D01*
X176329116Y-91889116D01*
X176204090Y-92041460D01*
X176204086Y-92041467D01*
X176111188Y-92215266D01*
X176053975Y-92403870D01*
X176034659Y-92600000D01*
X175355133Y-92600000D01*
X175336697Y-92471774D01*
X175282882Y-92353937D01*
X175198049Y-92256033D01*
X175089069Y-92185996D01*
X175089065Y-92185994D01*
X175089064Y-92185994D01*
X174964774Y-92149500D01*
X174964772Y-92149500D01*
X174835228Y-92149500D01*
X174835226Y-92149500D01*
X174710935Y-92185994D01*
X174710932Y-92185995D01*
X174710931Y-92185996D01*
X174679700Y-92206067D01*
X174601950Y-92256033D01*
X174517118Y-92353937D01*
X174517117Y-92353938D01*
X174463302Y-92471774D01*
X174444867Y-92600000D01*
X155266636Y-92600000D01*
X155242899Y-92572606D01*
X155238015Y-92566969D01*
X155208991Y-92503413D01*
X155218935Y-92434254D01*
X155238013Y-92404567D01*
X155264784Y-92373673D01*
X155318599Y-92255836D01*
X155337035Y-92127610D01*
X155318599Y-91999384D01*
X155264784Y-91881547D01*
X155179951Y-91783643D01*
X155179950Y-91783642D01*
X155149526Y-91764090D01*
X155146722Y-91762288D01*
X155100967Y-91709486D01*
X155091023Y-91640328D01*
X155100964Y-91606467D01*
X155136697Y-91528226D01*
X155155133Y-91400000D01*
X155136697Y-91271774D01*
X155082882Y-91153937D01*
X154998049Y-91056033D01*
X154889069Y-90985996D01*
X154889065Y-90985994D01*
X154889064Y-90985994D01*
X154764774Y-90949500D01*
X154764772Y-90949500D01*
X154635228Y-90949500D01*
X154635226Y-90949500D01*
X154510935Y-90985994D01*
X154510932Y-90985995D01*
X154510931Y-90985996D01*
X154459677Y-91018934D01*
X154401950Y-91056033D01*
X154317118Y-91153937D01*
X154317117Y-91153938D01*
X154263302Y-91271774D01*
X154244867Y-91400000D01*
X119240500Y-91400000D01*
X119240500Y-90700000D01*
X145844867Y-90700000D01*
X145863302Y-90828225D01*
X145894215Y-90895913D01*
X145917118Y-90946063D01*
X146001951Y-91043967D01*
X146110931Y-91114004D01*
X146235225Y-91150499D01*
X146235227Y-91150500D01*
X146235228Y-91150500D01*
X146364773Y-91150500D01*
X146364773Y-91150499D01*
X146489069Y-91114004D01*
X146598049Y-91043967D01*
X146682882Y-90946063D01*
X146736697Y-90828226D01*
X146755133Y-90700000D01*
X146736697Y-90571774D01*
X146682882Y-90453937D01*
X146598049Y-90356033D01*
X146489069Y-90285996D01*
X146489065Y-90285994D01*
X146489064Y-90285994D01*
X146364774Y-90249500D01*
X146364772Y-90249500D01*
X146235228Y-90249500D01*
X146235226Y-90249500D01*
X146110935Y-90285994D01*
X146110932Y-90285995D01*
X146110931Y-90285996D01*
X146059677Y-90318934D01*
X146001950Y-90356033D01*
X145917118Y-90453937D01*
X145917117Y-90453938D01*
X145863302Y-90571774D01*
X145844867Y-90700000D01*
X119240500Y-90700000D01*
X119240500Y-90100000D01*
X174444867Y-90100000D01*
X174463302Y-90228225D01*
X174476046Y-90256129D01*
X174517118Y-90346063D01*
X174601951Y-90443967D01*
X174710931Y-90514004D01*
X174835225Y-90550499D01*
X174835227Y-90550500D01*
X174835228Y-90550500D01*
X174964773Y-90550500D01*
X174964773Y-90550499D01*
X175089069Y-90514004D01*
X175198049Y-90443967D01*
X175282882Y-90346063D01*
X175336697Y-90228226D01*
X175355133Y-90100000D01*
X175349382Y-90060000D01*
X176034659Y-90060000D01*
X176053975Y-90256129D01*
X176053976Y-90256132D01*
X176110955Y-90443967D01*
X176111188Y-90444733D01*
X176204086Y-90618532D01*
X176204090Y-90618539D01*
X176329116Y-90770883D01*
X176481460Y-90895909D01*
X176481467Y-90895913D01*
X176655266Y-90988811D01*
X176655269Y-90988811D01*
X176655273Y-90988814D01*
X176843868Y-91046024D01*
X177040000Y-91065341D01*
X177236132Y-91046024D01*
X177424727Y-90988814D01*
X177598538Y-90895910D01*
X177750883Y-90770883D01*
X177875910Y-90618538D01*
X177968814Y-90444727D01*
X178026024Y-90256132D01*
X178045341Y-90060000D01*
X178026024Y-89863868D01*
X177968814Y-89675273D01*
X177968811Y-89675269D01*
X177968811Y-89675266D01*
X177875913Y-89501467D01*
X177875909Y-89501460D01*
X177750883Y-89349116D01*
X177598539Y-89224090D01*
X177598532Y-89224086D01*
X177424733Y-89131188D01*
X177424727Y-89131186D01*
X177236132Y-89073976D01*
X177236129Y-89073975D01*
X177040000Y-89054659D01*
X176843870Y-89073975D01*
X176655266Y-89131188D01*
X176481467Y-89224086D01*
X176481460Y-89224090D01*
X176329116Y-89349116D01*
X176204090Y-89501460D01*
X176204086Y-89501467D01*
X176111188Y-89675266D01*
X176053975Y-89863870D01*
X176034659Y-90060000D01*
X175349382Y-90060000D01*
X175336697Y-89971774D01*
X175282882Y-89853937D01*
X175198049Y-89756033D01*
X175089069Y-89685996D01*
X175089065Y-89685994D01*
X175089064Y-89685994D01*
X174964774Y-89649500D01*
X174964772Y-89649500D01*
X174835228Y-89649500D01*
X174835226Y-89649500D01*
X174710935Y-89685994D01*
X174710932Y-89685995D01*
X174710931Y-89685996D01*
X174659677Y-89718934D01*
X174601950Y-89756033D01*
X174517118Y-89853937D01*
X174517117Y-89853938D01*
X174463302Y-89971774D01*
X174444867Y-90100000D01*
X119240500Y-90100000D01*
X119240500Y-89100000D01*
X144444867Y-89100000D01*
X144463302Y-89228225D01*
X144517117Y-89346061D01*
X144517118Y-89346063D01*
X144601951Y-89443967D01*
X144710931Y-89514004D01*
X144835225Y-89550499D01*
X144835227Y-89550500D01*
X144835228Y-89550500D01*
X144964773Y-89550500D01*
X144964773Y-89550499D01*
X145089069Y-89514004D01*
X145198049Y-89443967D01*
X145282882Y-89346063D01*
X145336697Y-89228226D01*
X145355133Y-89100000D01*
X145336697Y-88971774D01*
X145282882Y-88853937D01*
X145198049Y-88756033D01*
X145089069Y-88685996D01*
X145089065Y-88685994D01*
X145089064Y-88685994D01*
X144964774Y-88649500D01*
X144964772Y-88649500D01*
X144835228Y-88649500D01*
X144835226Y-88649500D01*
X144710935Y-88685994D01*
X144710932Y-88685995D01*
X144710931Y-88685996D01*
X144667350Y-88714004D01*
X144601950Y-88756033D01*
X144517118Y-88853937D01*
X144517117Y-88853938D01*
X144463302Y-88971774D01*
X144444867Y-89100000D01*
X119240500Y-89100000D01*
X119240500Y-88400000D01*
X142344867Y-88400000D01*
X142363302Y-88528225D01*
X142371449Y-88546063D01*
X142417118Y-88646063D01*
X142501951Y-88743967D01*
X142610931Y-88814004D01*
X142735225Y-88850499D01*
X142735227Y-88850500D01*
X142735228Y-88850500D01*
X142864773Y-88850500D01*
X142864773Y-88850499D01*
X142989069Y-88814004D01*
X143098049Y-88743967D01*
X143182882Y-88646063D01*
X143236697Y-88528226D01*
X143255133Y-88400000D01*
X143240755Y-88300000D01*
X157544867Y-88300000D01*
X157563302Y-88428225D01*
X157608972Y-88528226D01*
X157617118Y-88546063D01*
X157701951Y-88643967D01*
X157810931Y-88714004D01*
X157935225Y-88750499D01*
X157935227Y-88750500D01*
X157935228Y-88750500D01*
X158064773Y-88750500D01*
X158064773Y-88750499D01*
X158189069Y-88714004D01*
X158298049Y-88643967D01*
X158382882Y-88546063D01*
X158436697Y-88428226D01*
X158455133Y-88300000D01*
X161444867Y-88300000D01*
X161463302Y-88428225D01*
X161508972Y-88528226D01*
X161517118Y-88546063D01*
X161601951Y-88643967D01*
X161710931Y-88714004D01*
X161835225Y-88750499D01*
X161835227Y-88750500D01*
X161835228Y-88750500D01*
X161964773Y-88750500D01*
X161964773Y-88750499D01*
X162089069Y-88714004D01*
X162198049Y-88643967D01*
X162282882Y-88546063D01*
X162336697Y-88428226D01*
X162355133Y-88300000D01*
X162336697Y-88171774D01*
X162282882Y-88053937D01*
X162198049Y-87956033D01*
X162089069Y-87885996D01*
X162089065Y-87885994D01*
X162089064Y-87885994D01*
X161964774Y-87849500D01*
X161964772Y-87849500D01*
X161835228Y-87849500D01*
X161835226Y-87849500D01*
X161710935Y-87885994D01*
X161710932Y-87885995D01*
X161710931Y-87885996D01*
X161681785Y-87904727D01*
X161601950Y-87956033D01*
X161517118Y-88053937D01*
X161517117Y-88053938D01*
X161463302Y-88171774D01*
X161444867Y-88300000D01*
X158455133Y-88300000D01*
X158436697Y-88171774D01*
X158382882Y-88053937D01*
X158298049Y-87956033D01*
X158189069Y-87885996D01*
X158189065Y-87885994D01*
X158189064Y-87885994D01*
X158064774Y-87849500D01*
X158064772Y-87849500D01*
X157935228Y-87849500D01*
X157935226Y-87849500D01*
X157810935Y-87885994D01*
X157810932Y-87885995D01*
X157810931Y-87885996D01*
X157781785Y-87904727D01*
X157701950Y-87956033D01*
X157617118Y-88053937D01*
X157617117Y-88053938D01*
X157563302Y-88171774D01*
X157544867Y-88300000D01*
X143240755Y-88300000D01*
X143236697Y-88271774D01*
X143182882Y-88153937D01*
X143098049Y-88056033D01*
X142989069Y-87985996D01*
X142989065Y-87985994D01*
X142989064Y-87985994D01*
X142864774Y-87949500D01*
X142864772Y-87949500D01*
X142735228Y-87949500D01*
X142735226Y-87949500D01*
X142610935Y-87985994D01*
X142610932Y-87985995D01*
X142610931Y-87985996D01*
X142559677Y-88018934D01*
X142501950Y-88056033D01*
X142417118Y-88153937D01*
X142417117Y-88153938D01*
X142363302Y-88271774D01*
X142344867Y-88400000D01*
X119240500Y-88400000D01*
X119240500Y-87500000D01*
X174444867Y-87500000D01*
X174463302Y-87628225D01*
X174503447Y-87716129D01*
X174517118Y-87746063D01*
X174601951Y-87843967D01*
X174710931Y-87914004D01*
X174835225Y-87950499D01*
X174835227Y-87950500D01*
X174835228Y-87950500D01*
X174964773Y-87950500D01*
X174964773Y-87950499D01*
X175089069Y-87914004D01*
X175198049Y-87843967D01*
X175282882Y-87746063D01*
X175336697Y-87628226D01*
X175352257Y-87520000D01*
X176034659Y-87520000D01*
X176053975Y-87716129D01*
X176073046Y-87778997D01*
X176105503Y-87885994D01*
X176111188Y-87904733D01*
X176204086Y-88078532D01*
X176204090Y-88078539D01*
X176329116Y-88230883D01*
X176481460Y-88355909D01*
X176481467Y-88355913D01*
X176655266Y-88448811D01*
X176655269Y-88448811D01*
X176655273Y-88448814D01*
X176843868Y-88506024D01*
X177040000Y-88525341D01*
X177236132Y-88506024D01*
X177424727Y-88448814D01*
X177463245Y-88428226D01*
X177598532Y-88355913D01*
X177598538Y-88355910D01*
X177750883Y-88230883D01*
X177875910Y-88078538D01*
X177963855Y-87914005D01*
X177968811Y-87904733D01*
X177968811Y-87904732D01*
X177968814Y-87904727D01*
X178026024Y-87716132D01*
X178045341Y-87520000D01*
X178026024Y-87323868D01*
X177968814Y-87135273D01*
X177968811Y-87135269D01*
X177968811Y-87135266D01*
X177875913Y-86961467D01*
X177875909Y-86961460D01*
X177750883Y-86809116D01*
X177598539Y-86684090D01*
X177598532Y-86684086D01*
X177424733Y-86591188D01*
X177424727Y-86591186D01*
X177298997Y-86553046D01*
X177236129Y-86533975D01*
X177040000Y-86514659D01*
X176843870Y-86533975D01*
X176655266Y-86591188D01*
X176481467Y-86684086D01*
X176481460Y-86684090D01*
X176329116Y-86809116D01*
X176204090Y-86961460D01*
X176204086Y-86961467D01*
X176111188Y-87135266D01*
X176053975Y-87323870D01*
X176034659Y-87520000D01*
X175352257Y-87520000D01*
X175355133Y-87500000D01*
X175336697Y-87371774D01*
X175282882Y-87253937D01*
X175198049Y-87156033D01*
X175089069Y-87085996D01*
X175089065Y-87085994D01*
X175089064Y-87085994D01*
X174964774Y-87049500D01*
X174964772Y-87049500D01*
X174835228Y-87049500D01*
X174835226Y-87049500D01*
X174710935Y-87085994D01*
X174710932Y-87085995D01*
X174710931Y-87085996D01*
X174659677Y-87118934D01*
X174601950Y-87156033D01*
X174517118Y-87253937D01*
X174517117Y-87253938D01*
X174463302Y-87371774D01*
X174444867Y-87500000D01*
X119240500Y-87500000D01*
X119240500Y-86600000D01*
X144944867Y-86600000D01*
X144963302Y-86728225D01*
X145000245Y-86809117D01*
X145017118Y-86846063D01*
X145101951Y-86943967D01*
X145210931Y-87014004D01*
X145335225Y-87050499D01*
X145335227Y-87050500D01*
X145335228Y-87050500D01*
X145464773Y-87050500D01*
X145464773Y-87050499D01*
X145589069Y-87014004D01*
X145610860Y-87000000D01*
X158444867Y-87000000D01*
X158463302Y-87128225D01*
X158466518Y-87135266D01*
X158517118Y-87246063D01*
X158601951Y-87343967D01*
X158710931Y-87414004D01*
X158835225Y-87450499D01*
X158835227Y-87450500D01*
X158835228Y-87450500D01*
X158964773Y-87450500D01*
X158964773Y-87450499D01*
X159089069Y-87414004D01*
X159198049Y-87343967D01*
X159282882Y-87246063D01*
X159336697Y-87128226D01*
X159355133Y-87000000D01*
X159336697Y-86871774D01*
X159282882Y-86753937D01*
X159198049Y-86656033D01*
X159089069Y-86585996D01*
X159089065Y-86585994D01*
X159089064Y-86585994D01*
X158964774Y-86549500D01*
X158964772Y-86549500D01*
X158835228Y-86549500D01*
X158835226Y-86549500D01*
X158710935Y-86585994D01*
X158710932Y-86585995D01*
X158710931Y-86585996D01*
X158659677Y-86618934D01*
X158601950Y-86656033D01*
X158517118Y-86753937D01*
X158517117Y-86753938D01*
X158463302Y-86871774D01*
X158444867Y-87000000D01*
X145610860Y-87000000D01*
X145698049Y-86943967D01*
X145782882Y-86846063D01*
X145836697Y-86728226D01*
X145855133Y-86600000D01*
X145836697Y-86471774D01*
X145782882Y-86353937D01*
X145698049Y-86256033D01*
X145589069Y-86185996D01*
X145589065Y-86185994D01*
X145589064Y-86185994D01*
X145464774Y-86149500D01*
X145464772Y-86149500D01*
X145335228Y-86149500D01*
X145335226Y-86149500D01*
X145210935Y-86185994D01*
X145210932Y-86185995D01*
X145210931Y-86185996D01*
X145160337Y-86218511D01*
X145101950Y-86256033D01*
X145017118Y-86353937D01*
X145017117Y-86353938D01*
X144963302Y-86471774D01*
X144944867Y-86600000D01*
X119240500Y-86600000D01*
X119240500Y-85700000D01*
X141644867Y-85700000D01*
X141663302Y-85828225D01*
X141716160Y-85943966D01*
X141717118Y-85946063D01*
X141801951Y-86043967D01*
X141910931Y-86114004D01*
X142035225Y-86150499D01*
X142035227Y-86150500D01*
X142035228Y-86150500D01*
X142164773Y-86150500D01*
X142164773Y-86150499D01*
X142289069Y-86114004D01*
X142398049Y-86043967D01*
X142482882Y-85946063D01*
X142536697Y-85828226D01*
X142547944Y-85750000D01*
X146394867Y-85750000D01*
X146413302Y-85878225D01*
X146444283Y-85946062D01*
X146467118Y-85996063D01*
X146551951Y-86093967D01*
X146660931Y-86164004D01*
X146735824Y-86185994D01*
X146785225Y-86200499D01*
X146785227Y-86200500D01*
X146785228Y-86200500D01*
X146914773Y-86200500D01*
X146914773Y-86200499D01*
X147039069Y-86164004D01*
X147148049Y-86093967D01*
X147232882Y-85996063D01*
X147286697Y-85878226D01*
X147305133Y-85750000D01*
X147286697Y-85621774D01*
X147276753Y-85600000D01*
X151844867Y-85600000D01*
X151863302Y-85728225D01*
X151908972Y-85828226D01*
X151917118Y-85846063D01*
X152001951Y-85943967D01*
X152110931Y-86014004D01*
X152235225Y-86050499D01*
X152235227Y-86050500D01*
X152235228Y-86050500D01*
X152364773Y-86050500D01*
X152364773Y-86050499D01*
X152489069Y-86014004D01*
X152598049Y-85943967D01*
X152658203Y-85874545D01*
X155957341Y-85874545D01*
X155975776Y-86002770D01*
X155997574Y-86050499D01*
X156029592Y-86120608D01*
X156114425Y-86218512D01*
X156223405Y-86288549D01*
X156347699Y-86325044D01*
X156347701Y-86325045D01*
X156347702Y-86325045D01*
X156477247Y-86325045D01*
X156477247Y-86325044D01*
X156601543Y-86288549D01*
X156710523Y-86218512D01*
X156795356Y-86120608D01*
X156849171Y-86002771D01*
X156867607Y-85874545D01*
X156849171Y-85746319D01*
X156795356Y-85628482D01*
X156710523Y-85530578D01*
X156601543Y-85460541D01*
X156601539Y-85460539D01*
X156601538Y-85460539D01*
X156477248Y-85424045D01*
X156477246Y-85424045D01*
X156347702Y-85424045D01*
X156347700Y-85424045D01*
X156223409Y-85460539D01*
X156223406Y-85460540D01*
X156223405Y-85460541D01*
X156172151Y-85493479D01*
X156114424Y-85530578D01*
X156029592Y-85628482D01*
X156029591Y-85628483D01*
X155975776Y-85746319D01*
X155957341Y-85874545D01*
X152658203Y-85874545D01*
X152682882Y-85846063D01*
X152736697Y-85728226D01*
X152755133Y-85600000D01*
X152736697Y-85471774D01*
X152682882Y-85353937D01*
X152598049Y-85256033D01*
X152489069Y-85185996D01*
X152489065Y-85185994D01*
X152489064Y-85185994D01*
X152364774Y-85149500D01*
X152364772Y-85149500D01*
X152235228Y-85149500D01*
X152235226Y-85149500D01*
X152110935Y-85185994D01*
X152110932Y-85185995D01*
X152110931Y-85185996D01*
X152059677Y-85218934D01*
X152001950Y-85256033D01*
X151917118Y-85353937D01*
X151917117Y-85353938D01*
X151863302Y-85471774D01*
X151844867Y-85600000D01*
X147276753Y-85600000D01*
X147232882Y-85503937D01*
X147148049Y-85406033D01*
X147039069Y-85335996D01*
X147039065Y-85335994D01*
X147039064Y-85335994D01*
X146914774Y-85299500D01*
X146914772Y-85299500D01*
X146785228Y-85299500D01*
X146785226Y-85299500D01*
X146660935Y-85335994D01*
X146660932Y-85335995D01*
X146660931Y-85335996D01*
X146633013Y-85353938D01*
X146551950Y-85406033D01*
X146467118Y-85503937D01*
X146467117Y-85503938D01*
X146413302Y-85621774D01*
X146394867Y-85750000D01*
X142547944Y-85750000D01*
X142555133Y-85700000D01*
X142536697Y-85571774D01*
X142482882Y-85453937D01*
X142398049Y-85356033D01*
X142289069Y-85285996D01*
X142289065Y-85285994D01*
X142289064Y-85285994D01*
X142164774Y-85249500D01*
X142164772Y-85249500D01*
X142035228Y-85249500D01*
X142035226Y-85249500D01*
X141910935Y-85285994D01*
X141910932Y-85285995D01*
X141910931Y-85285996D01*
X141859677Y-85318934D01*
X141801950Y-85356033D01*
X141717118Y-85453937D01*
X141717117Y-85453938D01*
X141663302Y-85571774D01*
X141644867Y-85700000D01*
X119240500Y-85700000D01*
X119240500Y-85091207D01*
X143053660Y-85091207D01*
X143072095Y-85219432D01*
X143108662Y-85299500D01*
X143125911Y-85337270D01*
X143210744Y-85435174D01*
X143319724Y-85505211D01*
X143444018Y-85541706D01*
X143444020Y-85541707D01*
X143444021Y-85541707D01*
X143573566Y-85541707D01*
X143573566Y-85541706D01*
X143697862Y-85505211D01*
X143806842Y-85435174D01*
X143891675Y-85337270D01*
X143945490Y-85219433D01*
X143963926Y-85091207D01*
X143945490Y-84962981D01*
X143891675Y-84845144D01*
X143806842Y-84747240D01*
X143697862Y-84677203D01*
X143697858Y-84677201D01*
X143697857Y-84677201D01*
X143573567Y-84640707D01*
X143573565Y-84640707D01*
X143444021Y-84640707D01*
X143444019Y-84640707D01*
X143319728Y-84677201D01*
X143319725Y-84677202D01*
X143319724Y-84677203D01*
X143268470Y-84710141D01*
X143210743Y-84747240D01*
X143125911Y-84845144D01*
X143125910Y-84845145D01*
X143072095Y-84962981D01*
X143053660Y-85091207D01*
X119240500Y-85091207D01*
X119240500Y-84051868D01*
X142187264Y-84051868D01*
X142205699Y-84180093D01*
X142219830Y-84211034D01*
X142259515Y-84297931D01*
X142344348Y-84395835D01*
X142453328Y-84465872D01*
X142577622Y-84502367D01*
X142577624Y-84502368D01*
X142577625Y-84502368D01*
X142707170Y-84502368D01*
X142707170Y-84502367D01*
X142831466Y-84465872D01*
X142940446Y-84395835D01*
X143025279Y-84297931D01*
X143079094Y-84180094D01*
X143092854Y-84084392D01*
X143121879Y-84020836D01*
X143180657Y-83983062D01*
X143215592Y-83978039D01*
X143243438Y-83978039D01*
X143243438Y-83978038D01*
X143367734Y-83941543D01*
X143476714Y-83871506D01*
X143561547Y-83773602D01*
X143567515Y-83760534D01*
X147591654Y-83760534D01*
X147610089Y-83888759D01*
X147650862Y-83978038D01*
X147663905Y-84006597D01*
X147748738Y-84104501D01*
X147857718Y-84174538D01*
X147982012Y-84211033D01*
X147982014Y-84211034D01*
X147982015Y-84211034D01*
X148111560Y-84211034D01*
X148111560Y-84211033D01*
X148235856Y-84174538D01*
X148344836Y-84104501D01*
X148429669Y-84006597D01*
X148483484Y-83888760D01*
X148501920Y-83760534D01*
X148483484Y-83632308D01*
X148429669Y-83514471D01*
X148344836Y-83416567D01*
X148235856Y-83346530D01*
X148235852Y-83346528D01*
X148235851Y-83346528D01*
X148111561Y-83310034D01*
X148111559Y-83310034D01*
X147982015Y-83310034D01*
X147982013Y-83310034D01*
X147857722Y-83346528D01*
X147857719Y-83346529D01*
X147857718Y-83346530D01*
X147806464Y-83379468D01*
X147748737Y-83416567D01*
X147663905Y-83514471D01*
X147663904Y-83514472D01*
X147610089Y-83632308D01*
X147591654Y-83760534D01*
X143567515Y-83760534D01*
X143615362Y-83655765D01*
X143633798Y-83527539D01*
X143633797Y-83527536D01*
X143634263Y-83524299D01*
X143663287Y-83460743D01*
X143722065Y-83422968D01*
X143739363Y-83419206D01*
X143743044Y-83418676D01*
X143743053Y-83418676D01*
X143867350Y-83382180D01*
X143976330Y-83312143D01*
X144061163Y-83214239D01*
X144114978Y-83096402D01*
X144125246Y-83024984D01*
X144154271Y-82961429D01*
X144213049Y-82923654D01*
X144247984Y-82918631D01*
X144302035Y-82918631D01*
X144302035Y-82918630D01*
X144426331Y-82882135D01*
X144480165Y-82847538D01*
X155492405Y-82847538D01*
X155510840Y-82975763D01*
X155561182Y-83085994D01*
X155564656Y-83093601D01*
X155649489Y-83191505D01*
X155758469Y-83261542D01*
X155882763Y-83298037D01*
X155882765Y-83298038D01*
X155930801Y-83298038D01*
X155997840Y-83317723D01*
X156043595Y-83370527D01*
X156053539Y-83439685D01*
X156044867Y-83500000D01*
X156063302Y-83628225D01*
X156099690Y-83707901D01*
X156117118Y-83746063D01*
X156201951Y-83843967D01*
X156310931Y-83914004D01*
X156343756Y-83923642D01*
X156435225Y-83950499D01*
X156435227Y-83950500D01*
X156435228Y-83950500D01*
X156564773Y-83950500D01*
X156564773Y-83950499D01*
X156689069Y-83914004D01*
X156798049Y-83843967D01*
X156882882Y-83746063D01*
X156936697Y-83628226D01*
X156955133Y-83500000D01*
X156936697Y-83371774D01*
X156882882Y-83253937D01*
X156798049Y-83156033D01*
X156689069Y-83085996D01*
X156689065Y-83085994D01*
X156689064Y-83085994D01*
X156564774Y-83049500D01*
X156564772Y-83049500D01*
X156516737Y-83049500D01*
X156449698Y-83029815D01*
X156403943Y-82977011D01*
X156393999Y-82907853D01*
X156394486Y-82904468D01*
X156402671Y-82847538D01*
X156384235Y-82719312D01*
X156330420Y-82601475D01*
X156245587Y-82503571D01*
X156136607Y-82433534D01*
X156136603Y-82433532D01*
X156136602Y-82433532D01*
X156012312Y-82397038D01*
X156012310Y-82397038D01*
X155882766Y-82397038D01*
X155882764Y-82397038D01*
X155758473Y-82433532D01*
X155758470Y-82433533D01*
X155758469Y-82433534D01*
X155718294Y-82459353D01*
X155649488Y-82503571D01*
X155564656Y-82601475D01*
X155564655Y-82601476D01*
X155510840Y-82719312D01*
X155492405Y-82847538D01*
X144480165Y-82847538D01*
X144535311Y-82812098D01*
X144620144Y-82714194D01*
X144673959Y-82596357D01*
X144692395Y-82468131D01*
X144692394Y-82468130D01*
X144693657Y-82459353D01*
X144696713Y-82459792D01*
X144712080Y-82407461D01*
X144764884Y-82361706D01*
X144816395Y-82350500D01*
X144852035Y-82350500D01*
X144852035Y-82350499D01*
X144976331Y-82314004D01*
X145085311Y-82243967D01*
X145170144Y-82146063D01*
X145223959Y-82028226D01*
X145234265Y-81956546D01*
X145263290Y-81892990D01*
X145322068Y-81855216D01*
X145357003Y-81850193D01*
X145414988Y-81850193D01*
X145414988Y-81850192D01*
X145539284Y-81813697D01*
X145648264Y-81743660D01*
X145733097Y-81645756D01*
X145753993Y-81600000D01*
X151865460Y-81600000D01*
X151883895Y-81728225D01*
X151903784Y-81771774D01*
X151937711Y-81846063D01*
X152022544Y-81943967D01*
X152131524Y-82014004D01*
X152255818Y-82050499D01*
X152255820Y-82050500D01*
X152255821Y-82050500D01*
X152385366Y-82050500D01*
X152385366Y-82050499D01*
X152509662Y-82014004D01*
X152618642Y-81943967D01*
X152703475Y-81846063D01*
X152757290Y-81728226D01*
X152775726Y-81600000D01*
X152757290Y-81471774D01*
X152703475Y-81353937D01*
X152618642Y-81256033D01*
X152509662Y-81185996D01*
X152509658Y-81185994D01*
X152509657Y-81185994D01*
X152385367Y-81149500D01*
X152385365Y-81149500D01*
X152255821Y-81149500D01*
X152255819Y-81149500D01*
X152131528Y-81185994D01*
X152131525Y-81185995D01*
X152131524Y-81185996D01*
X152083318Y-81216976D01*
X152022543Y-81256033D01*
X151937711Y-81353937D01*
X151937710Y-81353938D01*
X151883895Y-81471774D01*
X151865460Y-81600000D01*
X145753993Y-81600000D01*
X145786912Y-81527919D01*
X145805348Y-81399693D01*
X145789021Y-81286135D01*
X145798965Y-81216976D01*
X145844720Y-81164172D01*
X145911759Y-81144488D01*
X146000427Y-81144488D01*
X146000427Y-81144487D01*
X146124723Y-81107992D01*
X146233703Y-81037955D01*
X146318536Y-80940051D01*
X146372351Y-80822214D01*
X146390787Y-80693988D01*
X146390786Y-80693986D01*
X146391600Y-80688331D01*
X146420625Y-80624776D01*
X146479403Y-80587001D01*
X146514338Y-80581978D01*
X146550427Y-80581978D01*
X146550427Y-80581977D01*
X146674723Y-80545482D01*
X146783703Y-80475445D01*
X146868536Y-80377541D01*
X146922351Y-80259704D01*
X146940787Y-80131478D01*
X146934914Y-80090632D01*
X146944857Y-80021477D01*
X146990612Y-79968672D01*
X147057651Y-79948987D01*
X147092588Y-79954010D01*
X147109265Y-79958907D01*
X147109266Y-79958908D01*
X147109267Y-79958908D01*
X147238812Y-79958908D01*
X147238812Y-79958907D01*
X147363108Y-79922412D01*
X147472088Y-79852375D01*
X147556921Y-79754471D01*
X147610736Y-79636634D01*
X147629172Y-79508408D01*
X147626834Y-79492146D01*
X147636778Y-79422988D01*
X147682533Y-79370184D01*
X147749572Y-79350500D01*
X147788812Y-79350500D01*
X147788812Y-79350499D01*
X147913108Y-79314004D01*
X148022088Y-79243967D01*
X148106921Y-79146063D01*
X148160736Y-79028226D01*
X148179172Y-78900000D01*
X148178552Y-78895689D01*
X148179172Y-78891379D01*
X148179172Y-78891131D01*
X148179208Y-78891131D01*
X148188495Y-78826533D01*
X148234249Y-78773729D01*
X148301288Y-78754043D01*
X148408941Y-78754043D01*
X148408941Y-78754042D01*
X148533237Y-78717547D01*
X148642217Y-78647510D01*
X148727050Y-78549606D01*
X148780865Y-78431769D01*
X148791636Y-78356853D01*
X148820661Y-78293298D01*
X148879439Y-78255523D01*
X148914374Y-78250500D01*
X148964773Y-78250500D01*
X148964773Y-78250499D01*
X149089069Y-78214004D01*
X149145478Y-78177752D01*
X149212514Y-78158068D01*
X149279554Y-78177752D01*
X149325309Y-78230556D01*
X149335253Y-78299714D01*
X149325310Y-78333578D01*
X149306299Y-78375205D01*
X149287864Y-78503431D01*
X149306299Y-78631656D01*
X149360114Y-78749492D01*
X149360115Y-78749494D01*
X149444948Y-78847398D01*
X149553928Y-78917435D01*
X149631549Y-78940226D01*
X149678222Y-78953930D01*
X149678224Y-78953931D01*
X149678225Y-78953931D01*
X149807770Y-78953931D01*
X149807770Y-78953930D01*
X149841174Y-78944122D01*
X149870777Y-78935431D01*
X149940646Y-78935431D01*
X149999424Y-78973206D01*
X150018505Y-79002895D01*
X150043700Y-79058063D01*
X150119949Y-79146061D01*
X150128533Y-79155967D01*
X150237513Y-79226004D01*
X150361286Y-79262346D01*
X150361807Y-79262499D01*
X150361809Y-79262500D01*
X150361810Y-79262500D01*
X150491354Y-79262500D01*
X150615651Y-79226004D01*
X150615653Y-79226002D01*
X150617995Y-79225315D01*
X150687865Y-79225315D01*
X150746643Y-79263089D01*
X150765724Y-79292780D01*
X150782470Y-79329447D01*
X150790182Y-79346334D01*
X150875015Y-79444238D01*
X150983995Y-79514275D01*
X151103119Y-79549252D01*
X151108289Y-79550770D01*
X151108291Y-79550771D01*
X151108292Y-79550771D01*
X151237837Y-79550771D01*
X151237837Y-79550770D01*
X151362133Y-79514275D01*
X151471113Y-79444238D01*
X151555946Y-79346334D01*
X151609761Y-79228497D01*
X151628197Y-79100271D01*
X151609761Y-78972045D01*
X151555946Y-78854208D01*
X151471113Y-78756304D01*
X151362133Y-78686267D01*
X151362129Y-78686265D01*
X151362128Y-78686265D01*
X151237838Y-78649771D01*
X151237836Y-78649771D01*
X151108292Y-78649771D01*
X151108290Y-78649771D01*
X150981649Y-78686955D01*
X150911779Y-78686955D01*
X150853001Y-78649180D01*
X150833921Y-78619490D01*
X150809464Y-78565938D01*
X150809464Y-78565937D01*
X150724631Y-78468033D01*
X150615651Y-78397996D01*
X150615647Y-78397994D01*
X150615646Y-78397994D01*
X150491356Y-78361500D01*
X150491354Y-78361500D01*
X150361810Y-78361500D01*
X150361808Y-78361500D01*
X150298801Y-78380000D01*
X150228931Y-78380000D01*
X150170153Y-78342225D01*
X150151073Y-78312534D01*
X150125881Y-78257371D01*
X150125879Y-78257369D01*
X150125879Y-78257368D01*
X150041046Y-78159464D01*
X149932066Y-78089427D01*
X149932062Y-78089425D01*
X149932061Y-78089425D01*
X149807771Y-78052931D01*
X149807769Y-78052931D01*
X149678225Y-78052931D01*
X149678223Y-78052931D01*
X149553930Y-78089425D01*
X149553929Y-78089425D01*
X149497519Y-78125678D01*
X149430479Y-78145362D01*
X149363440Y-78125677D01*
X149317686Y-78072872D01*
X149307743Y-78003713D01*
X149317684Y-77969856D01*
X149336697Y-77928226D01*
X149355133Y-77800000D01*
X149336697Y-77671774D01*
X149282882Y-77553937D01*
X149198049Y-77456033D01*
X149089069Y-77385996D01*
X149089065Y-77385994D01*
X149089064Y-77385994D01*
X148964774Y-77349500D01*
X148964772Y-77349500D01*
X148835228Y-77349500D01*
X148835226Y-77349500D01*
X148710935Y-77385994D01*
X148710932Y-77385995D01*
X148710931Y-77385996D01*
X148659677Y-77418934D01*
X148601950Y-77456033D01*
X148517118Y-77553937D01*
X148517117Y-77553938D01*
X148463302Y-77671774D01*
X148452532Y-77746689D01*
X148423507Y-77810245D01*
X148364729Y-77848020D01*
X148329794Y-77853043D01*
X148279394Y-77853043D01*
X148155103Y-77889537D01*
X148155100Y-77889538D01*
X148155099Y-77889539D01*
X148103845Y-77922477D01*
X148046118Y-77959576D01*
X147961286Y-78057480D01*
X147961285Y-78057481D01*
X147907470Y-78175317D01*
X147889035Y-78303541D01*
X147889035Y-78303543D01*
X147889654Y-78307853D01*
X147889035Y-78312163D01*
X147889035Y-78312412D01*
X147888999Y-78312412D01*
X147879712Y-78377010D01*
X147833958Y-78429814D01*
X147766919Y-78449500D01*
X147659265Y-78449500D01*
X147534974Y-78485994D01*
X147534971Y-78485995D01*
X147534970Y-78485996D01*
X147507897Y-78503395D01*
X147425989Y-78556033D01*
X147341157Y-78653937D01*
X147341156Y-78653938D01*
X147287341Y-78771774D01*
X147268906Y-78900000D01*
X147271244Y-78916261D01*
X147261300Y-78985420D01*
X147215545Y-79038224D01*
X147148506Y-79057908D01*
X147109265Y-79057908D01*
X146984974Y-79094402D01*
X146984971Y-79094403D01*
X146984970Y-79094404D01*
X146975841Y-79100271D01*
X146875989Y-79164441D01*
X146791157Y-79262345D01*
X146791156Y-79262346D01*
X146737341Y-79380182D01*
X146718906Y-79508408D01*
X146724778Y-79549252D01*
X146714834Y-79618410D01*
X146669079Y-79671214D01*
X146602039Y-79690898D01*
X146567106Y-79685875D01*
X146550428Y-79680978D01*
X146550426Y-79680978D01*
X146420882Y-79680978D01*
X146420880Y-79680978D01*
X146296589Y-79717472D01*
X146296586Y-79717473D01*
X146296585Y-79717474D01*
X146245331Y-79750412D01*
X146187604Y-79787511D01*
X146102772Y-79885415D01*
X146102771Y-79885416D01*
X146048956Y-80003252D01*
X146029708Y-80137135D01*
X146000683Y-80200690D01*
X145941905Y-80238465D01*
X145906970Y-80243488D01*
X145870880Y-80243488D01*
X145746589Y-80279982D01*
X145746586Y-80279983D01*
X145746585Y-80279984D01*
X145695331Y-80312922D01*
X145637604Y-80350021D01*
X145552772Y-80447925D01*
X145552771Y-80447926D01*
X145498956Y-80565762D01*
X145480521Y-80693988D01*
X145496848Y-80807546D01*
X145486904Y-80876705D01*
X145441149Y-80929509D01*
X145374110Y-80949193D01*
X145285441Y-80949193D01*
X145161150Y-80985687D01*
X145161147Y-80985688D01*
X145161146Y-80985689D01*
X145109892Y-81018627D01*
X145052165Y-81055726D01*
X144967333Y-81153630D01*
X144967332Y-81153631D01*
X144913517Y-81271467D01*
X144903212Y-81343147D01*
X144874187Y-81406703D01*
X144815409Y-81444477D01*
X144780474Y-81449500D01*
X144722488Y-81449500D01*
X144598197Y-81485994D01*
X144598194Y-81485995D01*
X144598193Y-81485996D01*
X144546939Y-81518934D01*
X144489212Y-81556033D01*
X144404380Y-81653937D01*
X144404379Y-81653938D01*
X144350564Y-81771774D01*
X144330867Y-81908778D01*
X144327810Y-81908338D01*
X144312444Y-81960670D01*
X144259640Y-82006425D01*
X144208129Y-82017631D01*
X144172488Y-82017631D01*
X144048197Y-82054125D01*
X144048194Y-82054126D01*
X144048193Y-82054127D01*
X143996939Y-82087065D01*
X143939212Y-82124164D01*
X143854380Y-82222068D01*
X143854379Y-82222069D01*
X143800564Y-82339905D01*
X143790297Y-82411322D01*
X143761272Y-82474878D01*
X143702494Y-82512653D01*
X143667559Y-82517676D01*
X143613507Y-82517676D01*
X143489216Y-82554170D01*
X143489213Y-82554171D01*
X143489212Y-82554172D01*
X143437958Y-82587110D01*
X143380231Y-82624209D01*
X143295399Y-82722113D01*
X143295398Y-82722114D01*
X143241583Y-82839950D01*
X143222682Y-82971416D01*
X143193657Y-83034972D01*
X143134879Y-83072746D01*
X143117593Y-83076507D01*
X143113888Y-83077039D01*
X142989600Y-83113533D01*
X142989597Y-83113534D01*
X142989596Y-83113535D01*
X142938342Y-83146473D01*
X142880615Y-83183572D01*
X142795783Y-83281476D01*
X142795782Y-83281477D01*
X142741967Y-83399313D01*
X142728208Y-83495015D01*
X142699183Y-83558571D01*
X142640405Y-83596345D01*
X142605470Y-83601368D01*
X142577623Y-83601368D01*
X142453332Y-83637862D01*
X142453329Y-83637863D01*
X142453328Y-83637864D01*
X142402074Y-83670802D01*
X142344347Y-83707901D01*
X142259515Y-83805805D01*
X142259514Y-83805806D01*
X142205699Y-83923642D01*
X142187264Y-84051868D01*
X119240500Y-84051868D01*
X119240500Y-83500000D01*
X129044867Y-83500000D01*
X129063302Y-83628225D01*
X129099690Y-83707901D01*
X129117118Y-83746063D01*
X129201951Y-83843967D01*
X129310931Y-83914004D01*
X129343756Y-83923642D01*
X129435225Y-83950499D01*
X129435227Y-83950500D01*
X129435228Y-83950500D01*
X129564773Y-83950500D01*
X129564773Y-83950499D01*
X129689069Y-83914004D01*
X129798049Y-83843967D01*
X129882882Y-83746063D01*
X129936697Y-83628226D01*
X129955133Y-83500000D01*
X129936697Y-83371774D01*
X129882882Y-83253937D01*
X129798049Y-83156033D01*
X129689069Y-83085996D01*
X129689065Y-83085994D01*
X129689064Y-83085994D01*
X129564774Y-83049500D01*
X129564772Y-83049500D01*
X129435228Y-83049500D01*
X129435226Y-83049500D01*
X129310935Y-83085994D01*
X129310932Y-83085995D01*
X129310931Y-83085996D01*
X129259677Y-83118934D01*
X129201950Y-83156033D01*
X129117118Y-83253937D01*
X129117117Y-83253938D01*
X129063302Y-83371774D01*
X129044867Y-83500000D01*
X119240500Y-83500000D01*
X119240500Y-79700000D01*
X137044867Y-79700000D01*
X137063302Y-79828225D01*
X137089421Y-79885416D01*
X137117118Y-79946063D01*
X137201951Y-80043967D01*
X137310931Y-80114004D01*
X137389710Y-80137135D01*
X137435225Y-80150499D01*
X137435227Y-80150500D01*
X137435228Y-80150500D01*
X137564773Y-80150500D01*
X137564773Y-80150499D01*
X137689069Y-80114004D01*
X137798049Y-80043967D01*
X137882882Y-79946063D01*
X137936697Y-79828226D01*
X137955133Y-79700000D01*
X137936697Y-79571774D01*
X137882882Y-79453937D01*
X137798049Y-79356033D01*
X137689069Y-79285996D01*
X137689065Y-79285994D01*
X137689064Y-79285994D01*
X137564774Y-79249500D01*
X137564772Y-79249500D01*
X137435228Y-79249500D01*
X137435226Y-79249500D01*
X137310935Y-79285994D01*
X137310932Y-79285995D01*
X137310931Y-79285996D01*
X137267350Y-79314004D01*
X137201950Y-79356033D01*
X137117118Y-79453937D01*
X137117117Y-79453938D01*
X137063302Y-79571774D01*
X137044867Y-79700000D01*
X119240500Y-79700000D01*
X119240500Y-77340000D01*
X124884867Y-77340000D01*
X124903302Y-77468225D01*
X124937893Y-77543967D01*
X124957118Y-77586063D01*
X125041951Y-77683967D01*
X125150931Y-77754004D01*
X125275225Y-77790499D01*
X125275227Y-77790500D01*
X125275228Y-77790500D01*
X125404773Y-77790500D01*
X125404773Y-77790499D01*
X125529069Y-77754004D01*
X125638049Y-77683967D01*
X125722882Y-77586063D01*
X125776697Y-77468226D01*
X125795133Y-77340000D01*
X125776697Y-77211774D01*
X125722882Y-77093937D01*
X125638049Y-76996033D01*
X125529069Y-76925996D01*
X125529065Y-76925994D01*
X125529064Y-76925994D01*
X125404774Y-76889500D01*
X125404772Y-76889500D01*
X125275228Y-76889500D01*
X125275226Y-76889500D01*
X125150935Y-76925994D01*
X125150932Y-76925995D01*
X125150931Y-76925996D01*
X125107454Y-76953937D01*
X125041950Y-76996033D01*
X124957118Y-77093937D01*
X124957117Y-77093938D01*
X124903302Y-77211774D01*
X124884867Y-77340000D01*
X119240500Y-77340000D01*
X119240500Y-76800000D01*
X131644867Y-76800000D01*
X131663302Y-76928225D01*
X131675045Y-76953937D01*
X131717118Y-77046063D01*
X131801951Y-77143967D01*
X131910931Y-77214004D01*
X131959368Y-77228226D01*
X132035225Y-77250499D01*
X132035227Y-77250500D01*
X132035228Y-77250500D01*
X132164773Y-77250500D01*
X132164773Y-77250499D01*
X132289069Y-77214004D01*
X132398049Y-77143967D01*
X132436146Y-77100000D01*
X142694867Y-77100000D01*
X142713302Y-77228225D01*
X142758972Y-77328226D01*
X142767118Y-77346063D01*
X142851951Y-77443967D01*
X142960931Y-77514004D01*
X143085225Y-77550499D01*
X143085227Y-77550500D01*
X143085228Y-77550500D01*
X143214773Y-77550500D01*
X143214773Y-77550499D01*
X143339069Y-77514004D01*
X143448049Y-77443967D01*
X143532882Y-77346063D01*
X143586697Y-77228226D01*
X143590755Y-77200000D01*
X163444867Y-77200000D01*
X163463302Y-77328225D01*
X163489685Y-77385994D01*
X163517118Y-77446063D01*
X163601951Y-77543967D01*
X163710931Y-77614004D01*
X163835225Y-77650499D01*
X163835227Y-77650500D01*
X163835228Y-77650500D01*
X163964773Y-77650500D01*
X163964773Y-77650499D01*
X164089069Y-77614004D01*
X164198049Y-77543967D01*
X164282882Y-77446063D01*
X164336697Y-77328226D01*
X164355133Y-77200000D01*
X164336697Y-77071774D01*
X164282882Y-76953937D01*
X164198049Y-76856033D01*
X164089069Y-76785996D01*
X164089065Y-76785994D01*
X164089064Y-76785994D01*
X163964774Y-76749500D01*
X163964772Y-76749500D01*
X163835228Y-76749500D01*
X163835226Y-76749500D01*
X163710935Y-76785994D01*
X163710932Y-76785995D01*
X163710931Y-76785996D01*
X163659677Y-76818934D01*
X163601950Y-76856033D01*
X163517118Y-76953937D01*
X163517117Y-76953938D01*
X163463302Y-77071774D01*
X163444867Y-77200000D01*
X143590755Y-77200000D01*
X143605133Y-77100000D01*
X143586697Y-76971774D01*
X143532882Y-76853937D01*
X143448049Y-76756033D01*
X143339069Y-76685996D01*
X143339065Y-76685994D01*
X143339064Y-76685994D01*
X143214774Y-76649500D01*
X143214772Y-76649500D01*
X143085228Y-76649500D01*
X143085226Y-76649500D01*
X142960935Y-76685994D01*
X142960932Y-76685995D01*
X142960931Y-76685996D01*
X142909677Y-76718934D01*
X142851950Y-76756033D01*
X142767118Y-76853937D01*
X142767117Y-76853938D01*
X142713302Y-76971774D01*
X142694867Y-77100000D01*
X132436146Y-77100000D01*
X132482882Y-77046063D01*
X132536697Y-76928226D01*
X132555133Y-76800000D01*
X132536697Y-76671774D01*
X132482882Y-76553937D01*
X132398049Y-76456033D01*
X132289069Y-76385996D01*
X132289065Y-76385994D01*
X132289064Y-76385994D01*
X132164774Y-76349500D01*
X132164772Y-76349500D01*
X132035228Y-76349500D01*
X132035226Y-76349500D01*
X131910935Y-76385994D01*
X131910932Y-76385995D01*
X131910931Y-76385996D01*
X131859677Y-76418934D01*
X131801950Y-76456033D01*
X131717118Y-76553937D01*
X131717117Y-76553938D01*
X131663302Y-76671774D01*
X131644867Y-76800000D01*
X119240500Y-76800000D01*
X119240500Y-75000000D01*
X124849866Y-75000000D01*
X124868301Y-75128225D01*
X124888190Y-75171774D01*
X124922117Y-75246063D01*
X125006950Y-75343967D01*
X125115930Y-75414004D01*
X125164367Y-75428226D01*
X125240224Y-75450499D01*
X125240226Y-75450500D01*
X125240227Y-75450500D01*
X125369772Y-75450500D01*
X125369772Y-75450499D01*
X125494068Y-75414004D01*
X125603048Y-75343967D01*
X125641145Y-75300000D01*
X154244867Y-75300000D01*
X154263302Y-75428225D01*
X154273475Y-75450500D01*
X154317118Y-75546063D01*
X154401951Y-75643967D01*
X154510931Y-75714004D01*
X154635225Y-75750499D01*
X154635227Y-75750500D01*
X154635228Y-75750500D01*
X154764773Y-75750500D01*
X154764773Y-75750499D01*
X154889069Y-75714004D01*
X154998049Y-75643967D01*
X155082882Y-75546063D01*
X155136697Y-75428226D01*
X155155133Y-75300000D01*
X155136697Y-75171774D01*
X155082882Y-75053937D01*
X154998049Y-74956033D01*
X154889069Y-74885996D01*
X154889065Y-74885994D01*
X154889064Y-74885994D01*
X154764774Y-74849500D01*
X154764772Y-74849500D01*
X154635228Y-74849500D01*
X154635226Y-74849500D01*
X154510935Y-74885994D01*
X154510932Y-74885995D01*
X154510931Y-74885996D01*
X154459677Y-74918934D01*
X154401950Y-74956033D01*
X154317118Y-75053937D01*
X154317117Y-75053938D01*
X154263302Y-75171774D01*
X154244867Y-75300000D01*
X125641145Y-75300000D01*
X125687881Y-75246063D01*
X125741696Y-75128226D01*
X125760132Y-75000000D01*
X125741696Y-74871774D01*
X125687881Y-74753937D01*
X125603048Y-74656033D01*
X125494068Y-74585996D01*
X125494064Y-74585994D01*
X125494063Y-74585994D01*
X125369773Y-74549500D01*
X125369771Y-74549500D01*
X125240227Y-74549500D01*
X125240225Y-74549500D01*
X125115934Y-74585994D01*
X125115931Y-74585995D01*
X125115930Y-74585996D01*
X125064676Y-74618934D01*
X125006949Y-74656033D01*
X124922117Y-74753937D01*
X124922116Y-74753938D01*
X124868301Y-74871774D01*
X124849866Y-75000000D01*
X119240500Y-75000000D01*
X119240500Y-73800000D01*
X160144867Y-73800000D01*
X160163302Y-73928225D01*
X160217117Y-74046061D01*
X160217118Y-74046063D01*
X160301951Y-74143967D01*
X160410931Y-74214004D01*
X160535225Y-74250499D01*
X160535227Y-74250500D01*
X160535228Y-74250500D01*
X160664773Y-74250500D01*
X160664773Y-74250499D01*
X160789069Y-74214004D01*
X160898049Y-74143967D01*
X160982882Y-74046063D01*
X161036697Y-73928226D01*
X161055133Y-73800000D01*
X161036697Y-73671774D01*
X160982882Y-73553937D01*
X160898049Y-73456033D01*
X160789069Y-73385996D01*
X160789065Y-73385994D01*
X160789064Y-73385994D01*
X160664774Y-73349500D01*
X160664772Y-73349500D01*
X160535228Y-73349500D01*
X160535226Y-73349500D01*
X160410935Y-73385994D01*
X160410932Y-73385995D01*
X160410931Y-73385996D01*
X160359677Y-73418934D01*
X160301950Y-73456033D01*
X160217118Y-73553937D01*
X160217117Y-73553938D01*
X160163302Y-73671774D01*
X160144867Y-73800000D01*
X119240500Y-73800000D01*
X119240500Y-73200000D01*
X129644867Y-73200000D01*
X129663302Y-73328225D01*
X129689685Y-73385994D01*
X129717118Y-73446063D01*
X129801951Y-73543967D01*
X129910931Y-73614004D01*
X130035225Y-73650499D01*
X130035227Y-73650500D01*
X130035228Y-73650500D01*
X130164773Y-73650500D01*
X130164773Y-73650499D01*
X130289069Y-73614004D01*
X130398049Y-73543967D01*
X130482882Y-73446063D01*
X130536697Y-73328226D01*
X130555133Y-73200000D01*
X130536697Y-73071774D01*
X130482882Y-72953937D01*
X130398049Y-72856033D01*
X130289069Y-72785996D01*
X130289065Y-72785994D01*
X130289064Y-72785994D01*
X130164774Y-72749500D01*
X130164772Y-72749500D01*
X130035228Y-72749500D01*
X130035226Y-72749500D01*
X129910935Y-72785994D01*
X129910932Y-72785995D01*
X129910931Y-72785996D01*
X129898813Y-72793784D01*
X129801950Y-72856033D01*
X129717118Y-72953937D01*
X129717117Y-72953938D01*
X129663302Y-73071774D01*
X129644867Y-73200000D01*
X119240500Y-73200000D01*
X119240500Y-72665558D01*
X156910424Y-72665558D01*
X156928859Y-72793783D01*
X156982674Y-72911619D01*
X156982675Y-72911621D01*
X157067508Y-73009525D01*
X157176488Y-73079562D01*
X157300782Y-73116057D01*
X157300784Y-73116058D01*
X157300785Y-73116058D01*
X157430330Y-73116058D01*
X157430330Y-73116057D01*
X157554626Y-73079562D01*
X157663606Y-73009525D01*
X157748439Y-72911621D01*
X157802254Y-72793784D01*
X157820690Y-72665558D01*
X157812348Y-72607535D01*
X168024867Y-72607535D01*
X168043302Y-72735760D01*
X168097117Y-72853596D01*
X168097118Y-72853598D01*
X168181951Y-72951502D01*
X168290931Y-73021539D01*
X168415225Y-73058034D01*
X168415227Y-73058035D01*
X168415228Y-73058035D01*
X168544773Y-73058035D01*
X168544773Y-73058034D01*
X168669069Y-73021539D01*
X168778049Y-72951502D01*
X168862882Y-72853598D01*
X168916697Y-72735761D01*
X168935133Y-72607535D01*
X168916697Y-72479309D01*
X168862882Y-72361472D01*
X168778049Y-72263568D01*
X168669069Y-72193531D01*
X168669065Y-72193529D01*
X168669064Y-72193529D01*
X168544774Y-72157035D01*
X168544772Y-72157035D01*
X168415228Y-72157035D01*
X168415226Y-72157035D01*
X168290935Y-72193529D01*
X168290932Y-72193530D01*
X168290931Y-72193531D01*
X168239677Y-72226469D01*
X168181950Y-72263568D01*
X168097118Y-72361472D01*
X168097117Y-72361473D01*
X168043302Y-72479309D01*
X168024867Y-72607535D01*
X157812348Y-72607535D01*
X157802254Y-72537332D01*
X157748439Y-72419495D01*
X157663606Y-72321591D01*
X157554626Y-72251554D01*
X157554622Y-72251552D01*
X157554621Y-72251552D01*
X157430331Y-72215058D01*
X157430329Y-72215058D01*
X157300785Y-72215058D01*
X157300783Y-72215058D01*
X157176492Y-72251552D01*
X157176489Y-72251553D01*
X157176488Y-72251554D01*
X157157794Y-72263568D01*
X157067507Y-72321591D01*
X156982675Y-72419495D01*
X156982674Y-72419496D01*
X156928859Y-72537332D01*
X156910424Y-72665558D01*
X119240500Y-72665558D01*
X119240500Y-72057535D01*
X171750934Y-72057535D01*
X171769369Y-72185760D01*
X171823184Y-72303596D01*
X171823185Y-72303598D01*
X171908018Y-72401502D01*
X172016998Y-72471539D01*
X172043461Y-72479309D01*
X172141292Y-72508034D01*
X172141294Y-72508035D01*
X172141295Y-72508035D01*
X172270840Y-72508035D01*
X172270840Y-72508034D01*
X172395136Y-72471539D01*
X172504116Y-72401502D01*
X172588949Y-72303598D01*
X172642764Y-72185761D01*
X172661200Y-72057535D01*
X172642764Y-71929309D01*
X172588949Y-71811472D01*
X172504116Y-71713568D01*
X172395136Y-71643531D01*
X172395132Y-71643529D01*
X172395131Y-71643529D01*
X172270841Y-71607035D01*
X172270839Y-71607035D01*
X172141295Y-71607035D01*
X172141293Y-71607035D01*
X172017002Y-71643529D01*
X172016999Y-71643530D01*
X172016998Y-71643531D01*
X172016320Y-71643967D01*
X171908017Y-71713568D01*
X171823185Y-71811472D01*
X171823184Y-71811473D01*
X171769369Y-71929309D01*
X171750934Y-72057535D01*
X119240500Y-72057535D01*
X119240500Y-71300000D01*
X161744867Y-71300000D01*
X161763302Y-71428225D01*
X161817117Y-71546061D01*
X161817118Y-71546063D01*
X161901951Y-71643967D01*
X162010931Y-71714004D01*
X162135225Y-71750499D01*
X162135227Y-71750500D01*
X162135228Y-71750500D01*
X162264773Y-71750500D01*
X162264773Y-71750499D01*
X162389069Y-71714004D01*
X162498049Y-71643967D01*
X162582882Y-71546063D01*
X162636697Y-71428226D01*
X162655133Y-71300000D01*
X162636697Y-71171774D01*
X162582882Y-71053937D01*
X162498049Y-70956033D01*
X162389069Y-70885996D01*
X162389065Y-70885994D01*
X162389064Y-70885994D01*
X162264774Y-70849500D01*
X162264772Y-70849500D01*
X162135228Y-70849500D01*
X162135226Y-70849500D01*
X162010935Y-70885994D01*
X162010932Y-70885995D01*
X162010931Y-70885996D01*
X161959677Y-70918934D01*
X161901950Y-70956033D01*
X161817118Y-71053937D01*
X161817117Y-71053938D01*
X161763302Y-71171774D01*
X161744867Y-71300000D01*
X119240500Y-71300000D01*
X119240500Y-65600000D01*
X129944867Y-65600000D01*
X129963302Y-65728225D01*
X129971449Y-65746063D01*
X130017118Y-65846063D01*
X130101951Y-65943967D01*
X130210931Y-66014004D01*
X130335225Y-66050499D01*
X130335227Y-66050500D01*
X130335228Y-66050500D01*
X130464773Y-66050500D01*
X130464773Y-66050499D01*
X130589069Y-66014004D01*
X130698049Y-65943967D01*
X130782882Y-65846063D01*
X130836697Y-65728226D01*
X130855133Y-65600000D01*
X132444867Y-65600000D01*
X132463302Y-65728225D01*
X132471449Y-65746063D01*
X132517118Y-65846063D01*
X132601951Y-65943967D01*
X132710931Y-66014004D01*
X132835225Y-66050499D01*
X132835227Y-66050500D01*
X132835228Y-66050500D01*
X132964773Y-66050500D01*
X132964773Y-66050499D01*
X133089069Y-66014004D01*
X133198049Y-65943967D01*
X133282882Y-65846063D01*
X133336697Y-65728226D01*
X133355133Y-65600000D01*
X135044867Y-65600000D01*
X135063302Y-65728225D01*
X135071449Y-65746063D01*
X135117118Y-65846063D01*
X135201951Y-65943967D01*
X135310931Y-66014004D01*
X135435225Y-66050499D01*
X135435227Y-66050500D01*
X135435228Y-66050500D01*
X135564773Y-66050500D01*
X135564773Y-66050499D01*
X135689069Y-66014004D01*
X135798049Y-65943967D01*
X135882882Y-65846063D01*
X135936697Y-65728226D01*
X135955133Y-65600000D01*
X137544867Y-65600000D01*
X137563302Y-65728225D01*
X137571449Y-65746063D01*
X137617118Y-65846063D01*
X137701951Y-65943967D01*
X137810931Y-66014004D01*
X137935225Y-66050499D01*
X137935227Y-66050500D01*
X137935228Y-66050500D01*
X138064773Y-66050500D01*
X138064773Y-66050499D01*
X138189069Y-66014004D01*
X138298049Y-65943967D01*
X138382882Y-65846063D01*
X138436697Y-65728226D01*
X138455133Y-65600000D01*
X140044867Y-65600000D01*
X140063302Y-65728225D01*
X140071449Y-65746063D01*
X140117118Y-65846063D01*
X140201951Y-65943967D01*
X140310931Y-66014004D01*
X140435225Y-66050499D01*
X140435227Y-66050500D01*
X140435228Y-66050500D01*
X140564773Y-66050500D01*
X140564773Y-66050499D01*
X140689069Y-66014004D01*
X140798049Y-65943967D01*
X140882882Y-65846063D01*
X140936697Y-65728226D01*
X140955133Y-65600000D01*
X142544867Y-65600000D01*
X142563302Y-65728225D01*
X142571449Y-65746063D01*
X142617118Y-65846063D01*
X142701951Y-65943967D01*
X142810931Y-66014004D01*
X142935225Y-66050499D01*
X142935227Y-66050500D01*
X142935228Y-66050500D01*
X143064773Y-66050500D01*
X143064773Y-66050499D01*
X143189069Y-66014004D01*
X143298049Y-65943967D01*
X143382882Y-65846063D01*
X143436697Y-65728226D01*
X143455133Y-65600000D01*
X145144867Y-65600000D01*
X145163302Y-65728225D01*
X145171449Y-65746063D01*
X145217118Y-65846063D01*
X145301951Y-65943967D01*
X145410931Y-66014004D01*
X145535225Y-66050499D01*
X145535227Y-66050500D01*
X145535228Y-66050500D01*
X145664773Y-66050500D01*
X145664773Y-66050499D01*
X145789069Y-66014004D01*
X145898049Y-65943967D01*
X145982882Y-65846063D01*
X146036697Y-65728226D01*
X146055133Y-65600000D01*
X147644867Y-65600000D01*
X147663302Y-65728225D01*
X147671449Y-65746063D01*
X147717118Y-65846063D01*
X147801951Y-65943967D01*
X147910931Y-66014004D01*
X148035225Y-66050499D01*
X148035227Y-66050500D01*
X148035228Y-66050500D01*
X148164773Y-66050500D01*
X148164773Y-66050499D01*
X148289069Y-66014004D01*
X148398049Y-65943967D01*
X148482882Y-65846063D01*
X148536697Y-65728226D01*
X148555133Y-65600000D01*
X150244867Y-65600000D01*
X150263302Y-65728225D01*
X150271449Y-65746063D01*
X150317118Y-65846063D01*
X150401951Y-65943967D01*
X150510931Y-66014004D01*
X150635225Y-66050499D01*
X150635227Y-66050500D01*
X150635228Y-66050500D01*
X150764773Y-66050500D01*
X150764773Y-66050499D01*
X150889069Y-66014004D01*
X150998049Y-65943967D01*
X151082882Y-65846063D01*
X151136697Y-65728226D01*
X151155133Y-65600000D01*
X152744867Y-65600000D01*
X152763302Y-65728225D01*
X152771449Y-65746063D01*
X152817118Y-65846063D01*
X152901951Y-65943967D01*
X153010931Y-66014004D01*
X153135225Y-66050499D01*
X153135227Y-66050500D01*
X153135228Y-66050500D01*
X153264773Y-66050500D01*
X153264773Y-66050499D01*
X153389069Y-66014004D01*
X153498049Y-65943967D01*
X153582882Y-65846063D01*
X153636697Y-65728226D01*
X153655133Y-65600000D01*
X155344867Y-65600000D01*
X155363302Y-65728225D01*
X155371449Y-65746063D01*
X155417118Y-65846063D01*
X155501951Y-65943967D01*
X155610931Y-66014004D01*
X155735225Y-66050499D01*
X155735227Y-66050500D01*
X155735228Y-66050500D01*
X155864773Y-66050500D01*
X155864773Y-66050499D01*
X155989069Y-66014004D01*
X156098049Y-65943967D01*
X156182882Y-65846063D01*
X156236697Y-65728226D01*
X156255133Y-65600000D01*
X157844867Y-65600000D01*
X157863302Y-65728225D01*
X157871449Y-65746063D01*
X157917118Y-65846063D01*
X158001951Y-65943967D01*
X158110931Y-66014004D01*
X158235225Y-66050499D01*
X158235227Y-66050500D01*
X158235228Y-66050500D01*
X158364773Y-66050500D01*
X158364773Y-66050499D01*
X158489069Y-66014004D01*
X158598049Y-65943967D01*
X158682882Y-65846063D01*
X158736697Y-65728226D01*
X158755133Y-65600000D01*
X160344867Y-65600000D01*
X160363302Y-65728225D01*
X160371449Y-65746063D01*
X160417118Y-65846063D01*
X160501951Y-65943967D01*
X160610931Y-66014004D01*
X160735225Y-66050499D01*
X160735227Y-66050500D01*
X160735228Y-66050500D01*
X160864773Y-66050500D01*
X160864773Y-66050499D01*
X160989069Y-66014004D01*
X161098049Y-65943967D01*
X161182882Y-65846063D01*
X161236697Y-65728226D01*
X161255133Y-65600000D01*
X162944867Y-65600000D01*
X162963302Y-65728225D01*
X162971449Y-65746063D01*
X163017118Y-65846063D01*
X163101951Y-65943967D01*
X163210931Y-66014004D01*
X163335225Y-66050499D01*
X163335227Y-66050500D01*
X163335228Y-66050500D01*
X163464773Y-66050500D01*
X163464773Y-66050499D01*
X163589069Y-66014004D01*
X163698049Y-65943967D01*
X163782882Y-65846063D01*
X163836697Y-65728226D01*
X163855133Y-65600000D01*
X165444867Y-65600000D01*
X165463302Y-65728225D01*
X165471449Y-65746063D01*
X165517118Y-65846063D01*
X165601951Y-65943967D01*
X165710931Y-66014004D01*
X165835225Y-66050499D01*
X165835227Y-66050500D01*
X165835228Y-66050500D01*
X165964773Y-66050500D01*
X165964773Y-66050499D01*
X166089069Y-66014004D01*
X166198049Y-65943967D01*
X166282882Y-65846063D01*
X166336697Y-65728226D01*
X166355133Y-65600000D01*
X166340755Y-65500000D01*
X174244867Y-65500000D01*
X174263302Y-65628225D01*
X174308972Y-65728226D01*
X174317118Y-65746063D01*
X174401951Y-65843967D01*
X174510931Y-65914004D01*
X174635225Y-65950499D01*
X174635227Y-65950500D01*
X174635228Y-65950500D01*
X174764773Y-65950500D01*
X174764773Y-65950499D01*
X174889069Y-65914004D01*
X174998049Y-65843967D01*
X175082882Y-65746063D01*
X175136697Y-65628226D01*
X175155133Y-65500000D01*
X175136697Y-65371774D01*
X175082882Y-65253937D01*
X174998049Y-65156033D01*
X174889069Y-65085996D01*
X174889065Y-65085994D01*
X174889064Y-65085994D01*
X174764774Y-65049500D01*
X174764772Y-65049500D01*
X174635228Y-65049500D01*
X174635226Y-65049500D01*
X174510935Y-65085994D01*
X174510932Y-65085995D01*
X174510931Y-65085996D01*
X174459677Y-65118934D01*
X174401950Y-65156033D01*
X174317118Y-65253937D01*
X174317117Y-65253938D01*
X174263302Y-65371774D01*
X174244867Y-65500000D01*
X166340755Y-65500000D01*
X166336697Y-65471774D01*
X166282882Y-65353937D01*
X166198049Y-65256033D01*
X166089069Y-65185996D01*
X166089065Y-65185994D01*
X166089064Y-65185994D01*
X165964774Y-65149500D01*
X165964772Y-65149500D01*
X165835228Y-65149500D01*
X165835226Y-65149500D01*
X165710935Y-65185994D01*
X165710932Y-65185995D01*
X165710931Y-65185996D01*
X165659677Y-65218934D01*
X165601950Y-65256033D01*
X165517118Y-65353937D01*
X165517117Y-65353938D01*
X165463302Y-65471774D01*
X165444867Y-65600000D01*
X163855133Y-65600000D01*
X163836697Y-65471774D01*
X163782882Y-65353937D01*
X163698049Y-65256033D01*
X163589069Y-65185996D01*
X163589065Y-65185994D01*
X163589064Y-65185994D01*
X163464774Y-65149500D01*
X163464772Y-65149500D01*
X163335228Y-65149500D01*
X163335226Y-65149500D01*
X163210935Y-65185994D01*
X163210932Y-65185995D01*
X163210931Y-65185996D01*
X163159677Y-65218934D01*
X163101950Y-65256033D01*
X163017118Y-65353937D01*
X163017117Y-65353938D01*
X162963302Y-65471774D01*
X162944867Y-65600000D01*
X161255133Y-65600000D01*
X161236697Y-65471774D01*
X161182882Y-65353937D01*
X161098049Y-65256033D01*
X160989069Y-65185996D01*
X160989065Y-65185994D01*
X160989064Y-65185994D01*
X160864774Y-65149500D01*
X160864772Y-65149500D01*
X160735228Y-65149500D01*
X160735226Y-65149500D01*
X160610935Y-65185994D01*
X160610932Y-65185995D01*
X160610931Y-65185996D01*
X160559677Y-65218934D01*
X160501950Y-65256033D01*
X160417118Y-65353937D01*
X160417117Y-65353938D01*
X160363302Y-65471774D01*
X160344867Y-65600000D01*
X158755133Y-65600000D01*
X158736697Y-65471774D01*
X158682882Y-65353937D01*
X158598049Y-65256033D01*
X158489069Y-65185996D01*
X158489065Y-65185994D01*
X158489064Y-65185994D01*
X158364774Y-65149500D01*
X158364772Y-65149500D01*
X158235228Y-65149500D01*
X158235226Y-65149500D01*
X158110935Y-65185994D01*
X158110932Y-65185995D01*
X158110931Y-65185996D01*
X158059677Y-65218934D01*
X158001950Y-65256033D01*
X157917118Y-65353937D01*
X157917117Y-65353938D01*
X157863302Y-65471774D01*
X157844867Y-65600000D01*
X156255133Y-65600000D01*
X156236697Y-65471774D01*
X156182882Y-65353937D01*
X156098049Y-65256033D01*
X155989069Y-65185996D01*
X155989065Y-65185994D01*
X155989064Y-65185994D01*
X155864774Y-65149500D01*
X155864772Y-65149500D01*
X155735228Y-65149500D01*
X155735226Y-65149500D01*
X155610935Y-65185994D01*
X155610932Y-65185995D01*
X155610931Y-65185996D01*
X155559677Y-65218934D01*
X155501950Y-65256033D01*
X155417118Y-65353937D01*
X155417117Y-65353938D01*
X155363302Y-65471774D01*
X155344867Y-65600000D01*
X153655133Y-65600000D01*
X153636697Y-65471774D01*
X153582882Y-65353937D01*
X153498049Y-65256033D01*
X153389069Y-65185996D01*
X153389065Y-65185994D01*
X153389064Y-65185994D01*
X153264774Y-65149500D01*
X153264772Y-65149500D01*
X153135228Y-65149500D01*
X153135226Y-65149500D01*
X153010935Y-65185994D01*
X153010932Y-65185995D01*
X153010931Y-65185996D01*
X152959677Y-65218934D01*
X152901950Y-65256033D01*
X152817118Y-65353937D01*
X152817117Y-65353938D01*
X152763302Y-65471774D01*
X152744867Y-65600000D01*
X151155133Y-65600000D01*
X151136697Y-65471774D01*
X151082882Y-65353937D01*
X150998049Y-65256033D01*
X150889069Y-65185996D01*
X150889065Y-65185994D01*
X150889064Y-65185994D01*
X150764774Y-65149500D01*
X150764772Y-65149500D01*
X150635228Y-65149500D01*
X150635226Y-65149500D01*
X150510935Y-65185994D01*
X150510932Y-65185995D01*
X150510931Y-65185996D01*
X150459677Y-65218934D01*
X150401950Y-65256033D01*
X150317118Y-65353937D01*
X150317117Y-65353938D01*
X150263302Y-65471774D01*
X150244867Y-65600000D01*
X148555133Y-65600000D01*
X148536697Y-65471774D01*
X148482882Y-65353937D01*
X148398049Y-65256033D01*
X148289069Y-65185996D01*
X148289065Y-65185994D01*
X148289064Y-65185994D01*
X148164774Y-65149500D01*
X148164772Y-65149500D01*
X148035228Y-65149500D01*
X148035226Y-65149500D01*
X147910935Y-65185994D01*
X147910932Y-65185995D01*
X147910931Y-65185996D01*
X147859677Y-65218934D01*
X147801950Y-65256033D01*
X147717118Y-65353937D01*
X147717117Y-65353938D01*
X147663302Y-65471774D01*
X147644867Y-65600000D01*
X146055133Y-65600000D01*
X146036697Y-65471774D01*
X145982882Y-65353937D01*
X145898049Y-65256033D01*
X145789069Y-65185996D01*
X145789065Y-65185994D01*
X145789064Y-65185994D01*
X145664774Y-65149500D01*
X145664772Y-65149500D01*
X145535228Y-65149500D01*
X145535226Y-65149500D01*
X145410935Y-65185994D01*
X145410932Y-65185995D01*
X145410931Y-65185996D01*
X145359677Y-65218934D01*
X145301950Y-65256033D01*
X145217118Y-65353937D01*
X145217117Y-65353938D01*
X145163302Y-65471774D01*
X145144867Y-65600000D01*
X143455133Y-65600000D01*
X143436697Y-65471774D01*
X143382882Y-65353937D01*
X143298049Y-65256033D01*
X143189069Y-65185996D01*
X143189065Y-65185994D01*
X143189064Y-65185994D01*
X143064774Y-65149500D01*
X143064772Y-65149500D01*
X142935228Y-65149500D01*
X142935226Y-65149500D01*
X142810935Y-65185994D01*
X142810932Y-65185995D01*
X142810931Y-65185996D01*
X142759677Y-65218934D01*
X142701950Y-65256033D01*
X142617118Y-65353937D01*
X142617117Y-65353938D01*
X142563302Y-65471774D01*
X142544867Y-65600000D01*
X140955133Y-65600000D01*
X140936697Y-65471774D01*
X140882882Y-65353937D01*
X140798049Y-65256033D01*
X140689069Y-65185996D01*
X140689065Y-65185994D01*
X140689064Y-65185994D01*
X140564774Y-65149500D01*
X140564772Y-65149500D01*
X140435228Y-65149500D01*
X140435226Y-65149500D01*
X140310935Y-65185994D01*
X140310932Y-65185995D01*
X140310931Y-65185996D01*
X140259677Y-65218934D01*
X140201950Y-65256033D01*
X140117118Y-65353937D01*
X140117117Y-65353938D01*
X140063302Y-65471774D01*
X140044867Y-65600000D01*
X138455133Y-65600000D01*
X138436697Y-65471774D01*
X138382882Y-65353937D01*
X138298049Y-65256033D01*
X138189069Y-65185996D01*
X138189065Y-65185994D01*
X138189064Y-65185994D01*
X138064774Y-65149500D01*
X138064772Y-65149500D01*
X137935228Y-65149500D01*
X137935226Y-65149500D01*
X137810935Y-65185994D01*
X137810932Y-65185995D01*
X137810931Y-65185996D01*
X137759677Y-65218934D01*
X137701950Y-65256033D01*
X137617118Y-65353937D01*
X137617117Y-65353938D01*
X137563302Y-65471774D01*
X137544867Y-65600000D01*
X135955133Y-65600000D01*
X135936697Y-65471774D01*
X135882882Y-65353937D01*
X135798049Y-65256033D01*
X135689069Y-65185996D01*
X135689065Y-65185994D01*
X135689064Y-65185994D01*
X135564774Y-65149500D01*
X135564772Y-65149500D01*
X135435228Y-65149500D01*
X135435226Y-65149500D01*
X135310935Y-65185994D01*
X135310932Y-65185995D01*
X135310931Y-65185996D01*
X135259677Y-65218934D01*
X135201950Y-65256033D01*
X135117118Y-65353937D01*
X135117117Y-65353938D01*
X135063302Y-65471774D01*
X135044867Y-65600000D01*
X133355133Y-65600000D01*
X133336697Y-65471774D01*
X133282882Y-65353937D01*
X133198049Y-65256033D01*
X133089069Y-65185996D01*
X133089065Y-65185994D01*
X133089064Y-65185994D01*
X132964774Y-65149500D01*
X132964772Y-65149500D01*
X132835228Y-65149500D01*
X132835226Y-65149500D01*
X132710935Y-65185994D01*
X132710932Y-65185995D01*
X132710931Y-65185996D01*
X132659677Y-65218934D01*
X132601950Y-65256033D01*
X132517118Y-65353937D01*
X132517117Y-65353938D01*
X132463302Y-65471774D01*
X132444867Y-65600000D01*
X130855133Y-65600000D01*
X130836697Y-65471774D01*
X130782882Y-65353937D01*
X130698049Y-65256033D01*
X130589069Y-65185996D01*
X130589065Y-65185994D01*
X130589064Y-65185994D01*
X130464774Y-65149500D01*
X130464772Y-65149500D01*
X130335228Y-65149500D01*
X130335226Y-65149500D01*
X130210935Y-65185994D01*
X130210932Y-65185995D01*
X130210931Y-65185996D01*
X130159677Y-65218934D01*
X130101950Y-65256033D01*
X130017118Y-65353937D01*
X130017117Y-65353938D01*
X129963302Y-65471774D01*
X129944867Y-65600000D01*
X119240500Y-65600000D01*
X119240500Y-64020000D01*
X129539898Y-64020000D01*
X129558256Y-64194667D01*
X129558257Y-64194670D01*
X129612529Y-64361701D01*
X129700340Y-64513796D01*
X129700341Y-64513798D01*
X129700343Y-64513800D01*
X129817862Y-64644317D01*
X129921096Y-64719321D01*
X129959950Y-64747551D01*
X130021540Y-64774971D01*
X130120394Y-64818984D01*
X130292185Y-64855500D01*
X130467815Y-64855500D01*
X130639606Y-64818984D01*
X130800051Y-64747550D01*
X130942138Y-64644317D01*
X131059657Y-64513800D01*
X131147471Y-64361700D01*
X131201744Y-64194667D01*
X131220102Y-64020000D01*
X132079898Y-64020000D01*
X132098256Y-64194667D01*
X132098257Y-64194670D01*
X132152529Y-64361701D01*
X132240340Y-64513796D01*
X132240341Y-64513798D01*
X132240343Y-64513800D01*
X132357862Y-64644317D01*
X132461096Y-64719321D01*
X132499950Y-64747551D01*
X132561540Y-64774971D01*
X132660394Y-64818984D01*
X132832185Y-64855500D01*
X133007815Y-64855500D01*
X133179606Y-64818984D01*
X133340051Y-64747550D01*
X133482138Y-64644317D01*
X133599657Y-64513800D01*
X133687471Y-64361700D01*
X133741744Y-64194667D01*
X133760102Y-64020000D01*
X134619898Y-64020000D01*
X134638256Y-64194667D01*
X134638257Y-64194670D01*
X134692529Y-64361701D01*
X134780340Y-64513796D01*
X134780341Y-64513798D01*
X134780343Y-64513800D01*
X134897862Y-64644317D01*
X135001096Y-64719321D01*
X135039950Y-64747551D01*
X135101540Y-64774971D01*
X135200394Y-64818984D01*
X135372185Y-64855500D01*
X135547815Y-64855500D01*
X135719606Y-64818984D01*
X135880051Y-64747550D01*
X136022138Y-64644317D01*
X136139657Y-64513800D01*
X136227471Y-64361700D01*
X136281744Y-64194667D01*
X136300102Y-64020000D01*
X137159898Y-64020000D01*
X137178256Y-64194667D01*
X137178257Y-64194670D01*
X137232529Y-64361701D01*
X137320340Y-64513796D01*
X137320341Y-64513798D01*
X137320343Y-64513800D01*
X137437862Y-64644317D01*
X137541096Y-64719321D01*
X137579950Y-64747551D01*
X137641540Y-64774971D01*
X137740394Y-64818984D01*
X137912185Y-64855500D01*
X138087815Y-64855500D01*
X138259606Y-64818984D01*
X138420051Y-64747550D01*
X138562138Y-64644317D01*
X138679657Y-64513800D01*
X138767471Y-64361700D01*
X138821744Y-64194667D01*
X138840102Y-64020000D01*
X139699898Y-64020000D01*
X139718256Y-64194667D01*
X139718257Y-64194670D01*
X139772529Y-64361701D01*
X139860340Y-64513796D01*
X139860341Y-64513798D01*
X139860343Y-64513800D01*
X139977862Y-64644317D01*
X140081096Y-64719321D01*
X140119950Y-64747551D01*
X140181540Y-64774971D01*
X140280394Y-64818984D01*
X140452185Y-64855500D01*
X140627815Y-64855500D01*
X140799606Y-64818984D01*
X140960051Y-64747550D01*
X141102138Y-64644317D01*
X141219657Y-64513800D01*
X141307471Y-64361700D01*
X141361744Y-64194667D01*
X141380102Y-64020000D01*
X142239898Y-64020000D01*
X142258256Y-64194667D01*
X142258257Y-64194670D01*
X142312529Y-64361701D01*
X142400340Y-64513796D01*
X142400341Y-64513798D01*
X142400343Y-64513800D01*
X142517862Y-64644317D01*
X142621096Y-64719321D01*
X142659950Y-64747551D01*
X142721540Y-64774971D01*
X142820394Y-64818984D01*
X142992185Y-64855500D01*
X143167815Y-64855500D01*
X143339606Y-64818984D01*
X143500051Y-64747550D01*
X143642138Y-64644317D01*
X143759657Y-64513800D01*
X143847471Y-64361700D01*
X143901744Y-64194667D01*
X143920102Y-64020000D01*
X144779898Y-64020000D01*
X144798256Y-64194667D01*
X144798257Y-64194670D01*
X144852529Y-64361701D01*
X144940340Y-64513796D01*
X144940341Y-64513798D01*
X144940343Y-64513800D01*
X145057862Y-64644317D01*
X145161096Y-64719321D01*
X145199950Y-64747551D01*
X145261540Y-64774971D01*
X145360394Y-64818984D01*
X145532185Y-64855500D01*
X145707815Y-64855500D01*
X145879606Y-64818984D01*
X146040051Y-64747550D01*
X146182138Y-64644317D01*
X146299657Y-64513800D01*
X146387471Y-64361700D01*
X146441744Y-64194667D01*
X146460102Y-64020000D01*
X147319898Y-64020000D01*
X147338256Y-64194667D01*
X147338257Y-64194670D01*
X147392529Y-64361701D01*
X147480340Y-64513796D01*
X147480341Y-64513798D01*
X147480343Y-64513800D01*
X147597862Y-64644317D01*
X147701096Y-64719321D01*
X147739950Y-64747551D01*
X147801540Y-64774971D01*
X147900394Y-64818984D01*
X148072185Y-64855500D01*
X148247815Y-64855500D01*
X148419606Y-64818984D01*
X148580051Y-64747550D01*
X148722138Y-64644317D01*
X148839657Y-64513800D01*
X148927471Y-64361700D01*
X148981744Y-64194667D01*
X149000102Y-64020000D01*
X149859898Y-64020000D01*
X149878256Y-64194667D01*
X149878257Y-64194670D01*
X149932529Y-64361701D01*
X150020340Y-64513796D01*
X150020341Y-64513798D01*
X150020343Y-64513800D01*
X150137862Y-64644317D01*
X150241096Y-64719321D01*
X150279950Y-64747551D01*
X150341540Y-64774971D01*
X150440394Y-64818984D01*
X150612185Y-64855500D01*
X150787815Y-64855500D01*
X150959606Y-64818984D01*
X151120051Y-64747550D01*
X151262138Y-64644317D01*
X151379657Y-64513800D01*
X151467471Y-64361700D01*
X151521744Y-64194667D01*
X151540102Y-64020000D01*
X152399898Y-64020000D01*
X152418256Y-64194667D01*
X152418257Y-64194670D01*
X152472529Y-64361701D01*
X152560340Y-64513796D01*
X152560341Y-64513798D01*
X152560343Y-64513800D01*
X152677862Y-64644317D01*
X152781096Y-64719321D01*
X152819950Y-64747551D01*
X152881540Y-64774971D01*
X152980394Y-64818984D01*
X153152185Y-64855500D01*
X153327815Y-64855500D01*
X153499606Y-64818984D01*
X153660051Y-64747550D01*
X153802138Y-64644317D01*
X153919657Y-64513800D01*
X154007471Y-64361700D01*
X154061744Y-64194667D01*
X154080102Y-64020000D01*
X154939898Y-64020000D01*
X154958256Y-64194667D01*
X154958257Y-64194670D01*
X155012529Y-64361701D01*
X155100340Y-64513796D01*
X155100341Y-64513798D01*
X155100343Y-64513800D01*
X155217862Y-64644317D01*
X155321096Y-64719321D01*
X155359950Y-64747551D01*
X155421540Y-64774971D01*
X155520394Y-64818984D01*
X155692185Y-64855500D01*
X155867815Y-64855500D01*
X156039606Y-64818984D01*
X156200051Y-64747550D01*
X156342138Y-64644317D01*
X156459657Y-64513800D01*
X156547471Y-64361700D01*
X156601744Y-64194667D01*
X156620102Y-64020000D01*
X157479898Y-64020000D01*
X157498256Y-64194667D01*
X157498257Y-64194670D01*
X157552529Y-64361701D01*
X157640340Y-64513796D01*
X157640341Y-64513798D01*
X157640343Y-64513800D01*
X157757862Y-64644317D01*
X157861096Y-64719321D01*
X157899950Y-64747551D01*
X157961540Y-64774971D01*
X158060394Y-64818984D01*
X158232185Y-64855500D01*
X158407815Y-64855500D01*
X158579606Y-64818984D01*
X158740051Y-64747550D01*
X158882138Y-64644317D01*
X158999657Y-64513800D01*
X159087471Y-64361700D01*
X159141744Y-64194667D01*
X159160102Y-64020000D01*
X160019898Y-64020000D01*
X160038256Y-64194667D01*
X160038257Y-64194670D01*
X160092529Y-64361701D01*
X160180340Y-64513796D01*
X160180341Y-64513798D01*
X160180343Y-64513800D01*
X160297862Y-64644317D01*
X160401096Y-64719321D01*
X160439950Y-64747551D01*
X160501540Y-64774971D01*
X160600394Y-64818984D01*
X160772185Y-64855500D01*
X160947815Y-64855500D01*
X161119606Y-64818984D01*
X161280051Y-64747550D01*
X161422138Y-64644317D01*
X161539657Y-64513800D01*
X161627471Y-64361700D01*
X161681744Y-64194667D01*
X161700102Y-64020000D01*
X162559898Y-64020000D01*
X162578256Y-64194667D01*
X162578257Y-64194670D01*
X162632529Y-64361701D01*
X162720340Y-64513796D01*
X162720341Y-64513798D01*
X162720343Y-64513800D01*
X162837862Y-64644317D01*
X162941096Y-64719321D01*
X162979950Y-64747551D01*
X163041540Y-64774971D01*
X163140394Y-64818984D01*
X163312185Y-64855500D01*
X163487815Y-64855500D01*
X163659606Y-64818984D01*
X163820051Y-64747550D01*
X163962138Y-64644317D01*
X164079657Y-64513800D01*
X164167471Y-64361700D01*
X164221744Y-64194667D01*
X164240102Y-64020000D01*
X165099898Y-64020000D01*
X165118256Y-64194667D01*
X165118257Y-64194670D01*
X165172529Y-64361701D01*
X165260340Y-64513796D01*
X165260341Y-64513798D01*
X165260343Y-64513800D01*
X165377862Y-64644317D01*
X165481096Y-64719321D01*
X165519950Y-64747551D01*
X165581540Y-64774971D01*
X165680394Y-64818984D01*
X165852185Y-64855500D01*
X166027815Y-64855500D01*
X166199606Y-64818984D01*
X166360051Y-64747550D01*
X166502138Y-64644317D01*
X166619657Y-64513800D01*
X166707471Y-64361700D01*
X166761744Y-64194667D01*
X166780102Y-64020000D01*
X167639898Y-64020000D01*
X167658256Y-64194667D01*
X167658257Y-64194670D01*
X167712529Y-64361701D01*
X167800340Y-64513796D01*
X167800341Y-64513798D01*
X167800343Y-64513800D01*
X167917862Y-64644317D01*
X168021096Y-64719321D01*
X168059950Y-64747551D01*
X168121540Y-64774971D01*
X168220394Y-64818984D01*
X168392185Y-64855500D01*
X168567815Y-64855500D01*
X168739606Y-64818984D01*
X168900051Y-64747550D01*
X169042138Y-64644317D01*
X169159657Y-64513800D01*
X169247471Y-64361700D01*
X169301744Y-64194667D01*
X169320102Y-64020000D01*
X169301744Y-63845333D01*
X169247471Y-63678300D01*
X169159657Y-63526200D01*
X169042138Y-63395683D01*
X168977757Y-63348907D01*
X168900049Y-63292448D01*
X168776868Y-63237606D01*
X168739606Y-63221016D01*
X168739604Y-63221015D01*
X168739603Y-63221015D01*
X168567815Y-63184500D01*
X168392185Y-63184500D01*
X168220396Y-63221015D01*
X168059950Y-63292448D01*
X167917863Y-63395682D01*
X167800340Y-63526203D01*
X167712529Y-63678298D01*
X167658257Y-63845329D01*
X167658256Y-63845333D01*
X167639898Y-64020000D01*
X166780102Y-64020000D01*
X166761744Y-63845333D01*
X166707471Y-63678300D01*
X166619657Y-63526200D01*
X166502138Y-63395683D01*
X166437757Y-63348907D01*
X166360049Y-63292448D01*
X166236868Y-63237606D01*
X166199606Y-63221016D01*
X166199604Y-63221015D01*
X166199603Y-63221015D01*
X166027815Y-63184500D01*
X165852185Y-63184500D01*
X165680396Y-63221015D01*
X165519950Y-63292448D01*
X165377863Y-63395682D01*
X165260340Y-63526203D01*
X165172529Y-63678298D01*
X165118257Y-63845329D01*
X165118256Y-63845333D01*
X165099898Y-64020000D01*
X164240102Y-64020000D01*
X164221744Y-63845333D01*
X164167471Y-63678300D01*
X164079657Y-63526200D01*
X163962138Y-63395683D01*
X163897757Y-63348907D01*
X163820049Y-63292448D01*
X163696868Y-63237606D01*
X163659606Y-63221016D01*
X163659604Y-63221015D01*
X163659603Y-63221015D01*
X163487815Y-63184500D01*
X163312185Y-63184500D01*
X163140396Y-63221015D01*
X162979950Y-63292448D01*
X162837863Y-63395682D01*
X162720340Y-63526203D01*
X162632529Y-63678298D01*
X162578257Y-63845329D01*
X162578256Y-63845333D01*
X162559898Y-64020000D01*
X161700102Y-64020000D01*
X161681744Y-63845333D01*
X161627471Y-63678300D01*
X161539657Y-63526200D01*
X161422138Y-63395683D01*
X161357757Y-63348907D01*
X161280049Y-63292448D01*
X161156868Y-63237606D01*
X161119606Y-63221016D01*
X161119604Y-63221015D01*
X161119603Y-63221015D01*
X160947815Y-63184500D01*
X160772185Y-63184500D01*
X160600396Y-63221015D01*
X160439950Y-63292448D01*
X160297863Y-63395682D01*
X160180340Y-63526203D01*
X160092529Y-63678298D01*
X160038257Y-63845329D01*
X160038256Y-63845333D01*
X160019898Y-64020000D01*
X159160102Y-64020000D01*
X159141744Y-63845333D01*
X159087471Y-63678300D01*
X158999657Y-63526200D01*
X158882138Y-63395683D01*
X158817757Y-63348907D01*
X158740049Y-63292448D01*
X158616868Y-63237606D01*
X158579606Y-63221016D01*
X158579604Y-63221015D01*
X158579603Y-63221015D01*
X158407815Y-63184500D01*
X158232185Y-63184500D01*
X158060396Y-63221015D01*
X157899950Y-63292448D01*
X157757863Y-63395682D01*
X157640340Y-63526203D01*
X157552529Y-63678298D01*
X157498257Y-63845329D01*
X157498256Y-63845333D01*
X157479898Y-64020000D01*
X156620102Y-64020000D01*
X156601744Y-63845333D01*
X156547471Y-63678300D01*
X156459657Y-63526200D01*
X156342138Y-63395683D01*
X156277757Y-63348907D01*
X156200049Y-63292448D01*
X156076868Y-63237606D01*
X156039606Y-63221016D01*
X156039604Y-63221015D01*
X156039603Y-63221015D01*
X155867815Y-63184500D01*
X155692185Y-63184500D01*
X155520396Y-63221015D01*
X155359950Y-63292448D01*
X155217863Y-63395682D01*
X155100340Y-63526203D01*
X155012529Y-63678298D01*
X154958257Y-63845329D01*
X154958256Y-63845333D01*
X154939898Y-64020000D01*
X154080102Y-64020000D01*
X154061744Y-63845333D01*
X154007471Y-63678300D01*
X153919657Y-63526200D01*
X153802138Y-63395683D01*
X153737757Y-63348907D01*
X153660049Y-63292448D01*
X153536868Y-63237606D01*
X153499606Y-63221016D01*
X153499604Y-63221015D01*
X153499603Y-63221015D01*
X153327815Y-63184500D01*
X153152185Y-63184500D01*
X152980396Y-63221015D01*
X152819950Y-63292448D01*
X152677863Y-63395682D01*
X152560340Y-63526203D01*
X152472529Y-63678298D01*
X152418257Y-63845329D01*
X152418256Y-63845333D01*
X152399898Y-64020000D01*
X151540102Y-64020000D01*
X151521744Y-63845333D01*
X151467471Y-63678300D01*
X151379657Y-63526200D01*
X151262138Y-63395683D01*
X151197757Y-63348907D01*
X151120049Y-63292448D01*
X150996868Y-63237606D01*
X150959606Y-63221016D01*
X150959604Y-63221015D01*
X150959603Y-63221015D01*
X150787815Y-63184500D01*
X150612185Y-63184500D01*
X150440396Y-63221015D01*
X150279950Y-63292448D01*
X150137863Y-63395682D01*
X150020340Y-63526203D01*
X149932529Y-63678298D01*
X149878257Y-63845329D01*
X149878256Y-63845333D01*
X149859898Y-64020000D01*
X149000102Y-64020000D01*
X148981744Y-63845333D01*
X148927471Y-63678300D01*
X148839657Y-63526200D01*
X148722138Y-63395683D01*
X148657757Y-63348907D01*
X148580049Y-63292448D01*
X148456868Y-63237606D01*
X148419606Y-63221016D01*
X148419604Y-63221015D01*
X148419603Y-63221015D01*
X148247815Y-63184500D01*
X148072185Y-63184500D01*
X147900396Y-63221015D01*
X147739950Y-63292448D01*
X147597863Y-63395682D01*
X147480340Y-63526203D01*
X147392529Y-63678298D01*
X147338257Y-63845329D01*
X147338256Y-63845333D01*
X147319898Y-64020000D01*
X146460102Y-64020000D01*
X146441744Y-63845333D01*
X146387471Y-63678300D01*
X146299657Y-63526200D01*
X146182138Y-63395683D01*
X146117757Y-63348907D01*
X146040049Y-63292448D01*
X145916868Y-63237606D01*
X145879606Y-63221016D01*
X145879604Y-63221015D01*
X145879603Y-63221015D01*
X145707815Y-63184500D01*
X145532185Y-63184500D01*
X145360396Y-63221015D01*
X145199950Y-63292448D01*
X145057863Y-63395682D01*
X144940340Y-63526203D01*
X144852529Y-63678298D01*
X144798257Y-63845329D01*
X144798256Y-63845333D01*
X144779898Y-64020000D01*
X143920102Y-64020000D01*
X143901744Y-63845333D01*
X143847471Y-63678300D01*
X143759657Y-63526200D01*
X143642138Y-63395683D01*
X143577757Y-63348907D01*
X143500049Y-63292448D01*
X143376868Y-63237606D01*
X143339606Y-63221016D01*
X143339604Y-63221015D01*
X143339603Y-63221015D01*
X143167815Y-63184500D01*
X142992185Y-63184500D01*
X142820396Y-63221015D01*
X142659950Y-63292448D01*
X142517863Y-63395682D01*
X142400340Y-63526203D01*
X142312529Y-63678298D01*
X142258257Y-63845329D01*
X142258256Y-63845333D01*
X142239898Y-64020000D01*
X141380102Y-64020000D01*
X141361744Y-63845333D01*
X141307471Y-63678300D01*
X141219657Y-63526200D01*
X141102138Y-63395683D01*
X141037757Y-63348907D01*
X140960049Y-63292448D01*
X140836868Y-63237606D01*
X140799606Y-63221016D01*
X140799604Y-63221015D01*
X140799603Y-63221015D01*
X140627815Y-63184500D01*
X140452185Y-63184500D01*
X140280396Y-63221015D01*
X140119950Y-63292448D01*
X139977863Y-63395682D01*
X139860340Y-63526203D01*
X139772529Y-63678298D01*
X139718257Y-63845329D01*
X139718256Y-63845333D01*
X139699898Y-64020000D01*
X138840102Y-64020000D01*
X138821744Y-63845333D01*
X138767471Y-63678300D01*
X138679657Y-63526200D01*
X138562138Y-63395683D01*
X138497757Y-63348907D01*
X138420049Y-63292448D01*
X138296868Y-63237606D01*
X138259606Y-63221016D01*
X138259604Y-63221015D01*
X138259603Y-63221015D01*
X138087815Y-63184500D01*
X137912185Y-63184500D01*
X137740396Y-63221015D01*
X137579950Y-63292448D01*
X137437863Y-63395682D01*
X137320340Y-63526203D01*
X137232529Y-63678298D01*
X137178257Y-63845329D01*
X137178256Y-63845333D01*
X137159898Y-64020000D01*
X136300102Y-64020000D01*
X136281744Y-63845333D01*
X136227471Y-63678300D01*
X136139657Y-63526200D01*
X136022138Y-63395683D01*
X135957757Y-63348907D01*
X135880049Y-63292448D01*
X135756868Y-63237606D01*
X135719606Y-63221016D01*
X135719604Y-63221015D01*
X135719603Y-63221015D01*
X135547815Y-63184500D01*
X135372185Y-63184500D01*
X135200396Y-63221015D01*
X135039950Y-63292448D01*
X134897863Y-63395682D01*
X134780340Y-63526203D01*
X134692529Y-63678298D01*
X134638257Y-63845329D01*
X134638256Y-63845333D01*
X134619898Y-64020000D01*
X133760102Y-64020000D01*
X133741744Y-63845333D01*
X133687471Y-63678300D01*
X133599657Y-63526200D01*
X133482138Y-63395683D01*
X133417757Y-63348907D01*
X133340049Y-63292448D01*
X133216868Y-63237606D01*
X133179606Y-63221016D01*
X133179604Y-63221015D01*
X133179603Y-63221015D01*
X133007815Y-63184500D01*
X132832185Y-63184500D01*
X132660396Y-63221015D01*
X132499950Y-63292448D01*
X132357863Y-63395682D01*
X132240340Y-63526203D01*
X132152529Y-63678298D01*
X132098257Y-63845329D01*
X132098256Y-63845333D01*
X132079898Y-64020000D01*
X131220102Y-64020000D01*
X131201744Y-63845333D01*
X131147471Y-63678300D01*
X131059657Y-63526200D01*
X130942138Y-63395683D01*
X130877757Y-63348907D01*
X130800049Y-63292448D01*
X130676868Y-63237606D01*
X130639606Y-63221016D01*
X130639604Y-63221015D01*
X130639603Y-63221015D01*
X130467815Y-63184500D01*
X130292185Y-63184500D01*
X130120396Y-63221015D01*
X129959950Y-63292448D01*
X129817863Y-63395682D01*
X129700340Y-63526203D01*
X129612529Y-63678298D01*
X129558257Y-63845329D01*
X129558256Y-63845333D01*
X129539898Y-64020000D01*
X119240500Y-64020000D01*
X119240500Y-61480000D01*
X129539898Y-61480000D01*
X129558256Y-61654667D01*
X129558257Y-61654670D01*
X129612529Y-61821701D01*
X129700340Y-61973796D01*
X129700341Y-61973798D01*
X129700343Y-61973800D01*
X129817862Y-62104317D01*
X129921096Y-62179321D01*
X129959950Y-62207551D01*
X130021540Y-62234971D01*
X130120394Y-62278984D01*
X130292185Y-62315500D01*
X130467815Y-62315500D01*
X130639606Y-62278984D01*
X130800051Y-62207550D01*
X130942138Y-62104317D01*
X131059657Y-61973800D01*
X131147471Y-61821700D01*
X131201744Y-61654667D01*
X131220102Y-61480000D01*
X132079898Y-61480000D01*
X132098256Y-61654667D01*
X132098257Y-61654670D01*
X132152529Y-61821701D01*
X132240340Y-61973796D01*
X132240341Y-61973798D01*
X132240343Y-61973800D01*
X132357862Y-62104317D01*
X132461096Y-62179321D01*
X132499950Y-62207551D01*
X132561540Y-62234971D01*
X132660394Y-62278984D01*
X132832185Y-62315500D01*
X133007815Y-62315500D01*
X133179606Y-62278984D01*
X133340051Y-62207550D01*
X133482138Y-62104317D01*
X133599657Y-61973800D01*
X133687471Y-61821700D01*
X133741744Y-61654667D01*
X133760102Y-61480000D01*
X134619898Y-61480000D01*
X134638256Y-61654667D01*
X134638257Y-61654670D01*
X134692529Y-61821701D01*
X134780340Y-61973796D01*
X134780341Y-61973798D01*
X134780343Y-61973800D01*
X134897862Y-62104317D01*
X135001096Y-62179321D01*
X135039950Y-62207551D01*
X135101540Y-62234971D01*
X135200394Y-62278984D01*
X135372185Y-62315500D01*
X135547815Y-62315500D01*
X135719606Y-62278984D01*
X135880051Y-62207550D01*
X136022138Y-62104317D01*
X136139657Y-61973800D01*
X136227471Y-61821700D01*
X136281744Y-61654667D01*
X136300102Y-61480000D01*
X137159898Y-61480000D01*
X137178256Y-61654667D01*
X137178257Y-61654670D01*
X137232529Y-61821701D01*
X137320340Y-61973796D01*
X137320341Y-61973798D01*
X137320343Y-61973800D01*
X137437862Y-62104317D01*
X137541096Y-62179321D01*
X137579950Y-62207551D01*
X137641540Y-62234971D01*
X137740394Y-62278984D01*
X137912185Y-62315500D01*
X138087815Y-62315500D01*
X138259606Y-62278984D01*
X138420051Y-62207550D01*
X138562138Y-62104317D01*
X138679657Y-61973800D01*
X138767471Y-61821700D01*
X138821744Y-61654667D01*
X138840102Y-61480000D01*
X139699898Y-61480000D01*
X139718256Y-61654667D01*
X139718257Y-61654670D01*
X139772529Y-61821701D01*
X139860340Y-61973796D01*
X139860341Y-61973798D01*
X139860343Y-61973800D01*
X139977862Y-62104317D01*
X140081096Y-62179321D01*
X140119950Y-62207551D01*
X140181540Y-62234971D01*
X140280394Y-62278984D01*
X140452185Y-62315500D01*
X140627815Y-62315500D01*
X140799606Y-62278984D01*
X140960051Y-62207550D01*
X141102138Y-62104317D01*
X141219657Y-61973800D01*
X141307471Y-61821700D01*
X141361744Y-61654667D01*
X141380102Y-61480000D01*
X142239898Y-61480000D01*
X142258256Y-61654667D01*
X142258257Y-61654670D01*
X142312529Y-61821701D01*
X142400340Y-61973796D01*
X142400341Y-61973798D01*
X142400343Y-61973800D01*
X142517862Y-62104317D01*
X142621096Y-62179321D01*
X142659950Y-62207551D01*
X142721540Y-62234971D01*
X142820394Y-62278984D01*
X142992185Y-62315500D01*
X143167815Y-62315500D01*
X143339606Y-62278984D01*
X143500051Y-62207550D01*
X143642138Y-62104317D01*
X143759657Y-61973800D01*
X143847471Y-61821700D01*
X143901744Y-61654667D01*
X143920102Y-61480000D01*
X144779898Y-61480000D01*
X144798256Y-61654667D01*
X144798257Y-61654670D01*
X144852529Y-61821701D01*
X144940340Y-61973796D01*
X144940341Y-61973798D01*
X144940343Y-61973800D01*
X145057862Y-62104317D01*
X145161096Y-62179321D01*
X145199950Y-62207551D01*
X145261540Y-62234971D01*
X145360394Y-62278984D01*
X145532185Y-62315500D01*
X145707815Y-62315500D01*
X145879606Y-62278984D01*
X146040051Y-62207550D01*
X146182138Y-62104317D01*
X146299657Y-61973800D01*
X146387471Y-61821700D01*
X146441744Y-61654667D01*
X146460102Y-61480000D01*
X147319898Y-61480000D01*
X147338256Y-61654667D01*
X147338257Y-61654670D01*
X147392529Y-61821701D01*
X147480340Y-61973796D01*
X147480341Y-61973798D01*
X147480343Y-61973800D01*
X147597862Y-62104317D01*
X147701096Y-62179321D01*
X147739950Y-62207551D01*
X147801540Y-62234971D01*
X147900394Y-62278984D01*
X148072185Y-62315500D01*
X148247815Y-62315500D01*
X148419606Y-62278984D01*
X148580051Y-62207550D01*
X148722138Y-62104317D01*
X148839657Y-61973800D01*
X148927471Y-61821700D01*
X148981744Y-61654667D01*
X149000102Y-61480000D01*
X149859898Y-61480000D01*
X149878256Y-61654667D01*
X149878257Y-61654670D01*
X149932529Y-61821701D01*
X150020340Y-61973796D01*
X150020341Y-61973798D01*
X150020343Y-61973800D01*
X150137862Y-62104317D01*
X150241096Y-62179321D01*
X150279950Y-62207551D01*
X150341540Y-62234971D01*
X150440394Y-62278984D01*
X150612185Y-62315500D01*
X150787815Y-62315500D01*
X150959606Y-62278984D01*
X151120051Y-62207550D01*
X151262138Y-62104317D01*
X151379657Y-61973800D01*
X151467471Y-61821700D01*
X151521744Y-61654667D01*
X151540102Y-61480000D01*
X152399898Y-61480000D01*
X152418256Y-61654667D01*
X152418257Y-61654670D01*
X152472529Y-61821701D01*
X152560340Y-61973796D01*
X152560341Y-61973798D01*
X152560343Y-61973800D01*
X152677862Y-62104317D01*
X152781096Y-62179321D01*
X152819950Y-62207551D01*
X152881540Y-62234971D01*
X152980394Y-62278984D01*
X153152185Y-62315500D01*
X153327815Y-62315500D01*
X153499606Y-62278984D01*
X153660051Y-62207550D01*
X153802138Y-62104317D01*
X153919657Y-61973800D01*
X154007471Y-61821700D01*
X154061744Y-61654667D01*
X154080102Y-61480000D01*
X154939898Y-61480000D01*
X154958256Y-61654667D01*
X154958257Y-61654670D01*
X155012529Y-61821701D01*
X155100340Y-61973796D01*
X155100341Y-61973798D01*
X155100343Y-61973800D01*
X155217862Y-62104317D01*
X155321096Y-62179321D01*
X155359950Y-62207551D01*
X155421540Y-62234971D01*
X155520394Y-62278984D01*
X155692185Y-62315500D01*
X155867815Y-62315500D01*
X156039606Y-62278984D01*
X156200051Y-62207550D01*
X156342138Y-62104317D01*
X156459657Y-61973800D01*
X156547471Y-61821700D01*
X156601744Y-61654667D01*
X156620102Y-61480000D01*
X157479898Y-61480000D01*
X157498256Y-61654667D01*
X157498257Y-61654670D01*
X157552529Y-61821701D01*
X157640340Y-61973796D01*
X157640341Y-61973798D01*
X157640343Y-61973800D01*
X157757862Y-62104317D01*
X157861096Y-62179321D01*
X157899950Y-62207551D01*
X157961540Y-62234971D01*
X158060394Y-62278984D01*
X158232185Y-62315500D01*
X158407815Y-62315500D01*
X158579606Y-62278984D01*
X158740051Y-62207550D01*
X158882138Y-62104317D01*
X158999657Y-61973800D01*
X159087471Y-61821700D01*
X159141744Y-61654667D01*
X159160102Y-61480000D01*
X160019898Y-61480000D01*
X160038256Y-61654667D01*
X160038257Y-61654670D01*
X160092529Y-61821701D01*
X160180340Y-61973796D01*
X160180341Y-61973798D01*
X160180343Y-61973800D01*
X160297862Y-62104317D01*
X160401096Y-62179321D01*
X160439950Y-62207551D01*
X160501540Y-62234971D01*
X160600394Y-62278984D01*
X160772185Y-62315500D01*
X160947815Y-62315500D01*
X161119606Y-62278984D01*
X161280051Y-62207550D01*
X161422138Y-62104317D01*
X161539657Y-61973800D01*
X161627471Y-61821700D01*
X161681744Y-61654667D01*
X161700102Y-61480000D01*
X162559898Y-61480000D01*
X162578256Y-61654667D01*
X162578257Y-61654670D01*
X162632529Y-61821701D01*
X162720340Y-61973796D01*
X162720341Y-61973798D01*
X162720343Y-61973800D01*
X162837862Y-62104317D01*
X162941096Y-62179321D01*
X162979950Y-62207551D01*
X163041540Y-62234971D01*
X163140394Y-62278984D01*
X163312185Y-62315500D01*
X163487815Y-62315500D01*
X163659606Y-62278984D01*
X163820051Y-62207550D01*
X163962138Y-62104317D01*
X164079657Y-61973800D01*
X164167471Y-61821700D01*
X164221744Y-61654667D01*
X164240102Y-61480000D01*
X165099898Y-61480000D01*
X165118256Y-61654667D01*
X165118257Y-61654670D01*
X165172529Y-61821701D01*
X165260340Y-61973796D01*
X165260341Y-61973798D01*
X165260343Y-61973800D01*
X165377862Y-62104317D01*
X165481096Y-62179321D01*
X165519950Y-62207551D01*
X165581540Y-62234971D01*
X165680394Y-62278984D01*
X165852185Y-62315500D01*
X166027815Y-62315500D01*
X166199606Y-62278984D01*
X166360051Y-62207550D01*
X166502138Y-62104317D01*
X166619657Y-61973800D01*
X166707471Y-61821700D01*
X166761744Y-61654667D01*
X166780102Y-61480000D01*
X167639898Y-61480000D01*
X167658256Y-61654667D01*
X167658257Y-61654670D01*
X167712529Y-61821701D01*
X167800340Y-61973796D01*
X167800341Y-61973798D01*
X167800343Y-61973800D01*
X167917862Y-62104317D01*
X168021096Y-62179321D01*
X168059950Y-62207551D01*
X168121540Y-62234971D01*
X168220394Y-62278984D01*
X168392185Y-62315500D01*
X168567815Y-62315500D01*
X168739606Y-62278984D01*
X168900051Y-62207550D01*
X169042138Y-62104317D01*
X169159657Y-61973800D01*
X169247471Y-61821700D01*
X169301744Y-61654667D01*
X169320102Y-61480000D01*
X169301744Y-61305333D01*
X169247471Y-61138300D01*
X169241654Y-61128225D01*
X169167625Y-61000000D01*
X174244867Y-61000000D01*
X174263302Y-61128225D01*
X174317117Y-61246061D01*
X174317118Y-61246063D01*
X174401951Y-61343967D01*
X174510931Y-61414004D01*
X174635225Y-61450499D01*
X174635227Y-61450500D01*
X174635228Y-61450500D01*
X174764773Y-61450500D01*
X174764773Y-61450499D01*
X174889069Y-61414004D01*
X174998049Y-61343967D01*
X175082882Y-61246063D01*
X175136697Y-61128226D01*
X175155133Y-61000000D01*
X175136697Y-60871774D01*
X175082882Y-60753937D01*
X174998049Y-60656033D01*
X174889069Y-60585996D01*
X174889065Y-60585994D01*
X174889064Y-60585994D01*
X174764774Y-60549500D01*
X174764772Y-60549500D01*
X174635228Y-60549500D01*
X174635226Y-60549500D01*
X174510935Y-60585994D01*
X174510932Y-60585995D01*
X174510931Y-60585996D01*
X174459677Y-60618934D01*
X174401950Y-60656033D01*
X174317118Y-60753937D01*
X174317117Y-60753938D01*
X174263302Y-60871774D01*
X174244867Y-61000000D01*
X169167625Y-61000000D01*
X169159659Y-60986203D01*
X169159658Y-60986202D01*
X169159657Y-60986200D01*
X169042138Y-60855683D01*
X168977757Y-60808907D01*
X168900049Y-60752448D01*
X168776868Y-60697606D01*
X168739606Y-60681016D01*
X168739604Y-60681015D01*
X168739603Y-60681015D01*
X168567815Y-60644500D01*
X168392185Y-60644500D01*
X168220396Y-60681015D01*
X168059950Y-60752448D01*
X167917863Y-60855682D01*
X167917862Y-60855683D01*
X167888482Y-60888312D01*
X167800340Y-60986203D01*
X167712529Y-61138298D01*
X167677514Y-61246063D01*
X167658256Y-61305333D01*
X167639898Y-61480000D01*
X166780102Y-61480000D01*
X166761744Y-61305333D01*
X166707471Y-61138300D01*
X166701654Y-61128225D01*
X166619659Y-60986203D01*
X166619658Y-60986202D01*
X166619657Y-60986200D01*
X166502138Y-60855683D01*
X166437757Y-60808907D01*
X166360049Y-60752448D01*
X166236868Y-60697606D01*
X166199606Y-60681016D01*
X166199604Y-60681015D01*
X166199603Y-60681015D01*
X166027815Y-60644500D01*
X165852185Y-60644500D01*
X165680396Y-60681015D01*
X165519950Y-60752448D01*
X165377863Y-60855682D01*
X165377862Y-60855683D01*
X165348482Y-60888312D01*
X165260340Y-60986203D01*
X165172529Y-61138298D01*
X165137514Y-61246063D01*
X165118256Y-61305333D01*
X165099898Y-61480000D01*
X164240102Y-61480000D01*
X164221744Y-61305333D01*
X164167471Y-61138300D01*
X164161654Y-61128225D01*
X164079659Y-60986203D01*
X164079658Y-60986202D01*
X164079657Y-60986200D01*
X163962138Y-60855683D01*
X163897757Y-60808907D01*
X163820049Y-60752448D01*
X163696868Y-60697606D01*
X163659606Y-60681016D01*
X163659604Y-60681015D01*
X163659603Y-60681015D01*
X163487815Y-60644500D01*
X163312185Y-60644500D01*
X163140396Y-60681015D01*
X162979950Y-60752448D01*
X162837863Y-60855682D01*
X162837862Y-60855683D01*
X162808482Y-60888312D01*
X162720340Y-60986203D01*
X162632529Y-61138298D01*
X162597514Y-61246063D01*
X162578256Y-61305333D01*
X162559898Y-61480000D01*
X161700102Y-61480000D01*
X161681744Y-61305333D01*
X161627471Y-61138300D01*
X161621654Y-61128225D01*
X161539659Y-60986203D01*
X161539658Y-60986202D01*
X161539657Y-60986200D01*
X161422138Y-60855683D01*
X161357757Y-60808907D01*
X161280049Y-60752448D01*
X161156868Y-60697606D01*
X161119606Y-60681016D01*
X161119604Y-60681015D01*
X161119603Y-60681015D01*
X160947815Y-60644500D01*
X160772185Y-60644500D01*
X160600396Y-60681015D01*
X160439950Y-60752448D01*
X160297863Y-60855682D01*
X160297862Y-60855683D01*
X160268482Y-60888312D01*
X160180340Y-60986203D01*
X160092529Y-61138298D01*
X160057514Y-61246063D01*
X160038256Y-61305333D01*
X160019898Y-61480000D01*
X159160102Y-61480000D01*
X159141744Y-61305333D01*
X159087471Y-61138300D01*
X159081654Y-61128225D01*
X158999659Y-60986203D01*
X158999658Y-60986202D01*
X158999657Y-60986200D01*
X158882138Y-60855683D01*
X158817757Y-60808907D01*
X158740049Y-60752448D01*
X158616868Y-60697606D01*
X158579606Y-60681016D01*
X158579604Y-60681015D01*
X158579603Y-60681015D01*
X158407815Y-60644500D01*
X158232185Y-60644500D01*
X158060396Y-60681015D01*
X157899950Y-60752448D01*
X157757863Y-60855682D01*
X157757862Y-60855683D01*
X157728482Y-60888312D01*
X157640340Y-60986203D01*
X157552529Y-61138298D01*
X157517514Y-61246063D01*
X157498256Y-61305333D01*
X157479898Y-61480000D01*
X156620102Y-61480000D01*
X156601744Y-61305333D01*
X156547471Y-61138300D01*
X156541654Y-61128225D01*
X156459659Y-60986203D01*
X156459658Y-60986202D01*
X156459657Y-60986200D01*
X156342138Y-60855683D01*
X156277757Y-60808907D01*
X156200049Y-60752448D01*
X156076868Y-60697606D01*
X156039606Y-60681016D01*
X156039604Y-60681015D01*
X156039603Y-60681015D01*
X155867815Y-60644500D01*
X155692185Y-60644500D01*
X155520396Y-60681015D01*
X155359950Y-60752448D01*
X155217863Y-60855682D01*
X155217862Y-60855683D01*
X155188482Y-60888312D01*
X155100340Y-60986203D01*
X155012529Y-61138298D01*
X154977514Y-61246063D01*
X154958256Y-61305333D01*
X154939898Y-61480000D01*
X154080102Y-61480000D01*
X154061744Y-61305333D01*
X154007471Y-61138300D01*
X154001654Y-61128225D01*
X153919659Y-60986203D01*
X153919658Y-60986202D01*
X153919657Y-60986200D01*
X153802138Y-60855683D01*
X153737757Y-60808907D01*
X153660049Y-60752448D01*
X153536868Y-60697606D01*
X153499606Y-60681016D01*
X153499604Y-60681015D01*
X153499603Y-60681015D01*
X153327815Y-60644500D01*
X153152185Y-60644500D01*
X152980396Y-60681015D01*
X152819950Y-60752448D01*
X152677863Y-60855682D01*
X152677862Y-60855683D01*
X152648482Y-60888312D01*
X152560340Y-60986203D01*
X152472529Y-61138298D01*
X152437514Y-61246063D01*
X152418256Y-61305333D01*
X152399898Y-61480000D01*
X151540102Y-61480000D01*
X151521744Y-61305333D01*
X151467471Y-61138300D01*
X151461654Y-61128225D01*
X151379659Y-60986203D01*
X151379658Y-60986202D01*
X151379657Y-60986200D01*
X151262138Y-60855683D01*
X151197757Y-60808907D01*
X151120049Y-60752448D01*
X150996868Y-60697606D01*
X150959606Y-60681016D01*
X150959604Y-60681015D01*
X150959603Y-60681015D01*
X150787815Y-60644500D01*
X150612185Y-60644500D01*
X150440396Y-60681015D01*
X150279950Y-60752448D01*
X150137863Y-60855682D01*
X150137862Y-60855683D01*
X150108482Y-60888312D01*
X150020340Y-60986203D01*
X149932529Y-61138298D01*
X149897514Y-61246063D01*
X149878256Y-61305333D01*
X149859898Y-61480000D01*
X149000102Y-61480000D01*
X148981744Y-61305333D01*
X148927471Y-61138300D01*
X148921654Y-61128225D01*
X148839659Y-60986203D01*
X148839658Y-60986202D01*
X148839657Y-60986200D01*
X148722138Y-60855683D01*
X148657757Y-60808907D01*
X148580049Y-60752448D01*
X148456868Y-60697606D01*
X148419606Y-60681016D01*
X148419604Y-60681015D01*
X148419603Y-60681015D01*
X148247815Y-60644500D01*
X148072185Y-60644500D01*
X147900396Y-60681015D01*
X147739950Y-60752448D01*
X147597863Y-60855682D01*
X147597862Y-60855683D01*
X147568482Y-60888312D01*
X147480340Y-60986203D01*
X147392529Y-61138298D01*
X147357514Y-61246063D01*
X147338256Y-61305333D01*
X147319898Y-61480000D01*
X146460102Y-61480000D01*
X146441744Y-61305333D01*
X146387471Y-61138300D01*
X146381654Y-61128225D01*
X146299659Y-60986203D01*
X146299658Y-60986202D01*
X146299657Y-60986200D01*
X146182138Y-60855683D01*
X146117757Y-60808907D01*
X146040049Y-60752448D01*
X145916868Y-60697606D01*
X145879606Y-60681016D01*
X145879604Y-60681015D01*
X145879603Y-60681015D01*
X145707815Y-60644500D01*
X145532185Y-60644500D01*
X145360396Y-60681015D01*
X145199950Y-60752448D01*
X145057863Y-60855682D01*
X145057862Y-60855683D01*
X145028482Y-60888312D01*
X144940340Y-60986203D01*
X144852529Y-61138298D01*
X144817514Y-61246063D01*
X144798256Y-61305333D01*
X144779898Y-61480000D01*
X143920102Y-61480000D01*
X143901744Y-61305333D01*
X143847471Y-61138300D01*
X143841654Y-61128225D01*
X143759659Y-60986203D01*
X143759658Y-60986202D01*
X143759657Y-60986200D01*
X143642138Y-60855683D01*
X143577757Y-60808907D01*
X143500049Y-60752448D01*
X143376868Y-60697606D01*
X143339606Y-60681016D01*
X143339604Y-60681015D01*
X143339603Y-60681015D01*
X143167815Y-60644500D01*
X142992185Y-60644500D01*
X142820396Y-60681015D01*
X142659950Y-60752448D01*
X142517863Y-60855682D01*
X142517862Y-60855683D01*
X142488482Y-60888312D01*
X142400340Y-60986203D01*
X142312529Y-61138298D01*
X142277514Y-61246063D01*
X142258256Y-61305333D01*
X142239898Y-61480000D01*
X141380102Y-61480000D01*
X141361744Y-61305333D01*
X141307471Y-61138300D01*
X141301654Y-61128225D01*
X141219659Y-60986203D01*
X141219658Y-60986202D01*
X141219657Y-60986200D01*
X141102138Y-60855683D01*
X141037757Y-60808907D01*
X140960049Y-60752448D01*
X140836868Y-60697606D01*
X140799606Y-60681016D01*
X140799604Y-60681015D01*
X140799603Y-60681015D01*
X140627815Y-60644500D01*
X140452185Y-60644500D01*
X140280396Y-60681015D01*
X140119950Y-60752448D01*
X139977863Y-60855682D01*
X139977862Y-60855683D01*
X139948482Y-60888312D01*
X139860340Y-60986203D01*
X139772529Y-61138298D01*
X139737514Y-61246063D01*
X139718256Y-61305333D01*
X139699898Y-61480000D01*
X138840102Y-61480000D01*
X138821744Y-61305333D01*
X138767471Y-61138300D01*
X138761654Y-61128225D01*
X138679659Y-60986203D01*
X138679658Y-60986202D01*
X138679657Y-60986200D01*
X138562138Y-60855683D01*
X138497757Y-60808907D01*
X138420049Y-60752448D01*
X138296868Y-60697606D01*
X138259606Y-60681016D01*
X138259604Y-60681015D01*
X138259603Y-60681015D01*
X138087815Y-60644500D01*
X137912185Y-60644500D01*
X137740396Y-60681015D01*
X137579950Y-60752448D01*
X137437863Y-60855682D01*
X137437862Y-60855683D01*
X137408482Y-60888312D01*
X137320340Y-60986203D01*
X137232529Y-61138298D01*
X137197514Y-61246063D01*
X137178256Y-61305333D01*
X137159898Y-61480000D01*
X136300102Y-61480000D01*
X136281744Y-61305333D01*
X136227471Y-61138300D01*
X136221654Y-61128225D01*
X136139659Y-60986203D01*
X136139658Y-60986202D01*
X136139657Y-60986200D01*
X136022138Y-60855683D01*
X135957757Y-60808907D01*
X135880049Y-60752448D01*
X135756868Y-60697606D01*
X135719606Y-60681016D01*
X135719604Y-60681015D01*
X135719603Y-60681015D01*
X135547815Y-60644500D01*
X135372185Y-60644500D01*
X135200396Y-60681015D01*
X135039950Y-60752448D01*
X134897863Y-60855682D01*
X134897862Y-60855683D01*
X134868482Y-60888312D01*
X134780340Y-60986203D01*
X134692529Y-61138298D01*
X134657514Y-61246063D01*
X134638256Y-61305333D01*
X134619898Y-61480000D01*
X133760102Y-61480000D01*
X133741744Y-61305333D01*
X133687471Y-61138300D01*
X133681654Y-61128225D01*
X133599659Y-60986203D01*
X133599658Y-60986202D01*
X133599657Y-60986200D01*
X133482138Y-60855683D01*
X133417757Y-60808907D01*
X133340049Y-60752448D01*
X133216868Y-60697606D01*
X133179606Y-60681016D01*
X133179604Y-60681015D01*
X133179603Y-60681015D01*
X133007815Y-60644500D01*
X132832185Y-60644500D01*
X132660396Y-60681015D01*
X132499950Y-60752448D01*
X132357863Y-60855682D01*
X132357862Y-60855683D01*
X132328482Y-60888312D01*
X132240340Y-60986203D01*
X132152529Y-61138298D01*
X132117514Y-61246063D01*
X132098256Y-61305333D01*
X132079898Y-61480000D01*
X131220102Y-61480000D01*
X131201744Y-61305333D01*
X131147471Y-61138300D01*
X131141654Y-61128225D01*
X131059659Y-60986203D01*
X131059658Y-60986202D01*
X131059657Y-60986200D01*
X130942138Y-60855683D01*
X130877757Y-60808907D01*
X130800049Y-60752448D01*
X130676868Y-60697606D01*
X130639606Y-60681016D01*
X130639604Y-60681015D01*
X130639603Y-60681015D01*
X130467815Y-60644500D01*
X130292185Y-60644500D01*
X130120396Y-60681015D01*
X129959950Y-60752448D01*
X129817863Y-60855682D01*
X129817862Y-60855683D01*
X129788482Y-60888312D01*
X129700340Y-60986203D01*
X129612529Y-61138298D01*
X129577514Y-61246063D01*
X129558256Y-61305333D01*
X129539898Y-61480000D01*
X119240500Y-61480000D01*
X119240500Y-58939999D01*
X129189923Y-58939999D01*
X129189923Y-58940000D01*
X129210185Y-59158675D01*
X129210186Y-59158677D01*
X129270284Y-59369900D01*
X129270290Y-59369915D01*
X129368172Y-59566489D01*
X129368177Y-59566497D01*
X129381846Y-59584597D01*
X129381847Y-59584598D01*
X129888871Y-59077574D01*
X129904755Y-59136853D01*
X129971898Y-59253147D01*
X130066853Y-59348102D01*
X130183147Y-59415245D01*
X130242424Y-59431128D01*
X129737567Y-59935984D01*
X129737568Y-59935985D01*
X129849533Y-60005311D01*
X129849539Y-60005314D01*
X130054321Y-60084646D01*
X130270197Y-60125000D01*
X130489803Y-60125000D01*
X130705677Y-60084646D01*
X130705687Y-60084643D01*
X130910462Y-60005313D01*
X130910464Y-60005312D01*
X131022431Y-59935984D01*
X130517575Y-59431127D01*
X130576853Y-59415245D01*
X130693147Y-59348102D01*
X130788102Y-59253147D01*
X130855245Y-59136853D01*
X130871128Y-59077575D01*
X131378150Y-59584598D01*
X131378152Y-59584597D01*
X131391822Y-59566497D01*
X131391824Y-59566493D01*
X131489709Y-59369915D01*
X131489715Y-59369900D01*
X131530734Y-59225735D01*
X131568013Y-59166641D01*
X131631323Y-59137084D01*
X131700562Y-59146446D01*
X131753749Y-59191756D01*
X131769266Y-59225735D01*
X131810284Y-59369900D01*
X131810290Y-59369915D01*
X131908172Y-59566489D01*
X131908177Y-59566497D01*
X131921846Y-59584597D01*
X131921847Y-59584598D01*
X132428871Y-59077574D01*
X132444755Y-59136853D01*
X132511898Y-59253147D01*
X132606853Y-59348102D01*
X132723147Y-59415245D01*
X132782424Y-59431128D01*
X132277567Y-59935984D01*
X132277568Y-59935985D01*
X132389533Y-60005311D01*
X132389539Y-60005314D01*
X132594321Y-60084646D01*
X132810197Y-60125000D01*
X133029803Y-60125000D01*
X133245677Y-60084646D01*
X133245687Y-60084643D01*
X133450462Y-60005313D01*
X133450464Y-60005312D01*
X133562431Y-59935984D01*
X133057575Y-59431127D01*
X133116853Y-59415245D01*
X133233147Y-59348102D01*
X133328102Y-59253147D01*
X133395245Y-59136853D01*
X133411128Y-59077575D01*
X133918150Y-59584598D01*
X133918152Y-59584597D01*
X133931822Y-59566497D01*
X133931824Y-59566493D01*
X134029709Y-59369915D01*
X134029715Y-59369900D01*
X134070734Y-59225735D01*
X134108013Y-59166641D01*
X134171323Y-59137084D01*
X134240562Y-59146446D01*
X134293749Y-59191756D01*
X134309266Y-59225735D01*
X134350284Y-59369900D01*
X134350290Y-59369915D01*
X134448172Y-59566489D01*
X134448177Y-59566497D01*
X134461846Y-59584597D01*
X134461847Y-59584598D01*
X134968871Y-59077574D01*
X134984755Y-59136853D01*
X135051898Y-59253147D01*
X135146853Y-59348102D01*
X135263147Y-59415245D01*
X135322424Y-59431128D01*
X134817567Y-59935984D01*
X134817568Y-59935985D01*
X134929533Y-60005311D01*
X134929539Y-60005314D01*
X135134321Y-60084646D01*
X135350197Y-60125000D01*
X135569803Y-60125000D01*
X135785677Y-60084646D01*
X135785687Y-60084643D01*
X135990462Y-60005313D01*
X135990464Y-60005312D01*
X136102431Y-59935984D01*
X135597575Y-59431127D01*
X135656853Y-59415245D01*
X135773147Y-59348102D01*
X135868102Y-59253147D01*
X135935245Y-59136853D01*
X135951128Y-59077575D01*
X136458150Y-59584598D01*
X136458152Y-59584597D01*
X136471822Y-59566497D01*
X136471824Y-59566493D01*
X136569709Y-59369915D01*
X136569715Y-59369900D01*
X136610734Y-59225735D01*
X136648013Y-59166641D01*
X136711323Y-59137084D01*
X136780562Y-59146446D01*
X136833749Y-59191756D01*
X136849266Y-59225735D01*
X136890284Y-59369900D01*
X136890290Y-59369915D01*
X136988172Y-59566489D01*
X136988177Y-59566497D01*
X137001846Y-59584597D01*
X137001847Y-59584598D01*
X137508871Y-59077574D01*
X137524755Y-59136853D01*
X137591898Y-59253147D01*
X137686853Y-59348102D01*
X137803147Y-59415245D01*
X137862424Y-59431128D01*
X137357567Y-59935984D01*
X137357568Y-59935985D01*
X137469533Y-60005311D01*
X137469539Y-60005314D01*
X137674321Y-60084646D01*
X137890197Y-60125000D01*
X138109803Y-60125000D01*
X138325677Y-60084646D01*
X138325687Y-60084643D01*
X138530462Y-60005313D01*
X138530464Y-60005312D01*
X138642431Y-59935984D01*
X138137575Y-59431127D01*
X138196853Y-59415245D01*
X138313147Y-59348102D01*
X138408102Y-59253147D01*
X138475245Y-59136853D01*
X138491128Y-59077575D01*
X138998150Y-59584598D01*
X138998152Y-59584597D01*
X139011822Y-59566497D01*
X139011824Y-59566493D01*
X139109709Y-59369915D01*
X139109715Y-59369900D01*
X139150734Y-59225735D01*
X139188013Y-59166641D01*
X139251323Y-59137084D01*
X139320562Y-59146446D01*
X139373749Y-59191756D01*
X139389266Y-59225735D01*
X139430284Y-59369900D01*
X139430290Y-59369915D01*
X139528172Y-59566489D01*
X139528177Y-59566497D01*
X139541846Y-59584597D01*
X139541847Y-59584598D01*
X140048871Y-59077574D01*
X140064755Y-59136853D01*
X140131898Y-59253147D01*
X140226853Y-59348102D01*
X140343147Y-59415245D01*
X140402424Y-59431128D01*
X139897567Y-59935984D01*
X139897568Y-59935985D01*
X140009533Y-60005311D01*
X140009539Y-60005314D01*
X140214321Y-60084646D01*
X140430197Y-60125000D01*
X140649803Y-60125000D01*
X140865677Y-60084646D01*
X140865687Y-60084643D01*
X141070462Y-60005313D01*
X141070464Y-60005312D01*
X141182431Y-59935984D01*
X140677575Y-59431127D01*
X140736853Y-59415245D01*
X140853147Y-59348102D01*
X140948102Y-59253147D01*
X141015245Y-59136853D01*
X141031128Y-59077575D01*
X141538150Y-59584598D01*
X141538152Y-59584597D01*
X141551822Y-59566497D01*
X141551824Y-59566493D01*
X141649709Y-59369915D01*
X141649715Y-59369900D01*
X141690734Y-59225735D01*
X141728013Y-59166641D01*
X141791323Y-59137084D01*
X141860562Y-59146446D01*
X141913749Y-59191756D01*
X141929266Y-59225735D01*
X141970284Y-59369900D01*
X141970290Y-59369915D01*
X142068172Y-59566489D01*
X142068177Y-59566497D01*
X142081846Y-59584597D01*
X142081847Y-59584598D01*
X142588871Y-59077574D01*
X142604755Y-59136853D01*
X142671898Y-59253147D01*
X142766853Y-59348102D01*
X142883147Y-59415245D01*
X142942424Y-59431128D01*
X142437567Y-59935984D01*
X142437568Y-59935985D01*
X142549533Y-60005311D01*
X142549539Y-60005314D01*
X142754321Y-60084646D01*
X142970197Y-60125000D01*
X143189803Y-60125000D01*
X143405677Y-60084646D01*
X143405687Y-60084643D01*
X143610462Y-60005313D01*
X143610464Y-60005312D01*
X143722431Y-59935984D01*
X143217575Y-59431127D01*
X143276853Y-59415245D01*
X143393147Y-59348102D01*
X143488102Y-59253147D01*
X143555245Y-59136853D01*
X143571128Y-59077575D01*
X144078150Y-59584598D01*
X144078152Y-59584597D01*
X144091822Y-59566497D01*
X144091824Y-59566493D01*
X144189709Y-59369915D01*
X144189715Y-59369900D01*
X144230734Y-59225735D01*
X144268013Y-59166641D01*
X144331323Y-59137084D01*
X144400562Y-59146446D01*
X144453749Y-59191756D01*
X144469266Y-59225735D01*
X144510284Y-59369900D01*
X144510290Y-59369915D01*
X144608172Y-59566489D01*
X144608177Y-59566497D01*
X144621846Y-59584597D01*
X144621847Y-59584598D01*
X145128871Y-59077574D01*
X145144755Y-59136853D01*
X145211898Y-59253147D01*
X145306853Y-59348102D01*
X145423147Y-59415245D01*
X145482424Y-59431128D01*
X144977567Y-59935984D01*
X144977568Y-59935985D01*
X145089533Y-60005311D01*
X145089539Y-60005314D01*
X145294321Y-60084646D01*
X145510197Y-60125000D01*
X145729803Y-60125000D01*
X145945677Y-60084646D01*
X145945687Y-60084643D01*
X146150462Y-60005313D01*
X146150464Y-60005312D01*
X146262431Y-59935984D01*
X145757575Y-59431127D01*
X145816853Y-59415245D01*
X145933147Y-59348102D01*
X146028102Y-59253147D01*
X146095245Y-59136853D01*
X146111127Y-59077575D01*
X146618150Y-59584598D01*
X146618152Y-59584597D01*
X146631822Y-59566497D01*
X146631824Y-59566493D01*
X146729709Y-59369915D01*
X146729715Y-59369900D01*
X146770734Y-59225735D01*
X146808013Y-59166641D01*
X146871323Y-59137084D01*
X146940562Y-59146446D01*
X146993749Y-59191756D01*
X147009266Y-59225735D01*
X147050284Y-59369900D01*
X147050290Y-59369915D01*
X147148172Y-59566489D01*
X147148177Y-59566497D01*
X147161846Y-59584597D01*
X147161847Y-59584598D01*
X147668871Y-59077574D01*
X147684755Y-59136853D01*
X147751898Y-59253147D01*
X147846853Y-59348102D01*
X147963147Y-59415245D01*
X148022424Y-59431128D01*
X147517567Y-59935984D01*
X147517568Y-59935985D01*
X147629533Y-60005311D01*
X147629539Y-60005314D01*
X147834321Y-60084646D01*
X148050197Y-60125000D01*
X148269803Y-60125000D01*
X148485677Y-60084646D01*
X148485687Y-60084643D01*
X148690462Y-60005313D01*
X148690464Y-60005312D01*
X148802431Y-59935984D01*
X148297575Y-59431127D01*
X148356853Y-59415245D01*
X148473147Y-59348102D01*
X148568102Y-59253147D01*
X148635245Y-59136853D01*
X148651127Y-59077575D01*
X149158150Y-59584598D01*
X149158152Y-59584597D01*
X149171822Y-59566497D01*
X149171824Y-59566493D01*
X149269709Y-59369915D01*
X149269715Y-59369900D01*
X149310734Y-59225735D01*
X149348013Y-59166641D01*
X149411323Y-59137084D01*
X149480562Y-59146446D01*
X149533749Y-59191756D01*
X149549266Y-59225735D01*
X149590284Y-59369900D01*
X149590290Y-59369915D01*
X149688172Y-59566489D01*
X149688177Y-59566497D01*
X149701846Y-59584597D01*
X149701847Y-59584598D01*
X150208871Y-59077574D01*
X150224755Y-59136853D01*
X150291898Y-59253147D01*
X150386853Y-59348102D01*
X150503147Y-59415245D01*
X150562424Y-59431128D01*
X150057567Y-59935984D01*
X150057568Y-59935985D01*
X150169533Y-60005311D01*
X150169539Y-60005314D01*
X150374321Y-60084646D01*
X150590197Y-60125000D01*
X150809803Y-60125000D01*
X151025677Y-60084646D01*
X151025687Y-60084643D01*
X151230462Y-60005313D01*
X151230464Y-60005312D01*
X151342431Y-59935984D01*
X150837575Y-59431127D01*
X150896853Y-59415245D01*
X151013147Y-59348102D01*
X151108102Y-59253147D01*
X151175245Y-59136853D01*
X151191128Y-59077575D01*
X151698150Y-59584598D01*
X151698152Y-59584597D01*
X151711822Y-59566497D01*
X151711824Y-59566493D01*
X151809709Y-59369915D01*
X151809715Y-59369900D01*
X151850734Y-59225735D01*
X151888013Y-59166641D01*
X151951323Y-59137084D01*
X152020562Y-59146446D01*
X152073749Y-59191756D01*
X152089266Y-59225735D01*
X152130284Y-59369900D01*
X152130290Y-59369915D01*
X152228172Y-59566489D01*
X152228177Y-59566497D01*
X152241846Y-59584597D01*
X152241847Y-59584598D01*
X152748871Y-59077574D01*
X152764755Y-59136853D01*
X152831898Y-59253147D01*
X152926853Y-59348102D01*
X153043147Y-59415245D01*
X153102424Y-59431128D01*
X152597567Y-59935984D01*
X152597568Y-59935985D01*
X152709533Y-60005311D01*
X152709539Y-60005314D01*
X152914321Y-60084646D01*
X153130197Y-60125000D01*
X153349803Y-60125000D01*
X153565677Y-60084646D01*
X153565687Y-60084643D01*
X153770462Y-60005313D01*
X153770464Y-60005312D01*
X153882431Y-59935984D01*
X153377575Y-59431127D01*
X153436853Y-59415245D01*
X153553147Y-59348102D01*
X153648102Y-59253147D01*
X153715245Y-59136853D01*
X153731128Y-59077575D01*
X154238150Y-59584598D01*
X154238152Y-59584597D01*
X154251822Y-59566497D01*
X154251824Y-59566493D01*
X154349709Y-59369915D01*
X154349715Y-59369900D01*
X154390734Y-59225735D01*
X154428013Y-59166641D01*
X154491323Y-59137084D01*
X154560562Y-59146446D01*
X154613749Y-59191756D01*
X154629266Y-59225735D01*
X154670284Y-59369900D01*
X154670290Y-59369915D01*
X154768172Y-59566489D01*
X154768177Y-59566497D01*
X154781846Y-59584597D01*
X154781847Y-59584598D01*
X155288871Y-59077574D01*
X155304755Y-59136853D01*
X155371898Y-59253147D01*
X155466853Y-59348102D01*
X155583147Y-59415245D01*
X155642424Y-59431128D01*
X155137567Y-59935984D01*
X155137568Y-59935985D01*
X155249533Y-60005311D01*
X155249539Y-60005314D01*
X155454321Y-60084646D01*
X155670197Y-60125000D01*
X155889803Y-60125000D01*
X156105677Y-60084646D01*
X156105687Y-60084643D01*
X156310462Y-60005313D01*
X156310464Y-60005312D01*
X156422431Y-59935984D01*
X155917575Y-59431127D01*
X155976853Y-59415245D01*
X156093147Y-59348102D01*
X156188102Y-59253147D01*
X156255245Y-59136853D01*
X156271128Y-59077575D01*
X156778150Y-59584598D01*
X156778152Y-59584597D01*
X156791822Y-59566497D01*
X156791824Y-59566493D01*
X156889709Y-59369915D01*
X156889715Y-59369900D01*
X156930734Y-59225735D01*
X156968013Y-59166641D01*
X157031323Y-59137084D01*
X157100562Y-59146446D01*
X157153749Y-59191756D01*
X157169266Y-59225735D01*
X157210284Y-59369900D01*
X157210290Y-59369915D01*
X157308172Y-59566489D01*
X157308177Y-59566497D01*
X157321846Y-59584597D01*
X157321847Y-59584598D01*
X157828871Y-59077574D01*
X157844755Y-59136853D01*
X157911898Y-59253147D01*
X158006853Y-59348102D01*
X158123147Y-59415245D01*
X158182424Y-59431128D01*
X157677567Y-59935984D01*
X157677568Y-59935985D01*
X157789533Y-60005311D01*
X157789539Y-60005314D01*
X157994321Y-60084646D01*
X158210197Y-60125000D01*
X158429803Y-60125000D01*
X158645677Y-60084646D01*
X158645687Y-60084643D01*
X158850462Y-60005313D01*
X158850464Y-60005312D01*
X158962431Y-59935984D01*
X158457575Y-59431127D01*
X158516853Y-59415245D01*
X158633147Y-59348102D01*
X158728102Y-59253147D01*
X158795245Y-59136853D01*
X158811128Y-59077575D01*
X159318150Y-59584598D01*
X159318152Y-59584597D01*
X159331822Y-59566497D01*
X159331824Y-59566493D01*
X159429709Y-59369915D01*
X159429715Y-59369900D01*
X159470734Y-59225735D01*
X159508013Y-59166641D01*
X159571323Y-59137084D01*
X159640562Y-59146446D01*
X159693749Y-59191756D01*
X159709266Y-59225735D01*
X159750284Y-59369900D01*
X159750290Y-59369915D01*
X159848172Y-59566489D01*
X159848177Y-59566497D01*
X159861846Y-59584597D01*
X159861847Y-59584598D01*
X160368871Y-59077574D01*
X160384755Y-59136853D01*
X160451898Y-59253147D01*
X160546853Y-59348102D01*
X160663147Y-59415245D01*
X160722424Y-59431128D01*
X160217567Y-59935984D01*
X160217568Y-59935985D01*
X160329533Y-60005311D01*
X160329539Y-60005314D01*
X160534321Y-60084646D01*
X160750197Y-60125000D01*
X160969803Y-60125000D01*
X161185677Y-60084646D01*
X161185687Y-60084643D01*
X161390462Y-60005313D01*
X161390464Y-60005312D01*
X161502431Y-59935984D01*
X160997575Y-59431127D01*
X161056853Y-59415245D01*
X161173147Y-59348102D01*
X161268102Y-59253147D01*
X161335245Y-59136853D01*
X161351127Y-59077575D01*
X161858150Y-59584598D01*
X161858152Y-59584597D01*
X161871822Y-59566497D01*
X161871824Y-59566493D01*
X161969709Y-59369915D01*
X161969715Y-59369900D01*
X162010734Y-59225735D01*
X162048013Y-59166641D01*
X162111323Y-59137084D01*
X162180562Y-59146446D01*
X162233749Y-59191756D01*
X162249266Y-59225735D01*
X162290284Y-59369900D01*
X162290290Y-59369915D01*
X162388172Y-59566489D01*
X162388177Y-59566497D01*
X162401846Y-59584597D01*
X162401847Y-59584598D01*
X162908871Y-59077574D01*
X162924755Y-59136853D01*
X162991898Y-59253147D01*
X163086853Y-59348102D01*
X163203147Y-59415245D01*
X163262424Y-59431128D01*
X162757567Y-59935984D01*
X162757568Y-59935985D01*
X162869533Y-60005311D01*
X162869539Y-60005314D01*
X163074321Y-60084646D01*
X163290197Y-60125000D01*
X163509803Y-60125000D01*
X163725677Y-60084646D01*
X163725687Y-60084643D01*
X163930462Y-60005313D01*
X163930464Y-60005312D01*
X164042431Y-59935984D01*
X163537575Y-59431127D01*
X163596853Y-59415245D01*
X163713147Y-59348102D01*
X163808102Y-59253147D01*
X163875245Y-59136853D01*
X163891128Y-59077575D01*
X164398150Y-59584598D01*
X164398152Y-59584597D01*
X164411822Y-59566497D01*
X164411824Y-59566493D01*
X164509709Y-59369915D01*
X164509715Y-59369900D01*
X164550734Y-59225735D01*
X164588013Y-59166641D01*
X164651323Y-59137084D01*
X164720562Y-59146446D01*
X164773749Y-59191756D01*
X164789266Y-59225735D01*
X164830284Y-59369900D01*
X164830290Y-59369915D01*
X164928172Y-59566489D01*
X164928177Y-59566497D01*
X164941846Y-59584597D01*
X164941847Y-59584598D01*
X165448871Y-59077574D01*
X165464755Y-59136853D01*
X165531898Y-59253147D01*
X165626853Y-59348102D01*
X165743147Y-59415245D01*
X165802424Y-59431128D01*
X165297567Y-59935984D01*
X165297568Y-59935985D01*
X165409533Y-60005311D01*
X165409539Y-60005314D01*
X165614321Y-60084646D01*
X165830197Y-60125000D01*
X166049803Y-60125000D01*
X166265677Y-60084646D01*
X166265687Y-60084643D01*
X166470462Y-60005313D01*
X166470464Y-60005312D01*
X166582431Y-59935984D01*
X166077575Y-59431127D01*
X166136853Y-59415245D01*
X166253147Y-59348102D01*
X166348102Y-59253147D01*
X166415245Y-59136853D01*
X166431128Y-59077575D01*
X166938150Y-59584598D01*
X166938152Y-59584597D01*
X166951822Y-59566497D01*
X166951824Y-59566493D01*
X167049709Y-59369915D01*
X167049715Y-59369900D01*
X167051734Y-59362805D01*
X167089013Y-59303711D01*
X167152323Y-59274154D01*
X167221562Y-59283516D01*
X167274749Y-59328826D01*
X167294996Y-59395697D01*
X167295000Y-59396739D01*
X167295000Y-59672844D01*
X167301401Y-59732372D01*
X167301403Y-59732379D01*
X167351645Y-59867086D01*
X167351649Y-59867093D01*
X167437809Y-59982187D01*
X167437812Y-59982190D01*
X167552906Y-60068350D01*
X167552913Y-60068354D01*
X167687620Y-60118596D01*
X167687627Y-60118598D01*
X167747155Y-60124999D01*
X167747172Y-60125000D01*
X168230000Y-60125000D01*
X168230000Y-59384560D01*
X168283147Y-59415245D01*
X168412857Y-59450000D01*
X168547143Y-59450000D01*
X168676853Y-59415245D01*
X168730000Y-59384560D01*
X168730000Y-60125000D01*
X169212828Y-60125000D01*
X169212844Y-60124999D01*
X169272372Y-60118598D01*
X169272379Y-60118596D01*
X169407086Y-60068354D01*
X169407093Y-60068350D01*
X169522187Y-59982190D01*
X169522190Y-59982187D01*
X169608350Y-59867093D01*
X169608354Y-59867086D01*
X169658596Y-59732379D01*
X169658598Y-59732372D01*
X169664999Y-59672844D01*
X169665000Y-59672827D01*
X169665000Y-59190000D01*
X168924560Y-59190000D01*
X168955245Y-59136853D01*
X168990000Y-59007143D01*
X168990000Y-58872857D01*
X168955245Y-58743147D01*
X168924560Y-58690000D01*
X169665000Y-58690000D01*
X169665000Y-58207172D01*
X169664999Y-58207155D01*
X169658598Y-58147627D01*
X169658596Y-58147620D01*
X169608354Y-58012913D01*
X169608350Y-58012906D01*
X169522190Y-57897812D01*
X169522187Y-57897809D01*
X169407093Y-57811649D01*
X169407086Y-57811645D01*
X169272379Y-57761403D01*
X169272372Y-57761401D01*
X169212844Y-57755000D01*
X168730000Y-57755000D01*
X168730000Y-58495439D01*
X168676853Y-58464755D01*
X168547143Y-58430000D01*
X168412857Y-58430000D01*
X168283147Y-58464755D01*
X168230000Y-58495439D01*
X168230000Y-57755000D01*
X167747155Y-57755000D01*
X167687627Y-57761401D01*
X167687620Y-57761403D01*
X167552913Y-57811645D01*
X167552906Y-57811649D01*
X167437812Y-57897809D01*
X167437809Y-57897812D01*
X167351649Y-58012906D01*
X167351645Y-58012913D01*
X167301403Y-58147620D01*
X167301401Y-58147627D01*
X167295000Y-58207155D01*
X167295000Y-58483260D01*
X167275315Y-58550299D01*
X167222511Y-58596054D01*
X167153353Y-58605998D01*
X167089797Y-58576973D01*
X167052023Y-58518195D01*
X167051734Y-58517197D01*
X167049712Y-58510092D01*
X167049709Y-58510084D01*
X166951827Y-58313510D01*
X166951822Y-58313502D01*
X166938151Y-58295400D01*
X166431128Y-58802424D01*
X166415245Y-58743147D01*
X166348102Y-58626853D01*
X166253147Y-58531898D01*
X166136853Y-58464755D01*
X166077574Y-58448871D01*
X166582431Y-57944014D01*
X166582430Y-57944013D01*
X166470466Y-57874689D01*
X166470460Y-57874685D01*
X166265678Y-57795353D01*
X166049803Y-57755000D01*
X165830197Y-57755000D01*
X165614322Y-57795353D01*
X165614321Y-57795353D01*
X165409540Y-57874685D01*
X165297567Y-57944014D01*
X165802425Y-58448871D01*
X165743147Y-58464755D01*
X165626853Y-58531898D01*
X165531898Y-58626853D01*
X165464755Y-58743147D01*
X165448871Y-58802425D01*
X164941847Y-58295401D01*
X164941846Y-58295401D01*
X164928176Y-58313503D01*
X164830290Y-58510084D01*
X164830285Y-58510097D01*
X164789266Y-58654265D01*
X164751987Y-58713358D01*
X164688677Y-58742915D01*
X164619437Y-58733553D01*
X164566251Y-58688243D01*
X164550734Y-58654265D01*
X164509714Y-58510097D01*
X164509709Y-58510084D01*
X164411827Y-58313510D01*
X164411822Y-58313502D01*
X164398151Y-58295400D01*
X163891128Y-58802424D01*
X163875245Y-58743147D01*
X163808102Y-58626853D01*
X163713147Y-58531898D01*
X163596853Y-58464755D01*
X163537574Y-58448871D01*
X164042431Y-57944014D01*
X164042430Y-57944013D01*
X163930466Y-57874689D01*
X163930460Y-57874685D01*
X163725678Y-57795353D01*
X163509803Y-57755000D01*
X163290197Y-57755000D01*
X163074322Y-57795353D01*
X163074321Y-57795353D01*
X162869540Y-57874685D01*
X162757567Y-57944014D01*
X163262425Y-58448871D01*
X163203147Y-58464755D01*
X163086853Y-58531898D01*
X162991898Y-58626853D01*
X162924755Y-58743147D01*
X162908871Y-58802425D01*
X162401847Y-58295401D01*
X162401846Y-58295401D01*
X162388176Y-58313503D01*
X162290290Y-58510084D01*
X162290285Y-58510097D01*
X162249266Y-58654265D01*
X162211987Y-58713358D01*
X162148677Y-58742915D01*
X162079437Y-58733553D01*
X162026251Y-58688243D01*
X162010734Y-58654265D01*
X161969714Y-58510097D01*
X161969709Y-58510084D01*
X161871827Y-58313510D01*
X161871822Y-58313502D01*
X161858151Y-58295400D01*
X161351127Y-58802423D01*
X161335245Y-58743147D01*
X161268102Y-58626853D01*
X161173147Y-58531898D01*
X161056853Y-58464755D01*
X160997574Y-58448871D01*
X161502431Y-57944014D01*
X161502430Y-57944013D01*
X161390466Y-57874689D01*
X161390460Y-57874685D01*
X161185678Y-57795353D01*
X160969803Y-57755000D01*
X160750197Y-57755000D01*
X160534322Y-57795353D01*
X160534321Y-57795353D01*
X160329540Y-57874685D01*
X160217567Y-57944014D01*
X160722425Y-58448871D01*
X160663147Y-58464755D01*
X160546853Y-58531898D01*
X160451898Y-58626853D01*
X160384755Y-58743147D01*
X160368871Y-58802425D01*
X159861847Y-58295401D01*
X159861846Y-58295401D01*
X159848176Y-58313503D01*
X159750290Y-58510084D01*
X159750285Y-58510097D01*
X159709266Y-58654265D01*
X159671987Y-58713358D01*
X159608677Y-58742915D01*
X159539437Y-58733553D01*
X159486251Y-58688243D01*
X159470734Y-58654265D01*
X159429714Y-58510097D01*
X159429709Y-58510084D01*
X159331827Y-58313510D01*
X159331822Y-58313502D01*
X159318151Y-58295400D01*
X158811128Y-58802424D01*
X158795245Y-58743147D01*
X158728102Y-58626853D01*
X158633147Y-58531898D01*
X158516853Y-58464755D01*
X158457574Y-58448871D01*
X158962431Y-57944014D01*
X158962430Y-57944013D01*
X158850466Y-57874689D01*
X158850460Y-57874685D01*
X158645678Y-57795353D01*
X158429803Y-57755000D01*
X158210197Y-57755000D01*
X157994322Y-57795353D01*
X157994321Y-57795353D01*
X157789540Y-57874685D01*
X157677567Y-57944014D01*
X158182425Y-58448871D01*
X158123147Y-58464755D01*
X158006853Y-58531898D01*
X157911898Y-58626853D01*
X157844755Y-58743147D01*
X157828871Y-58802425D01*
X157321847Y-58295401D01*
X157321846Y-58295401D01*
X157308176Y-58313503D01*
X157210290Y-58510084D01*
X157210285Y-58510097D01*
X157169266Y-58654265D01*
X157131987Y-58713358D01*
X157068677Y-58742915D01*
X156999437Y-58733553D01*
X156946251Y-58688243D01*
X156930734Y-58654265D01*
X156889714Y-58510097D01*
X156889709Y-58510084D01*
X156791827Y-58313510D01*
X156791822Y-58313502D01*
X156778151Y-58295400D01*
X156271128Y-58802424D01*
X156255245Y-58743147D01*
X156188102Y-58626853D01*
X156093147Y-58531898D01*
X155976853Y-58464755D01*
X155917574Y-58448871D01*
X156422431Y-57944014D01*
X156422430Y-57944013D01*
X156310466Y-57874689D01*
X156310460Y-57874685D01*
X156105678Y-57795353D01*
X155889803Y-57755000D01*
X155670197Y-57755000D01*
X155454322Y-57795353D01*
X155454321Y-57795353D01*
X155249540Y-57874685D01*
X155137567Y-57944014D01*
X155642425Y-58448871D01*
X155583147Y-58464755D01*
X155466853Y-58531898D01*
X155371898Y-58626853D01*
X155304755Y-58743147D01*
X155288871Y-58802425D01*
X154781847Y-58295401D01*
X154781846Y-58295401D01*
X154768176Y-58313503D01*
X154670290Y-58510084D01*
X154670285Y-58510097D01*
X154629266Y-58654265D01*
X154591987Y-58713358D01*
X154528677Y-58742915D01*
X154459437Y-58733553D01*
X154406251Y-58688243D01*
X154390734Y-58654265D01*
X154349714Y-58510097D01*
X154349709Y-58510084D01*
X154251827Y-58313510D01*
X154251822Y-58313502D01*
X154238151Y-58295400D01*
X153731128Y-58802424D01*
X153715245Y-58743147D01*
X153648102Y-58626853D01*
X153553147Y-58531898D01*
X153436853Y-58464755D01*
X153377574Y-58448871D01*
X153882431Y-57944014D01*
X153882430Y-57944013D01*
X153770466Y-57874689D01*
X153770460Y-57874685D01*
X153565678Y-57795353D01*
X153349803Y-57755000D01*
X153130197Y-57755000D01*
X152914322Y-57795353D01*
X152914321Y-57795353D01*
X152709540Y-57874685D01*
X152597567Y-57944014D01*
X153102425Y-58448871D01*
X153043147Y-58464755D01*
X152926853Y-58531898D01*
X152831898Y-58626853D01*
X152764755Y-58743147D01*
X152748871Y-58802425D01*
X152241847Y-58295401D01*
X152241846Y-58295401D01*
X152228176Y-58313503D01*
X152130290Y-58510084D01*
X152130285Y-58510097D01*
X152089266Y-58654265D01*
X152051987Y-58713358D01*
X151988677Y-58742915D01*
X151919437Y-58733553D01*
X151866251Y-58688243D01*
X151850734Y-58654265D01*
X151809714Y-58510097D01*
X151809709Y-58510084D01*
X151711827Y-58313510D01*
X151711822Y-58313502D01*
X151698151Y-58295400D01*
X151191128Y-58802424D01*
X151175245Y-58743147D01*
X151108102Y-58626853D01*
X151013147Y-58531898D01*
X150896853Y-58464755D01*
X150837574Y-58448871D01*
X151342431Y-57944014D01*
X151342430Y-57944013D01*
X151230466Y-57874689D01*
X151230460Y-57874685D01*
X151025678Y-57795353D01*
X150809803Y-57755000D01*
X150590197Y-57755000D01*
X150374322Y-57795353D01*
X150374321Y-57795353D01*
X150169540Y-57874685D01*
X150057567Y-57944014D01*
X150562425Y-58448871D01*
X150503147Y-58464755D01*
X150386853Y-58531898D01*
X150291898Y-58626853D01*
X150224755Y-58743147D01*
X150208871Y-58802425D01*
X149701847Y-58295401D01*
X149701846Y-58295401D01*
X149688176Y-58313503D01*
X149590290Y-58510084D01*
X149590285Y-58510097D01*
X149549266Y-58654265D01*
X149511987Y-58713358D01*
X149448677Y-58742915D01*
X149379437Y-58733553D01*
X149326251Y-58688243D01*
X149310734Y-58654265D01*
X149269714Y-58510097D01*
X149269709Y-58510084D01*
X149171827Y-58313510D01*
X149171822Y-58313502D01*
X149158151Y-58295400D01*
X148651127Y-58802423D01*
X148635245Y-58743147D01*
X148568102Y-58626853D01*
X148473147Y-58531898D01*
X148356853Y-58464755D01*
X148297574Y-58448871D01*
X148802431Y-57944014D01*
X148802430Y-57944013D01*
X148690466Y-57874689D01*
X148690460Y-57874685D01*
X148485678Y-57795353D01*
X148269803Y-57755000D01*
X148050197Y-57755000D01*
X147834322Y-57795353D01*
X147834321Y-57795353D01*
X147629540Y-57874685D01*
X147517567Y-57944014D01*
X148022425Y-58448871D01*
X147963147Y-58464755D01*
X147846853Y-58531898D01*
X147751898Y-58626853D01*
X147684755Y-58743147D01*
X147668871Y-58802425D01*
X147161847Y-58295401D01*
X147161846Y-58295401D01*
X147148176Y-58313503D01*
X147050290Y-58510084D01*
X147050285Y-58510097D01*
X147009266Y-58654265D01*
X146971987Y-58713358D01*
X146908677Y-58742915D01*
X146839437Y-58733553D01*
X146786251Y-58688243D01*
X146770734Y-58654265D01*
X146729714Y-58510097D01*
X146729709Y-58510084D01*
X146631827Y-58313510D01*
X146631822Y-58313502D01*
X146618151Y-58295400D01*
X146111127Y-58802423D01*
X146095245Y-58743147D01*
X146028102Y-58626853D01*
X145933147Y-58531898D01*
X145816853Y-58464755D01*
X145757574Y-58448871D01*
X146262431Y-57944014D01*
X146262430Y-57944013D01*
X146150466Y-57874689D01*
X146150460Y-57874685D01*
X145945678Y-57795353D01*
X145729803Y-57755000D01*
X145510197Y-57755000D01*
X145294322Y-57795353D01*
X145294321Y-57795353D01*
X145089540Y-57874685D01*
X144977567Y-57944014D01*
X145482425Y-58448871D01*
X145423147Y-58464755D01*
X145306853Y-58531898D01*
X145211898Y-58626853D01*
X145144755Y-58743147D01*
X145128871Y-58802425D01*
X144621847Y-58295401D01*
X144621846Y-58295401D01*
X144608176Y-58313503D01*
X144510290Y-58510084D01*
X144510285Y-58510097D01*
X144469266Y-58654265D01*
X144431987Y-58713358D01*
X144368677Y-58742915D01*
X144299437Y-58733553D01*
X144246251Y-58688243D01*
X144230734Y-58654265D01*
X144189714Y-58510097D01*
X144189709Y-58510084D01*
X144091827Y-58313510D01*
X144091822Y-58313502D01*
X144078151Y-58295400D01*
X143571128Y-58802424D01*
X143555245Y-58743147D01*
X143488102Y-58626853D01*
X143393147Y-58531898D01*
X143276853Y-58464755D01*
X143217574Y-58448871D01*
X143722431Y-57944014D01*
X143722430Y-57944013D01*
X143610466Y-57874689D01*
X143610460Y-57874685D01*
X143405678Y-57795353D01*
X143189803Y-57755000D01*
X142970197Y-57755000D01*
X142754322Y-57795353D01*
X142754321Y-57795353D01*
X142549540Y-57874685D01*
X142437567Y-57944014D01*
X142942425Y-58448871D01*
X142883147Y-58464755D01*
X142766853Y-58531898D01*
X142671898Y-58626853D01*
X142604755Y-58743147D01*
X142588871Y-58802425D01*
X142081847Y-58295401D01*
X142081846Y-58295401D01*
X142068176Y-58313503D01*
X141970290Y-58510084D01*
X141970285Y-58510097D01*
X141929266Y-58654265D01*
X141891987Y-58713358D01*
X141828677Y-58742915D01*
X141759437Y-58733553D01*
X141706251Y-58688243D01*
X141690734Y-58654265D01*
X141649714Y-58510097D01*
X141649709Y-58510084D01*
X141551827Y-58313510D01*
X141551822Y-58313502D01*
X141538151Y-58295400D01*
X141031128Y-58802424D01*
X141015245Y-58743147D01*
X140948102Y-58626853D01*
X140853147Y-58531898D01*
X140736853Y-58464755D01*
X140677574Y-58448871D01*
X141182431Y-57944014D01*
X141182430Y-57944013D01*
X141070466Y-57874689D01*
X141070460Y-57874685D01*
X140865678Y-57795353D01*
X140649803Y-57755000D01*
X140430197Y-57755000D01*
X140214322Y-57795353D01*
X140214321Y-57795353D01*
X140009540Y-57874685D01*
X139897567Y-57944014D01*
X140402425Y-58448871D01*
X140343147Y-58464755D01*
X140226853Y-58531898D01*
X140131898Y-58626853D01*
X140064755Y-58743147D01*
X140048871Y-58802425D01*
X139541847Y-58295401D01*
X139541846Y-58295401D01*
X139528176Y-58313503D01*
X139430290Y-58510084D01*
X139430285Y-58510097D01*
X139389266Y-58654265D01*
X139351987Y-58713358D01*
X139288677Y-58742915D01*
X139219437Y-58733553D01*
X139166251Y-58688243D01*
X139150734Y-58654265D01*
X139109714Y-58510097D01*
X139109709Y-58510084D01*
X139011827Y-58313510D01*
X139011822Y-58313502D01*
X138998151Y-58295400D01*
X138491128Y-58802424D01*
X138475245Y-58743147D01*
X138408102Y-58626853D01*
X138313147Y-58531898D01*
X138196853Y-58464755D01*
X138137574Y-58448871D01*
X138642431Y-57944014D01*
X138642430Y-57944013D01*
X138530466Y-57874689D01*
X138530460Y-57874685D01*
X138325678Y-57795353D01*
X138109803Y-57755000D01*
X137890197Y-57755000D01*
X137674322Y-57795353D01*
X137674321Y-57795353D01*
X137469540Y-57874685D01*
X137357567Y-57944014D01*
X137862425Y-58448871D01*
X137803147Y-58464755D01*
X137686853Y-58531898D01*
X137591898Y-58626853D01*
X137524755Y-58743147D01*
X137508871Y-58802425D01*
X137001847Y-58295401D01*
X137001846Y-58295401D01*
X136988176Y-58313503D01*
X136890290Y-58510084D01*
X136890285Y-58510097D01*
X136849266Y-58654265D01*
X136811987Y-58713358D01*
X136748677Y-58742915D01*
X136679437Y-58733553D01*
X136626251Y-58688243D01*
X136610734Y-58654265D01*
X136569714Y-58510097D01*
X136569709Y-58510084D01*
X136471827Y-58313510D01*
X136471822Y-58313502D01*
X136458151Y-58295400D01*
X135951128Y-58802424D01*
X135935245Y-58743147D01*
X135868102Y-58626853D01*
X135773147Y-58531898D01*
X135656853Y-58464755D01*
X135597574Y-58448871D01*
X136102431Y-57944014D01*
X136102430Y-57944013D01*
X135990466Y-57874689D01*
X135990460Y-57874685D01*
X135785678Y-57795353D01*
X135569803Y-57755000D01*
X135350197Y-57755000D01*
X135134322Y-57795353D01*
X135134321Y-57795353D01*
X134929540Y-57874685D01*
X134817567Y-57944014D01*
X135322425Y-58448871D01*
X135263147Y-58464755D01*
X135146853Y-58531898D01*
X135051898Y-58626853D01*
X134984755Y-58743147D01*
X134968871Y-58802425D01*
X134461847Y-58295401D01*
X134461846Y-58295401D01*
X134448176Y-58313503D01*
X134350290Y-58510084D01*
X134350285Y-58510097D01*
X134309266Y-58654265D01*
X134271987Y-58713358D01*
X134208677Y-58742915D01*
X134139437Y-58733553D01*
X134086251Y-58688243D01*
X134070734Y-58654265D01*
X134029714Y-58510097D01*
X134029709Y-58510084D01*
X133931827Y-58313510D01*
X133931822Y-58313502D01*
X133918151Y-58295400D01*
X133411128Y-58802424D01*
X133395245Y-58743147D01*
X133328102Y-58626853D01*
X133233147Y-58531898D01*
X133116853Y-58464755D01*
X133057574Y-58448871D01*
X133562431Y-57944014D01*
X133562430Y-57944013D01*
X133450466Y-57874689D01*
X133450460Y-57874685D01*
X133245678Y-57795353D01*
X133029803Y-57755000D01*
X132810197Y-57755000D01*
X132594322Y-57795353D01*
X132594321Y-57795353D01*
X132389540Y-57874685D01*
X132277567Y-57944014D01*
X132782425Y-58448871D01*
X132723147Y-58464755D01*
X132606853Y-58531898D01*
X132511898Y-58626853D01*
X132444755Y-58743147D01*
X132428871Y-58802425D01*
X131921847Y-58295401D01*
X131921846Y-58295401D01*
X131908176Y-58313503D01*
X131810290Y-58510084D01*
X131810285Y-58510097D01*
X131769266Y-58654265D01*
X131731987Y-58713358D01*
X131668677Y-58742915D01*
X131599437Y-58733553D01*
X131546251Y-58688243D01*
X131530734Y-58654265D01*
X131489714Y-58510097D01*
X131489709Y-58510084D01*
X131391827Y-58313510D01*
X131391822Y-58313502D01*
X131378151Y-58295400D01*
X130871128Y-58802424D01*
X130855245Y-58743147D01*
X130788102Y-58626853D01*
X130693147Y-58531898D01*
X130576853Y-58464755D01*
X130517574Y-58448871D01*
X131022431Y-57944014D01*
X131022430Y-57944013D01*
X130910466Y-57874689D01*
X130910460Y-57874685D01*
X130705678Y-57795353D01*
X130489803Y-57755000D01*
X130270197Y-57755000D01*
X130054322Y-57795353D01*
X130054321Y-57795353D01*
X129849540Y-57874685D01*
X129737567Y-57944014D01*
X130242425Y-58448871D01*
X130183147Y-58464755D01*
X130066853Y-58531898D01*
X129971898Y-58626853D01*
X129904755Y-58743147D01*
X129888871Y-58802425D01*
X129381847Y-58295401D01*
X129381846Y-58295401D01*
X129368176Y-58313503D01*
X129270290Y-58510084D01*
X129270284Y-58510099D01*
X129210186Y-58721322D01*
X129210185Y-58721324D01*
X129189923Y-58939999D01*
X119240500Y-58939999D01*
X119240500Y-53842706D01*
X119240618Y-53837297D01*
X119242227Y-53800438D01*
X119245999Y-53714038D01*
X122339500Y-53714038D01*
X122339500Y-53965961D01*
X122378910Y-54214785D01*
X122456760Y-54454383D01*
X122535413Y-54608747D01*
X122561751Y-54660438D01*
X122571132Y-54678848D01*
X122719201Y-54882649D01*
X122719205Y-54882654D01*
X122897345Y-55060794D01*
X122897350Y-55060798D01*
X123075117Y-55189952D01*
X123101155Y-55208870D01*
X123244184Y-55281747D01*
X123325616Y-55323239D01*
X123325618Y-55323239D01*
X123325621Y-55323241D01*
X123565215Y-55401090D01*
X123814038Y-55440500D01*
X123814039Y-55440500D01*
X124065961Y-55440500D01*
X124065962Y-55440500D01*
X124314785Y-55401090D01*
X124554379Y-55323241D01*
X124778845Y-55208870D01*
X124982656Y-55060793D01*
X125160793Y-54882656D01*
X125308870Y-54678845D01*
X125423241Y-54454379D01*
X125501090Y-54214785D01*
X125540500Y-53965962D01*
X125540500Y-53714038D01*
X125501090Y-53465215D01*
X125423241Y-53225621D01*
X125423239Y-53225618D01*
X125423239Y-53225616D01*
X125381747Y-53144184D01*
X125308870Y-53001155D01*
X125289952Y-52975117D01*
X125160798Y-52797350D01*
X125160794Y-52797345D01*
X124982654Y-52619205D01*
X124982649Y-52619201D01*
X124778848Y-52471132D01*
X124778847Y-52471131D01*
X124778845Y-52471130D01*
X124708747Y-52435413D01*
X124554383Y-52356760D01*
X124314785Y-52278910D01*
X124065962Y-52239500D01*
X123814038Y-52239500D01*
X123689626Y-52259205D01*
X123565214Y-52278910D01*
X123325616Y-52356760D01*
X123101151Y-52471132D01*
X122897350Y-52619201D01*
X122897345Y-52619205D01*
X122719205Y-52797345D01*
X122719201Y-52797350D01*
X122571132Y-53001151D01*
X122456760Y-53225616D01*
X122378910Y-53465214D01*
X122339500Y-53714038D01*
X119245999Y-53714038D01*
X119258147Y-53435795D01*
X119259087Y-53425064D01*
X119311189Y-53029302D01*
X119313063Y-53018672D01*
X119399463Y-52628950D01*
X119402261Y-52618512D01*
X119448730Y-52471132D01*
X119522291Y-52237823D01*
X119525979Y-52227691D01*
X119678742Y-51858888D01*
X119683300Y-51849114D01*
X119867617Y-51495045D01*
X119873012Y-51485700D01*
X120087495Y-51149029D01*
X120093685Y-51140189D01*
X120336687Y-50823503D01*
X120343625Y-50815234D01*
X120613304Y-50520932D01*
X120620932Y-50513304D01*
X120915234Y-50243625D01*
X120923503Y-50236687D01*
X121240189Y-49993685D01*
X121249029Y-49987495D01*
X121585700Y-49773012D01*
X121595045Y-49767617D01*
X121949114Y-49583300D01*
X121958888Y-49578742D01*
X122327691Y-49425979D01*
X122337823Y-49422291D01*
X122718521Y-49302258D01*
X122728950Y-49299463D01*
X123118672Y-49213063D01*
X123129302Y-49211189D01*
X123525064Y-49159087D01*
X123535795Y-49158147D01*
X123937297Y-49140617D01*
X123942706Y-49140500D01*
X123987595Y-49140500D01*
X128515500Y-49140500D01*
X128582539Y-49160185D01*
G37*
G04 #@! TD.AperFunction*
M02*
